ISO-10303-21;
HEADER;
/* Generated by software containing ST-Developer
 * from STEP Tools, Inc. (www.steptools.com) 
 */

FILE_DESCRIPTION(
/* description */ (''),
/* implementation_level */ '2;1');

FILE_NAME(
/* name */ 'gearbox top v8.step',
/* time_stamp */ '2025-06-01T15:34:08-07:00',
/* author */ (''),
/* organization */ (''),
/* preprocessor_version */ 'ST-DEVELOPER v20.1',
/* originating_system */ 'Autodesk Translation Framework v14.10.0.0',
/* authorisation */ '');

FILE_SCHEMA (('AUTOMOTIVE_DESIGN { 1 0 10303 214 3 1 1 }'));
ENDSEC;

DATA;
#10=MECHANICAL_DESIGN_GEOMETRIC_PRESENTATION_REPRESENTATION('',(#13),#583);
#11=SHAPE_REPRESENTATION_RELATIONSHIP('SRR','None',#590,#12);
#12=ADVANCED_BREP_SHAPE_REPRESENTATION('',(#14),#582);
#13=STYLED_ITEM('',(#599),#14);
#14=MANIFOLD_SOLID_BREP('Body1',#363);
#15=FACE_BOUND('',#49,.T.);
#16=FACE_BOUND('',#54,.T.);
#17=FACE_OUTER_BOUND('',#35,.T.);
#18=FACE_OUTER_BOUND('',#36,.T.);
#19=FACE_OUTER_BOUND('',#37,.T.);
#20=FACE_OUTER_BOUND('',#38,.T.);
#21=FACE_OUTER_BOUND('',#39,.T.);
#22=FACE_OUTER_BOUND('',#40,.T.);
#23=FACE_OUTER_BOUND('',#41,.T.);
#24=FACE_OUTER_BOUND('',#42,.T.);
#25=FACE_OUTER_BOUND('',#43,.T.);
#26=FACE_OUTER_BOUND('',#44,.T.);
#27=FACE_OUTER_BOUND('',#45,.T.);
#28=FACE_OUTER_BOUND('',#46,.T.);
#29=FACE_OUTER_BOUND('',#47,.T.);
#30=FACE_OUTER_BOUND('',#48,.T.);
#31=FACE_OUTER_BOUND('',#50,.T.);
#32=FACE_OUTER_BOUND('',#51,.T.);
#33=FACE_OUTER_BOUND('',#52,.T.);
#34=FACE_OUTER_BOUND('',#53,.T.);
#35=EDGE_LOOP('',(#231,#232,#233,#234));
#36=EDGE_LOOP('',(#235,#236,#237,#238));
#37=EDGE_LOOP('',(#239,#240,#241,#242));
#38=EDGE_LOOP('',(#243,#244,#245,#246));
#39=EDGE_LOOP('',(#247,#248,#249,#250));
#40=EDGE_LOOP('',(#251,#252,#253,#254));
#41=EDGE_LOOP('',(#255,#256,#257,#258));
#42=EDGE_LOOP('',(#259,#260,#261,#262));
#43=EDGE_LOOP('',(#263,#264,#265,#266));
#44=EDGE_LOOP('',(#267,#268,#269,#270));
#45=EDGE_LOOP('',(#271,#272,#273,#274));
#46=EDGE_LOOP('',(#275,#276,#277,#278,#279,#280,#281,#282,#283,#284,#285,
#286));
#47=EDGE_LOOP('',(#287,#288,#289,#290));
#48=EDGE_LOOP('',(#291,#292,#293,#294));
#49=EDGE_LOOP('',(#295,#296,#297,#298));
#50=EDGE_LOOP('',(#299,#300,#301,#302));
#51=EDGE_LOOP('',(#303,#304,#305,#306,#307,#308,#309,#310,#311,#312,#313,
#314));
#52=EDGE_LOOP('',(#315,#316,#317,#318));
#53=EDGE_LOOP('',(#319,#320,#321,#322));
#54=EDGE_LOOP('',(#323,#324,#325,#326));
#55=LINE('',#485,#103);
#56=LINE('',#487,#104);
#57=LINE('',#489,#105);
#58=LINE('',#490,#106);
#59=LINE('',#493,#107);
#60=LINE('',#495,#108);
#61=LINE('',#496,#109);
#62=LINE('',#499,#110);
#63=LINE('',#501,#111);
#64=LINE('',#502,#112);
#65=LINE('',#504,#113);
#66=LINE('',#505,#114);
#67=LINE('',#509,#115);
#68=LINE('',#511,#116);
#69=LINE('',#513,#117);
#70=LINE('',#514,#118);
#71=LINE('',#517,#119);
#72=LINE('',#519,#120);
#73=LINE('',#520,#121);
#74=LINE('',#524,#122);
#75=LINE('',#526,#123);
#76=LINE('',#528,#124);
#77=LINE('',#529,#125);
#78=LINE('',#533,#126);
#79=LINE('',#535,#127);
#80=LINE('',#537,#128);
#81=LINE('',#538,#129);
#82=LINE('',#540,#130);
#83=LINE('',#541,#131);
#84=LINE('',#545,#132);
#85=LINE('',#547,#133);
#86=LINE('',#549,#134);
#87=LINE('',#550,#135);
#88=LINE('',#553,#136);
#89=LINE('',#555,#137);
#90=LINE('',#556,#138);
#91=LINE('',#559,#139);
#92=LINE('',#561,#140);
#93=LINE('',#562,#141);
#94=LINE('',#563,#142);
#95=LINE('',#564,#143);
#96=LINE('',#566,#144);
#97=LINE('',#568,#145);
#98=LINE('',#571,#146);
#99=LINE('',#572,#147);
#100=LINE('',#575,#148);
#101=LINE('',#576,#149);
#102=LINE('',#578,#150);
#103=VECTOR('',#399,10.);
#104=VECTOR('',#400,10.);
#105=VECTOR('',#401,10.);
#106=VECTOR('',#402,10.);
#107=VECTOR('',#405,10.);
#108=VECTOR('',#406,10.);
#109=VECTOR('',#407,10.);
#110=VECTOR('',#410,10.);
#111=VECTOR('',#411,10.);
#112=VECTOR('',#412,10.);
#113=VECTOR('',#415,10.);
#114=VECTOR('',#416,10.);
#115=VECTOR('',#419,10.);
#116=VECTOR('',#420,10.);
#117=VECTOR('',#421,10.);
#118=VECTOR('',#422,10.);
#119=VECTOR('',#425,10.);
#120=VECTOR('',#426,10.);
#121=VECTOR('',#427,10.);
#122=VECTOR('',#430,10.);
#123=VECTOR('',#431,10.);
#124=VECTOR('',#432,10.);
#125=VECTOR('',#433,10.);
#126=VECTOR('',#436,10.);
#127=VECTOR('',#437,10.);
#128=VECTOR('',#438,10.);
#129=VECTOR('',#439,10.);
#130=VECTOR('',#442,10.);
#131=VECTOR('',#443,10.);
#132=VECTOR('',#446,10.);
#133=VECTOR('',#447,10.);
#134=VECTOR('',#448,10.);
#135=VECTOR('',#449,10.);
#136=VECTOR('',#452,10.);
#137=VECTOR('',#453,10.);
#138=VECTOR('',#454,10.);
#139=VECTOR('',#457,10.);
#140=VECTOR('',#458,10.);
#141=VECTOR('',#459,10.);
#142=VECTOR('',#460,10.);
#143=VECTOR('',#461,10.);
#144=VECTOR('',#464,10.);
#145=VECTOR('',#467,10.);
#146=VECTOR('',#470,10.);
#147=VECTOR('',#471,10.);
#148=VECTOR('',#474,10.);
#149=VECTOR('',#475,10.);
#150=VECTOR('',#478,10.);
#151=VERTEX_POINT('',#483);
#152=VERTEX_POINT('',#484);
#153=VERTEX_POINT('',#486);
#154=VERTEX_POINT('',#488);
#155=VERTEX_POINT('',#492);
#156=VERTEX_POINT('',#494);
#157=VERTEX_POINT('',#498);
#158=VERTEX_POINT('',#500);
#159=VERTEX_POINT('',#507);
#160=VERTEX_POINT('',#508);
#161=VERTEX_POINT('',#510);
#162=VERTEX_POINT('',#512);
#163=VERTEX_POINT('',#516);
#164=VERTEX_POINT('',#518);
#165=VERTEX_POINT('',#522);
#166=VERTEX_POINT('',#523);
#167=VERTEX_POINT('',#525);
#168=VERTEX_POINT('',#527);
#169=VERTEX_POINT('',#531);
#170=VERTEX_POINT('',#532);
#171=VERTEX_POINT('',#534);
#172=VERTEX_POINT('',#536);
#173=VERTEX_POINT('',#543);
#174=VERTEX_POINT('',#544);
#175=VERTEX_POINT('',#546);
#176=VERTEX_POINT('',#548);
#177=VERTEX_POINT('',#552);
#178=VERTEX_POINT('',#554);
#179=VERTEX_POINT('',#558);
#180=VERTEX_POINT('',#560);
#181=VERTEX_POINT('',#570);
#182=VERTEX_POINT('',#574);
#183=EDGE_CURVE('',#151,#152,#55,.T.);
#184=EDGE_CURVE('',#151,#153,#56,.T.);
#185=EDGE_CURVE('',#154,#153,#57,.T.);
#186=EDGE_CURVE('',#152,#154,#58,.T.);
#187=EDGE_CURVE('',#155,#151,#59,.T.);
#188=EDGE_CURVE('',#155,#156,#60,.T.);
#189=EDGE_CURVE('',#153,#156,#61,.T.);
#190=EDGE_CURVE('',#157,#155,#62,.T.);
#191=EDGE_CURVE('',#157,#158,#63,.T.);
#192=EDGE_CURVE('',#156,#158,#64,.T.);
#193=EDGE_CURVE('',#152,#157,#65,.T.);
#194=EDGE_CURVE('',#158,#154,#66,.T.);
#195=EDGE_CURVE('',#159,#160,#67,.T.);
#196=EDGE_CURVE('',#161,#159,#68,.T.);
#197=EDGE_CURVE('',#161,#162,#69,.T.);
#198=EDGE_CURVE('',#160,#162,#70,.T.);
#199=EDGE_CURVE('',#162,#163,#71,.T.);
#200=EDGE_CURVE('',#164,#161,#72,.T.);
#201=EDGE_CURVE('',#163,#164,#73,.T.);
#202=EDGE_CURVE('',#165,#166,#74,.T.);
#203=EDGE_CURVE('',#167,#165,#75,.T.);
#204=EDGE_CURVE('',#167,#168,#76,.T.);
#205=EDGE_CURVE('',#166,#168,#77,.T.);
#206=EDGE_CURVE('',#169,#170,#78,.T.);
#207=EDGE_CURVE('',#171,#169,#79,.T.);
#208=EDGE_CURVE('',#171,#172,#80,.T.);
#209=EDGE_CURVE('',#170,#172,#81,.T.);
#210=EDGE_CURVE('',#168,#171,#82,.T.);
#211=EDGE_CURVE('',#172,#167,#83,.T.);
#212=EDGE_CURVE('',#173,#174,#84,.T.);
#213=EDGE_CURVE('',#175,#173,#85,.T.);
#214=EDGE_CURVE('',#175,#176,#86,.T.);
#215=EDGE_CURVE('',#174,#176,#87,.T.);
#216=EDGE_CURVE('',#177,#175,#88,.T.);
#217=EDGE_CURVE('',#178,#177,#89,.T.);
#218=EDGE_CURVE('',#176,#178,#90,.T.);
#219=EDGE_CURVE('',#163,#179,#91,.T.);
#220=EDGE_CURVE('',#180,#179,#92,.T.);
#221=EDGE_CURVE('',#177,#180,#93,.T.);
#222=EDGE_CURVE('',#166,#173,#94,.T.);
#223=EDGE_CURVE('',#160,#169,#95,.T.);
#224=EDGE_CURVE('',#165,#174,#96,.T.);
#225=EDGE_CURVE('',#159,#170,#97,.T.);
#226=EDGE_CURVE('',#181,#180,#98,.T.);
#227=EDGE_CURVE('',#178,#181,#99,.T.);
#228=EDGE_CURVE('',#182,#181,#100,.T.);
#229=EDGE_CURVE('',#164,#182,#101,.T.);
#230=EDGE_CURVE('',#179,#182,#102,.T.);
#231=ORIENTED_EDGE('',*,*,#183,.F.);
#232=ORIENTED_EDGE('',*,*,#184,.T.);
#233=ORIENTED_EDGE('',*,*,#185,.F.);
#234=ORIENTED_EDGE('',*,*,#186,.F.);
#235=ORIENTED_EDGE('',*,*,#187,.F.);
#236=ORIENTED_EDGE('',*,*,#188,.T.);
#237=ORIENTED_EDGE('',*,*,#189,.F.);
#238=ORIENTED_EDGE('',*,*,#184,.F.);
#239=ORIENTED_EDGE('',*,*,#190,.F.);
#240=ORIENTED_EDGE('',*,*,#191,.T.);
#241=ORIENTED_EDGE('',*,*,#192,.F.);
#242=ORIENTED_EDGE('',*,*,#188,.F.);
#243=ORIENTED_EDGE('',*,*,#193,.F.);
#244=ORIENTED_EDGE('',*,*,#186,.T.);
#245=ORIENTED_EDGE('',*,*,#194,.F.);
#246=ORIENTED_EDGE('',*,*,#191,.F.);
#247=ORIENTED_EDGE('',*,*,#195,.F.);
#248=ORIENTED_EDGE('',*,*,#196,.F.);
#249=ORIENTED_EDGE('',*,*,#197,.T.);
#250=ORIENTED_EDGE('',*,*,#198,.F.);
#251=ORIENTED_EDGE('',*,*,#199,.F.);
#252=ORIENTED_EDGE('',*,*,#197,.F.);
#253=ORIENTED_EDGE('',*,*,#200,.F.);
#254=ORIENTED_EDGE('',*,*,#201,.F.);
#255=ORIENTED_EDGE('',*,*,#202,.F.);
#256=ORIENTED_EDGE('',*,*,#203,.F.);
#257=ORIENTED_EDGE('',*,*,#204,.T.);
#258=ORIENTED_EDGE('',*,*,#205,.F.);
#259=ORIENTED_EDGE('',*,*,#206,.F.);
#260=ORIENTED_EDGE('',*,*,#207,.F.);
#261=ORIENTED_EDGE('',*,*,#208,.T.);
#262=ORIENTED_EDGE('',*,*,#209,.F.);
#263=ORIENTED_EDGE('',*,*,#208,.F.);
#264=ORIENTED_EDGE('',*,*,#210,.F.);
#265=ORIENTED_EDGE('',*,*,#204,.F.);
#266=ORIENTED_EDGE('',*,*,#211,.F.);
#267=ORIENTED_EDGE('',*,*,#212,.F.);
#268=ORIENTED_EDGE('',*,*,#213,.F.);
#269=ORIENTED_EDGE('',*,*,#214,.T.);
#270=ORIENTED_EDGE('',*,*,#215,.F.);
#271=ORIENTED_EDGE('',*,*,#214,.F.);
#272=ORIENTED_EDGE('',*,*,#216,.F.);
#273=ORIENTED_EDGE('',*,*,#217,.F.);
#274=ORIENTED_EDGE('',*,*,#218,.F.);
#275=ORIENTED_EDGE('',*,*,#198,.T.);
#276=ORIENTED_EDGE('',*,*,#199,.T.);
#277=ORIENTED_EDGE('',*,*,#219,.T.);
#278=ORIENTED_EDGE('',*,*,#220,.F.);
#279=ORIENTED_EDGE('',*,*,#221,.F.);
#280=ORIENTED_EDGE('',*,*,#216,.T.);
#281=ORIENTED_EDGE('',*,*,#213,.T.);
#282=ORIENTED_EDGE('',*,*,#222,.F.);
#283=ORIENTED_EDGE('',*,*,#205,.T.);
#284=ORIENTED_EDGE('',*,*,#210,.T.);
#285=ORIENTED_EDGE('',*,*,#207,.T.);
#286=ORIENTED_EDGE('',*,*,#223,.F.);
#287=ORIENTED_EDGE('',*,*,#202,.T.);
#288=ORIENTED_EDGE('',*,*,#222,.T.);
#289=ORIENTED_EDGE('',*,*,#212,.T.);
#290=ORIENTED_EDGE('',*,*,#224,.F.);
#291=ORIENTED_EDGE('',*,*,#195,.T.);
#292=ORIENTED_EDGE('',*,*,#223,.T.);
#293=ORIENTED_EDGE('',*,*,#206,.T.);
#294=ORIENTED_EDGE('',*,*,#225,.F.);
#295=ORIENTED_EDGE('',*,*,#185,.T.);
#296=ORIENTED_EDGE('',*,*,#189,.T.);
#297=ORIENTED_EDGE('',*,*,#192,.T.);
#298=ORIENTED_EDGE('',*,*,#194,.T.);
#299=ORIENTED_EDGE('',*,*,#217,.T.);
#300=ORIENTED_EDGE('',*,*,#221,.T.);
#301=ORIENTED_EDGE('',*,*,#226,.F.);
#302=ORIENTED_EDGE('',*,*,#227,.F.);
#303=ORIENTED_EDGE('',*,*,#196,.T.);
#304=ORIENTED_EDGE('',*,*,#225,.T.);
#305=ORIENTED_EDGE('',*,*,#209,.T.);
#306=ORIENTED_EDGE('',*,*,#211,.T.);
#307=ORIENTED_EDGE('',*,*,#203,.T.);
#308=ORIENTED_EDGE('',*,*,#224,.T.);
#309=ORIENTED_EDGE('',*,*,#215,.T.);
#310=ORIENTED_EDGE('',*,*,#218,.T.);
#311=ORIENTED_EDGE('',*,*,#227,.T.);
#312=ORIENTED_EDGE('',*,*,#228,.F.);
#313=ORIENTED_EDGE('',*,*,#229,.F.);
#314=ORIENTED_EDGE('',*,*,#200,.T.);
#315=ORIENTED_EDGE('',*,*,#201,.T.);
#316=ORIENTED_EDGE('',*,*,#229,.T.);
#317=ORIENTED_EDGE('',*,*,#230,.F.);
#318=ORIENTED_EDGE('',*,*,#219,.F.);
#319=ORIENTED_EDGE('',*,*,#220,.T.);
#320=ORIENTED_EDGE('',*,*,#230,.T.);
#321=ORIENTED_EDGE('',*,*,#228,.T.);
#322=ORIENTED_EDGE('',*,*,#226,.T.);
#323=ORIENTED_EDGE('',*,*,#183,.T.);
#324=ORIENTED_EDGE('',*,*,#193,.T.);
#325=ORIENTED_EDGE('',*,*,#190,.T.);
#326=ORIENTED_EDGE('',*,*,#187,.T.);
#327=PLANE('',#377);
#328=PLANE('',#378);
#329=PLANE('',#379);
#330=PLANE('',#380);
#331=PLANE('',#381);
#332=PLANE('',#382);
#333=PLANE('',#383);
#334=PLANE('',#384);
#335=PLANE('',#385);
#336=PLANE('',#386);
#337=PLANE('',#387);
#338=PLANE('',#388);
#339=PLANE('',#389);
#340=PLANE('',#390);
#341=PLANE('',#391);
#342=PLANE('',#392);
#343=PLANE('',#393);
#344=PLANE('',#394);
#345=ADVANCED_FACE('',(#17),#327,.F.);
#346=ADVANCED_FACE('',(#18),#328,.F.);
#347=ADVANCED_FACE('',(#19),#329,.F.);
#348=ADVANCED_FACE('',(#20),#330,.F.);
#349=ADVANCED_FACE('',(#21),#331,.F.);
#350=ADVANCED_FACE('',(#22),#332,.F.);
#351=ADVANCED_FACE('',(#23),#333,.F.);
#352=ADVANCED_FACE('',(#24),#334,.F.);
#353=ADVANCED_FACE('',(#25),#335,.F.);
#354=ADVANCED_FACE('',(#26),#336,.F.);
#355=ADVANCED_FACE('',(#27),#337,.F.);
#356=ADVANCED_FACE('',(#28),#338,.T.);
#357=ADVANCED_FACE('',(#29),#339,.F.);
#358=ADVANCED_FACE('',(#30,#15),#340,.F.);
#359=ADVANCED_FACE('',(#31),#341,.T.);
#360=ADVANCED_FACE('',(#32),#342,.T.);
#361=ADVANCED_FACE('',(#33),#343,.T.);
#362=ADVANCED_FACE('',(#34,#16),#344,.T.);
#363=CLOSED_SHELL('',(#345,#346,#347,#348,#349,#350,#351,#352,#353,#354,
#355,#356,#357,#358,#359,#360,#361,#362));
#364=DERIVED_UNIT_ELEMENT(#366,1.);
#365=DERIVED_UNIT_ELEMENT(#585,-3.);
#366=(
MASS_UNIT()
NAMED_UNIT(*)
SI_UNIT(.KILO.,.GRAM.)
);
#367=DERIVED_UNIT((#364,#365));
#368=MEASURE_REPRESENTATION_ITEM('density measure',
POSITIVE_RATIO_MEASURE(7850.),#367);
#369=PROPERTY_DEFINITION_REPRESENTATION(#374,#371);
#370=PROPERTY_DEFINITION_REPRESENTATION(#375,#372);
#371=REPRESENTATION('material name',(#373),#582);
#372=REPRESENTATION('density',(#368),#582);
#373=DESCRIPTIVE_REPRESENTATION_ITEM('Steel','Steel');
#374=PROPERTY_DEFINITION('material property','material name',#592);
#375=PROPERTY_DEFINITION('material property','density of part',#592);
#376=AXIS2_PLACEMENT_3D('',#481,#395,#396);
#377=AXIS2_PLACEMENT_3D('',#482,#397,#398);
#378=AXIS2_PLACEMENT_3D('',#491,#403,#404);
#379=AXIS2_PLACEMENT_3D('',#497,#408,#409);
#380=AXIS2_PLACEMENT_3D('',#503,#413,#414);
#381=AXIS2_PLACEMENT_3D('',#506,#417,#418);
#382=AXIS2_PLACEMENT_3D('',#515,#423,#424);
#383=AXIS2_PLACEMENT_3D('',#521,#428,#429);
#384=AXIS2_PLACEMENT_3D('',#530,#434,#435);
#385=AXIS2_PLACEMENT_3D('',#539,#440,#441);
#386=AXIS2_PLACEMENT_3D('',#542,#444,#445);
#387=AXIS2_PLACEMENT_3D('',#551,#450,#451);
#388=AXIS2_PLACEMENT_3D('',#557,#455,#456);
#389=AXIS2_PLACEMENT_3D('',#565,#462,#463);
#390=AXIS2_PLACEMENT_3D('',#567,#465,#466);
#391=AXIS2_PLACEMENT_3D('',#569,#468,#469);
#392=AXIS2_PLACEMENT_3D('',#573,#472,#473);
#393=AXIS2_PLACEMENT_3D('',#577,#476,#477);
#394=AXIS2_PLACEMENT_3D('',#579,#479,#480);
#395=DIRECTION('axis',(0.,0.,1.));
#396=DIRECTION('refdir',(1.,0.,0.));
#397=DIRECTION('center_axis',(1.,0.,0.));
#398=DIRECTION('ref_axis',(0.,-1.,0.));
#399=DIRECTION('',(0.,-1.,0.));
#400=DIRECTION('',(0.,0.,-1.));
#401=DIRECTION('',(0.,1.,0.));
#402=DIRECTION('',(0.,0.,-1.));
#403=DIRECTION('center_axis',(0.,1.,0.));
#404=DIRECTION('ref_axis',(1.,0.,0.));
#405=DIRECTION('',(1.,0.,0.));
#406=DIRECTION('',(0.,0.,-1.));
#407=DIRECTION('',(-1.,0.,0.));
#408=DIRECTION('center_axis',(-1.,0.,0.));
#409=DIRECTION('ref_axis',(0.,1.,0.));
#410=DIRECTION('',(0.,1.,0.));
#411=DIRECTION('',(0.,0.,-1.));
#412=DIRECTION('',(0.,-1.,0.));
#413=DIRECTION('center_axis',(3.76346788008528E-17,-1.,0.));
#414=DIRECTION('ref_axis',(-1.,-3.76346788008528E-17,0.));
#415=DIRECTION('',(-1.,-3.76346788008528E-17,0.));
#416=DIRECTION('',(1.,3.76346788008528E-17,0.));
#417=DIRECTION('center_axis',(0.,1.,0.));
#418=DIRECTION('ref_axis',(-1.,0.,0.));
#419=DIRECTION('',(-1.,0.,0.));
#420=DIRECTION('',(0.,0.,-1.));
#421=DIRECTION('',(-1.,0.,0.));
#422=DIRECTION('',(0.,0.,1.));
#423=DIRECTION('center_axis',(0.,0.,1.));
#424=DIRECTION('ref_axis',(1.,0.,0.));
#425=DIRECTION('',(3.89945935910153E-17,-1.,0.));
#426=DIRECTION('',(0.,1.,0.));
#427=DIRECTION('',(1.,0.,0.));
#428=DIRECTION('center_axis',(0.,1.,0.));
#429=DIRECTION('ref_axis',(-1.,0.,0.));
#430=DIRECTION('',(-1.,0.,0.));
#431=DIRECTION('',(0.,0.,-1.));
#432=DIRECTION('',(-1.,0.,0.));
#433=DIRECTION('',(0.,0.,1.));
#434=DIRECTION('center_axis',(0.,-1.,0.));
#435=DIRECTION('ref_axis',(1.,0.,0.));
#436=DIRECTION('',(1.,0.,0.));
#437=DIRECTION('',(0.,0.,-1.));
#438=DIRECTION('',(1.,0.,0.));
#439=DIRECTION('',(0.,0.,1.));
#440=DIRECTION('center_axis',(0.,0.,1.));
#441=DIRECTION('ref_axis',(1.,0.,0.));
#442=DIRECTION('',(3.89945935910153E-17,-1.,0.));
#443=DIRECTION('',(0.,1.,0.));
#444=DIRECTION('center_axis',(0.,-1.,0.));
#445=DIRECTION('ref_axis',(1.,0.,0.));
#446=DIRECTION('',(1.,0.,0.));
#447=DIRECTION('',(0.,0.,-1.));
#448=DIRECTION('',(1.,0.,0.));
#449=DIRECTION('',(0.,0.,1.));
#450=DIRECTION('center_axis',(0.,0.,1.));
#451=DIRECTION('ref_axis',(1.,0.,0.));
#452=DIRECTION('',(3.89945935910153E-17,-1.,0.));
#453=DIRECTION('',(-1.,0.,0.));
#454=DIRECTION('',(0.,1.,0.));
#455=DIRECTION('center_axis',(-1.,-3.89945935910153E-17,0.));
#456=DIRECTION('ref_axis',(3.89945935910153E-17,-1.,0.));
#457=DIRECTION('',(0.,0.,1.));
#458=DIRECTION('',(3.89945935910153E-17,-1.,0.));
#459=DIRECTION('',(0.,0.,1.));
#460=DIRECTION('',(-3.89945935910153E-17,1.,0.));
#461=DIRECTION('',(-3.89945935910153E-17,1.,0.));
#462=DIRECTION('center_axis',(0.,0.,1.));
#463=DIRECTION('ref_axis',(1.,0.,0.));
#464=DIRECTION('',(0.,1.,0.));
#465=DIRECTION('center_axis',(0.,0.,1.));
#466=DIRECTION('ref_axis',(1.,0.,0.));
#467=DIRECTION('',(0.,1.,0.));
#468=DIRECTION('center_axis',(0.,1.,0.));
#469=DIRECTION('ref_axis',(-1.,0.,0.));
#470=DIRECTION('',(-1.,0.,0.));
#471=DIRECTION('',(0.,0.,1.));
#472=DIRECTION('center_axis',(1.,0.,0.));
#473=DIRECTION('ref_axis',(0.,1.,0.));
#474=DIRECTION('',(0.,1.,0.));
#475=DIRECTION('',(0.,0.,1.));
#476=DIRECTION('center_axis',(0.,-1.,0.));
#477=DIRECTION('ref_axis',(1.,0.,0.));
#478=DIRECTION('',(1.,0.,0.));
#479=DIRECTION('center_axis',(0.,0.,1.));
#480=DIRECTION('ref_axis',(1.,0.,0.));
#481=CARTESIAN_POINT('',(0.,0.,0.));
#482=CARTESIAN_POINT('Origin',(62.,29.0000004768372,5.));
#483=CARTESIAN_POINT('',(62.,29.0000004768372,5.));
#484=CARTESIAN_POINT('',(62.,8.,5.));
#485=CARTESIAN_POINT('',(62.,28.0000002384186,5.));
#486=CARTESIAN_POINT('',(62.,29.0000004768372,0.));
#487=CARTESIAN_POINT('',(62.,29.0000004768372,5.));
#488=CARTESIAN_POINT('',(62.,8.,0.));
#489=CARTESIAN_POINT('',(62.,28.0000002384186,0.));
#490=CARTESIAN_POINT('',(62.,8.,5.));
#491=CARTESIAN_POINT('Origin',(3.,29.0000004768372,5.));
#492=CARTESIAN_POINT('',(3.,29.0000004768372,5.));
#493=CARTESIAN_POINT('',(17.75,29.0000004768372,5.));
#494=CARTESIAN_POINT('',(3.,29.0000004768372,0.));
#495=CARTESIAN_POINT('',(3.,29.0000004768372,5.));
#496=CARTESIAN_POINT('',(17.75,29.0000004768372,0.));
#497=CARTESIAN_POINT('Origin',(3.,8.,5.));
#498=CARTESIAN_POINT('',(3.,8.,5.));
#499=CARTESIAN_POINT('',(3.,17.5,5.));
#500=CARTESIAN_POINT('',(3.,8.,0.));
#501=CARTESIAN_POINT('',(3.,8.,5.));
#502=CARTESIAN_POINT('',(3.,17.5,0.));
#503=CARTESIAN_POINT('Origin',(62.,8.,5.));
#504=CARTESIAN_POINT('',(47.25,8.,5.));
#505=CARTESIAN_POINT('',(47.25,8.,0.));
#506=CARTESIAN_POINT('Origin',(65.,5.25,0.));
#507=CARTESIAN_POINT('',(65.,5.25,0.));
#508=CARTESIAN_POINT('',(1.34815096107107E-32,5.25,0.));
#509=CARTESIAN_POINT('',(48.75,5.25,0.));
#510=CARTESIAN_POINT('',(65.,5.25,2.5));
#511=CARTESIAN_POINT('',(65.,5.25,0.));
#512=CARTESIAN_POINT('',(1.34815096107107E-32,5.25,2.5));
#513=CARTESIAN_POINT('',(65.,5.25,2.5));
#514=CARTESIAN_POINT('',(0.,5.25,0.));
#515=CARTESIAN_POINT('Origin',(32.5,2.625,2.5));
#516=CARTESIAN_POINT('',(0.,0.,2.5));
#517=CARTESIAN_POINT('',(0.,28.3125,2.5));
#518=CARTESIAN_POINT('',(65.,0.,2.5));
#519=CARTESIAN_POINT('',(65.,1.3125,2.5));
#520=CARTESIAN_POINT('',(16.25,0.,2.5));
#521=CARTESIAN_POINT('Origin',(65.,40.25,0.));
#522=CARTESIAN_POINT('',(65.,40.25,0.));
#523=CARTESIAN_POINT('',(-3.96021870279671E-15,40.25,0.));
#524=CARTESIAN_POINT('',(48.75,40.25,0.));
#525=CARTESIAN_POINT('',(65.,40.25,2.5));
#526=CARTESIAN_POINT('',(65.,40.25,0.));
#527=CARTESIAN_POINT('',(0.,40.25,2.5));
#528=CARTESIAN_POINT('',(-3.96021870279671E-15,40.25,2.5));
#529=CARTESIAN_POINT('',(0.,40.25,0.));
#530=CARTESIAN_POINT('Origin',(0.,34.75,0.));
#531=CARTESIAN_POINT('',(-3.67004569992365E-15,34.75,0.));
#532=CARTESIAN_POINT('',(65.,34.75,0.));
#533=CARTESIAN_POINT('',(16.25,34.75,0.));
#534=CARTESIAN_POINT('',(0.,34.75,2.5));
#535=CARTESIAN_POINT('',(5.4230198907998E-16,34.75,0.));
#536=CARTESIAN_POINT('',(65.,34.75,2.5));
#537=CARTESIAN_POINT('',(65.,34.75,2.5));
#538=CARTESIAN_POINT('',(65.,34.75,0.));
#539=CARTESIAN_POINT('Origin',(32.5,37.5,2.5));
#540=CARTESIAN_POINT('',(0.,45.75,2.5));
#541=CARTESIAN_POINT('',(65.,18.75,2.5));
#542=CARTESIAN_POINT('Origin',(0.,48.75,0.));
#543=CARTESIAN_POINT('',(-3.62232119423387E-18,48.75,0.));
#544=CARTESIAN_POINT('',(65.,48.75,0.));
#545=CARTESIAN_POINT('',(16.25,48.75,0.));
#546=CARTESIAN_POINT('',(0.,48.75,2.5));
#547=CARTESIAN_POINT('',(-3.62232119423387E-18,48.75,0.));
#548=CARTESIAN_POINT('',(65.,48.75,2.5));
#549=CARTESIAN_POINT('',(65.,48.75,2.5));
#550=CARTESIAN_POINT('',(65.,48.75,0.));
#551=CARTESIAN_POINT('Origin',(32.5,51.375,2.5));
#552=CARTESIAN_POINT('',(0.,54.,2.5));
#553=CARTESIAN_POINT('',(0.,52.6875,2.5));
#554=CARTESIAN_POINT('',(65.,54.,2.5));
#555=CARTESIAN_POINT('',(48.75,54.,2.5));
#556=CARTESIAN_POINT('',(65.,25.6875,2.5));
#557=CARTESIAN_POINT('Origin',(-2.08343937547064E-16,54.,0.));
#558=CARTESIAN_POINT('',(0.,0.,5.));
#559=CARTESIAN_POINT('',(0.,0.,0.));
#560=CARTESIAN_POINT('',(-2.08343937547064E-16,54.,5.));
#561=CARTESIAN_POINT('',(-3.62232119423387E-18,48.75,5.));
#562=CARTESIAN_POINT('',(-2.08343937547064E-16,54.,0.));
#563=CARTESIAN_POINT('',(-3.62232119423387E-18,48.75,0.));
#564=CARTESIAN_POINT('',(-3.62232119423387E-18,48.75,0.));
#565=CARTESIAN_POINT('Origin',(32.5,27.,0.));
#566=CARTESIAN_POINT('',(65.,0.,0.));
#567=CARTESIAN_POINT('Origin',(32.5,27.,0.));
#568=CARTESIAN_POINT('',(65.,0.,0.));
#569=CARTESIAN_POINT('Origin',(65.,54.,0.));
#570=CARTESIAN_POINT('',(65.,54.,5.));
#571=CARTESIAN_POINT('',(-2.08343937547064E-16,54.,5.));
#572=CARTESIAN_POINT('',(65.,54.,0.));
#573=CARTESIAN_POINT('Origin',(65.,0.,0.));
#574=CARTESIAN_POINT('',(65.,0.,5.));
#575=CARTESIAN_POINT('',(65.,0.,5.));
#576=CARTESIAN_POINT('',(65.,0.,0.));
#577=CARTESIAN_POINT('Origin',(0.,0.,0.));
#578=CARTESIAN_POINT('',(0.,0.,5.));
#579=CARTESIAN_POINT('Origin',(32.5,27.,5.));
#580=UNCERTAINTY_MEASURE_WITH_UNIT(LENGTH_MEASURE(0.01),#584,
'DISTANCE_ACCURACY_VALUE',
'Maximum model space distance between geometric entities at asserted c
onnectivities');
#581=UNCERTAINTY_MEASURE_WITH_UNIT(LENGTH_MEASURE(0.01),#584,
'DISTANCE_ACCURACY_VALUE',
'Maximum model space distance between geometric entities at asserted c
onnectivities');
#582=(
GEOMETRIC_REPRESENTATION_CONTEXT(3)
GLOBAL_UNCERTAINTY_ASSIGNED_CONTEXT((#580))
GLOBAL_UNIT_ASSIGNED_CONTEXT((#584,#586,#587))
REPRESENTATION_CONTEXT('','3D')
);
#583=(
GEOMETRIC_REPRESENTATION_CONTEXT(3)
GLOBAL_UNCERTAINTY_ASSIGNED_CONTEXT((#581))
GLOBAL_UNIT_ASSIGNED_CONTEXT((#584,#586,#587))
REPRESENTATION_CONTEXT('','3D')
);
#584=(
LENGTH_UNIT()
NAMED_UNIT(*)
SI_UNIT(.MILLI.,.METRE.)
);
#585=(
LENGTH_UNIT()
NAMED_UNIT(*)
SI_UNIT($,.METRE.)
);
#586=(
NAMED_UNIT(*)
PLANE_ANGLE_UNIT()
SI_UNIT($,.RADIAN.)
);
#587=(
NAMED_UNIT(*)
SI_UNIT($,.STERADIAN.)
SOLID_ANGLE_UNIT()
);
#588=SHAPE_DEFINITION_REPRESENTATION(#589,#590);
#589=PRODUCT_DEFINITION_SHAPE('',$,#592);
#590=SHAPE_REPRESENTATION('',(#376),#582);
#591=PRODUCT_DEFINITION_CONTEXT('part definition',#596,'design');
#592=PRODUCT_DEFINITION('gearbox top','gearbox top v8',#593,#591);
#593=PRODUCT_DEFINITION_FORMATION('',$,#598);
#594=PRODUCT_RELATED_PRODUCT_CATEGORY('gearbox top v8','gearbox top v8',
(#598));
#595=APPLICATION_PROTOCOL_DEFINITION('international standard',
'automotive_design',2009,#596);
#596=APPLICATION_CONTEXT(
'Core Data for Automotive Mechanical Design Process');
#597=PRODUCT_CONTEXT('part definition',#596,'mechanical');
#598=PRODUCT('gearbox top','gearbox top v8',$,(#597));
#599=PRESENTATION_STYLE_ASSIGNMENT((#600));
#600=SURFACE_STYLE_USAGE(.BOTH.,#601);
#601=SURFACE_SIDE_STYLE('',(#602));
#602=SURFACE_STYLE_FILL_AREA(#603);
#603=FILL_AREA_STYLE('Steel - Satin',(#604));
#604=FILL_AREA_STYLE_COLOUR('Steel - Satin',#605);
#605=COLOUR_RGB('Steel - Satin',0.627450980392157,0.627450980392157,0.627450980392157);
ENDSEC;
END-ISO-10303-21;
