ISO-10303-21;
HEADER;
/* Generated by software containing ST-Developer
 * from STEP Tools, Inc. (www.steptools.com) 
 */

FILE_DESCRIPTION(
/* description */ (''),
/* implementation_level */ '2;1');

FILE_NAME(
/* name */ 'steering servo mount v4.step',
/* time_stamp */ '2025-06-01T15:44:09-07:00',
/* author */ (''),
/* organization */ (''),
/* preprocessor_version */ 'ST-DEVELOPER v20.1',
/* originating_system */ 'Autodesk Translation Framework v14.10.0.0',
/* authorisation */ '');

FILE_SCHEMA (('AUTOMOTIVE_DESIGN { 1 0 10303 214 3 1 1 }'));
ENDSEC;

DATA;
#10=MECHANICAL_DESIGN_GEOMETRIC_PRESENTATION_REPRESENTATION('',(#33,#34),
#1336);
#11=SHAPE_REPRESENTATION_RELATIONSHIP('SRR','None',#1342,#12);
#12=ADVANCED_BREP_SHAPE_REPRESENTATION('',(#35,#36),#1335);
#13=CYLINDRICAL_SURFACE('',#874,2.20000000000001);
#14=CYLINDRICAL_SURFACE('',#876,2.2);
#15=CYLINDRICAL_SURFACE('',#878,2.20000000000001);
#16=CYLINDRICAL_SURFACE('',#880,2.2);
#17=FACE_BOUND('',#99,.T.);
#18=FACE_BOUND('',#100,.T.);
#19=FACE_BOUND('',#108,.T.);
#20=FACE_BOUND('',#109,.T.);
#21=FACE_BOUND('',#119,.T.);
#22=FACE_BOUND('',#120,.T.);
#23=FACE_BOUND('',#125,.T.);
#24=FACE_BOUND('',#126,.T.);
#25=CIRCLE('',#862,2.20000000000001);
#26=CIRCLE('',#863,2.20000000000001);
#27=CIRCLE('',#871,2.2);
#28=CIRCLE('',#872,2.2);
#29=CIRCLE('',#875,2.20000000000001);
#30=CIRCLE('',#877,2.2);
#31=CIRCLE('',#879,2.20000000000001);
#32=CIRCLE('',#881,2.2);
#33=STYLED_ITEM('',(#1351),#35);
#34=STYLED_ITEM('',(#1351),#36);
#35=MANIFOLD_SOLID_BREP('Body1',#839);
#36=MANIFOLD_SOLID_BREP('Body2',#840);
#37=FACE_OUTER_BOUND('',#79,.T.);
#38=FACE_OUTER_BOUND('',#80,.T.);
#39=FACE_OUTER_BOUND('',#81,.T.);
#40=FACE_OUTER_BOUND('',#82,.T.);
#41=FACE_OUTER_BOUND('',#83,.T.);
#42=FACE_OUTER_BOUND('',#84,.T.);
#43=FACE_OUTER_BOUND('',#85,.T.);
#44=FACE_OUTER_BOUND('',#86,.T.);
#45=FACE_OUTER_BOUND('',#87,.T.);
#46=FACE_OUTER_BOUND('',#88,.T.);
#47=FACE_OUTER_BOUND('',#89,.T.);
#48=FACE_OUTER_BOUND('',#90,.T.);
#49=FACE_OUTER_BOUND('',#91,.T.);
#50=FACE_OUTER_BOUND('',#92,.T.);
#51=FACE_OUTER_BOUND('',#93,.T.);
#52=FACE_OUTER_BOUND('',#94,.T.);
#53=FACE_OUTER_BOUND('',#95,.T.);
#54=FACE_OUTER_BOUND('',#96,.T.);
#55=FACE_OUTER_BOUND('',#97,.T.);
#56=FACE_OUTER_BOUND('',#98,.T.);
#57=FACE_OUTER_BOUND('',#101,.T.);
#58=FACE_OUTER_BOUND('',#102,.T.);
#59=FACE_OUTER_BOUND('',#103,.T.);
#60=FACE_OUTER_BOUND('',#104,.T.);
#61=FACE_OUTER_BOUND('',#105,.T.);
#62=FACE_OUTER_BOUND('',#106,.T.);
#63=FACE_OUTER_BOUND('',#107,.T.);
#64=FACE_OUTER_BOUND('',#110,.T.);
#65=FACE_OUTER_BOUND('',#111,.T.);
#66=FACE_OUTER_BOUND('',#112,.T.);
#67=FACE_OUTER_BOUND('',#113,.T.);
#68=FACE_OUTER_BOUND('',#114,.T.);
#69=FACE_OUTER_BOUND('',#115,.T.);
#70=FACE_OUTER_BOUND('',#116,.T.);
#71=FACE_OUTER_BOUND('',#117,.T.);
#72=FACE_OUTER_BOUND('',#118,.T.);
#73=FACE_OUTER_BOUND('',#121,.T.);
#74=FACE_OUTER_BOUND('',#122,.T.);
#75=FACE_OUTER_BOUND('',#123,.T.);
#76=FACE_OUTER_BOUND('',#124,.T.);
#77=FACE_OUTER_BOUND('',#127,.T.);
#78=FACE_OUTER_BOUND('',#128,.T.);
#79=EDGE_LOOP('',(#531,#532,#533,#534));
#80=EDGE_LOOP('',(#535,#536,#537,#538));
#81=EDGE_LOOP('',(#539,#540,#541,#542,#543,#544,#545,#546,#547,#548,#549,
#550));
#82=EDGE_LOOP('',(#551,#552,#553,#554));
#83=EDGE_LOOP('',(#555,#556,#557,#558,#559,#560,#561,#562,#563,#564,#565,
#566));
#84=EDGE_LOOP('',(#567,#568,#569,#570));
#85=EDGE_LOOP('',(#571,#572,#573,#574));
#86=EDGE_LOOP('',(#575,#576,#577,#578));
#87=EDGE_LOOP('',(#579,#580,#581,#582));
#88=EDGE_LOOP('',(#583,#584,#585,#586));
#89=EDGE_LOOP('',(#587,#588,#589,#590));
#90=EDGE_LOOP('',(#591,#592,#593,#594));
#91=EDGE_LOOP('',(#595,#596,#597,#598));
#92=EDGE_LOOP('',(#599,#600,#601,#602));
#93=EDGE_LOOP('',(#603,#604,#605,#606,#607,#608,#609,#610));
#94=EDGE_LOOP('',(#611,#612,#613,#614,#615,#616,#617,#618));
#95=EDGE_LOOP('',(#619,#620,#621,#622));
#96=EDGE_LOOP('',(#623,#624,#625,#626,#627,#628));
#97=EDGE_LOOP('',(#629,#630,#631,#632));
#98=EDGE_LOOP('',(#633,#634,#635,#636));
#99=EDGE_LOOP('',(#637));
#100=EDGE_LOOP('',(#638));
#101=EDGE_LOOP('',(#639,#640,#641,#642));
#102=EDGE_LOOP('',(#643,#644,#645,#646,#647,#648,#649,#650,#651,#652,#653,
#654));
#103=EDGE_LOOP('',(#655,#656,#657,#658));
#104=EDGE_LOOP('',(#659,#660,#661,#662));
#105=EDGE_LOOP('',(#663,#664,#665,#666));
#106=EDGE_LOOP('',(#667,#668,#669,#670));
#107=EDGE_LOOP('',(#671,#672,#673,#674));
#108=EDGE_LOOP('',(#675));
#109=EDGE_LOOP('',(#676));
#110=EDGE_LOOP('',(#677,#678,#679,#680));
#111=EDGE_LOOP('',(#681,#682,#683,#684));
#112=EDGE_LOOP('',(#685,#686,#687,#688));
#113=EDGE_LOOP('',(#689,#690,#691,#692));
#114=EDGE_LOOP('',(#693,#694,#695,#696));
#115=EDGE_LOOP('',(#697,#698,#699,#700,#701,#702,#703,#704));
#116=EDGE_LOOP('',(#705,#706,#707,#708,#709,#710));
#117=EDGE_LOOP('',(#711,#712,#713,#714));
#118=EDGE_LOOP('',(#715,#716,#717,#718));
#119=EDGE_LOOP('',(#719));
#120=EDGE_LOOP('',(#720));
#121=EDGE_LOOP('',(#721,#722,#723,#724));
#122=EDGE_LOOP('',(#725,#726,#727,#728));
#123=EDGE_LOOP('',(#729,#730,#731,#732));
#124=EDGE_LOOP('',(#733,#734,#735,#736));
#125=EDGE_LOOP('',(#737));
#126=EDGE_LOOP('',(#738));
#127=EDGE_LOOP('',(#739,#740,#741,#742));
#128=EDGE_LOOP('',(#743,#744,#745,#746,#747,#748,#749,#750,#751,#752,#753,
#754,#755,#756,#757,#758));
#129=LINE('',#1104,#235);
#130=LINE('',#1106,#236);
#131=LINE('',#1108,#237);
#132=LINE('',#1109,#238);
#133=LINE('',#1112,#239);
#134=LINE('',#1114,#240);
#135=LINE('',#1115,#241);
#136=LINE('',#1118,#242);
#137=LINE('',#1120,#243);
#138=LINE('',#1122,#244);
#139=LINE('',#1124,#245);
#140=LINE('',#1126,#246);
#141=LINE('',#1128,#247);
#142=LINE('',#1130,#248);
#143=LINE('',#1132,#249);
#144=LINE('',#1134,#250);
#145=LINE('',#1135,#251);
#146=LINE('',#1138,#252);
#147=LINE('',#1139,#253);
#148=LINE('',#1142,#254);
#149=LINE('',#1144,#255);
#150=LINE('',#1146,#256);
#151=LINE('',#1148,#257);
#152=LINE('',#1150,#258);
#153=LINE('',#1152,#259);
#154=LINE('',#1154,#260);
#155=LINE('',#1156,#261);
#156=LINE('',#1157,#262);
#157=LINE('',#1159,#263);
#158=LINE('',#1160,#264);
#159=LINE('',#1163,#265);
#160=LINE('',#1165,#266);
#161=LINE('',#1167,#267);
#162=LINE('',#1169,#268);
#163=LINE('',#1171,#269);
#164=LINE('',#1173,#270);
#165=LINE('',#1178,#271);
#166=LINE('',#1180,#272);
#167=LINE('',#1182,#273);
#168=LINE('',#1184,#274);
#169=LINE('',#1186,#275);
#170=LINE('',#1188,#276);
#171=LINE('',#1190,#277);
#172=LINE('',#1191,#278);
#173=LINE('',#1195,#279);
#174=LINE('',#1197,#280);
#175=LINE('',#1199,#281);
#176=LINE('',#1201,#282);
#177=LINE('',#1203,#283);
#178=LINE('',#1205,#284);
#179=LINE('',#1207,#285);
#180=LINE('',#1208,#286);
#181=LINE('',#1211,#287);
#182=LINE('',#1213,#288);
#183=LINE('',#1214,#289);
#184=LINE('',#1217,#290);
#185=LINE('',#1219,#291);
#186=LINE('',#1221,#292);
#187=LINE('',#1222,#293);
#188=LINE('',#1225,#294);
#189=LINE('',#1227,#295);
#190=LINE('',#1228,#296);
#191=LINE('',#1231,#297);
#192=LINE('',#1233,#298);
#193=LINE('',#1234,#299);
#194=LINE('',#1241,#300);
#195=LINE('',#1242,#301);
#196=LINE('',#1246,#302);
#197=LINE('',#1248,#303);
#198=LINE('',#1249,#304);
#199=LINE('',#1251,#305);
#200=LINE('',#1253,#306);
#201=LINE('',#1254,#307);
#202=LINE('',#1256,#308);
#203=LINE('',#1257,#309);
#204=LINE('',#1259,#310);
#205=LINE('',#1262,#311);
#206=LINE('',#1264,#312);
#207=LINE('',#1265,#313);
#208=LINE('',#1268,#314);
#209=LINE('',#1269,#315);
#210=LINE('',#1272,#316);
#211=LINE('',#1273,#317);
#212=LINE('',#1276,#318);
#213=LINE('',#1277,#319);
#214=LINE('',#1283,#320);
#215=LINE('',#1287,#321);
#216=LINE('',#1290,#322);
#217=LINE('',#1295,#323);
#218=LINE('',#1298,#324);
#219=LINE('',#1302,#325);
#220=LINE('',#1303,#326);
#221=LINE('',#1306,#327);
#222=LINE('',#1307,#328);
#223=LINE('',#1310,#329);
#224=LINE('',#1311,#330);
#225=LINE('',#1314,#331);
#226=LINE('',#1315,#332);
#227=LINE('',#1317,#333);
#228=LINE('',#1320,#334);
#229=LINE('',#1321,#335);
#230=LINE('',#1324,#336);
#231=LINE('',#1325,#337);
#232=LINE('',#1328,#338);
#233=LINE('',#1329,#339);
#234=LINE('',#1331,#340);
#235=VECTOR('',#896,10.);
#236=VECTOR('',#897,10.);
#237=VECTOR('',#898,10.);
#238=VECTOR('',#899,10.);
#239=VECTOR('',#902,10.);
#240=VECTOR('',#903,10.);
#241=VECTOR('',#904,10.);
#242=VECTOR('',#907,10.);
#243=VECTOR('',#908,10.);
#244=VECTOR('',#909,10.);
#245=VECTOR('',#910,10.);
#246=VECTOR('',#911,10.);
#247=VECTOR('',#912,10.);
#248=VECTOR('',#913,10.);
#249=VECTOR('',#914,10.);
#250=VECTOR('',#915,10.);
#251=VECTOR('',#916,10.);
#252=VECTOR('',#919,10.);
#253=VECTOR('',#920,10.);
#254=VECTOR('',#923,10.);
#255=VECTOR('',#924,10.);
#256=VECTOR('',#925,10.);
#257=VECTOR('',#926,10.);
#258=VECTOR('',#927,10.);
#259=VECTOR('',#928,10.);
#260=VECTOR('',#929,10.);
#261=VECTOR('',#930,10.);
#262=VECTOR('',#931,10.);
#263=VECTOR('',#934,10.);
#264=VECTOR('',#935,10.);
#265=VECTOR('',#940,10.);
#266=VECTOR('',#943,10.);
#267=VECTOR('',#946,10.);
#268=VECTOR('',#949,10.);
#269=VECTOR('',#952,10.);
#270=VECTOR('',#955,10.);
#271=VECTOR('',#960,10.);
#272=VECTOR('',#961,10.);
#273=VECTOR('',#962,10.);
#274=VECTOR('',#963,10.);
#275=VECTOR('',#964,10.);
#276=VECTOR('',#965,10.);
#277=VECTOR('',#966,10.);
#278=VECTOR('',#967,10.);
#279=VECTOR('',#970,10.);
#280=VECTOR('',#971,10.);
#281=VECTOR('',#972,10.);
#282=VECTOR('',#973,10.);
#283=VECTOR('',#974,10.);
#284=VECTOR('',#975,10.);
#285=VECTOR('',#976,10.);
#286=VECTOR('',#977,10.);
#287=VECTOR('',#980,10.);
#288=VECTOR('',#981,10.);
#289=VECTOR('',#982,10.);
#290=VECTOR('',#985,10.);
#291=VECTOR('',#986,10.);
#292=VECTOR('',#987,10.);
#293=VECTOR('',#988,10.);
#294=VECTOR('',#991,10.);
#295=VECTOR('',#992,10.);
#296=VECTOR('',#993,10.);
#297=VECTOR('',#996,10.);
#298=VECTOR('',#997,10.);
#299=VECTOR('',#998,10.);
#300=VECTOR('',#1005,10.);
#301=VECTOR('',#1006,10.);
#302=VECTOR('',#1009,10.);
#303=VECTOR('',#1010,10.);
#304=VECTOR('',#1011,10.);
#305=VECTOR('',#1012,10.);
#306=VECTOR('',#1013,10.);
#307=VECTOR('',#1014,10.);
#308=VECTOR('',#1015,10.);
#309=VECTOR('',#1016,10.);
#310=VECTOR('',#1019,10.);
#311=VECTOR('',#1022,10.);
#312=VECTOR('',#1023,10.);
#313=VECTOR('',#1024,10.);
#314=VECTOR('',#1027,10.);
#315=VECTOR('',#1028,10.);
#316=VECTOR('',#1031,10.);
#317=VECTOR('',#1032,10.);
#318=VECTOR('',#1035,10.);
#319=VECTOR('',#1036,10.);
#320=VECTOR('',#1043,10.);
#321=VECTOR('',#1048,2.20000000000001);
#322=VECTOR('',#1051,2.2);
#323=VECTOR('',#1058,2.20000000000001);
#324=VECTOR('',#1061,2.2);
#325=VECTOR('',#1066,10.);
#326=VECTOR('',#1067,10.);
#327=VECTOR('',#1070,10.);
#328=VECTOR('',#1071,10.);
#329=VECTOR('',#1074,10.);
#330=VECTOR('',#1075,10.);
#331=VECTOR('',#1078,10.);
#332=VECTOR('',#1079,10.);
#333=VECTOR('',#1082,10.);
#334=VECTOR('',#1085,10.);
#335=VECTOR('',#1086,10.);
#336=VECTOR('',#1089,10.);
#337=VECTOR('',#1090,10.);
#338=VECTOR('',#1093,10.);
#339=VECTOR('',#1094,10.);
#340=VECTOR('',#1097,10.);
#341=VERTEX_POINT('',#1102);
#342=VERTEX_POINT('',#1103);
#343=VERTEX_POINT('',#1105);
#344=VERTEX_POINT('',#1107);
#345=VERTEX_POINT('',#1111);
#346=VERTEX_POINT('',#1113);
#347=VERTEX_POINT('',#1117);
#348=VERTEX_POINT('',#1119);
#349=VERTEX_POINT('',#1121);
#350=VERTEX_POINT('',#1123);
#351=VERTEX_POINT('',#1125);
#352=VERTEX_POINT('',#1127);
#353=VERTEX_POINT('',#1129);
#354=VERTEX_POINT('',#1131);
#355=VERTEX_POINT('',#1133);
#356=VERTEX_POINT('',#1137);
#357=VERTEX_POINT('',#1141);
#358=VERTEX_POINT('',#1143);
#359=VERTEX_POINT('',#1145);
#360=VERTEX_POINT('',#1147);
#361=VERTEX_POINT('',#1149);
#362=VERTEX_POINT('',#1151);
#363=VERTEX_POINT('',#1153);
#364=VERTEX_POINT('',#1155);
#365=VERTEX_POINT('',#1176);
#366=VERTEX_POINT('',#1177);
#367=VERTEX_POINT('',#1179);
#368=VERTEX_POINT('',#1181);
#369=VERTEX_POINT('',#1183);
#370=VERTEX_POINT('',#1185);
#371=VERTEX_POINT('',#1187);
#372=VERTEX_POINT('',#1189);
#373=VERTEX_POINT('',#1193);
#374=VERTEX_POINT('',#1194);
#375=VERTEX_POINT('',#1196);
#376=VERTEX_POINT('',#1198);
#377=VERTEX_POINT('',#1200);
#378=VERTEX_POINT('',#1202);
#379=VERTEX_POINT('',#1204);
#380=VERTEX_POINT('',#1206);
#381=VERTEX_POINT('',#1210);
#382=VERTEX_POINT('',#1212);
#383=VERTEX_POINT('',#1216);
#384=VERTEX_POINT('',#1218);
#385=VERTEX_POINT('',#1220);
#386=VERTEX_POINT('',#1224);
#387=VERTEX_POINT('',#1226);
#388=VERTEX_POINT('',#1230);
#389=VERTEX_POINT('',#1232);
#390=VERTEX_POINT('',#1235);
#391=VERTEX_POINT('',#1237);
#392=VERTEX_POINT('',#1240);
#393=VERTEX_POINT('',#1244);
#394=VERTEX_POINT('',#1245);
#395=VERTEX_POINT('',#1247);
#396=VERTEX_POINT('',#1250);
#397=VERTEX_POINT('',#1252);
#398=VERTEX_POINT('',#1255);
#399=VERTEX_POINT('',#1261);
#400=VERTEX_POINT('',#1263);
#401=VERTEX_POINT('',#1267);
#402=VERTEX_POINT('',#1271);
#403=VERTEX_POINT('',#1275);
#404=VERTEX_POINT('',#1278);
#405=VERTEX_POINT('',#1280);
#406=VERTEX_POINT('',#1285);
#407=VERTEX_POINT('',#1289);
#408=VERTEX_POINT('',#1293);
#409=VERTEX_POINT('',#1297);
#410=VERTEX_POINT('',#1301);
#411=VERTEX_POINT('',#1305);
#412=VERTEX_POINT('',#1309);
#413=VERTEX_POINT('',#1313);
#414=VERTEX_POINT('',#1319);
#415=VERTEX_POINT('',#1323);
#416=VERTEX_POINT('',#1327);
#417=EDGE_CURVE('',#341,#342,#129,.T.);
#418=EDGE_CURVE('',#342,#343,#130,.T.);
#419=EDGE_CURVE('',#343,#344,#131,.T.);
#420=EDGE_CURVE('',#344,#341,#132,.T.);
#421=EDGE_CURVE('',#345,#341,#133,.T.);
#422=EDGE_CURVE('',#346,#345,#134,.T.);
#423=EDGE_CURVE('',#342,#346,#135,.T.);
#424=EDGE_CURVE('',#347,#345,#136,.T.);
#425=EDGE_CURVE('',#348,#344,#137,.T.);
#426=EDGE_CURVE('',#348,#349,#138,.T.);
#427=EDGE_CURVE('',#349,#350,#139,.T.);
#428=EDGE_CURVE('',#350,#351,#140,.T.);
#429=EDGE_CURVE('',#351,#352,#141,.T.);
#430=EDGE_CURVE('',#352,#353,#142,.T.);
#431=EDGE_CURVE('',#353,#354,#143,.T.);
#432=EDGE_CURVE('',#354,#355,#144,.T.);
#433=EDGE_CURVE('',#355,#347,#145,.T.);
#434=EDGE_CURVE('',#356,#343,#146,.T.);
#435=EDGE_CURVE('',#348,#356,#147,.T.);
#436=EDGE_CURVE('',#346,#357,#148,.T.);
#437=EDGE_CURVE('',#357,#358,#149,.T.);
#438=EDGE_CURVE('',#358,#359,#150,.T.);
#439=EDGE_CURVE('',#359,#360,#151,.T.);
#440=EDGE_CURVE('',#360,#361,#152,.T.);
#441=EDGE_CURVE('',#362,#361,#153,.T.);
#442=EDGE_CURVE('',#363,#362,#154,.T.);
#443=EDGE_CURVE('',#363,#364,#155,.T.);
#444=EDGE_CURVE('',#356,#364,#156,.T.);
#445=EDGE_CURVE('',#357,#347,#157,.T.);
#446=EDGE_CURVE('',#358,#355,#158,.T.);
#447=EDGE_CURVE('',#359,#354,#159,.T.);
#448=EDGE_CURVE('',#360,#353,#160,.T.);
#449=EDGE_CURVE('',#361,#352,#161,.T.);
#450=EDGE_CURVE('',#362,#351,#162,.T.);
#451=EDGE_CURVE('',#363,#350,#163,.T.);
#452=EDGE_CURVE('',#364,#349,#164,.T.);
#453=EDGE_CURVE('',#365,#366,#165,.T.);
#454=EDGE_CURVE('',#367,#365,#166,.T.);
#455=EDGE_CURVE('',#368,#367,#167,.T.);
#456=EDGE_CURVE('',#369,#368,#168,.T.);
#457=EDGE_CURVE('',#370,#369,#169,.T.);
#458=EDGE_CURVE('',#371,#370,#170,.T.);
#459=EDGE_CURVE('',#372,#371,#171,.T.);
#460=EDGE_CURVE('',#366,#372,#172,.T.);
#461=EDGE_CURVE('',#373,#374,#173,.T.);
#462=EDGE_CURVE('',#375,#373,#174,.T.);
#463=EDGE_CURVE('',#376,#375,#175,.T.);
#464=EDGE_CURVE('',#377,#376,#176,.T.);
#465=EDGE_CURVE('',#378,#377,#177,.T.);
#466=EDGE_CURVE('',#379,#378,#178,.T.);
#467=EDGE_CURVE('',#380,#379,#179,.T.);
#468=EDGE_CURVE('',#374,#380,#180,.T.);
#469=EDGE_CURVE('',#381,#379,#181,.T.);
#470=EDGE_CURVE('',#381,#382,#182,.T.);
#471=EDGE_CURVE('',#382,#380,#183,.T.);
#472=EDGE_CURVE('',#378,#383,#184,.T.);
#473=EDGE_CURVE('',#383,#384,#185,.T.);
#474=EDGE_CURVE('',#385,#384,#186,.T.);
#475=EDGE_CURVE('',#381,#385,#187,.T.);
#476=EDGE_CURVE('',#386,#383,#188,.T.);
#477=EDGE_CURVE('',#386,#387,#189,.T.);
#478=EDGE_CURVE('',#384,#387,#190,.T.);
#479=EDGE_CURVE('',#388,#372,#191,.T.);
#480=EDGE_CURVE('',#388,#389,#192,.T.);
#481=EDGE_CURVE('',#389,#366,#193,.T.);
#482=EDGE_CURVE('',#390,#390,#25,.T.);
#483=EDGE_CURVE('',#391,#391,#26,.T.);
#484=EDGE_CURVE('',#392,#371,#194,.T.);
#485=EDGE_CURVE('',#392,#388,#195,.T.);
#486=EDGE_CURVE('',#393,#394,#196,.T.);
#487=EDGE_CURVE('',#395,#394,#197,.T.);
#488=EDGE_CURVE('',#395,#386,#198,.T.);
#489=EDGE_CURVE('',#396,#377,#199,.T.);
#490=EDGE_CURVE('',#396,#397,#200,.T.);
#491=EDGE_CURVE('',#397,#370,#201,.T.);
#492=EDGE_CURVE('',#398,#369,#202,.T.);
#493=EDGE_CURVE('',#398,#393,#203,.T.);
#494=EDGE_CURVE('',#397,#392,#204,.T.);
#495=EDGE_CURVE('',#399,#398,#205,.T.);
#496=EDGE_CURVE('',#400,#399,#206,.T.);
#497=EDGE_CURVE('',#393,#400,#207,.T.);
#498=EDGE_CURVE('',#401,#400,#208,.T.);
#499=EDGE_CURVE('',#394,#401,#209,.T.);
#500=EDGE_CURVE('',#402,#395,#210,.T.);
#501=EDGE_CURVE('',#387,#402,#211,.T.);
#502=EDGE_CURVE('',#403,#382,#212,.T.);
#503=EDGE_CURVE('',#403,#374,#213,.T.);
#504=EDGE_CURVE('',#404,#404,#27,.T.);
#505=EDGE_CURVE('',#405,#405,#28,.T.);
#506=EDGE_CURVE('',#401,#402,#214,.T.);
#507=EDGE_CURVE('',#406,#406,#29,.T.);
#508=EDGE_CURVE('',#406,#391,#215,.T.);
#509=EDGE_CURVE('',#405,#407,#216,.T.);
#510=EDGE_CURVE('',#407,#407,#30,.T.);
#511=EDGE_CURVE('',#408,#408,#31,.T.);
#512=EDGE_CURVE('',#408,#390,#217,.T.);
#513=EDGE_CURVE('',#404,#409,#218,.T.);
#514=EDGE_CURVE('',#409,#409,#32,.T.);
#515=EDGE_CURVE('',#410,#399,#219,.T.);
#516=EDGE_CURVE('',#410,#385,#220,.T.);
#517=EDGE_CURVE('',#411,#368,#221,.T.);
#518=EDGE_CURVE('',#411,#410,#222,.T.);
#519=EDGE_CURVE('',#412,#367,#223,.T.);
#520=EDGE_CURVE('',#411,#412,#224,.T.);
#521=EDGE_CURVE('',#413,#365,#225,.T.);
#522=EDGE_CURVE('',#413,#412,#226,.T.);
#523=EDGE_CURVE('',#389,#413,#227,.T.);
#524=EDGE_CURVE('',#414,#376,#228,.T.);
#525=EDGE_CURVE('',#396,#414,#229,.T.);
#526=EDGE_CURVE('',#415,#375,#230,.T.);
#527=EDGE_CURVE('',#414,#415,#231,.T.);
#528=EDGE_CURVE('',#416,#373,#232,.T.);
#529=EDGE_CURVE('',#415,#416,#233,.T.);
#530=EDGE_CURVE('',#416,#403,#234,.T.);
#531=ORIENTED_EDGE('',*,*,#417,.T.);
#532=ORIENTED_EDGE('',*,*,#418,.T.);
#533=ORIENTED_EDGE('',*,*,#419,.T.);
#534=ORIENTED_EDGE('',*,*,#420,.T.);
#535=ORIENTED_EDGE('',*,*,#421,.F.);
#536=ORIENTED_EDGE('',*,*,#422,.F.);
#537=ORIENTED_EDGE('',*,*,#423,.F.);
#538=ORIENTED_EDGE('',*,*,#417,.F.);
#539=ORIENTED_EDGE('',*,*,#424,.T.);
#540=ORIENTED_EDGE('',*,*,#421,.T.);
#541=ORIENTED_EDGE('',*,*,#420,.F.);
#542=ORIENTED_EDGE('',*,*,#425,.F.);
#543=ORIENTED_EDGE('',*,*,#426,.T.);
#544=ORIENTED_EDGE('',*,*,#427,.T.);
#545=ORIENTED_EDGE('',*,*,#428,.T.);
#546=ORIENTED_EDGE('',*,*,#429,.T.);
#547=ORIENTED_EDGE('',*,*,#430,.T.);
#548=ORIENTED_EDGE('',*,*,#431,.T.);
#549=ORIENTED_EDGE('',*,*,#432,.T.);
#550=ORIENTED_EDGE('',*,*,#433,.T.);
#551=ORIENTED_EDGE('',*,*,#434,.F.);
#552=ORIENTED_EDGE('',*,*,#435,.F.);
#553=ORIENTED_EDGE('',*,*,#425,.T.);
#554=ORIENTED_EDGE('',*,*,#419,.F.);
#555=ORIENTED_EDGE('',*,*,#436,.T.);
#556=ORIENTED_EDGE('',*,*,#437,.T.);
#557=ORIENTED_EDGE('',*,*,#438,.T.);
#558=ORIENTED_EDGE('',*,*,#439,.T.);
#559=ORIENTED_EDGE('',*,*,#440,.T.);
#560=ORIENTED_EDGE('',*,*,#441,.F.);
#561=ORIENTED_EDGE('',*,*,#442,.F.);
#562=ORIENTED_EDGE('',*,*,#443,.T.);
#563=ORIENTED_EDGE('',*,*,#444,.F.);
#564=ORIENTED_EDGE('',*,*,#434,.T.);
#565=ORIENTED_EDGE('',*,*,#418,.F.);
#566=ORIENTED_EDGE('',*,*,#423,.T.);
#567=ORIENTED_EDGE('',*,*,#437,.F.);
#568=ORIENTED_EDGE('',*,*,#445,.T.);
#569=ORIENTED_EDGE('',*,*,#433,.F.);
#570=ORIENTED_EDGE('',*,*,#446,.F.);
#571=ORIENTED_EDGE('',*,*,#436,.F.);
#572=ORIENTED_EDGE('',*,*,#422,.T.);
#573=ORIENTED_EDGE('',*,*,#424,.F.);
#574=ORIENTED_EDGE('',*,*,#445,.F.);
#575=ORIENTED_EDGE('',*,*,#438,.F.);
#576=ORIENTED_EDGE('',*,*,#446,.T.);
#577=ORIENTED_EDGE('',*,*,#432,.F.);
#578=ORIENTED_EDGE('',*,*,#447,.F.);
#579=ORIENTED_EDGE('',*,*,#439,.F.);
#580=ORIENTED_EDGE('',*,*,#447,.T.);
#581=ORIENTED_EDGE('',*,*,#431,.F.);
#582=ORIENTED_EDGE('',*,*,#448,.F.);
#583=ORIENTED_EDGE('',*,*,#440,.F.);
#584=ORIENTED_EDGE('',*,*,#448,.T.);
#585=ORIENTED_EDGE('',*,*,#430,.F.);
#586=ORIENTED_EDGE('',*,*,#449,.F.);
#587=ORIENTED_EDGE('',*,*,#441,.T.);
#588=ORIENTED_EDGE('',*,*,#449,.T.);
#589=ORIENTED_EDGE('',*,*,#429,.F.);
#590=ORIENTED_EDGE('',*,*,#450,.F.);
#591=ORIENTED_EDGE('',*,*,#442,.T.);
#592=ORIENTED_EDGE('',*,*,#450,.T.);
#593=ORIENTED_EDGE('',*,*,#428,.F.);
#594=ORIENTED_EDGE('',*,*,#451,.F.);
#595=ORIENTED_EDGE('',*,*,#443,.F.);
#596=ORIENTED_EDGE('',*,*,#451,.T.);
#597=ORIENTED_EDGE('',*,*,#427,.F.);
#598=ORIENTED_EDGE('',*,*,#452,.F.);
#599=ORIENTED_EDGE('',*,*,#435,.T.);
#600=ORIENTED_EDGE('',*,*,#444,.T.);
#601=ORIENTED_EDGE('',*,*,#452,.T.);
#602=ORIENTED_EDGE('',*,*,#426,.F.);
#603=ORIENTED_EDGE('',*,*,#453,.F.);
#604=ORIENTED_EDGE('',*,*,#454,.F.);
#605=ORIENTED_EDGE('',*,*,#455,.F.);
#606=ORIENTED_EDGE('',*,*,#456,.F.);
#607=ORIENTED_EDGE('',*,*,#457,.F.);
#608=ORIENTED_EDGE('',*,*,#458,.F.);
#609=ORIENTED_EDGE('',*,*,#459,.F.);
#610=ORIENTED_EDGE('',*,*,#460,.F.);
#611=ORIENTED_EDGE('',*,*,#461,.F.);
#612=ORIENTED_EDGE('',*,*,#462,.F.);
#613=ORIENTED_EDGE('',*,*,#463,.F.);
#614=ORIENTED_EDGE('',*,*,#464,.F.);
#615=ORIENTED_EDGE('',*,*,#465,.F.);
#616=ORIENTED_EDGE('',*,*,#466,.F.);
#617=ORIENTED_EDGE('',*,*,#467,.F.);
#618=ORIENTED_EDGE('',*,*,#468,.F.);
#619=ORIENTED_EDGE('',*,*,#467,.T.);
#620=ORIENTED_EDGE('',*,*,#469,.F.);
#621=ORIENTED_EDGE('',*,*,#470,.T.);
#622=ORIENTED_EDGE('',*,*,#471,.T.);
#623=ORIENTED_EDGE('',*,*,#466,.T.);
#624=ORIENTED_EDGE('',*,*,#472,.T.);
#625=ORIENTED_EDGE('',*,*,#473,.T.);
#626=ORIENTED_EDGE('',*,*,#474,.F.);
#627=ORIENTED_EDGE('',*,*,#475,.F.);
#628=ORIENTED_EDGE('',*,*,#469,.T.);
#629=ORIENTED_EDGE('',*,*,#476,.F.);
#630=ORIENTED_EDGE('',*,*,#477,.T.);
#631=ORIENTED_EDGE('',*,*,#478,.F.);
#632=ORIENTED_EDGE('',*,*,#473,.F.);
#633=ORIENTED_EDGE('',*,*,#460,.T.);
#634=ORIENTED_EDGE('',*,*,#479,.F.);
#635=ORIENTED_EDGE('',*,*,#480,.T.);
#636=ORIENTED_EDGE('',*,*,#481,.T.);
#637=ORIENTED_EDGE('',*,*,#482,.T.);
#638=ORIENTED_EDGE('',*,*,#483,.T.);
#639=ORIENTED_EDGE('',*,*,#459,.T.);
#640=ORIENTED_EDGE('',*,*,#484,.F.);
#641=ORIENTED_EDGE('',*,*,#485,.T.);
#642=ORIENTED_EDGE('',*,*,#479,.T.);
#643=ORIENTED_EDGE('',*,*,#486,.T.);
#644=ORIENTED_EDGE('',*,*,#487,.F.);
#645=ORIENTED_EDGE('',*,*,#488,.T.);
#646=ORIENTED_EDGE('',*,*,#476,.T.);
#647=ORIENTED_EDGE('',*,*,#472,.F.);
#648=ORIENTED_EDGE('',*,*,#465,.T.);
#649=ORIENTED_EDGE('',*,*,#489,.F.);
#650=ORIENTED_EDGE('',*,*,#490,.T.);
#651=ORIENTED_EDGE('',*,*,#491,.T.);
#652=ORIENTED_EDGE('',*,*,#457,.T.);
#653=ORIENTED_EDGE('',*,*,#492,.F.);
#654=ORIENTED_EDGE('',*,*,#493,.T.);
#655=ORIENTED_EDGE('',*,*,#458,.T.);
#656=ORIENTED_EDGE('',*,*,#491,.F.);
#657=ORIENTED_EDGE('',*,*,#494,.T.);
#658=ORIENTED_EDGE('',*,*,#484,.T.);
#659=ORIENTED_EDGE('',*,*,#493,.F.);
#660=ORIENTED_EDGE('',*,*,#495,.F.);
#661=ORIENTED_EDGE('',*,*,#496,.F.);
#662=ORIENTED_EDGE('',*,*,#497,.F.);
#663=ORIENTED_EDGE('',*,*,#486,.F.);
#664=ORIENTED_EDGE('',*,*,#497,.T.);
#665=ORIENTED_EDGE('',*,*,#498,.F.);
#666=ORIENTED_EDGE('',*,*,#499,.F.);
#667=ORIENTED_EDGE('',*,*,#488,.F.);
#668=ORIENTED_EDGE('',*,*,#500,.F.);
#669=ORIENTED_EDGE('',*,*,#501,.F.);
#670=ORIENTED_EDGE('',*,*,#477,.F.);
#671=ORIENTED_EDGE('',*,*,#468,.T.);
#672=ORIENTED_EDGE('',*,*,#471,.F.);
#673=ORIENTED_EDGE('',*,*,#502,.F.);
#674=ORIENTED_EDGE('',*,*,#503,.T.);
#675=ORIENTED_EDGE('',*,*,#504,.T.);
#676=ORIENTED_EDGE('',*,*,#505,.T.);
#677=ORIENTED_EDGE('',*,*,#499,.T.);
#678=ORIENTED_EDGE('',*,*,#506,.T.);
#679=ORIENTED_EDGE('',*,*,#500,.T.);
#680=ORIENTED_EDGE('',*,*,#487,.T.);
#681=ORIENTED_EDGE('',*,*,#507,.F.);
#682=ORIENTED_EDGE('',*,*,#508,.T.);
#683=ORIENTED_EDGE('',*,*,#483,.F.);
#684=ORIENTED_EDGE('',*,*,#508,.F.);
#685=ORIENTED_EDGE('',*,*,#505,.F.);
#686=ORIENTED_EDGE('',*,*,#509,.T.);
#687=ORIENTED_EDGE('',*,*,#510,.F.);
#688=ORIENTED_EDGE('',*,*,#509,.F.);
#689=ORIENTED_EDGE('',*,*,#511,.F.);
#690=ORIENTED_EDGE('',*,*,#512,.T.);
#691=ORIENTED_EDGE('',*,*,#482,.F.);
#692=ORIENTED_EDGE('',*,*,#512,.F.);
#693=ORIENTED_EDGE('',*,*,#504,.F.);
#694=ORIENTED_EDGE('',*,*,#513,.T.);
#695=ORIENTED_EDGE('',*,*,#514,.F.);
#696=ORIENTED_EDGE('',*,*,#513,.F.);
#697=ORIENTED_EDGE('',*,*,#496,.T.);
#698=ORIENTED_EDGE('',*,*,#515,.F.);
#699=ORIENTED_EDGE('',*,*,#516,.T.);
#700=ORIENTED_EDGE('',*,*,#474,.T.);
#701=ORIENTED_EDGE('',*,*,#478,.T.);
#702=ORIENTED_EDGE('',*,*,#501,.T.);
#703=ORIENTED_EDGE('',*,*,#506,.F.);
#704=ORIENTED_EDGE('',*,*,#498,.T.);
#705=ORIENTED_EDGE('',*,*,#456,.T.);
#706=ORIENTED_EDGE('',*,*,#517,.F.);
#707=ORIENTED_EDGE('',*,*,#518,.T.);
#708=ORIENTED_EDGE('',*,*,#515,.T.);
#709=ORIENTED_EDGE('',*,*,#495,.T.);
#710=ORIENTED_EDGE('',*,*,#492,.T.);
#711=ORIENTED_EDGE('',*,*,#455,.T.);
#712=ORIENTED_EDGE('',*,*,#519,.F.);
#713=ORIENTED_EDGE('',*,*,#520,.F.);
#714=ORIENTED_EDGE('',*,*,#517,.T.);
#715=ORIENTED_EDGE('',*,*,#454,.T.);
#716=ORIENTED_EDGE('',*,*,#521,.F.);
#717=ORIENTED_EDGE('',*,*,#522,.T.);
#718=ORIENTED_EDGE('',*,*,#519,.T.);
#719=ORIENTED_EDGE('',*,*,#507,.T.);
#720=ORIENTED_EDGE('',*,*,#511,.T.);
#721=ORIENTED_EDGE('',*,*,#453,.T.);
#722=ORIENTED_EDGE('',*,*,#481,.F.);
#723=ORIENTED_EDGE('',*,*,#523,.T.);
#724=ORIENTED_EDGE('',*,*,#521,.T.);
#725=ORIENTED_EDGE('',*,*,#464,.T.);
#726=ORIENTED_EDGE('',*,*,#524,.F.);
#727=ORIENTED_EDGE('',*,*,#525,.F.);
#728=ORIENTED_EDGE('',*,*,#489,.T.);
#729=ORIENTED_EDGE('',*,*,#463,.T.);
#730=ORIENTED_EDGE('',*,*,#526,.F.);
#731=ORIENTED_EDGE('',*,*,#527,.F.);
#732=ORIENTED_EDGE('',*,*,#524,.T.);
#733=ORIENTED_EDGE('',*,*,#462,.T.);
#734=ORIENTED_EDGE('',*,*,#528,.F.);
#735=ORIENTED_EDGE('',*,*,#529,.F.);
#736=ORIENTED_EDGE('',*,*,#526,.T.);
#737=ORIENTED_EDGE('',*,*,#510,.T.);
#738=ORIENTED_EDGE('',*,*,#514,.T.);
#739=ORIENTED_EDGE('',*,*,#461,.T.);
#740=ORIENTED_EDGE('',*,*,#503,.F.);
#741=ORIENTED_EDGE('',*,*,#530,.F.);
#742=ORIENTED_EDGE('',*,*,#528,.T.);
#743=ORIENTED_EDGE('',*,*,#475,.T.);
#744=ORIENTED_EDGE('',*,*,#516,.F.);
#745=ORIENTED_EDGE('',*,*,#518,.F.);
#746=ORIENTED_EDGE('',*,*,#520,.T.);
#747=ORIENTED_EDGE('',*,*,#522,.F.);
#748=ORIENTED_EDGE('',*,*,#523,.F.);
#749=ORIENTED_EDGE('',*,*,#480,.F.);
#750=ORIENTED_EDGE('',*,*,#485,.F.);
#751=ORIENTED_EDGE('',*,*,#494,.F.);
#752=ORIENTED_EDGE('',*,*,#490,.F.);
#753=ORIENTED_EDGE('',*,*,#525,.T.);
#754=ORIENTED_EDGE('',*,*,#527,.T.);
#755=ORIENTED_EDGE('',*,*,#529,.T.);
#756=ORIENTED_EDGE('',*,*,#530,.T.);
#757=ORIENTED_EDGE('',*,*,#502,.T.);
#758=ORIENTED_EDGE('',*,*,#470,.F.);
#759=PLANE('',#842);
#760=PLANE('',#843);
#761=PLANE('',#844);
#762=PLANE('',#845);
#763=PLANE('',#846);
#764=PLANE('',#847);
#765=PLANE('',#848);
#766=PLANE('',#849);
#767=PLANE('',#850);
#768=PLANE('',#851);
#769=PLANE('',#852);
#770=PLANE('',#853);
#771=PLANE('',#854);
#772=PLANE('',#855);
#773=PLANE('',#856);
#774=PLANE('',#857);
#775=PLANE('',#858);
#776=PLANE('',#859);
#777=PLANE('',#860);
#778=PLANE('',#861);
#779=PLANE('',#864);
#780=PLANE('',#865);
#781=PLANE('',#866);
#782=PLANE('',#867);
#783=PLANE('',#868);
#784=PLANE('',#869);
#785=PLANE('',#870);
#786=PLANE('',#873);
#787=PLANE('',#882);
#788=PLANE('',#883);
#789=PLANE('',#884);
#790=PLANE('',#885);
#791=PLANE('',#886);
#792=PLANE('',#887);
#793=PLANE('',#888);
#794=PLANE('',#889);
#795=PLANE('',#890);
#796=PLANE('',#891);
#797=ADVANCED_FACE('',(#37),#759,.T.);
#798=ADVANCED_FACE('',(#38),#760,.F.);
#799=ADVANCED_FACE('',(#39),#761,.T.);
#800=ADVANCED_FACE('',(#40),#762,.F.);
#801=ADVANCED_FACE('',(#41),#763,.F.);
#802=ADVANCED_FACE('',(#42),#764,.T.);
#803=ADVANCED_FACE('',(#43),#765,.T.);
#804=ADVANCED_FACE('',(#44),#766,.T.);
#805=ADVANCED_FACE('',(#45),#767,.T.);
#806=ADVANCED_FACE('',(#46),#768,.T.);
#807=ADVANCED_FACE('',(#47),#769,.T.);
#808=ADVANCED_FACE('',(#48),#770,.T.);
#809=ADVANCED_FACE('',(#49),#771,.T.);
#810=ADVANCED_FACE('',(#50),#772,.T.);
#811=ADVANCED_FACE('',(#51),#773,.F.);
#812=ADVANCED_FACE('',(#52),#774,.F.);
#813=ADVANCED_FACE('',(#53),#775,.T.);
#814=ADVANCED_FACE('',(#54),#776,.T.);
#815=ADVANCED_FACE('',(#55),#777,.F.);
#816=ADVANCED_FACE('',(#56,#17,#18),#778,.T.);
#817=ADVANCED_FACE('',(#57),#779,.T.);
#818=ADVANCED_FACE('',(#58),#780,.T.);
#819=ADVANCED_FACE('',(#59),#781,.T.);
#820=ADVANCED_FACE('',(#60),#782,.F.);
#821=ADVANCED_FACE('',(#61),#783,.F.);
#822=ADVANCED_FACE('',(#62),#784,.F.);
#823=ADVANCED_FACE('',(#63,#19,#20),#785,.T.);
#824=ADVANCED_FACE('',(#64),#786,.T.);
#825=ADVANCED_FACE('',(#65),#13,.F.);
#826=ADVANCED_FACE('',(#66),#14,.F.);
#827=ADVANCED_FACE('',(#67),#15,.F.);
#828=ADVANCED_FACE('',(#68),#16,.F.);
#829=ADVANCED_FACE('',(#69),#787,.T.);
#830=ADVANCED_FACE('',(#70),#788,.T.);
#831=ADVANCED_FACE('',(#71),#789,.T.);
#832=ADVANCED_FACE('',(#72,#21,#22),#790,.T.);
#833=ADVANCED_FACE('',(#73),#791,.T.);
#834=ADVANCED_FACE('',(#74),#792,.T.);
#835=ADVANCED_FACE('',(#75),#793,.T.);
#836=ADVANCED_FACE('',(#76,#23,#24),#794,.T.);
#837=ADVANCED_FACE('',(#77),#795,.T.);
#838=ADVANCED_FACE('',(#78),#796,.T.);
#839=CLOSED_SHELL('',(#797,#798,#799,#800,#801,#802,#803,#804,#805,#806,
#807,#808,#809,#810));
#840=CLOSED_SHELL('',(#811,#812,#813,#814,#815,#816,#817,#818,#819,#820,
#821,#822,#823,#824,#825,#826,#827,#828,#829,#830,#831,#832,#833,#834,#835,
#836,#837,#838));
#841=AXIS2_PLACEMENT_3D('',#1100,#892,#893);
#842=AXIS2_PLACEMENT_3D('',#1101,#894,#895);
#843=AXIS2_PLACEMENT_3D('',#1110,#900,#901);
#844=AXIS2_PLACEMENT_3D('',#1116,#905,#906);
#845=AXIS2_PLACEMENT_3D('',#1136,#917,#918);
#846=AXIS2_PLACEMENT_3D('',#1140,#921,#922);
#847=AXIS2_PLACEMENT_3D('',#1158,#932,#933);
#848=AXIS2_PLACEMENT_3D('',#1161,#936,#937);
#849=AXIS2_PLACEMENT_3D('',#1162,#938,#939);
#850=AXIS2_PLACEMENT_3D('',#1164,#941,#942);
#851=AXIS2_PLACEMENT_3D('',#1166,#944,#945);
#852=AXIS2_PLACEMENT_3D('',#1168,#947,#948);
#853=AXIS2_PLACEMENT_3D('',#1170,#950,#951);
#854=AXIS2_PLACEMENT_3D('',#1172,#953,#954);
#855=AXIS2_PLACEMENT_3D('',#1174,#956,#957);
#856=AXIS2_PLACEMENT_3D('',#1175,#958,#959);
#857=AXIS2_PLACEMENT_3D('',#1192,#968,#969);
#858=AXIS2_PLACEMENT_3D('',#1209,#978,#979);
#859=AXIS2_PLACEMENT_3D('',#1215,#983,#984);
#860=AXIS2_PLACEMENT_3D('',#1223,#989,#990);
#861=AXIS2_PLACEMENT_3D('',#1229,#994,#995);
#862=AXIS2_PLACEMENT_3D('',#1236,#999,#1000);
#863=AXIS2_PLACEMENT_3D('',#1238,#1001,#1002);
#864=AXIS2_PLACEMENT_3D('',#1239,#1003,#1004);
#865=AXIS2_PLACEMENT_3D('',#1243,#1007,#1008);
#866=AXIS2_PLACEMENT_3D('',#1258,#1017,#1018);
#867=AXIS2_PLACEMENT_3D('',#1260,#1020,#1021);
#868=AXIS2_PLACEMENT_3D('',#1266,#1025,#1026);
#869=AXIS2_PLACEMENT_3D('',#1270,#1029,#1030);
#870=AXIS2_PLACEMENT_3D('',#1274,#1033,#1034);
#871=AXIS2_PLACEMENT_3D('',#1279,#1037,#1038);
#872=AXIS2_PLACEMENT_3D('',#1281,#1039,#1040);
#873=AXIS2_PLACEMENT_3D('',#1282,#1041,#1042);
#874=AXIS2_PLACEMENT_3D('',#1284,#1044,#1045);
#875=AXIS2_PLACEMENT_3D('',#1286,#1046,#1047);
#876=AXIS2_PLACEMENT_3D('',#1288,#1049,#1050);
#877=AXIS2_PLACEMENT_3D('',#1291,#1052,#1053);
#878=AXIS2_PLACEMENT_3D('',#1292,#1054,#1055);
#879=AXIS2_PLACEMENT_3D('',#1294,#1056,#1057);
#880=AXIS2_PLACEMENT_3D('',#1296,#1059,#1060);
#881=AXIS2_PLACEMENT_3D('',#1299,#1062,#1063);
#882=AXIS2_PLACEMENT_3D('',#1300,#1064,#1065);
#883=AXIS2_PLACEMENT_3D('',#1304,#1068,#1069);
#884=AXIS2_PLACEMENT_3D('',#1308,#1072,#1073);
#885=AXIS2_PLACEMENT_3D('',#1312,#1076,#1077);
#886=AXIS2_PLACEMENT_3D('',#1316,#1080,#1081);
#887=AXIS2_PLACEMENT_3D('',#1318,#1083,#1084);
#888=AXIS2_PLACEMENT_3D('',#1322,#1087,#1088);
#889=AXIS2_PLACEMENT_3D('',#1326,#1091,#1092);
#890=AXIS2_PLACEMENT_3D('',#1330,#1095,#1096);
#891=AXIS2_PLACEMENT_3D('',#1332,#1098,#1099);
#892=DIRECTION('axis',(0.,0.,1.));
#893=DIRECTION('refdir',(1.,0.,0.));
#894=DIRECTION('center_axis',(0.,0.,-1.));
#895=DIRECTION('ref_axis',(-1.,0.,0.));
#896=DIRECTION('',(-1.,0.,0.));
#897=DIRECTION('',(0.,1.,0.));
#898=DIRECTION('',(1.,0.,0.));
#899=DIRECTION('',(0.,-1.,0.));
#900=DIRECTION('center_axis',(0.,1.,0.));
#901=DIRECTION('ref_axis',(0.,0.,1.));
#902=DIRECTION('',(0.,0.,-1.));
#903=DIRECTION('',(1.,0.,0.));
#904=DIRECTION('',(0.,0.,1.));
#905=DIRECTION('center_axis',(1.,0.,0.));
#906=DIRECTION('ref_axis',(0.,0.,-1.));
#907=DIRECTION('',(0.,1.,0.));
#908=DIRECTION('',(0.,0.,-1.));
#909=DIRECTION('',(0.,-1.,-2.96059465880659E-16));
#910=DIRECTION('',(0.,1.61969143411388E-8,-1.));
#911=DIRECTION('',(0.,1.,0.));
#912=DIRECTION('',(0.,0.,1.));
#913=DIRECTION('',(0.,-1.,-2.22044604925031E-16));
#914=DIRECTION('',(0.,0.,-1.));
#915=DIRECTION('',(0.,-1.,1.11022302462516E-16));
#916=DIRECTION('',(0.,0.,1.));
#917=DIRECTION('center_axis',(0.,-1.,0.));
#918=DIRECTION('ref_axis',(0.,0.,-1.));
#919=DIRECTION('',(0.,0.,-1.));
#920=DIRECTION('',(-1.,0.,0.));
#921=DIRECTION('center_axis',(1.,0.,0.));
#922=DIRECTION('ref_axis',(0.,1.,0.));
#923=DIRECTION('',(0.,-1.,0.));
#924=DIRECTION('',(0.,0.,-1.));
#925=DIRECTION('',(0.,1.,-1.11022302462516E-16));
#926=DIRECTION('',(0.,0.,1.));
#927=DIRECTION('',(0.,1.,2.22044604925031E-16));
#928=DIRECTION('',(0.,0.,1.));
#929=DIRECTION('',(0.,1.,0.));
#930=DIRECTION('',(0.,-1.61969143411388E-8,1.));
#931=DIRECTION('',(0.,-1.,-2.96059465880659E-16));
#932=DIRECTION('center_axis',(0.,1.,0.));
#933=DIRECTION('ref_axis',(0.,0.,1.));
#934=DIRECTION('',(1.,0.,0.));
#935=DIRECTION('',(1.,0.,0.));
#936=DIRECTION('center_axis',(0.,0.,-1.));
#937=DIRECTION('ref_axis',(0.,1.,0.));
#938=DIRECTION('center_axis',(0.,1.11022302462516E-16,1.));
#939=DIRECTION('ref_axis',(0.,-1.,1.11022302462516E-16));
#940=DIRECTION('',(1.,0.,0.));
#941=DIRECTION('center_axis',(0.,-1.,0.));
#942=DIRECTION('ref_axis',(0.,0.,-1.));
#943=DIRECTION('',(1.,0.,0.));
#944=DIRECTION('center_axis',(0.,-2.22044604925031E-16,1.));
#945=DIRECTION('ref_axis',(0.,-1.,-2.22044604925031E-16));
#946=DIRECTION('',(1.,0.,0.));
#947=DIRECTION('center_axis',(0.,1.,0.));
#948=DIRECTION('ref_axis',(0.,0.,1.));
#949=DIRECTION('',(1.,0.,0.));
#950=DIRECTION('center_axis',(0.,0.,-1.));
#951=DIRECTION('ref_axis',(0.,1.,0.));
#952=DIRECTION('',(1.,0.,0.));
#953=DIRECTION('center_axis',(0.,-1.,-1.61969143411388E-8));
#954=DIRECTION('ref_axis',(0.,1.61969143411388E-8,-1.));
#955=DIRECTION('',(1.,0.,0.));
#956=DIRECTION('center_axis',(0.,-2.96059465880659E-16,1.));
#957=DIRECTION('ref_axis',(0.,-1.,-2.96059465880659E-16));
#958=DIRECTION('center_axis',(0.,0.,1.));
#959=DIRECTION('ref_axis',(0.,-1.,0.));
#960=DIRECTION('',(0.,-1.,0.));
#961=DIRECTION('',(-1.,-1.8503717077086E-16,0.));
#962=DIRECTION('',(-2.60596151887991E-15,1.,0.));
#963=DIRECTION('',(0.444144320354842,0.895955257084044,0.));
#964=DIRECTION('',(1.,0.,0.));
#965=DIRECTION('',(-0.444144320354843,-0.895955257084044,0.));
#966=DIRECTION('',(3.73230153194201E-15,-1.,0.));
#967=DIRECTION('',(1.,-1.58603289232166E-16,0.));
#968=DIRECTION('center_axis',(0.,0.,1.));
#969=DIRECTION('ref_axis',(0.,-1.,0.));
#970=DIRECTION('',(0.,1.,0.));
#971=DIRECTION('',(1.,1.58603289232165E-16,0.));
#972=DIRECTION('',(1.24410051064734E-15,1.,0.));
#973=DIRECTION('',(-0.444144320354843,0.895955257084044,0.));
#974=DIRECTION('',(1.,0.,0.));
#975=DIRECTION('',(0.444144320354842,-0.895955257084044,0.));
#976=DIRECTION('',(-2.60596151887991E-15,-1.,0.));
#977=DIRECTION('',(-1.,0.,0.));
#978=DIRECTION('center_axis',(-1.,2.60596151887991E-15,0.));
#979=DIRECTION('ref_axis',(2.60596151887991E-15,1.,-5.42908649766647E-17));
#980=DIRECTION('',(0.,0.,-1.));
#981=DIRECTION('',(2.60596151887991E-15,1.,-5.42908649766647E-17));
#982=DIRECTION('',(0.,0.,-1.));
#983=DIRECTION('center_axis',(-0.895955257084044,-0.444144320354842,0.));
#984=DIRECTION('ref_axis',(-0.444144320354842,0.895955257084044,-2.22765371979666E-16));
#985=DIRECTION('',(0.,0.,-1.));
#986=DIRECTION('',(0.444144320354842,-0.895955257084044,0.));
#987=DIRECTION('',(0.,0.,-1.));
#988=DIRECTION('',(0.444144320354842,-0.895955257084044,2.22765371979666E-16));
#989=DIRECTION('center_axis',(0.,0.,1.));
#990=DIRECTION('ref_axis',(-1.,1.30020286528728E-16,0.));
#991=DIRECTION('',(-1.,0.,0.));
#992=DIRECTION('',(0.,-1.,0.));
#993=DIRECTION('',(1.,-1.92229533969326E-16,0.));
#994=DIRECTION('center_axis',(-1.58603289232166E-16,-1.,0.));
#995=DIRECTION('ref_axis',(-1.,1.58603289232166E-16,0.));
#996=DIRECTION('',(0.,0.,-1.));
#997=DIRECTION('',(-1.,1.58603289232166E-16,0.));
#998=DIRECTION('',(0.,0.,-1.));
#999=DIRECTION('center_axis',(1.58603289232166E-16,1.,0.));
#1000=DIRECTION('ref_axis',(-1.,0.,0.));
#1001=DIRECTION('center_axis',(1.58603289232166E-16,1.,0.));
#1002=DIRECTION('ref_axis',(-1.,0.,0.));
#1003=DIRECTION('center_axis',(-1.,-3.73230153194201E-15,0.));
#1004=DIRECTION('ref_axis',(-3.73230153194201E-15,1.,-6.51317313995303E-17));
#1005=DIRECTION('',(0.,0.,-1.));
#1006=DIRECTION('',(-3.73230153194201E-15,1.,-6.51317313995303E-17));
#1007=DIRECTION('center_axis',(0.,1.,0.));
#1008=DIRECTION('ref_axis',(1.,0.,0.));
#1009=DIRECTION('',(0.,0.,-1.));
#1010=DIRECTION('',(1.,0.,0.));
#1011=DIRECTION('',(0.,0.,1.));
#1012=DIRECTION('',(0.,0.,-1.));
#1013=DIRECTION('',(1.,0.,0.));
#1014=DIRECTION('',(0.,0.,-1.));
#1015=DIRECTION('',(0.,0.,1.));
#1016=DIRECTION('',(-1.,0.,0.));
#1017=DIRECTION('center_axis',(-0.895955257084044,0.444144320354843,0.));
#1018=DIRECTION('ref_axis',(0.444144320354843,0.895955257084044,-2.22765371979666E-16));
#1019=DIRECTION('',(0.444144320354843,0.895955257084044,-2.22765371979666E-16));
#1020=DIRECTION('center_axis',(0.,0.,1.));
#1021=DIRECTION('ref_axis',(-1.,-4.47207690054647E-48,0.));
#1022=DIRECTION('',(0.444144320354842,0.895955257084044,0.));
#1023=DIRECTION('',(1.,-1.92229533969326E-16,0.));
#1024=DIRECTION('',(0.,-1.,0.));
#1025=DIRECTION('center_axis',(-1.,0.,0.));
#1026=DIRECTION('ref_axis',(0.,6.7578050941591E-47,-1.));
#1027=DIRECTION('',(0.,0.,1.));
#1028=DIRECTION('',(0.,-1.,0.));
#1029=DIRECTION('center_axis',(1.,0.,0.));
#1030=DIRECTION('ref_axis',(0.,-1.9737299522708E-15,1.));
#1031=DIRECTION('',(0.,1.,0.));
#1032=DIRECTION('',(0.,0.,-1.));
#1033=DIRECTION('center_axis',(0.,1.,0.));
#1034=DIRECTION('ref_axis',(1.,0.,0.));
#1035=DIRECTION('',(-1.,0.,0.));
#1036=DIRECTION('',(0.,0.,-1.));
#1037=DIRECTION('center_axis',(0.,-1.,0.));
#1038=DIRECTION('ref_axis',(-1.,0.,0.));
#1039=DIRECTION('center_axis',(0.,-1.,0.));
#1040=DIRECTION('ref_axis',(-1.,0.,0.));
#1041=DIRECTION('center_axis',(0.,0.,-1.));
#1042=DIRECTION('ref_axis',(-1.,0.,0.));
#1043=DIRECTION('',(-1.,1.92229533969326E-16,1.55891095497299E-16));
#1044=DIRECTION('center_axis',(0.,-1.,0.));
#1045=DIRECTION('ref_axis',(-1.,0.,0.));
#1046=DIRECTION('center_axis',(1.8503717077086E-16,-1.,0.));
#1047=DIRECTION('ref_axis',(-1.,0.,0.));
#1048=DIRECTION('',(0.,-1.,0.));
#1049=DIRECTION('center_axis',(0.,-1.,0.));
#1050=DIRECTION('ref_axis',(-1.,0.,0.));
#1051=DIRECTION('',(0.,-1.,0.));
#1052=DIRECTION('center_axis',(-1.58603289232165E-16,1.,0.));
#1053=DIRECTION('ref_axis',(-1.,0.,0.));
#1054=DIRECTION('center_axis',(0.,-1.,0.));
#1055=DIRECTION('ref_axis',(-1.,0.,0.));
#1056=DIRECTION('center_axis',(1.8503717077086E-16,-1.,0.));
#1057=DIRECTION('ref_axis',(-1.,0.,0.));
#1058=DIRECTION('',(0.,-1.,0.));
#1059=DIRECTION('center_axis',(0.,-1.,0.));
#1060=DIRECTION('ref_axis',(-1.,0.,0.));
#1061=DIRECTION('',(0.,-1.,0.));
#1062=DIRECTION('center_axis',(-1.58603289232165E-16,1.,0.));
#1063=DIRECTION('ref_axis',(-1.,0.,0.));
#1064=DIRECTION('center_axis',(-1.92229533969326E-16,-1.,0.));
#1065=DIRECTION('ref_axis',(-1.,1.92229533969326E-16,1.55891095497299E-16));
#1066=DIRECTION('',(0.,0.,-1.));
#1067=DIRECTION('',(-1.,1.92229533969326E-16,1.55891095497299E-16));
#1068=DIRECTION('center_axis',(0.895955257084044,-0.444144320354842,0.));
#1069=DIRECTION('ref_axis',(-0.444144320354842,-0.895955257084044,2.22765371979666E-16));
#1070=DIRECTION('',(0.,0.,-1.));
#1071=DIRECTION('',(-0.444144320354842,-0.895955257084044,2.22765371979666E-16));
#1072=DIRECTION('center_axis',(1.,2.60596151887991E-15,0.));
#1073=DIRECTION('ref_axis',(2.60596151887991E-15,-1.,5.42908649766647E-17));
#1074=DIRECTION('',(0.,0.,-1.));
#1075=DIRECTION('',(-2.60596151887991E-15,1.,-5.42908649766647E-17));
#1076=DIRECTION('center_axis',(-1.8503717077086E-16,1.,0.));
#1077=DIRECTION('ref_axis',(1.,1.8503717077086E-16,0.));
#1078=DIRECTION('',(0.,0.,-1.));
#1079=DIRECTION('',(1.,1.8503717077086E-16,0.));
#1080=DIRECTION('center_axis',(-1.,0.,0.));
#1081=DIRECTION('ref_axis',(0.,1.,0.));
#1082=DIRECTION('',(0.,1.,0.));
#1083=DIRECTION('center_axis',(0.895955257084044,0.444144320354843,0.));
#1084=DIRECTION('ref_axis',(0.444144320354843,-0.895955257084044,2.22765371979666E-16));
#1085=DIRECTION('',(0.,0.,-1.));
#1086=DIRECTION('',(-0.444144320354843,0.895955257084044,-2.22765371979666E-16));
#1087=DIRECTION('center_axis',(1.,-1.24410051064734E-15,0.));
#1088=DIRECTION('ref_axis',(-1.24410051064734E-15,-1.,6.51317313995303E-17));
#1089=DIRECTION('',(0.,0.,-1.));
#1090=DIRECTION('',(1.24410051064734E-15,1.,-6.51317313995303E-17));
#1091=DIRECTION('center_axis',(1.58603289232165E-16,-1.,0.));
#1092=DIRECTION('ref_axis',(-1.,-1.58603289232165E-16,0.));
#1093=DIRECTION('',(0.,0.,-1.));
#1094=DIRECTION('',(1.,1.58603289232165E-16,0.));
#1095=DIRECTION('center_axis',(1.,0.,0.));
#1096=DIRECTION('ref_axis',(0.,-1.,0.));
#1097=DIRECTION('',(0.,1.,0.));
#1098=DIRECTION('center_axis',(0.,0.,1.));
#1099=DIRECTION('ref_axis',(1.,0.,0.));
#1100=CARTESIAN_POINT('',(0.,0.,0.));
#1101=CARTESIAN_POINT('Origin',(61.0776901567923,13.3990726152951,5.375));
#1102=CARTESIAN_POINT('',(108.077690156792,-14.5,5.375));
#1103=CARTESIAN_POINT('',(78.0776901567922,-14.5,5.375));
#1104=CARTESIAN_POINT('',(69.5776901567923,-14.5,5.375));
#1105=CARTESIAN_POINT('',(78.0776901567922,-10.5,5.375));
#1106=CARTESIAN_POINT('',(78.0776901567922,-0.800463785484731,5.375));
#1107=CARTESIAN_POINT('',(108.077690156792,-10.5,5.375));
#1108=CARTESIAN_POINT('',(69.5776901567923,-10.5,5.375));
#1109=CARTESIAN_POINT('',(108.077690156792,-0.800463785484731,5.375));
#1110=CARTESIAN_POINT('Origin',(78.0776901567922,-14.5,10.));
#1111=CARTESIAN_POINT('',(108.077690156792,-14.5,10.));
#1112=CARTESIAN_POINT('',(108.077690156792,-14.5,7.125));
#1113=CARTESIAN_POINT('',(78.0776901567922,-14.5,10.));
#1114=CARTESIAN_POINT('',(78.0776901567922,-14.5,10.));
#1115=CARTESIAN_POINT('',(78.0776901567922,-14.5,6.75));
#1116=CARTESIAN_POINT('Origin',(108.077690156792,-15.0000001862645,3.5));
#1117=CARTESIAN_POINT('',(108.077690156792,-20.,10.));
#1118=CARTESIAN_POINT('',(108.077690156792,-15.,10.));
#1119=CARTESIAN_POINT('',(108.077690156792,-10.5,15.));
#1120=CARTESIAN_POINT('',(108.077690156792,-10.5,7.125));
#1121=CARTESIAN_POINT('',(108.077690156792,-25.000000372529,15.));
#1122=CARTESIAN_POINT('',(108.077690156792,-10.,15.));
#1123=CARTESIAN_POINT('',(108.077690156792,-25.,-8.));
#1124=CARTESIAN_POINT('',(108.077690156792,-25.,-8.));
#1125=CARTESIAN_POINT('',(108.077690156792,-5.,-8.));
#1126=CARTESIAN_POINT('',(108.077690156792,-25.,-8.));
#1127=CARTESIAN_POINT('',(108.077690156792,-5.,1.11022302462516E-15));
#1128=CARTESIAN_POINT('',(108.077690156792,-5.,-8.));
#1129=CARTESIAN_POINT('',(108.077690156792,-15.,-1.11022302462516E-15));
#1130=CARTESIAN_POINT('',(108.077690156792,-15.,-1.11022302462516E-15));
#1131=CARTESIAN_POINT('',(108.077690156792,-15.,-3.));
#1132=CARTESIAN_POINT('',(108.077690156792,-15.,-3.));
#1133=CARTESIAN_POINT('',(108.077690156792,-20.,-3.));
#1134=CARTESIAN_POINT('',(108.077690156792,-20.,-3.));
#1135=CARTESIAN_POINT('',(108.077690156792,-20.,10.));
#1136=CARTESIAN_POINT('Origin',(78.0776901567922,-10.5,6.125));
#1137=CARTESIAN_POINT('',(78.0776901567922,-10.5,15.));
#1138=CARTESIAN_POINT('',(78.0776901567922,-10.5,7.125));
#1139=CARTESIAN_POINT('',(78.0776901567922,-10.5,15.));
#1140=CARTESIAN_POINT('Origin',(78.0776901567922,-15.0000001862645,3.5));
#1141=CARTESIAN_POINT('',(78.0776901567922,-20.,10.));
#1142=CARTESIAN_POINT('',(78.0776901567922,-15.,10.));
#1143=CARTESIAN_POINT('',(78.0776901567922,-20.,-3.));
#1144=CARTESIAN_POINT('',(78.0776901567922,-20.,10.));
#1145=CARTESIAN_POINT('',(78.0776901567922,-15.,-3.));
#1146=CARTESIAN_POINT('',(78.0776901567922,-20.,-3.));
#1147=CARTESIAN_POINT('',(78.0776901567922,-15.,-1.11022302462516E-15));
#1148=CARTESIAN_POINT('',(78.0776901567922,-15.,-3.));
#1149=CARTESIAN_POINT('',(78.0776901567922,-5.,1.11022302462516E-15));
#1150=CARTESIAN_POINT('',(78.0776901567922,-15.,-1.11022302462516E-15));
#1151=CARTESIAN_POINT('',(78.0776901567922,-5.,-8.));
#1152=CARTESIAN_POINT('',(78.0776901567922,-5.,-8.));
#1153=CARTESIAN_POINT('',(78.0776901567922,-25.,-8.));
#1154=CARTESIAN_POINT('',(78.0776901567922,-25.,-8.));
#1155=CARTESIAN_POINT('',(78.0776901567922,-25.000000372529,15.));
#1156=CARTESIAN_POINT('',(78.0776901567922,-25.,-8.));
#1157=CARTESIAN_POINT('',(78.0776901567922,-10.,15.));
#1158=CARTESIAN_POINT('Origin',(78.0776901567922,-20.,-3.));
#1159=CARTESIAN_POINT('',(78.0776901567922,-20.,10.));
#1160=CARTESIAN_POINT('',(78.0776901567922,-20.,-3.));
#1161=CARTESIAN_POINT('Origin',(78.0776901567922,-20.,10.));
#1162=CARTESIAN_POINT('Origin',(78.0776901567922,-15.,-3.));
#1163=CARTESIAN_POINT('',(78.0776901567922,-15.,-3.));
#1164=CARTESIAN_POINT('Origin',(78.0776901567922,-15.,-1.11022302462516E-15));
#1165=CARTESIAN_POINT('',(78.0776901567922,-15.,-1.11022302462516E-15));
#1166=CARTESIAN_POINT('Origin',(78.0776901567922,-5.,1.11022302462516E-15));
#1167=CARTESIAN_POINT('',(78.0776901567922,-5.,1.11022302462516E-15));
#1168=CARTESIAN_POINT('Origin',(78.0776901567922,-5.,-8.));
#1169=CARTESIAN_POINT('',(78.0776901567922,-5.,-8.));
#1170=CARTESIAN_POINT('Origin',(78.0776901567922,-25.,-8.));
#1171=CARTESIAN_POINT('',(78.0776901567922,-25.,-8.));
#1172=CARTESIAN_POINT('Origin',(78.0776901567922,-25.000000372529,15.));
#1173=CARTESIAN_POINT('',(78.0776901567922,-25.000000372529,15.));
#1174=CARTESIAN_POINT('Origin',(78.0776901567922,-10.,15.));
#1175=CARTESIAN_POINT('Origin',(61.0776901567923,13.3990726152951,7.125));
#1176=CARTESIAN_POINT('',(113.077690156792,13.3990726152949,7.125));
#1177=CARTESIAN_POINT('',(113.077690156792,8.39907261529489,7.125));
#1178=CARTESIAN_POINT('',(113.077690156792,10.899072615295,7.125));
#1179=CARTESIAN_POINT('',(125.077690156792,13.3990726152951,7.125));
#1180=CARTESIAN_POINT('',(87.0776901567922,13.3990726152949,7.125));
#1181=CARTESIAN_POINT('',(125.077690156792,-7.05046387859503,7.125));
#1182=CARTESIAN_POINT('',(125.077690156792,13.3990726152951,7.125));
#1183=CARTESIAN_POINT('',(118.658325975899,-20.0000003725288,7.125));
#1184=CARTESIAN_POINT('',(122.834013671764,-11.5765461672323,7.125));
#1185=CARTESIAN_POINT('',(113.077690156792,-20.0000003725288,7.125));
#1186=CARTESIAN_POINT('',(61.0776901567923,-20.0000003725288,7.125));
#1187=CARTESIAN_POINT('',(120.077690156792,-5.87916957010511,7.125));
#1188=CARTESIAN_POINT('',(114.594125529054,-16.9409536133122,7.125));
#1189=CARTESIAN_POINT('',(120.077690156792,8.39907261529489,7.125));
#1190=CARTESIAN_POINT('',(120.077690156792,3.75995152259508,7.125));
#1191=CARTESIAN_POINT('',(90.5776901567922,8.3990726152949,7.125));
#1192=CARTESIAN_POINT('Origin',(61.0776901567923,13.3990726152951,7.125));
#1193=CARTESIAN_POINT('',(73.0776901567923,8.39907261529489,7.125));
#1194=CARTESIAN_POINT('',(73.0776901567923,13.3990726152949,7.125));
#1195=CARTESIAN_POINT('',(73.0776901567923,13.399072615295,7.125));
#1196=CARTESIAN_POINT('',(66.0776901567923,8.39907261529489,7.125));
#1197=CARTESIAN_POINT('',(67.0776901567923,8.39907261529489,7.125));
#1198=CARTESIAN_POINT('',(66.0776901567922,-5.87916957010511,7.125));
#1199=CARTESIAN_POINT('',(66.0776901567923,10.899072615295,7.125));
#1200=CARTESIAN_POINT('',(73.0776901567922,-20.000000372529,7.125));
#1201=CARTESIAN_POINT('',(61.7488011108197,2.85333182712986,7.125));
#1202=CARTESIAN_POINT('',(67.4970543376856,-20.0000003725288,7.125));
#1203=CARTESIAN_POINT('',(61.0776901567923,-20.0000003725288,7.125));
#1204=CARTESIAN_POINT('',(61.0776901567922,-7.05046387859506,7.125));
#1205=CARTESIAN_POINT('',(61.4578989100688,-7.81744437496919,7.125));
#1206=CARTESIAN_POINT('',(61.0776901567923,13.3990726152951,7.125));
#1207=CARTESIAN_POINT('',(61.0776901567923,3.17430436835,7.125));
#1208=CARTESIAN_POINT('',(61.0776901567923,13.3990726152949,7.125));
#1209=CARTESIAN_POINT('Origin',(61.0776901567922,-7.05046387859506,30.));
#1210=CARTESIAN_POINT('',(61.0776901567922,-7.05046387859506,30.));
#1211=CARTESIAN_POINT('',(61.0776901567922,-7.05046387859506,30.));
#1212=CARTESIAN_POINT('',(61.0776901567923,13.3990726152949,30.));
#1213=CARTESIAN_POINT('',(61.0776901567922,-7.05046387859506,30.));
#1214=CARTESIAN_POINT('',(61.0776901567923,13.3990726152949,30.));
#1215=CARTESIAN_POINT('Origin',(69.9756620407107,-25.000000372529,30.));
#1216=CARTESIAN_POINT('',(67.4970543376856,-20.0000003725288,6.125));
#1217=CARTESIAN_POINT('',(67.4970543376856,-20.0000003725288,18.5625));
#1218=CARTESIAN_POINT('',(69.9756620407107,-25.000000372529,6.125));
#1219=CARTESIAN_POINT('',(63.1346444171483,-11.1998786041397,6.125));
#1220=CARTESIAN_POINT('',(69.9756620407107,-25.000000372529,30.));
#1221=CARTESIAN_POINT('',(69.9756620407107,-25.000000372529,30.));
#1222=CARTESIAN_POINT('',(67.4970543376857,-20.000000372529,30.));
#1223=CARTESIAN_POINT('Origin',(78.0776901567922,13.3990726152949,6.125));
#1224=CARTESIAN_POINT('',(78.0776901567922,-20.000000372529,6.125));
#1225=CARTESIAN_POINT('',(75.5776901567922,-20.000000372529,6.125));
#1226=CARTESIAN_POINT('',(78.0776901567922,-25.0000002287814,6.125));
#1227=CARTESIAN_POINT('',(78.0776901567922,13.3990726152949,6.125));
#1228=CARTESIAN_POINT('',(97.128704214833,-25.000000372529,6.125));
#1229=CARTESIAN_POINT('Origin',(120.077690156792,8.39907261529489,30.));
#1230=CARTESIAN_POINT('',(120.077690156792,8.39907261529489,30.));
#1231=CARTESIAN_POINT('',(120.077690156792,8.39907261529489,30.));
#1232=CARTESIAN_POINT('',(113.077690156792,8.39907261529489,30.));
#1233=CARTESIAN_POINT('',(120.077690156792,8.39907261529489,30.));
#1234=CARTESIAN_POINT('',(113.077690156792,8.39907261529489,30.));
#1235=CARTESIAN_POINT('',(119.577690156792,8.3990726152949,23.25));
#1236=CARTESIAN_POINT('Origin',(117.377690156792,8.39907261529489,23.25));
#1237=CARTESIAN_POINT('',(119.577690156792,8.3990726152949,13.25));
#1238=CARTESIAN_POINT('Origin',(117.377690156792,8.39907261529489,13.25));
#1239=CARTESIAN_POINT('Origin',(120.077690156792,-5.87916957010511,30.));
#1240=CARTESIAN_POINT('',(120.077690156792,-5.87916957010511,30.));
#1241=CARTESIAN_POINT('',(120.077690156792,-5.87916957010511,30.));
#1242=CARTESIAN_POINT('',(120.077690156792,-5.87916957010511,30.));
#1243=CARTESIAN_POINT('Origin',(73.0776901567922,-20.000000372529,30.));
#1244=CARTESIAN_POINT('',(108.077690156792,-20.000000372529,6.125));
#1245=CARTESIAN_POINT('',(108.077690156792,-20.000000372529,5.));
#1246=CARTESIAN_POINT('',(108.077690156792,-20.000000372529,18.0625));
#1247=CARTESIAN_POINT('',(78.0776901567922,-20.000000372529,5.00000007450581));
#1248=CARTESIAN_POINT('',(108.077690156792,-20.000000372529,5.00000000000001));
#1249=CARTESIAN_POINT('',(78.0776901567922,-20.000000372529,17.5000000372529));
#1250=CARTESIAN_POINT('',(73.0776901567922,-20.000000372529,30.));
#1251=CARTESIAN_POINT('',(73.0776901567922,-20.000000372529,30.));
#1252=CARTESIAN_POINT('',(113.077690156792,-20.000000372529,30.));
#1253=CARTESIAN_POINT('',(108.077690156792,-20.000000372529,30.));
#1254=CARTESIAN_POINT('',(113.077690156792,-20.000000372529,30.));
#1255=CARTESIAN_POINT('',(118.658325975899,-20.0000003725288,6.125));
#1256=CARTESIAN_POINT('',(118.658325975899,-20.0000003725288,18.5625));
#1257=CARTESIAN_POINT('',(99.0776901567922,-20.000000372529,6.125));
#1258=CARTESIAN_POINT('Origin',(113.077690156792,-20.000000372529,30.));
#1259=CARTESIAN_POINT('',(113.077690156792,-20.000000372529,30.));
#1260=CARTESIAN_POINT('Origin',(125.077690156792,13.3990726152949,6.125));
#1261=CARTESIAN_POINT('',(116.179718272874,-25.000000372529,6.125));
#1262=CARTESIAN_POINT('',(129.146467345475,1.15732387199772,6.125));
#1263=CARTESIAN_POINT('',(108.077690156792,-25.0000002287814,6.125));
#1264=CARTESIAN_POINT('',(120.628704214833,-25.000000372529,6.125));
#1265=CARTESIAN_POINT('',(108.077690156792,13.3990726152949,6.125));
#1266=CARTESIAN_POINT('Origin',(108.077690156792,13.3990726152949,6.125));
#1267=CARTESIAN_POINT('',(108.077690156792,-25.0000002105599,5.));
#1268=CARTESIAN_POINT('',(108.077690156792,-25.000000372529,18.0625));
#1269=CARTESIAN_POINT('',(108.077690156792,3.79930436833891,5.));
#1270=CARTESIAN_POINT('Origin',(78.0776901567922,13.3990726152949,5.00000007450581));
#1271=CARTESIAN_POINT('',(78.0776901567922,-25.0000002105599,5.00000007450581));
#1272=CARTESIAN_POINT('',(78.0776901567922,3.79930436833891,5.));
#1273=CARTESIAN_POINT('',(78.0776901567922,-25.000000372529,17.5000000372529));
#1274=CARTESIAN_POINT('Origin',(61.0776901567923,13.3990726152949,30.));
#1275=CARTESIAN_POINT('',(73.0776901567923,13.3990726152949,30.));
#1276=CARTESIAN_POINT('',(73.0776901567923,13.3990726152949,30.));
#1277=CARTESIAN_POINT('',(73.0776901567923,13.3990726152949,30.));
#1278=CARTESIAN_POINT('',(70.9776901567921,13.3990726152949,13.25));
#1279=CARTESIAN_POINT('Origin',(68.7776901567921,13.3990726152949,13.25));
#1280=CARTESIAN_POINT('',(70.9776901567921,13.3990726152949,23.25));
#1281=CARTESIAN_POINT('Origin',(68.7776901567921,13.3990726152949,23.25));
#1282=CARTESIAN_POINT('Origin',(93.0776901567922,-5.80046387861707,5.));
#1283=CARTESIAN_POINT('',(93.0776901567922,-25.000000372529,5.00000000000001));
#1284=CARTESIAN_POINT('Origin',(117.377690156792,13.3990726152949,13.25));
#1285=CARTESIAN_POINT('',(119.577690156792,13.3990726152949,13.25));
#1286=CARTESIAN_POINT('Origin',(117.377690156792,13.3990726152949,13.25));
#1287=CARTESIAN_POINT('',(119.577690156792,13.3990726152949,13.25));
#1288=CARTESIAN_POINT('Origin',(68.7776901567921,13.3990726152949,23.25));
#1289=CARTESIAN_POINT('',(70.9776901567921,8.3990726152949,23.25));
#1290=CARTESIAN_POINT('',(70.9776901567921,13.3990726152949,23.25));
#1291=CARTESIAN_POINT('Origin',(68.7776901567921,8.39907261529489,23.25));
#1292=CARTESIAN_POINT('Origin',(117.377690156792,13.3990726152949,23.25));
#1293=CARTESIAN_POINT('',(119.577690156792,13.3990726152949,23.25));
#1294=CARTESIAN_POINT('Origin',(117.377690156792,13.3990726152949,23.25));
#1295=CARTESIAN_POINT('',(119.577690156792,13.3990726152949,23.25));
#1296=CARTESIAN_POINT('Origin',(68.7776901567921,13.3990726152949,13.25));
#1297=CARTESIAN_POINT('',(70.9776901567921,8.3990726152949,13.25));
#1298=CARTESIAN_POINT('',(70.9776901567921,13.3990726152949,13.25));
#1299=CARTESIAN_POINT('Origin',(68.7776901567921,8.39907261529489,13.25));
#1300=CARTESIAN_POINT('Origin',(116.179718272874,-25.000000372529,30.));
#1301=CARTESIAN_POINT('',(116.179718272874,-25.000000372529,30.));
#1302=CARTESIAN_POINT('',(116.179718272874,-25.000000372529,30.));
#1303=CARTESIAN_POINT('',(93.0776901567922,-25.000000372529,30.));
#1304=CARTESIAN_POINT('Origin',(125.077690156792,-7.05046387859506,30.));
#1305=CARTESIAN_POINT('',(125.077690156792,-7.05046387859506,30.));
#1306=CARTESIAN_POINT('',(125.077690156792,-7.05046387859506,30.));
#1307=CARTESIAN_POINT('',(118.658325975899,-20.000000372529,30.));
#1308=CARTESIAN_POINT('Origin',(125.077690156792,13.3990726152949,30.));
#1309=CARTESIAN_POINT('',(125.077690156792,13.3990726152949,30.));
#1310=CARTESIAN_POINT('',(125.077690156792,13.3990726152949,30.));
#1311=CARTESIAN_POINT('',(125.077690156792,-7.05046387859506,30.));
#1312=CARTESIAN_POINT('Origin',(113.077690156792,13.3990726152949,30.));
#1313=CARTESIAN_POINT('',(113.077690156792,13.3990726152949,30.));
#1314=CARTESIAN_POINT('',(113.077690156792,13.3990726152949,30.));
#1315=CARTESIAN_POINT('',(113.077690156792,13.3990726152949,30.));
#1316=CARTESIAN_POINT('Origin',(113.077690156792,8.39907261529489,30.));
#1317=CARTESIAN_POINT('',(113.077690156792,8.39907261529489,30.));
#1318=CARTESIAN_POINT('Origin',(66.0776901567922,-5.87916957010511,30.));
#1319=CARTESIAN_POINT('',(66.0776901567922,-5.87916957010511,30.));
#1320=CARTESIAN_POINT('',(66.0776901567922,-5.87916957010511,30.));
#1321=CARTESIAN_POINT('',(73.0776901567922,-20.000000372529,30.));
#1322=CARTESIAN_POINT('Origin',(66.0776901567923,8.39907261529489,30.));
#1323=CARTESIAN_POINT('',(66.0776901567923,8.39907261529489,30.));
#1324=CARTESIAN_POINT('',(66.0776901567923,8.39907261529489,30.));
#1325=CARTESIAN_POINT('',(66.0776901567922,-5.87916957010511,30.));
#1326=CARTESIAN_POINT('Origin',(73.0776901567923,8.39907261529489,30.));
#1327=CARTESIAN_POINT('',(73.0776901567923,8.39907261529489,30.));
#1328=CARTESIAN_POINT('',(73.0776901567923,8.39907261529489,30.));
#1329=CARTESIAN_POINT('',(66.0776901567923,8.39907261529489,30.));
#1330=CARTESIAN_POINT('Origin',(73.0776901567923,13.3990726152949,30.));
#1331=CARTESIAN_POINT('',(73.0776901567923,8.39907261529489,30.));
#1332=CARTESIAN_POINT('Origin',(93.0776901567922,-5.80046387861707,30.));
#1333=UNCERTAINTY_MEASURE_WITH_UNIT(LENGTH_MEASURE(0.01),#1337,
'DISTANCE_ACCURACY_VALUE',
'Maximum model space distance between geometric entities at asserted c
onnectivities');
#1334=UNCERTAINTY_MEASURE_WITH_UNIT(LENGTH_MEASURE(0.01),#1337,
'DISTANCE_ACCURACY_VALUE',
'Maximum model space distance between geometric entities at asserted c
onnectivities');
#1335=(
GEOMETRIC_REPRESENTATION_CONTEXT(3)
GLOBAL_UNCERTAINTY_ASSIGNED_CONTEXT((#1333))
GLOBAL_UNIT_ASSIGNED_CONTEXT((#1337,#1338,#1339))
REPRESENTATION_CONTEXT('','3D')
);
#1336=(
GEOMETRIC_REPRESENTATION_CONTEXT(3)
GLOBAL_UNCERTAINTY_ASSIGNED_CONTEXT((#1334))
GLOBAL_UNIT_ASSIGNED_CONTEXT((#1337,#1338,#1339))
REPRESENTATION_CONTEXT('','3D')
);
#1337=(
LENGTH_UNIT()
NAMED_UNIT(*)
SI_UNIT(.MILLI.,.METRE.)
);
#1338=(
NAMED_UNIT(*)
PLANE_ANGLE_UNIT()
SI_UNIT($,.RADIAN.)
);
#1339=(
NAMED_UNIT(*)
SI_UNIT($,.STERADIAN.)
SOLID_ANGLE_UNIT()
);
#1340=SHAPE_DEFINITION_REPRESENTATION(#1341,#1342);
#1341=PRODUCT_DEFINITION_SHAPE('',$,#1344);
#1342=SHAPE_REPRESENTATION('',(#841),#1335);
#1343=PRODUCT_DEFINITION_CONTEXT('part definition',#1348,'design');
#1344=PRODUCT_DEFINITION('steering servo mount',
'steering servo mount v4',#1345,#1343);
#1345=PRODUCT_DEFINITION_FORMATION('',$,#1350);
#1346=PRODUCT_RELATED_PRODUCT_CATEGORY('steering servo mount v4',
'steering servo mount v4',(#1350));
#1347=APPLICATION_PROTOCOL_DEFINITION('international standard',
'automotive_design',2009,#1348);
#1348=APPLICATION_CONTEXT(
'Core Data for Automotive Mechanical Design Process');
#1349=PRODUCT_CONTEXT('part definition',#1348,'mechanical');
#1350=PRODUCT('steering servo mount','steering servo mount v4',$,(#1349));
#1351=PRESENTATION_STYLE_ASSIGNMENT((#1352));
#1352=SURFACE_STYLE_USAGE(.BOTH.,#1353);
#1353=SURFACE_SIDE_STYLE('',(#1354));
#1354=SURFACE_STYLE_FILL_AREA(#1355);
#1355=FILL_AREA_STYLE('Steel - Satin',(#1356));
#1356=FILL_AREA_STYLE_COLOUR('Steel - Satin',#1357);
#1357=COLOUR_RGB('Steel - Satin',0.627450980392157,0.627450980392157,0.627450980392157);
ENDSEC;
END-ISO-10303-21;
