ISO-10303-21;
HEADER;
/* Generated by software containing ST-Developer
 * from STEP Tools, Inc. (www.steptools.com) 
 */

FILE_DESCRIPTION(
/* description */ (''),
/* implementation_level */ '2;1');

FILE_NAME(
/* name */ 'v3 v3.step',
/* time_stamp */ '2025-06-01T15:34:46-07:00',
/* author */ (''),
/* organization */ (''),
/* preprocessor_version */ 'ST-DEVELOPER v20.1',
/* originating_system */ 'Autodesk Translation Framework v14.10.0.0',
/* authorisation */ '');

FILE_SCHEMA (('AUTOMOTIVE_DESIGN { 1 0 10303 214 3 1 1 }'));
ENDSEC;

DATA;
#10=MECHANICAL_DESIGN_GEOMETRIC_PRESENTATION_REPRESENTATION('',(#13),#1535);
#11=SHAPE_REPRESENTATION_RELATIONSHIP('SRR','None',#1542,#12);
#12=ADVANCED_BREP_SHAPE_REPRESENTATION('',(#14),#1534);
#13=STYLED_ITEM('',(#1551),#14);
#14=MANIFOLD_SOLID_BREP('Body1',#909);
#15=FACE_BOUND('',#140,.T.);
#16=FACE_BOUND('',#141,.T.);
#17=FACE_BOUND('',#142,.T.);
#18=FACE_BOUND('',#143,.T.);
#19=FACE_BOUND('',#152,.T.);
#20=FACE_BOUND('',#154,.T.);
#21=FACE_BOUND('',#155,.T.);
#22=FACE_BOUND('',#156,.T.);
#23=FACE_BOUND('',#157,.T.);
#24=FACE_BOUND('',#183,.T.);
#25=FACE_BOUND('',#185,.T.);
#26=FACE_BOUND('',#188,.T.);
#27=FACE_BOUND('',#190,.T.);
#28=FACE_BOUND('',#191,.T.);
#29=FACE_BOUND('',#192,.T.);
#30=FACE_BOUND('',#193,.T.);
#31=FACE_BOUND('',#194,.T.);
#32=FACE_BOUND('',#195,.T.);
#33=FACE_BOUND('',#196,.T.);
#34=FACE_BOUND('',#197,.T.);
#35=FACE_BOUND('',#198,.T.);
#36=FACE_BOUND('',#199,.T.);
#37=FACE_BOUND('',#200,.T.);
#38=FACE_BOUND('',#201,.T.);
#39=PLANE('',#935);
#40=PLANE('',#936);
#41=PLANE('',#937);
#42=PLANE('',#938);
#43=PLANE('',#939);
#44=PLANE('',#940);
#45=PLANE('',#941);
#46=PLANE('',#942);
#47=PLANE('',#943);
#48=PLANE('',#944);
#49=PLANE('',#945);
#50=PLANE('',#946);
#51=PLANE('',#947);
#52=PLANE('',#948);
#53=PLANE('',#949);
#54=PLANE('',#950);
#55=PLANE('',#953);
#56=PLANE('',#959);
#57=PLANE('',#963);
#58=PLANE('',#964);
#59=PLANE('',#968);
#60=PLANE('',#972);
#61=PLANE('',#976);
#62=PLANE('',#980);
#63=PLANE('',#984);
#64=PLANE('',#988);
#65=PLANE('',#992);
#66=PLANE('',#996);
#67=PLANE('',#1002);
#68=PLANE('',#1003);
#69=PLANE('',#1004);
#70=PLANE('',#1005);
#71=PLANE('',#1006);
#72=PLANE('',#1011);
#73=PLANE('',#1014);
#74=FACE_OUTER_BOUND('',#128,.T.);
#75=FACE_OUTER_BOUND('',#129,.T.);
#76=FACE_OUTER_BOUND('',#130,.T.);
#77=FACE_OUTER_BOUND('',#131,.T.);
#78=FACE_OUTER_BOUND('',#132,.T.);
#79=FACE_OUTER_BOUND('',#133,.T.);
#80=FACE_OUTER_BOUND('',#134,.T.);
#81=FACE_OUTER_BOUND('',#135,.T.);
#82=FACE_OUTER_BOUND('',#136,.T.);
#83=FACE_OUTER_BOUND('',#137,.T.);
#84=FACE_OUTER_BOUND('',#138,.T.);
#85=FACE_OUTER_BOUND('',#139,.T.);
#86=FACE_OUTER_BOUND('',#144,.T.);
#87=FACE_OUTER_BOUND('',#145,.T.);
#88=FACE_OUTER_BOUND('',#146,.T.);
#89=FACE_OUTER_BOUND('',#147,.T.);
#90=FACE_OUTER_BOUND('',#148,.T.);
#91=FACE_OUTER_BOUND('',#149,.T.);
#92=FACE_OUTER_BOUND('',#150,.T.);
#93=FACE_OUTER_BOUND('',#151,.T.);
#94=FACE_OUTER_BOUND('',#153,.T.);
#95=FACE_OUTER_BOUND('',#158,.T.);
#96=FACE_OUTER_BOUND('',#159,.T.);
#97=FACE_OUTER_BOUND('',#160,.T.);
#98=FACE_OUTER_BOUND('',#161,.T.);
#99=FACE_OUTER_BOUND('',#162,.T.);
#100=FACE_OUTER_BOUND('',#163,.T.);
#101=FACE_OUTER_BOUND('',#164,.T.);
#102=FACE_OUTER_BOUND('',#165,.T.);
#103=FACE_OUTER_BOUND('',#166,.T.);
#104=FACE_OUTER_BOUND('',#167,.T.);
#105=FACE_OUTER_BOUND('',#168,.T.);
#106=FACE_OUTER_BOUND('',#169,.T.);
#107=FACE_OUTER_BOUND('',#170,.T.);
#108=FACE_OUTER_BOUND('',#171,.T.);
#109=FACE_OUTER_BOUND('',#172,.T.);
#110=FACE_OUTER_BOUND('',#173,.T.);
#111=FACE_OUTER_BOUND('',#174,.T.);
#112=FACE_OUTER_BOUND('',#175,.T.);
#113=FACE_OUTER_BOUND('',#176,.T.);
#114=FACE_OUTER_BOUND('',#177,.T.);
#115=FACE_OUTER_BOUND('',#178,.T.);
#116=FACE_OUTER_BOUND('',#179,.T.);
#117=FACE_OUTER_BOUND('',#180,.T.);
#118=FACE_OUTER_BOUND('',#181,.T.);
#119=FACE_OUTER_BOUND('',#182,.T.);
#120=FACE_OUTER_BOUND('',#184,.T.);
#121=FACE_OUTER_BOUND('',#186,.T.);
#122=FACE_OUTER_BOUND('',#187,.T.);
#123=FACE_OUTER_BOUND('',#189,.T.);
#124=FACE_OUTER_BOUND('',#202,.T.);
#125=FACE_OUTER_BOUND('',#203,.T.);
#126=FACE_OUTER_BOUND('',#204,.T.);
#127=FACE_OUTER_BOUND('',#205,.T.);
#128=EDGE_LOOP('',(#600,#601,#602,#603));
#129=EDGE_LOOP('',(#604,#605,#606,#607));
#130=EDGE_LOOP('',(#608,#609,#610,#611));
#131=EDGE_LOOP('',(#612,#613,#614,#615));
#132=EDGE_LOOP('',(#616,#617,#618,#619));
#133=EDGE_LOOP('',(#620,#621,#622,#623));
#134=EDGE_LOOP('',(#624,#625,#626,#627));
#135=EDGE_LOOP('',(#628,#629,#630,#631,#632,#633,#634,#635,#636,#637,#638,
#639,#640));
#136=EDGE_LOOP('',(#641,#642,#643,#644));
#137=EDGE_LOOP('',(#645,#646,#647,#648));
#138=EDGE_LOOP('',(#649,#650,#651,#652));
#139=EDGE_LOOP('',(#653,#654,#655,#656,#657,#658,#659,#660));
#140=EDGE_LOOP('',(#661));
#141=EDGE_LOOP('',(#662));
#142=EDGE_LOOP('',(#663));
#143=EDGE_LOOP('',(#664));
#144=EDGE_LOOP('',(#665,#666,#667,#668));
#145=EDGE_LOOP('',(#669,#670,#671,#672));
#146=EDGE_LOOP('',(#673,#674,#675,#676));
#147=EDGE_LOOP('',(#677,#678,#679,#680));
#148=EDGE_LOOP('',(#681,#682,#683,#684));
#149=EDGE_LOOP('',(#685,#686,#687,#688));
#150=EDGE_LOOP('',(#689,#690,#691,#692));
#151=EDGE_LOOP('',(#693,#694,#695,#696,#697,#698,#699,#700,#701,#702));
#152=EDGE_LOOP('',(#703));
#153=EDGE_LOOP('',(#704,#705,#706,#707));
#154=EDGE_LOOP('',(#708));
#155=EDGE_LOOP('',(#709));
#156=EDGE_LOOP('',(#710));
#157=EDGE_LOOP('',(#711));
#158=EDGE_LOOP('',(#712,#713,#714,#715));
#159=EDGE_LOOP('',(#716,#717,#718,#719));
#160=EDGE_LOOP('',(#720));
#161=EDGE_LOOP('',(#721,#722,#723,#724));
#162=EDGE_LOOP('',(#725));
#163=EDGE_LOOP('',(#726,#727,#728,#729,#730,#731,#732,#733,#734,#735,#736,
#737,#738));
#164=EDGE_LOOP('',(#739,#740,#741,#742));
#165=EDGE_LOOP('',(#743));
#166=EDGE_LOOP('',(#744,#745,#746,#747));
#167=EDGE_LOOP('',(#748));
#168=EDGE_LOOP('',(#749,#750,#751,#752));
#169=EDGE_LOOP('',(#753));
#170=EDGE_LOOP('',(#754,#755,#756,#757));
#171=EDGE_LOOP('',(#758));
#172=EDGE_LOOP('',(#759,#760,#761,#762));
#173=EDGE_LOOP('',(#763));
#174=EDGE_LOOP('',(#764,#765,#766,#767));
#175=EDGE_LOOP('',(#768));
#176=EDGE_LOOP('',(#769,#770,#771,#772));
#177=EDGE_LOOP('',(#773));
#178=EDGE_LOOP('',(#774,#775,#776,#777));
#179=EDGE_LOOP('',(#778));
#180=EDGE_LOOP('',(#779,#780,#781,#782));
#181=EDGE_LOOP('',(#783,#784,#785,#786));
#182=EDGE_LOOP('',(#787,#788,#789,#790));
#183=EDGE_LOOP('',(#791));
#184=EDGE_LOOP('',(#792,#793,#794,#795));
#185=EDGE_LOOP('',(#796));
#186=EDGE_LOOP('',(#797,#798,#799,#800));
#187=EDGE_LOOP('',(#801,#802,#803,#804,#805,#806,#807,#808));
#188=EDGE_LOOP('',(#809));
#189=EDGE_LOOP('',(#810,#811,#812,#813));
#190=EDGE_LOOP('',(#814));
#191=EDGE_LOOP('',(#815));
#192=EDGE_LOOP('',(#816));
#193=EDGE_LOOP('',(#817));
#194=EDGE_LOOP('',(#818));
#195=EDGE_LOOP('',(#819));
#196=EDGE_LOOP('',(#820));
#197=EDGE_LOOP('',(#821));
#198=EDGE_LOOP('',(#822));
#199=EDGE_LOOP('',(#823));
#200=EDGE_LOOP('',(#824));
#201=EDGE_LOOP('',(#825));
#202=EDGE_LOOP('',(#826,#827,#828,#829));
#203=EDGE_LOOP('',(#830));
#204=EDGE_LOOP('',(#831,#832,#833,#834));
#205=EDGE_LOOP('',(#835));
#206=LINE('',#1286,#286);
#207=LINE('',#1292,#287);
#208=LINE('',#1298,#288);
#209=LINE('',#1304,#289);
#210=LINE('',#1309,#290);
#211=LINE('',#1311,#291);
#212=LINE('',#1313,#292);
#213=LINE('',#1314,#293);
#214=LINE('',#1318,#294);
#215=LINE('',#1320,#295);
#216=LINE('',#1322,#296);
#217=LINE('',#1323,#297);
#218=LINE('',#1326,#298);
#219=LINE('',#1328,#299);
#220=LINE('',#1329,#300);
#221=LINE('',#1332,#301);
#222=LINE('',#1334,#302);
#223=LINE('',#1336,#303);
#224=LINE('',#1338,#304);
#225=LINE('',#1340,#305);
#226=LINE('',#1342,#306);
#227=LINE('',#1344,#307);
#228=LINE('',#1346,#308);
#229=LINE('',#1348,#309);
#230=LINE('',#1350,#310);
#231=LINE('',#1352,#311);
#232=LINE('',#1353,#312);
#233=LINE('',#1356,#313);
#234=LINE('',#1358,#314);
#235=LINE('',#1359,#315);
#236=LINE('',#1362,#316);
#237=LINE('',#1363,#317);
#238=LINE('',#1365,#318);
#239=LINE('',#1366,#319);
#240=LINE('',#1369,#320);
#241=LINE('',#1370,#321);
#242=LINE('',#1372,#322);
#243=LINE('',#1375,#323);
#244=LINE('',#1376,#324);
#245=LINE('',#1379,#325);
#246=LINE('',#1381,#326);
#247=LINE('',#1382,#327);
#248=LINE('',#1386,#328);
#249=LINE('',#1388,#329);
#250=LINE('',#1390,#330);
#251=LINE('',#1391,#331);
#252=LINE('',#1395,#332);
#253=LINE('',#1396,#333);
#254=LINE('',#1397,#334);
#255=LINE('',#1400,#335);
#256=LINE('',#1402,#336);
#257=LINE('',#1403,#337);
#258=LINE('',#1406,#338);
#259=LINE('',#1408,#339);
#260=LINE('',#1409,#340);
#261=LINE('',#1412,#341);
#262=LINE('',#1417,#342);
#263=LINE('',#1418,#343);
#264=LINE('',#1425,#344);
#265=LINE('',#1432,#345);
#266=LINE('',#1437,#346);
#267=LINE('',#1439,#347);
#268=LINE('',#1440,#348);
#269=LINE('',#1442,#349);
#270=LINE('',#1443,#350);
#271=LINE('',#1448,#351);
#272=LINE('',#1455,#352);
#273=LINE('',#1462,#353);
#274=LINE('',#1469,#354);
#275=LINE('',#1476,#355);
#276=LINE('',#1483,#356);
#277=LINE('',#1490,#357);
#278=LINE('',#1497,#358);
#279=LINE('',#1503,#359);
#280=LINE('',#1508,#360);
#281=LINE('',#1511,#361);
#282=LINE('',#1513,#362);
#283=LINE('',#1515,#363);
#284=LINE('',#1525,#364);
#285=LINE('',#1530,#365);
#286=VECTOR('',#1021,1.5);
#287=VECTOR('',#1028,1.5);
#288=VECTOR('',#1035,1.5);
#289=VECTOR('',#1042,1.44568250057417);
#290=VECTOR('',#1047,10.);
#291=VECTOR('',#1048,10.);
#292=VECTOR('',#1049,10.);
#293=VECTOR('',#1050,10.);
#294=VECTOR('',#1053,10.);
#295=VECTOR('',#1054,10.);
#296=VECTOR('',#1055,10.);
#297=VECTOR('',#1056,10.);
#298=VECTOR('',#1059,10.);
#299=VECTOR('',#1060,10.);
#300=VECTOR('',#1061,10.);
#301=VECTOR('',#1064,10.);
#302=VECTOR('',#1065,10.);
#303=VECTOR('',#1066,10.);
#304=VECTOR('',#1067,10.);
#305=VECTOR('',#1068,10.);
#306=VECTOR('',#1069,10.);
#307=VECTOR('',#1070,10.);
#308=VECTOR('',#1071,10.);
#309=VECTOR('',#1072,10.);
#310=VECTOR('',#1073,10.);
#311=VECTOR('',#1074,10.);
#312=VECTOR('',#1075,10.);
#313=VECTOR('',#1078,10.);
#314=VECTOR('',#1079,10.);
#315=VECTOR('',#1080,10.);
#316=VECTOR('',#1083,10.);
#317=VECTOR('',#1084,10.);
#318=VECTOR('',#1087,10.);
#319=VECTOR('',#1088,10.);
#320=VECTOR('',#1091,10.);
#321=VECTOR('',#1092,10.);
#322=VECTOR('',#1095,10.);
#323=VECTOR('',#1098,10.);
#324=VECTOR('',#1099,10.);
#325=VECTOR('',#1102,10.);
#326=VECTOR('',#1103,10.);
#327=VECTOR('',#1104,10.);
#328=VECTOR('',#1107,10.);
#329=VECTOR('',#1108,10.);
#330=VECTOR('',#1109,10.);
#331=VECTOR('',#1110,10.);
#332=VECTOR('',#1113,10.);
#333=VECTOR('',#1114,10.);
#334=VECTOR('',#1115,10.);
#335=VECTOR('',#1118,10.);
#336=VECTOR('',#1119,10.);
#337=VECTOR('',#1120,10.);
#338=VECTOR('',#1123,10.);
#339=VECTOR('',#1124,10.);
#340=VECTOR('',#1125,10.);
#341=VECTOR('',#1130,10.);
#342=VECTOR('',#1135,10.);
#343=VECTOR('',#1136,10.);
#344=VECTOR('',#1145,3.25);
#345=VECTOR('',#1154,3.25);
#346=VECTOR('',#1161,10.);
#347=VECTOR('',#1162,10.);
#348=VECTOR('',#1163,10.);
#349=VECTOR('',#1164,10.);
#350=VECTOR('',#1165,10.);
#351=VECTOR('',#1170,3.24999999999999);
#352=VECTOR('',#1179,3.25);
#353=VECTOR('',#1188,3.25);
#354=VECTOR('',#1197,3.25);
#355=VECTOR('',#1206,3.25);
#356=VECTOR('',#1215,3.25);
#357=VECTOR('',#1224,3.25);
#358=VECTOR('',#1233,3.25);
#359=VECTOR('',#1242,5.);
#360=VECTOR('',#1247,5.);
#361=VECTOR('',#1252,10.);
#362=VECTOR('',#1255,10.);
#363=VECTOR('',#1258,10.);
#364=VECTOR('',#1271,3.25);
#365=VECTOR('',#1278,3.25);
#366=CIRCLE('',#924,1.5);
#367=CIRCLE('',#925,1.5);
#368=CIRCLE('',#927,1.5);
#369=CIRCLE('',#928,1.5);
#370=CIRCLE('',#930,1.5);
#371=CIRCLE('',#931,1.5);
#372=CIRCLE('',#933,1.44568250057417);
#373=CIRCLE('',#934,1.44568250057417);
#374=CIRCLE('',#951,2.5);
#375=CIRCLE('',#952,5.);
#376=CIRCLE('',#955,2.5);
#377=CIRCLE('',#957,3.25);
#378=CIRCLE('',#958,3.25);
#379=CIRCLE('',#961,3.25);
#380=CIRCLE('',#962,3.25);
#381=CIRCLE('',#966,3.24999999999999);
#382=CIRCLE('',#967,3.24999999999999);
#383=CIRCLE('',#970,3.25);
#384=CIRCLE('',#971,3.25);
#385=CIRCLE('',#974,3.25);
#386=CIRCLE('',#975,3.25);
#387=CIRCLE('',#978,3.25);
#388=CIRCLE('',#979,3.25);
#389=CIRCLE('',#982,3.25);
#390=CIRCLE('',#983,3.25);
#391=CIRCLE('',#986,3.25);
#392=CIRCLE('',#987,3.25);
#393=CIRCLE('',#990,3.25);
#394=CIRCLE('',#991,3.25);
#395=CIRCLE('',#994,3.25);
#396=CIRCLE('',#995,3.25);
#397=CIRCLE('',#998,5.);
#398=CIRCLE('',#1000,5.);
#399=CIRCLE('',#1001,5.);
#400=CIRCLE('',#1007,3.25);
#401=CIRCLE('',#1008,3.25);
#402=CIRCLE('',#1010,3.25);
#403=CIRCLE('',#1013,3.25);
#404=VERTEX_POINT('',#1283);
#405=VERTEX_POINT('',#1285);
#406=VERTEX_POINT('',#1289);
#407=VERTEX_POINT('',#1291);
#408=VERTEX_POINT('',#1295);
#409=VERTEX_POINT('',#1297);
#410=VERTEX_POINT('',#1301);
#411=VERTEX_POINT('',#1303);
#412=VERTEX_POINT('',#1307);
#413=VERTEX_POINT('',#1308);
#414=VERTEX_POINT('',#1310);
#415=VERTEX_POINT('',#1312);
#416=VERTEX_POINT('',#1316);
#417=VERTEX_POINT('',#1317);
#418=VERTEX_POINT('',#1319);
#419=VERTEX_POINT('',#1321);
#420=VERTEX_POINT('',#1325);
#421=VERTEX_POINT('',#1327);
#422=VERTEX_POINT('',#1331);
#423=VERTEX_POINT('',#1333);
#424=VERTEX_POINT('',#1335);
#425=VERTEX_POINT('',#1337);
#426=VERTEX_POINT('',#1339);
#427=VERTEX_POINT('',#1341);
#428=VERTEX_POINT('',#1343);
#429=VERTEX_POINT('',#1345);
#430=VERTEX_POINT('',#1347);
#431=VERTEX_POINT('',#1349);
#432=VERTEX_POINT('',#1351);
#433=VERTEX_POINT('',#1355);
#434=VERTEX_POINT('',#1357);
#435=VERTEX_POINT('',#1361);
#436=VERTEX_POINT('',#1368);
#437=VERTEX_POINT('',#1374);
#438=VERTEX_POINT('',#1378);
#439=VERTEX_POINT('',#1380);
#440=VERTEX_POINT('',#1384);
#441=VERTEX_POINT('',#1385);
#442=VERTEX_POINT('',#1387);
#443=VERTEX_POINT('',#1389);
#444=VERTEX_POINT('',#1393);
#445=VERTEX_POINT('',#1394);
#446=VERTEX_POINT('',#1399);
#447=VERTEX_POINT('',#1401);
#448=VERTEX_POINT('',#1405);
#449=VERTEX_POINT('',#1407);
#450=VERTEX_POINT('',#1413);
#451=VERTEX_POINT('',#1416);
#452=VERTEX_POINT('',#1422);
#453=VERTEX_POINT('',#1424);
#454=VERTEX_POINT('',#1429);
#455=VERTEX_POINT('',#1431);
#456=VERTEX_POINT('',#1436);
#457=VERTEX_POINT('',#1438);
#458=VERTEX_POINT('',#1441);
#459=VERTEX_POINT('',#1445);
#460=VERTEX_POINT('',#1447);
#461=VERTEX_POINT('',#1452);
#462=VERTEX_POINT('',#1454);
#463=VERTEX_POINT('',#1459);
#464=VERTEX_POINT('',#1461);
#465=VERTEX_POINT('',#1466);
#466=VERTEX_POINT('',#1468);
#467=VERTEX_POINT('',#1473);
#468=VERTEX_POINT('',#1475);
#469=VERTEX_POINT('',#1480);
#470=VERTEX_POINT('',#1482);
#471=VERTEX_POINT('',#1487);
#472=VERTEX_POINT('',#1489);
#473=VERTEX_POINT('',#1494);
#474=VERTEX_POINT('',#1496);
#475=VERTEX_POINT('',#1501);
#476=VERTEX_POINT('',#1505);
#477=VERTEX_POINT('',#1507);
#478=VERTEX_POINT('',#1518);
#479=VERTEX_POINT('',#1520);
#480=VERTEX_POINT('',#1523);
#481=VERTEX_POINT('',#1528);
#482=EDGE_CURVE('',#404,#404,#366,.T.);
#483=EDGE_CURVE('',#404,#405,#206,.T.);
#484=EDGE_CURVE('',#405,#405,#367,.T.);
#485=EDGE_CURVE('',#406,#406,#368,.T.);
#486=EDGE_CURVE('',#406,#407,#207,.T.);
#487=EDGE_CURVE('',#407,#407,#369,.T.);
#488=EDGE_CURVE('',#408,#408,#370,.T.);
#489=EDGE_CURVE('',#408,#409,#208,.T.);
#490=EDGE_CURVE('',#409,#409,#371,.T.);
#491=EDGE_CURVE('',#410,#410,#372,.T.);
#492=EDGE_CURVE('',#410,#411,#209,.T.);
#493=EDGE_CURVE('',#411,#411,#373,.T.);
#494=EDGE_CURVE('',#412,#413,#210,.T.);
#495=EDGE_CURVE('',#414,#412,#211,.T.);
#496=EDGE_CURVE('',#415,#414,#212,.T.);
#497=EDGE_CURVE('',#413,#415,#213,.T.);
#498=EDGE_CURVE('',#416,#417,#214,.T.);
#499=EDGE_CURVE('',#418,#416,#215,.T.);
#500=EDGE_CURVE('',#419,#418,#216,.T.);
#501=EDGE_CURVE('',#417,#419,#217,.T.);
#502=EDGE_CURVE('',#420,#415,#218,.T.);
#503=EDGE_CURVE('',#421,#420,#219,.T.);
#504=EDGE_CURVE('',#413,#421,#220,.T.);
#505=EDGE_CURVE('',#419,#422,#221,.T.);
#506=EDGE_CURVE('',#422,#423,#222,.T.);
#507=EDGE_CURVE('',#424,#423,#223,.T.);
#508=EDGE_CURVE('',#425,#424,#224,.T.);
#509=EDGE_CURVE('',#425,#426,#225,.T.);
#510=EDGE_CURVE('',#427,#426,#226,.T.);
#511=EDGE_CURVE('',#428,#427,#227,.T.);
#512=EDGE_CURVE('',#429,#428,#228,.T.);
#513=EDGE_CURVE('',#429,#430,#229,.T.);
#514=EDGE_CURVE('',#431,#430,#230,.T.);
#515=EDGE_CURVE('',#432,#431,#231,.T.);
#516=EDGE_CURVE('',#417,#432,#232,.T.);
#517=EDGE_CURVE('',#416,#433,#233,.T.);
#518=EDGE_CURVE('',#434,#433,#234,.T.);
#519=EDGE_CURVE('',#418,#434,#235,.T.);
#520=EDGE_CURVE('',#421,#435,#236,.T.);
#521=EDGE_CURVE('',#412,#435,#237,.T.);
#522=EDGE_CURVE('',#420,#434,#238,.T.);
#523=EDGE_CURVE('',#433,#421,#239,.T.);
#524=EDGE_CURVE('',#436,#414,#240,.T.);
#525=EDGE_CURVE('',#436,#422,#241,.T.);
#526=EDGE_CURVE('',#432,#433,#242,.T.);
#527=EDGE_CURVE('',#437,#436,#243,.T.);
#528=EDGE_CURVE('',#423,#437,#244,.T.);
#529=EDGE_CURVE('',#426,#438,#245,.T.);
#530=EDGE_CURVE('',#438,#439,#246,.T.);
#531=EDGE_CURVE('',#439,#427,#247,.T.);
#532=EDGE_CURVE('',#440,#441,#248,.T.);
#533=EDGE_CURVE('',#441,#442,#249,.T.);
#534=EDGE_CURVE('',#442,#443,#250,.T.);
#535=EDGE_CURVE('',#443,#440,#251,.T.);
#536=EDGE_CURVE('',#444,#445,#252,.T.);
#537=EDGE_CURVE('',#445,#431,#253,.T.);
#538=EDGE_CURVE('',#430,#444,#254,.T.);
#539=EDGE_CURVE('',#446,#440,#255,.T.);
#540=EDGE_CURVE('',#447,#446,#256,.T.);
#541=EDGE_CURVE('',#441,#447,#257,.T.);
#542=EDGE_CURVE('',#445,#448,#258,.T.);
#543=EDGE_CURVE('',#449,#444,#259,.T.);
#544=EDGE_CURVE('',#448,#449,#260,.T.);
#545=EDGE_CURVE('',#448,#446,#374,.T.);
#546=EDGE_CURVE('',#435,#443,#261,.T.);
#547=EDGE_CURVE('',#450,#450,#375,.T.);
#548=EDGE_CURVE('',#451,#437,#262,.T.);
#549=EDGE_CURVE('',#451,#424,#263,.T.);
#550=EDGE_CURVE('',#447,#449,#376,.T.);
#551=EDGE_CURVE('',#452,#452,#377,.T.);
#552=EDGE_CURVE('',#452,#453,#264,.T.);
#553=EDGE_CURVE('',#453,#453,#378,.T.);
#554=EDGE_CURVE('',#454,#454,#379,.T.);
#555=EDGE_CURVE('',#454,#455,#265,.T.);
#556=EDGE_CURVE('',#455,#455,#380,.T.);
#557=EDGE_CURVE('',#456,#442,#266,.T.);
#558=EDGE_CURVE('',#457,#456,#267,.T.);
#559=EDGE_CURVE('',#457,#439,#268,.T.);
#560=EDGE_CURVE('',#458,#438,#269,.T.);
#561=EDGE_CURVE('',#458,#451,#270,.T.);
#562=EDGE_CURVE('',#459,#459,#381,.T.);
#563=EDGE_CURVE('',#459,#460,#271,.T.);
#564=EDGE_CURVE('',#460,#460,#382,.T.);
#565=EDGE_CURVE('',#461,#461,#383,.T.);
#566=EDGE_CURVE('',#461,#462,#272,.T.);
#567=EDGE_CURVE('',#462,#462,#384,.T.);
#568=EDGE_CURVE('',#463,#463,#385,.T.);
#569=EDGE_CURVE('',#463,#464,#273,.T.);
#570=EDGE_CURVE('',#464,#464,#386,.T.);
#571=EDGE_CURVE('',#465,#465,#387,.T.);
#572=EDGE_CURVE('',#465,#466,#274,.T.);
#573=EDGE_CURVE('',#466,#466,#388,.T.);
#574=EDGE_CURVE('',#467,#467,#389,.T.);
#575=EDGE_CURVE('',#467,#468,#275,.T.);
#576=EDGE_CURVE('',#468,#468,#390,.T.);
#577=EDGE_CURVE('',#469,#469,#391,.T.);
#578=EDGE_CURVE('',#469,#470,#276,.T.);
#579=EDGE_CURVE('',#470,#470,#392,.T.);
#580=EDGE_CURVE('',#471,#471,#393,.T.);
#581=EDGE_CURVE('',#471,#472,#277,.T.);
#582=EDGE_CURVE('',#472,#472,#394,.T.);
#583=EDGE_CURVE('',#473,#473,#395,.T.);
#584=EDGE_CURVE('',#473,#474,#278,.T.);
#585=EDGE_CURVE('',#474,#474,#396,.T.);
#586=EDGE_CURVE('',#475,#475,#397,.T.);
#587=EDGE_CURVE('',#475,#450,#279,.T.);
#588=EDGE_CURVE('',#476,#476,#398,.T.);
#589=EDGE_CURVE('',#476,#477,#280,.T.);
#590=EDGE_CURVE('',#477,#477,#399,.T.);
#591=EDGE_CURVE('',#428,#457,#281,.T.);
#592=EDGE_CURVE('',#425,#458,#282,.T.);
#593=EDGE_CURVE('',#429,#456,#283,.T.);
#594=EDGE_CURVE('',#478,#478,#400,.T.);
#595=EDGE_CURVE('',#479,#479,#401,.T.);
#596=EDGE_CURVE('',#480,#480,#402,.T.);
#597=EDGE_CURVE('',#480,#479,#284,.T.);
#598=EDGE_CURVE('',#481,#481,#403,.T.);
#599=EDGE_CURVE('',#481,#478,#285,.T.);
#600=ORIENTED_EDGE('',*,*,#482,.F.);
#601=ORIENTED_EDGE('',*,*,#483,.T.);
#602=ORIENTED_EDGE('',*,*,#484,.F.);
#603=ORIENTED_EDGE('',*,*,#483,.F.);
#604=ORIENTED_EDGE('',*,*,#485,.F.);
#605=ORIENTED_EDGE('',*,*,#486,.T.);
#606=ORIENTED_EDGE('',*,*,#487,.F.);
#607=ORIENTED_EDGE('',*,*,#486,.F.);
#608=ORIENTED_EDGE('',*,*,#488,.F.);
#609=ORIENTED_EDGE('',*,*,#489,.T.);
#610=ORIENTED_EDGE('',*,*,#490,.F.);
#611=ORIENTED_EDGE('',*,*,#489,.F.);
#612=ORIENTED_EDGE('',*,*,#491,.F.);
#613=ORIENTED_EDGE('',*,*,#492,.T.);
#614=ORIENTED_EDGE('',*,*,#493,.F.);
#615=ORIENTED_EDGE('',*,*,#492,.F.);
#616=ORIENTED_EDGE('',*,*,#494,.F.);
#617=ORIENTED_EDGE('',*,*,#495,.F.);
#618=ORIENTED_EDGE('',*,*,#496,.F.);
#619=ORIENTED_EDGE('',*,*,#497,.F.);
#620=ORIENTED_EDGE('',*,*,#498,.F.);
#621=ORIENTED_EDGE('',*,*,#499,.F.);
#622=ORIENTED_EDGE('',*,*,#500,.F.);
#623=ORIENTED_EDGE('',*,*,#501,.F.);
#624=ORIENTED_EDGE('',*,*,#497,.T.);
#625=ORIENTED_EDGE('',*,*,#502,.F.);
#626=ORIENTED_EDGE('',*,*,#503,.F.);
#627=ORIENTED_EDGE('',*,*,#504,.F.);
#628=ORIENTED_EDGE('',*,*,#501,.T.);
#629=ORIENTED_EDGE('',*,*,#505,.T.);
#630=ORIENTED_EDGE('',*,*,#506,.T.);
#631=ORIENTED_EDGE('',*,*,#507,.F.);
#632=ORIENTED_EDGE('',*,*,#508,.F.);
#633=ORIENTED_EDGE('',*,*,#509,.T.);
#634=ORIENTED_EDGE('',*,*,#510,.F.);
#635=ORIENTED_EDGE('',*,*,#511,.F.);
#636=ORIENTED_EDGE('',*,*,#512,.F.);
#637=ORIENTED_EDGE('',*,*,#513,.T.);
#638=ORIENTED_EDGE('',*,*,#514,.F.);
#639=ORIENTED_EDGE('',*,*,#515,.F.);
#640=ORIENTED_EDGE('',*,*,#516,.F.);
#641=ORIENTED_EDGE('',*,*,#499,.T.);
#642=ORIENTED_EDGE('',*,*,#517,.T.);
#643=ORIENTED_EDGE('',*,*,#518,.F.);
#644=ORIENTED_EDGE('',*,*,#519,.F.);
#645=ORIENTED_EDGE('',*,*,#494,.T.);
#646=ORIENTED_EDGE('',*,*,#504,.T.);
#647=ORIENTED_EDGE('',*,*,#520,.T.);
#648=ORIENTED_EDGE('',*,*,#521,.F.);
#649=ORIENTED_EDGE('',*,*,#503,.T.);
#650=ORIENTED_EDGE('',*,*,#522,.T.);
#651=ORIENTED_EDGE('',*,*,#518,.T.);
#652=ORIENTED_EDGE('',*,*,#523,.T.);
#653=ORIENTED_EDGE('',*,*,#502,.T.);
#654=ORIENTED_EDGE('',*,*,#496,.T.);
#655=ORIENTED_EDGE('',*,*,#524,.F.);
#656=ORIENTED_EDGE('',*,*,#525,.T.);
#657=ORIENTED_EDGE('',*,*,#505,.F.);
#658=ORIENTED_EDGE('',*,*,#500,.T.);
#659=ORIENTED_EDGE('',*,*,#519,.T.);
#660=ORIENTED_EDGE('',*,*,#522,.F.);
#661=ORIENTED_EDGE('',*,*,#484,.T.);
#662=ORIENTED_EDGE('',*,*,#487,.T.);
#663=ORIENTED_EDGE('',*,*,#490,.T.);
#664=ORIENTED_EDGE('',*,*,#493,.T.);
#665=ORIENTED_EDGE('',*,*,#498,.T.);
#666=ORIENTED_EDGE('',*,*,#516,.T.);
#667=ORIENTED_EDGE('',*,*,#526,.T.);
#668=ORIENTED_EDGE('',*,*,#517,.F.);
#669=ORIENTED_EDGE('',*,*,#525,.F.);
#670=ORIENTED_EDGE('',*,*,#527,.F.);
#671=ORIENTED_EDGE('',*,*,#528,.F.);
#672=ORIENTED_EDGE('',*,*,#506,.F.);
#673=ORIENTED_EDGE('',*,*,#529,.T.);
#674=ORIENTED_EDGE('',*,*,#530,.T.);
#675=ORIENTED_EDGE('',*,*,#531,.T.);
#676=ORIENTED_EDGE('',*,*,#510,.T.);
#677=ORIENTED_EDGE('',*,*,#532,.T.);
#678=ORIENTED_EDGE('',*,*,#533,.T.);
#679=ORIENTED_EDGE('',*,*,#534,.T.);
#680=ORIENTED_EDGE('',*,*,#535,.T.);
#681=ORIENTED_EDGE('',*,*,#536,.T.);
#682=ORIENTED_EDGE('',*,*,#537,.T.);
#683=ORIENTED_EDGE('',*,*,#514,.T.);
#684=ORIENTED_EDGE('',*,*,#538,.T.);
#685=ORIENTED_EDGE('',*,*,#539,.F.);
#686=ORIENTED_EDGE('',*,*,#540,.F.);
#687=ORIENTED_EDGE('',*,*,#541,.F.);
#688=ORIENTED_EDGE('',*,*,#532,.F.);
#689=ORIENTED_EDGE('',*,*,#542,.F.);
#690=ORIENTED_EDGE('',*,*,#536,.F.);
#691=ORIENTED_EDGE('',*,*,#543,.F.);
#692=ORIENTED_EDGE('',*,*,#544,.F.);
#693=ORIENTED_EDGE('',*,*,#542,.T.);
#694=ORIENTED_EDGE('',*,*,#545,.T.);
#695=ORIENTED_EDGE('',*,*,#539,.T.);
#696=ORIENTED_EDGE('',*,*,#535,.F.);
#697=ORIENTED_EDGE('',*,*,#546,.F.);
#698=ORIENTED_EDGE('',*,*,#520,.F.);
#699=ORIENTED_EDGE('',*,*,#523,.F.);
#700=ORIENTED_EDGE('',*,*,#526,.F.);
#701=ORIENTED_EDGE('',*,*,#515,.T.);
#702=ORIENTED_EDGE('',*,*,#537,.F.);
#703=ORIENTED_EDGE('',*,*,#547,.T.);
#704=ORIENTED_EDGE('',*,*,#548,.F.);
#705=ORIENTED_EDGE('',*,*,#549,.T.);
#706=ORIENTED_EDGE('',*,*,#507,.T.);
#707=ORIENTED_EDGE('',*,*,#528,.T.);
#708=ORIENTED_EDGE('',*,*,#482,.T.);
#709=ORIENTED_EDGE('',*,*,#485,.T.);
#710=ORIENTED_EDGE('',*,*,#488,.T.);
#711=ORIENTED_EDGE('',*,*,#491,.T.);
#712=ORIENTED_EDGE('',*,*,#544,.T.);
#713=ORIENTED_EDGE('',*,*,#550,.F.);
#714=ORIENTED_EDGE('',*,*,#540,.T.);
#715=ORIENTED_EDGE('',*,*,#545,.F.);
#716=ORIENTED_EDGE('',*,*,#551,.F.);
#717=ORIENTED_EDGE('',*,*,#552,.T.);
#718=ORIENTED_EDGE('',*,*,#553,.T.);
#719=ORIENTED_EDGE('',*,*,#552,.F.);
#720=ORIENTED_EDGE('',*,*,#551,.T.);
#721=ORIENTED_EDGE('',*,*,#554,.F.);
#722=ORIENTED_EDGE('',*,*,#555,.T.);
#723=ORIENTED_EDGE('',*,*,#556,.T.);
#724=ORIENTED_EDGE('',*,*,#555,.F.);
#725=ORIENTED_EDGE('',*,*,#554,.T.);
#726=ORIENTED_EDGE('',*,*,#495,.T.);
#727=ORIENTED_EDGE('',*,*,#521,.T.);
#728=ORIENTED_EDGE('',*,*,#546,.T.);
#729=ORIENTED_EDGE('',*,*,#534,.F.);
#730=ORIENTED_EDGE('',*,*,#557,.F.);
#731=ORIENTED_EDGE('',*,*,#558,.F.);
#732=ORIENTED_EDGE('',*,*,#559,.T.);
#733=ORIENTED_EDGE('',*,*,#530,.F.);
#734=ORIENTED_EDGE('',*,*,#560,.F.);
#735=ORIENTED_EDGE('',*,*,#561,.T.);
#736=ORIENTED_EDGE('',*,*,#548,.T.);
#737=ORIENTED_EDGE('',*,*,#527,.T.);
#738=ORIENTED_EDGE('',*,*,#524,.T.);
#739=ORIENTED_EDGE('',*,*,#562,.F.);
#740=ORIENTED_EDGE('',*,*,#563,.T.);
#741=ORIENTED_EDGE('',*,*,#564,.F.);
#742=ORIENTED_EDGE('',*,*,#563,.F.);
#743=ORIENTED_EDGE('',*,*,#562,.T.);
#744=ORIENTED_EDGE('',*,*,#565,.F.);
#745=ORIENTED_EDGE('',*,*,#566,.T.);
#746=ORIENTED_EDGE('',*,*,#567,.F.);
#747=ORIENTED_EDGE('',*,*,#566,.F.);
#748=ORIENTED_EDGE('',*,*,#565,.T.);
#749=ORIENTED_EDGE('',*,*,#568,.F.);
#750=ORIENTED_EDGE('',*,*,#569,.T.);
#751=ORIENTED_EDGE('',*,*,#570,.F.);
#752=ORIENTED_EDGE('',*,*,#569,.F.);
#753=ORIENTED_EDGE('',*,*,#568,.T.);
#754=ORIENTED_EDGE('',*,*,#571,.F.);
#755=ORIENTED_EDGE('',*,*,#572,.T.);
#756=ORIENTED_EDGE('',*,*,#573,.F.);
#757=ORIENTED_EDGE('',*,*,#572,.F.);
#758=ORIENTED_EDGE('',*,*,#571,.T.);
#759=ORIENTED_EDGE('',*,*,#574,.F.);
#760=ORIENTED_EDGE('',*,*,#575,.T.);
#761=ORIENTED_EDGE('',*,*,#576,.F.);
#762=ORIENTED_EDGE('',*,*,#575,.F.);
#763=ORIENTED_EDGE('',*,*,#574,.T.);
#764=ORIENTED_EDGE('',*,*,#577,.F.);
#765=ORIENTED_EDGE('',*,*,#578,.T.);
#766=ORIENTED_EDGE('',*,*,#579,.F.);
#767=ORIENTED_EDGE('',*,*,#578,.F.);
#768=ORIENTED_EDGE('',*,*,#577,.T.);
#769=ORIENTED_EDGE('',*,*,#580,.F.);
#770=ORIENTED_EDGE('',*,*,#581,.T.);
#771=ORIENTED_EDGE('',*,*,#582,.F.);
#772=ORIENTED_EDGE('',*,*,#581,.F.);
#773=ORIENTED_EDGE('',*,*,#580,.T.);
#774=ORIENTED_EDGE('',*,*,#583,.F.);
#775=ORIENTED_EDGE('',*,*,#584,.T.);
#776=ORIENTED_EDGE('',*,*,#585,.F.);
#777=ORIENTED_EDGE('',*,*,#584,.F.);
#778=ORIENTED_EDGE('',*,*,#583,.T.);
#779=ORIENTED_EDGE('',*,*,#586,.F.);
#780=ORIENTED_EDGE('',*,*,#587,.T.);
#781=ORIENTED_EDGE('',*,*,#547,.F.);
#782=ORIENTED_EDGE('',*,*,#587,.F.);
#783=ORIENTED_EDGE('',*,*,#588,.F.);
#784=ORIENTED_EDGE('',*,*,#589,.T.);
#785=ORIENTED_EDGE('',*,*,#590,.F.);
#786=ORIENTED_EDGE('',*,*,#589,.F.);
#787=ORIENTED_EDGE('',*,*,#591,.F.);
#788=ORIENTED_EDGE('',*,*,#511,.T.);
#789=ORIENTED_EDGE('',*,*,#531,.F.);
#790=ORIENTED_EDGE('',*,*,#559,.F.);
#791=ORIENTED_EDGE('',*,*,#590,.T.);
#792=ORIENTED_EDGE('',*,*,#592,.T.);
#793=ORIENTED_EDGE('',*,*,#560,.T.);
#794=ORIENTED_EDGE('',*,*,#529,.F.);
#795=ORIENTED_EDGE('',*,*,#509,.F.);
#796=ORIENTED_EDGE('',*,*,#588,.T.);
#797=ORIENTED_EDGE('',*,*,#591,.T.);
#798=ORIENTED_EDGE('',*,*,#558,.T.);
#799=ORIENTED_EDGE('',*,*,#593,.F.);
#800=ORIENTED_EDGE('',*,*,#512,.T.);
#801=ORIENTED_EDGE('',*,*,#543,.T.);
#802=ORIENTED_EDGE('',*,*,#538,.F.);
#803=ORIENTED_EDGE('',*,*,#513,.F.);
#804=ORIENTED_EDGE('',*,*,#593,.T.);
#805=ORIENTED_EDGE('',*,*,#557,.T.);
#806=ORIENTED_EDGE('',*,*,#533,.F.);
#807=ORIENTED_EDGE('',*,*,#541,.T.);
#808=ORIENTED_EDGE('',*,*,#550,.T.);
#809=ORIENTED_EDGE('',*,*,#586,.T.);
#810=ORIENTED_EDGE('',*,*,#561,.F.);
#811=ORIENTED_EDGE('',*,*,#592,.F.);
#812=ORIENTED_EDGE('',*,*,#508,.T.);
#813=ORIENTED_EDGE('',*,*,#549,.F.);
#814=ORIENTED_EDGE('',*,*,#582,.T.);
#815=ORIENTED_EDGE('',*,*,#570,.T.);
#816=ORIENTED_EDGE('',*,*,#585,.T.);
#817=ORIENTED_EDGE('',*,*,#594,.F.);
#818=ORIENTED_EDGE('',*,*,#595,.F.);
#819=ORIENTED_EDGE('',*,*,#556,.F.);
#820=ORIENTED_EDGE('',*,*,#553,.F.);
#821=ORIENTED_EDGE('',*,*,#576,.T.);
#822=ORIENTED_EDGE('',*,*,#564,.T.);
#823=ORIENTED_EDGE('',*,*,#567,.T.);
#824=ORIENTED_EDGE('',*,*,#573,.T.);
#825=ORIENTED_EDGE('',*,*,#579,.T.);
#826=ORIENTED_EDGE('',*,*,#596,.F.);
#827=ORIENTED_EDGE('',*,*,#597,.T.);
#828=ORIENTED_EDGE('',*,*,#595,.T.);
#829=ORIENTED_EDGE('',*,*,#597,.F.);
#830=ORIENTED_EDGE('',*,*,#596,.T.);
#831=ORIENTED_EDGE('',*,*,#598,.F.);
#832=ORIENTED_EDGE('',*,*,#599,.T.);
#833=ORIENTED_EDGE('',*,*,#594,.T.);
#834=ORIENTED_EDGE('',*,*,#599,.F.);
#835=ORIENTED_EDGE('',*,*,#598,.T.);
#836=CYLINDRICAL_SURFACE('',#923,1.5);
#837=CYLINDRICAL_SURFACE('',#926,1.5);
#838=CYLINDRICAL_SURFACE('',#929,1.5);
#839=CYLINDRICAL_SURFACE('',#932,1.44568250057417);
#840=CYLINDRICAL_SURFACE('',#954,2.5);
#841=CYLINDRICAL_SURFACE('',#956,3.25);
#842=CYLINDRICAL_SURFACE('',#960,3.25);
#843=CYLINDRICAL_SURFACE('',#965,3.24999999999999);
#844=CYLINDRICAL_SURFACE('',#969,3.25);
#845=CYLINDRICAL_SURFACE('',#973,3.25);
#846=CYLINDRICAL_SURFACE('',#977,3.25);
#847=CYLINDRICAL_SURFACE('',#981,3.25);
#848=CYLINDRICAL_SURFACE('',#985,3.25);
#849=CYLINDRICAL_SURFACE('',#989,3.25);
#850=CYLINDRICAL_SURFACE('',#993,3.25);
#851=CYLINDRICAL_SURFACE('',#997,5.);
#852=CYLINDRICAL_SURFACE('',#999,5.);
#853=CYLINDRICAL_SURFACE('',#1009,3.25);
#854=CYLINDRICAL_SURFACE('',#1012,3.25);
#855=ADVANCED_FACE('',(#74),#836,.F.);
#856=ADVANCED_FACE('',(#75),#837,.F.);
#857=ADVANCED_FACE('',(#76),#838,.F.);
#858=ADVANCED_FACE('',(#77),#839,.F.);
#859=ADVANCED_FACE('',(#78),#39,.F.);
#860=ADVANCED_FACE('',(#79),#40,.F.);
#861=ADVANCED_FACE('',(#80),#41,.F.);
#862=ADVANCED_FACE('',(#81),#42,.T.);
#863=ADVANCED_FACE('',(#82),#43,.T.);
#864=ADVANCED_FACE('',(#83),#44,.F.);
#865=ADVANCED_FACE('',(#84),#45,.T.);
#866=ADVANCED_FACE('',(#85,#15,#16,#17,#18),#46,.T.);
#867=ADVANCED_FACE('',(#86),#47,.T.);
#868=ADVANCED_FACE('',(#87),#48,.T.);
#869=ADVANCED_FACE('',(#88),#49,.T.);
#870=ADVANCED_FACE('',(#89),#50,.T.);
#871=ADVANCED_FACE('',(#90),#51,.T.);
#872=ADVANCED_FACE('',(#91),#52,.F.);
#873=ADVANCED_FACE('',(#92),#53,.F.);
#874=ADVANCED_FACE('',(#93,#19),#54,.T.);
#875=ADVANCED_FACE('',(#94,#20,#21,#22,#23),#55,.T.);
#876=ADVANCED_FACE('',(#95),#840,.F.);
#877=ADVANCED_FACE('',(#96),#841,.T.);
#878=ADVANCED_FACE('',(#97),#56,.T.);
#879=ADVANCED_FACE('',(#98),#842,.T.);
#880=ADVANCED_FACE('',(#99),#57,.T.);
#881=ADVANCED_FACE('',(#100),#58,.T.);
#882=ADVANCED_FACE('',(#101),#843,.T.);
#883=ADVANCED_FACE('',(#102),#59,.T.);
#884=ADVANCED_FACE('',(#103),#844,.T.);
#885=ADVANCED_FACE('',(#104),#60,.T.);
#886=ADVANCED_FACE('',(#105),#845,.T.);
#887=ADVANCED_FACE('',(#106),#61,.T.);
#888=ADVANCED_FACE('',(#107),#846,.T.);
#889=ADVANCED_FACE('',(#108),#62,.T.);
#890=ADVANCED_FACE('',(#109),#847,.T.);
#891=ADVANCED_FACE('',(#110),#63,.T.);
#892=ADVANCED_FACE('',(#111),#848,.T.);
#893=ADVANCED_FACE('',(#112),#64,.T.);
#894=ADVANCED_FACE('',(#113),#849,.T.);
#895=ADVANCED_FACE('',(#114),#65,.T.);
#896=ADVANCED_FACE('',(#115),#850,.T.);
#897=ADVANCED_FACE('',(#116),#66,.T.);
#898=ADVANCED_FACE('',(#117),#851,.F.);
#899=ADVANCED_FACE('',(#118),#852,.F.);
#900=ADVANCED_FACE('',(#119,#24),#67,.T.);
#901=ADVANCED_FACE('',(#120,#25),#68,.T.);
#902=ADVANCED_FACE('',(#121),#69,.T.);
#903=ADVANCED_FACE('',(#122,#26),#70,.T.);
#904=ADVANCED_FACE('',(#123,#27,#28,#29,#30,#31,#32,#33,#34,#35,#36,#37,
#38),#71,.F.);
#905=ADVANCED_FACE('',(#124),#853,.T.);
#906=ADVANCED_FACE('',(#125),#72,.T.);
#907=ADVANCED_FACE('',(#126),#854,.T.);
#908=ADVANCED_FACE('',(#127),#73,.T.);
#909=CLOSED_SHELL('',(#855,#856,#857,#858,#859,#860,#861,#862,#863,#864,
#865,#866,#867,#868,#869,#870,#871,#872,#873,#874,#875,#876,#877,#878,#879,
#880,#881,#882,#883,#884,#885,#886,#887,#888,#889,#890,#891,#892,#893,#894,
#895,#896,#897,#898,#899,#900,#901,#902,#903,#904,#905,#906,#907,#908));
#910=DERIVED_UNIT_ELEMENT(#912,1.);
#911=DERIVED_UNIT_ELEMENT(#1537,-3.);
#912=(
MASS_UNIT()
NAMED_UNIT(*)
SI_UNIT(.KILO.,.GRAM.)
);
#913=DERIVED_UNIT((#910,#911));
#914=MEASURE_REPRESENTATION_ITEM('density measure',
POSITIVE_RATIO_MEASURE(7850.),#913);
#915=PROPERTY_DEFINITION_REPRESENTATION(#920,#917);
#916=PROPERTY_DEFINITION_REPRESENTATION(#921,#918);
#917=REPRESENTATION('material name',(#919),#1534);
#918=REPRESENTATION('density',(#914),#1534);
#919=DESCRIPTIVE_REPRESENTATION_ITEM('Steel','Steel');
#920=PROPERTY_DEFINITION('material property','material name',#1544);
#921=PROPERTY_DEFINITION('material property','density of part',#1544);
#922=AXIS2_PLACEMENT_3D('',#1281,#1015,#1016);
#923=AXIS2_PLACEMENT_3D('',#1282,#1017,#1018);
#924=AXIS2_PLACEMENT_3D('',#1284,#1019,#1020);
#925=AXIS2_PLACEMENT_3D('',#1287,#1022,#1023);
#926=AXIS2_PLACEMENT_3D('',#1288,#1024,#1025);
#927=AXIS2_PLACEMENT_3D('',#1290,#1026,#1027);
#928=AXIS2_PLACEMENT_3D('',#1293,#1029,#1030);
#929=AXIS2_PLACEMENT_3D('',#1294,#1031,#1032);
#930=AXIS2_PLACEMENT_3D('',#1296,#1033,#1034);
#931=AXIS2_PLACEMENT_3D('',#1299,#1036,#1037);
#932=AXIS2_PLACEMENT_3D('',#1300,#1038,#1039);
#933=AXIS2_PLACEMENT_3D('',#1302,#1040,#1041);
#934=AXIS2_PLACEMENT_3D('',#1305,#1043,#1044);
#935=AXIS2_PLACEMENT_3D('',#1306,#1045,#1046);
#936=AXIS2_PLACEMENT_3D('',#1315,#1051,#1052);
#937=AXIS2_PLACEMENT_3D('',#1324,#1057,#1058);
#938=AXIS2_PLACEMENT_3D('',#1330,#1062,#1063);
#939=AXIS2_PLACEMENT_3D('',#1354,#1076,#1077);
#940=AXIS2_PLACEMENT_3D('',#1360,#1081,#1082);
#941=AXIS2_PLACEMENT_3D('',#1364,#1085,#1086);
#942=AXIS2_PLACEMENT_3D('',#1367,#1089,#1090);
#943=AXIS2_PLACEMENT_3D('',#1371,#1093,#1094);
#944=AXIS2_PLACEMENT_3D('',#1373,#1096,#1097);
#945=AXIS2_PLACEMENT_3D('',#1377,#1100,#1101);
#946=AXIS2_PLACEMENT_3D('',#1383,#1105,#1106);
#947=AXIS2_PLACEMENT_3D('',#1392,#1111,#1112);
#948=AXIS2_PLACEMENT_3D('',#1398,#1116,#1117);
#949=AXIS2_PLACEMENT_3D('',#1404,#1121,#1122);
#950=AXIS2_PLACEMENT_3D('',#1410,#1126,#1127);
#951=AXIS2_PLACEMENT_3D('',#1411,#1128,#1129);
#952=AXIS2_PLACEMENT_3D('',#1414,#1131,#1132);
#953=AXIS2_PLACEMENT_3D('',#1415,#1133,#1134);
#954=AXIS2_PLACEMENT_3D('',#1419,#1137,#1138);
#955=AXIS2_PLACEMENT_3D('',#1420,#1139,#1140);
#956=AXIS2_PLACEMENT_3D('',#1421,#1141,#1142);
#957=AXIS2_PLACEMENT_3D('',#1423,#1143,#1144);
#958=AXIS2_PLACEMENT_3D('',#1426,#1146,#1147);
#959=AXIS2_PLACEMENT_3D('',#1427,#1148,#1149);
#960=AXIS2_PLACEMENT_3D('',#1428,#1150,#1151);
#961=AXIS2_PLACEMENT_3D('',#1430,#1152,#1153);
#962=AXIS2_PLACEMENT_3D('',#1433,#1155,#1156);
#963=AXIS2_PLACEMENT_3D('',#1434,#1157,#1158);
#964=AXIS2_PLACEMENT_3D('',#1435,#1159,#1160);
#965=AXIS2_PLACEMENT_3D('',#1444,#1166,#1167);
#966=AXIS2_PLACEMENT_3D('',#1446,#1168,#1169);
#967=AXIS2_PLACEMENT_3D('',#1449,#1171,#1172);
#968=AXIS2_PLACEMENT_3D('',#1450,#1173,#1174);
#969=AXIS2_PLACEMENT_3D('',#1451,#1175,#1176);
#970=AXIS2_PLACEMENT_3D('',#1453,#1177,#1178);
#971=AXIS2_PLACEMENT_3D('',#1456,#1180,#1181);
#972=AXIS2_PLACEMENT_3D('',#1457,#1182,#1183);
#973=AXIS2_PLACEMENT_3D('',#1458,#1184,#1185);
#974=AXIS2_PLACEMENT_3D('',#1460,#1186,#1187);
#975=AXIS2_PLACEMENT_3D('',#1463,#1189,#1190);
#976=AXIS2_PLACEMENT_3D('',#1464,#1191,#1192);
#977=AXIS2_PLACEMENT_3D('',#1465,#1193,#1194);
#978=AXIS2_PLACEMENT_3D('',#1467,#1195,#1196);
#979=AXIS2_PLACEMENT_3D('',#1470,#1198,#1199);
#980=AXIS2_PLACEMENT_3D('',#1471,#1200,#1201);
#981=AXIS2_PLACEMENT_3D('',#1472,#1202,#1203);
#982=AXIS2_PLACEMENT_3D('',#1474,#1204,#1205);
#983=AXIS2_PLACEMENT_3D('',#1477,#1207,#1208);
#984=AXIS2_PLACEMENT_3D('',#1478,#1209,#1210);
#985=AXIS2_PLACEMENT_3D('',#1479,#1211,#1212);
#986=AXIS2_PLACEMENT_3D('',#1481,#1213,#1214);
#987=AXIS2_PLACEMENT_3D('',#1484,#1216,#1217);
#988=AXIS2_PLACEMENT_3D('',#1485,#1218,#1219);
#989=AXIS2_PLACEMENT_3D('',#1486,#1220,#1221);
#990=AXIS2_PLACEMENT_3D('',#1488,#1222,#1223);
#991=AXIS2_PLACEMENT_3D('',#1491,#1225,#1226);
#992=AXIS2_PLACEMENT_3D('',#1492,#1227,#1228);
#993=AXIS2_PLACEMENT_3D('',#1493,#1229,#1230);
#994=AXIS2_PLACEMENT_3D('',#1495,#1231,#1232);
#995=AXIS2_PLACEMENT_3D('',#1498,#1234,#1235);
#996=AXIS2_PLACEMENT_3D('',#1499,#1236,#1237);
#997=AXIS2_PLACEMENT_3D('',#1500,#1238,#1239);
#998=AXIS2_PLACEMENT_3D('',#1502,#1240,#1241);
#999=AXIS2_PLACEMENT_3D('',#1504,#1243,#1244);
#1000=AXIS2_PLACEMENT_3D('',#1506,#1245,#1246);
#1001=AXIS2_PLACEMENT_3D('',#1509,#1248,#1249);
#1002=AXIS2_PLACEMENT_3D('',#1510,#1250,#1251);
#1003=AXIS2_PLACEMENT_3D('',#1512,#1253,#1254);
#1004=AXIS2_PLACEMENT_3D('',#1514,#1256,#1257);
#1005=AXIS2_PLACEMENT_3D('',#1516,#1259,#1260);
#1006=AXIS2_PLACEMENT_3D('',#1517,#1261,#1262);
#1007=AXIS2_PLACEMENT_3D('',#1519,#1263,#1264);
#1008=AXIS2_PLACEMENT_3D('',#1521,#1265,#1266);
#1009=AXIS2_PLACEMENT_3D('',#1522,#1267,#1268);
#1010=AXIS2_PLACEMENT_3D('',#1524,#1269,#1270);
#1011=AXIS2_PLACEMENT_3D('',#1526,#1272,#1273);
#1012=AXIS2_PLACEMENT_3D('',#1527,#1274,#1275);
#1013=AXIS2_PLACEMENT_3D('',#1529,#1276,#1277);
#1014=AXIS2_PLACEMENT_3D('',#1531,#1279,#1280);
#1015=DIRECTION('axis',(0.,0.,1.));
#1016=DIRECTION('refdir',(1.,0.,0.));
#1017=DIRECTION('center_axis',(0.,1.,0.));
#1018=DIRECTION('ref_axis',(1.,0.,0.));
#1019=DIRECTION('center_axis',(0.,1.,0.));
#1020=DIRECTION('ref_axis',(1.,0.,0.));
#1021=DIRECTION('',(0.,1.,0.));
#1022=DIRECTION('center_axis',(0.,-1.,0.));
#1023=DIRECTION('ref_axis',(1.,0.,0.));
#1024=DIRECTION('center_axis',(0.,1.,0.));
#1025=DIRECTION('ref_axis',(1.,0.,0.));
#1026=DIRECTION('center_axis',(0.,1.,0.));
#1027=DIRECTION('ref_axis',(1.,0.,0.));
#1028=DIRECTION('',(0.,1.,0.));
#1029=DIRECTION('center_axis',(0.,-1.,0.));
#1030=DIRECTION('ref_axis',(1.,0.,0.));
#1031=DIRECTION('center_axis',(0.,1.,0.));
#1032=DIRECTION('ref_axis',(1.,0.,0.));
#1033=DIRECTION('center_axis',(0.,1.,0.));
#1034=DIRECTION('ref_axis',(1.,0.,0.));
#1035=DIRECTION('',(0.,1.,0.));
#1036=DIRECTION('center_axis',(0.,-1.,0.));
#1037=DIRECTION('ref_axis',(1.,0.,0.));
#1038=DIRECTION('center_axis',(0.,1.,0.));
#1039=DIRECTION('ref_axis',(1.,0.,0.));
#1040=DIRECTION('center_axis',(0.,1.,0.));
#1041=DIRECTION('ref_axis',(1.,0.,0.));
#1042=DIRECTION('',(0.,1.,0.));
#1043=DIRECTION('center_axis',(0.,-1.,0.));
#1044=DIRECTION('ref_axis',(1.,0.,0.));
#1045=DIRECTION('center_axis',(0.,0.,-1.));
#1046=DIRECTION('ref_axis',(-1.,0.,0.));
#1047=DIRECTION('',(1.,0.,0.));
#1048=DIRECTION('',(0.,1.,0.));
#1049=DIRECTION('',(-1.,0.,0.));
#1050=DIRECTION('',(0.,-1.,0.));
#1051=DIRECTION('center_axis',(0.,0.,-1.));
#1052=DIRECTION('ref_axis',(-1.,0.,0.));
#1053=DIRECTION('',(1.,0.,0.));
#1054=DIRECTION('',(0.,1.,0.));
#1055=DIRECTION('',(-1.,0.,0.));
#1056=DIRECTION('',(0.,-1.,0.));
#1057=DIRECTION('center_axis',(-1.,0.,0.));
#1058=DIRECTION('ref_axis',(0.,0.,1.));
#1059=DIRECTION('',(0.,0.,1.));
#1060=DIRECTION('',(0.,-1.,0.));
#1061=DIRECTION('',(0.,0.701238976116888,-0.712926292385503));
#1062=DIRECTION('center_axis',(1.,0.,0.));
#1063=DIRECTION('ref_axis',(0.,1.,0.));
#1064=DIRECTION('',(0.,0.,1.));
#1065=DIRECTION('',(0.,-1.,0.));
#1066=DIRECTION('',(0.,0.,1.));
#1067=DIRECTION('',(0.,-1.,0.));
#1068=DIRECTION('',(0.,0.,1.));
#1069=DIRECTION('',(0.,1.,0.));
#1070=DIRECTION('',(0.,0.,1.));
#1071=DIRECTION('',(0.,1.,0.));
#1072=DIRECTION('',(0.,0.,1.));
#1073=DIRECTION('',(0.,1.,0.));
#1074=DIRECTION('',(0.,0.,1.));
#1075=DIRECTION('',(0.,0.701238976116888,-0.712926292385503));
#1076=DIRECTION('center_axis',(-1.,0.,0.));
#1077=DIRECTION('ref_axis',(0.,0.,1.));
#1078=DIRECTION('',(0.,0.701238976116888,-0.712926292385503));
#1079=DIRECTION('',(0.,1.,0.));
#1080=DIRECTION('',(0.,0.,-1.));
#1081=DIRECTION('center_axis',(0.,-0.712926292385503,-0.701238976116888));
#1082=DIRECTION('ref_axis',(0.,0.701238976116888,-0.712926292385503));
#1083=DIRECTION('',(-1.,0.,0.));
#1084=DIRECTION('',(0.,0.701238976116888,-0.712926292385503));
#1085=DIRECTION('center_axis',(0.,0.,1.));
#1086=DIRECTION('ref_axis',(1.,0.,0.));
#1087=DIRECTION('',(1.,0.,0.));
#1088=DIRECTION('',(-1.,0.,0.));
#1089=DIRECTION('center_axis',(0.,1.,0.));
#1090=DIRECTION('ref_axis',(-1.,0.,0.));
#1091=DIRECTION('',(0.,0.,-1.));
#1092=DIRECTION('',(1.,0.,0.));
#1093=DIRECTION('center_axis',(0.,0.712926292385503,0.701238976116888));
#1094=DIRECTION('ref_axis',(0.,0.701238976116888,-0.712926292385503));
#1095=DIRECTION('',(-1.,0.,0.));
#1096=DIRECTION('center_axis',(0.,0.,1.));
#1097=DIRECTION('ref_axis',(1.,0.,0.));
#1098=DIRECTION('',(0.,1.,0.));
#1099=DIRECTION('',(-1.,2.04923841199194E-16,0.));
#1100=DIRECTION('center_axis',(0.,0.,1.));
#1101=DIRECTION('ref_axis',(1.,0.,0.));
#1102=DIRECTION('',(-1.,0.,0.));
#1103=DIRECTION('',(0.,-1.,0.));
#1104=DIRECTION('',(1.,0.,0.));
#1105=DIRECTION('center_axis',(0.,0.,1.));
#1106=DIRECTION('ref_axis',(1.,0.,0.));
#1107=DIRECTION('',(0.,1.,0.));
#1108=DIRECTION('',(-1.,0.,0.));
#1109=DIRECTION('',(0.,-1.,0.));
#1110=DIRECTION('',(1.,0.,0.));
#1111=DIRECTION('center_axis',(0.,0.,1.));
#1112=DIRECTION('ref_axis',(1.,0.,0.));
#1113=DIRECTION('',(0.,-1.,0.));
#1114=DIRECTION('',(1.,0.,0.));
#1115=DIRECTION('',(-1.,0.,0.));
#1116=DIRECTION('center_axis',(-1.,0.,0.));
#1117=DIRECTION('ref_axis',(0.,0.,1.));
#1118=DIRECTION('',(0.,0.,1.));
#1119=DIRECTION('',(0.,-1.,0.));
#1120=DIRECTION('',(0.,0.,-1.));
#1121=DIRECTION('center_axis',(1.,0.,0.));
#1122=DIRECTION('ref_axis',(0.,0.,-1.));
#1123=DIRECTION('',(0.,0.,-1.));
#1124=DIRECTION('',(0.,0.,1.));
#1125=DIRECTION('',(0.,1.,0.));
#1126=DIRECTION('center_axis',(0.,-1.,0.));
#1127=DIRECTION('ref_axis',(1.,0.,0.));
#1128=DIRECTION('center_axis',(0.,1.,0.));
#1129=DIRECTION('ref_axis',(1.,0.,0.));
#1130=DIRECTION('',(0.,0.,1.));
#1131=DIRECTION('center_axis',(0.,1.,0.));
#1132=DIRECTION('ref_axis',(-1.,0.,0.));
#1133=DIRECTION('center_axis',(0.,-1.,0.));
#1134=DIRECTION('ref_axis',(0.,0.,-1.));
#1135=DIRECTION('',(0.,0.,1.));
#1136=DIRECTION('',(1.,0.,0.));
#1137=DIRECTION('center_axis',(0.,1.,0.));
#1138=DIRECTION('ref_axis',(1.,0.,0.));
#1139=DIRECTION('center_axis',(0.,-1.,0.));
#1140=DIRECTION('ref_axis',(1.,0.,0.));
#1141=DIRECTION('center_axis',(0.,0.,-1.));
#1142=DIRECTION('ref_axis',(1.,0.,0.));
#1143=DIRECTION('center_axis',(0.,0.,-1.));
#1144=DIRECTION('ref_axis',(1.,0.,0.));
#1145=DIRECTION('',(0.,0.,1.));
#1146=DIRECTION('center_axis',(0.,0.,-1.));
#1147=DIRECTION('ref_axis',(1.,0.,0.));
#1148=DIRECTION('center_axis',(0.,0.,-1.));
#1149=DIRECTION('ref_axis',(1.,0.,0.));
#1150=DIRECTION('center_axis',(0.,0.,-1.));
#1151=DIRECTION('ref_axis',(1.,0.,0.));
#1152=DIRECTION('center_axis',(0.,0.,-1.));
#1153=DIRECTION('ref_axis',(1.,0.,0.));
#1154=DIRECTION('',(0.,0.,1.));
#1155=DIRECTION('center_axis',(0.,0.,-1.));
#1156=DIRECTION('ref_axis',(1.,0.,0.));
#1157=DIRECTION('center_axis',(0.,0.,-1.));
#1158=DIRECTION('ref_axis',(1.,0.,0.));
#1159=DIRECTION('center_axis',(-1.,0.,0.));
#1160=DIRECTION('ref_axis',(0.,-1.,0.));
#1161=DIRECTION('',(0.,0.,1.));
#1162=DIRECTION('',(0.,-1.,0.));
#1163=DIRECTION('',(0.,0.,1.));
#1164=DIRECTION('',(0.,0.,1.));
#1165=DIRECTION('',(0.,-1.,0.));
#1166=DIRECTION('center_axis',(0.,0.,-1.));
#1167=DIRECTION('ref_axis',(1.,0.,0.));
#1168=DIRECTION('center_axis',(0.,0.,-1.));
#1169=DIRECTION('ref_axis',(1.,0.,0.));
#1170=DIRECTION('',(0.,0.,1.));
#1171=DIRECTION('center_axis',(0.,0.,1.));
#1172=DIRECTION('ref_axis',(1.,0.,0.));
#1173=DIRECTION('center_axis',(0.,0.,-1.));
#1174=DIRECTION('ref_axis',(1.,0.,0.));
#1175=DIRECTION('center_axis',(0.,0.,-1.));
#1176=DIRECTION('ref_axis',(1.,0.,0.));
#1177=DIRECTION('center_axis',(0.,0.,-1.));
#1178=DIRECTION('ref_axis',(1.,0.,0.));
#1179=DIRECTION('',(0.,0.,1.));
#1180=DIRECTION('center_axis',(0.,0.,1.));
#1181=DIRECTION('ref_axis',(1.,0.,0.));
#1182=DIRECTION('center_axis',(0.,0.,-1.));
#1183=DIRECTION('ref_axis',(1.,0.,0.));
#1184=DIRECTION('center_axis',(0.,0.,-1.));
#1185=DIRECTION('ref_axis',(1.,0.,0.));
#1186=DIRECTION('center_axis',(0.,0.,-1.));
#1187=DIRECTION('ref_axis',(1.,0.,0.));
#1188=DIRECTION('',(0.,0.,1.));
#1189=DIRECTION('center_axis',(0.,0.,1.));
#1190=DIRECTION('ref_axis',(1.,0.,0.));
#1191=DIRECTION('center_axis',(0.,0.,-1.));
#1192=DIRECTION('ref_axis',(1.,0.,0.));
#1193=DIRECTION('center_axis',(0.,0.,-1.));
#1194=DIRECTION('ref_axis',(1.,0.,0.));
#1195=DIRECTION('center_axis',(0.,0.,-1.));
#1196=DIRECTION('ref_axis',(1.,0.,0.));
#1197=DIRECTION('',(0.,0.,1.));
#1198=DIRECTION('center_axis',(0.,0.,1.));
#1199=DIRECTION('ref_axis',(1.,0.,0.));
#1200=DIRECTION('center_axis',(0.,0.,-1.));
#1201=DIRECTION('ref_axis',(1.,0.,0.));
#1202=DIRECTION('center_axis',(0.,0.,-1.));
#1203=DIRECTION('ref_axis',(1.,0.,0.));
#1204=DIRECTION('center_axis',(0.,0.,-1.));
#1205=DIRECTION('ref_axis',(1.,0.,0.));
#1206=DIRECTION('',(0.,0.,1.));
#1207=DIRECTION('center_axis',(0.,0.,1.));
#1208=DIRECTION('ref_axis',(1.,0.,0.));
#1209=DIRECTION('center_axis',(0.,0.,-1.));
#1210=DIRECTION('ref_axis',(1.,0.,0.));
#1211=DIRECTION('center_axis',(0.,0.,-1.));
#1212=DIRECTION('ref_axis',(1.,0.,0.));
#1213=DIRECTION('center_axis',(0.,0.,-1.));
#1214=DIRECTION('ref_axis',(1.,0.,0.));
#1215=DIRECTION('',(0.,0.,1.));
#1216=DIRECTION('center_axis',(0.,0.,1.));
#1217=DIRECTION('ref_axis',(1.,0.,0.));
#1218=DIRECTION('center_axis',(0.,0.,-1.));
#1219=DIRECTION('ref_axis',(1.,0.,0.));
#1220=DIRECTION('center_axis',(0.,0.,-1.));
#1221=DIRECTION('ref_axis',(1.,0.,0.));
#1222=DIRECTION('center_axis',(0.,0.,-1.));
#1223=DIRECTION('ref_axis',(1.,0.,0.));
#1224=DIRECTION('',(0.,0.,1.));
#1225=DIRECTION('center_axis',(0.,0.,1.));
#1226=DIRECTION('ref_axis',(1.,0.,0.));
#1227=DIRECTION('center_axis',(0.,0.,-1.));
#1228=DIRECTION('ref_axis',(1.,0.,0.));
#1229=DIRECTION('center_axis',(0.,0.,-1.));
#1230=DIRECTION('ref_axis',(1.,0.,0.));
#1231=DIRECTION('center_axis',(0.,0.,-1.));
#1232=DIRECTION('ref_axis',(1.,0.,0.));
#1233=DIRECTION('',(0.,0.,1.));
#1234=DIRECTION('center_axis',(0.,0.,1.));
#1235=DIRECTION('ref_axis',(1.,0.,0.));
#1236=DIRECTION('center_axis',(0.,0.,-1.));
#1237=DIRECTION('ref_axis',(1.,0.,0.));
#1238=DIRECTION('center_axis',(0.,-1.,0.));
#1239=DIRECTION('ref_axis',(-1.,0.,0.));
#1240=DIRECTION('center_axis',(0.,-1.,0.));
#1241=DIRECTION('ref_axis',(-1.,0.,0.));
#1242=DIRECTION('',(0.,-1.,0.));
#1243=DIRECTION('center_axis',(0.,-1.,0.));
#1244=DIRECTION('ref_axis',(-1.,0.,0.));
#1245=DIRECTION('center_axis',(0.,-1.,0.));
#1246=DIRECTION('ref_axis',(-1.,0.,0.));
#1247=DIRECTION('',(0.,-1.,0.));
#1248=DIRECTION('center_axis',(0.,1.,0.));
#1249=DIRECTION('ref_axis',(-1.,0.,0.));
#1250=DIRECTION('center_axis',(0.,-1.,0.));
#1251=DIRECTION('ref_axis',(1.,0.,0.));
#1252=DIRECTION('',(-1.,0.,0.));
#1253=DIRECTION('center_axis',(0.,1.,0.));
#1254=DIRECTION('ref_axis',(-1.,0.,0.));
#1255=DIRECTION('',(-1.,0.,0.));
#1256=DIRECTION('center_axis',(0.,0.,1.));
#1257=DIRECTION('ref_axis',(1.,0.,0.));
#1258=DIRECTION('',(-1.,0.,0.));
#1259=DIRECTION('center_axis',(0.,1.,0.));
#1260=DIRECTION('ref_axis',(-1.,0.,0.));
#1261=DIRECTION('center_axis',(0.,0.,1.));
#1262=DIRECTION('ref_axis',(1.,0.,0.));
#1263=DIRECTION('center_axis',(0.,0.,-1.));
#1264=DIRECTION('ref_axis',(1.,0.,0.));
#1265=DIRECTION('center_axis',(0.,0.,-1.));
#1266=DIRECTION('ref_axis',(1.,0.,0.));
#1267=DIRECTION('center_axis',(0.,0.,-1.));
#1268=DIRECTION('ref_axis',(1.,0.,0.));
#1269=DIRECTION('center_axis',(0.,0.,-1.));
#1270=DIRECTION('ref_axis',(1.,0.,0.));
#1271=DIRECTION('',(0.,0.,1.));
#1272=DIRECTION('center_axis',(0.,0.,-1.));
#1273=DIRECTION('ref_axis',(1.,0.,0.));
#1274=DIRECTION('center_axis',(0.,0.,-1.));
#1275=DIRECTION('ref_axis',(1.,0.,0.));
#1276=DIRECTION('center_axis',(0.,0.,-1.));
#1277=DIRECTION('ref_axis',(1.,0.,0.));
#1278=DIRECTION('',(0.,0.,1.));
#1279=DIRECTION('center_axis',(0.,0.,-1.));
#1280=DIRECTION('ref_axis',(1.,0.,0.));
#1281=CARTESIAN_POINT('',(0.,0.,0.));
#1282=CARTESIAN_POINT('Origin',(32.3596618305203,-20.,23.8586582966522));
#1283=CARTESIAN_POINT('',(30.8596618305203,-20.,23.8586582966522));
#1284=CARTESIAN_POINT('Origin',(32.3596618305203,-20.,23.8586582966522));
#1285=CARTESIAN_POINT('',(30.8596618305203,-15.,23.8586582966522));
#1286=CARTESIAN_POINT('',(30.8596618305203,-20.,23.8586582966522));
#1287=CARTESIAN_POINT('Origin',(32.3596618305203,-15.,23.8586582966522));
#1288=CARTESIAN_POINT('Origin',(41.3596618305203,-20.,16.3586582966522));
#1289=CARTESIAN_POINT('',(39.8596618305203,-20.,16.3586582966522));
#1290=CARTESIAN_POINT('Origin',(41.3596618305203,-20.,16.3586582966522));
#1291=CARTESIAN_POINT('',(39.8596618305203,-15.,16.3586582966522));
#1292=CARTESIAN_POINT('',(39.8596618305203,-20.,16.3586582966522));
#1293=CARTESIAN_POINT('Origin',(41.3596618305203,-15.,16.3586582966522));
#1294=CARTESIAN_POINT('Origin',(41.3596618305203,-20.,31.3586582966522));
#1295=CARTESIAN_POINT('',(39.8596618305203,-20.,31.3586582966522));
#1296=CARTESIAN_POINT('Origin',(41.3596618305203,-20.,31.3586582966522));
#1297=CARTESIAN_POINT('',(39.8596618305203,-15.,31.3586582966522));
#1298=CARTESIAN_POINT('',(39.8596618305203,-20.,31.3586582966522));
#1299=CARTESIAN_POINT('Origin',(41.3596618305203,-15.,31.3586582966522));
#1300=CARTESIAN_POINT('Origin',(50.3596618305203,-20.,23.8586582966522));
#1301=CARTESIAN_POINT('',(48.9139793299462,-20.,23.8586582966522));
#1302=CARTESIAN_POINT('Origin',(50.3596618305203,-20.,23.8586582966522));
#1303=CARTESIAN_POINT('',(48.9139793299462,-15.,23.8586582966522));
#1304=CARTESIAN_POINT('',(48.9139793299462,-20.,23.8586582966522));
#1305=CARTESIAN_POINT('Origin',(50.3596618305203,-15.,23.8586582966522));
#1306=CARTESIAN_POINT('Origin',(2.5,-11.5,33.));
#1307=CARTESIAN_POINT('',(0.,-12.5409836065574,33.));
#1308=CARTESIAN_POINT('',(5.,-12.5409836065574,33.));
#1309=CARTESIAN_POINT('',(1.25,-12.5409836065574,33.));
#1310=CARTESIAN_POINT('',(0.,-15.,33.));
#1311=CARTESIAN_POINT('',(0.,-0.750000000000002,33.));
#1312=CARTESIAN_POINT('',(5.,-15.,33.));
#1313=CARTESIAN_POINT('',(0.,-15.,33.));
#1314=CARTESIAN_POINT('',(5.,-5.75,33.));
#1315=CARTESIAN_POINT('Origin',(62.5000004842877,-10.0000000372529,33.));
#1316=CARTESIAN_POINT('',(60.,-12.5409836065574,33.));
#1317=CARTESIAN_POINT('',(65.0000009685755,-12.5409836065574,33.));
#1318=CARTESIAN_POINT('',(63.7500002421439,-12.5409836065574,33.));
#1319=CARTESIAN_POINT('',(60.,-15.,33.));
#1320=CARTESIAN_POINT('',(60.,-5.00000001862646,33.));
#1321=CARTESIAN_POINT('',(65.0000009685755,-15.,33.));
#1322=CARTESIAN_POINT('',(60.,-15.,33.));
#1323=CARTESIAN_POINT('',(65.,-5.00000001862646,33.));
#1324=CARTESIAN_POINT('Origin',(5.,-2.22044604925031E-15,20.25));
#1325=CARTESIAN_POINT('',(5.,-15.,5.));
#1326=CARTESIAN_POINT('',(5.,-15.,12.625));
#1327=CARTESIAN_POINT('',(5.,15.,5.));
#1328=CARTESIAN_POINT('',(5.,6.25,5.));
#1329=CARTESIAN_POINT('',(5.,-15.,35.5));
#1330=CARTESIAN_POINT('Origin',(65.,0.,0.));
#1331=CARTESIAN_POINT('',(65.,-15.,35.5));
#1332=CARTESIAN_POINT('',(65.,-15.,17.75));
#1333=CARTESIAN_POINT('',(65.,-20.,35.5));
#1334=CARTESIAN_POINT('',(65.,-18.75,35.5));
#1335=CARTESIAN_POINT('',(65.,-20.,0.));
#1336=CARTESIAN_POINT('',(65.,-20.,0.));
#1337=CARTESIAN_POINT('',(65.,34.,0.));
#1338=CARTESIAN_POINT('',(65.,10.,0.));
#1339=CARTESIAN_POINT('',(65.,34.,35.5));
#1340=CARTESIAN_POINT('',(65.,34.,0.));
#1341=CARTESIAN_POINT('',(65.,29.,35.5));
#1342=CARTESIAN_POINT('',(65.,29.,35.5));
#1343=CARTESIAN_POINT('',(65.,29.,5.));
#1344=CARTESIAN_POINT('',(65.,29.,0.));
#1345=CARTESIAN_POINT('',(65.,20.,5.));
#1346=CARTESIAN_POINT('',(65.,20.,5.));
#1347=CARTESIAN_POINT('',(65.,20.,35.5));
#1348=CARTESIAN_POINT('',(65.,20.,0.));
#1349=CARTESIAN_POINT('',(65.,15.,35.5));
#1350=CARTESIAN_POINT('',(65.,15.,35.5));
#1351=CARTESIAN_POINT('',(65.,15.,5.));
#1352=CARTESIAN_POINT('',(65.,15.,0.));
#1353=CARTESIAN_POINT('',(65.,-15.,35.5));
#1354=CARTESIAN_POINT('Origin',(60.,-2.22044604925031E-15,20.25));
#1355=CARTESIAN_POINT('',(60.,15.,5.));
#1356=CARTESIAN_POINT('',(60.,-15.,35.5));
#1357=CARTESIAN_POINT('',(60.,-15.,5.));
#1358=CARTESIAN_POINT('',(60.,6.25,5.));
#1359=CARTESIAN_POINT('',(60.,-15.,12.625));
#1360=CARTESIAN_POINT('Origin',(0.,-15.,35.5));
#1361=CARTESIAN_POINT('',(0.,15.,5.));
#1362=CARTESIAN_POINT('',(65.,15.,5.));
#1363=CARTESIAN_POINT('',(0.,-15.,35.5));
#1364=CARTESIAN_POINT('Origin',(32.5,12.5,5.));
#1365=CARTESIAN_POINT('',(48.75,-15.,5.));
#1366=CARTESIAN_POINT('',(65.,15.,5.));
#1367=CARTESIAN_POINT('Origin',(65.,-15.,5.));
#1368=CARTESIAN_POINT('',(0.,-15.,35.5));
#1369=CARTESIAN_POINT('',(0.,-15.,17.75));
#1370=CARTESIAN_POINT('',(48.75,-15.,35.5));
#1371=CARTESIAN_POINT('Origin',(65.,-15.,35.5));
#1372=CARTESIAN_POINT('',(65.,15.,5.));
#1373=CARTESIAN_POINT('Origin',(32.5,-17.5,35.5));
#1374=CARTESIAN_POINT('',(0.,-20.,35.5));
#1375=CARTESIAN_POINT('',(0.,-16.25,35.5));
#1376=CARTESIAN_POINT('',(16.25,-20.,35.5));
#1377=CARTESIAN_POINT('Origin',(32.5,31.5,35.5));
#1378=CARTESIAN_POINT('',(0.,34.,35.5));
#1379=CARTESIAN_POINT('',(65.,34.,35.5));
#1380=CARTESIAN_POINT('',(0.,29.,35.5));
#1381=CARTESIAN_POINT('',(0.,34.,35.5));
#1382=CARTESIAN_POINT('',(65.,29.,35.5));
#1383=CARTESIAN_POINT('Origin',(32.5,17.5,35.5));
#1384=CARTESIAN_POINT('',(38.8596618305203,15.,35.5));
#1385=CARTESIAN_POINT('',(38.8596618305203,20.,35.5));
#1386=CARTESIAN_POINT('',(38.8596618305203,16.25,35.5));
#1387=CARTESIAN_POINT('',(0.,20.,35.5));
#1388=CARTESIAN_POINT('',(65.,20.,35.5));
#1389=CARTESIAN_POINT('',(0.,15.,35.5));
#1390=CARTESIAN_POINT('',(0.,20.,35.5));
#1391=CARTESIAN_POINT('',(65.,15.,35.5));
#1392=CARTESIAN_POINT('Origin',(32.5,17.5,35.5));
#1393=CARTESIAN_POINT('',(43.8571749023615,20.,35.5));
#1394=CARTESIAN_POINT('',(43.8571749023615,15.,35.5));
#1395=CARTESIAN_POINT('',(43.8571749023615,16.25,35.5));
#1396=CARTESIAN_POINT('',(65.,15.,35.5));
#1397=CARTESIAN_POINT('',(65.,20.,35.5));
#1398=CARTESIAN_POINT('Origin',(38.8596618305203,15.,23.8586582966522));
#1399=CARTESIAN_POINT('',(38.8596618305203,15.,23.8586582966522));
#1400=CARTESIAN_POINT('',(38.8596618305203,15.,11.9293291483261));
#1401=CARTESIAN_POINT('',(38.8596618305203,20.,23.8586582966522));
#1402=CARTESIAN_POINT('',(38.8596618305203,15.,23.8586582966522));
#1403=CARTESIAN_POINT('',(38.8596618305203,20.,11.9293291483261));
#1404=CARTESIAN_POINT('Origin',(43.8571749023615,15.,33.));
#1405=CARTESIAN_POINT('',(43.8571749023615,15.,23.9701412818225));
#1406=CARTESIAN_POINT('',(43.8571749023615,15.,16.5));
#1407=CARTESIAN_POINT('',(43.8571749023615,20.,23.9701412818225));
#1408=CARTESIAN_POINT('',(43.8571749023615,20.,16.5));
#1409=CARTESIAN_POINT('',(43.8571749023615,15.,23.9701412818225));
#1410=CARTESIAN_POINT('Origin',(0.,15.,0.));
#1411=CARTESIAN_POINT('Origin',(41.3596618305203,15.,23.8586582966522));
#1412=CARTESIAN_POINT('',(0.,15.,0.));
#1413=CARTESIAN_POINT('',(29.027799854484,15.,19.));
#1414=CARTESIAN_POINT('Origin',(24.027799854484,15.,19.));
#1415=CARTESIAN_POINT('Origin',(65.,-20.,0.));
#1416=CARTESIAN_POINT('',(0.,-20.,0.));
#1417=CARTESIAN_POINT('',(0.,-20.,5.));
#1418=CARTESIAN_POINT('',(48.75,-20.,0.));
#1419=CARTESIAN_POINT('Origin',(41.3596618305203,15.,23.8586582966522));
#1420=CARTESIAN_POINT('Origin',(41.3596618305203,20.,23.8586582966522));
#1421=CARTESIAN_POINT('Origin',(6.,-6.63599994039535,0.));
#1422=CARTESIAN_POINT('',(2.75,-6.63599994039535,-2.));
#1423=CARTESIAN_POINT('Origin',(6.,-6.63599994039535,-2.));
#1424=CARTESIAN_POINT('',(2.75,-6.63599994039535,0.));
#1425=CARTESIAN_POINT('',(2.75,-6.63599994039535,0.));
#1426=CARTESIAN_POINT('Origin',(6.,-6.63599994039535,0.));
#1427=CARTESIAN_POINT('Origin',(6.,-6.63599994039535,-2.));
#1428=CARTESIAN_POINT('Origin',(23.5,-6.63599994039535,0.));
#1429=CARTESIAN_POINT('',(20.25,-6.63599994039535,-2.));
#1430=CARTESIAN_POINT('Origin',(23.5,-6.63599994039535,-2.));
#1431=CARTESIAN_POINT('',(20.25,-6.63599994039535,0.));
#1432=CARTESIAN_POINT('',(20.25,-6.63599994039535,0.));
#1433=CARTESIAN_POINT('Origin',(23.5,-6.63599994039535,0.));
#1434=CARTESIAN_POINT('Origin',(23.5,-6.63599994039535,-2.));
#1435=CARTESIAN_POINT('Origin',(1.61778115328528E-31,10.,0.));
#1436=CARTESIAN_POINT('',(0.,20.,5.));
#1437=CARTESIAN_POINT('',(0.,20.,0.));
#1438=CARTESIAN_POINT('',(0.,29.,5.));
#1439=CARTESIAN_POINT('',(0.,29.,5.));
#1440=CARTESIAN_POINT('',(0.,29.,0.));
#1441=CARTESIAN_POINT('',(0.,34.,0.));
#1442=CARTESIAN_POINT('',(0.,34.,0.));
#1443=CARTESIAN_POINT('',(0.,10.,0.));
#1444=CARTESIAN_POINT('Origin',(58.5,20.6360000596046,0.));
#1445=CARTESIAN_POINT('',(55.25,20.6360000596046,-2.));
#1446=CARTESIAN_POINT('Origin',(58.5,20.6360000596046,-2.));
#1447=CARTESIAN_POINT('',(55.25,20.6360000596046,0.));
#1448=CARTESIAN_POINT('',(55.25,20.6360000596046,0.));
#1449=CARTESIAN_POINT('Origin',(58.5,20.6360000596046,0.));
#1450=CARTESIAN_POINT('Origin',(58.5,20.6360000596046,-2.));
#1451=CARTESIAN_POINT('Origin',(23.5,20.6360000596046,0.));
#1452=CARTESIAN_POINT('',(20.25,20.6360000596046,-2.));
#1453=CARTESIAN_POINT('Origin',(23.5,20.6360000596046,-2.));
#1454=CARTESIAN_POINT('',(20.25,20.6360000596046,0.));
#1455=CARTESIAN_POINT('',(20.25,20.6360000596046,0.));
#1456=CARTESIAN_POINT('Origin',(23.5,20.6360000596046,0.));
#1457=CARTESIAN_POINT('Origin',(23.5,20.6360000596046,-2.));
#1458=CARTESIAN_POINT('Origin',(23.5,7.00000005960464,0.));
#1459=CARTESIAN_POINT('',(20.25,7.00000005960464,-2.));
#1460=CARTESIAN_POINT('Origin',(23.5,7.00000005960464,-2.));
#1461=CARTESIAN_POINT('',(20.25,7.00000005960464,0.));
#1462=CARTESIAN_POINT('',(20.25,7.00000005960464,0.));
#1463=CARTESIAN_POINT('Origin',(23.5,7.00000005960464,0.));
#1464=CARTESIAN_POINT('Origin',(23.5,7.00000005960464,-2.));
#1465=CARTESIAN_POINT('Origin',(41.,20.6360000596046,0.));
#1466=CARTESIAN_POINT('',(37.75,20.6360000596046,-2.));
#1467=CARTESIAN_POINT('Origin',(41.,20.6360000596046,-2.));
#1468=CARTESIAN_POINT('',(37.75,20.6360000596046,0.));
#1469=CARTESIAN_POINT('',(37.75,20.6360000596046,0.));
#1470=CARTESIAN_POINT('Origin',(41.,20.6360000596046,0.));
#1471=CARTESIAN_POINT('Origin',(41.,20.6360000596046,-2.));
#1472=CARTESIAN_POINT('Origin',(58.5,7.00000005960464,0.));
#1473=CARTESIAN_POINT('',(55.25,7.00000005960464,-2.));
#1474=CARTESIAN_POINT('Origin',(58.5,7.00000005960464,-2.));
#1475=CARTESIAN_POINT('',(55.25,7.00000005960464,0.));
#1476=CARTESIAN_POINT('',(55.25,7.00000005960464,0.));
#1477=CARTESIAN_POINT('Origin',(58.5,7.00000005960464,0.));
#1478=CARTESIAN_POINT('Origin',(58.5,7.00000005960464,-2.));
#1479=CARTESIAN_POINT('Origin',(6.,20.6360000596046,0.));
#1480=CARTESIAN_POINT('',(2.75,20.6360000596046,-2.));
#1481=CARTESIAN_POINT('Origin',(6.,20.6360000596046,-2.));
#1482=CARTESIAN_POINT('',(2.75,20.6360000596046,0.));
#1483=CARTESIAN_POINT('',(2.75,20.6360000596046,0.));
#1484=CARTESIAN_POINT('Origin',(6.,20.6360000596046,0.));
#1485=CARTESIAN_POINT('Origin',(6.,20.6360000596046,-2.));
#1486=CARTESIAN_POINT('Origin',(6.,7.00000005960464,0.));
#1487=CARTESIAN_POINT('',(2.75,7.00000005960464,-2.));
#1488=CARTESIAN_POINT('Origin',(6.,7.00000005960464,-2.));
#1489=CARTESIAN_POINT('',(2.75,7.00000005960464,0.));
#1490=CARTESIAN_POINT('',(2.75,7.00000005960464,0.));
#1491=CARTESIAN_POINT('Origin',(6.,7.00000005960464,0.));
#1492=CARTESIAN_POINT('Origin',(6.,7.00000005960464,-2.));
#1493=CARTESIAN_POINT('Origin',(41.,7.00000005960464,0.));
#1494=CARTESIAN_POINT('',(37.75,7.00000005960464,-2.));
#1495=CARTESIAN_POINT('Origin',(41.,7.00000005960464,-2.));
#1496=CARTESIAN_POINT('',(37.75,7.00000005960464,0.));
#1497=CARTESIAN_POINT('',(37.75,7.00000005960464,0.));
#1498=CARTESIAN_POINT('Origin',(41.,7.00000005960464,0.));
#1499=CARTESIAN_POINT('Origin',(41.,7.00000005960464,-2.));
#1500=CARTESIAN_POINT('Origin',(24.027799854484,34.,19.));
#1501=CARTESIAN_POINT('',(29.027799854484,20.,19.));
#1502=CARTESIAN_POINT('Origin',(24.027799854484,20.,19.));
#1503=CARTESIAN_POINT('',(29.027799854484,34.,19.));
#1504=CARTESIAN_POINT('Origin',(24.027799854484,34.,19.));
#1505=CARTESIAN_POINT('',(29.027799854484,34.,19.));
#1506=CARTESIAN_POINT('Origin',(24.027799854484,34.,19.));
#1507=CARTESIAN_POINT('',(29.027799854484,29.,19.));
#1508=CARTESIAN_POINT('',(29.027799854484,34.,19.));
#1509=CARTESIAN_POINT('Origin',(24.027799854484,29.,19.));
#1510=CARTESIAN_POINT('Origin',(0.,29.,0.));
#1511=CARTESIAN_POINT('',(65.,29.,5.));
#1512=CARTESIAN_POINT('Origin',(65.,34.,0.));
#1513=CARTESIAN_POINT('',(65.,34.,0.));
#1514=CARTESIAN_POINT('Origin',(32.5,24.5,5.));
#1515=CARTESIAN_POINT('',(48.75,20.,5.));
#1516=CARTESIAN_POINT('Origin',(65.,20.,0.));
#1517=CARTESIAN_POINT('Origin',(32.5,5.,0.));
#1518=CARTESIAN_POINT('',(55.25,-6.63599994039535,0.));
#1519=CARTESIAN_POINT('Origin',(58.5,-6.63599994039535,0.));
#1520=CARTESIAN_POINT('',(37.75,-6.63599994039535,0.));
#1521=CARTESIAN_POINT('Origin',(41.,-6.63599994039535,0.));
#1522=CARTESIAN_POINT('Origin',(41.,-6.63599994039535,0.));
#1523=CARTESIAN_POINT('',(37.75,-6.63599994039535,-2.));
#1524=CARTESIAN_POINT('Origin',(41.,-6.63599994039535,-2.));
#1525=CARTESIAN_POINT('',(37.75,-6.63599994039535,0.));
#1526=CARTESIAN_POINT('Origin',(41.,-6.63599994039535,-2.));
#1527=CARTESIAN_POINT('Origin',(58.5,-6.63599994039535,0.));
#1528=CARTESIAN_POINT('',(55.25,-6.63599994039535,-2.));
#1529=CARTESIAN_POINT('Origin',(58.5,-6.63599994039535,-2.));
#1530=CARTESIAN_POINT('',(55.25,-6.63599994039535,0.));
#1531=CARTESIAN_POINT('Origin',(58.5,-6.63599994039535,-2.));
#1532=UNCERTAINTY_MEASURE_WITH_UNIT(LENGTH_MEASURE(0.01),#1536,
'DISTANCE_ACCURACY_VALUE',
'Maximum model space distance between geometric entities at asserted c
onnectivities');
#1533=UNCERTAINTY_MEASURE_WITH_UNIT(LENGTH_MEASURE(0.01),#1536,
'DISTANCE_ACCURACY_VALUE',
'Maximum model space distance between geometric entities at asserted c
onnectivities');
#1534=(
GEOMETRIC_REPRESENTATION_CONTEXT(3)
GLOBAL_UNCERTAINTY_ASSIGNED_CONTEXT((#1532))
GLOBAL_UNIT_ASSIGNED_CONTEXT((#1536,#1538,#1539))
REPRESENTATION_CONTEXT('','3D')
);
#1535=(
GEOMETRIC_REPRESENTATION_CONTEXT(3)
GLOBAL_UNCERTAINTY_ASSIGNED_CONTEXT((#1533))
GLOBAL_UNIT_ASSIGNED_CONTEXT((#1536,#1538,#1539))
REPRESENTATION_CONTEXT('','3D')
);
#1536=(
LENGTH_UNIT()
NAMED_UNIT(*)
SI_UNIT(.MILLI.,.METRE.)
);
#1537=(
LENGTH_UNIT()
NAMED_UNIT(*)
SI_UNIT($,.METRE.)
);
#1538=(
NAMED_UNIT(*)
PLANE_ANGLE_UNIT()
SI_UNIT($,.RADIAN.)
);
#1539=(
NAMED_UNIT(*)
SI_UNIT($,.STERADIAN.)
SOLID_ANGLE_UNIT()
);
#1540=SHAPE_DEFINITION_REPRESENTATION(#1541,#1542);
#1541=PRODUCT_DEFINITION_SHAPE('',$,#1544);
#1542=SHAPE_REPRESENTATION('',(#922),#1534);
#1543=PRODUCT_DEFINITION_CONTEXT('part definition',#1548,'design');
#1544=PRODUCT_DEFINITION('v3','v3 v3',#1545,#1543);
#1545=PRODUCT_DEFINITION_FORMATION('',$,#1550);
#1546=PRODUCT_RELATED_PRODUCT_CATEGORY('v3 v3','v3 v3',(#1550));
#1547=APPLICATION_PROTOCOL_DEFINITION('international standard',
'automotive_design',2009,#1548);
#1548=APPLICATION_CONTEXT(
'Core Data for Automotive Mechanical Design Process');
#1549=PRODUCT_CONTEXT('part definition',#1548,'mechanical');
#1550=PRODUCT('v3','v3 v3',$,(#1549));
#1551=PRESENTATION_STYLE_ASSIGNMENT((#1552));
#1552=SURFACE_STYLE_USAGE(.BOTH.,#1553);
#1553=SURFACE_SIDE_STYLE('',(#1554));
#1554=SURFACE_STYLE_FILL_AREA(#1555);
#1555=FILL_AREA_STYLE('Steel - Satin',(#1556));
#1556=FILL_AREA_STYLE_COLOUR('Steel - Satin',#1557);
#1557=COLOUR_RGB('Steel - Satin',0.627450980392157,0.627450980392157,0.627450980392157);
ENDSEC;
END-ISO-10303-21;
