ISO-10303-21;
HEADER;
/* Generated by software containing ST-Developer
 * from STEP Tools, Inc. (www.steptools.com) 
 */

FILE_DESCRIPTION(
/* description */ (''),
/* implementation_level */ '2;1');

FILE_NAME(
/* name */ 'bottom control arm driver side v1.step',
/* time_stamp */ '2025-05-27T01:52:47-07:00',
/* author */ (''),
/* organization */ (''),
/* preprocessor_version */ 'ST-DEVELOPER v20.1',
/* originating_system */ 'Autodesk Translation Framework v14.10.0.0',
/* authorisation */ '');

FILE_SCHEMA (('AUTOMOTIVE_DESIGN { 1 0 10303 214 3 1 1 }'));
ENDSEC;

DATA;
#10=MECHANICAL_DESIGN_GEOMETRIC_PRESENTATION_REPRESENTATION('',(#13,#14),
#946);
#11=SHAPE_REPRESENTATION_RELATIONSHIP('SRR','None',#953,#12);
#12=ADVANCED_BREP_SHAPE_REPRESENTATION('',(#15,#16),#945);
#13=STYLED_ITEM('',(#962),#15);
#14=STYLED_ITEM('',(#962),#16);
#15=MANIFOLD_SOLID_BREP('Body1',#537);
#16=MANIFOLD_SOLID_BREP('Body2',#538);
#17=SPHERICAL_SURFACE('',#591,3.2);
#18=SPHERICAL_SURFACE('',#611,2.95);
#19=TOROIDAL_SURFACE('',#586,3.11287648325468,0.5);
#20=TOROIDAL_SURFACE('',#595,3.11287648325468,0.5);
#21=FACE_BOUND('',#78,.T.);
#22=FACE_BOUND('',#79,.T.);
#23=FACE_BOUND('',#82,.T.);
#24=FACE_BOUND('',#87,.T.);
#25=FACE_BOUND('',#89,.T.);
#26=FACE_BOUND('',#90,.T.);
#27=FACE_BOUND('',#93,.T.);
#28=FACE_BOUND('',#96,.T.);
#29=FACE_BOUND('',#100,.T.);
#30=FACE_BOUND('',#106,.T.);
#31=FACE_BOUND('',#108,.T.);
#32=FACE_BOUND('',#111,.T.);
#33=PLANE('',#564);
#34=PLANE('',#567);
#35=PLANE('',#568);
#36=PLANE('',#578);
#37=PLANE('',#581);
#38=PLANE('',#585);
#39=PLANE('',#597);
#40=PLANE('',#598);
#41=PLANE('',#599);
#42=PLANE('',#601);
#43=PLANE('',#605);
#44=PLANE('',#607);
#45=FACE_OUTER_BOUND('',#73,.T.);
#46=FACE_OUTER_BOUND('',#74,.T.);
#47=FACE_OUTER_BOUND('',#75,.T.);
#48=FACE_OUTER_BOUND('',#76,.T.);
#49=FACE_OUTER_BOUND('',#77,.T.);
#50=FACE_OUTER_BOUND('',#80,.T.);
#51=FACE_OUTER_BOUND('',#81,.T.);
#52=FACE_OUTER_BOUND('',#83,.T.);
#53=FACE_OUTER_BOUND('',#84,.T.);
#54=FACE_OUTER_BOUND('',#85,.T.);
#55=FACE_OUTER_BOUND('',#86,.T.);
#56=FACE_OUTER_BOUND('',#88,.T.);
#57=FACE_OUTER_BOUND('',#91,.T.);
#58=FACE_OUTER_BOUND('',#92,.T.);
#59=FACE_OUTER_BOUND('',#94,.T.);
#60=FACE_OUTER_BOUND('',#95,.T.);
#61=FACE_OUTER_BOUND('',#97,.T.);
#62=FACE_OUTER_BOUND('',#98,.T.);
#63=FACE_OUTER_BOUND('',#99,.T.);
#64=FACE_OUTER_BOUND('',#101,.T.);
#65=FACE_OUTER_BOUND('',#102,.T.);
#66=FACE_OUTER_BOUND('',#103,.T.);
#67=FACE_OUTER_BOUND('',#104,.T.);
#68=FACE_OUTER_BOUND('',#105,.T.);
#69=FACE_OUTER_BOUND('',#107,.T.);
#70=FACE_OUTER_BOUND('',#109,.T.);
#71=FACE_OUTER_BOUND('',#110,.T.);
#72=FACE_OUTER_BOUND('',#112,.T.);
#73=EDGE_LOOP('',(#349,#350,#351,#352));
#74=EDGE_LOOP('',(#353,#354,#355,#356));
#75=EDGE_LOOP('',(#357,#358,#359,#360));
#76=EDGE_LOOP('',(#361,#362,#363,#364));
#77=EDGE_LOOP('',(#365,#366,#367,#368,#369,#370,#371,#372));
#78=EDGE_LOOP('',(#373));
#79=EDGE_LOOP('',(#374));
#80=EDGE_LOOP('',(#375,#376,#377,#378,#379,#380,#381,#382));
#81=EDGE_LOOP('',(#383,#384,#385,#386,#387,#388));
#82=EDGE_LOOP('',(#389));
#83=EDGE_LOOP('',(#390,#391,#392,#393));
#84=EDGE_LOOP('',(#394,#395,#396,#397));
#85=EDGE_LOOP('',(#398,#399,#400,#401));
#86=EDGE_LOOP('',(#402,#403,#404,#405,#406,#407,#408,#409,#410,#411));
#87=EDGE_LOOP('',(#412));
#88=EDGE_LOOP('',(#413,#414,#415,#416,#417,#418,#419,#420));
#89=EDGE_LOOP('',(#421));
#90=EDGE_LOOP('',(#422));
#91=EDGE_LOOP('',(#423,#424,#425,#426));
#92=EDGE_LOOP('',(#427,#428,#429,#430));
#93=EDGE_LOOP('',(#431));
#94=EDGE_LOOP('',(#432,#433,#434,#435,#436,#437));
#95=EDGE_LOOP('',(#438,#439,#440,#441,#442,#443,#444));
#96=EDGE_LOOP('',(#445));
#97=EDGE_LOOP('',(#446,#447,#448,#449));
#98=EDGE_LOOP('',(#450,#451,#452,#453));
#99=EDGE_LOOP('',(#454,#455,#456,#457));
#100=EDGE_LOOP('',(#458));
#101=EDGE_LOOP('',(#459,#460,#461,#462));
#102=EDGE_LOOP('',(#463,#464,#465,#466));
#103=EDGE_LOOP('',(#467,#468,#469,#470));
#104=EDGE_LOOP('',(#471,#472,#473,#474));
#105=EDGE_LOOP('',(#475));
#106=EDGE_LOOP('',(#476));
#107=EDGE_LOOP('',(#477));
#108=EDGE_LOOP('',(#478));
#109=EDGE_LOOP('',(#479,#480,#481,#482));
#110=EDGE_LOOP('',(#483,#484,#485,#486,#487,#488,#489));
#111=EDGE_LOOP('',(#490));
#112=EDGE_LOOP('',(#491,#492,#493,#494,#495,#496));
#113=LINE('',#794,#149);
#114=LINE('',#797,#150);
#115=LINE('',#802,#151);
#116=LINE('',#809,#152);
#117=LINE('',#814,#153);
#118=LINE('',#818,#154);
#119=LINE('',#822,#155);
#120=LINE('',#824,#156);
#121=LINE('',#825,#157);
#122=LINE('',#830,#158);
#123=LINE('',#832,#159);
#124=LINE('',#834,#160);
#125=LINE('',#836,#161);
#126=LINE('',#838,#162);
#127=LINE('',#839,#163);
#128=LINE('',#842,#164);
#129=LINE('',#846,#165);
#130=LINE('',#847,#166);
#131=LINE('',#852,#167);
#132=LINE('',#858,#168);
#133=LINE('',#863,#169);
#134=LINE('',#866,#170);
#135=LINE('',#868,#171);
#136=LINE('',#870,#172);
#137=LINE('',#872,#173);
#138=LINE('',#874,#174);
#139=LINE('',#876,#175);
#140=LINE('',#879,#176);
#141=LINE('',#883,#177);
#142=LINE('',#888,#178);
#143=LINE('',#907,#179);
#144=LINE('',#910,#180);
#145=LINE('',#912,#181);
#146=LINE('',#918,#182);
#147=LINE('',#929,#183);
#148=LINE('',#942,#184);
#149=VECTOR('',#624,10.);
#150=VECTOR('',#627,10.);
#151=VECTOR('',#632,10.);
#152=VECTOR('',#641,10.);
#153=VECTOR('',#646,1.);
#154=VECTOR('',#651,10.);
#155=VECTOR('',#654,10.);
#156=VECTOR('',#655,10.);
#157=VECTOR('',#656,10.);
#158=VECTOR('',#661,10.);
#159=VECTOR('',#662,10.);
#160=VECTOR('',#663,10.);
#161=VECTOR('',#664,10.);
#162=VECTOR('',#665,10.);
#163=VECTOR('',#666,10.);
#164=VECTOR('',#669,10.);
#165=VECTOR('',#672,10.);
#166=VECTOR('',#673,10.);
#167=VECTOR('',#678,1.25);
#168=VECTOR('',#685,1.25);
#169=VECTOR('',#692,10.);
#170=VECTOR('',#695,10.);
#171=VECTOR('',#696,10.);
#172=VECTOR('',#697,10.);
#173=VECTOR('',#698,10.);
#174=VECTOR('',#699,10.);
#175=VECTOR('',#700,10.);
#176=VECTOR('',#703,10.);
#177=VECTOR('',#708,10.);
#178=VECTOR('',#717,10.);
#179=VECTOR('',#742,10.);
#180=VECTOR('',#747,10.);
#181=VECTOR('',#750,10.);
#182=VECTOR('',#757,1.);
#183=VECTOR('',#772,1.5);
#184=VECTOR('',#787,1.5);
#185=CIRCLE('',#553,2.);
#186=CIRCLE('',#554,2.);
#187=CIRCLE('',#556,2.5);
#188=CIRCLE('',#557,2.5);
#189=CIRCLE('',#559,2.);
#190=CIRCLE('',#560,2.);
#191=CIRCLE('',#562,1.);
#192=CIRCLE('',#563,1.);
#193=CIRCLE('',#565,2.5);
#194=CIRCLE('',#566,1.25);
#195=CIRCLE('',#569,3.75);
#196=CIRCLE('',#570,3.11287648325468);
#197=CIRCLE('',#572,1.25);
#198=CIRCLE('',#574,1.25);
#199=CIRCLE('',#575,1.25);
#200=CIRCLE('',#577,2.5);
#201=CIRCLE('',#579,3.75);
#202=CIRCLE('',#580,3.11287648325468);
#203=CIRCLE('',#582,2.5);
#204=CIRCLE('',#584,2.5);
#205=CIRCLE('',#587,0.5);
#206=CIRCLE('',#588,2.69221749903107);
#207=CIRCLE('',#589,2.69221749903107);
#208=CIRCLE('',#590,2.69221749903107);
#209=CIRCLE('',#592,3.2);
#210=CIRCLE('',#593,3.2);
#211=CIRCLE('',#594,2.69221749903107);
#212=CIRCLE('',#596,0.5);
#213=CIRCLE('',#603,1.);
#214=CIRCLE('',#604,1.);
#215=CIRCLE('',#606,1.5);
#216=CIRCLE('',#608,1.5);
#217=CIRCLE('',#610,1.5);
#218=CIRCLE('',#612,1.5);
#219=CIRCLE('',#613,2.95);
#220=CIRCLE('',#614,1.5);
#221=CIRCLE('',#615,1.5);
#222=CIRCLE('',#616,2.95);
#223=VERTEX_POINT('',#790);
#224=VERTEX_POINT('',#791);
#225=VERTEX_POINT('',#793);
#226=VERTEX_POINT('',#795);
#227=VERTEX_POINT('',#799);
#228=VERTEX_POINT('',#801);
#229=VERTEX_POINT('',#805);
#230=VERTEX_POINT('',#807);
#231=VERTEX_POINT('',#811);
#232=VERTEX_POINT('',#813);
#233=VERTEX_POINT('',#817);
#234=VERTEX_POINT('',#819);
#235=VERTEX_POINT('',#821);
#236=VERTEX_POINT('',#823);
#237=VERTEX_POINT('',#826);
#238=VERTEX_POINT('',#829);
#239=VERTEX_POINT('',#831);
#240=VERTEX_POINT('',#833);
#241=VERTEX_POINT('',#835);
#242=VERTEX_POINT('',#837);
#243=VERTEX_POINT('',#841);
#244=VERTEX_POINT('',#843);
#245=VERTEX_POINT('',#845);
#246=VERTEX_POINT('',#848);
#247=VERTEX_POINT('',#851);
#248=VERTEX_POINT('',#855);
#249=VERTEX_POINT('',#857);
#250=VERTEX_POINT('',#861);
#251=VERTEX_POINT('',#865);
#252=VERTEX_POINT('',#867);
#253=VERTEX_POINT('',#869);
#254=VERTEX_POINT('',#871);
#255=VERTEX_POINT('',#873);
#256=VERTEX_POINT('',#875);
#257=VERTEX_POINT('',#877);
#258=VERTEX_POINT('',#880);
#259=VERTEX_POINT('',#890);
#260=VERTEX_POINT('',#892);
#261=VERTEX_POINT('',#894);
#262=VERTEX_POINT('',#898);
#263=VERTEX_POINT('',#900);
#264=VERTEX_POINT('',#902);
#265=VERTEX_POINT('',#915);
#266=VERTEX_POINT('',#917);
#267=VERTEX_POINT('',#921);
#268=VERTEX_POINT('',#924);
#269=VERTEX_POINT('',#927);
#270=VERTEX_POINT('',#931);
#271=VERTEX_POINT('',#932);
#272=VERTEX_POINT('',#934);
#273=VERTEX_POINT('',#936);
#274=VERTEX_POINT('',#939);
#275=EDGE_CURVE('',#223,#224,#185,.T.);
#276=EDGE_CURVE('',#224,#225,#113,.T.);
#277=EDGE_CURVE('',#225,#226,#186,.T.);
#278=EDGE_CURVE('',#226,#223,#114,.T.);
#279=EDGE_CURVE('',#227,#224,#187,.T.);
#280=EDGE_CURVE('',#228,#227,#115,.T.);
#281=EDGE_CURVE('',#225,#228,#188,.T.);
#282=EDGE_CURVE('',#229,#228,#189,.T.);
#283=EDGE_CURVE('',#227,#230,#190,.T.);
#284=EDGE_CURVE('',#230,#229,#116,.T.);
#285=EDGE_CURVE('',#231,#231,#191,.T.);
#286=EDGE_CURVE('',#231,#232,#117,.T.);
#287=EDGE_CURVE('',#232,#232,#192,.T.);
#288=EDGE_CURVE('',#233,#223,#118,.T.);
#289=EDGE_CURVE('',#234,#233,#193,.T.);
#290=EDGE_CURVE('',#235,#234,#119,.T.);
#291=EDGE_CURVE('',#236,#235,#120,.T.);
#292=EDGE_CURVE('',#230,#236,#121,.T.);
#293=EDGE_CURVE('',#237,#237,#194,.T.);
#294=EDGE_CURVE('',#238,#226,#122,.T.);
#295=EDGE_CURVE('',#239,#238,#123,.T.);
#296=EDGE_CURVE('',#239,#240,#124,.T.);
#297=EDGE_CURVE('',#240,#241,#125,.T.);
#298=EDGE_CURVE('',#241,#242,#126,.T.);
#299=EDGE_CURVE('',#233,#242,#127,.T.);
#300=EDGE_CURVE('',#236,#243,#128,.T.);
#301=EDGE_CURVE('',#244,#243,#195,.T.);
#302=EDGE_CURVE('',#244,#245,#129,.T.);
#303=EDGE_CURVE('',#229,#245,#130,.T.);
#304=EDGE_CURVE('',#246,#246,#196,.T.);
#305=EDGE_CURVE('',#237,#247,#131,.T.);
#306=EDGE_CURVE('',#247,#247,#197,.T.);
#307=EDGE_CURVE('',#248,#248,#198,.T.);
#308=EDGE_CURVE('',#248,#249,#132,.T.);
#309=EDGE_CURVE('',#249,#249,#199,.T.);
#310=EDGE_CURVE('',#242,#250,#200,.T.);
#311=EDGE_CURVE('',#250,#234,#133,.T.);
#312=EDGE_CURVE('',#250,#251,#134,.T.);
#313=EDGE_CURVE('',#251,#252,#135,.T.);
#314=EDGE_CURVE('',#252,#253,#136,.T.);
#315=EDGE_CURVE('',#254,#253,#137,.T.);
#316=EDGE_CURVE('',#254,#255,#138,.T.);
#317=EDGE_CURVE('',#255,#256,#139,.T.);
#318=EDGE_CURVE('',#256,#257,#201,.T.);
#319=EDGE_CURVE('',#257,#235,#140,.T.);
#320=EDGE_CURVE('',#258,#258,#202,.T.);
#321=EDGE_CURVE('',#245,#255,#141,.T.);
#322=EDGE_CURVE('',#238,#254,#203,.T.);
#323=EDGE_CURVE('',#253,#239,#204,.T.);
#324=EDGE_CURVE('',#240,#252,#142,.T.);
#325=EDGE_CURVE('',#258,#259,#205,.T.);
#326=EDGE_CURVE('',#259,#260,#206,.T.);
#327=EDGE_CURVE('',#260,#261,#207,.T.);
#328=EDGE_CURVE('',#261,#259,#208,.T.);
#329=EDGE_CURVE('',#261,#262,#209,.T.);
#330=EDGE_CURVE('',#263,#260,#210,.T.);
#331=EDGE_CURVE('',#264,#264,#211,.T.);
#332=EDGE_CURVE('',#246,#264,#212,.T.);
#333=EDGE_CURVE('',#241,#251,#143,.T.);
#334=EDGE_CURVE('',#243,#257,#144,.T.);
#335=EDGE_CURVE('',#244,#256,#145,.T.);
#336=EDGE_CURVE('',#265,#265,#213,.T.);
#337=EDGE_CURVE('',#265,#266,#146,.T.);
#338=EDGE_CURVE('',#266,#266,#214,.T.);
#339=EDGE_CURVE('',#267,#267,#215,.T.);
#340=EDGE_CURVE('',#268,#268,#216,.T.);
#341=EDGE_CURVE('',#269,#269,#217,.T.);
#342=EDGE_CURVE('',#269,#268,#147,.T.);
#343=EDGE_CURVE('',#270,#271,#218,.T.);
#344=EDGE_CURVE('',#270,#272,#219,.T.);
#345=EDGE_CURVE('',#273,#270,#220,.T.);
#346=EDGE_CURVE('',#271,#273,#221,.T.);
#347=EDGE_CURVE('',#274,#271,#222,.T.);
#348=EDGE_CURVE('',#273,#267,#148,.T.);
#349=ORIENTED_EDGE('',*,*,#275,.T.);
#350=ORIENTED_EDGE('',*,*,#276,.T.);
#351=ORIENTED_EDGE('',*,*,#277,.T.);
#352=ORIENTED_EDGE('',*,*,#278,.T.);
#353=ORIENTED_EDGE('',*,*,#276,.F.);
#354=ORIENTED_EDGE('',*,*,#279,.F.);
#355=ORIENTED_EDGE('',*,*,#280,.F.);
#356=ORIENTED_EDGE('',*,*,#281,.F.);
#357=ORIENTED_EDGE('',*,*,#282,.T.);
#358=ORIENTED_EDGE('',*,*,#280,.T.);
#359=ORIENTED_EDGE('',*,*,#283,.T.);
#360=ORIENTED_EDGE('',*,*,#284,.T.);
#361=ORIENTED_EDGE('',*,*,#285,.F.);
#362=ORIENTED_EDGE('',*,*,#286,.T.);
#363=ORIENTED_EDGE('',*,*,#287,.F.);
#364=ORIENTED_EDGE('',*,*,#286,.F.);
#365=ORIENTED_EDGE('',*,*,#279,.T.);
#366=ORIENTED_EDGE('',*,*,#275,.F.);
#367=ORIENTED_EDGE('',*,*,#288,.F.);
#368=ORIENTED_EDGE('',*,*,#289,.F.);
#369=ORIENTED_EDGE('',*,*,#290,.F.);
#370=ORIENTED_EDGE('',*,*,#291,.F.);
#371=ORIENTED_EDGE('',*,*,#292,.F.);
#372=ORIENTED_EDGE('',*,*,#283,.F.);
#373=ORIENTED_EDGE('',*,*,#287,.T.);
#374=ORIENTED_EDGE('',*,*,#293,.T.);
#375=ORIENTED_EDGE('',*,*,#278,.F.);
#376=ORIENTED_EDGE('',*,*,#294,.F.);
#377=ORIENTED_EDGE('',*,*,#295,.F.);
#378=ORIENTED_EDGE('',*,*,#296,.T.);
#379=ORIENTED_EDGE('',*,*,#297,.T.);
#380=ORIENTED_EDGE('',*,*,#298,.T.);
#381=ORIENTED_EDGE('',*,*,#299,.F.);
#382=ORIENTED_EDGE('',*,*,#288,.T.);
#383=ORIENTED_EDGE('',*,*,#284,.F.);
#384=ORIENTED_EDGE('',*,*,#292,.T.);
#385=ORIENTED_EDGE('',*,*,#300,.T.);
#386=ORIENTED_EDGE('',*,*,#301,.F.);
#387=ORIENTED_EDGE('',*,*,#302,.T.);
#388=ORIENTED_EDGE('',*,*,#303,.F.);
#389=ORIENTED_EDGE('',*,*,#304,.F.);
#390=ORIENTED_EDGE('',*,*,#293,.F.);
#391=ORIENTED_EDGE('',*,*,#305,.T.);
#392=ORIENTED_EDGE('',*,*,#306,.F.);
#393=ORIENTED_EDGE('',*,*,#305,.F.);
#394=ORIENTED_EDGE('',*,*,#307,.F.);
#395=ORIENTED_EDGE('',*,*,#308,.T.);
#396=ORIENTED_EDGE('',*,*,#309,.F.);
#397=ORIENTED_EDGE('',*,*,#308,.F.);
#398=ORIENTED_EDGE('',*,*,#289,.T.);
#399=ORIENTED_EDGE('',*,*,#299,.T.);
#400=ORIENTED_EDGE('',*,*,#310,.T.);
#401=ORIENTED_EDGE('',*,*,#311,.T.);
#402=ORIENTED_EDGE('',*,*,#311,.F.);
#403=ORIENTED_EDGE('',*,*,#312,.T.);
#404=ORIENTED_EDGE('',*,*,#313,.T.);
#405=ORIENTED_EDGE('',*,*,#314,.T.);
#406=ORIENTED_EDGE('',*,*,#315,.F.);
#407=ORIENTED_EDGE('',*,*,#316,.T.);
#408=ORIENTED_EDGE('',*,*,#317,.T.);
#409=ORIENTED_EDGE('',*,*,#318,.T.);
#410=ORIENTED_EDGE('',*,*,#319,.T.);
#411=ORIENTED_EDGE('',*,*,#290,.T.);
#412=ORIENTED_EDGE('',*,*,#320,.F.);
#413=ORIENTED_EDGE('',*,*,#303,.T.);
#414=ORIENTED_EDGE('',*,*,#321,.T.);
#415=ORIENTED_EDGE('',*,*,#316,.F.);
#416=ORIENTED_EDGE('',*,*,#322,.F.);
#417=ORIENTED_EDGE('',*,*,#294,.T.);
#418=ORIENTED_EDGE('',*,*,#277,.F.);
#419=ORIENTED_EDGE('',*,*,#281,.T.);
#420=ORIENTED_EDGE('',*,*,#282,.F.);
#421=ORIENTED_EDGE('',*,*,#285,.T.);
#422=ORIENTED_EDGE('',*,*,#309,.T.);
#423=ORIENTED_EDGE('',*,*,#322,.T.);
#424=ORIENTED_EDGE('',*,*,#315,.T.);
#425=ORIENTED_EDGE('',*,*,#323,.T.);
#426=ORIENTED_EDGE('',*,*,#295,.T.);
#427=ORIENTED_EDGE('',*,*,#323,.F.);
#428=ORIENTED_EDGE('',*,*,#314,.F.);
#429=ORIENTED_EDGE('',*,*,#324,.F.);
#430=ORIENTED_EDGE('',*,*,#296,.F.);
#431=ORIENTED_EDGE('',*,*,#307,.T.);
#432=ORIENTED_EDGE('',*,*,#320,.T.);
#433=ORIENTED_EDGE('',*,*,#325,.T.);
#434=ORIENTED_EDGE('',*,*,#326,.T.);
#435=ORIENTED_EDGE('',*,*,#327,.T.);
#436=ORIENTED_EDGE('',*,*,#328,.T.);
#437=ORIENTED_EDGE('',*,*,#325,.F.);
#438=ORIENTED_EDGE('',*,*,#326,.F.);
#439=ORIENTED_EDGE('',*,*,#328,.F.);
#440=ORIENTED_EDGE('',*,*,#329,.T.);
#441=ORIENTED_EDGE('',*,*,#329,.F.);
#442=ORIENTED_EDGE('',*,*,#327,.F.);
#443=ORIENTED_EDGE('',*,*,#330,.F.);
#444=ORIENTED_EDGE('',*,*,#330,.T.);
#445=ORIENTED_EDGE('',*,*,#331,.F.);
#446=ORIENTED_EDGE('',*,*,#304,.T.);
#447=ORIENTED_EDGE('',*,*,#332,.T.);
#448=ORIENTED_EDGE('',*,*,#331,.T.);
#449=ORIENTED_EDGE('',*,*,#332,.F.);
#450=ORIENTED_EDGE('',*,*,#297,.F.);
#451=ORIENTED_EDGE('',*,*,#324,.T.);
#452=ORIENTED_EDGE('',*,*,#313,.F.);
#453=ORIENTED_EDGE('',*,*,#333,.F.);
#454=ORIENTED_EDGE('',*,*,#310,.F.);
#455=ORIENTED_EDGE('',*,*,#298,.F.);
#456=ORIENTED_EDGE('',*,*,#333,.T.);
#457=ORIENTED_EDGE('',*,*,#312,.F.);
#458=ORIENTED_EDGE('',*,*,#306,.T.);
#459=ORIENTED_EDGE('',*,*,#300,.F.);
#460=ORIENTED_EDGE('',*,*,#291,.T.);
#461=ORIENTED_EDGE('',*,*,#319,.F.);
#462=ORIENTED_EDGE('',*,*,#334,.F.);
#463=ORIENTED_EDGE('',*,*,#301,.T.);
#464=ORIENTED_EDGE('',*,*,#334,.T.);
#465=ORIENTED_EDGE('',*,*,#318,.F.);
#466=ORIENTED_EDGE('',*,*,#335,.F.);
#467=ORIENTED_EDGE('',*,*,#302,.F.);
#468=ORIENTED_EDGE('',*,*,#335,.T.);
#469=ORIENTED_EDGE('',*,*,#317,.F.);
#470=ORIENTED_EDGE('',*,*,#321,.F.);
#471=ORIENTED_EDGE('',*,*,#336,.F.);
#472=ORIENTED_EDGE('',*,*,#337,.T.);
#473=ORIENTED_EDGE('',*,*,#338,.F.);
#474=ORIENTED_EDGE('',*,*,#337,.F.);
#475=ORIENTED_EDGE('',*,*,#339,.T.);
#476=ORIENTED_EDGE('',*,*,#338,.T.);
#477=ORIENTED_EDGE('',*,*,#340,.F.);
#478=ORIENTED_EDGE('',*,*,#336,.T.);
#479=ORIENTED_EDGE('',*,*,#341,.F.);
#480=ORIENTED_EDGE('',*,*,#342,.T.);
#481=ORIENTED_EDGE('',*,*,#340,.T.);
#482=ORIENTED_EDGE('',*,*,#342,.F.);
#483=ORIENTED_EDGE('',*,*,#343,.F.);
#484=ORIENTED_EDGE('',*,*,#344,.T.);
#485=ORIENTED_EDGE('',*,*,#344,.F.);
#486=ORIENTED_EDGE('',*,*,#345,.F.);
#487=ORIENTED_EDGE('',*,*,#346,.F.);
#488=ORIENTED_EDGE('',*,*,#347,.F.);
#489=ORIENTED_EDGE('',*,*,#347,.T.);
#490=ORIENTED_EDGE('',*,*,#341,.T.);
#491=ORIENTED_EDGE('',*,*,#343,.T.);
#492=ORIENTED_EDGE('',*,*,#346,.T.);
#493=ORIENTED_EDGE('',*,*,#348,.T.);
#494=ORIENTED_EDGE('',*,*,#339,.F.);
#495=ORIENTED_EDGE('',*,*,#348,.F.);
#496=ORIENTED_EDGE('',*,*,#345,.T.);
#497=CYLINDRICAL_SURFACE('',#552,2.);
#498=CYLINDRICAL_SURFACE('',#555,2.5);
#499=CYLINDRICAL_SURFACE('',#558,2.);
#500=CYLINDRICAL_SURFACE('',#561,1.);
#501=CYLINDRICAL_SURFACE('',#571,1.25);
#502=CYLINDRICAL_SURFACE('',#573,1.25);
#503=CYLINDRICAL_SURFACE('',#576,2.5);
#504=CYLINDRICAL_SURFACE('',#583,2.5);
#505=CYLINDRICAL_SURFACE('',#600,3.75);
#506=CYLINDRICAL_SURFACE('',#602,1.);
#507=CYLINDRICAL_SURFACE('',#609,1.5);
#508=CYLINDRICAL_SURFACE('',#617,1.5);
#509=ADVANCED_FACE('',(#45),#497,.F.);
#510=ADVANCED_FACE('',(#46),#498,.T.);
#511=ADVANCED_FACE('',(#47),#499,.F.);
#512=ADVANCED_FACE('',(#48),#500,.F.);
#513=ADVANCED_FACE('',(#49,#21,#22),#33,.T.);
#514=ADVANCED_FACE('',(#50),#34,.F.);
#515=ADVANCED_FACE('',(#51,#23),#35,.F.);
#516=ADVANCED_FACE('',(#52),#501,.F.);
#517=ADVANCED_FACE('',(#53),#502,.F.);
#518=ADVANCED_FACE('',(#54),#503,.T.);
#519=ADVANCED_FACE('',(#55,#24),#36,.T.);
#520=ADVANCED_FACE('',(#56,#25,#26),#37,.T.);
#521=ADVANCED_FACE('',(#57),#504,.T.);
#522=ADVANCED_FACE('',(#58,#27),#38,.T.);
#523=ADVANCED_FACE('',(#59),#19,.T.);
#524=ADVANCED_FACE('',(#60,#28),#17,.F.);
#525=ADVANCED_FACE('',(#61),#20,.T.);
#526=ADVANCED_FACE('',(#62),#39,.T.);
#527=ADVANCED_FACE('',(#63,#29),#40,.T.);
#528=ADVANCED_FACE('',(#64),#41,.T.);
#529=ADVANCED_FACE('',(#65),#505,.T.);
#530=ADVANCED_FACE('',(#66),#42,.T.);
#531=ADVANCED_FACE('',(#67),#506,.F.);
#532=ADVANCED_FACE('',(#68,#30),#43,.T.);
#533=ADVANCED_FACE('',(#69,#31),#44,.T.);
#534=ADVANCED_FACE('',(#70),#507,.T.);
#535=ADVANCED_FACE('',(#71,#32),#18,.T.);
#536=ADVANCED_FACE('',(#72),#508,.F.);
#537=CLOSED_SHELL('',(#509,#510,#511,#512,#513,#514,#515,#516,#517,#518,
#519,#520,#521,#522,#523,#524,#525,#526,#527,#528,#529,#530));
#538=CLOSED_SHELL('',(#531,#532,#533,#534,#535,#536));
#539=DERIVED_UNIT_ELEMENT(#541,1.);
#540=DERIVED_UNIT_ELEMENT(#948,-3.);
#541=(
MASS_UNIT()
NAMED_UNIT(*)
SI_UNIT(.KILO.,.GRAM.)
);
#542=DERIVED_UNIT((#539,#540));
#543=MEASURE_REPRESENTATION_ITEM('density measure',
POSITIVE_RATIO_MEASURE(7850.),#542);
#544=PROPERTY_DEFINITION_REPRESENTATION(#549,#546);
#545=PROPERTY_DEFINITION_REPRESENTATION(#550,#547);
#546=REPRESENTATION('material name',(#548),#945);
#547=REPRESENTATION('density',(#543),#945);
#548=DESCRIPTIVE_REPRESENTATION_ITEM('Steel','Steel');
#549=PROPERTY_DEFINITION('material property','material name',#955);
#550=PROPERTY_DEFINITION('material property','density of part',#955);
#551=AXIS2_PLACEMENT_3D('',#788,#618,#619);
#552=AXIS2_PLACEMENT_3D('',#789,#620,#621);
#553=AXIS2_PLACEMENT_3D('',#792,#622,#623);
#554=AXIS2_PLACEMENT_3D('',#796,#625,#626);
#555=AXIS2_PLACEMENT_3D('',#798,#628,#629);
#556=AXIS2_PLACEMENT_3D('',#800,#630,#631);
#557=AXIS2_PLACEMENT_3D('',#803,#633,#634);
#558=AXIS2_PLACEMENT_3D('',#804,#635,#636);
#559=AXIS2_PLACEMENT_3D('',#806,#637,#638);
#560=AXIS2_PLACEMENT_3D('',#808,#639,#640);
#561=AXIS2_PLACEMENT_3D('',#810,#642,#643);
#562=AXIS2_PLACEMENT_3D('',#812,#644,#645);
#563=AXIS2_PLACEMENT_3D('',#815,#647,#648);
#564=AXIS2_PLACEMENT_3D('',#816,#649,#650);
#565=AXIS2_PLACEMENT_3D('',#820,#652,#653);
#566=AXIS2_PLACEMENT_3D('',#827,#657,#658);
#567=AXIS2_PLACEMENT_3D('',#828,#659,#660);
#568=AXIS2_PLACEMENT_3D('',#840,#667,#668);
#569=AXIS2_PLACEMENT_3D('',#844,#670,#671);
#570=AXIS2_PLACEMENT_3D('',#849,#674,#675);
#571=AXIS2_PLACEMENT_3D('',#850,#676,#677);
#572=AXIS2_PLACEMENT_3D('',#853,#679,#680);
#573=AXIS2_PLACEMENT_3D('',#854,#681,#682);
#574=AXIS2_PLACEMENT_3D('',#856,#683,#684);
#575=AXIS2_PLACEMENT_3D('',#859,#686,#687);
#576=AXIS2_PLACEMENT_3D('',#860,#688,#689);
#577=AXIS2_PLACEMENT_3D('',#862,#690,#691);
#578=AXIS2_PLACEMENT_3D('',#864,#693,#694);
#579=AXIS2_PLACEMENT_3D('',#878,#701,#702);
#580=AXIS2_PLACEMENT_3D('',#881,#704,#705);
#581=AXIS2_PLACEMENT_3D('',#882,#706,#707);
#582=AXIS2_PLACEMENT_3D('',#884,#709,#710);
#583=AXIS2_PLACEMENT_3D('',#885,#711,#712);
#584=AXIS2_PLACEMENT_3D('',#886,#713,#714);
#585=AXIS2_PLACEMENT_3D('',#887,#715,#716);
#586=AXIS2_PLACEMENT_3D('',#889,#718,#719);
#587=AXIS2_PLACEMENT_3D('',#891,#720,#721);
#588=AXIS2_PLACEMENT_3D('',#893,#722,#723);
#589=AXIS2_PLACEMENT_3D('',#895,#724,#725);
#590=AXIS2_PLACEMENT_3D('',#896,#726,#727);
#591=AXIS2_PLACEMENT_3D('',#897,#728,#729);
#592=AXIS2_PLACEMENT_3D('',#899,#730,#731);
#593=AXIS2_PLACEMENT_3D('',#901,#732,#733);
#594=AXIS2_PLACEMENT_3D('',#903,#734,#735);
#595=AXIS2_PLACEMENT_3D('',#904,#736,#737);
#596=AXIS2_PLACEMENT_3D('',#905,#738,#739);
#597=AXIS2_PLACEMENT_3D('',#906,#740,#741);
#598=AXIS2_PLACEMENT_3D('',#908,#743,#744);
#599=AXIS2_PLACEMENT_3D('',#909,#745,#746);
#600=AXIS2_PLACEMENT_3D('',#911,#748,#749);
#601=AXIS2_PLACEMENT_3D('',#913,#751,#752);
#602=AXIS2_PLACEMENT_3D('',#914,#753,#754);
#603=AXIS2_PLACEMENT_3D('',#916,#755,#756);
#604=AXIS2_PLACEMENT_3D('',#919,#758,#759);
#605=AXIS2_PLACEMENT_3D('',#920,#760,#761);
#606=AXIS2_PLACEMENT_3D('',#922,#762,#763);
#607=AXIS2_PLACEMENT_3D('',#923,#764,#765);
#608=AXIS2_PLACEMENT_3D('',#925,#766,#767);
#609=AXIS2_PLACEMENT_3D('',#926,#768,#769);
#610=AXIS2_PLACEMENT_3D('',#928,#770,#771);
#611=AXIS2_PLACEMENT_3D('',#930,#773,#774);
#612=AXIS2_PLACEMENT_3D('',#933,#775,#776);
#613=AXIS2_PLACEMENT_3D('',#935,#777,#778);
#614=AXIS2_PLACEMENT_3D('',#937,#779,#780);
#615=AXIS2_PLACEMENT_3D('',#938,#781,#782);
#616=AXIS2_PLACEMENT_3D('',#940,#783,#784);
#617=AXIS2_PLACEMENT_3D('',#941,#785,#786);
#618=DIRECTION('axis',(0.,0.,1.));
#619=DIRECTION('refdir',(1.,0.,0.));
#620=DIRECTION('center_axis',(-1.,0.,0.));
#621=DIRECTION('ref_axis',(0.,0.781735959970572,0.623609564462323));
#622=DIRECTION('center_axis',(1.,0.,0.));
#623=DIRECTION('ref_axis',(0.,0.781735959970572,0.623609564462323));
#624=DIRECTION('',(-1.,0.,0.));
#625=DIRECTION('center_axis',(-1.,0.,0.));
#626=DIRECTION('ref_axis',(0.,0.781735959970572,0.623609564462323));
#627=DIRECTION('',(1.,0.,0.));
#628=DIRECTION('center_axis',(-1.,0.,0.));
#629=DIRECTION('ref_axis',(0.,-1.,-1.22464679914735E-16));
#630=DIRECTION('center_axis',(1.,0.,0.));
#631=DIRECTION('ref_axis',(0.,1.,0.));
#632=DIRECTION('',(1.,0.,0.));
#633=DIRECTION('center_axis',(-1.,0.,0.));
#634=DIRECTION('ref_axis',(0.,1.,0.));
#635=DIRECTION('center_axis',(1.,0.,0.));
#636=DIRECTION('ref_axis',(0.,0.781735959970572,-0.623609564462323));
#637=DIRECTION('center_axis',(-1.,0.,0.));
#638=DIRECTION('ref_axis',(0.,0.781735959970572,-0.623609564462323));
#639=DIRECTION('center_axis',(1.,0.,0.));
#640=DIRECTION('ref_axis',(0.,0.781735959970572,-0.623609564462323));
#641=DIRECTION('',(-1.,0.,0.));
#642=DIRECTION('center_axis',(-1.,0.,0.));
#643=DIRECTION('ref_axis',(0.,1.,0.));
#644=DIRECTION('center_axis',(1.,0.,0.));
#645=DIRECTION('ref_axis',(0.,1.,0.));
#646=DIRECTION('',(1.,0.,0.));
#647=DIRECTION('center_axis',(-1.,0.,0.));
#648=DIRECTION('ref_axis',(0.,1.,0.));
#649=DIRECTION('center_axis',(1.,0.,0.));
#650=DIRECTION('ref_axis',(0.,0.,-1.));
#651=DIRECTION('',(0.,0.,1.));
#652=DIRECTION('center_axis',(-1.,0.,0.));
#653=DIRECTION('ref_axis',(0.,0.707106781186547,-0.707106781186547));
#654=DIRECTION('',(0.,0.,-1.));
#655=DIRECTION('',(0.,1.,0.));
#656=DIRECTION('',(0.,0.,1.));
#657=DIRECTION('center_axis',(-1.,0.,0.));
#658=DIRECTION('ref_axis',(0.,1.,0.));
#659=DIRECTION('center_axis',(0.,1.,0.));
#660=DIRECTION('ref_axis',(1.,0.,0.));
#661=DIRECTION('',(0.,0.,1.));
#662=DIRECTION('',(-1.,0.,0.));
#663=DIRECTION('',(0.,0.,1.));
#664=DIRECTION('',(1.,0.,0.));
#665=DIRECTION('',(0.,0.,-1.));
#666=DIRECTION('',(-1.,0.,0.));
#667=DIRECTION('center_axis',(0.,1.,0.));
#668=DIRECTION('ref_axis',(1.,0.,0.));
#669=DIRECTION('',(-0.116443819035022,0.,0.993197280004602));
#670=DIRECTION('center_axis',(0.,1.,0.));
#671=DIRECTION('ref_axis',(1.,0.,0.));
#672=DIRECTION('',(-0.116443819035022,0.,-0.993197280004602));
#673=DIRECTION('',(0.,0.,1.));
#674=DIRECTION('center_axis',(0.,-1.,0.));
#675=DIRECTION('ref_axis',(0.,0.,1.));
#676=DIRECTION('center_axis',(-1.,0.,0.));
#677=DIRECTION('ref_axis',(0.,1.,0.));
#678=DIRECTION('',(-1.,0.,0.));
#679=DIRECTION('center_axis',(1.,0.,0.));
#680=DIRECTION('ref_axis',(0.,1.,0.));
#681=DIRECTION('center_axis',(-1.,0.,0.));
#682=DIRECTION('ref_axis',(0.,1.,0.));
#683=DIRECTION('center_axis',(-1.,0.,0.));
#684=DIRECTION('ref_axis',(0.,1.,0.));
#685=DIRECTION('',(-1.,0.,0.));
#686=DIRECTION('center_axis',(1.,0.,0.));
#687=DIRECTION('ref_axis',(0.,1.,0.));
#688=DIRECTION('center_axis',(-1.,0.,0.));
#689=DIRECTION('ref_axis',(0.,0.707106781186547,-0.707106781186547));
#690=DIRECTION('center_axis',(1.,0.,0.));
#691=DIRECTION('ref_axis',(0.,0.707106781186547,-0.707106781186547));
#692=DIRECTION('',(1.,0.,0.));
#693=DIRECTION('center_axis',(0.,1.,0.));
#694=DIRECTION('ref_axis',(1.,0.,0.));
#695=DIRECTION('',(0.,0.,1.));
#696=DIRECTION('',(-1.,0.,0.));
#697=DIRECTION('',(0.,0.,-1.));
#698=DIRECTION('',(1.,0.,0.));
#699=DIRECTION('',(0.,0.,1.));
#700=DIRECTION('',(0.116443819035022,0.,0.993197280004602));
#701=DIRECTION('center_axis',(0.,1.,0.));
#702=DIRECTION('ref_axis',(1.,0.,0.));
#703=DIRECTION('',(0.116443819035022,0.,-0.993197280004602));
#704=DIRECTION('center_axis',(0.,1.,0.));
#705=DIRECTION('ref_axis',(0.,0.,-1.));
#706=DIRECTION('center_axis',(-1.,0.,0.));
#707=DIRECTION('ref_axis',(0.,0.,1.));
#708=DIRECTION('',(0.,1.,0.));
#709=DIRECTION('center_axis',(1.,0.,0.));
#710=DIRECTION('ref_axis',(0.,0.707106781186547,-0.707106781186547));
#711=DIRECTION('center_axis',(1.,0.,0.));
#712=DIRECTION('ref_axis',(0.,-0.707106781186547,-0.707106781186547));
#713=DIRECTION('center_axis',(-1.,0.,0.));
#714=DIRECTION('ref_axis',(0.,0.707106781186547,-0.707106781186547));
#715=DIRECTION('center_axis',(1.,0.,0.));
#716=DIRECTION('ref_axis',(0.,0.,-1.));
#717=DIRECTION('',(0.,1.,0.));
#718=DIRECTION('center_axis',(0.,-1.,0.));
#719=DIRECTION('ref_axis',(0.,0.,-1.));
#720=DIRECTION('center_axis',(-1.,0.,0.));
#721=DIRECTION('ref_axis',(0.,0.,1.));
#722=DIRECTION('center_axis',(0.,-1.,0.));
#723=DIRECTION('ref_axis',(0.,0.,-1.));
#724=DIRECTION('center_axis',(0.,-1.,0.));
#725=DIRECTION('ref_axis',(0.,0.,-1.));
#726=DIRECTION('center_axis',(0.,-1.,0.));
#727=DIRECTION('ref_axis',(0.,0.,-1.));
#728=DIRECTION('center_axis',(1.,0.,0.));
#729=DIRECTION('ref_axis',(0.,-1.,0.));
#730=DIRECTION('center_axis',(0.,0.,-1.));
#731=DIRECTION('ref_axis',(0.,1.,0.));
#732=DIRECTION('center_axis',(0.,0.,-1.));
#733=DIRECTION('ref_axis',(0.,1.,0.));
#734=DIRECTION('center_axis',(0.,1.,0.));
#735=DIRECTION('ref_axis',(0.,0.,1.));
#736=DIRECTION('center_axis',(0.,1.,0.));
#737=DIRECTION('ref_axis',(0.,0.,1.));
#738=DIRECTION('center_axis',(-1.,0.,0.));
#739=DIRECTION('ref_axis',(0.,0.,-1.));
#740=DIRECTION('center_axis',(0.,0.,-1.));
#741=DIRECTION('ref_axis',(-1.,0.,0.));
#742=DIRECTION('',(0.,1.,0.));
#743=DIRECTION('center_axis',(-1.,0.,0.));
#744=DIRECTION('ref_axis',(0.,0.,1.));
#745=DIRECTION('center_axis',(0.993197280004602,0.,0.116443819035022));
#746=DIRECTION('ref_axis',(0.116443819035022,0.,-0.993197280004602));
#747=DIRECTION('',(0.,1.,0.));
#748=DIRECTION('center_axis',(0.,1.,0.));
#749=DIRECTION('ref_axis',(1.,0.,0.));
#750=DIRECTION('',(0.,1.,0.));
#751=DIRECTION('center_axis',(-0.993197280004602,0.,0.116443819035022));
#752=DIRECTION('ref_axis',(0.116443819035022,0.,0.993197280004602));
#753=DIRECTION('center_axis',(0.,1.,0.));
#754=DIRECTION('ref_axis',(1.,0.,0.));
#755=DIRECTION('center_axis',(0.,1.,0.));
#756=DIRECTION('ref_axis',(1.,0.,0.));
#757=DIRECTION('',(0.,1.,0.));
#758=DIRECTION('center_axis',(0.,-1.,0.));
#759=DIRECTION('ref_axis',(1.,0.,0.));
#760=DIRECTION('center_axis',(0.,1.,0.));
#761=DIRECTION('ref_axis',(0.,0.,1.));
#762=DIRECTION('center_axis',(0.,1.,0.));
#763=DIRECTION('ref_axis',(1.,0.,0.));
#764=DIRECTION('center_axis',(0.,-1.,0.));
#765=DIRECTION('ref_axis',(0.,0.,-1.));
#766=DIRECTION('center_axis',(0.,1.,0.));
#767=DIRECTION('ref_axis',(1.,0.,0.));
#768=DIRECTION('center_axis',(0.,1.,0.));
#769=DIRECTION('ref_axis',(0.,0.,1.));
#770=DIRECTION('center_axis',(0.,1.,0.));
#771=DIRECTION('ref_axis',(1.,0.,0.));
#772=DIRECTION('',(0.,-1.,0.));
#773=DIRECTION('center_axis',(1.,0.,0.));
#774=DIRECTION('ref_axis',(0.,-1.,0.));
#775=DIRECTION('center_axis',(0.,1.,0.));
#776=DIRECTION('ref_axis',(1.,0.,0.));
#777=DIRECTION('center_axis',(0.,0.,1.));
#778=DIRECTION('ref_axis',(0.,1.,0.));
#779=DIRECTION('center_axis',(0.,1.,0.));
#780=DIRECTION('ref_axis',(1.,0.,0.));
#781=DIRECTION('center_axis',(0.,1.,0.));
#782=DIRECTION('ref_axis',(1.,0.,0.));
#783=DIRECTION('center_axis',(0.,0.,1.));
#784=DIRECTION('ref_axis',(0.,1.,0.));
#785=DIRECTION('center_axis',(0.,1.,0.));
#786=DIRECTION('ref_axis',(0.,0.,1.));
#787=DIRECTION('',(0.,-1.,0.));
#788=CARTESIAN_POINT('',(0.,0.,0.));
#789=CARTESIAN_POINT('Origin',(16.,-2.,26.1125178063039));
#790=CARTESIAN_POINT('',(16.,0.,26.1125178063039));
#791=CARTESIAN_POINT('',(16.,-1.55555555555556,28.0625098923911));
#792=CARTESIAN_POINT('Origin',(16.,-2.,26.1125178063039));
#793=CARTESIAN_POINT('',(0.,-1.55555555555556,28.0625098923911));
#794=CARTESIAN_POINT('',(16.,-1.55555555555556,28.0625098923911));
#795=CARTESIAN_POINT('',(0.,0.,26.1125178063039));
#796=CARTESIAN_POINT('Origin',(0.,-2.,26.1125178063039));
#797=CARTESIAN_POINT('',(16.,0.,26.1125178063039));
#798=CARTESIAN_POINT('Origin',(16.,-1.,30.5));
#799=CARTESIAN_POINT('',(16.,-1.55555555555556,32.9374901076089));
#800=CARTESIAN_POINT('Origin',(16.,-1.,30.5));
#801=CARTESIAN_POINT('',(0.,-1.55555555555556,32.9374901076089));
#802=CARTESIAN_POINT('',(16.,-1.55555555555556,32.9374901076089));
#803=CARTESIAN_POINT('Origin',(0.,-1.,30.5));
#804=CARTESIAN_POINT('Origin',(16.,-2.,34.8874821936961));
#805=CARTESIAN_POINT('',(0.,0.,34.8874821936961));
#806=CARTESIAN_POINT('Origin',(0.,-2.,34.8874821936961));
#807=CARTESIAN_POINT('',(16.,0.,34.8874821936961));
#808=CARTESIAN_POINT('Origin',(16.,-2.,34.8874821936961));
#809=CARTESIAN_POINT('',(16.,0.,34.8874821936961));
#810=CARTESIAN_POINT('Origin',(16.,-1.,30.5));
#811=CARTESIAN_POINT('',(0.,-2.,30.5));
#812=CARTESIAN_POINT('Origin',(0.,-1.,30.5));
#813=CARTESIAN_POINT('',(16.,-2.,30.5));
#814=CARTESIAN_POINT('',(16.,-2.,30.5));
#815=CARTESIAN_POINT('Origin',(16.,-1.,30.5));
#816=CARTESIAN_POINT('Origin',(16.,0.,50.));
#817=CARTESIAN_POINT('',(16.,0.,2.5));
#818=CARTESIAN_POINT('',(16.,0.,0.));
#819=CARTESIAN_POINT('',(16.,5.,2.5));
#820=CARTESIAN_POINT('Origin',(16.,2.5,2.5));
#821=CARTESIAN_POINT('',(16.,5.,50.));
#822=CARTESIAN_POINT('',(16.,5.,0.));
#823=CARTESIAN_POINT('',(16.,0.,50.));
#824=CARTESIAN_POINT('',(16.,0.,50.));
#825=CARTESIAN_POINT('',(16.,0.,0.));
#826=CARTESIAN_POINT('',(16.,1.25,2.5));
#827=CARTESIAN_POINT('Origin',(16.,2.5,2.5));
#828=CARTESIAN_POINT('Origin',(8.,0.,45.));
#829=CARTESIAN_POINT('',(0.,0.,2.5));
#830=CARTESIAN_POINT('',(0.,0.,0.));
#831=CARTESIAN_POINT('',(3.,0.,2.5));
#832=CARTESIAN_POINT('',(5.5,0.,2.5));
#833=CARTESIAN_POINT('',(3.,0.,10.));
#834=CARTESIAN_POINT('',(3.,0.,0.));
#835=CARTESIAN_POINT('',(13.,0.,10.));
#836=CARTESIAN_POINT('',(3.,0.,10.));
#837=CARTESIAN_POINT('',(13.,0.,2.5));
#838=CARTESIAN_POINT('',(13.,0.,10.));
#839=CARTESIAN_POINT('',(12.,0.,2.5));
#840=CARTESIAN_POINT('Origin',(8.,0.,45.));
#841=CARTESIAN_POINT('',(11.75,0.,86.25));
#842=CARTESIAN_POINT('',(16.,0.,50.));
#843=CARTESIAN_POINT('',(4.25,0.,86.25));
#844=CARTESIAN_POINT('Origin',(8.,0.,86.25));
#845=CARTESIAN_POINT('',(0.,0.,50.));
#846=CARTESIAN_POINT('',(4.25,0.,86.25));
#847=CARTESIAN_POINT('',(0.,0.,0.));
#848=CARTESIAN_POINT('',(8.,0.,83.1371235167453));
#849=CARTESIAN_POINT('Origin',(8.,0.,86.25));
#850=CARTESIAN_POINT('Origin',(16.,2.5,2.5));
#851=CARTESIAN_POINT('',(13.,1.25,2.5));
#852=CARTESIAN_POINT('',(16.,1.25,2.5));
#853=CARTESIAN_POINT('Origin',(13.,2.5,2.5));
#854=CARTESIAN_POINT('Origin',(16.,2.5,2.5));
#855=CARTESIAN_POINT('',(3.,1.25,2.5));
#856=CARTESIAN_POINT('Origin',(3.,2.5,2.5));
#857=CARTESIAN_POINT('',(0.,1.25,2.5));
#858=CARTESIAN_POINT('',(16.,1.25,2.5));
#859=CARTESIAN_POINT('Origin',(0.,2.5,2.5));
#860=CARTESIAN_POINT('Origin',(12.,2.5,2.5));
#861=CARTESIAN_POINT('',(13.,5.,2.5));
#862=CARTESIAN_POINT('Origin',(13.,2.5,2.5));
#863=CARTESIAN_POINT('',(12.,5.,2.5));
#864=CARTESIAN_POINT('Origin',(8.,5.,45.));
#865=CARTESIAN_POINT('',(13.,5.,10.));
#866=CARTESIAN_POINT('',(13.,5.,10.));
#867=CARTESIAN_POINT('',(3.,5.,10.));
#868=CARTESIAN_POINT('',(3.,5.,10.));
#869=CARTESIAN_POINT('',(3.,5.,2.5));
#870=CARTESIAN_POINT('',(3.,5.,0.));
#871=CARTESIAN_POINT('',(0.,5.,2.5));
#872=CARTESIAN_POINT('',(5.5,5.,2.5));
#873=CARTESIAN_POINT('',(0.,5.,50.));
#874=CARTESIAN_POINT('',(0.,5.,0.));
#875=CARTESIAN_POINT('',(4.25,5.,86.25));
#876=CARTESIAN_POINT('',(4.25,5.,86.25));
#877=CARTESIAN_POINT('',(11.75,5.,86.25));
#878=CARTESIAN_POINT('Origin',(8.,5.,86.25));
#879=CARTESIAN_POINT('',(16.,5.,50.));
#880=CARTESIAN_POINT('',(8.,5.,89.3628764832547));
#881=CARTESIAN_POINT('Origin',(8.,5.,86.25));
#882=CARTESIAN_POINT('Origin',(0.,0.,0.));
#883=CARTESIAN_POINT('',(0.,0.,50.));
#884=CARTESIAN_POINT('Origin',(0.,2.5,2.5));
#885=CARTESIAN_POINT('Origin',(5.5,2.5,2.5));
#886=CARTESIAN_POINT('Origin',(3.,2.5,2.5));
#887=CARTESIAN_POINT('Origin',(3.,0.,10.));
#888=CARTESIAN_POINT('',(3.,0.,10.));
#889=CARTESIAN_POINT('Origin',(8.,4.5,86.25));
#890=CARTESIAN_POINT('',(8.,4.22972972972973,88.9422174990311));
#891=CARTESIAN_POINT('Origin',(8.,4.5,89.3628764832547));
#892=CARTESIAN_POINT('',(5.30778250096893,4.22972972972973,86.25));
#893=CARTESIAN_POINT('Origin',(8.,4.22972972972973,86.25));
#894=CARTESIAN_POINT('',(10.6922174990311,4.22972972972973,86.25));
#895=CARTESIAN_POINT('Origin',(8.,4.22972972972973,86.25));
#896=CARTESIAN_POINT('Origin',(8.,4.22972972972973,86.25));
#897=CARTESIAN_POINT('Origin',(8.,2.5,86.25));
#898=CARTESIAN_POINT('',(11.2,2.5,86.25));
#899=CARTESIAN_POINT('Origin',(8.,2.5,86.25));
#900=CARTESIAN_POINT('',(4.8,2.5,86.25));
#901=CARTESIAN_POINT('Origin',(8.,2.5,86.25));
#902=CARTESIAN_POINT('',(8.,0.77027027027027,83.5577825009689));
#903=CARTESIAN_POINT('Origin',(8.,0.77027027027027,86.25));
#904=CARTESIAN_POINT('Origin',(8.,0.5,86.25));
#905=CARTESIAN_POINT('Origin',(8.,0.5,83.1371235167453));
#906=CARTESIAN_POINT('Origin',(13.,0.,10.));
#907=CARTESIAN_POINT('',(13.,0.,10.));
#908=CARTESIAN_POINT('Origin',(13.,0.,0.));
#909=CARTESIAN_POINT('Origin',(11.75,0.,86.25));
#910=CARTESIAN_POINT('',(11.75,0.,86.25));
#911=CARTESIAN_POINT('Origin',(8.,0.,86.25));
#912=CARTESIAN_POINT('',(4.25,0.,86.25));
#913=CARTESIAN_POINT('Origin',(0.,0.,50.));
#914=CARTESIAN_POINT('Origin',(8.,-1.,86.25));
#915=CARTESIAN_POINT('',(7.,-1.,86.25));
#916=CARTESIAN_POINT('Origin',(8.,-1.,86.25));
#917=CARTESIAN_POINT('',(7.,5.,86.25));
#918=CARTESIAN_POINT('',(7.,-1.,86.25));
#919=CARTESIAN_POINT('Origin',(8.,5.,86.25));
#920=CARTESIAN_POINT('Origin',(8.,5.,86.25));
#921=CARTESIAN_POINT('',(8.,5.,84.75));
#922=CARTESIAN_POINT('Origin',(8.,5.,86.25));
#923=CARTESIAN_POINT('Origin',(8.,-1.,87.75));
#924=CARTESIAN_POINT('',(8.,-1.,84.75));
#925=CARTESIAN_POINT('Origin',(8.,-1.,86.25));
#926=CARTESIAN_POINT('Origin',(8.,-0.520088579588053,86.25));
#927=CARTESIAN_POINT('',(8.,-0.0401771591761046,84.75));
#928=CARTESIAN_POINT('Origin',(8.,-0.0401771591761046,86.25));
#929=CARTESIAN_POINT('',(8.,-0.520088579588053,84.75));
#930=CARTESIAN_POINT('Origin',(8.,2.5,86.25));
#931=CARTESIAN_POINT('',(6.5,5.04017715917611,86.25));
#932=CARTESIAN_POINT('',(9.5,5.04017715917611,86.25));
#933=CARTESIAN_POINT('Origin',(8.,5.04017715917611,86.25));
#934=CARTESIAN_POINT('',(5.05,2.5,86.25));
#935=CARTESIAN_POINT('Origin',(8.,2.5,86.25));
#936=CARTESIAN_POINT('',(8.,5.04017715917611,84.75));
#937=CARTESIAN_POINT('Origin',(8.,5.04017715917611,86.25));
#938=CARTESIAN_POINT('Origin',(8.,5.04017715917611,86.25));
#939=CARTESIAN_POINT('',(10.95,2.5,86.25));
#940=CARTESIAN_POINT('Origin',(8.,2.5,86.25));
#941=CARTESIAN_POINT('Origin',(8.,5.02008857958805,86.25));
#942=CARTESIAN_POINT('',(8.,5.02008857958805,84.75));
#943=UNCERTAINTY_MEASURE_WITH_UNIT(LENGTH_MEASURE(0.01),#947,
'DISTANCE_ACCURACY_VALUE',
'Maximum model space distance between geometric entities at asserted c
onnectivities');
#944=UNCERTAINTY_MEASURE_WITH_UNIT(LENGTH_MEASURE(0.01),#947,
'DISTANCE_ACCURACY_VALUE',
'Maximum model space distance between geometric entities at asserted c
onnectivities');
#945=(
GEOMETRIC_REPRESENTATION_CONTEXT(3)
GLOBAL_UNCERTAINTY_ASSIGNED_CONTEXT((#943))
GLOBAL_UNIT_ASSIGNED_CONTEXT((#947,#949,#950))
REPRESENTATION_CONTEXT('','3D')
);
#946=(
GEOMETRIC_REPRESENTATION_CONTEXT(3)
GLOBAL_UNCERTAINTY_ASSIGNED_CONTEXT((#944))
GLOBAL_UNIT_ASSIGNED_CONTEXT((#947,#949,#950))
REPRESENTATION_CONTEXT('','3D')
);
#947=(
LENGTH_UNIT()
NAMED_UNIT(*)
SI_UNIT(.MILLI.,.METRE.)
);
#948=(
LENGTH_UNIT()
NAMED_UNIT(*)
SI_UNIT($,.METRE.)
);
#949=(
NAMED_UNIT(*)
PLANE_ANGLE_UNIT()
SI_UNIT($,.RADIAN.)
);
#950=(
NAMED_UNIT(*)
SI_UNIT($,.STERADIAN.)
SOLID_ANGLE_UNIT()
);
#951=SHAPE_DEFINITION_REPRESENTATION(#952,#953);
#952=PRODUCT_DEFINITION_SHAPE('',$,#955);
#953=SHAPE_REPRESENTATION('',(#551),#945);
#954=PRODUCT_DEFINITION_CONTEXT('part definition',#959,'design');
#955=PRODUCT_DEFINITION('bottom control arm driver side',
'bottom control arm driver side v1',#956,#954);
#956=PRODUCT_DEFINITION_FORMATION('',$,#961);
#957=PRODUCT_RELATED_PRODUCT_CATEGORY(
'bottom control arm driver side v1','bottom control arm driver side v1',
(#961));
#958=APPLICATION_PROTOCOL_DEFINITION('international standard',
'automotive_design',2009,#959);
#959=APPLICATION_CONTEXT(
'Core Data for Automotive Mechanical Design Process');
#960=PRODUCT_CONTEXT('part definition',#959,'mechanical');
#961=PRODUCT('bottom control arm driver side',
'bottom control arm driver side v1',$,(#960));
#962=PRESENTATION_STYLE_ASSIGNMENT((#963));
#963=SURFACE_STYLE_USAGE(.BOTH.,#964);
#964=SURFACE_SIDE_STYLE('',(#965));
#965=SURFACE_STYLE_FILL_AREA(#966);
#966=FILL_AREA_STYLE('Steel - Satin',(#967));
#967=FILL_AREA_STYLE_COLOUR('Steel - Satin',#968);
#968=COLOUR_RGB('Steel - Satin',0.627450980392157,0.627450980392157,0.627450980392157);
ENDSEC;
END-ISO-10303-21;
