ISO-10303-21;
HEADER;
/* Generated by software containing ST-Developer
 * from STEP Tools, Inc. (www.steptools.com) 
 */

FILE_DESCRIPTION(
/* description */ (''),
/* implementation_level */ '2;1');

FILE_NAME(
/* name */ 'bottom control arm passenger side v2.step',
/* time_stamp */ '2025-05-27T01:52:17-07:00',
/* author */ (''),
/* organization */ (''),
/* preprocessor_version */ 'ST-DEVELOPER v20.1',
/* originating_system */ 'Autodesk Translation Framework v14.10.0.0',
/* authorisation */ '');

FILE_SCHEMA (('AUTOMOTIVE_DESIGN { 1 0 10303 214 3 1 1 }'));
ENDSEC;

DATA;
#10=MECHANICAL_DESIGN_GEOMETRIC_PRESENTATION_REPRESENTATION('',(#13,#14),
#981);
#11=SHAPE_REPRESENTATION_RELATIONSHIP('SRR','None',#988,#12);
#12=ADVANCED_BREP_SHAPE_REPRESENTATION('',(#15,#16),#980);
#13=STYLED_ITEM('',(#997),#15);
#14=STYLED_ITEM('',(#997),#16);
#15=MANIFOLD_SOLID_BREP('Body1',#556);
#16=MANIFOLD_SOLID_BREP('Body2',#557);
#17=SPHERICAL_SURFACE('',#613,3.2);
#18=SPHERICAL_SURFACE('',#633,2.95);
#19=TOROIDAL_SURFACE('',#608,3.11287648325468,0.5);
#20=TOROIDAL_SURFACE('',#617,3.11287648325468,0.5);
#21=FACE_BOUND('',#81,.T.);
#22=FACE_BOUND('',#83,.T.);
#23=FACE_BOUND('',#84,.T.);
#24=FACE_BOUND('',#86,.T.);
#25=FACE_BOUND('',#91,.T.);
#26=FACE_BOUND('',#93,.T.);
#27=FACE_BOUND('',#96,.T.);
#28=FACE_BOUND('',#99,.T.);
#29=FACE_BOUND('',#103,.T.);
#30=FACE_BOUND('',#109,.T.);
#31=FACE_BOUND('',#111,.T.);
#32=FACE_BOUND('',#114,.T.);
#33=PLANE('',#574);
#34=PLANE('',#586);
#35=PLANE('',#587);
#36=PLANE('',#590);
#37=PLANE('',#600);
#38=PLANE('',#603);
#39=PLANE('',#607);
#40=PLANE('',#619);
#41=PLANE('',#620);
#42=PLANE('',#621);
#43=PLANE('',#623);
#44=PLANE('',#627);
#45=PLANE('',#629);
#46=FACE_OUTER_BOUND('',#75,.T.);
#47=FACE_OUTER_BOUND('',#76,.T.);
#48=FACE_OUTER_BOUND('',#77,.T.);
#49=FACE_OUTER_BOUND('',#78,.T.);
#50=FACE_OUTER_BOUND('',#79,.T.);
#51=FACE_OUTER_BOUND('',#80,.T.);
#52=FACE_OUTER_BOUND('',#82,.T.);
#53=FACE_OUTER_BOUND('',#85,.T.);
#54=FACE_OUTER_BOUND('',#87,.T.);
#55=FACE_OUTER_BOUND('',#88,.T.);
#56=FACE_OUTER_BOUND('',#89,.T.);
#57=FACE_OUTER_BOUND('',#90,.T.);
#58=FACE_OUTER_BOUND('',#92,.T.);
#59=FACE_OUTER_BOUND('',#94,.T.);
#60=FACE_OUTER_BOUND('',#95,.T.);
#61=FACE_OUTER_BOUND('',#97,.T.);
#62=FACE_OUTER_BOUND('',#98,.T.);
#63=FACE_OUTER_BOUND('',#100,.T.);
#64=FACE_OUTER_BOUND('',#101,.T.);
#65=FACE_OUTER_BOUND('',#102,.T.);
#66=FACE_OUTER_BOUND('',#104,.T.);
#67=FACE_OUTER_BOUND('',#105,.T.);
#68=FACE_OUTER_BOUND('',#106,.T.);
#69=FACE_OUTER_BOUND('',#107,.T.);
#70=FACE_OUTER_BOUND('',#108,.T.);
#71=FACE_OUTER_BOUND('',#110,.T.);
#72=FACE_OUTER_BOUND('',#112,.T.);
#73=FACE_OUTER_BOUND('',#113,.T.);
#74=FACE_OUTER_BOUND('',#115,.T.);
#75=EDGE_LOOP('',(#361,#362,#363,#364));
#76=EDGE_LOOP('',(#365,#366,#367,#368,#369,#370,#371,#372));
#77=EDGE_LOOP('',(#373,#374,#375,#376));
#78=EDGE_LOOP('',(#377,#378,#379,#380,#381,#382,#383,#384));
#79=EDGE_LOOP('',(#385,#386,#387,#388));
#80=EDGE_LOOP('',(#389));
#81=EDGE_LOOP('',(#390));
#82=EDGE_LOOP('',(#391,#392,#393,#394,#395,#396,#397,#398,#399));
#83=EDGE_LOOP('',(#400));
#84=EDGE_LOOP('',(#401));
#85=EDGE_LOOP('',(#402,#403,#404,#405,#406,#407));
#86=EDGE_LOOP('',(#408));
#87=EDGE_LOOP('',(#409,#410,#411,#412));
#88=EDGE_LOOP('',(#413,#414,#415,#416));
#89=EDGE_LOOP('',(#417,#418,#419,#420));
#90=EDGE_LOOP('',(#421,#422,#423,#424,#425,#426,#427,#428,#429,#430));
#91=EDGE_LOOP('',(#431));
#92=EDGE_LOOP('',(#432,#433,#434,#435,#436,#437,#438,#439));
#93=EDGE_LOOP('',(#440));
#94=EDGE_LOOP('',(#441,#442,#443,#444));
#95=EDGE_LOOP('',(#445,#446,#447,#448));
#96=EDGE_LOOP('',(#449));
#97=EDGE_LOOP('',(#450,#451,#452,#453,#454,#455));
#98=EDGE_LOOP('',(#456,#457,#458,#459,#460,#461,#462));
#99=EDGE_LOOP('',(#463));
#100=EDGE_LOOP('',(#464,#465,#466,#467));
#101=EDGE_LOOP('',(#468,#469,#470,#471));
#102=EDGE_LOOP('',(#472,#473,#474,#475));
#103=EDGE_LOOP('',(#476));
#104=EDGE_LOOP('',(#477,#478,#479,#480));
#105=EDGE_LOOP('',(#481,#482,#483,#484));
#106=EDGE_LOOP('',(#485,#486,#487,#488));
#107=EDGE_LOOP('',(#489,#490,#491,#492));
#108=EDGE_LOOP('',(#493));
#109=EDGE_LOOP('',(#494));
#110=EDGE_LOOP('',(#495));
#111=EDGE_LOOP('',(#496));
#112=EDGE_LOOP('',(#497,#498,#499,#500));
#113=EDGE_LOOP('',(#501,#502,#503,#504,#505,#506,#507));
#114=EDGE_LOOP('',(#508));
#115=EDGE_LOOP('',(#509,#510,#511,#512,#513,#514));
#116=LINE('',#823,#153);
#117=LINE('',#826,#154);
#118=LINE('',#829,#155);
#119=LINE('',#831,#156);
#120=LINE('',#833,#157);
#121=LINE('',#835,#158);
#122=LINE('',#837,#159);
#123=LINE('',#839,#160);
#124=LINE('',#840,#161);
#125=LINE('',#846,#162);
#126=LINE('',#849,#163);
#127=LINE('',#854,#164);
#128=LINE('',#862,#165);
#129=LINE('',#869,#166);
#130=LINE('',#871,#167);
#131=LINE('',#872,#168);
#132=LINE('',#877,#169);
#133=LINE('',#881,#170);
#134=LINE('',#882,#171);
#135=LINE('',#887,#172);
#136=LINE('',#893,#173);
#137=LINE('',#898,#174);
#138=LINE('',#901,#175);
#139=LINE('',#903,#176);
#140=LINE('',#905,#177);
#141=LINE('',#907,#178);
#142=LINE('',#909,#179);
#143=LINE('',#911,#180);
#144=LINE('',#914,#181);
#145=LINE('',#918,#182);
#146=LINE('',#923,#183);
#147=LINE('',#942,#184);
#148=LINE('',#945,#185);
#149=LINE('',#947,#186);
#150=LINE('',#953,#187);
#151=LINE('',#964,#188);
#152=LINE('',#977,#189);
#153=VECTOR('',#646,10.);
#154=VECTOR('',#649,10.);
#155=VECTOR('',#652,10.);
#156=VECTOR('',#653,10.);
#157=VECTOR('',#654,10.);
#158=VECTOR('',#655,10.);
#159=VECTOR('',#656,10.);
#160=VECTOR('',#657,10.);
#161=VECTOR('',#658,10.);
#162=VECTOR('',#663,10.);
#163=VECTOR('',#666,10.);
#164=VECTOR('',#671,2.5);
#165=VECTOR('',#682,1.);
#166=VECTOR('',#691,10.);
#167=VECTOR('',#692,10.);
#168=VECTOR('',#693,10.);
#169=VECTOR('',#698,10.);
#170=VECTOR('',#701,10.);
#171=VECTOR('',#702,10.);
#172=VECTOR('',#707,1.25);
#173=VECTOR('',#714,1.25);
#174=VECTOR('',#721,10.);
#175=VECTOR('',#724,10.);
#176=VECTOR('',#725,10.);
#177=VECTOR('',#726,10.);
#178=VECTOR('',#727,10.);
#179=VECTOR('',#728,10.);
#180=VECTOR('',#729,10.);
#181=VECTOR('',#732,10.);
#182=VECTOR('',#737,10.);
#183=VECTOR('',#746,10.);
#184=VECTOR('',#771,10.);
#185=VECTOR('',#776,10.);
#186=VECTOR('',#779,10.);
#187=VECTOR('',#786,1.);
#188=VECTOR('',#801,1.5);
#189=VECTOR('',#816,1.5);
#190=CIRCLE('',#572,2.);
#191=CIRCLE('',#573,2.);
#192=CIRCLE('',#576,2.);
#193=CIRCLE('',#577,2.);
#194=CIRCLE('',#579,2.5);
#195=CIRCLE('',#580,2.5);
#196=CIRCLE('',#581,2.5);
#197=CIRCLE('',#582,2.5);
#198=CIRCLE('',#584,1.);
#199=CIRCLE('',#585,1.);
#200=CIRCLE('',#588,2.5);
#201=CIRCLE('',#589,1.25);
#202=CIRCLE('',#591,3.75);
#203=CIRCLE('',#592,3.11287648325468);
#204=CIRCLE('',#594,1.25);
#205=CIRCLE('',#596,1.25);
#206=CIRCLE('',#597,1.25);
#207=CIRCLE('',#599,2.5);
#208=CIRCLE('',#601,3.75);
#209=CIRCLE('',#602,3.11287648325468);
#210=CIRCLE('',#604,2.5);
#211=CIRCLE('',#606,2.5);
#212=CIRCLE('',#609,0.5);
#213=CIRCLE('',#610,2.69221749903107);
#214=CIRCLE('',#611,2.69221749903107);
#215=CIRCLE('',#612,2.69221749903107);
#216=CIRCLE('',#614,3.2);
#217=CIRCLE('',#615,3.2);
#218=CIRCLE('',#616,2.69221749903107);
#219=CIRCLE('',#618,0.5);
#220=CIRCLE('',#625,1.);
#221=CIRCLE('',#626,1.);
#222=CIRCLE('',#628,1.5);
#223=CIRCLE('',#630,1.5);
#224=CIRCLE('',#632,1.5);
#225=CIRCLE('',#634,1.5);
#226=CIRCLE('',#635,2.95);
#227=CIRCLE('',#636,1.5);
#228=CIRCLE('',#637,1.5);
#229=CIRCLE('',#638,2.95);
#230=VERTEX_POINT('',#819);
#231=VERTEX_POINT('',#820);
#232=VERTEX_POINT('',#822);
#233=VERTEX_POINT('',#824);
#234=VERTEX_POINT('',#828);
#235=VERTEX_POINT('',#830);
#236=VERTEX_POINT('',#832);
#237=VERTEX_POINT('',#834);
#238=VERTEX_POINT('',#836);
#239=VERTEX_POINT('',#838);
#240=VERTEX_POINT('',#842);
#241=VERTEX_POINT('',#843);
#242=VERTEX_POINT('',#845);
#243=VERTEX_POINT('',#847);
#244=VERTEX_POINT('',#851);
#245=VERTEX_POINT('',#853);
#246=VERTEX_POINT('',#859);
#247=VERTEX_POINT('',#861);
#248=VERTEX_POINT('',#866);
#249=VERTEX_POINT('',#868);
#250=VERTEX_POINT('',#870);
#251=VERTEX_POINT('',#873);
#252=VERTEX_POINT('',#876);
#253=VERTEX_POINT('',#878);
#254=VERTEX_POINT('',#880);
#255=VERTEX_POINT('',#883);
#256=VERTEX_POINT('',#886);
#257=VERTEX_POINT('',#890);
#258=VERTEX_POINT('',#892);
#259=VERTEX_POINT('',#896);
#260=VERTEX_POINT('',#900);
#261=VERTEX_POINT('',#902);
#262=VERTEX_POINT('',#904);
#263=VERTEX_POINT('',#906);
#264=VERTEX_POINT('',#908);
#265=VERTEX_POINT('',#910);
#266=VERTEX_POINT('',#912);
#267=VERTEX_POINT('',#915);
#268=VERTEX_POINT('',#925);
#269=VERTEX_POINT('',#927);
#270=VERTEX_POINT('',#929);
#271=VERTEX_POINT('',#933);
#272=VERTEX_POINT('',#935);
#273=VERTEX_POINT('',#937);
#274=VERTEX_POINT('',#950);
#275=VERTEX_POINT('',#952);
#276=VERTEX_POINT('',#956);
#277=VERTEX_POINT('',#959);
#278=VERTEX_POINT('',#962);
#279=VERTEX_POINT('',#966);
#280=VERTEX_POINT('',#967);
#281=VERTEX_POINT('',#969);
#282=VERTEX_POINT('',#971);
#283=VERTEX_POINT('',#974);
#284=EDGE_CURVE('',#230,#231,#190,.T.);
#285=EDGE_CURVE('',#231,#232,#116,.T.);
#286=EDGE_CURVE('',#232,#233,#191,.T.);
#287=EDGE_CURVE('',#233,#230,#117,.T.);
#288=EDGE_CURVE('',#234,#231,#118,.T.);
#289=EDGE_CURVE('',#235,#234,#119,.T.);
#290=EDGE_CURVE('',#235,#236,#120,.T.);
#291=EDGE_CURVE('',#236,#237,#121,.T.);
#292=EDGE_CURVE('',#237,#238,#122,.T.);
#293=EDGE_CURVE('',#239,#238,#123,.T.);
#294=EDGE_CURVE('',#239,#232,#124,.T.);
#295=EDGE_CURVE('',#240,#241,#192,.T.);
#296=EDGE_CURVE('',#241,#242,#125,.T.);
#297=EDGE_CURVE('',#242,#243,#193,.T.);
#298=EDGE_CURVE('',#243,#240,#126,.T.);
#299=EDGE_CURVE('',#244,#244,#194,.T.);
#300=EDGE_CURVE('',#244,#245,#127,.T.);
#301=EDGE_CURVE('',#242,#245,#195,.T.);
#302=EDGE_CURVE('',#230,#241,#196,.T.);
#303=EDGE_CURVE('',#245,#233,#197,.T.);
#304=EDGE_CURVE('',#246,#246,#198,.T.);
#305=EDGE_CURVE('',#246,#247,#128,.T.);
#306=EDGE_CURVE('',#247,#247,#199,.T.);
#307=EDGE_CURVE('',#248,#239,#200,.T.);
#308=EDGE_CURVE('',#249,#248,#129,.T.);
#309=EDGE_CURVE('',#250,#249,#130,.T.);
#310=EDGE_CURVE('',#243,#250,#131,.T.);
#311=EDGE_CURVE('',#251,#251,#201,.T.);
#312=EDGE_CURVE('',#250,#252,#132,.T.);
#313=EDGE_CURVE('',#253,#252,#202,.T.);
#314=EDGE_CURVE('',#253,#254,#133,.T.);
#315=EDGE_CURVE('',#240,#254,#134,.T.);
#316=EDGE_CURVE('',#255,#255,#203,.T.);
#317=EDGE_CURVE('',#251,#256,#135,.T.);
#318=EDGE_CURVE('',#256,#256,#204,.T.);
#319=EDGE_CURVE('',#257,#257,#205,.T.);
#320=EDGE_CURVE('',#257,#258,#136,.T.);
#321=EDGE_CURVE('',#258,#258,#206,.T.);
#322=EDGE_CURVE('',#238,#259,#207,.T.);
#323=EDGE_CURVE('',#259,#248,#137,.T.);
#324=EDGE_CURVE('',#259,#260,#138,.T.);
#325=EDGE_CURVE('',#260,#261,#139,.T.);
#326=EDGE_CURVE('',#261,#262,#140,.T.);
#327=EDGE_CURVE('',#263,#262,#141,.T.);
#328=EDGE_CURVE('',#263,#264,#142,.T.);
#329=EDGE_CURVE('',#264,#265,#143,.T.);
#330=EDGE_CURVE('',#265,#266,#208,.T.);
#331=EDGE_CURVE('',#266,#249,#144,.T.);
#332=EDGE_CURVE('',#267,#267,#209,.T.);
#333=EDGE_CURVE('',#254,#264,#145,.T.);
#334=EDGE_CURVE('',#234,#263,#210,.T.);
#335=EDGE_CURVE('',#262,#235,#211,.T.);
#336=EDGE_CURVE('',#236,#261,#146,.T.);
#337=EDGE_CURVE('',#267,#268,#212,.T.);
#338=EDGE_CURVE('',#268,#269,#213,.T.);
#339=EDGE_CURVE('',#269,#270,#214,.T.);
#340=EDGE_CURVE('',#270,#268,#215,.T.);
#341=EDGE_CURVE('',#270,#271,#216,.T.);
#342=EDGE_CURVE('',#272,#269,#217,.T.);
#343=EDGE_CURVE('',#273,#273,#218,.T.);
#344=EDGE_CURVE('',#255,#273,#219,.T.);
#345=EDGE_CURVE('',#237,#260,#147,.T.);
#346=EDGE_CURVE('',#252,#266,#148,.T.);
#347=EDGE_CURVE('',#253,#265,#149,.T.);
#348=EDGE_CURVE('',#274,#274,#220,.T.);
#349=EDGE_CURVE('',#274,#275,#150,.T.);
#350=EDGE_CURVE('',#275,#275,#221,.T.);
#351=EDGE_CURVE('',#276,#276,#222,.T.);
#352=EDGE_CURVE('',#277,#277,#223,.T.);
#353=EDGE_CURVE('',#278,#278,#224,.T.);
#354=EDGE_CURVE('',#278,#277,#151,.T.);
#355=EDGE_CURVE('',#279,#280,#225,.T.);
#356=EDGE_CURVE('',#279,#281,#226,.T.);
#357=EDGE_CURVE('',#282,#279,#227,.T.);
#358=EDGE_CURVE('',#280,#282,#228,.T.);
#359=EDGE_CURVE('',#283,#280,#229,.T.);
#360=EDGE_CURVE('',#282,#276,#152,.T.);
#361=ORIENTED_EDGE('',*,*,#284,.T.);
#362=ORIENTED_EDGE('',*,*,#285,.T.);
#363=ORIENTED_EDGE('',*,*,#286,.T.);
#364=ORIENTED_EDGE('',*,*,#287,.T.);
#365=ORIENTED_EDGE('',*,*,#285,.F.);
#366=ORIENTED_EDGE('',*,*,#288,.F.);
#367=ORIENTED_EDGE('',*,*,#289,.F.);
#368=ORIENTED_EDGE('',*,*,#290,.T.);
#369=ORIENTED_EDGE('',*,*,#291,.T.);
#370=ORIENTED_EDGE('',*,*,#292,.T.);
#371=ORIENTED_EDGE('',*,*,#293,.F.);
#372=ORIENTED_EDGE('',*,*,#294,.T.);
#373=ORIENTED_EDGE('',*,*,#295,.T.);
#374=ORIENTED_EDGE('',*,*,#296,.T.);
#375=ORIENTED_EDGE('',*,*,#297,.T.);
#376=ORIENTED_EDGE('',*,*,#298,.T.);
#377=ORIENTED_EDGE('',*,*,#299,.F.);
#378=ORIENTED_EDGE('',*,*,#300,.T.);
#379=ORIENTED_EDGE('',*,*,#301,.F.);
#380=ORIENTED_EDGE('',*,*,#296,.F.);
#381=ORIENTED_EDGE('',*,*,#302,.F.);
#382=ORIENTED_EDGE('',*,*,#287,.F.);
#383=ORIENTED_EDGE('',*,*,#303,.F.);
#384=ORIENTED_EDGE('',*,*,#300,.F.);
#385=ORIENTED_EDGE('',*,*,#304,.F.);
#386=ORIENTED_EDGE('',*,*,#305,.T.);
#387=ORIENTED_EDGE('',*,*,#306,.F.);
#388=ORIENTED_EDGE('',*,*,#305,.F.);
#389=ORIENTED_EDGE('',*,*,#299,.T.);
#390=ORIENTED_EDGE('',*,*,#304,.T.);
#391=ORIENTED_EDGE('',*,*,#301,.T.);
#392=ORIENTED_EDGE('',*,*,#303,.T.);
#393=ORIENTED_EDGE('',*,*,#286,.F.);
#394=ORIENTED_EDGE('',*,*,#294,.F.);
#395=ORIENTED_EDGE('',*,*,#307,.F.);
#396=ORIENTED_EDGE('',*,*,#308,.F.);
#397=ORIENTED_EDGE('',*,*,#309,.F.);
#398=ORIENTED_EDGE('',*,*,#310,.F.);
#399=ORIENTED_EDGE('',*,*,#297,.F.);
#400=ORIENTED_EDGE('',*,*,#306,.T.);
#401=ORIENTED_EDGE('',*,*,#311,.T.);
#402=ORIENTED_EDGE('',*,*,#298,.F.);
#403=ORIENTED_EDGE('',*,*,#310,.T.);
#404=ORIENTED_EDGE('',*,*,#312,.T.);
#405=ORIENTED_EDGE('',*,*,#313,.F.);
#406=ORIENTED_EDGE('',*,*,#314,.T.);
#407=ORIENTED_EDGE('',*,*,#315,.F.);
#408=ORIENTED_EDGE('',*,*,#316,.F.);
#409=ORIENTED_EDGE('',*,*,#311,.F.);
#410=ORIENTED_EDGE('',*,*,#317,.T.);
#411=ORIENTED_EDGE('',*,*,#318,.F.);
#412=ORIENTED_EDGE('',*,*,#317,.F.);
#413=ORIENTED_EDGE('',*,*,#319,.F.);
#414=ORIENTED_EDGE('',*,*,#320,.T.);
#415=ORIENTED_EDGE('',*,*,#321,.F.);
#416=ORIENTED_EDGE('',*,*,#320,.F.);
#417=ORIENTED_EDGE('',*,*,#307,.T.);
#418=ORIENTED_EDGE('',*,*,#293,.T.);
#419=ORIENTED_EDGE('',*,*,#322,.T.);
#420=ORIENTED_EDGE('',*,*,#323,.T.);
#421=ORIENTED_EDGE('',*,*,#323,.F.);
#422=ORIENTED_EDGE('',*,*,#324,.T.);
#423=ORIENTED_EDGE('',*,*,#325,.T.);
#424=ORIENTED_EDGE('',*,*,#326,.T.);
#425=ORIENTED_EDGE('',*,*,#327,.F.);
#426=ORIENTED_EDGE('',*,*,#328,.T.);
#427=ORIENTED_EDGE('',*,*,#329,.T.);
#428=ORIENTED_EDGE('',*,*,#330,.T.);
#429=ORIENTED_EDGE('',*,*,#331,.T.);
#430=ORIENTED_EDGE('',*,*,#308,.T.);
#431=ORIENTED_EDGE('',*,*,#332,.F.);
#432=ORIENTED_EDGE('',*,*,#302,.T.);
#433=ORIENTED_EDGE('',*,*,#295,.F.);
#434=ORIENTED_EDGE('',*,*,#315,.T.);
#435=ORIENTED_EDGE('',*,*,#333,.T.);
#436=ORIENTED_EDGE('',*,*,#328,.F.);
#437=ORIENTED_EDGE('',*,*,#334,.F.);
#438=ORIENTED_EDGE('',*,*,#288,.T.);
#439=ORIENTED_EDGE('',*,*,#284,.F.);
#440=ORIENTED_EDGE('',*,*,#321,.T.);
#441=ORIENTED_EDGE('',*,*,#334,.T.);
#442=ORIENTED_EDGE('',*,*,#327,.T.);
#443=ORIENTED_EDGE('',*,*,#335,.T.);
#444=ORIENTED_EDGE('',*,*,#289,.T.);
#445=ORIENTED_EDGE('',*,*,#335,.F.);
#446=ORIENTED_EDGE('',*,*,#326,.F.);
#447=ORIENTED_EDGE('',*,*,#336,.F.);
#448=ORIENTED_EDGE('',*,*,#290,.F.);
#449=ORIENTED_EDGE('',*,*,#319,.T.);
#450=ORIENTED_EDGE('',*,*,#332,.T.);
#451=ORIENTED_EDGE('',*,*,#337,.T.);
#452=ORIENTED_EDGE('',*,*,#338,.T.);
#453=ORIENTED_EDGE('',*,*,#339,.T.);
#454=ORIENTED_EDGE('',*,*,#340,.T.);
#455=ORIENTED_EDGE('',*,*,#337,.F.);
#456=ORIENTED_EDGE('',*,*,#338,.F.);
#457=ORIENTED_EDGE('',*,*,#340,.F.);
#458=ORIENTED_EDGE('',*,*,#341,.T.);
#459=ORIENTED_EDGE('',*,*,#341,.F.);
#460=ORIENTED_EDGE('',*,*,#339,.F.);
#461=ORIENTED_EDGE('',*,*,#342,.F.);
#462=ORIENTED_EDGE('',*,*,#342,.T.);
#463=ORIENTED_EDGE('',*,*,#343,.F.);
#464=ORIENTED_EDGE('',*,*,#316,.T.);
#465=ORIENTED_EDGE('',*,*,#344,.T.);
#466=ORIENTED_EDGE('',*,*,#343,.T.);
#467=ORIENTED_EDGE('',*,*,#344,.F.);
#468=ORIENTED_EDGE('',*,*,#291,.F.);
#469=ORIENTED_EDGE('',*,*,#336,.T.);
#470=ORIENTED_EDGE('',*,*,#325,.F.);
#471=ORIENTED_EDGE('',*,*,#345,.F.);
#472=ORIENTED_EDGE('',*,*,#322,.F.);
#473=ORIENTED_EDGE('',*,*,#292,.F.);
#474=ORIENTED_EDGE('',*,*,#345,.T.);
#475=ORIENTED_EDGE('',*,*,#324,.F.);
#476=ORIENTED_EDGE('',*,*,#318,.T.);
#477=ORIENTED_EDGE('',*,*,#312,.F.);
#478=ORIENTED_EDGE('',*,*,#309,.T.);
#479=ORIENTED_EDGE('',*,*,#331,.F.);
#480=ORIENTED_EDGE('',*,*,#346,.F.);
#481=ORIENTED_EDGE('',*,*,#313,.T.);
#482=ORIENTED_EDGE('',*,*,#346,.T.);
#483=ORIENTED_EDGE('',*,*,#330,.F.);
#484=ORIENTED_EDGE('',*,*,#347,.F.);
#485=ORIENTED_EDGE('',*,*,#314,.F.);
#486=ORIENTED_EDGE('',*,*,#347,.T.);
#487=ORIENTED_EDGE('',*,*,#329,.F.);
#488=ORIENTED_EDGE('',*,*,#333,.F.);
#489=ORIENTED_EDGE('',*,*,#348,.F.);
#490=ORIENTED_EDGE('',*,*,#349,.T.);
#491=ORIENTED_EDGE('',*,*,#350,.F.);
#492=ORIENTED_EDGE('',*,*,#349,.F.);
#493=ORIENTED_EDGE('',*,*,#351,.T.);
#494=ORIENTED_EDGE('',*,*,#350,.T.);
#495=ORIENTED_EDGE('',*,*,#352,.F.);
#496=ORIENTED_EDGE('',*,*,#348,.T.);
#497=ORIENTED_EDGE('',*,*,#353,.F.);
#498=ORIENTED_EDGE('',*,*,#354,.T.);
#499=ORIENTED_EDGE('',*,*,#352,.T.);
#500=ORIENTED_EDGE('',*,*,#354,.F.);
#501=ORIENTED_EDGE('',*,*,#355,.F.);
#502=ORIENTED_EDGE('',*,*,#356,.T.);
#503=ORIENTED_EDGE('',*,*,#356,.F.);
#504=ORIENTED_EDGE('',*,*,#357,.F.);
#505=ORIENTED_EDGE('',*,*,#358,.F.);
#506=ORIENTED_EDGE('',*,*,#359,.F.);
#507=ORIENTED_EDGE('',*,*,#359,.T.);
#508=ORIENTED_EDGE('',*,*,#353,.T.);
#509=ORIENTED_EDGE('',*,*,#355,.T.);
#510=ORIENTED_EDGE('',*,*,#358,.T.);
#511=ORIENTED_EDGE('',*,*,#360,.T.);
#512=ORIENTED_EDGE('',*,*,#351,.F.);
#513=ORIENTED_EDGE('',*,*,#360,.F.);
#514=ORIENTED_EDGE('',*,*,#357,.T.);
#515=CYLINDRICAL_SURFACE('',#571,2.);
#516=CYLINDRICAL_SURFACE('',#575,2.);
#517=CYLINDRICAL_SURFACE('',#578,2.5);
#518=CYLINDRICAL_SURFACE('',#583,1.);
#519=CYLINDRICAL_SURFACE('',#593,1.25);
#520=CYLINDRICAL_SURFACE('',#595,1.25);
#521=CYLINDRICAL_SURFACE('',#598,2.5);
#522=CYLINDRICAL_SURFACE('',#605,2.5);
#523=CYLINDRICAL_SURFACE('',#622,3.75);
#524=CYLINDRICAL_SURFACE('',#624,1.);
#525=CYLINDRICAL_SURFACE('',#631,1.5);
#526=CYLINDRICAL_SURFACE('',#639,1.5);
#527=ADVANCED_FACE('',(#46),#515,.F.);
#528=ADVANCED_FACE('',(#47),#33,.F.);
#529=ADVANCED_FACE('',(#48),#516,.F.);
#530=ADVANCED_FACE('',(#49),#517,.T.);
#531=ADVANCED_FACE('',(#50),#518,.F.);
#532=ADVANCED_FACE('',(#51,#21),#34,.F.);
#533=ADVANCED_FACE('',(#52,#22,#23),#35,.T.);
#534=ADVANCED_FACE('',(#53,#24),#36,.F.);
#535=ADVANCED_FACE('',(#54),#519,.F.);
#536=ADVANCED_FACE('',(#55),#520,.F.);
#537=ADVANCED_FACE('',(#56),#521,.T.);
#538=ADVANCED_FACE('',(#57,#25),#37,.T.);
#539=ADVANCED_FACE('',(#58,#26),#38,.T.);
#540=ADVANCED_FACE('',(#59),#522,.T.);
#541=ADVANCED_FACE('',(#60,#27),#39,.T.);
#542=ADVANCED_FACE('',(#61),#19,.T.);
#543=ADVANCED_FACE('',(#62,#28),#17,.F.);
#544=ADVANCED_FACE('',(#63),#20,.T.);
#545=ADVANCED_FACE('',(#64),#40,.T.);
#546=ADVANCED_FACE('',(#65,#29),#41,.T.);
#547=ADVANCED_FACE('',(#66),#42,.T.);
#548=ADVANCED_FACE('',(#67),#523,.T.);
#549=ADVANCED_FACE('',(#68),#43,.T.);
#550=ADVANCED_FACE('',(#69),#524,.F.);
#551=ADVANCED_FACE('',(#70,#30),#44,.T.);
#552=ADVANCED_FACE('',(#71,#31),#45,.T.);
#553=ADVANCED_FACE('',(#72),#525,.T.);
#554=ADVANCED_FACE('',(#73,#32),#18,.T.);
#555=ADVANCED_FACE('',(#74),#526,.F.);
#556=CLOSED_SHELL('',(#527,#528,#529,#530,#531,#532,#533,#534,#535,#536,
#537,#538,#539,#540,#541,#542,#543,#544,#545,#546,#547,#548,#549));
#557=CLOSED_SHELL('',(#550,#551,#552,#553,#554,#555));
#558=DERIVED_UNIT_ELEMENT(#560,1.);
#559=DERIVED_UNIT_ELEMENT(#983,-3.);
#560=(
MASS_UNIT()
NAMED_UNIT(*)
SI_UNIT(.KILO.,.GRAM.)
);
#561=DERIVED_UNIT((#558,#559));
#562=MEASURE_REPRESENTATION_ITEM('density measure',
POSITIVE_RATIO_MEASURE(7850.),#561);
#563=PROPERTY_DEFINITION_REPRESENTATION(#568,#565);
#564=PROPERTY_DEFINITION_REPRESENTATION(#569,#566);
#565=REPRESENTATION('material name',(#567),#980);
#566=REPRESENTATION('density',(#562),#980);
#567=DESCRIPTIVE_REPRESENTATION_ITEM('Steel','Steel');
#568=PROPERTY_DEFINITION('material property','material name',#990);
#569=PROPERTY_DEFINITION('material property','density of part',#990);
#570=AXIS2_PLACEMENT_3D('',#817,#640,#641);
#571=AXIS2_PLACEMENT_3D('',#818,#642,#643);
#572=AXIS2_PLACEMENT_3D('',#821,#644,#645);
#573=AXIS2_PLACEMENT_3D('',#825,#647,#648);
#574=AXIS2_PLACEMENT_3D('',#827,#650,#651);
#575=AXIS2_PLACEMENT_3D('',#841,#659,#660);
#576=AXIS2_PLACEMENT_3D('',#844,#661,#662);
#577=AXIS2_PLACEMENT_3D('',#848,#664,#665);
#578=AXIS2_PLACEMENT_3D('',#850,#667,#668);
#579=AXIS2_PLACEMENT_3D('',#852,#669,#670);
#580=AXIS2_PLACEMENT_3D('',#855,#672,#673);
#581=AXIS2_PLACEMENT_3D('',#856,#674,#675);
#582=AXIS2_PLACEMENT_3D('',#857,#676,#677);
#583=AXIS2_PLACEMENT_3D('',#858,#678,#679);
#584=AXIS2_PLACEMENT_3D('',#860,#680,#681);
#585=AXIS2_PLACEMENT_3D('',#863,#683,#684);
#586=AXIS2_PLACEMENT_3D('',#864,#685,#686);
#587=AXIS2_PLACEMENT_3D('',#865,#687,#688);
#588=AXIS2_PLACEMENT_3D('',#867,#689,#690);
#589=AXIS2_PLACEMENT_3D('',#874,#694,#695);
#590=AXIS2_PLACEMENT_3D('',#875,#696,#697);
#591=AXIS2_PLACEMENT_3D('',#879,#699,#700);
#592=AXIS2_PLACEMENT_3D('',#884,#703,#704);
#593=AXIS2_PLACEMENT_3D('',#885,#705,#706);
#594=AXIS2_PLACEMENT_3D('',#888,#708,#709);
#595=AXIS2_PLACEMENT_3D('',#889,#710,#711);
#596=AXIS2_PLACEMENT_3D('',#891,#712,#713);
#597=AXIS2_PLACEMENT_3D('',#894,#715,#716);
#598=AXIS2_PLACEMENT_3D('',#895,#717,#718);
#599=AXIS2_PLACEMENT_3D('',#897,#719,#720);
#600=AXIS2_PLACEMENT_3D('',#899,#722,#723);
#601=AXIS2_PLACEMENT_3D('',#913,#730,#731);
#602=AXIS2_PLACEMENT_3D('',#916,#733,#734);
#603=AXIS2_PLACEMENT_3D('',#917,#735,#736);
#604=AXIS2_PLACEMENT_3D('',#919,#738,#739);
#605=AXIS2_PLACEMENT_3D('',#920,#740,#741);
#606=AXIS2_PLACEMENT_3D('',#921,#742,#743);
#607=AXIS2_PLACEMENT_3D('',#922,#744,#745);
#608=AXIS2_PLACEMENT_3D('',#924,#747,#748);
#609=AXIS2_PLACEMENT_3D('',#926,#749,#750);
#610=AXIS2_PLACEMENT_3D('',#928,#751,#752);
#611=AXIS2_PLACEMENT_3D('',#930,#753,#754);
#612=AXIS2_PLACEMENT_3D('',#931,#755,#756);
#613=AXIS2_PLACEMENT_3D('',#932,#757,#758);
#614=AXIS2_PLACEMENT_3D('',#934,#759,#760);
#615=AXIS2_PLACEMENT_3D('',#936,#761,#762);
#616=AXIS2_PLACEMENT_3D('',#938,#763,#764);
#617=AXIS2_PLACEMENT_3D('',#939,#765,#766);
#618=AXIS2_PLACEMENT_3D('',#940,#767,#768);
#619=AXIS2_PLACEMENT_3D('',#941,#769,#770);
#620=AXIS2_PLACEMENT_3D('',#943,#772,#773);
#621=AXIS2_PLACEMENT_3D('',#944,#774,#775);
#622=AXIS2_PLACEMENT_3D('',#946,#777,#778);
#623=AXIS2_PLACEMENT_3D('',#948,#780,#781);
#624=AXIS2_PLACEMENT_3D('',#949,#782,#783);
#625=AXIS2_PLACEMENT_3D('',#951,#784,#785);
#626=AXIS2_PLACEMENT_3D('',#954,#787,#788);
#627=AXIS2_PLACEMENT_3D('',#955,#789,#790);
#628=AXIS2_PLACEMENT_3D('',#957,#791,#792);
#629=AXIS2_PLACEMENT_3D('',#958,#793,#794);
#630=AXIS2_PLACEMENT_3D('',#960,#795,#796);
#631=AXIS2_PLACEMENT_3D('',#961,#797,#798);
#632=AXIS2_PLACEMENT_3D('',#963,#799,#800);
#633=AXIS2_PLACEMENT_3D('',#965,#802,#803);
#634=AXIS2_PLACEMENT_3D('',#968,#804,#805);
#635=AXIS2_PLACEMENT_3D('',#970,#806,#807);
#636=AXIS2_PLACEMENT_3D('',#972,#808,#809);
#637=AXIS2_PLACEMENT_3D('',#973,#810,#811);
#638=AXIS2_PLACEMENT_3D('',#975,#812,#813);
#639=AXIS2_PLACEMENT_3D('',#976,#814,#815);
#640=DIRECTION('axis',(0.,0.,1.));
#641=DIRECTION('refdir',(1.,0.,0.));
#642=DIRECTION('center_axis',(-1.,0.,0.));
#643=DIRECTION('ref_axis',(0.,0.781735959970572,0.623609564462323));
#644=DIRECTION('center_axis',(-1.,0.,0.));
#645=DIRECTION('ref_axis',(0.,0.781735959970572,0.623609564462323));
#646=DIRECTION('',(1.,0.,0.));
#647=DIRECTION('center_axis',(1.,0.,0.));
#648=DIRECTION('ref_axis',(0.,0.781735959970572,0.623609564462323));
#649=DIRECTION('',(-1.,0.,0.));
#650=DIRECTION('center_axis',(0.,1.,0.));
#651=DIRECTION('ref_axis',(1.,0.,0.));
#652=DIRECTION('',(0.,0.,1.));
#653=DIRECTION('',(-1.,0.,0.));
#654=DIRECTION('',(0.,0.,1.));
#655=DIRECTION('',(1.,0.,0.));
#656=DIRECTION('',(0.,0.,-1.));
#657=DIRECTION('',(-1.,0.,0.));
#658=DIRECTION('',(0.,0.,1.));
#659=DIRECTION('center_axis',(1.,0.,0.));
#660=DIRECTION('ref_axis',(0.,0.781735959970572,-0.623609564462323));
#661=DIRECTION('center_axis',(-1.,0.,0.));
#662=DIRECTION('ref_axis',(0.,0.781735959970572,-0.623609564462323));
#663=DIRECTION('',(1.,0.,0.));
#664=DIRECTION('center_axis',(1.,0.,0.));
#665=DIRECTION('ref_axis',(0.,0.781735959970572,-0.623609564462323));
#666=DIRECTION('',(-1.,0.,0.));
#667=DIRECTION('center_axis',(-1.,0.,0.));
#668=DIRECTION('ref_axis',(0.,1.,0.));
#669=DIRECTION('center_axis',(-1.,0.,0.));
#670=DIRECTION('ref_axis',(0.,1.,0.));
#671=DIRECTION('',(1.,0.,0.));
#672=DIRECTION('center_axis',(1.,0.,0.));
#673=DIRECTION('ref_axis',(0.,1.,0.));
#674=DIRECTION('center_axis',(1.,0.,0.));
#675=DIRECTION('ref_axis',(0.,1.,0.));
#676=DIRECTION('center_axis',(1.,0.,0.));
#677=DIRECTION('ref_axis',(0.,1.,0.));
#678=DIRECTION('center_axis',(-1.,0.,0.));
#679=DIRECTION('ref_axis',(0.,1.,0.));
#680=DIRECTION('center_axis',(1.,0.,0.));
#681=DIRECTION('ref_axis',(0.,1.,0.));
#682=DIRECTION('',(1.,0.,0.));
#683=DIRECTION('center_axis',(-1.,0.,0.));
#684=DIRECTION('ref_axis',(0.,1.,0.));
#685=DIRECTION('center_axis',(1.,0.,0.));
#686=DIRECTION('ref_axis',(0.,1.,0.));
#687=DIRECTION('center_axis',(1.,0.,0.));
#688=DIRECTION('ref_axis',(0.,0.,-1.));
#689=DIRECTION('center_axis',(-1.,0.,0.));
#690=DIRECTION('ref_axis',(0.,0.707106781186547,-0.707106781186547));
#691=DIRECTION('',(0.,0.,-1.));
#692=DIRECTION('',(0.,1.,0.));
#693=DIRECTION('',(0.,0.,1.));
#694=DIRECTION('center_axis',(-1.,0.,0.));
#695=DIRECTION('ref_axis',(0.,1.,0.));
#696=DIRECTION('center_axis',(0.,1.,0.));
#697=DIRECTION('ref_axis',(1.,0.,0.));
#698=DIRECTION('',(-0.116443819035022,0.,0.993197280004602));
#699=DIRECTION('center_axis',(0.,1.,0.));
#700=DIRECTION('ref_axis',(1.,0.,0.));
#701=DIRECTION('',(-0.116443819035022,0.,-0.993197280004602));
#702=DIRECTION('',(0.,0.,1.));
#703=DIRECTION('center_axis',(0.,-1.,0.));
#704=DIRECTION('ref_axis',(0.,0.,1.));
#705=DIRECTION('center_axis',(-1.,0.,0.));
#706=DIRECTION('ref_axis',(0.,1.,0.));
#707=DIRECTION('',(-1.,0.,0.));
#708=DIRECTION('center_axis',(1.,0.,0.));
#709=DIRECTION('ref_axis',(0.,1.,0.));
#710=DIRECTION('center_axis',(-1.,0.,0.));
#711=DIRECTION('ref_axis',(0.,1.,0.));
#712=DIRECTION('center_axis',(-1.,0.,0.));
#713=DIRECTION('ref_axis',(0.,1.,0.));
#714=DIRECTION('',(-1.,0.,0.));
#715=DIRECTION('center_axis',(1.,0.,0.));
#716=DIRECTION('ref_axis',(0.,1.,0.));
#717=DIRECTION('center_axis',(-1.,0.,0.));
#718=DIRECTION('ref_axis',(0.,0.707106781186547,-0.707106781186547));
#719=DIRECTION('center_axis',(1.,0.,0.));
#720=DIRECTION('ref_axis',(0.,0.707106781186547,-0.707106781186547));
#721=DIRECTION('',(1.,0.,0.));
#722=DIRECTION('center_axis',(0.,1.,0.));
#723=DIRECTION('ref_axis',(1.,0.,0.));
#724=DIRECTION('',(0.,0.,1.));
#725=DIRECTION('',(-1.,0.,0.));
#726=DIRECTION('',(0.,0.,-1.));
#727=DIRECTION('',(1.,0.,0.));
#728=DIRECTION('',(0.,0.,1.));
#729=DIRECTION('',(0.116443819035022,0.,0.993197280004602));
#730=DIRECTION('center_axis',(0.,1.,0.));
#731=DIRECTION('ref_axis',(1.,0.,0.));
#732=DIRECTION('',(0.116443819035022,0.,-0.993197280004602));
#733=DIRECTION('center_axis',(0.,1.,0.));
#734=DIRECTION('ref_axis',(0.,0.,-1.));
#735=DIRECTION('center_axis',(-1.,0.,0.));
#736=DIRECTION('ref_axis',(0.,0.,1.));
#737=DIRECTION('',(0.,1.,0.));
#738=DIRECTION('center_axis',(1.,0.,0.));
#739=DIRECTION('ref_axis',(0.,0.707106781186547,-0.707106781186547));
#740=DIRECTION('center_axis',(1.,0.,0.));
#741=DIRECTION('ref_axis',(0.,-0.707106781186547,-0.707106781186547));
#742=DIRECTION('center_axis',(-1.,0.,0.));
#743=DIRECTION('ref_axis',(0.,0.707106781186547,-0.707106781186547));
#744=DIRECTION('center_axis',(1.,0.,0.));
#745=DIRECTION('ref_axis',(0.,0.,-1.));
#746=DIRECTION('',(0.,1.,0.));
#747=DIRECTION('center_axis',(0.,-1.,0.));
#748=DIRECTION('ref_axis',(0.,0.,-1.));
#749=DIRECTION('center_axis',(-1.,0.,0.));
#750=DIRECTION('ref_axis',(0.,0.,1.));
#751=DIRECTION('center_axis',(0.,-1.,0.));
#752=DIRECTION('ref_axis',(0.,0.,-1.));
#753=DIRECTION('center_axis',(0.,-1.,0.));
#754=DIRECTION('ref_axis',(0.,0.,-1.));
#755=DIRECTION('center_axis',(0.,-1.,0.));
#756=DIRECTION('ref_axis',(0.,0.,-1.));
#757=DIRECTION('center_axis',(1.,0.,0.));
#758=DIRECTION('ref_axis',(0.,-1.,0.));
#759=DIRECTION('center_axis',(0.,0.,-1.));
#760=DIRECTION('ref_axis',(0.,1.,0.));
#761=DIRECTION('center_axis',(0.,0.,-1.));
#762=DIRECTION('ref_axis',(0.,1.,0.));
#763=DIRECTION('center_axis',(0.,1.,0.));
#764=DIRECTION('ref_axis',(0.,0.,1.));
#765=DIRECTION('center_axis',(0.,1.,0.));
#766=DIRECTION('ref_axis',(0.,0.,1.));
#767=DIRECTION('center_axis',(-1.,0.,0.));
#768=DIRECTION('ref_axis',(0.,0.,-1.));
#769=DIRECTION('center_axis',(0.,0.,-1.));
#770=DIRECTION('ref_axis',(-1.,0.,0.));
#771=DIRECTION('',(0.,1.,0.));
#772=DIRECTION('center_axis',(-1.,0.,0.));
#773=DIRECTION('ref_axis',(0.,0.,1.));
#774=DIRECTION('center_axis',(0.993197280004602,0.,0.116443819035022));
#775=DIRECTION('ref_axis',(0.116443819035022,0.,-0.993197280004602));
#776=DIRECTION('',(0.,1.,0.));
#777=DIRECTION('center_axis',(0.,1.,0.));
#778=DIRECTION('ref_axis',(1.,0.,0.));
#779=DIRECTION('',(0.,1.,0.));
#780=DIRECTION('center_axis',(-0.993197280004602,0.,0.116443819035022));
#781=DIRECTION('ref_axis',(0.116443819035022,0.,0.993197280004602));
#782=DIRECTION('center_axis',(0.,1.,0.));
#783=DIRECTION('ref_axis',(1.,0.,0.));
#784=DIRECTION('center_axis',(0.,1.,0.));
#785=DIRECTION('ref_axis',(1.,0.,0.));
#786=DIRECTION('',(0.,1.,0.));
#787=DIRECTION('center_axis',(0.,-1.,0.));
#788=DIRECTION('ref_axis',(1.,0.,0.));
#789=DIRECTION('center_axis',(0.,1.,0.));
#790=DIRECTION('ref_axis',(0.,0.,1.));
#791=DIRECTION('center_axis',(0.,1.,0.));
#792=DIRECTION('ref_axis',(1.,0.,0.));
#793=DIRECTION('center_axis',(0.,-1.,0.));
#794=DIRECTION('ref_axis',(0.,0.,-1.));
#795=DIRECTION('center_axis',(0.,1.,0.));
#796=DIRECTION('ref_axis',(1.,0.,0.));
#797=DIRECTION('center_axis',(0.,1.,0.));
#798=DIRECTION('ref_axis',(0.,0.,1.));
#799=DIRECTION('center_axis',(0.,1.,0.));
#800=DIRECTION('ref_axis',(1.,0.,0.));
#801=DIRECTION('',(0.,-1.,0.));
#802=DIRECTION('center_axis',(1.,0.,0.));
#803=DIRECTION('ref_axis',(0.,-1.,0.));
#804=DIRECTION('center_axis',(0.,1.,0.));
#805=DIRECTION('ref_axis',(1.,0.,0.));
#806=DIRECTION('center_axis',(0.,0.,1.));
#807=DIRECTION('ref_axis',(0.,1.,0.));
#808=DIRECTION('center_axis',(0.,1.,0.));
#809=DIRECTION('ref_axis',(1.,0.,0.));
#810=DIRECTION('center_axis',(0.,1.,0.));
#811=DIRECTION('ref_axis',(1.,0.,0.));
#812=DIRECTION('center_axis',(0.,0.,1.));
#813=DIRECTION('ref_axis',(0.,1.,0.));
#814=DIRECTION('center_axis',(0.,1.,0.));
#815=DIRECTION('ref_axis',(0.,0.,1.));
#816=DIRECTION('',(0.,-1.,0.));
#817=CARTESIAN_POINT('',(0.,0.,0.));
#818=CARTESIAN_POINT('Origin',(16.,-2.,26.1125178063039));
#819=CARTESIAN_POINT('',(0.,-1.55555555555556,28.0625098923911));
#820=CARTESIAN_POINT('',(0.,0.,26.1125178063039));
#821=CARTESIAN_POINT('Origin',(0.,-2.,26.1125178063039));
#822=CARTESIAN_POINT('',(16.,0.,26.1125178063039));
#823=CARTESIAN_POINT('',(16.,0.,26.1125178063039));
#824=CARTESIAN_POINT('',(16.,-1.55555555555556,28.0625098923911));
#825=CARTESIAN_POINT('Origin',(16.,-2.,26.1125178063039));
#826=CARTESIAN_POINT('',(16.,-1.55555555555556,28.0625098923911));
#827=CARTESIAN_POINT('Origin',(8.,0.,45.));
#828=CARTESIAN_POINT('',(0.,0.,2.5));
#829=CARTESIAN_POINT('',(0.,0.,0.));
#830=CARTESIAN_POINT('',(3.,0.,2.5));
#831=CARTESIAN_POINT('',(5.5,0.,2.5));
#832=CARTESIAN_POINT('',(3.,0.,10.));
#833=CARTESIAN_POINT('',(3.,0.,0.));
#834=CARTESIAN_POINT('',(13.,0.,10.));
#835=CARTESIAN_POINT('',(3.,0.,10.));
#836=CARTESIAN_POINT('',(13.,0.,2.5));
#837=CARTESIAN_POINT('',(13.,0.,10.));
#838=CARTESIAN_POINT('',(16.,0.,2.5));
#839=CARTESIAN_POINT('',(12.,0.,2.5));
#840=CARTESIAN_POINT('',(16.,0.,0.));
#841=CARTESIAN_POINT('Origin',(16.,-2.,34.8874821936961));
#842=CARTESIAN_POINT('',(0.,0.,34.8874821936961));
#843=CARTESIAN_POINT('',(0.,-1.55555555555556,32.9374901076089));
#844=CARTESIAN_POINT('Origin',(0.,-2.,34.8874821936961));
#845=CARTESIAN_POINT('',(16.,-1.55555555555556,32.9374901076089));
#846=CARTESIAN_POINT('',(16.,-1.55555555555556,32.9374901076089));
#847=CARTESIAN_POINT('',(16.,0.,34.8874821936961));
#848=CARTESIAN_POINT('Origin',(16.,-2.,34.8874821936961));
#849=CARTESIAN_POINT('',(16.,0.,34.8874821936961));
#850=CARTESIAN_POINT('Origin',(16.,-1.,30.5));
#851=CARTESIAN_POINT('',(-9.,-3.5,30.5));
#852=CARTESIAN_POINT('Origin',(-9.,-1.,30.5));
#853=CARTESIAN_POINT('',(16.,-3.5,30.5));
#854=CARTESIAN_POINT('',(16.,-3.5,30.5));
#855=CARTESIAN_POINT('Origin',(16.,-1.,30.5));
#856=CARTESIAN_POINT('Origin',(0.,-1.,30.5));
#857=CARTESIAN_POINT('Origin',(16.,-1.,30.5));
#858=CARTESIAN_POINT('Origin',(16.,-1.,30.5));
#859=CARTESIAN_POINT('',(-9.,-2.,30.5));
#860=CARTESIAN_POINT('Origin',(-9.,-1.,30.5));
#861=CARTESIAN_POINT('',(16.,-2.,30.5));
#862=CARTESIAN_POINT('',(16.,-2.,30.5));
#863=CARTESIAN_POINT('Origin',(16.,-1.,30.5));
#864=CARTESIAN_POINT('Origin',(-9.,-1.,30.5));
#865=CARTESIAN_POINT('Origin',(16.,0.,50.));
#866=CARTESIAN_POINT('',(16.,5.,2.5));
#867=CARTESIAN_POINT('Origin',(16.,2.5,2.5));
#868=CARTESIAN_POINT('',(16.,5.,50.));
#869=CARTESIAN_POINT('',(16.,5.,0.));
#870=CARTESIAN_POINT('',(16.,0.,50.));
#871=CARTESIAN_POINT('',(16.,0.,50.));
#872=CARTESIAN_POINT('',(16.,0.,0.));
#873=CARTESIAN_POINT('',(16.,1.25,2.5));
#874=CARTESIAN_POINT('Origin',(16.,2.5,2.5));
#875=CARTESIAN_POINT('Origin',(8.,0.,45.));
#876=CARTESIAN_POINT('',(11.75,0.,86.25));
#877=CARTESIAN_POINT('',(16.,0.,50.));
#878=CARTESIAN_POINT('',(4.25,0.,86.25));
#879=CARTESIAN_POINT('Origin',(8.,0.,86.25));
#880=CARTESIAN_POINT('',(0.,0.,50.));
#881=CARTESIAN_POINT('',(4.25,0.,86.25));
#882=CARTESIAN_POINT('',(0.,0.,0.));
#883=CARTESIAN_POINT('',(8.,0.,83.1371235167453));
#884=CARTESIAN_POINT('Origin',(8.,0.,86.25));
#885=CARTESIAN_POINT('Origin',(16.,2.5,2.5));
#886=CARTESIAN_POINT('',(13.,1.25,2.5));
#887=CARTESIAN_POINT('',(16.,1.25,2.5));
#888=CARTESIAN_POINT('Origin',(13.,2.5,2.5));
#889=CARTESIAN_POINT('Origin',(16.,2.5,2.5));
#890=CARTESIAN_POINT('',(3.,1.25,2.5));
#891=CARTESIAN_POINT('Origin',(3.,2.5,2.5));
#892=CARTESIAN_POINT('',(0.,1.25,2.5));
#893=CARTESIAN_POINT('',(16.,1.25,2.5));
#894=CARTESIAN_POINT('Origin',(0.,2.5,2.5));
#895=CARTESIAN_POINT('Origin',(12.,2.5,2.5));
#896=CARTESIAN_POINT('',(13.,5.,2.5));
#897=CARTESIAN_POINT('Origin',(13.,2.5,2.5));
#898=CARTESIAN_POINT('',(12.,5.,2.5));
#899=CARTESIAN_POINT('Origin',(8.,5.,45.));
#900=CARTESIAN_POINT('',(13.,5.,10.));
#901=CARTESIAN_POINT('',(13.,5.,10.));
#902=CARTESIAN_POINT('',(3.,5.,10.));
#903=CARTESIAN_POINT('',(3.,5.,10.));
#904=CARTESIAN_POINT('',(3.,5.,2.5));
#905=CARTESIAN_POINT('',(3.,5.,0.));
#906=CARTESIAN_POINT('',(0.,5.,2.5));
#907=CARTESIAN_POINT('',(5.5,5.,2.5));
#908=CARTESIAN_POINT('',(0.,5.,50.));
#909=CARTESIAN_POINT('',(0.,5.,0.));
#910=CARTESIAN_POINT('',(4.25,5.,86.25));
#911=CARTESIAN_POINT('',(4.25,5.,86.25));
#912=CARTESIAN_POINT('',(11.75,5.,86.25));
#913=CARTESIAN_POINT('Origin',(8.,5.,86.25));
#914=CARTESIAN_POINT('',(16.,5.,50.));
#915=CARTESIAN_POINT('',(8.,5.,89.3628764832547));
#916=CARTESIAN_POINT('Origin',(8.,5.,86.25));
#917=CARTESIAN_POINT('Origin',(0.,0.,0.));
#918=CARTESIAN_POINT('',(0.,0.,50.));
#919=CARTESIAN_POINT('Origin',(0.,2.5,2.5));
#920=CARTESIAN_POINT('Origin',(5.5,2.5,2.5));
#921=CARTESIAN_POINT('Origin',(3.,2.5,2.5));
#922=CARTESIAN_POINT('Origin',(3.,0.,10.));
#923=CARTESIAN_POINT('',(3.,0.,10.));
#924=CARTESIAN_POINT('Origin',(8.,4.5,86.25));
#925=CARTESIAN_POINT('',(8.,4.22972972972973,88.9422174990311));
#926=CARTESIAN_POINT('Origin',(8.,4.5,89.3628764832547));
#927=CARTESIAN_POINT('',(5.30778250096893,4.22972972972973,86.25));
#928=CARTESIAN_POINT('Origin',(8.,4.22972972972973,86.25));
#929=CARTESIAN_POINT('',(10.6922174990311,4.22972972972973,86.25));
#930=CARTESIAN_POINT('Origin',(8.,4.22972972972973,86.25));
#931=CARTESIAN_POINT('Origin',(8.,4.22972972972973,86.25));
#932=CARTESIAN_POINT('Origin',(8.,2.5,86.25));
#933=CARTESIAN_POINT('',(11.2,2.5,86.25));
#934=CARTESIAN_POINT('Origin',(8.,2.5,86.25));
#935=CARTESIAN_POINT('',(4.8,2.5,86.25));
#936=CARTESIAN_POINT('Origin',(8.,2.5,86.25));
#937=CARTESIAN_POINT('',(8.,0.77027027027027,83.5577825009689));
#938=CARTESIAN_POINT('Origin',(8.,0.77027027027027,86.25));
#939=CARTESIAN_POINT('Origin',(8.,0.5,86.25));
#940=CARTESIAN_POINT('Origin',(8.,0.5,83.1371235167453));
#941=CARTESIAN_POINT('Origin',(13.,0.,10.));
#942=CARTESIAN_POINT('',(13.,0.,10.));
#943=CARTESIAN_POINT('Origin',(13.,0.,0.));
#944=CARTESIAN_POINT('Origin',(11.75,0.,86.25));
#945=CARTESIAN_POINT('',(11.75,0.,86.25));
#946=CARTESIAN_POINT('Origin',(8.,0.,86.25));
#947=CARTESIAN_POINT('',(4.25,0.,86.25));
#948=CARTESIAN_POINT('Origin',(0.,0.,50.));
#949=CARTESIAN_POINT('Origin',(8.,-1.,86.25));
#950=CARTESIAN_POINT('',(7.,-1.,86.25));
#951=CARTESIAN_POINT('Origin',(8.,-1.,86.25));
#952=CARTESIAN_POINT('',(7.,5.,86.25));
#953=CARTESIAN_POINT('',(7.,-1.,86.25));
#954=CARTESIAN_POINT('Origin',(8.,5.,86.25));
#955=CARTESIAN_POINT('Origin',(8.,5.,86.25));
#956=CARTESIAN_POINT('',(8.,5.,84.75));
#957=CARTESIAN_POINT('Origin',(8.,5.,86.25));
#958=CARTESIAN_POINT('Origin',(8.,-1.,87.75));
#959=CARTESIAN_POINT('',(8.,-1.,84.75));
#960=CARTESIAN_POINT('Origin',(8.,-1.,86.25));
#961=CARTESIAN_POINT('Origin',(8.,-0.520088579588053,86.25));
#962=CARTESIAN_POINT('',(8.,-0.0401771591761046,84.75));
#963=CARTESIAN_POINT('Origin',(8.,-0.0401771591761046,86.25));
#964=CARTESIAN_POINT('',(8.,-0.520088579588053,84.75));
#965=CARTESIAN_POINT('Origin',(8.,2.5,86.25));
#966=CARTESIAN_POINT('',(6.5,5.04017715917611,86.25));
#967=CARTESIAN_POINT('',(9.5,5.04017715917611,86.25));
#968=CARTESIAN_POINT('Origin',(8.,5.04017715917611,86.25));
#969=CARTESIAN_POINT('',(5.05,2.5,86.25));
#970=CARTESIAN_POINT('Origin',(8.,2.5,86.25));
#971=CARTESIAN_POINT('',(8.,5.04017715917611,84.75));
#972=CARTESIAN_POINT('Origin',(8.,5.04017715917611,86.25));
#973=CARTESIAN_POINT('Origin',(8.,5.04017715917611,86.25));
#974=CARTESIAN_POINT('',(10.95,2.5,86.25));
#975=CARTESIAN_POINT('Origin',(8.,2.5,86.25));
#976=CARTESIAN_POINT('Origin',(8.,5.02008857958805,86.25));
#977=CARTESIAN_POINT('',(8.,5.02008857958805,84.75));
#978=UNCERTAINTY_MEASURE_WITH_UNIT(LENGTH_MEASURE(0.01),#982,
'DISTANCE_ACCURACY_VALUE',
'Maximum model space distance between geometric entities at asserted c
onnectivities');
#979=UNCERTAINTY_MEASURE_WITH_UNIT(LENGTH_MEASURE(0.01),#982,
'DISTANCE_ACCURACY_VALUE',
'Maximum model space distance between geometric entities at asserted c
onnectivities');
#980=(
GEOMETRIC_REPRESENTATION_CONTEXT(3)
GLOBAL_UNCERTAINTY_ASSIGNED_CONTEXT((#978))
GLOBAL_UNIT_ASSIGNED_CONTEXT((#982,#984,#985))
REPRESENTATION_CONTEXT('','3D')
);
#981=(
GEOMETRIC_REPRESENTATION_CONTEXT(3)
GLOBAL_UNCERTAINTY_ASSIGNED_CONTEXT((#979))
GLOBAL_UNIT_ASSIGNED_CONTEXT((#982,#984,#985))
REPRESENTATION_CONTEXT('','3D')
);
#982=(
LENGTH_UNIT()
NAMED_UNIT(*)
SI_UNIT(.MILLI.,.METRE.)
);
#983=(
LENGTH_UNIT()
NAMED_UNIT(*)
SI_UNIT($,.METRE.)
);
#984=(
NAMED_UNIT(*)
PLANE_ANGLE_UNIT()
SI_UNIT($,.RADIAN.)
);
#985=(
NAMED_UNIT(*)
SI_UNIT($,.STERADIAN.)
SOLID_ANGLE_UNIT()
);
#986=SHAPE_DEFINITION_REPRESENTATION(#987,#988);
#987=PRODUCT_DEFINITION_SHAPE('',$,#990);
#988=SHAPE_REPRESENTATION('',(#570),#980);
#989=PRODUCT_DEFINITION_CONTEXT('part definition',#994,'design');
#990=PRODUCT_DEFINITION('bottom control arm passenger side',
'bottom control arm passenger side v2',#991,#989);
#991=PRODUCT_DEFINITION_FORMATION('',$,#996);
#992=PRODUCT_RELATED_PRODUCT_CATEGORY(
'bottom control arm passenger side v2',
'bottom control arm passenger side v2',(#996));
#993=APPLICATION_PROTOCOL_DEFINITION('international standard',
'automotive_design',2009,#994);
#994=APPLICATION_CONTEXT(
'Core Data for Automotive Mechanical Design Process');
#995=PRODUCT_CONTEXT('part definition',#994,'mechanical');
#996=PRODUCT('bottom control arm passenger side',
'bottom control arm passenger side v2',$,(#995));
#997=PRESENTATION_STYLE_ASSIGNMENT((#998));
#998=SURFACE_STYLE_USAGE(.BOTH.,#999);
#999=SURFACE_SIDE_STYLE('',(#1000));
#1000=SURFACE_STYLE_FILL_AREA(#1001);
#1001=FILL_AREA_STYLE('Steel - Satin',(#1002));
#1002=FILL_AREA_STYLE_COLOUR('Steel - Satin',#1003);
#1003=COLOUR_RGB('Steel - Satin',0.627450980392157,0.627450980392157,0.627450980392157);
ENDSEC;
END-ISO-10303-21;
