ISO-10303-21;
HEADER;
/* Generated by software containing ST-Developer
 * from STEP Tools, Inc. (www.steptools.com) 
 */

FILE_DESCRIPTION(
/* description */ (''),
/* implementation_level */ '2;1');

FILE_NAME(
/* name */ 'frame rails v3.step',
/* time_stamp */ '2025-05-27T12:47:58-07:00',
/* author */ (''),
/* organization */ (''),
/* preprocessor_version */ 'ST-DEVELOPER v20.1',
/* originating_system */ 'Autodesk Translation Framework v14.10.0.0',
/* authorisation */ '');

FILE_SCHEMA (('AUTOMOTIVE_DESIGN { 1 0 10303 214 3 1 1 }'));
ENDSEC;

DATA;
#10=MECHANICAL_DESIGN_GEOMETRIC_PRESENTATION_REPRESENTATION('',(#13),#587);
#11=SHAPE_REPRESENTATION_RELATIONSHIP('SRR','None',#594,#12);
#12=ADVANCED_BREP_SHAPE_REPRESENTATION('',(#14),#586);
#13=STYLED_ITEM('',(#603),#14);
#14=MANIFOLD_SOLID_BREP('Body1',#351);
#15=CIRCLE('',#369,2.);
#16=CIRCLE('',#370,2.);
#17=CIRCLE('',#373,2.);
#18=CIRCLE('',#374,2.);
#19=CIRCLE('',#377,2.);
#20=CIRCLE('',#378,2.);
#21=CIRCLE('',#381,2.);
#22=CIRCLE('',#382,2.);
#23=CYLINDRICAL_SURFACE('',#368,2.);
#24=CYLINDRICAL_SURFACE('',#372,2.);
#25=CYLINDRICAL_SURFACE('',#376,2.);
#26=CYLINDRICAL_SURFACE('',#380,2.);
#27=FACE_OUTER_BOUND('',#45,.T.);
#28=FACE_OUTER_BOUND('',#46,.T.);
#29=FACE_OUTER_BOUND('',#47,.T.);
#30=FACE_OUTER_BOUND('',#48,.T.);
#31=FACE_OUTER_BOUND('',#49,.T.);
#32=FACE_OUTER_BOUND('',#50,.T.);
#33=FACE_OUTER_BOUND('',#51,.T.);
#34=FACE_OUTER_BOUND('',#52,.T.);
#35=FACE_OUTER_BOUND('',#53,.T.);
#36=FACE_OUTER_BOUND('',#54,.T.);
#37=FACE_OUTER_BOUND('',#55,.T.);
#38=FACE_OUTER_BOUND('',#56,.T.);
#39=FACE_OUTER_BOUND('',#57,.T.);
#40=FACE_OUTER_BOUND('',#58,.T.);
#41=FACE_OUTER_BOUND('',#59,.T.);
#42=FACE_OUTER_BOUND('',#60,.T.);
#43=FACE_OUTER_BOUND('',#61,.T.);
#44=FACE_OUTER_BOUND('',#62,.T.);
#45=EDGE_LOOP('',(#223,#224,#225,#226));
#46=EDGE_LOOP('',(#227,#228,#229,#230));
#47=EDGE_LOOP('',(#231,#232,#233,#234));
#48=EDGE_LOOP('',(#235,#236,#237,#238));
#49=EDGE_LOOP('',(#239,#240,#241,#242));
#50=EDGE_LOOP('',(#243,#244,#245,#246));
#51=EDGE_LOOP('',(#247,#248,#249,#250));
#52=EDGE_LOOP('',(#251,#252,#253,#254));
#53=EDGE_LOOP('',(#255,#256,#257,#258));
#54=EDGE_LOOP('',(#259,#260,#261,#262));
#55=EDGE_LOOP('',(#263,#264,#265,#266));
#56=EDGE_LOOP('',(#267,#268,#269,#270));
#57=EDGE_LOOP('',(#271,#272,#273,#274));
#58=EDGE_LOOP('',(#275,#276,#277,#278));
#59=EDGE_LOOP('',(#279,#280,#281,#282));
#60=EDGE_LOOP('',(#283,#284,#285,#286));
#61=EDGE_LOOP('',(#287,#288,#289,#290,#291,#292,#293,#294,#295,#296,#297,
#298,#299,#300,#301,#302));
#62=EDGE_LOOP('',(#303,#304,#305,#306,#307,#308,#309,#310,#311,#312,#313,
#314,#315,#316,#317,#318));
#63=LINE('',#489,#103);
#64=LINE('',#491,#104);
#65=LINE('',#493,#105);
#66=LINE('',#494,#106);
#67=LINE('',#498,#107);
#68=LINE('',#500,#108);
#69=LINE('',#502,#109);
#70=LINE('',#503,#110);
#71=LINE('',#507,#111);
#72=LINE('',#509,#112);
#73=LINE('',#511,#113);
#74=LINE('',#512,#114);
#75=LINE('',#518,#115);
#76=LINE('',#521,#116);
#77=LINE('',#524,#117);
#78=LINE('',#526,#118);
#79=LINE('',#527,#119);
#80=LINE('',#532,#120);
#81=LINE('',#535,#121);
#82=LINE('',#536,#122);
#83=LINE('',#542,#123);
#84=LINE('',#545,#124);
#85=LINE('',#548,#125);
#86=LINE('',#550,#126);
#87=LINE('',#551,#127);
#88=LINE('',#556,#128);
#89=LINE('',#559,#129);
#90=LINE('',#560,#130);
#91=LINE('',#562,#131);
#92=LINE('',#563,#132);
#93=LINE('',#566,#133);
#94=LINE('',#568,#134);
#95=LINE('',#569,#135);
#96=LINE('',#572,#136);
#97=LINE('',#574,#137);
#98=LINE('',#575,#138);
#99=LINE('',#577,#139);
#100=LINE('',#578,#140);
#101=LINE('',#580,#141);
#102=LINE('',#581,#142);
#103=VECTOR('',#395,10.);
#104=VECTOR('',#396,10.);
#105=VECTOR('',#397,10.);
#106=VECTOR('',#398,10.);
#107=VECTOR('',#401,10.);
#108=VECTOR('',#402,10.);
#109=VECTOR('',#403,10.);
#110=VECTOR('',#404,10.);
#111=VECTOR('',#407,10.);
#112=VECTOR('',#408,10.);
#113=VECTOR('',#409,10.);
#114=VECTOR('',#410,10.);
#115=VECTOR('',#415,10.);
#116=VECTOR('',#418,10.);
#117=VECTOR('',#421,10.);
#118=VECTOR('',#422,10.);
#119=VECTOR('',#423,10.);
#120=VECTOR('',#428,10.);
#121=VECTOR('',#433,10.);
#122=VECTOR('',#434,10.);
#123=VECTOR('',#439,10.);
#124=VECTOR('',#442,10.);
#125=VECTOR('',#445,10.);
#126=VECTOR('',#446,10.);
#127=VECTOR('',#447,10.);
#128=VECTOR('',#452,10.);
#129=VECTOR('',#457,10.);
#130=VECTOR('',#458,10.);
#131=VECTOR('',#461,10.);
#132=VECTOR('',#462,10.);
#133=VECTOR('',#465,10.);
#134=VECTOR('',#466,10.);
#135=VECTOR('',#467,10.);
#136=VECTOR('',#470,10.);
#137=VECTOR('',#471,10.);
#138=VECTOR('',#472,10.);
#139=VECTOR('',#475,10.);
#140=VECTOR('',#476,10.);
#141=VECTOR('',#479,10.);
#142=VECTOR('',#480,10.);
#143=VERTEX_POINT('',#487);
#144=VERTEX_POINT('',#488);
#145=VERTEX_POINT('',#490);
#146=VERTEX_POINT('',#492);
#147=VERTEX_POINT('',#496);
#148=VERTEX_POINT('',#497);
#149=VERTEX_POINT('',#499);
#150=VERTEX_POINT('',#501);
#151=VERTEX_POINT('',#505);
#152=VERTEX_POINT('',#506);
#153=VERTEX_POINT('',#508);
#154=VERTEX_POINT('',#510);
#155=VERTEX_POINT('',#514);
#156=VERTEX_POINT('',#515);
#157=VERTEX_POINT('',#517);
#158=VERTEX_POINT('',#519);
#159=VERTEX_POINT('',#523);
#160=VERTEX_POINT('',#525);
#161=VERTEX_POINT('',#529);
#162=VERTEX_POINT('',#531);
#163=VERTEX_POINT('',#538);
#164=VERTEX_POINT('',#539);
#165=VERTEX_POINT('',#541);
#166=VERTEX_POINT('',#543);
#167=VERTEX_POINT('',#547);
#168=VERTEX_POINT('',#549);
#169=VERTEX_POINT('',#553);
#170=VERTEX_POINT('',#555);
#171=VERTEX_POINT('',#565);
#172=VERTEX_POINT('',#567);
#173=VERTEX_POINT('',#571);
#174=VERTEX_POINT('',#573);
#175=EDGE_CURVE('',#143,#144,#63,.T.);
#176=EDGE_CURVE('',#144,#145,#64,.T.);
#177=EDGE_CURVE('',#145,#146,#65,.T.);
#178=EDGE_CURVE('',#146,#143,#66,.T.);
#179=EDGE_CURVE('',#147,#148,#67,.T.);
#180=EDGE_CURVE('',#148,#149,#68,.T.);
#181=EDGE_CURVE('',#149,#150,#69,.T.);
#182=EDGE_CURVE('',#150,#147,#70,.T.);
#183=EDGE_CURVE('',#151,#152,#71,.T.);
#184=EDGE_CURVE('',#152,#153,#72,.T.);
#185=EDGE_CURVE('',#153,#154,#73,.T.);
#186=EDGE_CURVE('',#154,#151,#74,.T.);
#187=EDGE_CURVE('',#155,#156,#15,.T.);
#188=EDGE_CURVE('',#156,#157,#75,.T.);
#189=EDGE_CURVE('',#157,#158,#16,.T.);
#190=EDGE_CURVE('',#158,#155,#76,.T.);
#191=EDGE_CURVE('',#156,#159,#77,.T.);
#192=EDGE_CURVE('',#160,#159,#78,.T.);
#193=EDGE_CURVE('',#157,#160,#79,.T.);
#194=EDGE_CURVE('',#159,#161,#17,.T.);
#195=EDGE_CURVE('',#161,#162,#80,.T.);
#196=EDGE_CURVE('',#162,#160,#18,.T.);
#197=EDGE_CURVE('',#161,#151,#81,.T.);
#198=EDGE_CURVE('',#162,#154,#82,.T.);
#199=EDGE_CURVE('',#163,#164,#19,.T.);
#200=EDGE_CURVE('',#164,#165,#83,.T.);
#201=EDGE_CURVE('',#165,#166,#20,.T.);
#202=EDGE_CURVE('',#166,#163,#84,.T.);
#203=EDGE_CURVE('',#164,#167,#85,.T.);
#204=EDGE_CURVE('',#168,#167,#86,.T.);
#205=EDGE_CURVE('',#165,#168,#87,.T.);
#206=EDGE_CURVE('',#167,#169,#21,.T.);
#207=EDGE_CURVE('',#169,#170,#88,.T.);
#208=EDGE_CURVE('',#170,#168,#22,.T.);
#209=EDGE_CURVE('',#169,#147,#89,.T.);
#210=EDGE_CURVE('',#170,#150,#90,.T.);
#211=EDGE_CURVE('',#158,#145,#91,.T.);
#212=EDGE_CURVE('',#155,#144,#92,.T.);
#213=EDGE_CURVE('',#143,#171,#93,.T.);
#214=EDGE_CURVE('',#172,#146,#94,.T.);
#215=EDGE_CURVE('',#171,#172,#95,.T.);
#216=EDGE_CURVE('',#171,#173,#96,.T.);
#217=EDGE_CURVE('',#174,#172,#97,.T.);
#218=EDGE_CURVE('',#173,#174,#98,.T.);
#219=EDGE_CURVE('',#173,#148,#99,.T.);
#220=EDGE_CURVE('',#174,#149,#100,.T.);
#221=EDGE_CURVE('',#166,#153,#101,.T.);
#222=EDGE_CURVE('',#163,#152,#102,.T.);
#223=ORIENTED_EDGE('',*,*,#175,.T.);
#224=ORIENTED_EDGE('',*,*,#176,.T.);
#225=ORIENTED_EDGE('',*,*,#177,.T.);
#226=ORIENTED_EDGE('',*,*,#178,.T.);
#227=ORIENTED_EDGE('',*,*,#179,.T.);
#228=ORIENTED_EDGE('',*,*,#180,.T.);
#229=ORIENTED_EDGE('',*,*,#181,.T.);
#230=ORIENTED_EDGE('',*,*,#182,.T.);
#231=ORIENTED_EDGE('',*,*,#183,.T.);
#232=ORIENTED_EDGE('',*,*,#184,.T.);
#233=ORIENTED_EDGE('',*,*,#185,.T.);
#234=ORIENTED_EDGE('',*,*,#186,.T.);
#235=ORIENTED_EDGE('',*,*,#187,.T.);
#236=ORIENTED_EDGE('',*,*,#188,.T.);
#237=ORIENTED_EDGE('',*,*,#189,.T.);
#238=ORIENTED_EDGE('',*,*,#190,.T.);
#239=ORIENTED_EDGE('',*,*,#188,.F.);
#240=ORIENTED_EDGE('',*,*,#191,.T.);
#241=ORIENTED_EDGE('',*,*,#192,.F.);
#242=ORIENTED_EDGE('',*,*,#193,.F.);
#243=ORIENTED_EDGE('',*,*,#194,.T.);
#244=ORIENTED_EDGE('',*,*,#195,.T.);
#245=ORIENTED_EDGE('',*,*,#196,.T.);
#246=ORIENTED_EDGE('',*,*,#192,.T.);
#247=ORIENTED_EDGE('',*,*,#195,.F.);
#248=ORIENTED_EDGE('',*,*,#197,.T.);
#249=ORIENTED_EDGE('',*,*,#186,.F.);
#250=ORIENTED_EDGE('',*,*,#198,.F.);
#251=ORIENTED_EDGE('',*,*,#199,.T.);
#252=ORIENTED_EDGE('',*,*,#200,.T.);
#253=ORIENTED_EDGE('',*,*,#201,.T.);
#254=ORIENTED_EDGE('',*,*,#202,.T.);
#255=ORIENTED_EDGE('',*,*,#200,.F.);
#256=ORIENTED_EDGE('',*,*,#203,.T.);
#257=ORIENTED_EDGE('',*,*,#204,.F.);
#258=ORIENTED_EDGE('',*,*,#205,.F.);
#259=ORIENTED_EDGE('',*,*,#206,.T.);
#260=ORIENTED_EDGE('',*,*,#207,.T.);
#261=ORIENTED_EDGE('',*,*,#208,.T.);
#262=ORIENTED_EDGE('',*,*,#204,.T.);
#263=ORIENTED_EDGE('',*,*,#207,.F.);
#264=ORIENTED_EDGE('',*,*,#209,.T.);
#265=ORIENTED_EDGE('',*,*,#182,.F.);
#266=ORIENTED_EDGE('',*,*,#210,.F.);
#267=ORIENTED_EDGE('',*,*,#190,.F.);
#268=ORIENTED_EDGE('',*,*,#211,.T.);
#269=ORIENTED_EDGE('',*,*,#176,.F.);
#270=ORIENTED_EDGE('',*,*,#212,.F.);
#271=ORIENTED_EDGE('',*,*,#213,.F.);
#272=ORIENTED_EDGE('',*,*,#178,.F.);
#273=ORIENTED_EDGE('',*,*,#214,.F.);
#274=ORIENTED_EDGE('',*,*,#215,.F.);
#275=ORIENTED_EDGE('',*,*,#216,.F.);
#276=ORIENTED_EDGE('',*,*,#215,.T.);
#277=ORIENTED_EDGE('',*,*,#217,.F.);
#278=ORIENTED_EDGE('',*,*,#218,.F.);
#279=ORIENTED_EDGE('',*,*,#219,.F.);
#280=ORIENTED_EDGE('',*,*,#218,.T.);
#281=ORIENTED_EDGE('',*,*,#220,.T.);
#282=ORIENTED_EDGE('',*,*,#180,.F.);
#283=ORIENTED_EDGE('',*,*,#202,.F.);
#284=ORIENTED_EDGE('',*,*,#221,.T.);
#285=ORIENTED_EDGE('',*,*,#184,.F.);
#286=ORIENTED_EDGE('',*,*,#222,.F.);
#287=ORIENTED_EDGE('',*,*,#201,.F.);
#288=ORIENTED_EDGE('',*,*,#205,.T.);
#289=ORIENTED_EDGE('',*,*,#208,.F.);
#290=ORIENTED_EDGE('',*,*,#210,.T.);
#291=ORIENTED_EDGE('',*,*,#181,.F.);
#292=ORIENTED_EDGE('',*,*,#220,.F.);
#293=ORIENTED_EDGE('',*,*,#217,.T.);
#294=ORIENTED_EDGE('',*,*,#214,.T.);
#295=ORIENTED_EDGE('',*,*,#177,.F.);
#296=ORIENTED_EDGE('',*,*,#211,.F.);
#297=ORIENTED_EDGE('',*,*,#189,.F.);
#298=ORIENTED_EDGE('',*,*,#193,.T.);
#299=ORIENTED_EDGE('',*,*,#196,.F.);
#300=ORIENTED_EDGE('',*,*,#198,.T.);
#301=ORIENTED_EDGE('',*,*,#185,.F.);
#302=ORIENTED_EDGE('',*,*,#221,.F.);
#303=ORIENTED_EDGE('',*,*,#222,.T.);
#304=ORIENTED_EDGE('',*,*,#183,.F.);
#305=ORIENTED_EDGE('',*,*,#197,.F.);
#306=ORIENTED_EDGE('',*,*,#194,.F.);
#307=ORIENTED_EDGE('',*,*,#191,.F.);
#308=ORIENTED_EDGE('',*,*,#187,.F.);
#309=ORIENTED_EDGE('',*,*,#212,.T.);
#310=ORIENTED_EDGE('',*,*,#175,.F.);
#311=ORIENTED_EDGE('',*,*,#213,.T.);
#312=ORIENTED_EDGE('',*,*,#216,.T.);
#313=ORIENTED_EDGE('',*,*,#219,.T.);
#314=ORIENTED_EDGE('',*,*,#179,.F.);
#315=ORIENTED_EDGE('',*,*,#209,.F.);
#316=ORIENTED_EDGE('',*,*,#206,.F.);
#317=ORIENTED_EDGE('',*,*,#203,.F.);
#318=ORIENTED_EDGE('',*,*,#199,.F.);
#319=PLANE('',#365);
#320=PLANE('',#366);
#321=PLANE('',#367);
#322=PLANE('',#371);
#323=PLANE('',#375);
#324=PLANE('',#379);
#325=PLANE('',#383);
#326=PLANE('',#384);
#327=PLANE('',#385);
#328=PLANE('',#386);
#329=PLANE('',#387);
#330=PLANE('',#388);
#331=PLANE('',#389);
#332=PLANE('',#390);
#333=ADVANCED_FACE('',(#27),#319,.T.);
#334=ADVANCED_FACE('',(#28),#320,.T.);
#335=ADVANCED_FACE('',(#29),#321,.T.);
#336=ADVANCED_FACE('',(#30),#23,.F.);
#337=ADVANCED_FACE('',(#31),#322,.T.);
#338=ADVANCED_FACE('',(#32),#24,.F.);
#339=ADVANCED_FACE('',(#33),#323,.T.);
#340=ADVANCED_FACE('',(#34),#25,.F.);
#341=ADVANCED_FACE('',(#35),#324,.T.);
#342=ADVANCED_FACE('',(#36),#26,.F.);
#343=ADVANCED_FACE('',(#37),#325,.T.);
#344=ADVANCED_FACE('',(#38),#326,.T.);
#345=ADVANCED_FACE('',(#39),#327,.T.);
#346=ADVANCED_FACE('',(#40),#328,.T.);
#347=ADVANCED_FACE('',(#41),#329,.T.);
#348=ADVANCED_FACE('',(#42),#330,.T.);
#349=ADVANCED_FACE('',(#43),#331,.T.);
#350=ADVANCED_FACE('',(#44),#332,.F.);
#351=CLOSED_SHELL('',(#333,#334,#335,#336,#337,#338,#339,#340,#341,#342,
#343,#344,#345,#346,#347,#348,#349,#350));
#352=DERIVED_UNIT_ELEMENT(#354,1.);
#353=DERIVED_UNIT_ELEMENT(#589,-3.);
#354=(
MASS_UNIT()
NAMED_UNIT(*)
SI_UNIT(.KILO.,.GRAM.)
);
#355=DERIVED_UNIT((#352,#353));
#356=MEASURE_REPRESENTATION_ITEM('density measure',
POSITIVE_RATIO_MEASURE(7850.),#355);
#357=PROPERTY_DEFINITION_REPRESENTATION(#362,#359);
#358=PROPERTY_DEFINITION_REPRESENTATION(#363,#360);
#359=REPRESENTATION('material name',(#361),#586);
#360=REPRESENTATION('density',(#356),#586);
#361=DESCRIPTIVE_REPRESENTATION_ITEM('Steel','Steel');
#362=PROPERTY_DEFINITION('material property','material name',#596);
#363=PROPERTY_DEFINITION('material property','density of part',#596);
#364=AXIS2_PLACEMENT_3D('',#485,#391,#392);
#365=AXIS2_PLACEMENT_3D('',#486,#393,#394);
#366=AXIS2_PLACEMENT_3D('',#495,#399,#400);
#367=AXIS2_PLACEMENT_3D('',#504,#405,#406);
#368=AXIS2_PLACEMENT_3D('',#513,#411,#412);
#369=AXIS2_PLACEMENT_3D('',#516,#413,#414);
#370=AXIS2_PLACEMENT_3D('',#520,#416,#417);
#371=AXIS2_PLACEMENT_3D('',#522,#419,#420);
#372=AXIS2_PLACEMENT_3D('',#528,#424,#425);
#373=AXIS2_PLACEMENT_3D('',#530,#426,#427);
#374=AXIS2_PLACEMENT_3D('',#533,#429,#430);
#375=AXIS2_PLACEMENT_3D('',#534,#431,#432);
#376=AXIS2_PLACEMENT_3D('',#537,#435,#436);
#377=AXIS2_PLACEMENT_3D('',#540,#437,#438);
#378=AXIS2_PLACEMENT_3D('',#544,#440,#441);
#379=AXIS2_PLACEMENT_3D('',#546,#443,#444);
#380=AXIS2_PLACEMENT_3D('',#552,#448,#449);
#381=AXIS2_PLACEMENT_3D('',#554,#450,#451);
#382=AXIS2_PLACEMENT_3D('',#557,#453,#454);
#383=AXIS2_PLACEMENT_3D('',#558,#455,#456);
#384=AXIS2_PLACEMENT_3D('',#561,#459,#460);
#385=AXIS2_PLACEMENT_3D('',#564,#463,#464);
#386=AXIS2_PLACEMENT_3D('',#570,#468,#469);
#387=AXIS2_PLACEMENT_3D('',#576,#473,#474);
#388=AXIS2_PLACEMENT_3D('',#579,#477,#478);
#389=AXIS2_PLACEMENT_3D('',#582,#481,#482);
#390=AXIS2_PLACEMENT_3D('',#583,#483,#484);
#391=DIRECTION('axis',(0.,0.,1.));
#392=DIRECTION('refdir',(1.,0.,0.));
#393=DIRECTION('center_axis',(0.,0.,-1.));
#394=DIRECTION('ref_axis',(-1.,0.,0.));
#395=DIRECTION('',(-1.,0.,0.));
#396=DIRECTION('',(0.,1.,0.));
#397=DIRECTION('',(1.,0.,0.));
#398=DIRECTION('',(0.,-1.,0.));
#399=DIRECTION('center_axis',(-3.30750990809946E-34,0.,-1.));
#400=DIRECTION('ref_axis',(-1.,0.,3.30750990809946E-34));
#401=DIRECTION('',(-1.,0.,0.));
#402=DIRECTION('',(0.,1.,0.));
#403=DIRECTION('',(1.,0.,0.));
#404=DIRECTION('',(0.,-1.,0.));
#405=DIRECTION('center_axis',(0.,0.,-1.));
#406=DIRECTION('ref_axis',(-1.,0.,0.));
#407=DIRECTION('',(-1.,0.,3.30750990809946E-34));
#408=DIRECTION('',(0.,1.,0.));
#409=DIRECTION('',(1.,0.,-3.30750990809946E-34));
#410=DIRECTION('',(0.,-1.,0.));
#411=DIRECTION('center_axis',(0.,1.,0.));
#412=DIRECTION('ref_axis',(0.707106781186552,0.,0.707106781186543));
#413=DIRECTION('center_axis',(0.,-1.,0.));
#414=DIRECTION('ref_axis',(0.707106781186552,0.,0.707106781186543));
#415=DIRECTION('',(0.,1.,0.));
#416=DIRECTION('center_axis',(0.,1.,0.));
#417=DIRECTION('ref_axis',(0.707106781186552,0.,0.707106781186543));
#418=DIRECTION('',(0.,-1.,0.));
#419=DIRECTION('center_axis',(0.,0.,-1.));
#420=DIRECTION('ref_axis',(-1.,0.,0.));
#421=DIRECTION('',(-1.,0.,0.));
#422=DIRECTION('',(0.,-1.,0.));
#423=DIRECTION('',(-1.,0.,0.));
#424=DIRECTION('center_axis',(0.,1.,0.));
#425=DIRECTION('ref_axis',(-0.707106781186546,0.,0.707106781186549));
#426=DIRECTION('center_axis',(0.,-1.,0.));
#427=DIRECTION('ref_axis',(-0.707106781186546,0.,0.707106781186549));
#428=DIRECTION('',(0.,1.,0.));
#429=DIRECTION('center_axis',(0.,1.,0.));
#430=DIRECTION('ref_axis',(-0.707106781186546,0.,0.707106781186549));
#431=DIRECTION('center_axis',(1.,0.,0.));
#432=DIRECTION('ref_axis',(0.,0.,-1.));
#433=DIRECTION('',(0.,0.,-1.));
#434=DIRECTION('',(0.,0.,-1.));
#435=DIRECTION('center_axis',(0.,1.,0.));
#436=DIRECTION('ref_axis',(0.707106781186546,0.,0.707106781186549));
#437=DIRECTION('center_axis',(0.,-1.,0.));
#438=DIRECTION('ref_axis',(0.707106781186546,0.,0.707106781186549));
#439=DIRECTION('',(0.,1.,0.));
#440=DIRECTION('center_axis',(0.,1.,0.));
#441=DIRECTION('ref_axis',(0.707106781186546,0.,0.707106781186549));
#442=DIRECTION('',(0.,-1.,0.));
#443=DIRECTION('center_axis',(0.,0.,-1.));
#444=DIRECTION('ref_axis',(-1.,0.,0.));
#445=DIRECTION('',(-1.,0.,0.));
#446=DIRECTION('',(0.,-1.,0.));
#447=DIRECTION('',(-1.,0.,0.));
#448=DIRECTION('center_axis',(0.,1.,0.));
#449=DIRECTION('ref_axis',(-0.707106781186548,0.,0.707106781186548));
#450=DIRECTION('center_axis',(0.,-1.,0.));
#451=DIRECTION('ref_axis',(-0.707106781186548,0.,0.707106781186548));
#452=DIRECTION('',(0.,1.,0.));
#453=DIRECTION('center_axis',(0.,1.,0.));
#454=DIRECTION('ref_axis',(-0.707106781186548,0.,0.707106781186548));
#455=DIRECTION('center_axis',(1.,0.,0.));
#456=DIRECTION('ref_axis',(0.,0.,-1.));
#457=DIRECTION('',(0.,0.,-1.));
#458=DIRECTION('',(0.,0.,-1.));
#459=DIRECTION('center_axis',(-1.,0.,0.));
#460=DIRECTION('ref_axis',(0.,0.,1.));
#461=DIRECTION('',(0.,0.,-1.));
#462=DIRECTION('',(0.,0.,-1.));
#463=DIRECTION('center_axis',(1.,0.,0.));
#464=DIRECTION('ref_axis',(0.,0.,-1.));
#465=DIRECTION('',(0.,0.,1.));
#466=DIRECTION('',(0.,0.,-1.));
#467=DIRECTION('',(0.,1.,0.));
#468=DIRECTION('center_axis',(0.,0.,1.));
#469=DIRECTION('ref_axis',(1.,0.,0.));
#470=DIRECTION('',(-1.,0.,0.));
#471=DIRECTION('',(1.,0.,0.));
#472=DIRECTION('',(0.,1.,0.));
#473=DIRECTION('center_axis',(-1.,0.,0.));
#474=DIRECTION('ref_axis',(0.,0.,1.));
#475=DIRECTION('',(-3.30750990809946E-34,0.,-1.));
#476=DIRECTION('',(-3.30750990809946E-34,0.,-1.));
#477=DIRECTION('center_axis',(-1.,0.,0.));
#478=DIRECTION('ref_axis',(0.,0.,1.));
#479=DIRECTION('',(0.,0.,-1.));
#480=DIRECTION('',(0.,0.,-1.));
#481=DIRECTION('center_axis',(0.,1.,0.));
#482=DIRECTION('ref_axis',(0.,0.,1.));
#483=DIRECTION('center_axis',(0.,1.,0.));
#484=DIRECTION('ref_axis',(1.,0.,0.));
#485=CARTESIAN_POINT('',(0.,0.,0.));
#486=CARTESIAN_POINT('Origin',(174.687,0.,-8.5));
#487=CARTESIAN_POINT('',(174.687,0.,-8.5));
#488=CARTESIAN_POINT('',(167.687,0.,-8.5));
#489=CARTESIAN_POINT('',(174.687,0.,-8.5));
#490=CARTESIAN_POINT('',(167.687,7.,-8.5));
#491=CARTESIAN_POINT('',(167.687,0.,-8.5));
#492=CARTESIAN_POINT('',(174.687,7.,-8.5));
#493=CARTESIAN_POINT('',(174.687,7.,-8.5));
#494=CARTESIAN_POINT('',(174.687,0.,-8.5));
#495=CARTESIAN_POINT('Origin',(7.,0.,-8.5));
#496=CARTESIAN_POINT('',(7.,0.,-8.5));
#497=CARTESIAN_POINT('',(0.,0.,-8.5));
#498=CARTESIAN_POINT('',(-1.15762846783481E-33,0.,-8.5));
#499=CARTESIAN_POINT('',(0.,7.,-8.5));
#500=CARTESIAN_POINT('',(-1.15762846783481E-33,0.,-8.5));
#501=CARTESIAN_POINT('',(7.,7.,-8.5));
#502=CARTESIAN_POINT('',(-1.15762846783481E-33,7.,-8.5));
#503=CARTESIAN_POINT('',(7.,0.,-8.5));
#504=CARTESIAN_POINT('Origin',(90.8435,0.,-8.5));
#505=CARTESIAN_POINT('',(90.8435,0.,-8.5));
#506=CARTESIAN_POINT('',(83.8435,0.,-8.5));
#507=CARTESIAN_POINT('',(0.,0.,-8.5));
#508=CARTESIAN_POINT('',(83.8435,7.,-8.5));
#509=CARTESIAN_POINT('',(83.8435,0.,-8.5));
#510=CARTESIAN_POINT('',(90.8435,7.,-8.5));
#511=CARTESIAN_POINT('',(0.,7.,-8.5));
#512=CARTESIAN_POINT('',(90.8435,0.,-8.5));
#513=CARTESIAN_POINT('Origin',(165.687,0.,24.));
#514=CARTESIAN_POINT('',(167.687,0.,24.));
#515=CARTESIAN_POINT('',(165.687,0.,26.));
#516=CARTESIAN_POINT('Origin',(165.687,0.,24.));
#517=CARTESIAN_POINT('',(165.687,7.,26.));
#518=CARTESIAN_POINT('',(165.687,0.,26.));
#519=CARTESIAN_POINT('',(167.687,7.,24.));
#520=CARTESIAN_POINT('Origin',(165.687,7.,24.));
#521=CARTESIAN_POINT('',(167.687,0.,24.));
#522=CARTESIAN_POINT('Origin',(167.687,0.,26.));
#523=CARTESIAN_POINT('',(92.8435,0.,26.));
#524=CARTESIAN_POINT('',(167.687,0.,26.));
#525=CARTESIAN_POINT('',(92.8435,7.,26.));
#526=CARTESIAN_POINT('',(92.8435,0.,26.));
#527=CARTESIAN_POINT('',(167.687,7.,26.));
#528=CARTESIAN_POINT('Origin',(92.8435,0.,24.));
#529=CARTESIAN_POINT('',(90.8435,0.,24.));
#530=CARTESIAN_POINT('Origin',(92.8435,0.,24.));
#531=CARTESIAN_POINT('',(90.8435,7.,24.));
#532=CARTESIAN_POINT('',(90.8435,0.,24.));
#533=CARTESIAN_POINT('Origin',(92.8435,7.,24.));
#534=CARTESIAN_POINT('Origin',(90.8435,0.,26.));
#535=CARTESIAN_POINT('',(90.8435,0.,26.));
#536=CARTESIAN_POINT('',(90.8435,7.,26.));
#537=CARTESIAN_POINT('Origin',(81.8435,0.,24.));
#538=CARTESIAN_POINT('',(83.8435,0.,24.));
#539=CARTESIAN_POINT('',(81.8435,0.,26.));
#540=CARTESIAN_POINT('Origin',(81.8435,0.,24.));
#541=CARTESIAN_POINT('',(81.8435,7.,26.));
#542=CARTESIAN_POINT('',(81.8435,0.,26.));
#543=CARTESIAN_POINT('',(83.8435,7.,24.));
#544=CARTESIAN_POINT('Origin',(81.8435,7.,24.));
#545=CARTESIAN_POINT('',(83.8435,0.,24.));
#546=CARTESIAN_POINT('Origin',(83.8435,0.,26.));
#547=CARTESIAN_POINT('',(9.,0.,26.));
#548=CARTESIAN_POINT('',(83.8435,0.,26.));
#549=CARTESIAN_POINT('',(9.,7.,26.));
#550=CARTESIAN_POINT('',(9.,0.,26.));
#551=CARTESIAN_POINT('',(83.8435,7.,26.));
#552=CARTESIAN_POINT('Origin',(9.,0.,24.));
#553=CARTESIAN_POINT('',(7.,0.,24.));
#554=CARTESIAN_POINT('Origin',(9.,0.,24.));
#555=CARTESIAN_POINT('',(7.,7.,24.));
#556=CARTESIAN_POINT('',(7.,0.,24.));
#557=CARTESIAN_POINT('Origin',(9.,7.,24.));
#558=CARTESIAN_POINT('Origin',(7.,0.,26.));
#559=CARTESIAN_POINT('',(7.,0.,26.));
#560=CARTESIAN_POINT('',(7.,7.,26.));
#561=CARTESIAN_POINT('Origin',(167.687,0.,-5.77778983316171E-32));
#562=CARTESIAN_POINT('',(167.687,7.,0.));
#563=CARTESIAN_POINT('',(167.687,0.,-5.77778983316171E-32));
#564=CARTESIAN_POINT('Origin',(174.687,0.,33.));
#565=CARTESIAN_POINT('',(174.687,0.,33.));
#566=CARTESIAN_POINT('',(174.687,0.,-5.77778983316171E-32));
#567=CARTESIAN_POINT('',(174.687,7.,33.));
#568=CARTESIAN_POINT('',(174.687,7.,-5.77778983316171E-32));
#569=CARTESIAN_POINT('',(174.687,0.,33.));
#570=CARTESIAN_POINT('Origin',(0.,0.,33.));
#571=CARTESIAN_POINT('',(0.,0.,33.));
#572=CARTESIAN_POINT('',(174.687,0.,33.));
#573=CARTESIAN_POINT('',(0.,7.,33.));
#574=CARTESIAN_POINT('',(174.687,7.,33.));
#575=CARTESIAN_POINT('',(0.,0.,33.));
#576=CARTESIAN_POINT('Origin',(0.,0.,0.));
#577=CARTESIAN_POINT('',(0.,0.,0.));
#578=CARTESIAN_POINT('',(0.,7.,0.));
#579=CARTESIAN_POINT('Origin',(83.8435,0.,0.));
#580=CARTESIAN_POINT('',(83.8435,7.,0.));
#581=CARTESIAN_POINT('',(83.8435,0.,26.));
#582=CARTESIAN_POINT('Origin',(87.3435,7.,16.5));
#583=CARTESIAN_POINT('Origin',(87.3435,0.,16.5));
#584=UNCERTAINTY_MEASURE_WITH_UNIT(LENGTH_MEASURE(0.01),#588,
'DISTANCE_ACCURACY_VALUE',
'Maximum model space distance between geometric entities at asserted c
onnectivities');
#585=UNCERTAINTY_MEASURE_WITH_UNIT(LENGTH_MEASURE(0.01),#588,
'DISTANCE_ACCURACY_VALUE',
'Maximum model space distance between geometric entities at asserted c
onnectivities');
#586=(
GEOMETRIC_REPRESENTATION_CONTEXT(3)
GLOBAL_UNCERTAINTY_ASSIGNED_CONTEXT((#584))
GLOBAL_UNIT_ASSIGNED_CONTEXT((#588,#590,#591))
REPRESENTATION_CONTEXT('','3D')
);
#587=(
GEOMETRIC_REPRESENTATION_CONTEXT(3)
GLOBAL_UNCERTAINTY_ASSIGNED_CONTEXT((#585))
GLOBAL_UNIT_ASSIGNED_CONTEXT((#588,#590,#591))
REPRESENTATION_CONTEXT('','3D')
);
#588=(
LENGTH_UNIT()
NAMED_UNIT(*)
SI_UNIT(.MILLI.,.METRE.)
);
#589=(
LENGTH_UNIT()
NAMED_UNIT(*)
SI_UNIT($,.METRE.)
);
#590=(
NAMED_UNIT(*)
PLANE_ANGLE_UNIT()
SI_UNIT($,.RADIAN.)
);
#591=(
NAMED_UNIT(*)
SI_UNIT($,.STERADIAN.)
SOLID_ANGLE_UNIT()
);
#592=SHAPE_DEFINITION_REPRESENTATION(#593,#594);
#593=PRODUCT_DEFINITION_SHAPE('',$,#596);
#594=SHAPE_REPRESENTATION('',(#364),#586);
#595=PRODUCT_DEFINITION_CONTEXT('part definition',#600,'design');
#596=PRODUCT_DEFINITION('frame rails','frame rails v3',#597,#595);
#597=PRODUCT_DEFINITION_FORMATION('',$,#602);
#598=PRODUCT_RELATED_PRODUCT_CATEGORY('frame rails v3','frame rails v3',
(#602));
#599=APPLICATION_PROTOCOL_DEFINITION('international standard',
'automotive_design',2009,#600);
#600=APPLICATION_CONTEXT(
'Core Data for Automotive Mechanical Design Process');
#601=PRODUCT_CONTEXT('part definition',#600,'mechanical');
#602=PRODUCT('frame rails','frame rails v3',$,(#601));
#603=PRESENTATION_STYLE_ASSIGNMENT((#604));
#604=SURFACE_STYLE_USAGE(.BOTH.,#605);
#605=SURFACE_SIDE_STYLE('',(#606));
#606=SURFACE_STYLE_FILL_AREA(#607);
#607=FILL_AREA_STYLE('Steel - Satin',(#608));
#608=FILL_AREA_STYLE_COLOUR('Steel - Satin',#609);
#609=COLOUR_RGB('Steel - Satin',0.627450980392157,0.627450980392157,0.627450980392157);
ENDSEC;
END-ISO-10303-21;
