ISO-10303-21;
HEADER;
/* Generated by software containing ST-Developer
 * from STEP Tools, Inc. (www.steptools.com) 
 */

FILE_DESCRIPTION(
/* description */ (''),
/* implementation_level */ '2;1');

FILE_NAME(
/* name */ 'gear box v3.step',
/* time_stamp */ '2025-05-27T01:53:19-07:00',
/* author */ (''),
/* organization */ (''),
/* preprocessor_version */ 'ST-DEVELOPER v20.1',
/* originating_system */ 'Autodesk Translation Framework v14.10.0.0',
/* authorisation */ '');

FILE_SCHEMA (('AUTOMOTIVE_DESIGN { 1 0 10303 214 3 1 1 }'));
ENDSEC;

DATA;
#10=MECHANICAL_DESIGN_GEOMETRIC_PRESENTATION_REPRESENTATION('',(#13,#14,
#15,#16,#17),#1656);
#11=SHAPE_REPRESENTATION_RELATIONSHIP('SRR','None',#1663,#12);
#12=ADVANCED_BREP_SHAPE_REPRESENTATION('',(#18,#19,#20,#21,#22),#1655);
#13=STYLED_ITEM('',(#1672),#18);
#14=STYLED_ITEM('',(#1672),#19);
#15=STYLED_ITEM('',(#1672),#20);
#16=STYLED_ITEM('',(#1672),#21);
#17=STYLED_ITEM('',(#1672),#22);
#18=MANIFOLD_SOLID_BREP('Body1',#972);
#19=MANIFOLD_SOLID_BREP('Body4',#973);
#20=MANIFOLD_SOLID_BREP('Body5',#974);
#21=MANIFOLD_SOLID_BREP('Body6',#975);
#22=MANIFOLD_SOLID_BREP('Body7',#976);
#23=FACE_BOUND('',#161,.T.);
#24=FACE_BOUND('',#162,.T.);
#25=FACE_BOUND('',#163,.T.);
#26=FACE_BOUND('',#164,.T.);
#27=FACE_BOUND('',#174,.T.);
#28=FACE_BOUND('',#176,.T.);
#29=FACE_BOUND('',#177,.T.);
#30=FACE_BOUND('',#178,.T.);
#31=FACE_BOUND('',#179,.T.);
#32=FACE_BOUND('',#201,.T.);
#33=FACE_BOUND('',#203,.T.);
#34=FACE_BOUND('',#206,.T.);
#35=FACE_BOUND('',#208,.T.);
#36=FACE_BOUND('',#209,.T.);
#37=FACE_BOUND('',#210,.T.);
#38=FACE_BOUND('',#211,.T.);
#39=FACE_BOUND('',#212,.T.);
#40=FACE_BOUND('',#213,.T.);
#41=FACE_BOUND('',#214,.T.);
#42=FACE_BOUND('',#215,.T.);
#43=ELLIPSE('',#1005,6.6776872987009,5.);
#44=ELLIPSE('',#1009,6.6776872987009,5.);
#45=ELLIPSE('',#1010,7.07106781186548,5.);
#46=ELLIPSE('',#1012,7.07106781186548,5.);
#47=PLANE('',#1002);
#48=PLANE('',#1003);
#49=PLANE('',#1004);
#50=PLANE('',#1006);
#51=PLANE('',#1007);
#52=PLANE('',#1014);
#53=PLANE('',#1015);
#54=PLANE('',#1016);
#55=PLANE('',#1017);
#56=PLANE('',#1018);
#57=PLANE('',#1019);
#58=PLANE('',#1020);
#59=PLANE('',#1021);
#60=PLANE('',#1022);
#61=PLANE('',#1023);
#62=PLANE('',#1024);
#63=PLANE('',#1027);
#64=PLANE('',#1030);
#65=PLANE('',#1034);
#66=PLANE('',#1038);
#67=PLANE('',#1042);
#68=PLANE('',#1046);
#69=PLANE('',#1050);
#70=PLANE('',#1054);
#71=PLANE('',#1058);
#72=PLANE('',#1062);
#73=PLANE('',#1068);
#74=PLANE('',#1069);
#75=PLANE('',#1070);
#76=PLANE('',#1071);
#77=PLANE('',#1072);
#78=PLANE('',#1076);
#79=PLANE('',#1077);
#80=PLANE('',#1081);
#81=PLANE('',#1082);
#82=PLANE('',#1086);
#83=PLANE('',#1087);
#84=PLANE('',#1091);
#85=PLANE('',#1092);
#86=FACE_OUTER_BOUND('',#147,.T.);
#87=FACE_OUTER_BOUND('',#148,.T.);
#88=FACE_OUTER_BOUND('',#149,.T.);
#89=FACE_OUTER_BOUND('',#150,.T.);
#90=FACE_OUTER_BOUND('',#151,.T.);
#91=FACE_OUTER_BOUND('',#152,.T.);
#92=FACE_OUTER_BOUND('',#153,.T.);
#93=FACE_OUTER_BOUND('',#154,.T.);
#94=FACE_OUTER_BOUND('',#155,.T.);
#95=FACE_OUTER_BOUND('',#156,.T.);
#96=FACE_OUTER_BOUND('',#157,.T.);
#97=FACE_OUTER_BOUND('',#158,.T.);
#98=FACE_OUTER_BOUND('',#159,.T.);
#99=FACE_OUTER_BOUND('',#160,.T.);
#100=FACE_OUTER_BOUND('',#165,.T.);
#101=FACE_OUTER_BOUND('',#166,.T.);
#102=FACE_OUTER_BOUND('',#167,.T.);
#103=FACE_OUTER_BOUND('',#168,.T.);
#104=FACE_OUTER_BOUND('',#169,.T.);
#105=FACE_OUTER_BOUND('',#170,.T.);
#106=FACE_OUTER_BOUND('',#171,.T.);
#107=FACE_OUTER_BOUND('',#172,.T.);
#108=FACE_OUTER_BOUND('',#173,.T.);
#109=FACE_OUTER_BOUND('',#175,.T.);
#110=FACE_OUTER_BOUND('',#180,.T.);
#111=FACE_OUTER_BOUND('',#181,.T.);
#112=FACE_OUTER_BOUND('',#182,.T.);
#113=FACE_OUTER_BOUND('',#183,.T.);
#114=FACE_OUTER_BOUND('',#184,.T.);
#115=FACE_OUTER_BOUND('',#185,.T.);
#116=FACE_OUTER_BOUND('',#186,.T.);
#117=FACE_OUTER_BOUND('',#187,.T.);
#118=FACE_OUTER_BOUND('',#188,.T.);
#119=FACE_OUTER_BOUND('',#189,.T.);
#120=FACE_OUTER_BOUND('',#190,.T.);
#121=FACE_OUTER_BOUND('',#191,.T.);
#122=FACE_OUTER_BOUND('',#192,.T.);
#123=FACE_OUTER_BOUND('',#193,.T.);
#124=FACE_OUTER_BOUND('',#194,.T.);
#125=FACE_OUTER_BOUND('',#195,.T.);
#126=FACE_OUTER_BOUND('',#196,.T.);
#127=FACE_OUTER_BOUND('',#197,.T.);
#128=FACE_OUTER_BOUND('',#198,.T.);
#129=FACE_OUTER_BOUND('',#199,.T.);
#130=FACE_OUTER_BOUND('',#200,.T.);
#131=FACE_OUTER_BOUND('',#202,.T.);
#132=FACE_OUTER_BOUND('',#204,.T.);
#133=FACE_OUTER_BOUND('',#205,.T.);
#134=FACE_OUTER_BOUND('',#207,.T.);
#135=FACE_OUTER_BOUND('',#216,.T.);
#136=FACE_OUTER_BOUND('',#217,.T.);
#137=FACE_OUTER_BOUND('',#218,.T.);
#138=FACE_OUTER_BOUND('',#219,.T.);
#139=FACE_OUTER_BOUND('',#220,.T.);
#140=FACE_OUTER_BOUND('',#221,.T.);
#141=FACE_OUTER_BOUND('',#222,.T.);
#142=FACE_OUTER_BOUND('',#223,.T.);
#143=FACE_OUTER_BOUND('',#224,.T.);
#144=FACE_OUTER_BOUND('',#225,.T.);
#145=FACE_OUTER_BOUND('',#226,.T.);
#146=FACE_OUTER_BOUND('',#227,.T.);
#147=EDGE_LOOP('',(#639,#640,#641,#642));
#148=EDGE_LOOP('',(#643,#644,#645,#646));
#149=EDGE_LOOP('',(#647,#648,#649,#650));
#150=EDGE_LOOP('',(#651,#652,#653,#654));
#151=EDGE_LOOP('',(#655,#656,#657,#658));
#152=EDGE_LOOP('',(#659,#660,#661,#662));
#153=EDGE_LOOP('',(#663,#664,#665,#666,#667));
#154=EDGE_LOOP('',(#668,#669,#670,#671));
#155=EDGE_LOOP('',(#672,#673,#674,#675,#676,#677,#678,#679,#680,#681,#682,
#683,#684));
#156=EDGE_LOOP('',(#685,#686,#687,#688));
#157=EDGE_LOOP('',(#689,#690,#691,#692));
#158=EDGE_LOOP('',(#693,#694,#695,#696));
#159=EDGE_LOOP('',(#697,#698,#699,#700));
#160=EDGE_LOOP('',(#701,#702,#703,#704,#705,#706,#707,#708));
#161=EDGE_LOOP('',(#709));
#162=EDGE_LOOP('',(#710));
#163=EDGE_LOOP('',(#711));
#164=EDGE_LOOP('',(#712));
#165=EDGE_LOOP('',(#713,#714,#715,#716));
#166=EDGE_LOOP('',(#717,#718,#719,#720,#721));
#167=EDGE_LOOP('',(#722,#723,#724,#725));
#168=EDGE_LOOP('',(#726,#727,#728,#729));
#169=EDGE_LOOP('',(#730,#731,#732,#733));
#170=EDGE_LOOP('',(#734,#735,#736,#737));
#171=EDGE_LOOP('',(#738,#739,#740,#741));
#172=EDGE_LOOP('',(#742,#743,#744,#745));
#173=EDGE_LOOP('',(#746,#747,#748,#749,#750,#751,#752,#753,#754,#755));
#174=EDGE_LOOP('',(#756));
#175=EDGE_LOOP('',(#757,#758,#759,#760));
#176=EDGE_LOOP('',(#761));
#177=EDGE_LOOP('',(#762));
#178=EDGE_LOOP('',(#763));
#179=EDGE_LOOP('',(#764));
#180=EDGE_LOOP('',(#765,#766,#767,#768));
#181=EDGE_LOOP('',(#769,#770,#771,#772,#773,#774,#775,#776,#777,#778,#779,
#780,#781));
#182=EDGE_LOOP('',(#782,#783,#784,#785));
#183=EDGE_LOOP('',(#786));
#184=EDGE_LOOP('',(#787,#788,#789,#790));
#185=EDGE_LOOP('',(#791));
#186=EDGE_LOOP('',(#792,#793,#794,#795));
#187=EDGE_LOOP('',(#796));
#188=EDGE_LOOP('',(#797,#798,#799,#800));
#189=EDGE_LOOP('',(#801));
#190=EDGE_LOOP('',(#802,#803,#804,#805));
#191=EDGE_LOOP('',(#806));
#192=EDGE_LOOP('',(#807,#808,#809,#810));
#193=EDGE_LOOP('',(#811));
#194=EDGE_LOOP('',(#812,#813,#814,#815));
#195=EDGE_LOOP('',(#816));
#196=EDGE_LOOP('',(#817,#818,#819,#820));
#197=EDGE_LOOP('',(#821));
#198=EDGE_LOOP('',(#822,#823,#824,#825));
#199=EDGE_LOOP('',(#826,#827,#828,#829));
#200=EDGE_LOOP('',(#830,#831,#832,#833));
#201=EDGE_LOOP('',(#834));
#202=EDGE_LOOP('',(#835,#836,#837,#838));
#203=EDGE_LOOP('',(#839));
#204=EDGE_LOOP('',(#840,#841,#842,#843));
#205=EDGE_LOOP('',(#844,#845,#846,#847,#848,#849,#850,#851));
#206=EDGE_LOOP('',(#852));
#207=EDGE_LOOP('',(#853,#854,#855,#856));
#208=EDGE_LOOP('',(#857));
#209=EDGE_LOOP('',(#858));
#210=EDGE_LOOP('',(#859));
#211=EDGE_LOOP('',(#860));
#212=EDGE_LOOP('',(#861));
#213=EDGE_LOOP('',(#862));
#214=EDGE_LOOP('',(#863));
#215=EDGE_LOOP('',(#864));
#216=EDGE_LOOP('',(#865,#866,#867,#868));
#217=EDGE_LOOP('',(#869));
#218=EDGE_LOOP('',(#870));
#219=EDGE_LOOP('',(#871,#872,#873,#874));
#220=EDGE_LOOP('',(#875));
#221=EDGE_LOOP('',(#876));
#222=EDGE_LOOP('',(#877,#878,#879,#880));
#223=EDGE_LOOP('',(#881));
#224=EDGE_LOOP('',(#882));
#225=EDGE_LOOP('',(#883,#884,#885,#886));
#226=EDGE_LOOP('',(#887));
#227=EDGE_LOOP('',(#888));
#228=LINE('',#1389,#311);
#229=LINE('',#1395,#312);
#230=LINE('',#1401,#313);
#231=LINE('',#1407,#314);
#232=LINE('',#1412,#315);
#233=LINE('',#1414,#316);
#234=LINE('',#1416,#317);
#235=LINE('',#1417,#318);
#236=LINE('',#1421,#319);
#237=LINE('',#1423,#320);
#238=LINE('',#1425,#321);
#239=LINE('',#1426,#322);
#240=LINE('',#1429,#323);
#241=LINE('',#1433,#324);
#242=LINE('',#1434,#325);
#243=LINE('',#1437,#326);
#244=LINE('',#1438,#327);
#245=LINE('',#1441,#328);
#246=LINE('',#1443,#329);
#247=LINE('',#1445,#330);
#248=LINE('',#1447,#331);
#249=LINE('',#1449,#332);
#250=LINE('',#1451,#333);
#251=LINE('',#1453,#334);
#252=LINE('',#1455,#335);
#253=LINE('',#1457,#336);
#254=LINE('',#1459,#337);
#255=LINE('',#1461,#338);
#256=LINE('',#1462,#339);
#257=LINE('',#1466,#340);
#258=LINE('',#1470,#341);
#259=LINE('',#1474,#342);
#260=LINE('',#1476,#343);
#261=LINE('',#1478,#344);
#262=LINE('',#1480,#345);
#263=LINE('',#1481,#346);
#264=LINE('',#1484,#347);
#265=LINE('',#1485,#348);
#266=LINE('',#1487,#349);
#267=LINE('',#1489,#350);
#268=LINE('',#1492,#351);
#269=LINE('',#1493,#352);
#270=LINE('',#1496,#353);
#271=LINE('',#1498,#354);
#272=LINE('',#1499,#355);
#273=LINE('',#1503,#356);
#274=LINE('',#1505,#357);
#275=LINE('',#1507,#358);
#276=LINE('',#1508,#359);
#277=LINE('',#1512,#360);
#278=LINE('',#1513,#361);
#279=LINE('',#1514,#362);
#280=LINE('',#1517,#363);
#281=LINE('',#1519,#364);
#282=LINE('',#1520,#365);
#283=LINE('',#1523,#366);
#284=LINE('',#1525,#367);
#285=LINE('',#1526,#368);
#286=LINE('',#1529,#369);
#287=LINE('',#1534,#370);
#288=LINE('',#1535,#371);
#289=LINE('',#1540,#372);
#290=LINE('',#1542,#373);
#291=LINE('',#1543,#374);
#292=LINE('',#1545,#375);
#293=LINE('',#1546,#376);
#294=LINE('',#1551,#377);
#295=LINE('',#1558,#378);
#296=LINE('',#1565,#379);
#297=LINE('',#1572,#380);
#298=LINE('',#1579,#381);
#299=LINE('',#1586,#382);
#300=LINE('',#1593,#383);
#301=LINE('',#1600,#384);
#302=LINE('',#1606,#385);
#303=LINE('',#1611,#386);
#304=LINE('',#1614,#387);
#305=LINE('',#1616,#388);
#306=LINE('',#1618,#389);
#307=LINE('',#1625,#390);
#308=LINE('',#1633,#391);
#309=LINE('',#1641,#392);
#310=LINE('',#1649,#393);
#311=VECTOR('',#1099,1.5);
#312=VECTOR('',#1106,1.5);
#313=VECTOR('',#1113,1.5);
#314=VECTOR('',#1120,1.44568250057417);
#315=VECTOR('',#1125,10.);
#316=VECTOR('',#1126,10.);
#317=VECTOR('',#1127,10.);
#318=VECTOR('',#1128,10.);
#319=VECTOR('',#1131,10.);
#320=VECTOR('',#1132,10.);
#321=VECTOR('',#1133,10.);
#322=VECTOR('',#1134,10.);
#323=VECTOR('',#1137,10.);
#324=VECTOR('',#1140,10.);
#325=VECTOR('',#1141,10.);
#326=VECTOR('',#1144,10.);
#327=VECTOR('',#1145,10.);
#328=VECTOR('',#1148,10.);
#329=VECTOR('',#1149,10.);
#330=VECTOR('',#1150,10.);
#331=VECTOR('',#1151,10.);
#332=VECTOR('',#1152,10.);
#333=VECTOR('',#1153,10.);
#334=VECTOR('',#1154,10.);
#335=VECTOR('',#1155,10.);
#336=VECTOR('',#1156,10.);
#337=VECTOR('',#1157,10.);
#338=VECTOR('',#1158,10.);
#339=VECTOR('',#1159,10.);
#340=VECTOR('',#1162,10.);
#341=VECTOR('',#1165,10.);
#342=VECTOR('',#1170,10.);
#343=VECTOR('',#1173,10.);
#344=VECTOR('',#1176,10.);
#345=VECTOR('',#1179,10.);
#346=VECTOR('',#1180,10.);
#347=VECTOR('',#1183,10.);
#348=VECTOR('',#1184,10.);
#349=VECTOR('',#1187,10.);
#350=VECTOR('',#1190,10.);
#351=VECTOR('',#1193,10.);
#352=VECTOR('',#1194,10.);
#353=VECTOR('',#1197,10.);
#354=VECTOR('',#1198,10.);
#355=VECTOR('',#1199,10.);
#356=VECTOR('',#1202,10.);
#357=VECTOR('',#1203,10.);
#358=VECTOR('',#1204,10.);
#359=VECTOR('',#1205,10.);
#360=VECTOR('',#1208,10.);
#361=VECTOR('',#1209,10.);
#362=VECTOR('',#1210,10.);
#363=VECTOR('',#1213,10.);
#364=VECTOR('',#1214,10.);
#365=VECTOR('',#1215,10.);
#366=VECTOR('',#1218,10.);
#367=VECTOR('',#1219,10.);
#368=VECTOR('',#1220,10.);
#369=VECTOR('',#1225,10.);
#370=VECTOR('',#1230,10.);
#371=VECTOR('',#1231,10.);
#372=VECTOR('',#1238,10.);
#373=VECTOR('',#1239,10.);
#374=VECTOR('',#1240,10.);
#375=VECTOR('',#1241,10.);
#376=VECTOR('',#1242,10.);
#377=VECTOR('',#1247,3.24999999999999);
#378=VECTOR('',#1256,3.25);
#379=VECTOR('',#1265,3.25);
#380=VECTOR('',#1274,3.25);
#381=VECTOR('',#1283,3.25);
#382=VECTOR('',#1292,3.25);
#383=VECTOR('',#1301,3.25);
#384=VECTOR('',#1310,3.25);
#385=VECTOR('',#1319,5.);
#386=VECTOR('',#1324,5.);
#387=VECTOR('',#1329,10.);
#388=VECTOR('',#1332,10.);
#389=VECTOR('',#1335,10.);
#390=VECTOR('',#1344,3.25);
#391=VECTOR('',#1355,3.25);
#392=VECTOR('',#1366,3.25);
#393=VECTOR('',#1377,3.25);
#394=CIRCLE('',#991,1.5);
#395=CIRCLE('',#992,1.5);
#396=CIRCLE('',#994,1.5);
#397=CIRCLE('',#995,1.5);
#398=CIRCLE('',#997,1.5);
#399=CIRCLE('',#998,1.5);
#400=CIRCLE('',#1000,1.44568250057417);
#401=CIRCLE('',#1001,1.44568250057417);
#402=CIRCLE('',#1025,2.25);
#403=CIRCLE('',#1026,5.);
#404=CIRCLE('',#1029,2.25);
#405=CIRCLE('',#1032,3.24999999999999);
#406=CIRCLE('',#1033,3.24999999999999);
#407=CIRCLE('',#1036,3.25);
#408=CIRCLE('',#1037,3.25);
#409=CIRCLE('',#1040,3.25);
#410=CIRCLE('',#1041,3.25);
#411=CIRCLE('',#1044,3.25);
#412=CIRCLE('',#1045,3.25);
#413=CIRCLE('',#1048,3.25);
#414=CIRCLE('',#1049,3.25);
#415=CIRCLE('',#1052,3.25);
#416=CIRCLE('',#1053,3.25);
#417=CIRCLE('',#1056,3.25);
#418=CIRCLE('',#1057,3.25);
#419=CIRCLE('',#1060,3.25);
#420=CIRCLE('',#1061,3.25);
#421=CIRCLE('',#1064,5.);
#422=CIRCLE('',#1066,5.);
#423=CIRCLE('',#1067,5.);
#424=CIRCLE('',#1074,3.25);
#425=CIRCLE('',#1075,3.25);
#426=CIRCLE('',#1079,3.25);
#427=CIRCLE('',#1080,3.25);
#428=CIRCLE('',#1084,3.25);
#429=CIRCLE('',#1085,3.25);
#430=CIRCLE('',#1089,3.25);
#431=CIRCLE('',#1090,3.25);
#432=VERTEX_POINT('',#1386);
#433=VERTEX_POINT('',#1388);
#434=VERTEX_POINT('',#1392);
#435=VERTEX_POINT('',#1394);
#436=VERTEX_POINT('',#1398);
#437=VERTEX_POINT('',#1400);
#438=VERTEX_POINT('',#1404);
#439=VERTEX_POINT('',#1406);
#440=VERTEX_POINT('',#1410);
#441=VERTEX_POINT('',#1411);
#442=VERTEX_POINT('',#1413);
#443=VERTEX_POINT('',#1415);
#444=VERTEX_POINT('',#1419);
#445=VERTEX_POINT('',#1420);
#446=VERTEX_POINT('',#1422);
#447=VERTEX_POINT('',#1424);
#448=VERTEX_POINT('',#1428);
#449=VERTEX_POINT('',#1430);
#450=VERTEX_POINT('',#1432);
#451=VERTEX_POINT('',#1436);
#452=VERTEX_POINT('',#1440);
#453=VERTEX_POINT('',#1442);
#454=VERTEX_POINT('',#1444);
#455=VERTEX_POINT('',#1446);
#456=VERTEX_POINT('',#1448);
#457=VERTEX_POINT('',#1450);
#458=VERTEX_POINT('',#1452);
#459=VERTEX_POINT('',#1454);
#460=VERTEX_POINT('',#1456);
#461=VERTEX_POINT('',#1458);
#462=VERTEX_POINT('',#1460);
#463=VERTEX_POINT('',#1464);
#464=VERTEX_POINT('',#1465);
#465=VERTEX_POINT('',#1467);
#466=VERTEX_POINT('',#1469);
#467=VERTEX_POINT('',#1473);
#468=VERTEX_POINT('',#1483);
#469=VERTEX_POINT('',#1491);
#470=VERTEX_POINT('',#1495);
#471=VERTEX_POINT('',#1497);
#472=VERTEX_POINT('',#1501);
#473=VERTEX_POINT('',#1502);
#474=VERTEX_POINT('',#1504);
#475=VERTEX_POINT('',#1506);
#476=VERTEX_POINT('',#1510);
#477=VERTEX_POINT('',#1511);
#478=VERTEX_POINT('',#1516);
#479=VERTEX_POINT('',#1518);
#480=VERTEX_POINT('',#1522);
#481=VERTEX_POINT('',#1524);
#482=VERTEX_POINT('',#1530);
#483=VERTEX_POINT('',#1533);
#484=VERTEX_POINT('',#1539);
#485=VERTEX_POINT('',#1541);
#486=VERTEX_POINT('',#1544);
#487=VERTEX_POINT('',#1548);
#488=VERTEX_POINT('',#1550);
#489=VERTEX_POINT('',#1555);
#490=VERTEX_POINT('',#1557);
#491=VERTEX_POINT('',#1562);
#492=VERTEX_POINT('',#1564);
#493=VERTEX_POINT('',#1569);
#494=VERTEX_POINT('',#1571);
#495=VERTEX_POINT('',#1576);
#496=VERTEX_POINT('',#1578);
#497=VERTEX_POINT('',#1583);
#498=VERTEX_POINT('',#1585);
#499=VERTEX_POINT('',#1590);
#500=VERTEX_POINT('',#1592);
#501=VERTEX_POINT('',#1597);
#502=VERTEX_POINT('',#1599);
#503=VERTEX_POINT('',#1604);
#504=VERTEX_POINT('',#1608);
#505=VERTEX_POINT('',#1610);
#506=VERTEX_POINT('',#1622);
#507=VERTEX_POINT('',#1624);
#508=VERTEX_POINT('',#1630);
#509=VERTEX_POINT('',#1632);
#510=VERTEX_POINT('',#1638);
#511=VERTEX_POINT('',#1640);
#512=VERTEX_POINT('',#1646);
#513=VERTEX_POINT('',#1648);
#514=EDGE_CURVE('',#432,#432,#394,.T.);
#515=EDGE_CURVE('',#432,#433,#228,.T.);
#516=EDGE_CURVE('',#433,#433,#395,.T.);
#517=EDGE_CURVE('',#434,#434,#396,.T.);
#518=EDGE_CURVE('',#434,#435,#229,.T.);
#519=EDGE_CURVE('',#435,#435,#397,.T.);
#520=EDGE_CURVE('',#436,#436,#398,.T.);
#521=EDGE_CURVE('',#436,#437,#230,.T.);
#522=EDGE_CURVE('',#437,#437,#399,.T.);
#523=EDGE_CURVE('',#438,#438,#400,.T.);
#524=EDGE_CURVE('',#438,#439,#231,.T.);
#525=EDGE_CURVE('',#439,#439,#401,.T.);
#526=EDGE_CURVE('',#440,#441,#232,.T.);
#527=EDGE_CURVE('',#442,#440,#233,.T.);
#528=EDGE_CURVE('',#443,#442,#234,.T.);
#529=EDGE_CURVE('',#441,#443,#235,.T.);
#530=EDGE_CURVE('',#444,#445,#236,.T.);
#531=EDGE_CURVE('',#446,#444,#237,.T.);
#532=EDGE_CURVE('',#447,#446,#238,.T.);
#533=EDGE_CURVE('',#445,#447,#239,.T.);
#534=EDGE_CURVE('',#441,#448,#240,.T.);
#535=EDGE_CURVE('',#449,#448,#43,.T.);
#536=EDGE_CURVE('',#449,#450,#241,.T.);
#537=EDGE_CURVE('',#440,#450,#242,.T.);
#538=EDGE_CURVE('',#451,#443,#243,.T.);
#539=EDGE_CURVE('',#448,#451,#244,.T.);
#540=EDGE_CURVE('',#447,#452,#245,.T.);
#541=EDGE_CURVE('',#452,#453,#246,.T.);
#542=EDGE_CURVE('',#454,#453,#247,.T.);
#543=EDGE_CURVE('',#455,#454,#248,.T.);
#544=EDGE_CURVE('',#455,#456,#249,.T.);
#545=EDGE_CURVE('',#457,#456,#250,.T.);
#546=EDGE_CURVE('',#458,#457,#251,.T.);
#547=EDGE_CURVE('',#459,#458,#252,.T.);
#548=EDGE_CURVE('',#459,#460,#253,.T.);
#549=EDGE_CURVE('',#461,#460,#254,.T.);
#550=EDGE_CURVE('',#462,#461,#255,.T.);
#551=EDGE_CURVE('',#445,#462,#256,.T.);
#552=EDGE_CURVE('',#463,#464,#257,.T.);
#553=EDGE_CURVE('',#465,#464,#44,.F.);
#554=EDGE_CURVE('',#465,#466,#258,.T.);
#555=EDGE_CURVE('',#466,#463,#45,.T.);
#556=EDGE_CURVE('',#466,#467,#259,.T.);
#557=EDGE_CURVE('',#467,#451,#46,.T.);
#558=EDGE_CURVE('',#451,#463,#260,.T.);
#559=EDGE_CURVE('',#467,#449,#261,.T.);
#560=EDGE_CURVE('',#444,#464,#262,.T.);
#561=EDGE_CURVE('',#446,#463,#263,.T.);
#562=EDGE_CURVE('',#468,#442,#264,.T.);
#563=EDGE_CURVE('',#468,#452,#265,.T.);
#564=EDGE_CURVE('',#465,#449,#266,.T.);
#565=EDGE_CURVE('',#462,#465,#267,.T.);
#566=EDGE_CURVE('',#469,#468,#268,.T.);
#567=EDGE_CURVE('',#453,#469,#269,.T.);
#568=EDGE_CURVE('',#456,#470,#270,.T.);
#569=EDGE_CURVE('',#470,#471,#271,.T.);
#570=EDGE_CURVE('',#471,#457,#272,.T.);
#571=EDGE_CURVE('',#472,#473,#273,.T.);
#572=EDGE_CURVE('',#473,#474,#274,.T.);
#573=EDGE_CURVE('',#474,#475,#275,.T.);
#574=EDGE_CURVE('',#475,#472,#276,.T.);
#575=EDGE_CURVE('',#476,#477,#277,.T.);
#576=EDGE_CURVE('',#477,#461,#278,.T.);
#577=EDGE_CURVE('',#460,#476,#279,.T.);
#578=EDGE_CURVE('',#478,#472,#280,.T.);
#579=EDGE_CURVE('',#479,#478,#281,.T.);
#580=EDGE_CURVE('',#473,#479,#282,.T.);
#581=EDGE_CURVE('',#477,#480,#283,.T.);
#582=EDGE_CURVE('',#481,#476,#284,.T.);
#583=EDGE_CURVE('',#480,#481,#285,.T.);
#584=EDGE_CURVE('',#480,#478,#402,.T.);
#585=EDGE_CURVE('',#450,#475,#286,.T.);
#586=EDGE_CURVE('',#482,#482,#403,.T.);
#587=EDGE_CURVE('',#483,#469,#287,.T.);
#588=EDGE_CURVE('',#483,#454,#288,.T.);
#589=EDGE_CURVE('',#479,#481,#404,.T.);
#590=EDGE_CURVE('',#484,#474,#289,.T.);
#591=EDGE_CURVE('',#485,#484,#290,.T.);
#592=EDGE_CURVE('',#485,#471,#291,.T.);
#593=EDGE_CURVE('',#486,#470,#292,.T.);
#594=EDGE_CURVE('',#486,#483,#293,.T.);
#595=EDGE_CURVE('',#487,#487,#405,.T.);
#596=EDGE_CURVE('',#487,#488,#294,.T.);
#597=EDGE_CURVE('',#488,#488,#406,.T.);
#598=EDGE_CURVE('',#489,#489,#407,.T.);
#599=EDGE_CURVE('',#489,#490,#295,.T.);
#600=EDGE_CURVE('',#490,#490,#408,.T.);
#601=EDGE_CURVE('',#491,#491,#409,.T.);
#602=EDGE_CURVE('',#491,#492,#296,.T.);
#603=EDGE_CURVE('',#492,#492,#410,.T.);
#604=EDGE_CURVE('',#493,#493,#411,.T.);
#605=EDGE_CURVE('',#493,#494,#297,.T.);
#606=EDGE_CURVE('',#494,#494,#412,.T.);
#607=EDGE_CURVE('',#495,#495,#413,.T.);
#608=EDGE_CURVE('',#495,#496,#298,.T.);
#609=EDGE_CURVE('',#496,#496,#414,.T.);
#610=EDGE_CURVE('',#497,#497,#415,.T.);
#611=EDGE_CURVE('',#497,#498,#299,.T.);
#612=EDGE_CURVE('',#498,#498,#416,.T.);
#613=EDGE_CURVE('',#499,#499,#417,.T.);
#614=EDGE_CURVE('',#499,#500,#300,.T.);
#615=EDGE_CURVE('',#500,#500,#418,.T.);
#616=EDGE_CURVE('',#501,#501,#419,.T.);
#617=EDGE_CURVE('',#501,#502,#301,.T.);
#618=EDGE_CURVE('',#502,#502,#420,.T.);
#619=EDGE_CURVE('',#503,#503,#421,.T.);
#620=EDGE_CURVE('',#503,#482,#302,.T.);
#621=EDGE_CURVE('',#504,#504,#422,.T.);
#622=EDGE_CURVE('',#504,#505,#303,.T.);
#623=EDGE_CURVE('',#505,#505,#423,.T.);
#624=EDGE_CURVE('',#458,#485,#304,.T.);
#625=EDGE_CURVE('',#455,#486,#305,.T.);
#626=EDGE_CURVE('',#459,#484,#306,.T.);
#627=EDGE_CURVE('',#506,#506,#424,.T.);
#628=EDGE_CURVE('',#506,#507,#307,.T.);
#629=EDGE_CURVE('',#507,#507,#425,.T.);
#630=EDGE_CURVE('',#508,#508,#426,.T.);
#631=EDGE_CURVE('',#508,#509,#308,.T.);
#632=EDGE_CURVE('',#509,#509,#427,.T.);
#633=EDGE_CURVE('',#510,#510,#428,.T.);
#634=EDGE_CURVE('',#510,#511,#309,.T.);
#635=EDGE_CURVE('',#511,#511,#429,.T.);
#636=EDGE_CURVE('',#512,#512,#430,.T.);
#637=EDGE_CURVE('',#512,#513,#310,.T.);
#638=EDGE_CURVE('',#513,#513,#431,.T.);
#639=ORIENTED_EDGE('',*,*,#514,.F.);
#640=ORIENTED_EDGE('',*,*,#515,.T.);
#641=ORIENTED_EDGE('',*,*,#516,.F.);
#642=ORIENTED_EDGE('',*,*,#515,.F.);
#643=ORIENTED_EDGE('',*,*,#517,.F.);
#644=ORIENTED_EDGE('',*,*,#518,.T.);
#645=ORIENTED_EDGE('',*,*,#519,.F.);
#646=ORIENTED_EDGE('',*,*,#518,.F.);
#647=ORIENTED_EDGE('',*,*,#520,.F.);
#648=ORIENTED_EDGE('',*,*,#521,.T.);
#649=ORIENTED_EDGE('',*,*,#522,.F.);
#650=ORIENTED_EDGE('',*,*,#521,.F.);
#651=ORIENTED_EDGE('',*,*,#523,.F.);
#652=ORIENTED_EDGE('',*,*,#524,.T.);
#653=ORIENTED_EDGE('',*,*,#525,.F.);
#654=ORIENTED_EDGE('',*,*,#524,.F.);
#655=ORIENTED_EDGE('',*,*,#526,.F.);
#656=ORIENTED_EDGE('',*,*,#527,.F.);
#657=ORIENTED_EDGE('',*,*,#528,.F.);
#658=ORIENTED_EDGE('',*,*,#529,.F.);
#659=ORIENTED_EDGE('',*,*,#530,.F.);
#660=ORIENTED_EDGE('',*,*,#531,.F.);
#661=ORIENTED_EDGE('',*,*,#532,.F.);
#662=ORIENTED_EDGE('',*,*,#533,.F.);
#663=ORIENTED_EDGE('',*,*,#526,.T.);
#664=ORIENTED_EDGE('',*,*,#534,.T.);
#665=ORIENTED_EDGE('',*,*,#535,.F.);
#666=ORIENTED_EDGE('',*,*,#536,.T.);
#667=ORIENTED_EDGE('',*,*,#537,.F.);
#668=ORIENTED_EDGE('',*,*,#529,.T.);
#669=ORIENTED_EDGE('',*,*,#538,.F.);
#670=ORIENTED_EDGE('',*,*,#539,.F.);
#671=ORIENTED_EDGE('',*,*,#534,.F.);
#672=ORIENTED_EDGE('',*,*,#533,.T.);
#673=ORIENTED_EDGE('',*,*,#540,.T.);
#674=ORIENTED_EDGE('',*,*,#541,.T.);
#675=ORIENTED_EDGE('',*,*,#542,.F.);
#676=ORIENTED_EDGE('',*,*,#543,.F.);
#677=ORIENTED_EDGE('',*,*,#544,.T.);
#678=ORIENTED_EDGE('',*,*,#545,.F.);
#679=ORIENTED_EDGE('',*,*,#546,.F.);
#680=ORIENTED_EDGE('',*,*,#547,.F.);
#681=ORIENTED_EDGE('',*,*,#548,.T.);
#682=ORIENTED_EDGE('',*,*,#549,.F.);
#683=ORIENTED_EDGE('',*,*,#550,.F.);
#684=ORIENTED_EDGE('',*,*,#551,.F.);
#685=ORIENTED_EDGE('',*,*,#552,.T.);
#686=ORIENTED_EDGE('',*,*,#553,.F.);
#687=ORIENTED_EDGE('',*,*,#554,.T.);
#688=ORIENTED_EDGE('',*,*,#555,.T.);
#689=ORIENTED_EDGE('',*,*,#556,.T.);
#690=ORIENTED_EDGE('',*,*,#557,.T.);
#691=ORIENTED_EDGE('',*,*,#558,.T.);
#692=ORIENTED_EDGE('',*,*,#555,.F.);
#693=ORIENTED_EDGE('',*,*,#559,.T.);
#694=ORIENTED_EDGE('',*,*,#535,.T.);
#695=ORIENTED_EDGE('',*,*,#539,.T.);
#696=ORIENTED_EDGE('',*,*,#557,.F.);
#697=ORIENTED_EDGE('',*,*,#531,.T.);
#698=ORIENTED_EDGE('',*,*,#560,.T.);
#699=ORIENTED_EDGE('',*,*,#552,.F.);
#700=ORIENTED_EDGE('',*,*,#561,.F.);
#701=ORIENTED_EDGE('',*,*,#558,.F.);
#702=ORIENTED_EDGE('',*,*,#538,.T.);
#703=ORIENTED_EDGE('',*,*,#528,.T.);
#704=ORIENTED_EDGE('',*,*,#562,.F.);
#705=ORIENTED_EDGE('',*,*,#563,.T.);
#706=ORIENTED_EDGE('',*,*,#540,.F.);
#707=ORIENTED_EDGE('',*,*,#532,.T.);
#708=ORIENTED_EDGE('',*,*,#561,.T.);
#709=ORIENTED_EDGE('',*,*,#516,.T.);
#710=ORIENTED_EDGE('',*,*,#519,.T.);
#711=ORIENTED_EDGE('',*,*,#522,.T.);
#712=ORIENTED_EDGE('',*,*,#525,.T.);
#713=ORIENTED_EDGE('',*,*,#554,.F.);
#714=ORIENTED_EDGE('',*,*,#564,.T.);
#715=ORIENTED_EDGE('',*,*,#559,.F.);
#716=ORIENTED_EDGE('',*,*,#556,.F.);
#717=ORIENTED_EDGE('',*,*,#530,.T.);
#718=ORIENTED_EDGE('',*,*,#551,.T.);
#719=ORIENTED_EDGE('',*,*,#565,.T.);
#720=ORIENTED_EDGE('',*,*,#553,.T.);
#721=ORIENTED_EDGE('',*,*,#560,.F.);
#722=ORIENTED_EDGE('',*,*,#563,.F.);
#723=ORIENTED_EDGE('',*,*,#566,.F.);
#724=ORIENTED_EDGE('',*,*,#567,.F.);
#725=ORIENTED_EDGE('',*,*,#541,.F.);
#726=ORIENTED_EDGE('',*,*,#568,.T.);
#727=ORIENTED_EDGE('',*,*,#569,.T.);
#728=ORIENTED_EDGE('',*,*,#570,.T.);
#729=ORIENTED_EDGE('',*,*,#545,.T.);
#730=ORIENTED_EDGE('',*,*,#571,.T.);
#731=ORIENTED_EDGE('',*,*,#572,.T.);
#732=ORIENTED_EDGE('',*,*,#573,.T.);
#733=ORIENTED_EDGE('',*,*,#574,.T.);
#734=ORIENTED_EDGE('',*,*,#575,.T.);
#735=ORIENTED_EDGE('',*,*,#576,.T.);
#736=ORIENTED_EDGE('',*,*,#549,.T.);
#737=ORIENTED_EDGE('',*,*,#577,.T.);
#738=ORIENTED_EDGE('',*,*,#578,.F.);
#739=ORIENTED_EDGE('',*,*,#579,.F.);
#740=ORIENTED_EDGE('',*,*,#580,.F.);
#741=ORIENTED_EDGE('',*,*,#571,.F.);
#742=ORIENTED_EDGE('',*,*,#581,.F.);
#743=ORIENTED_EDGE('',*,*,#575,.F.);
#744=ORIENTED_EDGE('',*,*,#582,.F.);
#745=ORIENTED_EDGE('',*,*,#583,.F.);
#746=ORIENTED_EDGE('',*,*,#581,.T.);
#747=ORIENTED_EDGE('',*,*,#584,.T.);
#748=ORIENTED_EDGE('',*,*,#578,.T.);
#749=ORIENTED_EDGE('',*,*,#574,.F.);
#750=ORIENTED_EDGE('',*,*,#585,.F.);
#751=ORIENTED_EDGE('',*,*,#536,.F.);
#752=ORIENTED_EDGE('',*,*,#564,.F.);
#753=ORIENTED_EDGE('',*,*,#565,.F.);
#754=ORIENTED_EDGE('',*,*,#550,.T.);
#755=ORIENTED_EDGE('',*,*,#576,.F.);
#756=ORIENTED_EDGE('',*,*,#586,.T.);
#757=ORIENTED_EDGE('',*,*,#587,.F.);
#758=ORIENTED_EDGE('',*,*,#588,.T.);
#759=ORIENTED_EDGE('',*,*,#542,.T.);
#760=ORIENTED_EDGE('',*,*,#567,.T.);
#761=ORIENTED_EDGE('',*,*,#514,.T.);
#762=ORIENTED_EDGE('',*,*,#517,.T.);
#763=ORIENTED_EDGE('',*,*,#520,.T.);
#764=ORIENTED_EDGE('',*,*,#523,.T.);
#765=ORIENTED_EDGE('',*,*,#583,.T.);
#766=ORIENTED_EDGE('',*,*,#589,.F.);
#767=ORIENTED_EDGE('',*,*,#579,.T.);
#768=ORIENTED_EDGE('',*,*,#584,.F.);
#769=ORIENTED_EDGE('',*,*,#527,.T.);
#770=ORIENTED_EDGE('',*,*,#537,.T.);
#771=ORIENTED_EDGE('',*,*,#585,.T.);
#772=ORIENTED_EDGE('',*,*,#573,.F.);
#773=ORIENTED_EDGE('',*,*,#590,.F.);
#774=ORIENTED_EDGE('',*,*,#591,.F.);
#775=ORIENTED_EDGE('',*,*,#592,.T.);
#776=ORIENTED_EDGE('',*,*,#569,.F.);
#777=ORIENTED_EDGE('',*,*,#593,.F.);
#778=ORIENTED_EDGE('',*,*,#594,.T.);
#779=ORIENTED_EDGE('',*,*,#587,.T.);
#780=ORIENTED_EDGE('',*,*,#566,.T.);
#781=ORIENTED_EDGE('',*,*,#562,.T.);
#782=ORIENTED_EDGE('',*,*,#595,.F.);
#783=ORIENTED_EDGE('',*,*,#596,.T.);
#784=ORIENTED_EDGE('',*,*,#597,.F.);
#785=ORIENTED_EDGE('',*,*,#596,.F.);
#786=ORIENTED_EDGE('',*,*,#595,.T.);
#787=ORIENTED_EDGE('',*,*,#598,.F.);
#788=ORIENTED_EDGE('',*,*,#599,.T.);
#789=ORIENTED_EDGE('',*,*,#600,.F.);
#790=ORIENTED_EDGE('',*,*,#599,.F.);
#791=ORIENTED_EDGE('',*,*,#598,.T.);
#792=ORIENTED_EDGE('',*,*,#601,.F.);
#793=ORIENTED_EDGE('',*,*,#602,.T.);
#794=ORIENTED_EDGE('',*,*,#603,.F.);
#795=ORIENTED_EDGE('',*,*,#602,.F.);
#796=ORIENTED_EDGE('',*,*,#601,.T.);
#797=ORIENTED_EDGE('',*,*,#604,.F.);
#798=ORIENTED_EDGE('',*,*,#605,.T.);
#799=ORIENTED_EDGE('',*,*,#606,.F.);
#800=ORIENTED_EDGE('',*,*,#605,.F.);
#801=ORIENTED_EDGE('',*,*,#604,.T.);
#802=ORIENTED_EDGE('',*,*,#607,.F.);
#803=ORIENTED_EDGE('',*,*,#608,.T.);
#804=ORIENTED_EDGE('',*,*,#609,.F.);
#805=ORIENTED_EDGE('',*,*,#608,.F.);
#806=ORIENTED_EDGE('',*,*,#607,.T.);
#807=ORIENTED_EDGE('',*,*,#610,.F.);
#808=ORIENTED_EDGE('',*,*,#611,.T.);
#809=ORIENTED_EDGE('',*,*,#612,.F.);
#810=ORIENTED_EDGE('',*,*,#611,.F.);
#811=ORIENTED_EDGE('',*,*,#610,.T.);
#812=ORIENTED_EDGE('',*,*,#613,.F.);
#813=ORIENTED_EDGE('',*,*,#614,.T.);
#814=ORIENTED_EDGE('',*,*,#615,.F.);
#815=ORIENTED_EDGE('',*,*,#614,.F.);
#816=ORIENTED_EDGE('',*,*,#613,.T.);
#817=ORIENTED_EDGE('',*,*,#616,.F.);
#818=ORIENTED_EDGE('',*,*,#617,.T.);
#819=ORIENTED_EDGE('',*,*,#618,.F.);
#820=ORIENTED_EDGE('',*,*,#617,.F.);
#821=ORIENTED_EDGE('',*,*,#616,.T.);
#822=ORIENTED_EDGE('',*,*,#619,.F.);
#823=ORIENTED_EDGE('',*,*,#620,.T.);
#824=ORIENTED_EDGE('',*,*,#586,.F.);
#825=ORIENTED_EDGE('',*,*,#620,.F.);
#826=ORIENTED_EDGE('',*,*,#621,.F.);
#827=ORIENTED_EDGE('',*,*,#622,.T.);
#828=ORIENTED_EDGE('',*,*,#623,.F.);
#829=ORIENTED_EDGE('',*,*,#622,.F.);
#830=ORIENTED_EDGE('',*,*,#624,.F.);
#831=ORIENTED_EDGE('',*,*,#546,.T.);
#832=ORIENTED_EDGE('',*,*,#570,.F.);
#833=ORIENTED_EDGE('',*,*,#592,.F.);
#834=ORIENTED_EDGE('',*,*,#623,.T.);
#835=ORIENTED_EDGE('',*,*,#625,.T.);
#836=ORIENTED_EDGE('',*,*,#593,.T.);
#837=ORIENTED_EDGE('',*,*,#568,.F.);
#838=ORIENTED_EDGE('',*,*,#544,.F.);
#839=ORIENTED_EDGE('',*,*,#621,.T.);
#840=ORIENTED_EDGE('',*,*,#624,.T.);
#841=ORIENTED_EDGE('',*,*,#591,.T.);
#842=ORIENTED_EDGE('',*,*,#626,.F.);
#843=ORIENTED_EDGE('',*,*,#547,.T.);
#844=ORIENTED_EDGE('',*,*,#582,.T.);
#845=ORIENTED_EDGE('',*,*,#577,.F.);
#846=ORIENTED_EDGE('',*,*,#548,.F.);
#847=ORIENTED_EDGE('',*,*,#626,.T.);
#848=ORIENTED_EDGE('',*,*,#590,.T.);
#849=ORIENTED_EDGE('',*,*,#572,.F.);
#850=ORIENTED_EDGE('',*,*,#580,.T.);
#851=ORIENTED_EDGE('',*,*,#589,.T.);
#852=ORIENTED_EDGE('',*,*,#619,.T.);
#853=ORIENTED_EDGE('',*,*,#594,.F.);
#854=ORIENTED_EDGE('',*,*,#625,.F.);
#855=ORIENTED_EDGE('',*,*,#543,.T.);
#856=ORIENTED_EDGE('',*,*,#588,.F.);
#857=ORIENTED_EDGE('',*,*,#615,.T.);
#858=ORIENTED_EDGE('',*,*,#603,.T.);
#859=ORIENTED_EDGE('',*,*,#618,.T.);
#860=ORIENTED_EDGE('',*,*,#609,.T.);
#861=ORIENTED_EDGE('',*,*,#597,.T.);
#862=ORIENTED_EDGE('',*,*,#600,.T.);
#863=ORIENTED_EDGE('',*,*,#606,.T.);
#864=ORIENTED_EDGE('',*,*,#612,.T.);
#865=ORIENTED_EDGE('',*,*,#627,.F.);
#866=ORIENTED_EDGE('',*,*,#628,.T.);
#867=ORIENTED_EDGE('',*,*,#629,.T.);
#868=ORIENTED_EDGE('',*,*,#628,.F.);
#869=ORIENTED_EDGE('',*,*,#627,.T.);
#870=ORIENTED_EDGE('',*,*,#629,.F.);
#871=ORIENTED_EDGE('',*,*,#630,.F.);
#872=ORIENTED_EDGE('',*,*,#631,.T.);
#873=ORIENTED_EDGE('',*,*,#632,.T.);
#874=ORIENTED_EDGE('',*,*,#631,.F.);
#875=ORIENTED_EDGE('',*,*,#630,.T.);
#876=ORIENTED_EDGE('',*,*,#632,.F.);
#877=ORIENTED_EDGE('',*,*,#633,.F.);
#878=ORIENTED_EDGE('',*,*,#634,.T.);
#879=ORIENTED_EDGE('',*,*,#635,.T.);
#880=ORIENTED_EDGE('',*,*,#634,.F.);
#881=ORIENTED_EDGE('',*,*,#633,.T.);
#882=ORIENTED_EDGE('',*,*,#635,.F.);
#883=ORIENTED_EDGE('',*,*,#636,.F.);
#884=ORIENTED_EDGE('',*,*,#637,.T.);
#885=ORIENTED_EDGE('',*,*,#638,.T.);
#886=ORIENTED_EDGE('',*,*,#637,.F.);
#887=ORIENTED_EDGE('',*,*,#636,.T.);
#888=ORIENTED_EDGE('',*,*,#638,.F.);
#889=CYLINDRICAL_SURFACE('',#990,1.5);
#890=CYLINDRICAL_SURFACE('',#993,1.5);
#891=CYLINDRICAL_SURFACE('',#996,1.5);
#892=CYLINDRICAL_SURFACE('',#999,1.44568250057417);
#893=CYLINDRICAL_SURFACE('',#1008,5.);
#894=CYLINDRICAL_SURFACE('',#1011,5.);
#895=CYLINDRICAL_SURFACE('',#1013,5.);
#896=CYLINDRICAL_SURFACE('',#1028,2.25);
#897=CYLINDRICAL_SURFACE('',#1031,3.24999999999999);
#898=CYLINDRICAL_SURFACE('',#1035,3.25);
#899=CYLINDRICAL_SURFACE('',#1039,3.25);
#900=CYLINDRICAL_SURFACE('',#1043,3.25);
#901=CYLINDRICAL_SURFACE('',#1047,3.25);
#902=CYLINDRICAL_SURFACE('',#1051,3.25);
#903=CYLINDRICAL_SURFACE('',#1055,3.25);
#904=CYLINDRICAL_SURFACE('',#1059,3.25);
#905=CYLINDRICAL_SURFACE('',#1063,5.);
#906=CYLINDRICAL_SURFACE('',#1065,5.);
#907=CYLINDRICAL_SURFACE('',#1073,3.25);
#908=CYLINDRICAL_SURFACE('',#1078,3.25);
#909=CYLINDRICAL_SURFACE('',#1083,3.25);
#910=CYLINDRICAL_SURFACE('',#1088,3.25);
#911=ADVANCED_FACE('',(#86),#889,.F.);
#912=ADVANCED_FACE('',(#87),#890,.F.);
#913=ADVANCED_FACE('',(#88),#891,.F.);
#914=ADVANCED_FACE('',(#89),#892,.F.);
#915=ADVANCED_FACE('',(#90),#47,.F.);
#916=ADVANCED_FACE('',(#91),#48,.F.);
#917=ADVANCED_FACE('',(#92),#49,.F.);
#918=ADVANCED_FACE('',(#93),#50,.F.);
#919=ADVANCED_FACE('',(#94),#51,.T.);
#920=ADVANCED_FACE('',(#95),#893,.F.);
#921=ADVANCED_FACE('',(#96),#894,.F.);
#922=ADVANCED_FACE('',(#97),#895,.F.);
#923=ADVANCED_FACE('',(#98),#52,.T.);
#924=ADVANCED_FACE('',(#99,#23,#24,#25,#26),#53,.T.);
#925=ADVANCED_FACE('',(#100),#54,.T.);
#926=ADVANCED_FACE('',(#101),#55,.T.);
#927=ADVANCED_FACE('',(#102),#56,.T.);
#928=ADVANCED_FACE('',(#103),#57,.T.);
#929=ADVANCED_FACE('',(#104),#58,.T.);
#930=ADVANCED_FACE('',(#105),#59,.T.);
#931=ADVANCED_FACE('',(#106),#60,.F.);
#932=ADVANCED_FACE('',(#107),#61,.F.);
#933=ADVANCED_FACE('',(#108,#27),#62,.T.);
#934=ADVANCED_FACE('',(#109,#28,#29,#30,#31),#63,.T.);
#935=ADVANCED_FACE('',(#110),#896,.F.);
#936=ADVANCED_FACE('',(#111),#64,.T.);
#937=ADVANCED_FACE('',(#112),#897,.T.);
#938=ADVANCED_FACE('',(#113),#65,.T.);
#939=ADVANCED_FACE('',(#114),#898,.T.);
#940=ADVANCED_FACE('',(#115),#66,.T.);
#941=ADVANCED_FACE('',(#116),#899,.T.);
#942=ADVANCED_FACE('',(#117),#67,.T.);
#943=ADVANCED_FACE('',(#118),#900,.T.);
#944=ADVANCED_FACE('',(#119),#68,.T.);
#945=ADVANCED_FACE('',(#120),#901,.T.);
#946=ADVANCED_FACE('',(#121),#69,.T.);
#947=ADVANCED_FACE('',(#122),#902,.T.);
#948=ADVANCED_FACE('',(#123),#70,.T.);
#949=ADVANCED_FACE('',(#124),#903,.T.);
#950=ADVANCED_FACE('',(#125),#71,.T.);
#951=ADVANCED_FACE('',(#126),#904,.T.);
#952=ADVANCED_FACE('',(#127),#72,.T.);
#953=ADVANCED_FACE('',(#128),#905,.F.);
#954=ADVANCED_FACE('',(#129),#906,.F.);
#955=ADVANCED_FACE('',(#130,#32),#73,.T.);
#956=ADVANCED_FACE('',(#131,#33),#74,.T.);
#957=ADVANCED_FACE('',(#132),#75,.T.);
#958=ADVANCED_FACE('',(#133,#34),#76,.T.);
#959=ADVANCED_FACE('',(#134,#35,#36,#37,#38,#39,#40,#41,#42),#77,.F.);
#960=ADVANCED_FACE('',(#135),#907,.T.);
#961=ADVANCED_FACE('',(#136),#78,.T.);
#962=ADVANCED_FACE('',(#137),#79,.F.);
#963=ADVANCED_FACE('',(#138),#908,.T.);
#964=ADVANCED_FACE('',(#139),#80,.T.);
#965=ADVANCED_FACE('',(#140),#81,.F.);
#966=ADVANCED_FACE('',(#141),#909,.T.);
#967=ADVANCED_FACE('',(#142),#82,.T.);
#968=ADVANCED_FACE('',(#143),#83,.F.);
#969=ADVANCED_FACE('',(#144),#910,.T.);
#970=ADVANCED_FACE('',(#145),#84,.T.);
#971=ADVANCED_FACE('',(#146),#85,.F.);
#972=CLOSED_SHELL('',(#911,#912,#913,#914,#915,#916,#917,#918,#919,#920,
#921,#922,#923,#924,#925,#926,#927,#928,#929,#930,#931,#932,#933,#934,#935,
#936,#937,#938,#939,#940,#941,#942,#943,#944,#945,#946,#947,#948,#949,#950,
#951,#952,#953,#954,#955,#956,#957,#958,#959));
#973=CLOSED_SHELL('',(#960,#961,#962));
#974=CLOSED_SHELL('',(#963,#964,#965));
#975=CLOSED_SHELL('',(#966,#967,#968));
#976=CLOSED_SHELL('',(#969,#970,#971));
#977=DERIVED_UNIT_ELEMENT(#979,1.);
#978=DERIVED_UNIT_ELEMENT(#1658,-3.);
#979=(
MASS_UNIT()
NAMED_UNIT(*)
SI_UNIT(.KILO.,.GRAM.)
);
#980=DERIVED_UNIT((#977,#978));
#981=MEASURE_REPRESENTATION_ITEM('density measure',
POSITIVE_RATIO_MEASURE(7850.),#980);
#982=PROPERTY_DEFINITION_REPRESENTATION(#987,#984);
#983=PROPERTY_DEFINITION_REPRESENTATION(#988,#985);
#984=REPRESENTATION('material name',(#986),#1655);
#985=REPRESENTATION('density',(#981),#1655);
#986=DESCRIPTIVE_REPRESENTATION_ITEM('Steel','Steel');
#987=PROPERTY_DEFINITION('material property','material name',#1665);
#988=PROPERTY_DEFINITION('material property','density of part',#1665);
#989=AXIS2_PLACEMENT_3D('',#1384,#1093,#1094);
#990=AXIS2_PLACEMENT_3D('',#1385,#1095,#1096);
#991=AXIS2_PLACEMENT_3D('',#1387,#1097,#1098);
#992=AXIS2_PLACEMENT_3D('',#1390,#1100,#1101);
#993=AXIS2_PLACEMENT_3D('',#1391,#1102,#1103);
#994=AXIS2_PLACEMENT_3D('',#1393,#1104,#1105);
#995=AXIS2_PLACEMENT_3D('',#1396,#1107,#1108);
#996=AXIS2_PLACEMENT_3D('',#1397,#1109,#1110);
#997=AXIS2_PLACEMENT_3D('',#1399,#1111,#1112);
#998=AXIS2_PLACEMENT_3D('',#1402,#1114,#1115);
#999=AXIS2_PLACEMENT_3D('',#1403,#1116,#1117);
#1000=AXIS2_PLACEMENT_3D('',#1405,#1118,#1119);
#1001=AXIS2_PLACEMENT_3D('',#1408,#1121,#1122);
#1002=AXIS2_PLACEMENT_3D('',#1409,#1123,#1124);
#1003=AXIS2_PLACEMENT_3D('',#1418,#1129,#1130);
#1004=AXIS2_PLACEMENT_3D('',#1427,#1135,#1136);
#1005=AXIS2_PLACEMENT_3D('',#1431,#1138,#1139);
#1006=AXIS2_PLACEMENT_3D('',#1435,#1142,#1143);
#1007=AXIS2_PLACEMENT_3D('',#1439,#1146,#1147);
#1008=AXIS2_PLACEMENT_3D('',#1463,#1160,#1161);
#1009=AXIS2_PLACEMENT_3D('',#1468,#1163,#1164);
#1010=AXIS2_PLACEMENT_3D('',#1471,#1166,#1167);
#1011=AXIS2_PLACEMENT_3D('',#1472,#1168,#1169);
#1012=AXIS2_PLACEMENT_3D('',#1475,#1171,#1172);
#1013=AXIS2_PLACEMENT_3D('',#1477,#1174,#1175);
#1014=AXIS2_PLACEMENT_3D('',#1479,#1177,#1178);
#1015=AXIS2_PLACEMENT_3D('',#1482,#1181,#1182);
#1016=AXIS2_PLACEMENT_3D('',#1486,#1185,#1186);
#1017=AXIS2_PLACEMENT_3D('',#1488,#1188,#1189);
#1018=AXIS2_PLACEMENT_3D('',#1490,#1191,#1192);
#1019=AXIS2_PLACEMENT_3D('',#1494,#1195,#1196);
#1020=AXIS2_PLACEMENT_3D('',#1500,#1200,#1201);
#1021=AXIS2_PLACEMENT_3D('',#1509,#1206,#1207);
#1022=AXIS2_PLACEMENT_3D('',#1515,#1211,#1212);
#1023=AXIS2_PLACEMENT_3D('',#1521,#1216,#1217);
#1024=AXIS2_PLACEMENT_3D('',#1527,#1221,#1222);
#1025=AXIS2_PLACEMENT_3D('',#1528,#1223,#1224);
#1026=AXIS2_PLACEMENT_3D('',#1531,#1226,#1227);
#1027=AXIS2_PLACEMENT_3D('',#1532,#1228,#1229);
#1028=AXIS2_PLACEMENT_3D('',#1536,#1232,#1233);
#1029=AXIS2_PLACEMENT_3D('',#1537,#1234,#1235);
#1030=AXIS2_PLACEMENT_3D('',#1538,#1236,#1237);
#1031=AXIS2_PLACEMENT_3D('',#1547,#1243,#1244);
#1032=AXIS2_PLACEMENT_3D('',#1549,#1245,#1246);
#1033=AXIS2_PLACEMENT_3D('',#1552,#1248,#1249);
#1034=AXIS2_PLACEMENT_3D('',#1553,#1250,#1251);
#1035=AXIS2_PLACEMENT_3D('',#1554,#1252,#1253);
#1036=AXIS2_PLACEMENT_3D('',#1556,#1254,#1255);
#1037=AXIS2_PLACEMENT_3D('',#1559,#1257,#1258);
#1038=AXIS2_PLACEMENT_3D('',#1560,#1259,#1260);
#1039=AXIS2_PLACEMENT_3D('',#1561,#1261,#1262);
#1040=AXIS2_PLACEMENT_3D('',#1563,#1263,#1264);
#1041=AXIS2_PLACEMENT_3D('',#1566,#1266,#1267);
#1042=AXIS2_PLACEMENT_3D('',#1567,#1268,#1269);
#1043=AXIS2_PLACEMENT_3D('',#1568,#1270,#1271);
#1044=AXIS2_PLACEMENT_3D('',#1570,#1272,#1273);
#1045=AXIS2_PLACEMENT_3D('',#1573,#1275,#1276);
#1046=AXIS2_PLACEMENT_3D('',#1574,#1277,#1278);
#1047=AXIS2_PLACEMENT_3D('',#1575,#1279,#1280);
#1048=AXIS2_PLACEMENT_3D('',#1577,#1281,#1282);
#1049=AXIS2_PLACEMENT_3D('',#1580,#1284,#1285);
#1050=AXIS2_PLACEMENT_3D('',#1581,#1286,#1287);
#1051=AXIS2_PLACEMENT_3D('',#1582,#1288,#1289);
#1052=AXIS2_PLACEMENT_3D('',#1584,#1290,#1291);
#1053=AXIS2_PLACEMENT_3D('',#1587,#1293,#1294);
#1054=AXIS2_PLACEMENT_3D('',#1588,#1295,#1296);
#1055=AXIS2_PLACEMENT_3D('',#1589,#1297,#1298);
#1056=AXIS2_PLACEMENT_3D('',#1591,#1299,#1300);
#1057=AXIS2_PLACEMENT_3D('',#1594,#1302,#1303);
#1058=AXIS2_PLACEMENT_3D('',#1595,#1304,#1305);
#1059=AXIS2_PLACEMENT_3D('',#1596,#1306,#1307);
#1060=AXIS2_PLACEMENT_3D('',#1598,#1308,#1309);
#1061=AXIS2_PLACEMENT_3D('',#1601,#1311,#1312);
#1062=AXIS2_PLACEMENT_3D('',#1602,#1313,#1314);
#1063=AXIS2_PLACEMENT_3D('',#1603,#1315,#1316);
#1064=AXIS2_PLACEMENT_3D('',#1605,#1317,#1318);
#1065=AXIS2_PLACEMENT_3D('',#1607,#1320,#1321);
#1066=AXIS2_PLACEMENT_3D('',#1609,#1322,#1323);
#1067=AXIS2_PLACEMENT_3D('',#1612,#1325,#1326);
#1068=AXIS2_PLACEMENT_3D('',#1613,#1327,#1328);
#1069=AXIS2_PLACEMENT_3D('',#1615,#1330,#1331);
#1070=AXIS2_PLACEMENT_3D('',#1617,#1333,#1334);
#1071=AXIS2_PLACEMENT_3D('',#1619,#1336,#1337);
#1072=AXIS2_PLACEMENT_3D('',#1620,#1338,#1339);
#1073=AXIS2_PLACEMENT_3D('',#1621,#1340,#1341);
#1074=AXIS2_PLACEMENT_3D('',#1623,#1342,#1343);
#1075=AXIS2_PLACEMENT_3D('',#1626,#1345,#1346);
#1076=AXIS2_PLACEMENT_3D('',#1627,#1347,#1348);
#1077=AXIS2_PLACEMENT_3D('',#1628,#1349,#1350);
#1078=AXIS2_PLACEMENT_3D('',#1629,#1351,#1352);
#1079=AXIS2_PLACEMENT_3D('',#1631,#1353,#1354);
#1080=AXIS2_PLACEMENT_3D('',#1634,#1356,#1357);
#1081=AXIS2_PLACEMENT_3D('',#1635,#1358,#1359);
#1082=AXIS2_PLACEMENT_3D('',#1636,#1360,#1361);
#1083=AXIS2_PLACEMENT_3D('',#1637,#1362,#1363);
#1084=AXIS2_PLACEMENT_3D('',#1639,#1364,#1365);
#1085=AXIS2_PLACEMENT_3D('',#1642,#1367,#1368);
#1086=AXIS2_PLACEMENT_3D('',#1643,#1369,#1370);
#1087=AXIS2_PLACEMENT_3D('',#1644,#1371,#1372);
#1088=AXIS2_PLACEMENT_3D('',#1645,#1373,#1374);
#1089=AXIS2_PLACEMENT_3D('',#1647,#1375,#1376);
#1090=AXIS2_PLACEMENT_3D('',#1650,#1378,#1379);
#1091=AXIS2_PLACEMENT_3D('',#1651,#1380,#1381);
#1092=AXIS2_PLACEMENT_3D('',#1652,#1382,#1383);
#1093=DIRECTION('axis',(0.,0.,1.));
#1094=DIRECTION('refdir',(1.,0.,0.));
#1095=DIRECTION('center_axis',(0.,1.,0.));
#1096=DIRECTION('ref_axis',(1.,0.,0.));
#1097=DIRECTION('center_axis',(0.,1.,0.));
#1098=DIRECTION('ref_axis',(1.,0.,0.));
#1099=DIRECTION('',(0.,1.,0.));
#1100=DIRECTION('center_axis',(0.,-1.,0.));
#1101=DIRECTION('ref_axis',(1.,0.,0.));
#1102=DIRECTION('center_axis',(0.,1.,0.));
#1103=DIRECTION('ref_axis',(1.,0.,0.));
#1104=DIRECTION('center_axis',(0.,1.,0.));
#1105=DIRECTION('ref_axis',(1.,0.,0.));
#1106=DIRECTION('',(0.,1.,0.));
#1107=DIRECTION('center_axis',(0.,-1.,0.));
#1108=DIRECTION('ref_axis',(1.,0.,0.));
#1109=DIRECTION('center_axis',(0.,1.,0.));
#1110=DIRECTION('ref_axis',(1.,0.,0.));
#1111=DIRECTION('center_axis',(0.,1.,0.));
#1112=DIRECTION('ref_axis',(1.,0.,0.));
#1113=DIRECTION('',(0.,1.,0.));
#1114=DIRECTION('center_axis',(0.,-1.,0.));
#1115=DIRECTION('ref_axis',(1.,0.,0.));
#1116=DIRECTION('center_axis',(0.,1.,0.));
#1117=DIRECTION('ref_axis',(1.,0.,0.));
#1118=DIRECTION('center_axis',(0.,1.,0.));
#1119=DIRECTION('ref_axis',(1.,0.,0.));
#1120=DIRECTION('',(0.,1.,0.));
#1121=DIRECTION('center_axis',(0.,-1.,0.));
#1122=DIRECTION('ref_axis',(1.,0.,0.));
#1123=DIRECTION('center_axis',(0.,0.,-1.));
#1124=DIRECTION('ref_axis',(-1.,0.,0.));
#1125=DIRECTION('',(1.,0.,0.));
#1126=DIRECTION('',(0.,1.,0.));
#1127=DIRECTION('',(-1.,0.,0.));
#1128=DIRECTION('',(0.,-1.,0.));
#1129=DIRECTION('center_axis',(0.,0.,-1.));
#1130=DIRECTION('ref_axis',(-1.,0.,0.));
#1131=DIRECTION('',(1.,0.,0.));
#1132=DIRECTION('',(0.,1.,0.));
#1133=DIRECTION('',(-1.,0.,0.));
#1134=DIRECTION('',(0.,-1.,0.));
#1135=DIRECTION('center_axis',(0.,-0.748762225055479,-0.662838691032719));
#1136=DIRECTION('ref_axis',(0.,0.662838691032719,-0.748762225055479));
#1137=DIRECTION('',(0.,0.662838691032719,-0.748762225055479));
#1138=DIRECTION('center_axis',(0.,0.748762225055479,0.662838691032719));
#1139=DIRECTION('ref_axis',(0.,0.662838691032719,-0.748762225055479));
#1140=DIRECTION('',(-1.,0.,0.));
#1141=DIRECTION('',(0.,0.662838691032719,-0.748762225055479));
#1142=DIRECTION('center_axis',(-1.,0.,0.));
#1143=DIRECTION('ref_axis',(0.,0.,1.));
#1144=DIRECTION('',(0.,0.,1.));
#1145=DIRECTION('',(0.,-1.,0.));
#1146=DIRECTION('center_axis',(1.,0.,0.));
#1147=DIRECTION('ref_axis',(0.,1.,0.));
#1148=DIRECTION('',(0.,0.,1.));
#1149=DIRECTION('',(0.,-1.,0.));
#1150=DIRECTION('',(0.,0.,1.));
#1151=DIRECTION('',(0.,-1.,0.));
#1152=DIRECTION('',(0.,0.,1.));
#1153=DIRECTION('',(0.,1.,0.));
#1154=DIRECTION('',(0.,0.,1.));
#1155=DIRECTION('',(0.,1.,0.));
#1156=DIRECTION('',(0.,0.,1.));
#1157=DIRECTION('',(0.,1.,0.));
#1158=DIRECTION('',(0.,0.,1.));
#1159=DIRECTION('',(0.,0.662838691032719,-0.748762225055479));
#1160=DIRECTION('center_axis',(0.,1.,0.));
#1161=DIRECTION('ref_axis',(0.707106781186547,0.,-0.707106781186547));
#1162=DIRECTION('',(0.,1.,0.));
#1163=DIRECTION('center_axis',(0.,0.748762225055479,0.662838691032719));
#1164=DIRECTION('ref_axis',(0.,0.662838691032719,-0.748762225055479));
#1165=DIRECTION('',(0.,-1.,0.));
#1166=DIRECTION('center_axis',(-0.707106781186548,-0.707106781186548,0.));
#1167=DIRECTION('ref_axis',(0.707106781186547,-0.707106781186547,0.));
#1168=DIRECTION('center_axis',(1.,0.,0.));
#1169=DIRECTION('ref_axis',(0.,-0.707106781186547,-0.707106781186547));
#1170=DIRECTION('',(-1.,0.,0.));
#1171=DIRECTION('center_axis',(-0.707106781186548,0.707106781186548,0.));
#1172=DIRECTION('ref_axis',(-0.707106781186547,-0.707106781186547,0.));
#1173=DIRECTION('',(1.,0.,0.));
#1174=DIRECTION('center_axis',(0.,-1.,0.));
#1175=DIRECTION('ref_axis',(-0.707106781186547,0.,-0.707106781186547));
#1176=DIRECTION('',(0.,1.,0.));
#1177=DIRECTION('center_axis',(-1.,0.,0.));
#1178=DIRECTION('ref_axis',(0.,0.,1.));
#1179=DIRECTION('',(0.,0.662838691032719,-0.748762225055479));
#1180=DIRECTION('',(0.,0.,-1.));
#1181=DIRECTION('center_axis',(0.,1.,0.));
#1182=DIRECTION('ref_axis',(-1.,0.,0.));
#1183=DIRECTION('',(0.,0.,-1.));
#1184=DIRECTION('',(1.,0.,0.));
#1185=DIRECTION('center_axis',(0.,0.,1.));
#1186=DIRECTION('ref_axis',(1.,0.,0.));
#1187=DIRECTION('',(-1.,0.,0.));
#1188=DIRECTION('center_axis',(0.,0.748762225055479,0.662838691032719));
#1189=DIRECTION('ref_axis',(0.,0.662838691032719,-0.748762225055479));
#1190=DIRECTION('',(-1.,0.,0.));
#1191=DIRECTION('center_axis',(0.,0.,1.));
#1192=DIRECTION('ref_axis',(1.,0.,0.));
#1193=DIRECTION('',(0.,1.,0.));
#1194=DIRECTION('',(-1.,0.,0.));
#1195=DIRECTION('center_axis',(0.,0.,1.));
#1196=DIRECTION('ref_axis',(1.,0.,0.));
#1197=DIRECTION('',(-1.,0.,0.));
#1198=DIRECTION('',(0.,-1.,0.));
#1199=DIRECTION('',(1.,0.,0.));
#1200=DIRECTION('center_axis',(0.,0.,1.));
#1201=DIRECTION('ref_axis',(1.,0.,0.));
#1202=DIRECTION('',(0.,1.,0.));
#1203=DIRECTION('',(-1.,0.,0.));
#1204=DIRECTION('',(0.,-1.,0.));
#1205=DIRECTION('',(1.,0.,0.));
#1206=DIRECTION('center_axis',(0.,0.,1.));
#1207=DIRECTION('ref_axis',(1.,0.,0.));
#1208=DIRECTION('',(0.,-1.,0.));
#1209=DIRECTION('',(1.,0.,0.));
#1210=DIRECTION('',(-1.,0.,0.));
#1211=DIRECTION('center_axis',(-1.,0.,0.));
#1212=DIRECTION('ref_axis',(0.,0.,1.));
#1213=DIRECTION('',(0.,0.,1.));
#1214=DIRECTION('',(0.,-1.,0.));
#1215=DIRECTION('',(0.,0.,-1.));
#1216=DIRECTION('center_axis',(1.,0.,0.));
#1217=DIRECTION('ref_axis',(0.,0.,-1.));
#1218=DIRECTION('',(0.,0.,-1.));
#1219=DIRECTION('',(0.,0.,1.));
#1220=DIRECTION('',(0.,1.,0.));
#1221=DIRECTION('center_axis',(0.,-1.,0.));
#1222=DIRECTION('ref_axis',(1.,0.,0.));
#1223=DIRECTION('center_axis',(0.,1.,0.));
#1224=DIRECTION('ref_axis',(1.,0.,0.));
#1225=DIRECTION('',(0.,0.,1.));
#1226=DIRECTION('center_axis',(0.,1.,0.));
#1227=DIRECTION('ref_axis',(-1.,0.,0.));
#1228=DIRECTION('center_axis',(0.,-1.,0.));
#1229=DIRECTION('ref_axis',(0.,0.,-1.));
#1230=DIRECTION('',(0.,0.,1.));
#1231=DIRECTION('',(1.,0.,0.));
#1232=DIRECTION('center_axis',(0.,1.,0.));
#1233=DIRECTION('ref_axis',(1.,0.,0.));
#1234=DIRECTION('center_axis',(0.,-1.,0.));
#1235=DIRECTION('ref_axis',(1.,0.,0.));
#1236=DIRECTION('center_axis',(-1.,0.,0.));
#1237=DIRECTION('ref_axis',(0.,-1.,0.));
#1238=DIRECTION('',(0.,0.,1.));
#1239=DIRECTION('',(0.,-1.,0.));
#1240=DIRECTION('',(0.,0.,1.));
#1241=DIRECTION('',(0.,0.,1.));
#1242=DIRECTION('',(0.,-1.,0.));
#1243=DIRECTION('center_axis',(0.,0.,-1.));
#1244=DIRECTION('ref_axis',(1.,0.,0.));
#1245=DIRECTION('center_axis',(0.,0.,-1.));
#1246=DIRECTION('ref_axis',(1.,0.,0.));
#1247=DIRECTION('',(0.,0.,1.));
#1248=DIRECTION('center_axis',(0.,0.,1.));
#1249=DIRECTION('ref_axis',(1.,0.,0.));
#1250=DIRECTION('center_axis',(0.,0.,-1.));
#1251=DIRECTION('ref_axis',(1.,0.,0.));
#1252=DIRECTION('center_axis',(0.,0.,-1.));
#1253=DIRECTION('ref_axis',(1.,0.,0.));
#1254=DIRECTION('center_axis',(0.,0.,-1.));
#1255=DIRECTION('ref_axis',(1.,0.,0.));
#1256=DIRECTION('',(0.,0.,1.));
#1257=DIRECTION('center_axis',(0.,0.,1.));
#1258=DIRECTION('ref_axis',(1.,0.,0.));
#1259=DIRECTION('center_axis',(0.,0.,-1.));
#1260=DIRECTION('ref_axis',(1.,0.,0.));
#1261=DIRECTION('center_axis',(0.,0.,-1.));
#1262=DIRECTION('ref_axis',(1.,0.,0.));
#1263=DIRECTION('center_axis',(0.,0.,-1.));
#1264=DIRECTION('ref_axis',(1.,0.,0.));
#1265=DIRECTION('',(0.,0.,1.));
#1266=DIRECTION('center_axis',(0.,0.,1.));
#1267=DIRECTION('ref_axis',(1.,0.,0.));
#1268=DIRECTION('center_axis',(0.,0.,-1.));
#1269=DIRECTION('ref_axis',(1.,0.,0.));
#1270=DIRECTION('center_axis',(0.,0.,-1.));
#1271=DIRECTION('ref_axis',(1.,0.,0.));
#1272=DIRECTION('center_axis',(0.,0.,-1.));
#1273=DIRECTION('ref_axis',(1.,0.,0.));
#1274=DIRECTION('',(0.,0.,1.));
#1275=DIRECTION('center_axis',(0.,0.,1.));
#1276=DIRECTION('ref_axis',(1.,0.,0.));
#1277=DIRECTION('center_axis',(0.,0.,-1.));
#1278=DIRECTION('ref_axis',(1.,0.,0.));
#1279=DIRECTION('center_axis',(0.,0.,-1.));
#1280=DIRECTION('ref_axis',(1.,0.,0.));
#1281=DIRECTION('center_axis',(0.,0.,-1.));
#1282=DIRECTION('ref_axis',(1.,0.,0.));
#1283=DIRECTION('',(0.,0.,1.));
#1284=DIRECTION('center_axis',(0.,0.,1.));
#1285=DIRECTION('ref_axis',(1.,0.,0.));
#1286=DIRECTION('center_axis',(0.,0.,-1.));
#1287=DIRECTION('ref_axis',(1.,0.,0.));
#1288=DIRECTION('center_axis',(0.,0.,-1.));
#1289=DIRECTION('ref_axis',(1.,0.,0.));
#1290=DIRECTION('center_axis',(0.,0.,-1.));
#1291=DIRECTION('ref_axis',(1.,0.,0.));
#1292=DIRECTION('',(0.,0.,1.));
#1293=DIRECTION('center_axis',(0.,0.,1.));
#1294=DIRECTION('ref_axis',(1.,0.,0.));
#1295=DIRECTION('center_axis',(0.,0.,-1.));
#1296=DIRECTION('ref_axis',(1.,0.,0.));
#1297=DIRECTION('center_axis',(0.,0.,-1.));
#1298=DIRECTION('ref_axis',(1.,0.,0.));
#1299=DIRECTION('center_axis',(0.,0.,-1.));
#1300=DIRECTION('ref_axis',(1.,0.,0.));
#1301=DIRECTION('',(0.,0.,1.));
#1302=DIRECTION('center_axis',(0.,0.,1.));
#1303=DIRECTION('ref_axis',(1.,0.,0.));
#1304=DIRECTION('center_axis',(0.,0.,-1.));
#1305=DIRECTION('ref_axis',(1.,0.,0.));
#1306=DIRECTION('center_axis',(0.,0.,-1.));
#1307=DIRECTION('ref_axis',(1.,0.,0.));
#1308=DIRECTION('center_axis',(0.,0.,-1.));
#1309=DIRECTION('ref_axis',(1.,0.,0.));
#1310=DIRECTION('',(0.,0.,1.));
#1311=DIRECTION('center_axis',(0.,0.,1.));
#1312=DIRECTION('ref_axis',(1.,0.,0.));
#1313=DIRECTION('center_axis',(0.,0.,-1.));
#1314=DIRECTION('ref_axis',(1.,0.,0.));
#1315=DIRECTION('center_axis',(0.,-1.,0.));
#1316=DIRECTION('ref_axis',(-1.,0.,0.));
#1317=DIRECTION('center_axis',(0.,-1.,0.));
#1318=DIRECTION('ref_axis',(-1.,0.,0.));
#1319=DIRECTION('',(0.,-1.,0.));
#1320=DIRECTION('center_axis',(0.,-1.,0.));
#1321=DIRECTION('ref_axis',(-1.,0.,0.));
#1322=DIRECTION('center_axis',(0.,-1.,0.));
#1323=DIRECTION('ref_axis',(-1.,0.,0.));
#1324=DIRECTION('',(0.,-1.,0.));
#1325=DIRECTION('center_axis',(0.,1.,0.));
#1326=DIRECTION('ref_axis',(-1.,0.,0.));
#1327=DIRECTION('center_axis',(0.,-1.,0.));
#1328=DIRECTION('ref_axis',(1.,0.,0.));
#1329=DIRECTION('',(-1.,0.,0.));
#1330=DIRECTION('center_axis',(0.,1.,0.));
#1331=DIRECTION('ref_axis',(-1.,0.,0.));
#1332=DIRECTION('',(-1.,0.,0.));
#1333=DIRECTION('center_axis',(0.,0.,1.));
#1334=DIRECTION('ref_axis',(1.,0.,0.));
#1335=DIRECTION('',(-1.,0.,0.));
#1336=DIRECTION('center_axis',(0.,1.,0.));
#1337=DIRECTION('ref_axis',(-1.,0.,0.));
#1338=DIRECTION('center_axis',(0.,0.,1.));
#1339=DIRECTION('ref_axis',(1.,0.,0.));
#1340=DIRECTION('center_axis',(0.,0.,-1.));
#1341=DIRECTION('ref_axis',(1.,0.,0.));
#1342=DIRECTION('center_axis',(0.,0.,-1.));
#1343=DIRECTION('ref_axis',(1.,0.,0.));
#1344=DIRECTION('',(0.,0.,1.));
#1345=DIRECTION('center_axis',(0.,0.,-1.));
#1346=DIRECTION('ref_axis',(1.,0.,0.));
#1347=DIRECTION('center_axis',(0.,0.,-1.));
#1348=DIRECTION('ref_axis',(1.,0.,0.));
#1349=DIRECTION('center_axis',(0.,0.,-1.));
#1350=DIRECTION('ref_axis',(1.,0.,0.));
#1351=DIRECTION('center_axis',(0.,0.,-1.));
#1352=DIRECTION('ref_axis',(1.,0.,0.));
#1353=DIRECTION('center_axis',(0.,0.,-1.));
#1354=DIRECTION('ref_axis',(1.,0.,0.));
#1355=DIRECTION('',(0.,0.,1.));
#1356=DIRECTION('center_axis',(0.,0.,-1.));
#1357=DIRECTION('ref_axis',(1.,0.,0.));
#1358=DIRECTION('center_axis',(0.,0.,-1.));
#1359=DIRECTION('ref_axis',(1.,0.,0.));
#1360=DIRECTION('center_axis',(0.,0.,-1.));
#1361=DIRECTION('ref_axis',(1.,0.,0.));
#1362=DIRECTION('center_axis',(0.,0.,-1.));
#1363=DIRECTION('ref_axis',(1.,0.,0.));
#1364=DIRECTION('center_axis',(0.,0.,-1.));
#1365=DIRECTION('ref_axis',(1.,0.,0.));
#1366=DIRECTION('',(0.,0.,1.));
#1367=DIRECTION('center_axis',(0.,0.,-1.));
#1368=DIRECTION('ref_axis',(1.,0.,0.));
#1369=DIRECTION('center_axis',(0.,0.,-1.));
#1370=DIRECTION('ref_axis',(1.,0.,0.));
#1371=DIRECTION('center_axis',(0.,0.,-1.));
#1372=DIRECTION('ref_axis',(1.,0.,0.));
#1373=DIRECTION('center_axis',(0.,0.,-1.));
#1374=DIRECTION('ref_axis',(1.,0.,0.));
#1375=DIRECTION('center_axis',(0.,0.,-1.));
#1376=DIRECTION('ref_axis',(1.,0.,0.));
#1377=DIRECTION('',(0.,0.,1.));
#1378=DIRECTION('center_axis',(0.,0.,-1.));
#1379=DIRECTION('ref_axis',(1.,0.,0.));
#1380=DIRECTION('center_axis',(0.,0.,-1.));
#1381=DIRECTION('ref_axis',(1.,0.,0.));
#1382=DIRECTION('center_axis',(0.,0.,-1.));
#1383=DIRECTION('ref_axis',(1.,0.,0.));
#1384=CARTESIAN_POINT('',(0.,0.,0.));
#1385=CARTESIAN_POINT('Origin',(32.3596618305203,-17.,23.8586582966522));
#1386=CARTESIAN_POINT('',(30.8596618305203,-17.,23.8586582966522));
#1387=CARTESIAN_POINT('Origin',(32.3596618305203,-17.,23.8586582966522));
#1388=CARTESIAN_POINT('',(30.8596618305203,-12.,23.8586582966522));
#1389=CARTESIAN_POINT('',(30.8596618305203,-17.,23.8586582966522));
#1390=CARTESIAN_POINT('Origin',(32.3596618305203,-12.,23.8586582966522));
#1391=CARTESIAN_POINT('Origin',(41.3596618305203,-17.,16.3586582966522));
#1392=CARTESIAN_POINT('',(39.8596618305203,-17.,16.3586582966522));
#1393=CARTESIAN_POINT('Origin',(41.3596618305203,-17.,16.3586582966522));
#1394=CARTESIAN_POINT('',(39.8596618305203,-12.,16.3586582966522));
#1395=CARTESIAN_POINT('',(39.8596618305203,-17.,16.3586582966522));
#1396=CARTESIAN_POINT('Origin',(41.3596618305203,-12.,16.3586582966522));
#1397=CARTESIAN_POINT('Origin',(41.3596618305203,-17.,31.3586582966522));
#1398=CARTESIAN_POINT('',(39.8596618305203,-17.,31.3586582966522));
#1399=CARTESIAN_POINT('Origin',(41.3596618305203,-17.,31.3586582966522));
#1400=CARTESIAN_POINT('',(39.8596618305203,-12.,31.3586582966522));
#1401=CARTESIAN_POINT('',(39.8596618305203,-17.,31.3586582966522));
#1402=CARTESIAN_POINT('Origin',(41.3596618305203,-12.,31.3586582966522));
#1403=CARTESIAN_POINT('Origin',(50.3596618305203,-17.,23.8586582966522));
#1404=CARTESIAN_POINT('',(48.9139793299462,-17.,23.8586582966522));
#1405=CARTESIAN_POINT('Origin',(50.3596618305203,-17.,23.8586582966522));
#1406=CARTESIAN_POINT('',(48.9139793299462,-12.,23.8586582966522));
#1407=CARTESIAN_POINT('',(48.9139793299462,-17.,23.8586582966522));
#1408=CARTESIAN_POINT('Origin',(50.3596618305203,-12.,23.8586582966522));
#1409=CARTESIAN_POINT('Origin',(2.5,-8.5,33.));
#1410=CARTESIAN_POINT('',(0.,-9.78688524590164,33.));
#1411=CARTESIAN_POINT('',(5.,-9.78688524590164,33.));
#1412=CARTESIAN_POINT('',(1.25,-9.78688524590164,33.));
#1413=CARTESIAN_POINT('',(0.,-12.,33.));
#1414=CARTESIAN_POINT('',(0.,0.75,33.));
#1415=CARTESIAN_POINT('',(5.,-12.,33.));
#1416=CARTESIAN_POINT('',(0.,-12.,33.));
#1417=CARTESIAN_POINT('',(5.,-3.5,33.));
#1418=CARTESIAN_POINT('Origin',(62.5000004842877,-8.5000000372529,33.));
#1419=CARTESIAN_POINT('',(60.,-9.78688524590164,33.));
#1420=CARTESIAN_POINT('',(65.0000009685755,-9.78688524590164,33.));
#1421=CARTESIAN_POINT('',(63.7500002421439,-9.78688524590164,33.));
#1422=CARTESIAN_POINT('',(60.,-12.,33.));
#1423=CARTESIAN_POINT('',(60.,-3.50000001862645,33.));
#1424=CARTESIAN_POINT('',(65.0000009685755,-12.,33.));
#1425=CARTESIAN_POINT('',(60.,-12.,33.));
#1426=CARTESIAN_POINT('',(65.,-4.25000001862645,33.));
#1427=CARTESIAN_POINT('Origin',(0.,-12.,35.5));
#1428=CARTESIAN_POINT('',(5.,10.5737704918033,10.));
#1429=CARTESIAN_POINT('',(5.,-12.,35.5));
#1430=CARTESIAN_POINT('',(10.,15.,5.));
#1431=CARTESIAN_POINT('Origin',(10.,10.5737704918033,10.));
#1432=CARTESIAN_POINT('',(0.,15.,5.));
#1433=CARTESIAN_POINT('',(65.,15.,5.));
#1434=CARTESIAN_POINT('',(0.,-12.,35.5));
#1435=CARTESIAN_POINT('Origin',(5.,1.5,20.25));
#1436=CARTESIAN_POINT('',(5.,-12.,10.));
#1437=CARTESIAN_POINT('',(5.,-12.,12.625));
#1438=CARTESIAN_POINT('',(5.,7.,10.));
#1439=CARTESIAN_POINT('Origin',(65.,0.,0.));
#1440=CARTESIAN_POINT('',(65.,-12.,35.5));
#1441=CARTESIAN_POINT('',(65.,-12.,17.75));
#1442=CARTESIAN_POINT('',(65.,-17.,35.5));
#1443=CARTESIAN_POINT('',(65.,-15.75,35.5));
#1444=CARTESIAN_POINT('',(65.,-17.,0.));
#1445=CARTESIAN_POINT('',(65.,-17.,0.));
#1446=CARTESIAN_POINT('',(65.,34.,0.));
#1447=CARTESIAN_POINT('',(65.,10.,0.));
#1448=CARTESIAN_POINT('',(65.,34.,35.5));
#1449=CARTESIAN_POINT('',(65.,34.,0.));
#1450=CARTESIAN_POINT('',(65.,29.,35.5));
#1451=CARTESIAN_POINT('',(65.,29.,35.5));
#1452=CARTESIAN_POINT('',(65.,29.,5.));
#1453=CARTESIAN_POINT('',(65.,29.,0.));
#1454=CARTESIAN_POINT('',(65.,20.,5.));
#1455=CARTESIAN_POINT('',(65.,20.,5.));
#1456=CARTESIAN_POINT('',(65.,20.,35.5));
#1457=CARTESIAN_POINT('',(65.,20.,0.));
#1458=CARTESIAN_POINT('',(65.,15.,35.5));
#1459=CARTESIAN_POINT('',(65.,15.,35.5));
#1460=CARTESIAN_POINT('',(65.,15.,5.));
#1461=CARTESIAN_POINT('',(65.,15.,0.));
#1462=CARTESIAN_POINT('',(65.,-12.,35.5));
#1463=CARTESIAN_POINT('Origin',(55.,7.,10.));
#1464=CARTESIAN_POINT('',(60.,-12.,10.));
#1465=CARTESIAN_POINT('',(60.,10.5737704918033,10.));
#1466=CARTESIAN_POINT('',(60.,7.,10.));
#1467=CARTESIAN_POINT('',(55.,15.,5.));
#1468=CARTESIAN_POINT('Origin',(55.,10.5737704918033,10.));
#1469=CARTESIAN_POINT('',(55.,-7.,5.));
#1470=CARTESIAN_POINT('',(55.,7.,5.));
#1471=CARTESIAN_POINT('Origin',(55.,-7.,10.));
#1472=CARTESIAN_POINT('Origin',(48.75,-7.,10.));
#1473=CARTESIAN_POINT('',(10.,-7.,5.));
#1474=CARTESIAN_POINT('',(48.75,-7.,5.));
#1475=CARTESIAN_POINT('Origin',(10.,-7.,10.));
#1476=CARTESIAN_POINT('',(48.75,-12.,10.));
#1477=CARTESIAN_POINT('Origin',(10.,7.,10.));
#1478=CARTESIAN_POINT('',(10.,7.,5.));
#1479=CARTESIAN_POINT('Origin',(60.,1.5,20.25));
#1480=CARTESIAN_POINT('',(60.,-12.,35.5));
#1481=CARTESIAN_POINT('',(60.,-12.,12.625));
#1482=CARTESIAN_POINT('Origin',(65.,-12.,5.));
#1483=CARTESIAN_POINT('',(0.,-12.,35.5));
#1484=CARTESIAN_POINT('',(0.,-12.,17.75));
#1485=CARTESIAN_POINT('',(48.75,-12.,35.5));
#1486=CARTESIAN_POINT('Origin',(32.5,12.5,5.));
#1487=CARTESIAN_POINT('',(65.,15.,5.));
#1488=CARTESIAN_POINT('Origin',(65.,-12.,35.5));
#1489=CARTESIAN_POINT('',(65.,15.,5.));
#1490=CARTESIAN_POINT('Origin',(32.5,-14.5,35.5));
#1491=CARTESIAN_POINT('',(0.,-17.,35.5));
#1492=CARTESIAN_POINT('',(0.,-13.25,35.5));
#1493=CARTESIAN_POINT('',(16.25,-17.,35.5));
#1494=CARTESIAN_POINT('Origin',(32.5,31.5,35.5));
#1495=CARTESIAN_POINT('',(0.,34.,35.5));
#1496=CARTESIAN_POINT('',(65.,34.,35.5));
#1497=CARTESIAN_POINT('',(0.,29.,35.5));
#1498=CARTESIAN_POINT('',(0.,34.,35.5));
#1499=CARTESIAN_POINT('',(65.,29.,35.5));
#1500=CARTESIAN_POINT('Origin',(32.5,17.5,35.5000004917383));
#1501=CARTESIAN_POINT('',(39.1096618305203,15.,35.5000004917383));
#1502=CARTESIAN_POINT('',(39.1096618305203,20.,35.5000004917383));
#1503=CARTESIAN_POINT('',(39.1096618305203,16.25,35.5));
#1504=CARTESIAN_POINT('',(0.,20.,35.5));
#1505=CARTESIAN_POINT('',(65.,20.,35.5));
#1506=CARTESIAN_POINT('',(0.,15.,35.5));
#1507=CARTESIAN_POINT('',(0.,20.,35.5));
#1508=CARTESIAN_POINT('',(65.,15.,35.5));
#1509=CARTESIAN_POINT('Origin',(32.5,17.5,35.5));
#1510=CARTESIAN_POINT('',(43.6074259609626,20.,35.5));
#1511=CARTESIAN_POINT('',(43.6074259609626,15.,35.5));
#1512=CARTESIAN_POINT('',(43.6074259609626,16.25,35.5));
#1513=CARTESIAN_POINT('',(65.,15.,35.5));
#1514=CARTESIAN_POINT('',(65.,20.,35.5));
#1515=CARTESIAN_POINT('Origin',(39.1096618305203,15.,23.8586582966522));
#1516=CARTESIAN_POINT('',(39.1096618305203,15.,23.8586582966522));
#1517=CARTESIAN_POINT('',(39.1096618305203,15.,11.9293291483261));
#1518=CARTESIAN_POINT('',(39.1096618305203,20.,23.8586582966522));
#1519=CARTESIAN_POINT('',(39.1096618305203,15.,23.8586582966522));
#1520=CARTESIAN_POINT('',(39.1096618305203,20.,11.9293291483261));
#1521=CARTESIAN_POINT('Origin',(43.6074259609626,15.,33.));
#1522=CARTESIAN_POINT('',(43.6074259609626,15.,23.9589399694395));
#1523=CARTESIAN_POINT('',(43.6074259609626,15.,16.5));
#1524=CARTESIAN_POINT('',(43.6074259609626,20.,23.9589399694395));
#1525=CARTESIAN_POINT('',(43.6074259609626,20.,16.5));
#1526=CARTESIAN_POINT('',(43.6074259609626,15.,23.9589399694395));
#1527=CARTESIAN_POINT('Origin',(0.,15.,0.));
#1528=CARTESIAN_POINT('Origin',(41.3596618305203,15.,23.8586582966522));
#1529=CARTESIAN_POINT('',(0.,15.,0.));
#1530=CARTESIAN_POINT('',(29.027799854484,15.,19.));
#1531=CARTESIAN_POINT('Origin',(24.027799854484,15.,19.));
#1532=CARTESIAN_POINT('Origin',(65.,-17.,0.));
#1533=CARTESIAN_POINT('',(0.,-17.,0.));
#1534=CARTESIAN_POINT('',(0.,-17.,5.));
#1535=CARTESIAN_POINT('',(48.75,-17.,0.));
#1536=CARTESIAN_POINT('Origin',(41.3596618305203,15.,23.8586582966522));
#1537=CARTESIAN_POINT('Origin',(41.3596618305203,20.,23.8586582966522));
#1538=CARTESIAN_POINT('Origin',(1.61778115328528E-31,10.,0.));
#1539=CARTESIAN_POINT('',(0.,20.,5.));
#1540=CARTESIAN_POINT('',(0.,20.,0.));
#1541=CARTESIAN_POINT('',(0.,29.,5.));
#1542=CARTESIAN_POINT('',(0.,29.,5.));
#1543=CARTESIAN_POINT('',(0.,29.,0.));
#1544=CARTESIAN_POINT('',(0.,34.,0.));
#1545=CARTESIAN_POINT('',(0.,34.,0.));
#1546=CARTESIAN_POINT('',(0.,10.,0.));
#1547=CARTESIAN_POINT('Origin',(58.5,20.6360000596046,0.));
#1548=CARTESIAN_POINT('',(55.25,20.6360000596046,-2.));
#1549=CARTESIAN_POINT('Origin',(58.5,20.6360000596046,-2.));
#1550=CARTESIAN_POINT('',(55.25,20.6360000596046,0.));
#1551=CARTESIAN_POINT('',(55.25,20.6360000596046,0.));
#1552=CARTESIAN_POINT('Origin',(58.5,20.6360000596046,0.));
#1553=CARTESIAN_POINT('Origin',(58.5,20.6360000596046,-2.));
#1554=CARTESIAN_POINT('Origin',(23.5,20.6360000596046,0.));
#1555=CARTESIAN_POINT('',(20.25,20.6360000596046,-2.));
#1556=CARTESIAN_POINT('Origin',(23.5,20.6360000596046,-2.));
#1557=CARTESIAN_POINT('',(20.25,20.6360000596046,0.));
#1558=CARTESIAN_POINT('',(20.25,20.6360000596046,0.));
#1559=CARTESIAN_POINT('Origin',(23.5,20.6360000596046,0.));
#1560=CARTESIAN_POINT('Origin',(23.5,20.6360000596046,-2.));
#1561=CARTESIAN_POINT('Origin',(23.5,7.00000005960464,0.));
#1562=CARTESIAN_POINT('',(20.25,7.00000005960464,-2.));
#1563=CARTESIAN_POINT('Origin',(23.5,7.00000005960464,-2.));
#1564=CARTESIAN_POINT('',(20.25,7.00000005960464,0.));
#1565=CARTESIAN_POINT('',(20.25,7.00000005960464,0.));
#1566=CARTESIAN_POINT('Origin',(23.5,7.00000005960464,0.));
#1567=CARTESIAN_POINT('Origin',(23.5,7.00000005960464,-2.));
#1568=CARTESIAN_POINT('Origin',(41.,20.6360000596046,0.));
#1569=CARTESIAN_POINT('',(37.75,20.6360000596046,-2.));
#1570=CARTESIAN_POINT('Origin',(41.,20.6360000596046,-2.));
#1571=CARTESIAN_POINT('',(37.75,20.6360000596046,0.));
#1572=CARTESIAN_POINT('',(37.75,20.6360000596046,0.));
#1573=CARTESIAN_POINT('Origin',(41.,20.6360000596046,0.));
#1574=CARTESIAN_POINT('Origin',(41.,20.6360000596046,-2.));
#1575=CARTESIAN_POINT('Origin',(58.5,7.00000005960464,0.));
#1576=CARTESIAN_POINT('',(55.25,7.00000005960464,-2.));
#1577=CARTESIAN_POINT('Origin',(58.5,7.00000005960464,-2.));
#1578=CARTESIAN_POINT('',(55.25,7.00000005960464,0.));
#1579=CARTESIAN_POINT('',(55.25,7.00000005960464,0.));
#1580=CARTESIAN_POINT('Origin',(58.5,7.00000005960464,0.));
#1581=CARTESIAN_POINT('Origin',(58.5,7.00000005960464,-2.));
#1582=CARTESIAN_POINT('Origin',(6.,20.6360000596046,0.));
#1583=CARTESIAN_POINT('',(2.75,20.6360000596046,-2.));
#1584=CARTESIAN_POINT('Origin',(6.,20.6360000596046,-2.));
#1585=CARTESIAN_POINT('',(2.75,20.6360000596046,0.));
#1586=CARTESIAN_POINT('',(2.75,20.6360000596046,0.));
#1587=CARTESIAN_POINT('Origin',(6.,20.6360000596046,0.));
#1588=CARTESIAN_POINT('Origin',(6.,20.6360000596046,-2.));
#1589=CARTESIAN_POINT('Origin',(6.,7.00000005960464,0.));
#1590=CARTESIAN_POINT('',(2.75,7.00000005960464,-2.));
#1591=CARTESIAN_POINT('Origin',(6.,7.00000005960464,-2.));
#1592=CARTESIAN_POINT('',(2.75,7.00000005960464,0.));
#1593=CARTESIAN_POINT('',(2.75,7.00000005960464,0.));
#1594=CARTESIAN_POINT('Origin',(6.,7.00000005960464,0.));
#1595=CARTESIAN_POINT('Origin',(6.,7.00000005960464,-2.));
#1596=CARTESIAN_POINT('Origin',(41.,7.00000005960464,0.));
#1597=CARTESIAN_POINT('',(37.75,7.00000005960464,-2.));
#1598=CARTESIAN_POINT('Origin',(41.,7.00000005960464,-2.));
#1599=CARTESIAN_POINT('',(37.75,7.00000005960464,0.));
#1600=CARTESIAN_POINT('',(37.75,7.00000005960464,0.));
#1601=CARTESIAN_POINT('Origin',(41.,7.00000005960464,0.));
#1602=CARTESIAN_POINT('Origin',(41.,7.00000005960464,-2.));
#1603=CARTESIAN_POINT('Origin',(24.027799854484,34.,19.));
#1604=CARTESIAN_POINT('',(29.027799854484,20.,19.));
#1605=CARTESIAN_POINT('Origin',(24.027799854484,20.,19.));
#1606=CARTESIAN_POINT('',(29.027799854484,34.,19.));
#1607=CARTESIAN_POINT('Origin',(24.027799854484,34.,19.));
#1608=CARTESIAN_POINT('',(29.027799854484,34.,19.));
#1609=CARTESIAN_POINT('Origin',(24.027799854484,34.,19.));
#1610=CARTESIAN_POINT('',(29.027799854484,29.,19.));
#1611=CARTESIAN_POINT('',(29.027799854484,34.,19.));
#1612=CARTESIAN_POINT('Origin',(24.027799854484,29.,19.));
#1613=CARTESIAN_POINT('Origin',(0.,29.,0.));
#1614=CARTESIAN_POINT('',(65.,29.,5.));
#1615=CARTESIAN_POINT('Origin',(65.,34.,0.));
#1616=CARTESIAN_POINT('',(65.,34.,0.));
#1617=CARTESIAN_POINT('Origin',(32.5,24.5,5.));
#1618=CARTESIAN_POINT('',(48.75,20.,5.));
#1619=CARTESIAN_POINT('Origin',(65.,20.,0.));
#1620=CARTESIAN_POINT('Origin',(32.5,5.,0.));
#1621=CARTESIAN_POINT('Origin',(41.,-6.63599994039535,0.));
#1622=CARTESIAN_POINT('',(37.75,-6.63599994039535,-2.));
#1623=CARTESIAN_POINT('Origin',(41.,-6.63599994039535,-2.));
#1624=CARTESIAN_POINT('',(37.75,-6.63599994039535,0.));
#1625=CARTESIAN_POINT('',(37.75,-6.63599994039535,0.));
#1626=CARTESIAN_POINT('Origin',(41.,-6.63599994039535,0.));
#1627=CARTESIAN_POINT('Origin',(41.,-6.63599994039535,-2.));
#1628=CARTESIAN_POINT('Origin',(41.,-6.63599994039535,0.));
#1629=CARTESIAN_POINT('Origin',(23.5,-6.63599994039535,0.));
#1630=CARTESIAN_POINT('',(20.25,-6.63599994039535,-2.));
#1631=CARTESIAN_POINT('Origin',(23.5,-6.63599994039535,-2.));
#1632=CARTESIAN_POINT('',(20.25,-6.63599994039535,0.));
#1633=CARTESIAN_POINT('',(20.25,-6.63599994039535,0.));
#1634=CARTESIAN_POINT('Origin',(23.5,-6.63599994039535,0.));
#1635=CARTESIAN_POINT('Origin',(23.5,-6.63599994039535,-2.));
#1636=CARTESIAN_POINT('Origin',(23.5,-6.63599994039535,0.));
#1637=CARTESIAN_POINT('Origin',(58.5,-6.63599994039535,0.));
#1638=CARTESIAN_POINT('',(55.25,-6.63599994039535,-2.));
#1639=CARTESIAN_POINT('Origin',(58.5,-6.63599994039535,-2.));
#1640=CARTESIAN_POINT('',(55.25,-6.63599994039535,0.));
#1641=CARTESIAN_POINT('',(55.25,-6.63599994039535,0.));
#1642=CARTESIAN_POINT('Origin',(58.5,-6.63599994039535,0.));
#1643=CARTESIAN_POINT('Origin',(58.5,-6.63599994039535,-2.));
#1644=CARTESIAN_POINT('Origin',(58.5,-6.63599994039535,0.));
#1645=CARTESIAN_POINT('Origin',(6.,-6.63599994039535,0.));
#1646=CARTESIAN_POINT('',(2.75,-6.63599994039535,-2.));
#1647=CARTESIAN_POINT('Origin',(6.,-6.63599994039535,-2.));
#1648=CARTESIAN_POINT('',(2.75,-6.63599994039535,0.));
#1649=CARTESIAN_POINT('',(2.75,-6.63599994039535,0.));
#1650=CARTESIAN_POINT('Origin',(6.,-6.63599994039535,0.));
#1651=CARTESIAN_POINT('Origin',(6.,-6.63599994039535,-2.));
#1652=CARTESIAN_POINT('Origin',(6.,-6.63599994039535,0.));
#1653=UNCERTAINTY_MEASURE_WITH_UNIT(LENGTH_MEASURE(0.01),#1657,
'DISTANCE_ACCURACY_VALUE',
'Maximum model space distance between geometric entities at asserted c
onnectivities');
#1654=UNCERTAINTY_MEASURE_WITH_UNIT(LENGTH_MEASURE(0.01),#1657,
'DISTANCE_ACCURACY_VALUE',
'Maximum model space distance between geometric entities at asserted c
onnectivities');
#1655=(
GEOMETRIC_REPRESENTATION_CONTEXT(3)
GLOBAL_UNCERTAINTY_ASSIGNED_CONTEXT((#1653))
GLOBAL_UNIT_ASSIGNED_CONTEXT((#1657,#1659,#1660))
REPRESENTATION_CONTEXT('','3D')
);
#1656=(
GEOMETRIC_REPRESENTATION_CONTEXT(3)
GLOBAL_UNCERTAINTY_ASSIGNED_CONTEXT((#1654))
GLOBAL_UNIT_ASSIGNED_CONTEXT((#1657,#1659,#1660))
REPRESENTATION_CONTEXT('','3D')
);
#1657=(
LENGTH_UNIT()
NAMED_UNIT(*)
SI_UNIT(.MILLI.,.METRE.)
);
#1658=(
LENGTH_UNIT()
NAMED_UNIT(*)
SI_UNIT($,.METRE.)
);
#1659=(
NAMED_UNIT(*)
PLANE_ANGLE_UNIT()
SI_UNIT($,.RADIAN.)
);
#1660=(
NAMED_UNIT(*)
SI_UNIT($,.STERADIAN.)
SOLID_ANGLE_UNIT()
);
#1661=SHAPE_DEFINITION_REPRESENTATION(#1662,#1663);
#1662=PRODUCT_DEFINITION_SHAPE('',$,#1665);
#1663=SHAPE_REPRESENTATION('',(#989),#1655);
#1664=PRODUCT_DEFINITION_CONTEXT('part definition',#1669,'design');
#1665=PRODUCT_DEFINITION('gear box','gear box v3',#1666,#1664);
#1666=PRODUCT_DEFINITION_FORMATION('',$,#1671);
#1667=PRODUCT_RELATED_PRODUCT_CATEGORY('gear box v3','gear box v3',(#1671));
#1668=APPLICATION_PROTOCOL_DEFINITION('international standard',
'automotive_design',2009,#1669);
#1669=APPLICATION_CONTEXT(
'Core Data for Automotive Mechanical Design Process');
#1670=PRODUCT_CONTEXT('part definition',#1669,'mechanical');
#1671=PRODUCT('gear box','gear box v3',$,(#1670));
#1672=PRESENTATION_STYLE_ASSIGNMENT((#1673));
#1673=SURFACE_STYLE_USAGE(.BOTH.,#1674);
#1674=SURFACE_SIDE_STYLE('',(#1675));
#1675=SURFACE_STYLE_FILL_AREA(#1676);
#1676=FILL_AREA_STYLE('Steel - Satin',(#1677));
#1677=FILL_AREA_STYLE_COLOUR('Steel - Satin',#1678);
#1678=COLOUR_RGB('Steel - Satin',0.627450980392157,0.627450980392157,0.627450980392157);
ENDSEC;
END-ISO-10303-21;
