ISO-10303-21;
HEADER;
/* Generated by software containing ST-Developer
 * from STEP Tools, Inc. (www.steptools.com) 
 */

FILE_DESCRIPTION(
/* description */ (''),
/* implementation_level */ '2;1');

FILE_NAME(
/* name */ 'steering servo mount v1.step',
/* time_stamp */ '2025-05-27T01:43:25-07:00',
/* author */ (''),
/* organization */ (''),
/* preprocessor_version */ 'ST-DEVELOPER v20.1',
/* originating_system */ 'Autodesk Translation Framework v14.10.0.0',
/* authorisation */ '');

FILE_SCHEMA (('AUTOMOTIVE_DESIGN { 1 0 10303 214 3 1 1 }'));
ENDSEC;

DATA;
#10=MECHANICAL_DESIGN_GEOMETRIC_PRESENTATION_REPRESENTATION('',(#33,#34),
#1138);
#11=SHAPE_REPRESENTATION_RELATIONSHIP('SRR','None',#1144,#12);
#12=ADVANCED_BREP_SHAPE_REPRESENTATION('',(#35,#36),#1137);
#13=FACE_BOUND('',#95,.T.);
#14=FACE_BOUND('',#96,.T.);
#15=FACE_BOUND('',#99,.T.);
#16=FACE_BOUND('',#100,.T.);
#17=FACE_BOUND('',#107,.T.);
#18=FACE_BOUND('',#108,.T.);
#19=FACE_BOUND('',#111,.T.);
#20=FACE_BOUND('',#112,.T.);
#21=CIRCLE('',#731,2.20000000000001);
#22=CIRCLE('',#732,2.20000000000001);
#23=CIRCLE('',#734,2.2);
#24=CIRCLE('',#735,2.2);
#25=CIRCLE('',#737,2.20000000000001);
#26=CIRCLE('',#738,2.20000000000001);
#27=CIRCLE('',#740,2.2);
#28=CIRCLE('',#741,2.2);
#29=CYLINDRICAL_SURFACE('',#730,2.20000000000001);
#30=CYLINDRICAL_SURFACE('',#733,2.2);
#31=CYLINDRICAL_SURFACE('',#736,2.20000000000001);
#32=CYLINDRICAL_SURFACE('',#739,2.2);
#33=STYLED_ITEM('',(#1153),#35);
#34=STYLED_ITEM('',(#1153),#36);
#35=MANIFOLD_SOLID_BREP('Body1',#713);
#36=MANIFOLD_SOLID_BREP('Body2',#714);
#37=FACE_OUTER_BOUND('',#73,.T.);
#38=FACE_OUTER_BOUND('',#74,.T.);
#39=FACE_OUTER_BOUND('',#75,.T.);
#40=FACE_OUTER_BOUND('',#76,.T.);
#41=FACE_OUTER_BOUND('',#77,.T.);
#42=FACE_OUTER_BOUND('',#78,.T.);
#43=FACE_OUTER_BOUND('',#79,.T.);
#44=FACE_OUTER_BOUND('',#80,.T.);
#45=FACE_OUTER_BOUND('',#81,.T.);
#46=FACE_OUTER_BOUND('',#82,.T.);
#47=FACE_OUTER_BOUND('',#83,.T.);
#48=FACE_OUTER_BOUND('',#84,.T.);
#49=FACE_OUTER_BOUND('',#85,.T.);
#50=FACE_OUTER_BOUND('',#86,.T.);
#51=FACE_OUTER_BOUND('',#87,.T.);
#52=FACE_OUTER_BOUND('',#88,.T.);
#53=FACE_OUTER_BOUND('',#89,.T.);
#54=FACE_OUTER_BOUND('',#90,.T.);
#55=FACE_OUTER_BOUND('',#91,.T.);
#56=FACE_OUTER_BOUND('',#92,.T.);
#57=FACE_OUTER_BOUND('',#93,.T.);
#58=FACE_OUTER_BOUND('',#94,.T.);
#59=FACE_OUTER_BOUND('',#97,.T.);
#60=FACE_OUTER_BOUND('',#98,.T.);
#61=FACE_OUTER_BOUND('',#101,.T.);
#62=FACE_OUTER_BOUND('',#102,.T.);
#63=FACE_OUTER_BOUND('',#103,.T.);
#64=FACE_OUTER_BOUND('',#104,.T.);
#65=FACE_OUTER_BOUND('',#105,.T.);
#66=FACE_OUTER_BOUND('',#106,.T.);
#67=FACE_OUTER_BOUND('',#109,.T.);
#68=FACE_OUTER_BOUND('',#110,.T.);
#69=FACE_OUTER_BOUND('',#113,.T.);
#70=FACE_OUTER_BOUND('',#114,.T.);
#71=FACE_OUTER_BOUND('',#115,.T.);
#72=FACE_OUTER_BOUND('',#116,.T.);
#73=EDGE_LOOP('',(#453,#454,#455,#456));
#74=EDGE_LOOP('',(#457,#458,#459,#460));
#75=EDGE_LOOP('',(#461,#462,#463,#464));
#76=EDGE_LOOP('',(#465,#466,#467,#468));
#77=EDGE_LOOP('',(#469,#470,#471,#472));
#78=EDGE_LOOP('',(#473,#474,#475,#476));
#79=EDGE_LOOP('',(#477,#478,#479,#480));
#80=EDGE_LOOP('',(#481,#482,#483,#484));
#81=EDGE_LOOP('',(#485,#486,#487,#488));
#82=EDGE_LOOP('',(#489,#490,#491,#492));
#83=EDGE_LOOP('',(#493,#494,#495,#496));
#84=EDGE_LOOP('',(#497,#498,#499,#500));
#85=EDGE_LOOP('',(#501,#502,#503,#504,#505,#506,#507,#508,#509,#510,#511,
#512));
#86=EDGE_LOOP('',(#513,#514,#515,#516,#517,#518,#519,#520,#521,#522,#523,
#524));
#87=EDGE_LOOP('',(#525,#526,#527,#528));
#88=EDGE_LOOP('',(#529,#530,#531,#532));
#89=EDGE_LOOP('',(#533,#534,#535,#536));
#90=EDGE_LOOP('',(#537,#538,#539,#540));
#91=EDGE_LOOP('',(#541,#542,#543,#544));
#92=EDGE_LOOP('',(#545,#546,#547,#548));
#93=EDGE_LOOP('',(#549,#550,#551,#552));
#94=EDGE_LOOP('',(#553,#554,#555,#556));
#95=EDGE_LOOP('',(#557));
#96=EDGE_LOOP('',(#558));
#97=EDGE_LOOP('',(#559,#560,#561,#562));
#98=EDGE_LOOP('',(#563,#564,#565,#566));
#99=EDGE_LOOP('',(#567));
#100=EDGE_LOOP('',(#568));
#101=EDGE_LOOP('',(#569,#570,#571,#572));
#102=EDGE_LOOP('',(#573,#574,#575,#576));
#103=EDGE_LOOP('',(#577,#578,#579,#580));
#104=EDGE_LOOP('',(#581,#582,#583,#584));
#105=EDGE_LOOP('',(#585,#586,#587,#588));
#106=EDGE_LOOP('',(#589,#590,#591,#592));
#107=EDGE_LOOP('',(#593));
#108=EDGE_LOOP('',(#594));
#109=EDGE_LOOP('',(#595,#596,#597,#598));
#110=EDGE_LOOP('',(#599,#600,#601,#602));
#111=EDGE_LOOP('',(#603));
#112=EDGE_LOOP('',(#604));
#113=EDGE_LOOP('',(#605,#606,#607,#608));
#114=EDGE_LOOP('',(#609,#610,#611,#612));
#115=EDGE_LOOP('',(#613,#614,#615,#616,#617,#618,#619,#620,#621,#622,#623,
#624,#625,#626,#627,#628));
#116=EDGE_LOOP('',(#629,#630,#631,#632,#633,#634,#635,#636,#637,#638,#639,
#640,#641,#642,#643,#644));
#117=LINE('',#942,#205);
#118=LINE('',#944,#206);
#119=LINE('',#946,#207);
#120=LINE('',#947,#208);
#121=LINE('',#950,#209);
#122=LINE('',#952,#210);
#123=LINE('',#953,#211);
#124=LINE('',#956,#212);
#125=LINE('',#958,#213);
#126=LINE('',#959,#214);
#127=LINE('',#962,#215);
#128=LINE('',#964,#216);
#129=LINE('',#965,#217);
#130=LINE('',#968,#218);
#131=LINE('',#970,#219);
#132=LINE('',#971,#220);
#133=LINE('',#974,#221);
#134=LINE('',#976,#222);
#135=LINE('',#977,#223);
#136=LINE('',#980,#224);
#137=LINE('',#982,#225);
#138=LINE('',#983,#226);
#139=LINE('',#986,#227);
#140=LINE('',#988,#228);
#141=LINE('',#989,#229);
#142=LINE('',#992,#230);
#143=LINE('',#994,#231);
#144=LINE('',#995,#232);
#145=LINE('',#998,#233);
#146=LINE('',#1000,#234);
#147=LINE('',#1001,#235);
#148=LINE('',#1004,#236);
#149=LINE('',#1006,#237);
#150=LINE('',#1007,#238);
#151=LINE('',#1009,#239);
#152=LINE('',#1010,#240);
#153=LINE('',#1017,#241);
#154=LINE('',#1023,#242);
#155=LINE('',#1029,#243);
#156=LINE('',#1035,#244);
#157=LINE('',#1040,#245);
#158=LINE('',#1042,#246);
#159=LINE('',#1044,#247);
#160=LINE('',#1045,#248);
#161=LINE('',#1048,#249);
#162=LINE('',#1050,#250);
#163=LINE('',#1051,#251);
#164=LINE('',#1054,#252);
#165=LINE('',#1056,#253);
#166=LINE('',#1057,#254);
#167=LINE('',#1060,#255);
#168=LINE('',#1062,#256);
#169=LINE('',#1063,#257);
#170=LINE('',#1066,#258);
#171=LINE('',#1068,#259);
#172=LINE('',#1069,#260);
#173=LINE('',#1072,#261);
#174=LINE('',#1074,#262);
#175=LINE('',#1075,#263);
#176=LINE('',#1078,#264);
#177=LINE('',#1080,#265);
#178=LINE('',#1081,#266);
#179=LINE('',#1084,#267);
#180=LINE('',#1086,#268);
#181=LINE('',#1087,#269);
#182=LINE('',#1090,#270);
#183=LINE('',#1092,#271);
#184=LINE('',#1093,#272);
#185=LINE('',#1096,#273);
#186=LINE('',#1098,#274);
#187=LINE('',#1099,#275);
#188=LINE('',#1102,#276);
#189=LINE('',#1104,#277);
#190=LINE('',#1105,#278);
#191=LINE('',#1108,#279);
#192=LINE('',#1110,#280);
#193=LINE('',#1111,#281);
#194=LINE('',#1114,#282);
#195=LINE('',#1116,#283);
#196=LINE('',#1117,#284);
#197=LINE('',#1120,#285);
#198=LINE('',#1122,#286);
#199=LINE('',#1123,#287);
#200=LINE('',#1126,#288);
#201=LINE('',#1128,#289);
#202=LINE('',#1129,#290);
#203=LINE('',#1131,#291);
#204=LINE('',#1132,#292);
#205=VECTOR('',#764,10.);
#206=VECTOR('',#765,10.);
#207=VECTOR('',#766,10.);
#208=VECTOR('',#767,10.);
#209=VECTOR('',#770,10.);
#210=VECTOR('',#771,10.);
#211=VECTOR('',#772,10.);
#212=VECTOR('',#775,10.);
#213=VECTOR('',#776,10.);
#214=VECTOR('',#777,10.);
#215=VECTOR('',#780,10.);
#216=VECTOR('',#781,10.);
#217=VECTOR('',#782,10.);
#218=VECTOR('',#785,10.);
#219=VECTOR('',#786,10.);
#220=VECTOR('',#787,10.);
#221=VECTOR('',#790,10.);
#222=VECTOR('',#791,10.);
#223=VECTOR('',#792,10.);
#224=VECTOR('',#795,10.);
#225=VECTOR('',#796,10.);
#226=VECTOR('',#797,10.);
#227=VECTOR('',#800,10.);
#228=VECTOR('',#801,10.);
#229=VECTOR('',#802,10.);
#230=VECTOR('',#805,10.);
#231=VECTOR('',#806,10.);
#232=VECTOR('',#807,10.);
#233=VECTOR('',#810,10.);
#234=VECTOR('',#811,10.);
#235=VECTOR('',#812,10.);
#236=VECTOR('',#815,10.);
#237=VECTOR('',#816,10.);
#238=VECTOR('',#817,10.);
#239=VECTOR('',#820,10.);
#240=VECTOR('',#821,10.);
#241=VECTOR('',#830,2.20000000000001);
#242=VECTOR('',#837,2.2);
#243=VECTOR('',#844,2.20000000000001);
#244=VECTOR('',#851,2.2);
#245=VECTOR('',#856,10.);
#246=VECTOR('',#857,10.);
#247=VECTOR('',#858,10.);
#248=VECTOR('',#859,10.);
#249=VECTOR('',#862,10.);
#250=VECTOR('',#863,10.);
#251=VECTOR('',#864,10.);
#252=VECTOR('',#867,10.);
#253=VECTOR('',#868,10.);
#254=VECTOR('',#869,10.);
#255=VECTOR('',#872,10.);
#256=VECTOR('',#873,10.);
#257=VECTOR('',#874,10.);
#258=VECTOR('',#877,10.);
#259=VECTOR('',#878,10.);
#260=VECTOR('',#879,10.);
#261=VECTOR('',#882,10.);
#262=VECTOR('',#883,10.);
#263=VECTOR('',#884,10.);
#264=VECTOR('',#887,10.);
#265=VECTOR('',#888,10.);
#266=VECTOR('',#889,10.);
#267=VECTOR('',#892,10.);
#268=VECTOR('',#893,10.);
#269=VECTOR('',#894,10.);
#270=VECTOR('',#897,10.);
#271=VECTOR('',#898,10.);
#272=VECTOR('',#899,10.);
#273=VECTOR('',#902,10.);
#274=VECTOR('',#903,10.);
#275=VECTOR('',#904,10.);
#276=VECTOR('',#907,10.);
#277=VECTOR('',#908,10.);
#278=VECTOR('',#909,10.);
#279=VECTOR('',#912,10.);
#280=VECTOR('',#913,10.);
#281=VECTOR('',#914,10.);
#282=VECTOR('',#917,10.);
#283=VECTOR('',#918,10.);
#284=VECTOR('',#919,10.);
#285=VECTOR('',#922,10.);
#286=VECTOR('',#923,10.);
#287=VECTOR('',#924,10.);
#288=VECTOR('',#927,10.);
#289=VECTOR('',#928,10.);
#290=VECTOR('',#929,10.);
#291=VECTOR('',#932,10.);
#292=VECTOR('',#933,10.);
#293=VERTEX_POINT('',#940);
#294=VERTEX_POINT('',#941);
#295=VERTEX_POINT('',#943);
#296=VERTEX_POINT('',#945);
#297=VERTEX_POINT('',#949);
#298=VERTEX_POINT('',#951);
#299=VERTEX_POINT('',#955);
#300=VERTEX_POINT('',#957);
#301=VERTEX_POINT('',#961);
#302=VERTEX_POINT('',#963);
#303=VERTEX_POINT('',#967);
#304=VERTEX_POINT('',#969);
#305=VERTEX_POINT('',#973);
#306=VERTEX_POINT('',#975);
#307=VERTEX_POINT('',#979);
#308=VERTEX_POINT('',#981);
#309=VERTEX_POINT('',#985);
#310=VERTEX_POINT('',#987);
#311=VERTEX_POINT('',#991);
#312=VERTEX_POINT('',#993);
#313=VERTEX_POINT('',#997);
#314=VERTEX_POINT('',#999);
#315=VERTEX_POINT('',#1003);
#316=VERTEX_POINT('',#1005);
#317=VERTEX_POINT('',#1014);
#318=VERTEX_POINT('',#1016);
#319=VERTEX_POINT('',#1020);
#320=VERTEX_POINT('',#1022);
#321=VERTEX_POINT('',#1026);
#322=VERTEX_POINT('',#1028);
#323=VERTEX_POINT('',#1032);
#324=VERTEX_POINT('',#1034);
#325=VERTEX_POINT('',#1038);
#326=VERTEX_POINT('',#1039);
#327=VERTEX_POINT('',#1041);
#328=VERTEX_POINT('',#1043);
#329=VERTEX_POINT('',#1047);
#330=VERTEX_POINT('',#1049);
#331=VERTEX_POINT('',#1053);
#332=VERTEX_POINT('',#1055);
#333=VERTEX_POINT('',#1059);
#334=VERTEX_POINT('',#1061);
#335=VERTEX_POINT('',#1065);
#336=VERTEX_POINT('',#1067);
#337=VERTEX_POINT('',#1071);
#338=VERTEX_POINT('',#1073);
#339=VERTEX_POINT('',#1077);
#340=VERTEX_POINT('',#1079);
#341=VERTEX_POINT('',#1083);
#342=VERTEX_POINT('',#1085);
#343=VERTEX_POINT('',#1089);
#344=VERTEX_POINT('',#1091);
#345=VERTEX_POINT('',#1095);
#346=VERTEX_POINT('',#1097);
#347=VERTEX_POINT('',#1101);
#348=VERTEX_POINT('',#1103);
#349=VERTEX_POINT('',#1107);
#350=VERTEX_POINT('',#1109);
#351=VERTEX_POINT('',#1113);
#352=VERTEX_POINT('',#1115);
#353=VERTEX_POINT('',#1119);
#354=VERTEX_POINT('',#1121);
#355=VERTEX_POINT('',#1125);
#356=VERTEX_POINT('',#1127);
#357=EDGE_CURVE('',#293,#294,#117,.T.);
#358=EDGE_CURVE('',#293,#295,#118,.T.);
#359=EDGE_CURVE('',#296,#295,#119,.T.);
#360=EDGE_CURVE('',#294,#296,#120,.T.);
#361=EDGE_CURVE('',#294,#297,#121,.T.);
#362=EDGE_CURVE('',#298,#296,#122,.T.);
#363=EDGE_CURVE('',#297,#298,#123,.T.);
#364=EDGE_CURVE('',#297,#299,#124,.T.);
#365=EDGE_CURVE('',#300,#298,#125,.T.);
#366=EDGE_CURVE('',#299,#300,#126,.T.);
#367=EDGE_CURVE('',#299,#301,#127,.T.);
#368=EDGE_CURVE('',#302,#300,#128,.T.);
#369=EDGE_CURVE('',#301,#302,#129,.T.);
#370=EDGE_CURVE('',#301,#303,#130,.T.);
#371=EDGE_CURVE('',#304,#302,#131,.T.);
#372=EDGE_CURVE('',#303,#304,#132,.T.);
#373=EDGE_CURVE('',#303,#305,#133,.T.);
#374=EDGE_CURVE('',#306,#304,#134,.T.);
#375=EDGE_CURVE('',#305,#306,#135,.T.);
#376=EDGE_CURVE('',#307,#305,#136,.T.);
#377=EDGE_CURVE('',#308,#306,#137,.T.);
#378=EDGE_CURVE('',#307,#308,#138,.T.);
#379=EDGE_CURVE('',#309,#307,#139,.T.);
#380=EDGE_CURVE('',#310,#308,#140,.T.);
#381=EDGE_CURVE('',#309,#310,#141,.T.);
#382=EDGE_CURVE('',#309,#311,#142,.T.);
#383=EDGE_CURVE('',#312,#310,#143,.T.);
#384=EDGE_CURVE('',#311,#312,#144,.T.);
#385=EDGE_CURVE('',#313,#311,#145,.T.);
#386=EDGE_CURVE('',#314,#312,#146,.T.);
#387=EDGE_CURVE('',#313,#314,#147,.T.);
#388=EDGE_CURVE('',#315,#313,#148,.T.);
#389=EDGE_CURVE('',#316,#314,#149,.T.);
#390=EDGE_CURVE('',#315,#316,#150,.T.);
#391=EDGE_CURVE('',#293,#315,#151,.T.);
#392=EDGE_CURVE('',#295,#316,#152,.T.);
#393=EDGE_CURVE('',#317,#317,#21,.T.);
#394=EDGE_CURVE('',#317,#318,#153,.T.);
#395=EDGE_CURVE('',#318,#318,#22,.T.);
#396=EDGE_CURVE('',#319,#319,#23,.T.);
#397=EDGE_CURVE('',#319,#320,#154,.T.);
#398=EDGE_CURVE('',#320,#320,#24,.T.);
#399=EDGE_CURVE('',#321,#321,#25,.T.);
#400=EDGE_CURVE('',#321,#322,#155,.T.);
#401=EDGE_CURVE('',#322,#322,#26,.T.);
#402=EDGE_CURVE('',#323,#323,#27,.T.);
#403=EDGE_CURVE('',#323,#324,#156,.T.);
#404=EDGE_CURVE('',#324,#324,#28,.T.);
#405=EDGE_CURVE('',#325,#326,#157,.T.);
#406=EDGE_CURVE('',#326,#327,#158,.T.);
#407=EDGE_CURVE('',#328,#327,#159,.T.);
#408=EDGE_CURVE('',#325,#328,#160,.T.);
#409=EDGE_CURVE('',#329,#325,#161,.T.);
#410=EDGE_CURVE('',#330,#328,#162,.T.);
#411=EDGE_CURVE('',#329,#330,#163,.T.);
#412=EDGE_CURVE('',#329,#331,#164,.T.);
#413=EDGE_CURVE('',#332,#330,#165,.T.);
#414=EDGE_CURVE('',#331,#332,#166,.T.);
#415=EDGE_CURVE('',#333,#331,#167,.T.);
#416=EDGE_CURVE('',#334,#332,#168,.T.);
#417=EDGE_CURVE('',#333,#334,#169,.T.);
#418=EDGE_CURVE('',#335,#333,#170,.T.);
#419=EDGE_CURVE('',#336,#334,#171,.T.);
#420=EDGE_CURVE('',#335,#336,#172,.T.);
#421=EDGE_CURVE('',#337,#335,#173,.T.);
#422=EDGE_CURVE('',#338,#336,#174,.T.);
#423=EDGE_CURVE('',#337,#338,#175,.T.);
#424=EDGE_CURVE('',#339,#337,#176,.T.);
#425=EDGE_CURVE('',#340,#338,#177,.T.);
#426=EDGE_CURVE('',#339,#340,#178,.T.);
#427=EDGE_CURVE('',#341,#339,#179,.T.);
#428=EDGE_CURVE('',#342,#340,#180,.T.);
#429=EDGE_CURVE('',#341,#342,#181,.T.);
#430=EDGE_CURVE('',#343,#341,#182,.T.);
#431=EDGE_CURVE('',#344,#342,#183,.T.);
#432=EDGE_CURVE('',#343,#344,#184,.T.);
#433=EDGE_CURVE('',#343,#345,#185,.T.);
#434=EDGE_CURVE('',#346,#344,#186,.T.);
#435=EDGE_CURVE('',#345,#346,#187,.T.);
#436=EDGE_CURVE('',#345,#347,#188,.T.);
#437=EDGE_CURVE('',#348,#346,#189,.T.);
#438=EDGE_CURVE('',#347,#348,#190,.T.);
#439=EDGE_CURVE('',#347,#349,#191,.T.);
#440=EDGE_CURVE('',#350,#348,#192,.T.);
#441=EDGE_CURVE('',#349,#350,#193,.T.);
#442=EDGE_CURVE('',#349,#351,#194,.T.);
#443=EDGE_CURVE('',#352,#350,#195,.T.);
#444=EDGE_CURVE('',#351,#352,#196,.T.);
#445=EDGE_CURVE('',#351,#353,#197,.T.);
#446=EDGE_CURVE('',#354,#352,#198,.T.);
#447=EDGE_CURVE('',#353,#354,#199,.T.);
#448=EDGE_CURVE('',#355,#353,#200,.T.);
#449=EDGE_CURVE('',#356,#354,#201,.T.);
#450=EDGE_CURVE('',#355,#356,#202,.T.);
#451=EDGE_CURVE('',#355,#326,#203,.T.);
#452=EDGE_CURVE('',#327,#356,#204,.T.);
#453=ORIENTED_EDGE('',*,*,#357,.F.);
#454=ORIENTED_EDGE('',*,*,#358,.T.);
#455=ORIENTED_EDGE('',*,*,#359,.F.);
#456=ORIENTED_EDGE('',*,*,#360,.F.);
#457=ORIENTED_EDGE('',*,*,#361,.F.);
#458=ORIENTED_EDGE('',*,*,#360,.T.);
#459=ORIENTED_EDGE('',*,*,#362,.F.);
#460=ORIENTED_EDGE('',*,*,#363,.F.);
#461=ORIENTED_EDGE('',*,*,#364,.F.);
#462=ORIENTED_EDGE('',*,*,#363,.T.);
#463=ORIENTED_EDGE('',*,*,#365,.F.);
#464=ORIENTED_EDGE('',*,*,#366,.F.);
#465=ORIENTED_EDGE('',*,*,#367,.F.);
#466=ORIENTED_EDGE('',*,*,#366,.T.);
#467=ORIENTED_EDGE('',*,*,#368,.F.);
#468=ORIENTED_EDGE('',*,*,#369,.F.);
#469=ORIENTED_EDGE('',*,*,#370,.F.);
#470=ORIENTED_EDGE('',*,*,#369,.T.);
#471=ORIENTED_EDGE('',*,*,#371,.F.);
#472=ORIENTED_EDGE('',*,*,#372,.F.);
#473=ORIENTED_EDGE('',*,*,#373,.F.);
#474=ORIENTED_EDGE('',*,*,#372,.T.);
#475=ORIENTED_EDGE('',*,*,#374,.F.);
#476=ORIENTED_EDGE('',*,*,#375,.F.);
#477=ORIENTED_EDGE('',*,*,#376,.T.);
#478=ORIENTED_EDGE('',*,*,#375,.T.);
#479=ORIENTED_EDGE('',*,*,#377,.F.);
#480=ORIENTED_EDGE('',*,*,#378,.F.);
#481=ORIENTED_EDGE('',*,*,#379,.T.);
#482=ORIENTED_EDGE('',*,*,#378,.T.);
#483=ORIENTED_EDGE('',*,*,#380,.F.);
#484=ORIENTED_EDGE('',*,*,#381,.F.);
#485=ORIENTED_EDGE('',*,*,#382,.F.);
#486=ORIENTED_EDGE('',*,*,#381,.T.);
#487=ORIENTED_EDGE('',*,*,#383,.F.);
#488=ORIENTED_EDGE('',*,*,#384,.F.);
#489=ORIENTED_EDGE('',*,*,#385,.T.);
#490=ORIENTED_EDGE('',*,*,#384,.T.);
#491=ORIENTED_EDGE('',*,*,#386,.F.);
#492=ORIENTED_EDGE('',*,*,#387,.F.);
#493=ORIENTED_EDGE('',*,*,#388,.T.);
#494=ORIENTED_EDGE('',*,*,#387,.T.);
#495=ORIENTED_EDGE('',*,*,#389,.F.);
#496=ORIENTED_EDGE('',*,*,#390,.F.);
#497=ORIENTED_EDGE('',*,*,#391,.T.);
#498=ORIENTED_EDGE('',*,*,#390,.T.);
#499=ORIENTED_EDGE('',*,*,#392,.F.);
#500=ORIENTED_EDGE('',*,*,#358,.F.);
#501=ORIENTED_EDGE('',*,*,#392,.T.);
#502=ORIENTED_EDGE('',*,*,#389,.T.);
#503=ORIENTED_EDGE('',*,*,#386,.T.);
#504=ORIENTED_EDGE('',*,*,#383,.T.);
#505=ORIENTED_EDGE('',*,*,#380,.T.);
#506=ORIENTED_EDGE('',*,*,#377,.T.);
#507=ORIENTED_EDGE('',*,*,#374,.T.);
#508=ORIENTED_EDGE('',*,*,#371,.T.);
#509=ORIENTED_EDGE('',*,*,#368,.T.);
#510=ORIENTED_EDGE('',*,*,#365,.T.);
#511=ORIENTED_EDGE('',*,*,#362,.T.);
#512=ORIENTED_EDGE('',*,*,#359,.T.);
#513=ORIENTED_EDGE('',*,*,#391,.F.);
#514=ORIENTED_EDGE('',*,*,#357,.T.);
#515=ORIENTED_EDGE('',*,*,#361,.T.);
#516=ORIENTED_EDGE('',*,*,#364,.T.);
#517=ORIENTED_EDGE('',*,*,#367,.T.);
#518=ORIENTED_EDGE('',*,*,#370,.T.);
#519=ORIENTED_EDGE('',*,*,#373,.T.);
#520=ORIENTED_EDGE('',*,*,#376,.F.);
#521=ORIENTED_EDGE('',*,*,#379,.F.);
#522=ORIENTED_EDGE('',*,*,#382,.T.);
#523=ORIENTED_EDGE('',*,*,#385,.F.);
#524=ORIENTED_EDGE('',*,*,#388,.F.);
#525=ORIENTED_EDGE('',*,*,#393,.F.);
#526=ORIENTED_EDGE('',*,*,#394,.T.);
#527=ORIENTED_EDGE('',*,*,#395,.F.);
#528=ORIENTED_EDGE('',*,*,#394,.F.);
#529=ORIENTED_EDGE('',*,*,#396,.F.);
#530=ORIENTED_EDGE('',*,*,#397,.T.);
#531=ORIENTED_EDGE('',*,*,#398,.F.);
#532=ORIENTED_EDGE('',*,*,#397,.F.);
#533=ORIENTED_EDGE('',*,*,#399,.F.);
#534=ORIENTED_EDGE('',*,*,#400,.T.);
#535=ORIENTED_EDGE('',*,*,#401,.F.);
#536=ORIENTED_EDGE('',*,*,#400,.F.);
#537=ORIENTED_EDGE('',*,*,#402,.F.);
#538=ORIENTED_EDGE('',*,*,#403,.T.);
#539=ORIENTED_EDGE('',*,*,#404,.F.);
#540=ORIENTED_EDGE('',*,*,#403,.F.);
#541=ORIENTED_EDGE('',*,*,#405,.T.);
#542=ORIENTED_EDGE('',*,*,#406,.T.);
#543=ORIENTED_EDGE('',*,*,#407,.F.);
#544=ORIENTED_EDGE('',*,*,#408,.F.);
#545=ORIENTED_EDGE('',*,*,#409,.T.);
#546=ORIENTED_EDGE('',*,*,#408,.T.);
#547=ORIENTED_EDGE('',*,*,#410,.F.);
#548=ORIENTED_EDGE('',*,*,#411,.F.);
#549=ORIENTED_EDGE('',*,*,#412,.F.);
#550=ORIENTED_EDGE('',*,*,#411,.T.);
#551=ORIENTED_EDGE('',*,*,#413,.F.);
#552=ORIENTED_EDGE('',*,*,#414,.F.);
#553=ORIENTED_EDGE('',*,*,#415,.T.);
#554=ORIENTED_EDGE('',*,*,#414,.T.);
#555=ORIENTED_EDGE('',*,*,#416,.F.);
#556=ORIENTED_EDGE('',*,*,#417,.F.);
#557=ORIENTED_EDGE('',*,*,#393,.T.);
#558=ORIENTED_EDGE('',*,*,#399,.T.);
#559=ORIENTED_EDGE('',*,*,#418,.T.);
#560=ORIENTED_EDGE('',*,*,#417,.T.);
#561=ORIENTED_EDGE('',*,*,#419,.F.);
#562=ORIENTED_EDGE('',*,*,#420,.F.);
#563=ORIENTED_EDGE('',*,*,#421,.T.);
#564=ORIENTED_EDGE('',*,*,#420,.T.);
#565=ORIENTED_EDGE('',*,*,#422,.F.);
#566=ORIENTED_EDGE('',*,*,#423,.F.);
#567=ORIENTED_EDGE('',*,*,#395,.T.);
#568=ORIENTED_EDGE('',*,*,#401,.T.);
#569=ORIENTED_EDGE('',*,*,#424,.T.);
#570=ORIENTED_EDGE('',*,*,#423,.T.);
#571=ORIENTED_EDGE('',*,*,#425,.F.);
#572=ORIENTED_EDGE('',*,*,#426,.F.);
#573=ORIENTED_EDGE('',*,*,#427,.T.);
#574=ORIENTED_EDGE('',*,*,#426,.T.);
#575=ORIENTED_EDGE('',*,*,#428,.F.);
#576=ORIENTED_EDGE('',*,*,#429,.F.);
#577=ORIENTED_EDGE('',*,*,#430,.T.);
#578=ORIENTED_EDGE('',*,*,#429,.T.);
#579=ORIENTED_EDGE('',*,*,#431,.F.);
#580=ORIENTED_EDGE('',*,*,#432,.F.);
#581=ORIENTED_EDGE('',*,*,#433,.F.);
#582=ORIENTED_EDGE('',*,*,#432,.T.);
#583=ORIENTED_EDGE('',*,*,#434,.F.);
#584=ORIENTED_EDGE('',*,*,#435,.F.);
#585=ORIENTED_EDGE('',*,*,#436,.F.);
#586=ORIENTED_EDGE('',*,*,#435,.T.);
#587=ORIENTED_EDGE('',*,*,#437,.F.);
#588=ORIENTED_EDGE('',*,*,#438,.F.);
#589=ORIENTED_EDGE('',*,*,#439,.F.);
#590=ORIENTED_EDGE('',*,*,#438,.T.);
#591=ORIENTED_EDGE('',*,*,#440,.F.);
#592=ORIENTED_EDGE('',*,*,#441,.F.);
#593=ORIENTED_EDGE('',*,*,#398,.T.);
#594=ORIENTED_EDGE('',*,*,#404,.T.);
#595=ORIENTED_EDGE('',*,*,#442,.F.);
#596=ORIENTED_EDGE('',*,*,#441,.T.);
#597=ORIENTED_EDGE('',*,*,#443,.F.);
#598=ORIENTED_EDGE('',*,*,#444,.F.);
#599=ORIENTED_EDGE('',*,*,#445,.F.);
#600=ORIENTED_EDGE('',*,*,#444,.T.);
#601=ORIENTED_EDGE('',*,*,#446,.F.);
#602=ORIENTED_EDGE('',*,*,#447,.F.);
#603=ORIENTED_EDGE('',*,*,#396,.T.);
#604=ORIENTED_EDGE('',*,*,#402,.T.);
#605=ORIENTED_EDGE('',*,*,#448,.T.);
#606=ORIENTED_EDGE('',*,*,#447,.T.);
#607=ORIENTED_EDGE('',*,*,#449,.F.);
#608=ORIENTED_EDGE('',*,*,#450,.F.);
#609=ORIENTED_EDGE('',*,*,#451,.F.);
#610=ORIENTED_EDGE('',*,*,#450,.T.);
#611=ORIENTED_EDGE('',*,*,#452,.F.);
#612=ORIENTED_EDGE('',*,*,#406,.F.);
#613=ORIENTED_EDGE('',*,*,#451,.T.);
#614=ORIENTED_EDGE('',*,*,#405,.F.);
#615=ORIENTED_EDGE('',*,*,#409,.F.);
#616=ORIENTED_EDGE('',*,*,#412,.T.);
#617=ORIENTED_EDGE('',*,*,#415,.F.);
#618=ORIENTED_EDGE('',*,*,#418,.F.);
#619=ORIENTED_EDGE('',*,*,#421,.F.);
#620=ORIENTED_EDGE('',*,*,#424,.F.);
#621=ORIENTED_EDGE('',*,*,#427,.F.);
#622=ORIENTED_EDGE('',*,*,#430,.F.);
#623=ORIENTED_EDGE('',*,*,#433,.T.);
#624=ORIENTED_EDGE('',*,*,#436,.T.);
#625=ORIENTED_EDGE('',*,*,#439,.T.);
#626=ORIENTED_EDGE('',*,*,#442,.T.);
#627=ORIENTED_EDGE('',*,*,#445,.T.);
#628=ORIENTED_EDGE('',*,*,#448,.F.);
#629=ORIENTED_EDGE('',*,*,#452,.T.);
#630=ORIENTED_EDGE('',*,*,#449,.T.);
#631=ORIENTED_EDGE('',*,*,#446,.T.);
#632=ORIENTED_EDGE('',*,*,#443,.T.);
#633=ORIENTED_EDGE('',*,*,#440,.T.);
#634=ORIENTED_EDGE('',*,*,#437,.T.);
#635=ORIENTED_EDGE('',*,*,#434,.T.);
#636=ORIENTED_EDGE('',*,*,#431,.T.);
#637=ORIENTED_EDGE('',*,*,#428,.T.);
#638=ORIENTED_EDGE('',*,*,#425,.T.);
#639=ORIENTED_EDGE('',*,*,#422,.T.);
#640=ORIENTED_EDGE('',*,*,#419,.T.);
#641=ORIENTED_EDGE('',*,*,#416,.T.);
#642=ORIENTED_EDGE('',*,*,#413,.T.);
#643=ORIENTED_EDGE('',*,*,#410,.T.);
#644=ORIENTED_EDGE('',*,*,#407,.T.);
#645=PLANE('',#716);
#646=PLANE('',#717);
#647=PLANE('',#718);
#648=PLANE('',#719);
#649=PLANE('',#720);
#650=PLANE('',#721);
#651=PLANE('',#722);
#652=PLANE('',#723);
#653=PLANE('',#724);
#654=PLANE('',#725);
#655=PLANE('',#726);
#656=PLANE('',#727);
#657=PLANE('',#728);
#658=PLANE('',#729);
#659=PLANE('',#742);
#660=PLANE('',#743);
#661=PLANE('',#744);
#662=PLANE('',#745);
#663=PLANE('',#746);
#664=PLANE('',#747);
#665=PLANE('',#748);
#666=PLANE('',#749);
#667=PLANE('',#750);
#668=PLANE('',#751);
#669=PLANE('',#752);
#670=PLANE('',#753);
#671=PLANE('',#754);
#672=PLANE('',#755);
#673=PLANE('',#756);
#674=PLANE('',#757);
#675=PLANE('',#758);
#676=PLANE('',#759);
#677=ADVANCED_FACE('',(#37),#645,.T.);
#678=ADVANCED_FACE('',(#38),#646,.T.);
#679=ADVANCED_FACE('',(#39),#647,.T.);
#680=ADVANCED_FACE('',(#40),#648,.T.);
#681=ADVANCED_FACE('',(#41),#649,.T.);
#682=ADVANCED_FACE('',(#42),#650,.T.);
#683=ADVANCED_FACE('',(#43),#651,.T.);
#684=ADVANCED_FACE('',(#44),#652,.T.);
#685=ADVANCED_FACE('',(#45),#653,.T.);
#686=ADVANCED_FACE('',(#46),#654,.T.);
#687=ADVANCED_FACE('',(#47),#655,.T.);
#688=ADVANCED_FACE('',(#48),#656,.T.);
#689=ADVANCED_FACE('',(#49),#657,.T.);
#690=ADVANCED_FACE('',(#50),#658,.F.);
#691=ADVANCED_FACE('',(#51),#29,.F.);
#692=ADVANCED_FACE('',(#52),#30,.F.);
#693=ADVANCED_FACE('',(#53),#31,.F.);
#694=ADVANCED_FACE('',(#54),#32,.F.);
#695=ADVANCED_FACE('',(#55),#659,.T.);
#696=ADVANCED_FACE('',(#56),#660,.T.);
#697=ADVANCED_FACE('',(#57),#661,.T.);
#698=ADVANCED_FACE('',(#58,#13,#14),#662,.T.);
#699=ADVANCED_FACE('',(#59),#663,.T.);
#700=ADVANCED_FACE('',(#60,#15,#16),#664,.T.);
#701=ADVANCED_FACE('',(#61),#665,.T.);
#702=ADVANCED_FACE('',(#62),#666,.T.);
#703=ADVANCED_FACE('',(#63),#667,.T.);
#704=ADVANCED_FACE('',(#64),#668,.T.);
#705=ADVANCED_FACE('',(#65),#669,.T.);
#706=ADVANCED_FACE('',(#66,#17,#18),#670,.T.);
#707=ADVANCED_FACE('',(#67),#671,.T.);
#708=ADVANCED_FACE('',(#68,#19,#20),#672,.T.);
#709=ADVANCED_FACE('',(#69),#673,.T.);
#710=ADVANCED_FACE('',(#70),#674,.T.);
#711=ADVANCED_FACE('',(#71),#675,.T.);
#712=ADVANCED_FACE('',(#72),#676,.T.);
#713=CLOSED_SHELL('',(#677,#678,#679,#680,#681,#682,#683,#684,#685,#686,
#687,#688,#689,#690));
#714=CLOSED_SHELL('',(#691,#692,#693,#694,#695,#696,#697,#698,#699,#700,
#701,#702,#703,#704,#705,#706,#707,#708,#709,#710,#711,#712));
#715=AXIS2_PLACEMENT_3D('',#938,#760,#761);
#716=AXIS2_PLACEMENT_3D('',#939,#762,#763);
#717=AXIS2_PLACEMENT_3D('',#948,#768,#769);
#718=AXIS2_PLACEMENT_3D('',#954,#773,#774);
#719=AXIS2_PLACEMENT_3D('',#960,#778,#779);
#720=AXIS2_PLACEMENT_3D('',#966,#783,#784);
#721=AXIS2_PLACEMENT_3D('',#972,#788,#789);
#722=AXIS2_PLACEMENT_3D('',#978,#793,#794);
#723=AXIS2_PLACEMENT_3D('',#984,#798,#799);
#724=AXIS2_PLACEMENT_3D('',#990,#803,#804);
#725=AXIS2_PLACEMENT_3D('',#996,#808,#809);
#726=AXIS2_PLACEMENT_3D('',#1002,#813,#814);
#727=AXIS2_PLACEMENT_3D('',#1008,#818,#819);
#728=AXIS2_PLACEMENT_3D('',#1011,#822,#823);
#729=AXIS2_PLACEMENT_3D('',#1012,#824,#825);
#730=AXIS2_PLACEMENT_3D('',#1013,#826,#827);
#731=AXIS2_PLACEMENT_3D('',#1015,#828,#829);
#732=AXIS2_PLACEMENT_3D('',#1018,#831,#832);
#733=AXIS2_PLACEMENT_3D('',#1019,#833,#834);
#734=AXIS2_PLACEMENT_3D('',#1021,#835,#836);
#735=AXIS2_PLACEMENT_3D('',#1024,#838,#839);
#736=AXIS2_PLACEMENT_3D('',#1025,#840,#841);
#737=AXIS2_PLACEMENT_3D('',#1027,#842,#843);
#738=AXIS2_PLACEMENT_3D('',#1030,#845,#846);
#739=AXIS2_PLACEMENT_3D('',#1031,#847,#848);
#740=AXIS2_PLACEMENT_3D('',#1033,#849,#850);
#741=AXIS2_PLACEMENT_3D('',#1036,#852,#853);
#742=AXIS2_PLACEMENT_3D('',#1037,#854,#855);
#743=AXIS2_PLACEMENT_3D('',#1046,#860,#861);
#744=AXIS2_PLACEMENT_3D('',#1052,#865,#866);
#745=AXIS2_PLACEMENT_3D('',#1058,#870,#871);
#746=AXIS2_PLACEMENT_3D('',#1064,#875,#876);
#747=AXIS2_PLACEMENT_3D('',#1070,#880,#881);
#748=AXIS2_PLACEMENT_3D('',#1076,#885,#886);
#749=AXIS2_PLACEMENT_3D('',#1082,#890,#891);
#750=AXIS2_PLACEMENT_3D('',#1088,#895,#896);
#751=AXIS2_PLACEMENT_3D('',#1094,#900,#901);
#752=AXIS2_PLACEMENT_3D('',#1100,#905,#906);
#753=AXIS2_PLACEMENT_3D('',#1106,#910,#911);
#754=AXIS2_PLACEMENT_3D('',#1112,#915,#916);
#755=AXIS2_PLACEMENT_3D('',#1118,#920,#921);
#756=AXIS2_PLACEMENT_3D('',#1124,#925,#926);
#757=AXIS2_PLACEMENT_3D('',#1130,#930,#931);
#758=AXIS2_PLACEMENT_3D('',#1133,#934,#935);
#759=AXIS2_PLACEMENT_3D('',#1134,#936,#937);
#760=DIRECTION('axis',(0.,0.,1.));
#761=DIRECTION('refdir',(1.,0.,0.));
#762=DIRECTION('center_axis',(0.,-1.,-4.44089209850062E-16));
#763=DIRECTION('ref_axis',(0.,4.44089209850062E-16,-1.));
#764=DIRECTION('',(0.,-4.44089209850062E-16,1.));
#765=DIRECTION('',(1.,0.,0.));
#766=DIRECTION('',(0.,4.44089209850062E-16,-1.));
#767=DIRECTION('',(1.,0.,0.));
#768=DIRECTION('center_axis',(0.,0.,-1.));
#769=DIRECTION('ref_axis',(0.,1.,0.));
#770=DIRECTION('',(0.,-1.,0.));
#771=DIRECTION('',(0.,1.,0.));
#772=DIRECTION('',(1.,0.,0.));
#773=DIRECTION('center_axis',(0.,1.,0.));
#774=DIRECTION('ref_axis',(0.,0.,1.));
#775=DIRECTION('',(0.,0.,-1.));
#776=DIRECTION('',(0.,0.,1.));
#777=DIRECTION('',(1.,0.,0.));
#778=DIRECTION('center_axis',(0.,1.11022302462516E-16,1.));
#779=DIRECTION('ref_axis',(0.,-1.,1.11022302462516E-16));
#780=DIRECTION('',(0.,1.,-1.11022302462516E-16));
#781=DIRECTION('',(0.,-1.,1.11022302462516E-16));
#782=DIRECTION('',(1.,0.,0.));
#783=DIRECTION('center_axis',(0.,-1.,0.));
#784=DIRECTION('ref_axis',(0.,0.,-1.));
#785=DIRECTION('',(0.,0.,1.));
#786=DIRECTION('',(0.,0.,-1.));
#787=DIRECTION('',(1.,0.,0.));
#788=DIRECTION('center_axis',(0.,-2.22044604925031E-16,1.));
#789=DIRECTION('ref_axis',(0.,-1.,-2.22044604925031E-16));
#790=DIRECTION('',(0.,1.,2.22044604925031E-16));
#791=DIRECTION('',(0.,-1.,-2.22044604925031E-16));
#792=DIRECTION('',(1.,0.,0.));
#793=DIRECTION('center_axis',(0.,1.,0.));
#794=DIRECTION('ref_axis',(0.,0.,1.));
#795=DIRECTION('',(0.,0.,1.));
#796=DIRECTION('',(0.,0.,1.));
#797=DIRECTION('',(1.,0.,0.));
#798=DIRECTION('center_axis',(0.,0.,-1.));
#799=DIRECTION('ref_axis',(0.,1.,0.));
#800=DIRECTION('',(0.,1.,0.));
#801=DIRECTION('',(0.,1.,0.));
#802=DIRECTION('',(1.,0.,0.));
#803=DIRECTION('center_axis',(0.,-1.,-1.61969143411388E-8));
#804=DIRECTION('ref_axis',(0.,1.61969143411388E-8,-1.));
#805=DIRECTION('',(0.,-1.61969143411388E-8,1.));
#806=DIRECTION('',(0.,1.61969143411388E-8,-1.));
#807=DIRECTION('',(1.,0.,0.));
#808=DIRECTION('center_axis',(0.,-2.96059465880659E-16,1.));
#809=DIRECTION('ref_axis',(0.,-1.,-2.96059465880659E-16));
#810=DIRECTION('',(0.,-1.,-2.96059465880659E-16));
#811=DIRECTION('',(0.,-1.,-2.96059465880659E-16));
#812=DIRECTION('',(1.,0.,0.));
#813=DIRECTION('center_axis',(0.,1.,2.5019110414088E-16));
#814=DIRECTION('ref_axis',(0.,-2.5019110414088E-16,1.));
#815=DIRECTION('',(0.,-2.5019110414088E-16,1.));
#816=DIRECTION('',(0.,-2.5019110414088E-16,1.));
#817=DIRECTION('',(1.,0.,0.));
#818=DIRECTION('center_axis',(0.,2.22044604925031E-16,-1.));
#819=DIRECTION('ref_axis',(0.,1.,2.22044604925031E-16));
#820=DIRECTION('',(0.,1.,2.22044604925031E-16));
#821=DIRECTION('',(0.,1.,2.22044604925031E-16));
#822=DIRECTION('center_axis',(1.,0.,0.));
#823=DIRECTION('ref_axis',(0.,0.,-1.));
#824=DIRECTION('center_axis',(1.,0.,0.));
#825=DIRECTION('ref_axis',(0.,1.,0.));
#826=DIRECTION('center_axis',(0.,-1.,0.));
#827=DIRECTION('ref_axis',(-1.,0.,0.));
#828=DIRECTION('center_axis',(1.8503717077086E-16,-1.,0.));
#829=DIRECTION('ref_axis',(-1.,0.,0.));
#830=DIRECTION('',(0.,-1.,0.));
#831=DIRECTION('center_axis',(1.58603289232166E-16,1.,0.));
#832=DIRECTION('ref_axis',(-1.,0.,0.));
#833=DIRECTION('center_axis',(0.,-1.,0.));
#834=DIRECTION('ref_axis',(-1.,0.,0.));
#835=DIRECTION('center_axis',(0.,-1.,0.));
#836=DIRECTION('ref_axis',(-1.,0.,0.));
#837=DIRECTION('',(0.,-1.,0.));
#838=DIRECTION('center_axis',(-1.58603289232165E-16,1.,0.));
#839=DIRECTION('ref_axis',(-1.,0.,0.));
#840=DIRECTION('center_axis',(0.,-1.,0.));
#841=DIRECTION('ref_axis',(-1.,0.,0.));
#842=DIRECTION('center_axis',(1.8503717077086E-16,-1.,0.));
#843=DIRECTION('ref_axis',(-1.,0.,0.));
#844=DIRECTION('',(0.,-1.,0.));
#845=DIRECTION('center_axis',(1.58603289232166E-16,1.,0.));
#846=DIRECTION('ref_axis',(-1.,0.,0.));
#847=DIRECTION('center_axis',(0.,-1.,0.));
#848=DIRECTION('ref_axis',(-1.,0.,0.));
#849=DIRECTION('center_axis',(0.,-1.,0.));
#850=DIRECTION('ref_axis',(-1.,0.,0.));
#851=DIRECTION('',(0.,-1.,0.));
#852=DIRECTION('center_axis',(-1.58603289232165E-16,1.,0.));
#853=DIRECTION('ref_axis',(-1.,0.,0.));
#854=DIRECTION('center_axis',(-1.92229533969326E-16,-1.,0.));
#855=DIRECTION('ref_axis',(-1.,1.92229533969326E-16,1.55891095497299E-16));
#856=DIRECTION('',(-1.,1.92229533969326E-16,1.55891095497299E-16));
#857=DIRECTION('',(0.,0.,-1.));
#858=DIRECTION('',(-1.,1.92229533969326E-16,1.55891095497299E-16));
#859=DIRECTION('',(0.,0.,-1.));
#860=DIRECTION('center_axis',(0.895955257084044,-0.444144320354842,0.));
#861=DIRECTION('ref_axis',(-0.444144320354842,-0.895955257084044,2.22765371979666E-16));
#862=DIRECTION('',(-0.444144320354842,-0.895955257084044,2.22765371979666E-16));
#863=DIRECTION('',(-0.444144320354842,-0.895955257084044,2.22765371979666E-16));
#864=DIRECTION('',(0.,0.,-1.));
#865=DIRECTION('center_axis',(1.,2.60596151887991E-15,0.));
#866=DIRECTION('ref_axis',(2.60596151887991E-15,-1.,5.42908649766647E-17));
#867=DIRECTION('',(-2.60596151887991E-15,1.,-5.42908649766647E-17));
#868=DIRECTION('',(2.60596151887991E-15,-1.,5.42908649766647E-17));
#869=DIRECTION('',(0.,0.,-1.));
#870=DIRECTION('center_axis',(-1.8503717077086E-16,1.,0.));
#871=DIRECTION('ref_axis',(1.,1.8503717077086E-16,0.));
#872=DIRECTION('',(1.,1.8503717077086E-16,0.));
#873=DIRECTION('',(1.,1.8503717077086E-16,0.));
#874=DIRECTION('',(0.,0.,-1.));
#875=DIRECTION('center_axis',(-1.,0.,0.));
#876=DIRECTION('ref_axis',(0.,1.,0.));
#877=DIRECTION('',(0.,1.,0.));
#878=DIRECTION('',(0.,1.,0.));
#879=DIRECTION('',(0.,0.,-1.));
#880=DIRECTION('center_axis',(-1.58603289232166E-16,-1.,0.));
#881=DIRECTION('ref_axis',(-1.,1.58603289232166E-16,0.));
#882=DIRECTION('',(-1.,1.58603289232166E-16,0.));
#883=DIRECTION('',(-1.,1.58603289232166E-16,0.));
#884=DIRECTION('',(0.,0.,-1.));
#885=DIRECTION('center_axis',(-1.,-3.73230153194201E-15,0.));
#886=DIRECTION('ref_axis',(-3.73230153194201E-15,1.,-6.51317313995303E-17));
#887=DIRECTION('',(-3.73230153194201E-15,1.,-6.51317313995303E-17));
#888=DIRECTION('',(-3.73230153194201E-15,1.,-6.51317313995303E-17));
#889=DIRECTION('',(0.,0.,-1.));
#890=DIRECTION('center_axis',(-0.895955257084044,0.444144320354843,0.));
#891=DIRECTION('ref_axis',(0.444144320354843,0.895955257084044,-2.22765371979666E-16));
#892=DIRECTION('',(0.444144320354843,0.895955257084044,-2.22765371979666E-16));
#893=DIRECTION('',(0.444144320354843,0.895955257084044,-2.22765371979666E-16));
#894=DIRECTION('',(0.,0.,-1.));
#895=DIRECTION('center_axis',(0.,1.,0.));
#896=DIRECTION('ref_axis',(1.,0.,0.));
#897=DIRECTION('',(1.,0.,0.));
#898=DIRECTION('',(1.,0.,0.));
#899=DIRECTION('',(0.,0.,-1.));
#900=DIRECTION('center_axis',(0.895955257084044,0.444144320354843,0.));
#901=DIRECTION('ref_axis',(0.444144320354843,-0.895955257084044,2.22765371979666E-16));
#902=DIRECTION('',(-0.444144320354843,0.895955257084044,-2.22765371979666E-16));
#903=DIRECTION('',(0.444144320354843,-0.895955257084044,2.22765371979666E-16));
#904=DIRECTION('',(0.,0.,-1.));
#905=DIRECTION('center_axis',(1.,-1.24410051064734E-15,0.));
#906=DIRECTION('ref_axis',(-1.24410051064734E-15,-1.,6.51317313995303E-17));
#907=DIRECTION('',(1.24410051064734E-15,1.,-6.51317313995303E-17));
#908=DIRECTION('',(-1.24410051064734E-15,-1.,6.51317313995303E-17));
#909=DIRECTION('',(0.,0.,-1.));
#910=DIRECTION('center_axis',(1.58603289232165E-16,-1.,0.));
#911=DIRECTION('ref_axis',(-1.,-1.58603289232165E-16,0.));
#912=DIRECTION('',(1.,1.58603289232165E-16,0.));
#913=DIRECTION('',(-1.,-1.58603289232165E-16,0.));
#914=DIRECTION('',(0.,0.,-1.));
#915=DIRECTION('center_axis',(1.,0.,0.));
#916=DIRECTION('ref_axis',(0.,-1.,0.));
#917=DIRECTION('',(0.,1.,0.));
#918=DIRECTION('',(0.,-1.,0.));
#919=DIRECTION('',(0.,0.,-1.));
#920=DIRECTION('center_axis',(0.,1.,0.));
#921=DIRECTION('ref_axis',(1.,0.,0.));
#922=DIRECTION('',(-1.,0.,0.));
#923=DIRECTION('',(1.,0.,0.));
#924=DIRECTION('',(0.,0.,-1.));
#925=DIRECTION('center_axis',(-1.,2.60596151887991E-15,0.));
#926=DIRECTION('ref_axis',(2.60596151887991E-15,1.,-5.42908649766647E-17));
#927=DIRECTION('',(2.60596151887991E-15,1.,-5.42908649766647E-17));
#928=DIRECTION('',(2.60596151887991E-15,1.,-5.42908649766647E-17));
#929=DIRECTION('',(0.,0.,-1.));
#930=DIRECTION('center_axis',(-0.895955257084044,-0.444144320354842,0.));
#931=DIRECTION('ref_axis',(-0.444144320354842,0.895955257084044,-2.22765371979666E-16));
#932=DIRECTION('',(0.444144320354842,-0.895955257084044,2.22765371979666E-16));
#933=DIRECTION('',(-0.444144320354842,0.895955257084044,-2.22765371979666E-16));
#934=DIRECTION('center_axis',(0.,0.,1.));
#935=DIRECTION('ref_axis',(1.,0.,0.));
#936=DIRECTION('center_axis',(0.,0.,-1.));
#937=DIRECTION('ref_axis',(-1.,0.,0.));
#938=CARTESIAN_POINT('',(0.,0.,0.));
#939=CARTESIAN_POINT('Origin',(78.0776901567922,-15.,10.));
#940=CARTESIAN_POINT('',(78.0776901567922,-15.,6.125));
#941=CARTESIAN_POINT('',(78.0776901567922,-15.,10.));
#942=CARTESIAN_POINT('',(78.0776901567922,-15.,5.));
#943=CARTESIAN_POINT('',(108.077690156792,-15.,6.125));
#944=CARTESIAN_POINT('',(78.0776901567922,-15.,6.125));
#945=CARTESIAN_POINT('',(108.077690156792,-15.,10.));
#946=CARTESIAN_POINT('',(108.077690156792,-15.,5.));
#947=CARTESIAN_POINT('',(78.0776901567922,-15.,10.));
#948=CARTESIAN_POINT('Origin',(78.0776901567922,-20.,10.));
#949=CARTESIAN_POINT('',(78.0776901567922,-20.,10.));
#950=CARTESIAN_POINT('',(78.0776901567922,-15.,10.));
#951=CARTESIAN_POINT('',(108.077690156792,-20.,10.));
#952=CARTESIAN_POINT('',(108.077690156792,-15.,10.));
#953=CARTESIAN_POINT('',(78.0776901567922,-20.,10.));
#954=CARTESIAN_POINT('Origin',(78.0776901567922,-20.,-3.));
#955=CARTESIAN_POINT('',(78.0776901567922,-20.,-3.));
#956=CARTESIAN_POINT('',(78.0776901567922,-20.,10.));
#957=CARTESIAN_POINT('',(108.077690156792,-20.,-3.));
#958=CARTESIAN_POINT('',(108.077690156792,-20.,10.));
#959=CARTESIAN_POINT('',(78.0776901567922,-20.,-3.));
#960=CARTESIAN_POINT('Origin',(78.0776901567922,-15.,-3.));
#961=CARTESIAN_POINT('',(78.0776901567922,-15.,-3.));
#962=CARTESIAN_POINT('',(78.0776901567922,-20.,-3.));
#963=CARTESIAN_POINT('',(108.077690156792,-15.,-3.));
#964=CARTESIAN_POINT('',(108.077690156792,-20.,-3.));
#965=CARTESIAN_POINT('',(78.0776901567922,-15.,-3.));
#966=CARTESIAN_POINT('Origin',(78.0776901567922,-15.,-1.11022302462516E-15));
#967=CARTESIAN_POINT('',(78.0776901567922,-15.,-1.11022302462516E-15));
#968=CARTESIAN_POINT('',(78.0776901567922,-15.,-3.));
#969=CARTESIAN_POINT('',(108.077690156792,-15.,-1.11022302462516E-15));
#970=CARTESIAN_POINT('',(108.077690156792,-15.,-3.));
#971=CARTESIAN_POINT('',(78.0776901567922,-15.,-1.11022302462516E-15));
#972=CARTESIAN_POINT('Origin',(78.0776901567922,-5.,1.11022302462516E-15));
#973=CARTESIAN_POINT('',(78.0776901567922,-5.,1.11022302462516E-15));
#974=CARTESIAN_POINT('',(78.0776901567922,-15.,-1.11022302462516E-15));
#975=CARTESIAN_POINT('',(108.077690156792,-5.,1.11022302462516E-15));
#976=CARTESIAN_POINT('',(108.077690156792,-15.,-1.11022302462516E-15));
#977=CARTESIAN_POINT('',(78.0776901567922,-5.,1.11022302462516E-15));
#978=CARTESIAN_POINT('Origin',(78.0776901567922,-5.,-8.));
#979=CARTESIAN_POINT('',(78.0776901567922,-5.,-8.));
#980=CARTESIAN_POINT('',(78.0776901567922,-5.,-8.));
#981=CARTESIAN_POINT('',(108.077690156792,-5.,-8.));
#982=CARTESIAN_POINT('',(108.077690156792,-5.,-8.));
#983=CARTESIAN_POINT('',(78.0776901567922,-5.,-8.));
#984=CARTESIAN_POINT('Origin',(78.0776901567922,-25.,-8.));
#985=CARTESIAN_POINT('',(78.0776901567922,-25.,-8.));
#986=CARTESIAN_POINT('',(78.0776901567922,-25.,-8.));
#987=CARTESIAN_POINT('',(108.077690156792,-25.,-8.));
#988=CARTESIAN_POINT('',(108.077690156792,-25.,-8.));
#989=CARTESIAN_POINT('',(78.0776901567922,-25.,-8.));
#990=CARTESIAN_POINT('Origin',(78.0776901567922,-25.000000372529,15.));
#991=CARTESIAN_POINT('',(78.0776901567922,-25.000000372529,15.));
#992=CARTESIAN_POINT('',(78.0776901567922,-25.,-8.));
#993=CARTESIAN_POINT('',(108.077690156792,-25.000000372529,15.));
#994=CARTESIAN_POINT('',(108.077690156792,-25.,-8.));
#995=CARTESIAN_POINT('',(78.0776901567922,-25.000000372529,15.));
#996=CARTESIAN_POINT('Origin',(78.0776901567922,-10.,15.));
#997=CARTESIAN_POINT('',(78.0776901567922,-10.,15.));
#998=CARTESIAN_POINT('',(78.0776901567922,-10.,15.));
#999=CARTESIAN_POINT('',(108.077690156792,-10.,15.));
#1000=CARTESIAN_POINT('',(108.077690156792,-10.,15.));
#1001=CARTESIAN_POINT('',(78.0776901567922,-10.,15.));
#1002=CARTESIAN_POINT('Origin',(78.0776901567922,-10.,6.125));
#1003=CARTESIAN_POINT('',(78.0776901567922,-10.,6.125));
#1004=CARTESIAN_POINT('',(78.0776901567922,-10.,6.125));
#1005=CARTESIAN_POINT('',(108.077690156792,-10.,6.125));
#1006=CARTESIAN_POINT('',(108.077690156792,-10.,6.125));
#1007=CARTESIAN_POINT('',(78.0776901567922,-10.,6.125));
#1008=CARTESIAN_POINT('Origin',(78.0776901567922,-15.,6.125));
#1009=CARTESIAN_POINT('',(78.0776901567922,-15.,6.125));
#1010=CARTESIAN_POINT('',(108.077690156792,-15.,6.125));
#1011=CARTESIAN_POINT('Origin',(108.077690156792,-15.0000001862645,3.5));
#1012=CARTESIAN_POINT('Origin',(78.0776901567922,-15.0000001862645,3.5));
#1013=CARTESIAN_POINT('Origin',(117.377690156792,13.3990726152949,13.25));
#1014=CARTESIAN_POINT('',(119.577690156792,13.3990726152949,13.25));
#1015=CARTESIAN_POINT('Origin',(117.377690156792,13.3990726152949,13.25));
#1016=CARTESIAN_POINT('',(119.577690156792,8.3990726152949,13.25));
#1017=CARTESIAN_POINT('',(119.577690156792,13.3990726152949,13.25));
#1018=CARTESIAN_POINT('Origin',(117.377690156792,8.39907261529489,13.25));
#1019=CARTESIAN_POINT('Origin',(68.7776901567921,13.3990726152949,23.25));
#1020=CARTESIAN_POINT('',(70.9776901567921,13.3990726152949,23.25));
#1021=CARTESIAN_POINT('Origin',(68.7776901567921,13.3990726152949,23.25));
#1022=CARTESIAN_POINT('',(70.9776901567921,8.3990726152949,23.25));
#1023=CARTESIAN_POINT('',(70.9776901567921,13.3990726152949,23.25));
#1024=CARTESIAN_POINT('Origin',(68.7776901567921,8.39907261529489,23.25));
#1025=CARTESIAN_POINT('Origin',(117.377690156792,13.3990726152949,23.25));
#1026=CARTESIAN_POINT('',(119.577690156792,13.3990726152949,23.25));
#1027=CARTESIAN_POINT('Origin',(117.377690156792,13.3990726152949,23.25));
#1028=CARTESIAN_POINT('',(119.577690156792,8.3990726152949,23.25));
#1029=CARTESIAN_POINT('',(119.577690156792,13.3990726152949,23.25));
#1030=CARTESIAN_POINT('Origin',(117.377690156792,8.39907261529489,23.25));
#1031=CARTESIAN_POINT('Origin',(68.7776901567921,13.3990726152949,13.25));
#1032=CARTESIAN_POINT('',(70.9776901567921,13.3990726152949,13.25));
#1033=CARTESIAN_POINT('Origin',(68.7776901567921,13.3990726152949,13.25));
#1034=CARTESIAN_POINT('',(70.9776901567921,8.3990726152949,13.25));
#1035=CARTESIAN_POINT('',(70.9776901567921,13.3990726152949,13.25));
#1036=CARTESIAN_POINT('Origin',(68.7776901567921,8.39907261529489,13.25));
#1037=CARTESIAN_POINT('Origin',(116.179718272874,-25.000000372529,30.));
#1038=CARTESIAN_POINT('',(116.179718272874,-25.000000372529,30.));
#1039=CARTESIAN_POINT('',(69.9756620407107,-25.000000372529,30.));
#1040=CARTESIAN_POINT('',(93.0776901567922,-25.000000372529,30.));
#1041=CARTESIAN_POINT('',(69.9756620407107,-25.000000372529,5.00000000000001));
#1042=CARTESIAN_POINT('',(69.9756620407107,-25.000000372529,30.));
#1043=CARTESIAN_POINT('',(116.179718272874,-25.000000372529,5.00000000000001));
#1044=CARTESIAN_POINT('',(93.0776901567922,-25.000000372529,5.00000000000001));
#1045=CARTESIAN_POINT('',(116.179718272874,-25.000000372529,30.));
#1046=CARTESIAN_POINT('Origin',(125.077690156792,-7.05046387859506,30.));
#1047=CARTESIAN_POINT('',(125.077690156792,-7.05046387859506,30.));
#1048=CARTESIAN_POINT('',(118.658325975899,-20.000000372529,30.));
#1049=CARTESIAN_POINT('',(125.077690156792,-7.05046387859506,5.));
#1050=CARTESIAN_POINT('',(118.658325975899,-20.000000372529,5.00000000000001));
#1051=CARTESIAN_POINT('',(125.077690156792,-7.05046387859506,30.));
#1052=CARTESIAN_POINT('Origin',(125.077690156792,13.3990726152949,30.));
#1053=CARTESIAN_POINT('',(125.077690156792,13.3990726152949,30.));
#1054=CARTESIAN_POINT('',(125.077690156792,-7.05046387859506,30.));
#1055=CARTESIAN_POINT('',(125.077690156792,13.3990726152949,5.));
#1056=CARTESIAN_POINT('',(125.077690156792,-7.05046387859506,5.));
#1057=CARTESIAN_POINT('',(125.077690156792,13.3990726152949,30.));
#1058=CARTESIAN_POINT('Origin',(113.077690156792,13.3990726152949,30.));
#1059=CARTESIAN_POINT('',(113.077690156792,13.3990726152949,30.));
#1060=CARTESIAN_POINT('',(113.077690156792,13.3990726152949,30.));
#1061=CARTESIAN_POINT('',(113.077690156792,13.3990726152949,5.));
#1062=CARTESIAN_POINT('',(113.077690156792,13.3990726152949,5.));
#1063=CARTESIAN_POINT('',(113.077690156792,13.3990726152949,30.));
#1064=CARTESIAN_POINT('Origin',(113.077690156792,8.39907261529489,30.));
#1065=CARTESIAN_POINT('',(113.077690156792,8.39907261529489,30.));
#1066=CARTESIAN_POINT('',(113.077690156792,8.39907261529489,30.));
#1067=CARTESIAN_POINT('',(113.077690156792,8.39907261529489,5.));
#1068=CARTESIAN_POINT('',(113.077690156792,8.39907261529489,5.));
#1069=CARTESIAN_POINT('',(113.077690156792,8.39907261529489,30.));
#1070=CARTESIAN_POINT('Origin',(120.077690156792,8.39907261529489,30.));
#1071=CARTESIAN_POINT('',(120.077690156792,8.39907261529489,30.));
#1072=CARTESIAN_POINT('',(120.077690156792,8.39907261529489,30.));
#1073=CARTESIAN_POINT('',(120.077690156792,8.39907261529489,5.));
#1074=CARTESIAN_POINT('',(120.077690156792,8.39907261529489,5.));
#1075=CARTESIAN_POINT('',(120.077690156792,8.39907261529489,30.));
#1076=CARTESIAN_POINT('Origin',(120.077690156792,-5.87916957010511,30.));
#1077=CARTESIAN_POINT('',(120.077690156792,-5.87916957010511,30.));
#1078=CARTESIAN_POINT('',(120.077690156792,-5.87916957010511,30.));
#1079=CARTESIAN_POINT('',(120.077690156792,-5.87916957010511,5.));
#1080=CARTESIAN_POINT('',(120.077690156792,-5.87916957010511,5.));
#1081=CARTESIAN_POINT('',(120.077690156792,-5.87916957010511,30.));
#1082=CARTESIAN_POINT('Origin',(113.077690156792,-20.000000372529,30.));
#1083=CARTESIAN_POINT('',(113.077690156792,-20.000000372529,30.));
#1084=CARTESIAN_POINT('',(113.077690156792,-20.000000372529,30.));
#1085=CARTESIAN_POINT('',(113.077690156792,-20.000000372529,5.00000000000001));
#1086=CARTESIAN_POINT('',(113.077690156792,-20.000000372529,5.00000000000001));
#1087=CARTESIAN_POINT('',(113.077690156792,-20.000000372529,30.));
#1088=CARTESIAN_POINT('Origin',(73.0776901567922,-20.000000372529,30.));
#1089=CARTESIAN_POINT('',(73.0776901567922,-20.000000372529,30.));
#1090=CARTESIAN_POINT('',(108.077690156792,-20.000000372529,30.));
#1091=CARTESIAN_POINT('',(73.0776901567922,-20.000000372529,5.00000000000001));
#1092=CARTESIAN_POINT('',(108.077690156792,-20.000000372529,5.00000000000001));
#1093=CARTESIAN_POINT('',(73.0776901567922,-20.000000372529,30.));
#1094=CARTESIAN_POINT('Origin',(66.0776901567922,-5.87916957010511,30.));
#1095=CARTESIAN_POINT('',(66.0776901567922,-5.87916957010511,30.));
#1096=CARTESIAN_POINT('',(73.0776901567922,-20.000000372529,30.));
#1097=CARTESIAN_POINT('',(66.0776901567922,-5.87916957010511,5.));
#1098=CARTESIAN_POINT('',(73.0776901567922,-20.000000372529,5.00000000000001));
#1099=CARTESIAN_POINT('',(66.0776901567922,-5.87916957010511,30.));
#1100=CARTESIAN_POINT('Origin',(66.0776901567923,8.39907261529489,30.));
#1101=CARTESIAN_POINT('',(66.0776901567923,8.39907261529489,30.));
#1102=CARTESIAN_POINT('',(66.0776901567922,-5.87916957010511,30.));
#1103=CARTESIAN_POINT('',(66.0776901567923,8.39907261529489,5.));
#1104=CARTESIAN_POINT('',(66.0776901567922,-5.87916957010511,5.));
#1105=CARTESIAN_POINT('',(66.0776901567923,8.39907261529489,30.));
#1106=CARTESIAN_POINT('Origin',(73.0776901567923,8.39907261529489,30.));
#1107=CARTESIAN_POINT('',(73.0776901567923,8.39907261529489,30.));
#1108=CARTESIAN_POINT('',(66.0776901567923,8.39907261529489,30.));
#1109=CARTESIAN_POINT('',(73.0776901567923,8.39907261529489,5.));
#1110=CARTESIAN_POINT('',(66.0776901567923,8.39907261529489,5.));
#1111=CARTESIAN_POINT('',(73.0776901567923,8.39907261529489,30.));
#1112=CARTESIAN_POINT('Origin',(73.0776901567923,13.3990726152949,30.));
#1113=CARTESIAN_POINT('',(73.0776901567923,13.3990726152949,30.));
#1114=CARTESIAN_POINT('',(73.0776901567923,8.39907261529489,30.));
#1115=CARTESIAN_POINT('',(73.0776901567923,13.3990726152949,5.));
#1116=CARTESIAN_POINT('',(73.0776901567923,8.39907261529489,5.));
#1117=CARTESIAN_POINT('',(73.0776901567923,13.3990726152949,30.));
#1118=CARTESIAN_POINT('Origin',(61.0776901567923,13.3990726152949,30.));
#1119=CARTESIAN_POINT('',(61.0776901567923,13.3990726152949,30.));
#1120=CARTESIAN_POINT('',(73.0776901567923,13.3990726152949,30.));
#1121=CARTESIAN_POINT('',(61.0776901567923,13.3990726152949,5.));
#1122=CARTESIAN_POINT('',(73.0776901567923,13.3990726152949,5.));
#1123=CARTESIAN_POINT('',(61.0776901567923,13.3990726152949,30.));
#1124=CARTESIAN_POINT('Origin',(61.0776901567922,-7.05046387859506,30.));
#1125=CARTESIAN_POINT('',(61.0776901567922,-7.05046387859506,30.));
#1126=CARTESIAN_POINT('',(61.0776901567922,-7.05046387859506,30.));
#1127=CARTESIAN_POINT('',(61.0776901567922,-7.05046387859506,5.));
#1128=CARTESIAN_POINT('',(61.0776901567922,-7.05046387859506,5.));
#1129=CARTESIAN_POINT('',(61.0776901567922,-7.05046387859506,30.));
#1130=CARTESIAN_POINT('Origin',(69.9756620407107,-25.000000372529,30.));
#1131=CARTESIAN_POINT('',(67.4970543376857,-20.000000372529,30.));
#1132=CARTESIAN_POINT('',(67.4970543376857,-20.000000372529,5.00000000000001));
#1133=CARTESIAN_POINT('Origin',(93.0776901567922,-5.80046387861707,30.));
#1134=CARTESIAN_POINT('Origin',(93.0776901567922,-5.80046387861707,5.));
#1135=UNCERTAINTY_MEASURE_WITH_UNIT(LENGTH_MEASURE(0.01),#1139,
'DISTANCE_ACCURACY_VALUE',
'Maximum model space distance between geometric entities at asserted c
onnectivities');
#1136=UNCERTAINTY_MEASURE_WITH_UNIT(LENGTH_MEASURE(0.01),#1139,
'DISTANCE_ACCURACY_VALUE',
'Maximum model space distance between geometric entities at asserted c
onnectivities');
#1137=(
GEOMETRIC_REPRESENTATION_CONTEXT(3)
GLOBAL_UNCERTAINTY_ASSIGNED_CONTEXT((#1135))
GLOBAL_UNIT_ASSIGNED_CONTEXT((#1139,#1140,#1141))
REPRESENTATION_CONTEXT('','3D')
);
#1138=(
GEOMETRIC_REPRESENTATION_CONTEXT(3)
GLOBAL_UNCERTAINTY_ASSIGNED_CONTEXT((#1136))
GLOBAL_UNIT_ASSIGNED_CONTEXT((#1139,#1140,#1141))
REPRESENTATION_CONTEXT('','3D')
);
#1139=(
LENGTH_UNIT()
NAMED_UNIT(*)
SI_UNIT(.MILLI.,.METRE.)
);
#1140=(
NAMED_UNIT(*)
PLANE_ANGLE_UNIT()
SI_UNIT($,.RADIAN.)
);
#1141=(
NAMED_UNIT(*)
SI_UNIT($,.STERADIAN.)
SOLID_ANGLE_UNIT()
);
#1142=SHAPE_DEFINITION_REPRESENTATION(#1143,#1144);
#1143=PRODUCT_DEFINITION_SHAPE('',$,#1146);
#1144=SHAPE_REPRESENTATION('',(#715),#1137);
#1145=PRODUCT_DEFINITION_CONTEXT('part definition',#1150,'design');
#1146=PRODUCT_DEFINITION('steering servo mount',
'steering servo mount v1',#1147,#1145);
#1147=PRODUCT_DEFINITION_FORMATION('',$,#1152);
#1148=PRODUCT_RELATED_PRODUCT_CATEGORY('steering servo mount v1',
'steering servo mount v1',(#1152));
#1149=APPLICATION_PROTOCOL_DEFINITION('international standard',
'automotive_design',2009,#1150);
#1150=APPLICATION_CONTEXT(
'Core Data for Automotive Mechanical Design Process');
#1151=PRODUCT_CONTEXT('part definition',#1150,'mechanical');
#1152=PRODUCT('steering servo mount','steering servo mount v1',$,(#1151));
#1153=PRESENTATION_STYLE_ASSIGNMENT((#1154));
#1154=SURFACE_STYLE_USAGE(.BOTH.,#1155);
#1155=SURFACE_SIDE_STYLE('',(#1156));
#1156=SURFACE_STYLE_FILL_AREA(#1157);
#1157=FILL_AREA_STYLE('Steel - Satin',(#1158));
#1158=FILL_AREA_STYLE_COLOUR('Steel - Satin',#1159);
#1159=COLOUR_RGB('Steel - Satin',0.627450980392157,0.627450980392157,0.627450980392157);
ENDSEC;
END-ISO-10303-21;
