ISO-10303-21;
HEADER;
/* Generated by software containing ST-Developer
 * from STEP Tools, Inc. (www.steptools.com) 
 */

FILE_DESCRIPTION(
/* description */ (''),
/* implementation_level */ '2;1');

FILE_NAME(
/* name */ 'top control arm  v3 v1.step',
/* time_stamp */ '2025-05-27T01:45:14-07:00',
/* author */ (''),
/* organization */ (''),
/* preprocessor_version */ 'ST-DEVELOPER v20.1',
/* originating_system */ 'Autodesk Translation Framework v14.10.0.0',
/* authorisation */ '');

FILE_SCHEMA (('AUTOMOTIVE_DESIGN { 1 0 10303 214 3 1 1 }'));
ENDSEC;

DATA;
#10=MECHANICAL_DESIGN_GEOMETRIC_PRESENTATION_REPRESENTATION('',(#13,#14),
#769);
#11=SHAPE_REPRESENTATION_RELATIONSHIP('SRR','None',#776,#12);
#12=ADVANCED_BREP_SHAPE_REPRESENTATION('',(#15,#16),#768);
#13=STYLED_ITEM('',(#785),#15);
#14=STYLED_ITEM('',(#785),#16);
#15=MANIFOLD_SOLID_BREP('Body1',#436);
#16=MANIFOLD_SOLID_BREP('Body2',#437);
#17=SPHERICAL_SURFACE('',#479,3.2);
#18=SPHERICAL_SURFACE('',#497,2.95);
#19=TOROIDAL_SURFACE('',#474,3.11287648325468,0.5);
#20=TOROIDAL_SURFACE('',#483,3.11287648325468,0.5);
#21=FACE_BOUND('',#68,.T.);
#22=FACE_BOUND('',#71,.T.);
#23=FACE_BOUND('',#73,.T.);
#24=FACE_BOUND('',#76,.T.);
#25=FACE_BOUND('',#79,.T.);
#26=FACE_BOUND('',#81,.T.);
#27=FACE_BOUND('',#84,.T.);
#28=FACE_BOUND('',#91,.T.);
#29=FACE_BOUND('',#93,.T.);
#30=FACE_BOUND('',#96,.T.);
#31=PLANE('',#457);
#32=PLANE('',#461);
#33=PLANE('',#462);
#34=PLANE('',#466);
#35=PLANE('',#467);
#36=PLANE('',#468);
#37=PLANE('',#471);
#38=PLANE('',#485);
#39=PLANE('',#487);
#40=PLANE('',#491);
#41=PLANE('',#493);
#42=FACE_OUTER_BOUND('',#65,.T.);
#43=FACE_OUTER_BOUND('',#66,.T.);
#44=FACE_OUTER_BOUND('',#67,.T.);
#45=FACE_OUTER_BOUND('',#69,.T.);
#46=FACE_OUTER_BOUND('',#70,.T.);
#47=FACE_OUTER_BOUND('',#72,.T.);
#48=FACE_OUTER_BOUND('',#74,.T.);
#49=FACE_OUTER_BOUND('',#75,.T.);
#50=FACE_OUTER_BOUND('',#77,.T.);
#51=FACE_OUTER_BOUND('',#78,.T.);
#52=FACE_OUTER_BOUND('',#80,.T.);
#53=FACE_OUTER_BOUND('',#82,.T.);
#54=FACE_OUTER_BOUND('',#83,.T.);
#55=FACE_OUTER_BOUND('',#85,.T.);
#56=FACE_OUTER_BOUND('',#86,.T.);
#57=FACE_OUTER_BOUND('',#87,.T.);
#58=FACE_OUTER_BOUND('',#88,.T.);
#59=FACE_OUTER_BOUND('',#89,.T.);
#60=FACE_OUTER_BOUND('',#90,.T.);
#61=FACE_OUTER_BOUND('',#92,.T.);
#62=FACE_OUTER_BOUND('',#94,.T.);
#63=FACE_OUTER_BOUND('',#95,.T.);
#64=FACE_OUTER_BOUND('',#97,.T.);
#65=EDGE_LOOP('',(#287,#288,#289,#290));
#66=EDGE_LOOP('',(#291,#292,#293,#294));
#67=EDGE_LOOP('',(#295,#296,#297,#298));
#68=EDGE_LOOP('',(#299));
#69=EDGE_LOOP('',(#300,#301,#302,#303));
#70=EDGE_LOOP('',(#304,#305,#306,#307));
#71=EDGE_LOOP('',(#308));
#72=EDGE_LOOP('',(#309,#310,#311,#312));
#73=EDGE_LOOP('',(#313));
#74=EDGE_LOOP('',(#314,#315,#316,#317));
#75=EDGE_LOOP('',(#318,#319,#320,#321));
#76=EDGE_LOOP('',(#322));
#77=EDGE_LOOP('',(#323,#324,#325,#326));
#78=EDGE_LOOP('',(#327,#328,#329,#330,#331,#332,#333,#334,#335,#336));
#79=EDGE_LOOP('',(#337));
#80=EDGE_LOOP('',(#338,#339,#340,#341,#342,#343,#344,#345,#346,#347));
#81=EDGE_LOOP('',(#348));
#82=EDGE_LOOP('',(#349,#350,#351,#352,#353,#354));
#83=EDGE_LOOP('',(#355,#356,#357,#358,#359,#360,#361));
#84=EDGE_LOOP('',(#362));
#85=EDGE_LOOP('',(#363,#364,#365,#366));
#86=EDGE_LOOP('',(#367,#368,#369,#370));
#87=EDGE_LOOP('',(#371,#372,#373,#374));
#88=EDGE_LOOP('',(#375,#376,#377,#378));
#89=EDGE_LOOP('',(#379,#380,#381,#382));
#90=EDGE_LOOP('',(#383));
#91=EDGE_LOOP('',(#384));
#92=EDGE_LOOP('',(#385));
#93=EDGE_LOOP('',(#386));
#94=EDGE_LOOP('',(#387,#388,#389,#390));
#95=EDGE_LOOP('',(#391,#392,#393,#394,#395,#396,#397));
#96=EDGE_LOOP('',(#398));
#97=EDGE_LOOP('',(#399,#400,#401,#402,#403,#404));
#98=LINE('',#646,#127);
#99=LINE('',#652,#128);
#100=LINE('',#659,#129);
#101=LINE('',#661,#130);
#102=LINE('',#662,#131);
#103=LINE('',#665,#132);
#104=LINE('',#668,#133);
#105=LINE('',#671,#134);
#106=LINE('',#673,#135);
#107=LINE('',#674,#136);
#108=LINE('',#680,#137);
#109=LINE('',#682,#138);
#110=LINE('',#683,#139);
#111=LINE('',#688,#140);
#112=LINE('',#689,#141);
#113=LINE('',#692,#142);
#114=LINE('',#694,#143);
#115=LINE('',#695,#144);
#116=LINE('',#697,#145);
#117=LINE('',#698,#146);
#118=LINE('',#701,#147);
#119=LINE('',#704,#148);
#120=LINE('',#709,#149);
#121=LINE('',#712,#150);
#122=LINE('',#733,#151);
#123=LINE('',#735,#152);
#124=LINE('',#741,#153);
#125=LINE('',#752,#154);
#126=LINE('',#765,#155);
#127=VECTOR('',#510,1.125);
#128=VECTOR('',#517,1.125);
#129=VECTOR('',#524,10.);
#130=VECTOR('',#525,10.);
#131=VECTOR('',#526,10.);
#132=VECTOR('',#529,10.);
#133=VECTOR('',#532,10.);
#134=VECTOR('',#535,10.);
#135=VECTOR('',#536,10.);
#136=VECTOR('',#537,10.);
#137=VECTOR('',#542,10.);
#138=VECTOR('',#543,10.);
#139=VECTOR('',#544,10.);
#140=VECTOR('',#549,10.);
#141=VECTOR('',#550,10.);
#142=VECTOR('',#553,10.);
#143=VECTOR('',#554,10.);
#144=VECTOR('',#555,10.);
#145=VECTOR('',#558,10.);
#146=VECTOR('',#559,10.);
#147=VECTOR('',#562,10.);
#148=VECTOR('',#565,10.);
#149=VECTOR('',#570,10.);
#150=VECTOR('',#573,10.);
#151=VECTOR('',#600,10.);
#152=VECTOR('',#603,10.);
#153=VECTOR('',#610,1.);
#154=VECTOR('',#625,1.5);
#155=VECTOR('',#640,1.5);
#156=CIRCLE('',#452,1.125);
#157=CIRCLE('',#453,1.125);
#158=CIRCLE('',#455,1.125);
#159=CIRCLE('',#456,1.125);
#160=CIRCLE('',#458,2.5);
#161=CIRCLE('',#460,2.5);
#162=CIRCLE('',#463,2.5);
#163=CIRCLE('',#465,2.5);
#164=CIRCLE('',#469,3.75);
#165=CIRCLE('',#470,3.11287648325468);
#166=CIRCLE('',#472,3.75);
#167=CIRCLE('',#473,3.11287648325468);
#168=CIRCLE('',#475,0.5);
#169=CIRCLE('',#476,2.69221749903107);
#170=CIRCLE('',#477,2.69221749903107);
#171=CIRCLE('',#478,2.69221749903107);
#172=CIRCLE('',#480,3.2);
#173=CIRCLE('',#481,3.2);
#174=CIRCLE('',#482,2.69221749903107);
#175=CIRCLE('',#484,0.5);
#176=CIRCLE('',#489,1.);
#177=CIRCLE('',#490,1.);
#178=CIRCLE('',#492,1.5);
#179=CIRCLE('',#494,1.5);
#180=CIRCLE('',#496,1.5);
#181=CIRCLE('',#498,1.5);
#182=CIRCLE('',#499,2.95);
#183=CIRCLE('',#500,1.5);
#184=CIRCLE('',#501,1.5);
#185=CIRCLE('',#502,2.95);
#186=VERTEX_POINT('',#643);
#187=VERTEX_POINT('',#645);
#188=VERTEX_POINT('',#649);
#189=VERTEX_POINT('',#651);
#190=VERTEX_POINT('',#655);
#191=VERTEX_POINT('',#656);
#192=VERTEX_POINT('',#658);
#193=VERTEX_POINT('',#660);
#194=VERTEX_POINT('',#664);
#195=VERTEX_POINT('',#666);
#196=VERTEX_POINT('',#670);
#197=VERTEX_POINT('',#672);
#198=VERTEX_POINT('',#676);
#199=VERTEX_POINT('',#677);
#200=VERTEX_POINT('',#679);
#201=VERTEX_POINT('',#681);
#202=VERTEX_POINT('',#685);
#203=VERTEX_POINT('',#686);
#204=VERTEX_POINT('',#691);
#205=VERTEX_POINT('',#693);
#206=VERTEX_POINT('',#700);
#207=VERTEX_POINT('',#702);
#208=VERTEX_POINT('',#705);
#209=VERTEX_POINT('',#708);
#210=VERTEX_POINT('',#710);
#211=VERTEX_POINT('',#713);
#212=VERTEX_POINT('',#716);
#213=VERTEX_POINT('',#718);
#214=VERTEX_POINT('',#720);
#215=VERTEX_POINT('',#724);
#216=VERTEX_POINT('',#726);
#217=VERTEX_POINT('',#728);
#218=VERTEX_POINT('',#738);
#219=VERTEX_POINT('',#740);
#220=VERTEX_POINT('',#744);
#221=VERTEX_POINT('',#747);
#222=VERTEX_POINT('',#750);
#223=VERTEX_POINT('',#754);
#224=VERTEX_POINT('',#755);
#225=VERTEX_POINT('',#757);
#226=VERTEX_POINT('',#759);
#227=VERTEX_POINT('',#762);
#228=EDGE_CURVE('',#186,#186,#156,.T.);
#229=EDGE_CURVE('',#186,#187,#98,.T.);
#230=EDGE_CURVE('',#187,#187,#157,.T.);
#231=EDGE_CURVE('',#188,#188,#158,.T.);
#232=EDGE_CURVE('',#188,#189,#99,.T.);
#233=EDGE_CURVE('',#189,#189,#159,.T.);
#234=EDGE_CURVE('',#190,#191,#160,.T.);
#235=EDGE_CURVE('',#190,#192,#100,.T.);
#236=EDGE_CURVE('',#192,#193,#101,.T.);
#237=EDGE_CURVE('',#191,#193,#102,.T.);
#238=EDGE_CURVE('',#191,#194,#103,.T.);
#239=EDGE_CURVE('',#194,#195,#161,.T.);
#240=EDGE_CURVE('',#195,#190,#104,.T.);
#241=EDGE_CURVE('',#196,#194,#105,.T.);
#242=EDGE_CURVE('',#197,#196,#106,.T.);
#243=EDGE_CURVE('',#195,#197,#107,.T.);
#244=EDGE_CURVE('',#198,#199,#162,.T.);
#245=EDGE_CURVE('',#200,#198,#108,.T.);
#246=EDGE_CURVE('',#200,#201,#109,.T.);
#247=EDGE_CURVE('',#199,#201,#110,.T.);
#248=EDGE_CURVE('',#202,#203,#163,.T.);
#249=EDGE_CURVE('',#203,#198,#111,.T.);
#250=EDGE_CURVE('',#199,#202,#112,.T.);
#251=EDGE_CURVE('',#204,#202,#113,.T.);
#252=EDGE_CURVE('',#205,#204,#114,.T.);
#253=EDGE_CURVE('',#203,#205,#115,.T.);
#254=EDGE_CURVE('',#197,#200,#116,.T.);
#255=EDGE_CURVE('',#201,#196,#117,.T.);
#256=EDGE_CURVE('',#205,#206,#118,.T.);
#257=EDGE_CURVE('',#207,#206,#164,.T.);
#258=EDGE_CURVE('',#207,#192,#119,.T.);
#259=EDGE_CURVE('',#208,#208,#165,.T.);
#260=EDGE_CURVE('',#193,#209,#120,.T.);
#261=EDGE_CURVE('',#209,#210,#166,.T.);
#262=EDGE_CURVE('',#210,#204,#121,.T.);
#263=EDGE_CURVE('',#211,#211,#167,.T.);
#264=EDGE_CURVE('',#211,#212,#168,.T.);
#265=EDGE_CURVE('',#212,#213,#169,.T.);
#266=EDGE_CURVE('',#213,#214,#170,.T.);
#267=EDGE_CURVE('',#214,#212,#171,.T.);
#268=EDGE_CURVE('',#214,#215,#172,.T.);
#269=EDGE_CURVE('',#216,#213,#173,.T.);
#270=EDGE_CURVE('',#217,#217,#174,.T.);
#271=EDGE_CURVE('',#208,#217,#175,.T.);
#272=EDGE_CURVE('',#206,#210,#122,.T.);
#273=EDGE_CURVE('',#207,#209,#123,.T.);
#274=EDGE_CURVE('',#218,#218,#176,.T.);
#275=EDGE_CURVE('',#218,#219,#124,.T.);
#276=EDGE_CURVE('',#219,#219,#177,.T.);
#277=EDGE_CURVE('',#220,#220,#178,.T.);
#278=EDGE_CURVE('',#221,#221,#179,.T.);
#279=EDGE_CURVE('',#222,#222,#180,.T.);
#280=EDGE_CURVE('',#222,#221,#125,.T.);
#281=EDGE_CURVE('',#223,#224,#181,.T.);
#282=EDGE_CURVE('',#223,#225,#182,.T.);
#283=EDGE_CURVE('',#226,#223,#183,.T.);
#284=EDGE_CURVE('',#224,#226,#184,.T.);
#285=EDGE_CURVE('',#227,#224,#185,.T.);
#286=EDGE_CURVE('',#226,#220,#126,.T.);
#287=ORIENTED_EDGE('',*,*,#228,.F.);
#288=ORIENTED_EDGE('',*,*,#229,.T.);
#289=ORIENTED_EDGE('',*,*,#230,.F.);
#290=ORIENTED_EDGE('',*,*,#229,.F.);
#291=ORIENTED_EDGE('',*,*,#231,.F.);
#292=ORIENTED_EDGE('',*,*,#232,.T.);
#293=ORIENTED_EDGE('',*,*,#233,.F.);
#294=ORIENTED_EDGE('',*,*,#232,.F.);
#295=ORIENTED_EDGE('',*,*,#234,.F.);
#296=ORIENTED_EDGE('',*,*,#235,.T.);
#297=ORIENTED_EDGE('',*,*,#236,.T.);
#298=ORIENTED_EDGE('',*,*,#237,.F.);
#299=ORIENTED_EDGE('',*,*,#233,.T.);
#300=ORIENTED_EDGE('',*,*,#234,.T.);
#301=ORIENTED_EDGE('',*,*,#238,.T.);
#302=ORIENTED_EDGE('',*,*,#239,.T.);
#303=ORIENTED_EDGE('',*,*,#240,.T.);
#304=ORIENTED_EDGE('',*,*,#239,.F.);
#305=ORIENTED_EDGE('',*,*,#241,.F.);
#306=ORIENTED_EDGE('',*,*,#242,.F.);
#307=ORIENTED_EDGE('',*,*,#243,.F.);
#308=ORIENTED_EDGE('',*,*,#231,.T.);
#309=ORIENTED_EDGE('',*,*,#244,.F.);
#310=ORIENTED_EDGE('',*,*,#245,.F.);
#311=ORIENTED_EDGE('',*,*,#246,.T.);
#312=ORIENTED_EDGE('',*,*,#247,.F.);
#313=ORIENTED_EDGE('',*,*,#230,.T.);
#314=ORIENTED_EDGE('',*,*,#248,.T.);
#315=ORIENTED_EDGE('',*,*,#249,.T.);
#316=ORIENTED_EDGE('',*,*,#244,.T.);
#317=ORIENTED_EDGE('',*,*,#250,.T.);
#318=ORIENTED_EDGE('',*,*,#248,.F.);
#319=ORIENTED_EDGE('',*,*,#251,.F.);
#320=ORIENTED_EDGE('',*,*,#252,.F.);
#321=ORIENTED_EDGE('',*,*,#253,.F.);
#322=ORIENTED_EDGE('',*,*,#228,.T.);
#323=ORIENTED_EDGE('',*,*,#254,.F.);
#324=ORIENTED_EDGE('',*,*,#242,.T.);
#325=ORIENTED_EDGE('',*,*,#255,.F.);
#326=ORIENTED_EDGE('',*,*,#246,.F.);
#327=ORIENTED_EDGE('',*,*,#240,.F.);
#328=ORIENTED_EDGE('',*,*,#243,.T.);
#329=ORIENTED_EDGE('',*,*,#254,.T.);
#330=ORIENTED_EDGE('',*,*,#245,.T.);
#331=ORIENTED_EDGE('',*,*,#249,.F.);
#332=ORIENTED_EDGE('',*,*,#253,.T.);
#333=ORIENTED_EDGE('',*,*,#256,.T.);
#334=ORIENTED_EDGE('',*,*,#257,.F.);
#335=ORIENTED_EDGE('',*,*,#258,.T.);
#336=ORIENTED_EDGE('',*,*,#235,.F.);
#337=ORIENTED_EDGE('',*,*,#259,.F.);
#338=ORIENTED_EDGE('',*,*,#238,.F.);
#339=ORIENTED_EDGE('',*,*,#237,.T.);
#340=ORIENTED_EDGE('',*,*,#260,.T.);
#341=ORIENTED_EDGE('',*,*,#261,.T.);
#342=ORIENTED_EDGE('',*,*,#262,.T.);
#343=ORIENTED_EDGE('',*,*,#251,.T.);
#344=ORIENTED_EDGE('',*,*,#250,.F.);
#345=ORIENTED_EDGE('',*,*,#247,.T.);
#346=ORIENTED_EDGE('',*,*,#255,.T.);
#347=ORIENTED_EDGE('',*,*,#241,.T.);
#348=ORIENTED_EDGE('',*,*,#263,.F.);
#349=ORIENTED_EDGE('',*,*,#263,.T.);
#350=ORIENTED_EDGE('',*,*,#264,.T.);
#351=ORIENTED_EDGE('',*,*,#265,.T.);
#352=ORIENTED_EDGE('',*,*,#266,.T.);
#353=ORIENTED_EDGE('',*,*,#267,.T.);
#354=ORIENTED_EDGE('',*,*,#264,.F.);
#355=ORIENTED_EDGE('',*,*,#265,.F.);
#356=ORIENTED_EDGE('',*,*,#267,.F.);
#357=ORIENTED_EDGE('',*,*,#268,.T.);
#358=ORIENTED_EDGE('',*,*,#268,.F.);
#359=ORIENTED_EDGE('',*,*,#266,.F.);
#360=ORIENTED_EDGE('',*,*,#269,.F.);
#361=ORIENTED_EDGE('',*,*,#269,.T.);
#362=ORIENTED_EDGE('',*,*,#270,.F.);
#363=ORIENTED_EDGE('',*,*,#259,.T.);
#364=ORIENTED_EDGE('',*,*,#271,.T.);
#365=ORIENTED_EDGE('',*,*,#270,.T.);
#366=ORIENTED_EDGE('',*,*,#271,.F.);
#367=ORIENTED_EDGE('',*,*,#256,.F.);
#368=ORIENTED_EDGE('',*,*,#252,.T.);
#369=ORIENTED_EDGE('',*,*,#262,.F.);
#370=ORIENTED_EDGE('',*,*,#272,.F.);
#371=ORIENTED_EDGE('',*,*,#257,.T.);
#372=ORIENTED_EDGE('',*,*,#272,.T.);
#373=ORIENTED_EDGE('',*,*,#261,.F.);
#374=ORIENTED_EDGE('',*,*,#273,.F.);
#375=ORIENTED_EDGE('',*,*,#258,.F.);
#376=ORIENTED_EDGE('',*,*,#273,.T.);
#377=ORIENTED_EDGE('',*,*,#260,.F.);
#378=ORIENTED_EDGE('',*,*,#236,.F.);
#379=ORIENTED_EDGE('',*,*,#274,.F.);
#380=ORIENTED_EDGE('',*,*,#275,.T.);
#381=ORIENTED_EDGE('',*,*,#276,.F.);
#382=ORIENTED_EDGE('',*,*,#275,.F.);
#383=ORIENTED_EDGE('',*,*,#277,.T.);
#384=ORIENTED_EDGE('',*,*,#276,.T.);
#385=ORIENTED_EDGE('',*,*,#278,.F.);
#386=ORIENTED_EDGE('',*,*,#274,.T.);
#387=ORIENTED_EDGE('',*,*,#279,.F.);
#388=ORIENTED_EDGE('',*,*,#280,.T.);
#389=ORIENTED_EDGE('',*,*,#278,.T.);
#390=ORIENTED_EDGE('',*,*,#280,.F.);
#391=ORIENTED_EDGE('',*,*,#281,.F.);
#392=ORIENTED_EDGE('',*,*,#282,.T.);
#393=ORIENTED_EDGE('',*,*,#282,.F.);
#394=ORIENTED_EDGE('',*,*,#283,.F.);
#395=ORIENTED_EDGE('',*,*,#284,.F.);
#396=ORIENTED_EDGE('',*,*,#285,.F.);
#397=ORIENTED_EDGE('',*,*,#285,.T.);
#398=ORIENTED_EDGE('',*,*,#279,.T.);
#399=ORIENTED_EDGE('',*,*,#281,.T.);
#400=ORIENTED_EDGE('',*,*,#284,.T.);
#401=ORIENTED_EDGE('',*,*,#286,.T.);
#402=ORIENTED_EDGE('',*,*,#277,.F.);
#403=ORIENTED_EDGE('',*,*,#286,.F.);
#404=ORIENTED_EDGE('',*,*,#283,.T.);
#405=CYLINDRICAL_SURFACE('',#451,1.125);
#406=CYLINDRICAL_SURFACE('',#454,1.125);
#407=CYLINDRICAL_SURFACE('',#459,2.5);
#408=CYLINDRICAL_SURFACE('',#464,2.5);
#409=CYLINDRICAL_SURFACE('',#486,3.75);
#410=CYLINDRICAL_SURFACE('',#488,1.);
#411=CYLINDRICAL_SURFACE('',#495,1.5);
#412=CYLINDRICAL_SURFACE('',#503,1.5);
#413=ADVANCED_FACE('',(#42),#405,.F.);
#414=ADVANCED_FACE('',(#43),#406,.F.);
#415=ADVANCED_FACE('',(#44,#21),#31,.T.);
#416=ADVANCED_FACE('',(#45),#407,.T.);
#417=ADVANCED_FACE('',(#46,#22),#32,.T.);
#418=ADVANCED_FACE('',(#47,#23),#33,.T.);
#419=ADVANCED_FACE('',(#48),#408,.T.);
#420=ADVANCED_FACE('',(#49,#24),#34,.T.);
#421=ADVANCED_FACE('',(#50),#35,.F.);
#422=ADVANCED_FACE('',(#51,#25),#36,.F.);
#423=ADVANCED_FACE('',(#52,#26),#37,.T.);
#424=ADVANCED_FACE('',(#53),#19,.T.);
#425=ADVANCED_FACE('',(#54,#27),#17,.F.);
#426=ADVANCED_FACE('',(#55),#20,.T.);
#427=ADVANCED_FACE('',(#56),#38,.T.);
#428=ADVANCED_FACE('',(#57),#409,.T.);
#429=ADVANCED_FACE('',(#58),#39,.T.);
#430=ADVANCED_FACE('',(#59),#410,.F.);
#431=ADVANCED_FACE('',(#60,#28),#40,.T.);
#432=ADVANCED_FACE('',(#61,#29),#41,.T.);
#433=ADVANCED_FACE('',(#62),#411,.T.);
#434=ADVANCED_FACE('',(#63,#30),#18,.T.);
#435=ADVANCED_FACE('',(#64),#412,.F.);
#436=CLOSED_SHELL('',(#413,#414,#415,#416,#417,#418,#419,#420,#421,#422,
#423,#424,#425,#426,#427,#428,#429));
#437=CLOSED_SHELL('',(#430,#431,#432,#433,#434,#435));
#438=DERIVED_UNIT_ELEMENT(#440,1.);
#439=DERIVED_UNIT_ELEMENT(#771,-3.);
#440=(
MASS_UNIT()
NAMED_UNIT(*)
SI_UNIT(.KILO.,.GRAM.)
);
#441=DERIVED_UNIT((#438,#439));
#442=MEASURE_REPRESENTATION_ITEM('density measure',
POSITIVE_RATIO_MEASURE(7850.),#441);
#443=PROPERTY_DEFINITION_REPRESENTATION(#448,#445);
#444=PROPERTY_DEFINITION_REPRESENTATION(#449,#446);
#445=REPRESENTATION('material name',(#447),#768);
#446=REPRESENTATION('density',(#442),#768);
#447=DESCRIPTIVE_REPRESENTATION_ITEM('Steel','Steel');
#448=PROPERTY_DEFINITION('material property','material name',#778);
#449=PROPERTY_DEFINITION('material property','density of part',#778);
#450=AXIS2_PLACEMENT_3D('',#641,#504,#505);
#451=AXIS2_PLACEMENT_3D('',#642,#506,#507);
#452=AXIS2_PLACEMENT_3D('',#644,#508,#509);
#453=AXIS2_PLACEMENT_3D('',#647,#511,#512);
#454=AXIS2_PLACEMENT_3D('',#648,#513,#514);
#455=AXIS2_PLACEMENT_3D('',#650,#515,#516);
#456=AXIS2_PLACEMENT_3D('',#653,#518,#519);
#457=AXIS2_PLACEMENT_3D('',#654,#520,#521);
#458=AXIS2_PLACEMENT_3D('',#657,#522,#523);
#459=AXIS2_PLACEMENT_3D('',#663,#527,#528);
#460=AXIS2_PLACEMENT_3D('',#667,#530,#531);
#461=AXIS2_PLACEMENT_3D('',#669,#533,#534);
#462=AXIS2_PLACEMENT_3D('',#675,#538,#539);
#463=AXIS2_PLACEMENT_3D('',#678,#540,#541);
#464=AXIS2_PLACEMENT_3D('',#684,#545,#546);
#465=AXIS2_PLACEMENT_3D('',#687,#547,#548);
#466=AXIS2_PLACEMENT_3D('',#690,#551,#552);
#467=AXIS2_PLACEMENT_3D('',#696,#556,#557);
#468=AXIS2_PLACEMENT_3D('',#699,#560,#561);
#469=AXIS2_PLACEMENT_3D('',#703,#563,#564);
#470=AXIS2_PLACEMENT_3D('',#706,#566,#567);
#471=AXIS2_PLACEMENT_3D('',#707,#568,#569);
#472=AXIS2_PLACEMENT_3D('',#711,#571,#572);
#473=AXIS2_PLACEMENT_3D('',#714,#574,#575);
#474=AXIS2_PLACEMENT_3D('',#715,#576,#577);
#475=AXIS2_PLACEMENT_3D('',#717,#578,#579);
#476=AXIS2_PLACEMENT_3D('',#719,#580,#581);
#477=AXIS2_PLACEMENT_3D('',#721,#582,#583);
#478=AXIS2_PLACEMENT_3D('',#722,#584,#585);
#479=AXIS2_PLACEMENT_3D('',#723,#586,#587);
#480=AXIS2_PLACEMENT_3D('',#725,#588,#589);
#481=AXIS2_PLACEMENT_3D('',#727,#590,#591);
#482=AXIS2_PLACEMENT_3D('',#729,#592,#593);
#483=AXIS2_PLACEMENT_3D('',#730,#594,#595);
#484=AXIS2_PLACEMENT_3D('',#731,#596,#597);
#485=AXIS2_PLACEMENT_3D('',#732,#598,#599);
#486=AXIS2_PLACEMENT_3D('',#734,#601,#602);
#487=AXIS2_PLACEMENT_3D('',#736,#604,#605);
#488=AXIS2_PLACEMENT_3D('',#737,#606,#607);
#489=AXIS2_PLACEMENT_3D('',#739,#608,#609);
#490=AXIS2_PLACEMENT_3D('',#742,#611,#612);
#491=AXIS2_PLACEMENT_3D('',#743,#613,#614);
#492=AXIS2_PLACEMENT_3D('',#745,#615,#616);
#493=AXIS2_PLACEMENT_3D('',#746,#617,#618);
#494=AXIS2_PLACEMENT_3D('',#748,#619,#620);
#495=AXIS2_PLACEMENT_3D('',#749,#621,#622);
#496=AXIS2_PLACEMENT_3D('',#751,#623,#624);
#497=AXIS2_PLACEMENT_3D('',#753,#626,#627);
#498=AXIS2_PLACEMENT_3D('',#756,#628,#629);
#499=AXIS2_PLACEMENT_3D('',#758,#630,#631);
#500=AXIS2_PLACEMENT_3D('',#760,#632,#633);
#501=AXIS2_PLACEMENT_3D('',#761,#634,#635);
#502=AXIS2_PLACEMENT_3D('',#763,#636,#637);
#503=AXIS2_PLACEMENT_3D('',#764,#638,#639);
#504=DIRECTION('axis',(0.,0.,1.));
#505=DIRECTION('refdir',(1.,0.,0.));
#506=DIRECTION('center_axis',(-1.,0.,0.));
#507=DIRECTION('ref_axis',(0.,1.,0.));
#508=DIRECTION('center_axis',(-1.,0.,0.));
#509=DIRECTION('ref_axis',(0.,1.,0.));
#510=DIRECTION('',(-1.,0.,0.));
#511=DIRECTION('center_axis',(1.,0.,0.));
#512=DIRECTION('ref_axis',(0.,1.,0.));
#513=DIRECTION('center_axis',(-1.,0.,0.));
#514=DIRECTION('ref_axis',(0.,1.,0.));
#515=DIRECTION('center_axis',(-1.,0.,0.));
#516=DIRECTION('ref_axis',(0.,1.,0.));
#517=DIRECTION('',(-1.,0.,0.));
#518=DIRECTION('center_axis',(1.,0.,0.));
#519=DIRECTION('ref_axis',(0.,1.,0.));
#520=DIRECTION('center_axis',(-1.,0.,0.));
#521=DIRECTION('ref_axis',(0.,0.,1.));
#522=DIRECTION('center_axis',(1.,0.,0.));
#523=DIRECTION('ref_axis',(0.,0.707106781186547,-0.707106781186547));
#524=DIRECTION('',(0.,0.,1.));
#525=DIRECTION('',(0.,1.,0.));
#526=DIRECTION('',(0.,0.,1.));
#527=DIRECTION('center_axis',(1.,0.,0.));
#528=DIRECTION('ref_axis',(0.,-0.707106781186547,-0.707106781186547));
#529=DIRECTION('',(1.,0.,0.));
#530=DIRECTION('center_axis',(-1.,0.,0.));
#531=DIRECTION('ref_axis',(0.,0.707106781186547,-0.707106781186547));
#532=DIRECTION('',(-1.,0.,0.));
#533=DIRECTION('center_axis',(1.,0.,0.));
#534=DIRECTION('ref_axis',(0.,0.,-1.));
#535=DIRECTION('',(0.,0.,-1.));
#536=DIRECTION('',(0.,1.,0.));
#537=DIRECTION('',(0.,0.,1.));
#538=DIRECTION('center_axis',(-1.,0.,0.));
#539=DIRECTION('ref_axis',(0.,0.,1.));
#540=DIRECTION('center_axis',(1.,0.,0.));
#541=DIRECTION('ref_axis',(0.,0.707106781186547,-0.707106781186547));
#542=DIRECTION('',(0.,0.,-1.));
#543=DIRECTION('',(0.,1.,0.));
#544=DIRECTION('',(0.,0.,1.));
#545=DIRECTION('center_axis',(1.,0.,0.));
#546=DIRECTION('ref_axis',(0.,-0.707106781186547,-0.707106781186547));
#547=DIRECTION('center_axis',(-1.,0.,0.));
#548=DIRECTION('ref_axis',(0.,0.707106781186547,-0.707106781186547));
#549=DIRECTION('',(-1.,0.,0.));
#550=DIRECTION('',(1.,0.,0.));
#551=DIRECTION('center_axis',(1.,0.,0.));
#552=DIRECTION('ref_axis',(0.,0.,-1.));
#553=DIRECTION('',(0.,0.,-1.));
#554=DIRECTION('',(0.,1.,0.));
#555=DIRECTION('',(0.,0.,1.));
#556=DIRECTION('center_axis',(0.,0.,1.));
#557=DIRECTION('ref_axis',(1.,0.,0.));
#558=DIRECTION('',(1.,0.,0.));
#559=DIRECTION('',(-1.,0.,0.));
#560=DIRECTION('center_axis',(0.,1.,0.));
#561=DIRECTION('ref_axis',(1.,0.,0.));
#562=DIRECTION('',(-0.116443819035022,0.,0.993197280004602));
#563=DIRECTION('center_axis',(0.,1.,0.));
#564=DIRECTION('ref_axis',(1.,0.,0.));
#565=DIRECTION('',(-0.116443819035022,0.,-0.993197280004602));
#566=DIRECTION('center_axis',(0.,-1.,0.));
#567=DIRECTION('ref_axis',(0.,0.,1.));
#568=DIRECTION('center_axis',(0.,1.,0.));
#569=DIRECTION('ref_axis',(1.,0.,0.));
#570=DIRECTION('',(0.116443819035022,0.,0.993197280004602));
#571=DIRECTION('center_axis',(0.,1.,0.));
#572=DIRECTION('ref_axis',(1.,0.,0.));
#573=DIRECTION('',(0.116443819035022,0.,-0.993197280004602));
#574=DIRECTION('center_axis',(0.,1.,0.));
#575=DIRECTION('ref_axis',(0.,0.,-1.));
#576=DIRECTION('center_axis',(0.,-1.,0.));
#577=DIRECTION('ref_axis',(0.,0.,-1.));
#578=DIRECTION('center_axis',(-1.,0.,0.));
#579=DIRECTION('ref_axis',(0.,0.,1.));
#580=DIRECTION('center_axis',(0.,-1.,0.));
#581=DIRECTION('ref_axis',(0.,0.,-1.));
#582=DIRECTION('center_axis',(0.,-1.,0.));
#583=DIRECTION('ref_axis',(0.,0.,-1.));
#584=DIRECTION('center_axis',(0.,-1.,0.));
#585=DIRECTION('ref_axis',(0.,0.,-1.));
#586=DIRECTION('center_axis',(1.,0.,0.));
#587=DIRECTION('ref_axis',(0.,-1.,0.));
#588=DIRECTION('center_axis',(0.,0.,-1.));
#589=DIRECTION('ref_axis',(0.,1.,0.));
#590=DIRECTION('center_axis',(0.,0.,-1.));
#591=DIRECTION('ref_axis',(0.,1.,0.));
#592=DIRECTION('center_axis',(0.,1.,0.));
#593=DIRECTION('ref_axis',(0.,0.,1.));
#594=DIRECTION('center_axis',(0.,1.,0.));
#595=DIRECTION('ref_axis',(0.,0.,1.));
#596=DIRECTION('center_axis',(-1.,0.,0.));
#597=DIRECTION('ref_axis',(0.,0.,-1.));
#598=DIRECTION('center_axis',(0.993197280004602,0.,0.116443819035022));
#599=DIRECTION('ref_axis',(0.116443819035022,0.,-0.993197280004602));
#600=DIRECTION('',(0.,1.,0.));
#601=DIRECTION('center_axis',(0.,1.,0.));
#602=DIRECTION('ref_axis',(1.,0.,0.));
#603=DIRECTION('',(0.,1.,0.));
#604=DIRECTION('center_axis',(-0.993197280004602,0.,0.116443819035022));
#605=DIRECTION('ref_axis',(0.116443819035022,0.,0.993197280004602));
#606=DIRECTION('center_axis',(0.,1.,0.));
#607=DIRECTION('ref_axis',(1.,0.,0.));
#608=DIRECTION('center_axis',(0.,1.,0.));
#609=DIRECTION('ref_axis',(1.,0.,0.));
#610=DIRECTION('',(0.,1.,0.));
#611=DIRECTION('center_axis',(0.,-1.,0.));
#612=DIRECTION('ref_axis',(1.,0.,0.));
#613=DIRECTION('center_axis',(0.,1.,0.));
#614=DIRECTION('ref_axis',(0.,0.,1.));
#615=DIRECTION('center_axis',(0.,1.,0.));
#616=DIRECTION('ref_axis',(1.,0.,0.));
#617=DIRECTION('center_axis',(0.,-1.,0.));
#618=DIRECTION('ref_axis',(0.,0.,-1.));
#619=DIRECTION('center_axis',(0.,1.,0.));
#620=DIRECTION('ref_axis',(1.,0.,0.));
#621=DIRECTION('center_axis',(0.,1.,0.));
#622=DIRECTION('ref_axis',(0.,0.,1.));
#623=DIRECTION('center_axis',(0.,1.,0.));
#624=DIRECTION('ref_axis',(1.,0.,0.));
#625=DIRECTION('',(0.,-1.,0.));
#626=DIRECTION('center_axis',(1.,0.,0.));
#627=DIRECTION('ref_axis',(0.,-1.,0.));
#628=DIRECTION('center_axis',(0.,1.,0.));
#629=DIRECTION('ref_axis',(1.,0.,0.));
#630=DIRECTION('center_axis',(0.,0.,1.));
#631=DIRECTION('ref_axis',(0.,1.,0.));
#632=DIRECTION('center_axis',(0.,1.,0.));
#633=DIRECTION('ref_axis',(1.,0.,0.));
#634=DIRECTION('center_axis',(0.,1.,0.));
#635=DIRECTION('ref_axis',(1.,0.,0.));
#636=DIRECTION('center_axis',(0.,0.,1.));
#637=DIRECTION('ref_axis',(0.,1.,0.));
#638=DIRECTION('center_axis',(0.,1.,0.));
#639=DIRECTION('ref_axis',(0.,0.,1.));
#640=DIRECTION('',(0.,-1.,0.));
#641=CARTESIAN_POINT('',(0.,0.,0.));
#642=CARTESIAN_POINT('Origin',(16.,2.5,12.));
#643=CARTESIAN_POINT('',(16.,1.375,12.));
#644=CARTESIAN_POINT('Origin',(16.,2.5,12.));
#645=CARTESIAN_POINT('',(13.,1.375,12.));
#646=CARTESIAN_POINT('',(16.,1.375,12.));
#647=CARTESIAN_POINT('Origin',(13.,2.5,12.));
#648=CARTESIAN_POINT('Origin',(16.,2.5,12.));
#649=CARTESIAN_POINT('',(3.,1.375,12.));
#650=CARTESIAN_POINT('Origin',(3.,2.5,12.));
#651=CARTESIAN_POINT('',(0.,1.375,12.));
#652=CARTESIAN_POINT('',(16.,1.375,12.));
#653=CARTESIAN_POINT('Origin',(0.,2.5,12.));
#654=CARTESIAN_POINT('Origin',(0.,0.,0.));
#655=CARTESIAN_POINT('',(0.,0.,12.));
#656=CARTESIAN_POINT('',(0.,5.,12.));
#657=CARTESIAN_POINT('Origin',(0.,2.5,12.));
#658=CARTESIAN_POINT('',(0.,0.,50.));
#659=CARTESIAN_POINT('',(0.,0.,0.));
#660=CARTESIAN_POINT('',(0.,5.,50.));
#661=CARTESIAN_POINT('',(0.,0.,50.));
#662=CARTESIAN_POINT('',(0.,5.,0.));
#663=CARTESIAN_POINT('Origin',(12.,2.5,12.));
#664=CARTESIAN_POINT('',(3.,5.,12.));
#665=CARTESIAN_POINT('',(12.,5.,12.));
#666=CARTESIAN_POINT('',(3.,0.,12.));
#667=CARTESIAN_POINT('Origin',(3.,2.5,12.));
#668=CARTESIAN_POINT('',(12.,0.,12.));
#669=CARTESIAN_POINT('Origin',(3.,0.,10.));
#670=CARTESIAN_POINT('',(3.,5.,19.5));
#671=CARTESIAN_POINT('',(3.,5.,27.5));
#672=CARTESIAN_POINT('',(3.,0.,19.5));
#673=CARTESIAN_POINT('',(3.,0.,19.5));
#674=CARTESIAN_POINT('',(3.,0.,27.5));
#675=CARTESIAN_POINT('Origin',(13.,0.,0.));
#676=CARTESIAN_POINT('',(13.,0.,12.));
#677=CARTESIAN_POINT('',(13.,5.,12.));
#678=CARTESIAN_POINT('Origin',(13.,2.5,12.));
#679=CARTESIAN_POINT('',(13.,0.,19.5));
#680=CARTESIAN_POINT('',(13.,0.,10.));
#681=CARTESIAN_POINT('',(13.,5.,19.5));
#682=CARTESIAN_POINT('',(13.,0.,19.5));
#683=CARTESIAN_POINT('',(13.,5.,10.));
#684=CARTESIAN_POINT('Origin',(12.,2.5,12.));
#685=CARTESIAN_POINT('',(16.,5.,12.));
#686=CARTESIAN_POINT('',(16.,0.,12.));
#687=CARTESIAN_POINT('Origin',(16.,2.5,12.));
#688=CARTESIAN_POINT('',(12.,0.,12.));
#689=CARTESIAN_POINT('',(12.,5.,12.));
#690=CARTESIAN_POINT('Origin',(16.,0.,50.));
#691=CARTESIAN_POINT('',(16.,5.,50.));
#692=CARTESIAN_POINT('',(16.,5.,0.));
#693=CARTESIAN_POINT('',(16.,0.,50.));
#694=CARTESIAN_POINT('',(16.,0.,50.));
#695=CARTESIAN_POINT('',(16.,0.,0.));
#696=CARTESIAN_POINT('Origin',(3.,0.,19.5));
#697=CARTESIAN_POINT('',(5.5,0.,19.5));
#698=CARTESIAN_POINT('',(5.5,5.,19.5));
#699=CARTESIAN_POINT('Origin',(8.,0.,45.));
#700=CARTESIAN_POINT('',(11.75,0.,86.25));
#701=CARTESIAN_POINT('',(16.,0.,50.));
#702=CARTESIAN_POINT('',(4.25,0.,86.25));
#703=CARTESIAN_POINT('Origin',(8.,0.,86.25));
#704=CARTESIAN_POINT('',(4.25,0.,86.25));
#705=CARTESIAN_POINT('',(8.,0.,83.1371235167453));
#706=CARTESIAN_POINT('Origin',(8.,0.,86.25));
#707=CARTESIAN_POINT('Origin',(8.,5.,45.));
#708=CARTESIAN_POINT('',(4.25,5.,86.25));
#709=CARTESIAN_POINT('',(4.25,5.,86.25));
#710=CARTESIAN_POINT('',(11.75,5.,86.25));
#711=CARTESIAN_POINT('Origin',(8.,5.,86.25));
#712=CARTESIAN_POINT('',(16.,5.,50.));
#713=CARTESIAN_POINT('',(8.,5.,89.3628764832547));
#714=CARTESIAN_POINT('Origin',(8.,5.,86.25));
#715=CARTESIAN_POINT('Origin',(8.,4.5,86.25));
#716=CARTESIAN_POINT('',(8.,4.22972972972973,88.9422174990311));
#717=CARTESIAN_POINT('Origin',(8.,4.5,89.3628764832547));
#718=CARTESIAN_POINT('',(5.30778250096893,4.22972972972973,86.25));
#719=CARTESIAN_POINT('Origin',(8.,4.22972972972973,86.25));
#720=CARTESIAN_POINT('',(10.6922174990311,4.22972972972973,86.25));
#721=CARTESIAN_POINT('Origin',(8.,4.22972972972973,86.25));
#722=CARTESIAN_POINT('Origin',(8.,4.22972972972973,86.25));
#723=CARTESIAN_POINT('Origin',(8.,2.5,86.25));
#724=CARTESIAN_POINT('',(11.2,2.5,86.25));
#725=CARTESIAN_POINT('Origin',(8.,2.5,86.25));
#726=CARTESIAN_POINT('',(4.8,2.5,86.25));
#727=CARTESIAN_POINT('Origin',(8.,2.5,86.25));
#728=CARTESIAN_POINT('',(8.,0.77027027027027,83.5577825009689));
#729=CARTESIAN_POINT('Origin',(8.,0.77027027027027,86.25));
#730=CARTESIAN_POINT('Origin',(8.,0.5,86.25));
#731=CARTESIAN_POINT('Origin',(8.,0.5,83.1371235167453));
#732=CARTESIAN_POINT('Origin',(11.75,0.,86.25));
#733=CARTESIAN_POINT('',(11.75,0.,86.25));
#734=CARTESIAN_POINT('Origin',(8.,0.,86.25));
#735=CARTESIAN_POINT('',(4.25,0.,86.25));
#736=CARTESIAN_POINT('Origin',(0.,0.,50.));
#737=CARTESIAN_POINT('Origin',(8.,-1.,86.25));
#738=CARTESIAN_POINT('',(7.,-1.,86.25));
#739=CARTESIAN_POINT('Origin',(8.,-1.,86.25));
#740=CARTESIAN_POINT('',(7.,5.,86.25));
#741=CARTESIAN_POINT('',(7.,-1.,86.25));
#742=CARTESIAN_POINT('Origin',(8.,5.,86.25));
#743=CARTESIAN_POINT('Origin',(8.,5.,86.25));
#744=CARTESIAN_POINT('',(8.,5.,84.75));
#745=CARTESIAN_POINT('Origin',(8.,5.,86.25));
#746=CARTESIAN_POINT('Origin',(8.,-1.,87.75));
#747=CARTESIAN_POINT('',(8.,-1.,84.75));
#748=CARTESIAN_POINT('Origin',(8.,-1.,86.25));
#749=CARTESIAN_POINT('Origin',(8.,-0.520088579588053,86.25));
#750=CARTESIAN_POINT('',(8.,-0.0401771591761046,84.75));
#751=CARTESIAN_POINT('Origin',(8.,-0.0401771591761046,86.25));
#752=CARTESIAN_POINT('',(8.,-0.520088579588053,84.75));
#753=CARTESIAN_POINT('Origin',(8.,2.5,86.25));
#754=CARTESIAN_POINT('',(6.5,5.04017715917611,86.25));
#755=CARTESIAN_POINT('',(9.5,5.04017715917611,86.25));
#756=CARTESIAN_POINT('Origin',(8.,5.04017715917611,86.25));
#757=CARTESIAN_POINT('',(5.05,2.5,86.25));
#758=CARTESIAN_POINT('Origin',(8.,2.5,86.25));
#759=CARTESIAN_POINT('',(8.,5.04017715917611,84.75));
#760=CARTESIAN_POINT('Origin',(8.,5.04017715917611,86.25));
#761=CARTESIAN_POINT('Origin',(8.,5.04017715917611,86.25));
#762=CARTESIAN_POINT('',(10.95,2.5,86.25));
#763=CARTESIAN_POINT('Origin',(8.,2.5,86.25));
#764=CARTESIAN_POINT('Origin',(8.,5.02008857958805,86.25));
#765=CARTESIAN_POINT('',(8.,5.02008857958805,84.75));
#766=UNCERTAINTY_MEASURE_WITH_UNIT(LENGTH_MEASURE(0.01),#770,
'DISTANCE_ACCURACY_VALUE',
'Maximum model space distance between geometric entities at asserted c
onnectivities');
#767=UNCERTAINTY_MEASURE_WITH_UNIT(LENGTH_MEASURE(0.01),#770,
'DISTANCE_ACCURACY_VALUE',
'Maximum model space distance between geometric entities at asserted c
onnectivities');
#768=(
GEOMETRIC_REPRESENTATION_CONTEXT(3)
GLOBAL_UNCERTAINTY_ASSIGNED_CONTEXT((#766))
GLOBAL_UNIT_ASSIGNED_CONTEXT((#770,#772,#773))
REPRESENTATION_CONTEXT('','3D')
);
#769=(
GEOMETRIC_REPRESENTATION_CONTEXT(3)
GLOBAL_UNCERTAINTY_ASSIGNED_CONTEXT((#767))
GLOBAL_UNIT_ASSIGNED_CONTEXT((#770,#772,#773))
REPRESENTATION_CONTEXT('','3D')
);
#770=(
LENGTH_UNIT()
NAMED_UNIT(*)
SI_UNIT(.MILLI.,.METRE.)
);
#771=(
LENGTH_UNIT()
NAMED_UNIT(*)
SI_UNIT($,.METRE.)
);
#772=(
NAMED_UNIT(*)
PLANE_ANGLE_UNIT()
SI_UNIT($,.RADIAN.)
);
#773=(
NAMED_UNIT(*)
SI_UNIT($,.STERADIAN.)
SOLID_ANGLE_UNIT()
);
#774=SHAPE_DEFINITION_REPRESENTATION(#775,#776);
#775=PRODUCT_DEFINITION_SHAPE('',$,#778);
#776=SHAPE_REPRESENTATION('',(#450),#768);
#777=PRODUCT_DEFINITION_CONTEXT('part definition',#782,'design');
#778=PRODUCT_DEFINITION('top control arm  v3','top control arm  v3 v1',
#779,#777);
#779=PRODUCT_DEFINITION_FORMATION('',$,#784);
#780=PRODUCT_RELATED_PRODUCT_CATEGORY('top control arm  v3 v1',
'top control arm  v3 v1',(#784));
#781=APPLICATION_PROTOCOL_DEFINITION('international standard',
'automotive_design',2009,#782);
#782=APPLICATION_CONTEXT(
'Core Data for Automotive Mechanical Design Process');
#783=PRODUCT_CONTEXT('part definition',#782,'mechanical');
#784=PRODUCT('top control arm  v3','top control arm  v3 v1',$,(#783));
#785=PRESENTATION_STYLE_ASSIGNMENT((#786));
#786=SURFACE_STYLE_USAGE(.BOTH.,#787);
#787=SURFACE_SIDE_STYLE('',(#788));
#788=SURFACE_STYLE_FILL_AREA(#789);
#789=FILL_AREA_STYLE('Steel - Satin',(#790));
#790=FILL_AREA_STYLE_COLOUR('Steel - Satin',#791);
#791=COLOUR_RGB('Steel - Satin',0.627450980392157,0.627450980392157,0.627450980392157);
ENDSEC;
END-ISO-10303-21;
