ISO-10303-21;
HEADER;
/* Generated by software containing ST-Developer
 * from STEP Tools, Inc. (www.steptools.com) 
 */

FILE_DESCRIPTION(
/* description */ (''),
/* implementation_level */ '2;1');

FILE_NAME(
/* name */ 'u joint center Drive shaft v3.step',
/* time_stamp */ '2025-05-27T01:48:44-07:00',
/* author */ (''),
/* organization */ (''),
/* preprocessor_version */ 'ST-DEVELOPER v20.1',
/* originating_system */ 'Autodesk Translation Framework v14.10.0.0',
/* authorisation */ '');

FILE_SCHEMA (('AUTOMOTIVE_DESIGN { 1 0 10303 214 3 1 1 }'));
ENDSEC;

DATA;
#10=MECHANICAL_DESIGN_GEOMETRIC_PRESENTATION_REPRESENTATION('',(#13),#815);
#11=SHAPE_REPRESENTATION_RELATIONSHIP('SRR','None',#822,#12);
#12=ADVANCED_BREP_SHAPE_REPRESENTATION('',(#14),#814);
#13=STYLED_ITEM('',(#831),#14);
#14=MANIFOLD_SOLID_BREP('Body1',#451);
#15=FACE_BOUND('',#87,.T.);
#16=FACE_BOUND('',#90,.T.);
#17=FACE_BOUND('',#93,.T.);
#18=FACE_BOUND('',#95,.T.);
#19=PLANE('',#521);
#20=PLANE('',#522);
#21=PLANE('',#523);
#22=PLANE('',#525);
#23=PLANE('',#526);
#24=PLANE('',#527);
#25=SPHERICAL_SURFACE('',#477,0.625);
#26=SPHERICAL_SURFACE('',#481,0.625);
#27=SPHERICAL_SURFACE('',#485,0.625);
#28=SPHERICAL_SURFACE('',#489,0.625);
#29=SPHERICAL_SURFACE('',#493,0.625);
#30=SPHERICAL_SURFACE('',#497,0.625);
#31=SPHERICAL_SURFACE('',#501,0.625);
#32=SPHERICAL_SURFACE('',#505,0.625);
#33=FACE_OUTER_BOUND('',#63,.T.);
#34=FACE_OUTER_BOUND('',#64,.T.);
#35=FACE_OUTER_BOUND('',#65,.T.);
#36=FACE_OUTER_BOUND('',#66,.T.);
#37=FACE_OUTER_BOUND('',#67,.T.);
#38=FACE_OUTER_BOUND('',#68,.T.);
#39=FACE_OUTER_BOUND('',#69,.T.);
#40=FACE_OUTER_BOUND('',#70,.T.);
#41=FACE_OUTER_BOUND('',#71,.T.);
#42=FACE_OUTER_BOUND('',#72,.T.);
#43=FACE_OUTER_BOUND('',#73,.T.);
#44=FACE_OUTER_BOUND('',#74,.T.);
#45=FACE_OUTER_BOUND('',#75,.T.);
#46=FACE_OUTER_BOUND('',#76,.T.);
#47=FACE_OUTER_BOUND('',#77,.T.);
#48=FACE_OUTER_BOUND('',#78,.T.);
#49=FACE_OUTER_BOUND('',#79,.T.);
#50=FACE_OUTER_BOUND('',#80,.T.);
#51=FACE_OUTER_BOUND('',#81,.T.);
#52=FACE_OUTER_BOUND('',#82,.T.);
#53=FACE_OUTER_BOUND('',#83,.T.);
#54=FACE_OUTER_BOUND('',#84,.T.);
#55=FACE_OUTER_BOUND('',#85,.T.);
#56=FACE_OUTER_BOUND('',#86,.T.);
#57=FACE_OUTER_BOUND('',#88,.T.);
#58=FACE_OUTER_BOUND('',#89,.T.);
#59=FACE_OUTER_BOUND('',#91,.T.);
#60=FACE_OUTER_BOUND('',#92,.T.);
#61=FACE_OUTER_BOUND('',#94,.T.);
#62=FACE_OUTER_BOUND('',#96,.T.);
#63=EDGE_LOOP('',(#281,#282,#283,#284,#285,#286));
#64=EDGE_LOOP('',(#287,#288,#289,#290,#291,#292));
#65=EDGE_LOOP('',(#293,#294,#295,#296,#297));
#66=EDGE_LOOP('',(#298,#299,#300));
#67=EDGE_LOOP('',(#301,#302,#303));
#68=EDGE_LOOP('',(#304,#305,#306));
#69=EDGE_LOOP('',(#307,#308,#309));
#70=EDGE_LOOP('',(#310,#311,#312));
#71=EDGE_LOOP('',(#313,#314,#315));
#72=EDGE_LOOP('',(#316,#317,#318));
#73=EDGE_LOOP('',(#319,#320,#321));
#74=EDGE_LOOP('',(#322,#323,#324,#325));
#75=EDGE_LOOP('',(#326,#327,#328,#329));
#76=EDGE_LOOP('',(#330,#331,#332,#333));
#77=EDGE_LOOP('',(#334,#335,#336,#337));
#78=EDGE_LOOP('',(#338,#339,#340,#341));
#79=EDGE_LOOP('',(#342,#343,#344,#345));
#80=EDGE_LOOP('',(#346,#347,#348,#349));
#81=EDGE_LOOP('',(#350,#351,#352,#353));
#82=EDGE_LOOP('',(#354,#355,#356,#357));
#83=EDGE_LOOP('',(#358,#359,#360,#361));
#84=EDGE_LOOP('',(#362,#363,#364,#365));
#85=EDGE_LOOP('',(#366,#367,#368,#369));
#86=EDGE_LOOP('',(#370,#371,#372,#373));
#87=EDGE_LOOP('',(#374));
#88=EDGE_LOOP('',(#375,#376,#377,#378));
#89=EDGE_LOOP('',(#379,#380,#381,#382));
#90=EDGE_LOOP('',(#383));
#91=EDGE_LOOP('',(#384,#385,#386,#387));
#92=EDGE_LOOP('',(#388,#389,#390,#391));
#93=EDGE_LOOP('',(#392));
#94=EDGE_LOOP('',(#393,#394,#395,#396));
#95=EDGE_LOOP('',(#397));
#96=EDGE_LOOP('',(#398,#399,#400,#401,#402,#403,#404));
#97=CIRCLE('',#469,1.25);
#98=CIRCLE('',#471,1.25);
#99=CIRCLE('',#476,1.25000006519258);
#100=CIRCLE('',#478,0.625);
#101=CIRCLE('',#479,0.625);
#102=CIRCLE('',#480,0.625);
#103=CIRCLE('',#482,0.625);
#104=CIRCLE('',#483,0.625);
#105=CIRCLE('',#484,0.625);
#106=CIRCLE('',#486,0.625);
#107=CIRCLE('',#487,0.625);
#108=CIRCLE('',#488,0.625);
#109=CIRCLE('',#490,0.625);
#110=CIRCLE('',#491,0.625);
#111=CIRCLE('',#492,0.625);
#112=CIRCLE('',#494,0.625000000000001);
#113=CIRCLE('',#495,0.625);
#114=CIRCLE('',#496,0.625);
#115=CIRCLE('',#498,0.625);
#116=CIRCLE('',#499,0.625);
#117=CIRCLE('',#500,0.625);
#118=CIRCLE('',#502,0.625);
#119=CIRCLE('',#503,0.625);
#120=CIRCLE('',#504,0.625);
#121=CIRCLE('',#506,0.625000000000001);
#122=CIRCLE('',#507,0.625);
#123=CIRCLE('',#508,0.625);
#124=CIRCLE('',#524,1.25000006519258);
#125=LINE('',#696,#153);
#126=LINE('',#702,#154);
#127=LINE('',#708,#155);
#128=LINE('',#767,#156);
#129=LINE('',#768,#157);
#130=LINE('',#770,#158);
#131=LINE('',#771,#159);
#132=LINE('',#773,#160);
#133=LINE('',#774,#161);
#134=LINE('',#776,#162);
#135=LINE('',#777,#163);
#136=LINE('',#779,#164);
#137=LINE('',#780,#165);
#138=LINE('',#782,#166);
#139=LINE('',#783,#167);
#140=LINE('',#785,#168);
#141=LINE('',#786,#169);
#142=LINE('',#788,#170);
#143=LINE('',#789,#171);
#144=LINE('',#791,#172);
#145=LINE('',#792,#173);
#146=LINE('',#794,#174);
#147=LINE('',#795,#175);
#148=LINE('',#797,#176);
#149=LINE('',#798,#177);
#150=LINE('',#800,#178);
#151=LINE('',#801,#179);
#152=LINE('',#811,#180);
#153=VECTOR('',#539,1.25);
#154=VECTOR('',#546,1.25);
#155=VECTOR('',#555,1.25000006519258);
#156=VECTOR('',#624,6.25);
#157=VECTOR('',#625,6.25);
#158=VECTOR('',#628,6.25);
#159=VECTOR('',#629,6.25);
#160=VECTOR('',#632,6.25);
#161=VECTOR('',#633,6.25);
#162=VECTOR('',#636,6.25);
#163=VECTOR('',#637,6.25);
#164=VECTOR('',#640,6.25);
#165=VECTOR('',#641,6.25);
#166=VECTOR('',#644,6.25);
#167=VECTOR('',#645,6.25);
#168=VECTOR('',#648,6.25);
#169=VECTOR('',#649,6.25);
#170=VECTOR('',#652,6.25);
#171=VECTOR('',#653,6.25);
#172=VECTOR('',#656,6.25);
#173=VECTOR('',#657,6.25);
#174=VECTOR('',#660,6.25);
#175=VECTOR('',#661,6.25);
#176=VECTOR('',#664,6.25);
#177=VECTOR('',#665,6.25);
#178=VECTOR('',#668,6.25);
#179=VECTOR('',#669,6.25);
#180=VECTOR('',#686,1.25000006519258);
#181=ELLIPSE('',#466,1.76776699906449,1.25);
#182=ELLIPSE('',#467,1.76776699906449,1.25);
#183=ELLIPSE('',#468,1.76776699906449,1.25);
#184=ELLIPSE('',#472,1.76776699906449,1.25);
#185=ELLIPSE('',#473,1.76776699906449,1.25);
#186=ELLIPSE('',#474,1.76776699906449,1.25);
#187=VERTEX_POINT('',#689);
#188=VERTEX_POINT('',#690);
#189=VERTEX_POINT('',#692);
#190=VERTEX_POINT('',#695);
#191=VERTEX_POINT('',#699);
#192=VERTEX_POINT('',#701);
#193=VERTEX_POINT('',#707);
#194=VERTEX_POINT('',#711);
#195=VERTEX_POINT('',#712);
#196=VERTEX_POINT('',#714);
#197=VERTEX_POINT('',#718);
#198=VERTEX_POINT('',#719);
#199=VERTEX_POINT('',#721);
#200=VERTEX_POINT('',#725);
#201=VERTEX_POINT('',#726);
#202=VERTEX_POINT('',#728);
#203=VERTEX_POINT('',#732);
#204=VERTEX_POINT('',#733);
#205=VERTEX_POINT('',#735);
#206=VERTEX_POINT('',#739);
#207=VERTEX_POINT('',#740);
#208=VERTEX_POINT('',#742);
#209=VERTEX_POINT('',#746);
#210=VERTEX_POINT('',#747);
#211=VERTEX_POINT('',#749);
#212=VERTEX_POINT('',#753);
#213=VERTEX_POINT('',#754);
#214=VERTEX_POINT('',#756);
#215=VERTEX_POINT('',#760);
#216=VERTEX_POINT('',#761);
#217=VERTEX_POINT('',#763);
#218=VERTEX_POINT('',#805);
#219=EDGE_CURVE('',#187,#188,#181,.T.);
#220=EDGE_CURVE('',#189,#187,#182,.T.);
#221=EDGE_CURVE('',#188,#189,#183,.T.);
#222=EDGE_CURVE('',#188,#190,#125,.T.);
#223=EDGE_CURVE('',#190,#190,#97,.T.);
#224=EDGE_CURVE('',#191,#191,#98,.T.);
#225=EDGE_CURVE('',#191,#192,#126,.T.);
#226=EDGE_CURVE('',#189,#192,#184,.T.);
#227=EDGE_CURVE('',#187,#189,#185,.T.);
#228=EDGE_CURVE('',#192,#187,#186,.T.);
#229=EDGE_CURVE('',#189,#193,#127,.T.);
#230=EDGE_CURVE('',#193,#193,#99,.T.);
#231=EDGE_CURVE('',#194,#195,#100,.F.);
#232=EDGE_CURVE('',#196,#194,#101,.F.);
#233=EDGE_CURVE('',#195,#196,#102,.F.);
#234=EDGE_CURVE('',#197,#198,#103,.F.);
#235=EDGE_CURVE('',#199,#197,#104,.F.);
#236=EDGE_CURVE('',#198,#199,#105,.F.);
#237=EDGE_CURVE('',#200,#201,#106,.F.);
#238=EDGE_CURVE('',#202,#200,#107,.F.);
#239=EDGE_CURVE('',#201,#202,#108,.F.);
#240=EDGE_CURVE('',#203,#204,#109,.F.);
#241=EDGE_CURVE('',#205,#203,#110,.F.);
#242=EDGE_CURVE('',#204,#205,#111,.F.);
#243=EDGE_CURVE('',#206,#207,#112,.F.);
#244=EDGE_CURVE('',#208,#206,#113,.F.);
#245=EDGE_CURVE('',#207,#208,#114,.F.);
#246=EDGE_CURVE('',#209,#210,#115,.F.);
#247=EDGE_CURVE('',#211,#209,#116,.F.);
#248=EDGE_CURVE('',#210,#211,#117,.F.);
#249=EDGE_CURVE('',#212,#213,#118,.F.);
#250=EDGE_CURVE('',#214,#212,#119,.F.);
#251=EDGE_CURVE('',#213,#214,#120,.F.);
#252=EDGE_CURVE('',#215,#216,#121,.F.);
#253=EDGE_CURVE('',#217,#215,#122,.F.);
#254=EDGE_CURVE('',#216,#217,#123,.F.);
#255=EDGE_CURVE('',#209,#217,#128,.T.);
#256=EDGE_CURVE('',#215,#211,#129,.T.);
#257=EDGE_CURVE('',#217,#208,#130,.T.);
#258=EDGE_CURVE('',#206,#216,#131,.T.);
#259=EDGE_CURVE('',#212,#215,#132,.T.);
#260=EDGE_CURVE('',#216,#214,#133,.T.);
#261=EDGE_CURVE('',#201,#213,#134,.T.);
#262=EDGE_CURVE('',#214,#200,#135,.T.);
#263=EDGE_CURVE('',#213,#204,#136,.T.);
#264=EDGE_CURVE('',#205,#212,#137,.T.);
#265=EDGE_CURVE('',#203,#210,#138,.T.);
#266=EDGE_CURVE('',#211,#205,#139,.T.);
#267=EDGE_CURVE('',#199,#209,#140,.T.);
#268=EDGE_CURVE('',#210,#198,#141,.T.);
#269=EDGE_CURVE('',#208,#199,#142,.T.);
#270=EDGE_CURVE('',#197,#207,#143,.T.);
#271=EDGE_CURVE('',#200,#206,#144,.T.);
#272=EDGE_CURVE('',#207,#202,#145,.T.);
#273=EDGE_CURVE('',#204,#195,#146,.T.);
#274=EDGE_CURVE('',#196,#203,#147,.T.);
#275=EDGE_CURVE('',#195,#201,#148,.T.);
#276=EDGE_CURVE('',#202,#194,#149,.T.);
#277=EDGE_CURVE('',#194,#197,#150,.T.);
#278=EDGE_CURVE('',#198,#196,#151,.T.);
#279=EDGE_CURVE('',#218,#218,#124,.T.);
#280=EDGE_CURVE('',#218,#189,#152,.T.);
#281=ORIENTED_EDGE('',*,*,#219,.F.);
#282=ORIENTED_EDGE('',*,*,#220,.F.);
#283=ORIENTED_EDGE('',*,*,#221,.F.);
#284=ORIENTED_EDGE('',*,*,#222,.T.);
#285=ORIENTED_EDGE('',*,*,#223,.F.);
#286=ORIENTED_EDGE('',*,*,#222,.F.);
#287=ORIENTED_EDGE('',*,*,#224,.F.);
#288=ORIENTED_EDGE('',*,*,#225,.T.);
#289=ORIENTED_EDGE('',*,*,#226,.F.);
#290=ORIENTED_EDGE('',*,*,#227,.F.);
#291=ORIENTED_EDGE('',*,*,#228,.F.);
#292=ORIENTED_EDGE('',*,*,#225,.F.);
#293=ORIENTED_EDGE('',*,*,#227,.T.);
#294=ORIENTED_EDGE('',*,*,#229,.T.);
#295=ORIENTED_EDGE('',*,*,#230,.F.);
#296=ORIENTED_EDGE('',*,*,#229,.F.);
#297=ORIENTED_EDGE('',*,*,#220,.T.);
#298=ORIENTED_EDGE('',*,*,#231,.F.);
#299=ORIENTED_EDGE('',*,*,#232,.F.);
#300=ORIENTED_EDGE('',*,*,#233,.F.);
#301=ORIENTED_EDGE('',*,*,#234,.F.);
#302=ORIENTED_EDGE('',*,*,#235,.F.);
#303=ORIENTED_EDGE('',*,*,#236,.F.);
#304=ORIENTED_EDGE('',*,*,#237,.F.);
#305=ORIENTED_EDGE('',*,*,#238,.F.);
#306=ORIENTED_EDGE('',*,*,#239,.F.);
#307=ORIENTED_EDGE('',*,*,#240,.F.);
#308=ORIENTED_EDGE('',*,*,#241,.F.);
#309=ORIENTED_EDGE('',*,*,#242,.F.);
#310=ORIENTED_EDGE('',*,*,#243,.F.);
#311=ORIENTED_EDGE('',*,*,#244,.F.);
#312=ORIENTED_EDGE('',*,*,#245,.F.);
#313=ORIENTED_EDGE('',*,*,#246,.F.);
#314=ORIENTED_EDGE('',*,*,#247,.F.);
#315=ORIENTED_EDGE('',*,*,#248,.F.);
#316=ORIENTED_EDGE('',*,*,#249,.F.);
#317=ORIENTED_EDGE('',*,*,#250,.F.);
#318=ORIENTED_EDGE('',*,*,#251,.F.);
#319=ORIENTED_EDGE('',*,*,#252,.F.);
#320=ORIENTED_EDGE('',*,*,#253,.F.);
#321=ORIENTED_EDGE('',*,*,#254,.F.);
#322=ORIENTED_EDGE('',*,*,#247,.T.);
#323=ORIENTED_EDGE('',*,*,#255,.T.);
#324=ORIENTED_EDGE('',*,*,#253,.T.);
#325=ORIENTED_EDGE('',*,*,#256,.T.);
#326=ORIENTED_EDGE('',*,*,#254,.T.);
#327=ORIENTED_EDGE('',*,*,#257,.T.);
#328=ORIENTED_EDGE('',*,*,#244,.T.);
#329=ORIENTED_EDGE('',*,*,#258,.T.);
#330=ORIENTED_EDGE('',*,*,#250,.T.);
#331=ORIENTED_EDGE('',*,*,#259,.T.);
#332=ORIENTED_EDGE('',*,*,#252,.T.);
#333=ORIENTED_EDGE('',*,*,#260,.T.);
#334=ORIENTED_EDGE('',*,*,#237,.T.);
#335=ORIENTED_EDGE('',*,*,#261,.T.);
#336=ORIENTED_EDGE('',*,*,#251,.T.);
#337=ORIENTED_EDGE('',*,*,#262,.T.);
#338=ORIENTED_EDGE('',*,*,#249,.T.);
#339=ORIENTED_EDGE('',*,*,#263,.T.);
#340=ORIENTED_EDGE('',*,*,#242,.T.);
#341=ORIENTED_EDGE('',*,*,#264,.T.);
#342=ORIENTED_EDGE('',*,*,#241,.T.);
#343=ORIENTED_EDGE('',*,*,#265,.T.);
#344=ORIENTED_EDGE('',*,*,#248,.T.);
#345=ORIENTED_EDGE('',*,*,#266,.T.);
#346=ORIENTED_EDGE('',*,*,#236,.T.);
#347=ORIENTED_EDGE('',*,*,#267,.T.);
#348=ORIENTED_EDGE('',*,*,#246,.T.);
#349=ORIENTED_EDGE('',*,*,#268,.T.);
#350=ORIENTED_EDGE('',*,*,#245,.T.);
#351=ORIENTED_EDGE('',*,*,#269,.T.);
#352=ORIENTED_EDGE('',*,*,#235,.T.);
#353=ORIENTED_EDGE('',*,*,#270,.T.);
#354=ORIENTED_EDGE('',*,*,#238,.T.);
#355=ORIENTED_EDGE('',*,*,#271,.T.);
#356=ORIENTED_EDGE('',*,*,#243,.T.);
#357=ORIENTED_EDGE('',*,*,#272,.T.);
#358=ORIENTED_EDGE('',*,*,#240,.T.);
#359=ORIENTED_EDGE('',*,*,#273,.T.);
#360=ORIENTED_EDGE('',*,*,#233,.T.);
#361=ORIENTED_EDGE('',*,*,#274,.T.);
#362=ORIENTED_EDGE('',*,*,#231,.T.);
#363=ORIENTED_EDGE('',*,*,#275,.T.);
#364=ORIENTED_EDGE('',*,*,#239,.T.);
#365=ORIENTED_EDGE('',*,*,#276,.T.);
#366=ORIENTED_EDGE('',*,*,#232,.T.);
#367=ORIENTED_EDGE('',*,*,#277,.T.);
#368=ORIENTED_EDGE('',*,*,#234,.T.);
#369=ORIENTED_EDGE('',*,*,#278,.T.);
#370=ORIENTED_EDGE('',*,*,#256,.F.);
#371=ORIENTED_EDGE('',*,*,#259,.F.);
#372=ORIENTED_EDGE('',*,*,#264,.F.);
#373=ORIENTED_EDGE('',*,*,#266,.F.);
#374=ORIENTED_EDGE('',*,*,#224,.T.);
#375=ORIENTED_EDGE('',*,*,#255,.F.);
#376=ORIENTED_EDGE('',*,*,#267,.F.);
#377=ORIENTED_EDGE('',*,*,#269,.F.);
#378=ORIENTED_EDGE('',*,*,#257,.F.);
#379=ORIENTED_EDGE('',*,*,#258,.F.);
#380=ORIENTED_EDGE('',*,*,#271,.F.);
#381=ORIENTED_EDGE('',*,*,#262,.F.);
#382=ORIENTED_EDGE('',*,*,#260,.F.);
#383=ORIENTED_EDGE('',*,*,#279,.T.);
#384=ORIENTED_EDGE('',*,*,#261,.F.);
#385=ORIENTED_EDGE('',*,*,#275,.F.);
#386=ORIENTED_EDGE('',*,*,#273,.F.);
#387=ORIENTED_EDGE('',*,*,#263,.F.);
#388=ORIENTED_EDGE('',*,*,#265,.F.);
#389=ORIENTED_EDGE('',*,*,#274,.F.);
#390=ORIENTED_EDGE('',*,*,#278,.F.);
#391=ORIENTED_EDGE('',*,*,#268,.F.);
#392=ORIENTED_EDGE('',*,*,#230,.T.);
#393=ORIENTED_EDGE('',*,*,#270,.F.);
#394=ORIENTED_EDGE('',*,*,#277,.F.);
#395=ORIENTED_EDGE('',*,*,#276,.F.);
#396=ORIENTED_EDGE('',*,*,#272,.F.);
#397=ORIENTED_EDGE('',*,*,#223,.T.);
#398=ORIENTED_EDGE('',*,*,#279,.F.);
#399=ORIENTED_EDGE('',*,*,#280,.T.);
#400=ORIENTED_EDGE('',*,*,#226,.T.);
#401=ORIENTED_EDGE('',*,*,#228,.T.);
#402=ORIENTED_EDGE('',*,*,#219,.T.);
#403=ORIENTED_EDGE('',*,*,#221,.T.);
#404=ORIENTED_EDGE('',*,*,#280,.F.);
#405=CYLINDRICAL_SURFACE('',#465,1.25);
#406=CYLINDRICAL_SURFACE('',#470,1.25);
#407=CYLINDRICAL_SURFACE('',#475,1.25000006519258);
#408=CYLINDRICAL_SURFACE('',#509,0.625);
#409=CYLINDRICAL_SURFACE('',#510,0.625);
#410=CYLINDRICAL_SURFACE('',#511,0.625);
#411=CYLINDRICAL_SURFACE('',#512,0.625);
#412=CYLINDRICAL_SURFACE('',#513,0.625);
#413=CYLINDRICAL_SURFACE('',#514,0.625);
#414=CYLINDRICAL_SURFACE('',#515,0.625);
#415=CYLINDRICAL_SURFACE('',#516,0.625);
#416=CYLINDRICAL_SURFACE('',#517,0.625);
#417=CYLINDRICAL_SURFACE('',#518,0.625);
#418=CYLINDRICAL_SURFACE('',#519,0.625);
#419=CYLINDRICAL_SURFACE('',#520,0.625);
#420=CYLINDRICAL_SURFACE('',#528,1.25000006519258);
#421=ADVANCED_FACE('',(#33),#405,.F.);
#422=ADVANCED_FACE('',(#34),#406,.F.);
#423=ADVANCED_FACE('',(#35),#407,.F.);
#424=ADVANCED_FACE('',(#36),#25,.T.);
#425=ADVANCED_FACE('',(#37),#26,.T.);
#426=ADVANCED_FACE('',(#38),#27,.T.);
#427=ADVANCED_FACE('',(#39),#28,.T.);
#428=ADVANCED_FACE('',(#40),#29,.T.);
#429=ADVANCED_FACE('',(#41),#30,.T.);
#430=ADVANCED_FACE('',(#42),#31,.T.);
#431=ADVANCED_FACE('',(#43),#32,.T.);
#432=ADVANCED_FACE('',(#44),#408,.T.);
#433=ADVANCED_FACE('',(#45),#409,.T.);
#434=ADVANCED_FACE('',(#46),#410,.T.);
#435=ADVANCED_FACE('',(#47),#411,.T.);
#436=ADVANCED_FACE('',(#48),#412,.T.);
#437=ADVANCED_FACE('',(#49),#413,.T.);
#438=ADVANCED_FACE('',(#50),#414,.T.);
#439=ADVANCED_FACE('',(#51),#415,.T.);
#440=ADVANCED_FACE('',(#52),#416,.T.);
#441=ADVANCED_FACE('',(#53),#417,.T.);
#442=ADVANCED_FACE('',(#54),#418,.T.);
#443=ADVANCED_FACE('',(#55),#419,.T.);
#444=ADVANCED_FACE('',(#56,#15),#19,.T.);
#445=ADVANCED_FACE('',(#57),#20,.F.);
#446=ADVANCED_FACE('',(#58,#16),#21,.T.);
#447=ADVANCED_FACE('',(#59),#22,.T.);
#448=ADVANCED_FACE('',(#60,#17),#23,.T.);
#449=ADVANCED_FACE('',(#61,#18),#24,.T.);
#450=ADVANCED_FACE('',(#62),#420,.F.);
#451=CLOSED_SHELL('',(#421,#422,#423,#424,#425,#426,#427,#428,#429,#430,
#431,#432,#433,#434,#435,#436,#437,#438,#439,#440,#441,#442,#443,#444,#445,
#446,#447,#448,#449,#450));
#452=DERIVED_UNIT_ELEMENT(#454,1.);
#453=DERIVED_UNIT_ELEMENT(#817,-3.);
#454=(
MASS_UNIT()
NAMED_UNIT(*)
SI_UNIT(.KILO.,.GRAM.)
);
#455=DERIVED_UNIT((#452,#453));
#456=MEASURE_REPRESENTATION_ITEM('density measure',
POSITIVE_RATIO_MEASURE(7850.),#455);
#457=PROPERTY_DEFINITION_REPRESENTATION(#462,#459);
#458=PROPERTY_DEFINITION_REPRESENTATION(#463,#460);
#459=REPRESENTATION('material name',(#461),#814);
#460=REPRESENTATION('density',(#456),#814);
#461=DESCRIPTIVE_REPRESENTATION_ITEM('Steel','Steel');
#462=PROPERTY_DEFINITION('material property','material name',#824);
#463=PROPERTY_DEFINITION('material property','density of part',#824);
#464=AXIS2_PLACEMENT_3D('',#687,#529,#530);
#465=AXIS2_PLACEMENT_3D('',#688,#531,#532);
#466=AXIS2_PLACEMENT_3D('',#691,#533,#534);
#467=AXIS2_PLACEMENT_3D('',#693,#535,#536);
#468=AXIS2_PLACEMENT_3D('',#694,#537,#538);
#469=AXIS2_PLACEMENT_3D('',#697,#540,#541);
#470=AXIS2_PLACEMENT_3D('',#698,#542,#543);
#471=AXIS2_PLACEMENT_3D('',#700,#544,#545);
#472=AXIS2_PLACEMENT_3D('',#703,#547,#548);
#473=AXIS2_PLACEMENT_3D('',#704,#549,#550);
#474=AXIS2_PLACEMENT_3D('',#705,#551,#552);
#475=AXIS2_PLACEMENT_3D('',#706,#553,#554);
#476=AXIS2_PLACEMENT_3D('',#709,#556,#557);
#477=AXIS2_PLACEMENT_3D('',#710,#558,#559);
#478=AXIS2_PLACEMENT_3D('',#713,#560,#561);
#479=AXIS2_PLACEMENT_3D('',#715,#562,#563);
#480=AXIS2_PLACEMENT_3D('',#716,#564,#565);
#481=AXIS2_PLACEMENT_3D('',#717,#566,#567);
#482=AXIS2_PLACEMENT_3D('',#720,#568,#569);
#483=AXIS2_PLACEMENT_3D('',#722,#570,#571);
#484=AXIS2_PLACEMENT_3D('',#723,#572,#573);
#485=AXIS2_PLACEMENT_3D('',#724,#574,#575);
#486=AXIS2_PLACEMENT_3D('',#727,#576,#577);
#487=AXIS2_PLACEMENT_3D('',#729,#578,#579);
#488=AXIS2_PLACEMENT_3D('',#730,#580,#581);
#489=AXIS2_PLACEMENT_3D('',#731,#582,#583);
#490=AXIS2_PLACEMENT_3D('',#734,#584,#585);
#491=AXIS2_PLACEMENT_3D('',#736,#586,#587);
#492=AXIS2_PLACEMENT_3D('',#737,#588,#589);
#493=AXIS2_PLACEMENT_3D('',#738,#590,#591);
#494=AXIS2_PLACEMENT_3D('',#741,#592,#593);
#495=AXIS2_PLACEMENT_3D('',#743,#594,#595);
#496=AXIS2_PLACEMENT_3D('',#744,#596,#597);
#497=AXIS2_PLACEMENT_3D('',#745,#598,#599);
#498=AXIS2_PLACEMENT_3D('',#748,#600,#601);
#499=AXIS2_PLACEMENT_3D('',#750,#602,#603);
#500=AXIS2_PLACEMENT_3D('',#751,#604,#605);
#501=AXIS2_PLACEMENT_3D('',#752,#606,#607);
#502=AXIS2_PLACEMENT_3D('',#755,#608,#609);
#503=AXIS2_PLACEMENT_3D('',#757,#610,#611);
#504=AXIS2_PLACEMENT_3D('',#758,#612,#613);
#505=AXIS2_PLACEMENT_3D('',#759,#614,#615);
#506=AXIS2_PLACEMENT_3D('',#762,#616,#617);
#507=AXIS2_PLACEMENT_3D('',#764,#618,#619);
#508=AXIS2_PLACEMENT_3D('',#765,#620,#621);
#509=AXIS2_PLACEMENT_3D('',#766,#622,#623);
#510=AXIS2_PLACEMENT_3D('',#769,#626,#627);
#511=AXIS2_PLACEMENT_3D('',#772,#630,#631);
#512=AXIS2_PLACEMENT_3D('',#775,#634,#635);
#513=AXIS2_PLACEMENT_3D('',#778,#638,#639);
#514=AXIS2_PLACEMENT_3D('',#781,#642,#643);
#515=AXIS2_PLACEMENT_3D('',#784,#646,#647);
#516=AXIS2_PLACEMENT_3D('',#787,#650,#651);
#517=AXIS2_PLACEMENT_3D('',#790,#654,#655);
#518=AXIS2_PLACEMENT_3D('',#793,#658,#659);
#519=AXIS2_PLACEMENT_3D('',#796,#662,#663);
#520=AXIS2_PLACEMENT_3D('',#799,#666,#667);
#521=AXIS2_PLACEMENT_3D('',#802,#670,#671);
#522=AXIS2_PLACEMENT_3D('',#803,#672,#673);
#523=AXIS2_PLACEMENT_3D('',#804,#674,#675);
#524=AXIS2_PLACEMENT_3D('',#806,#676,#677);
#525=AXIS2_PLACEMENT_3D('',#807,#678,#679);
#526=AXIS2_PLACEMENT_3D('',#808,#680,#681);
#527=AXIS2_PLACEMENT_3D('',#809,#682,#683);
#528=AXIS2_PLACEMENT_3D('',#810,#684,#685);
#529=DIRECTION('axis',(0.,0.,1.));
#530=DIRECTION('refdir',(1.,0.,0.));
#531=DIRECTION('center_axis',(0.,0.,-1.));
#532=DIRECTION('ref_axis',(-1.,0.,0.));
#533=DIRECTION('center_axis',(-0.707106799625793,0.,-0.707106762747302));
#534=DIRECTION('ref_axis',(-0.707106762747301,0.,0.707106799625793));
#535=DIRECTION('center_axis',(0.707106799625793,0.,-0.707106762747302));
#536=DIRECTION('ref_axis',(-0.707106762747301,0.,-0.707106799625793));
#537=DIRECTION('center_axis',(-0.707106799625793,0.,-0.707106762747302));
#538=DIRECTION('ref_axis',(-0.707106762747301,0.,0.707106799625793));
#539=DIRECTION('',(0.,0.,-1.));
#540=DIRECTION('center_axis',(0.,0.,1.));
#541=DIRECTION('ref_axis',(-1.,0.,0.));
#542=DIRECTION('center_axis',(0.,0.,-1.));
#543=DIRECTION('ref_axis',(-1.,0.,0.));
#544=DIRECTION('center_axis',(0.,0.,-1.));
#545=DIRECTION('ref_axis',(-1.,0.,0.));
#546=DIRECTION('',(0.,0.,-1.));
#547=DIRECTION('center_axis',(-0.707106799625793,0.,0.707106762747302));
#548=DIRECTION('ref_axis',(-0.707106762747301,0.,-0.707106799625793));
#549=DIRECTION('center_axis',(0.707106799625793,0.,0.707106762747302));
#550=DIRECTION('ref_axis',(-0.707106762747301,0.,0.707106799625793));
#551=DIRECTION('center_axis',(-0.707106799625793,0.,0.707106762747302));
#552=DIRECTION('ref_axis',(-0.707106762747301,0.,-0.707106799625793));
#553=DIRECTION('center_axis',(-1.,0.,0.));
#554=DIRECTION('ref_axis',(0.,1.,0.));
#555=DIRECTION('',(-1.,0.,0.));
#556=DIRECTION('center_axis',(1.,0.,0.));
#557=DIRECTION('ref_axis',(0.,1.,0.));
#558=DIRECTION('center_axis',(-0.408248290463864,-0.816496580927726,-0.408248290463864));
#559=DIRECTION('ref_axis',(-0.577350269189626,0.577350269189626,-0.577350269189626));
#560=DIRECTION('center_axis',(-1.,0.,0.));
#561=DIRECTION('ref_axis',(0.,0.,-1.));
#562=DIRECTION('center_axis',(0.,1.,0.));
#563=DIRECTION('ref_axis',(-1.,0.,0.));
#564=DIRECTION('center_axis',(0.,0.,-1.));
#565=DIRECTION('ref_axis',(0.,1.,0.));
#566=DIRECTION('center_axis',(0.408248290463863,-0.816496580927726,0.408248290463864));
#567=DIRECTION('ref_axis',(-0.577350269189626,-0.577350269189626,-0.577350269189626));
#568=DIRECTION('center_axis',(0.,-1.,0.));
#569=DIRECTION('ref_axis',(0.,0.,-1.));
#570=DIRECTION('center_axis',(-1.,0.,0.));
#571=DIRECTION('ref_axis',(0.,-1.,0.));
#572=DIRECTION('center_axis',(0.,0.,-1.));
#573=DIRECTION('ref_axis',(-1.,0.,0.));
#574=DIRECTION('center_axis',(-0.408248290463863,-0.408248290463863,-0.816496580927727));
#575=DIRECTION('ref_axis',(0.577350269189626,0.577350269189626,-0.577350269189626));
#576=DIRECTION('center_axis',(0.,0.,-1.));
#577=DIRECTION('ref_axis',(1.,0.,0.));
#578=DIRECTION('center_axis',(0.,1.,0.));
#579=DIRECTION('ref_axis',(0.,0.,-1.));
#580=DIRECTION('center_axis',(1.,0.,-1.11022302462516E-15));
#581=DIRECTION('ref_axis',(0.,1.,0.));
#582=DIRECTION('center_axis',(-0.408248290463863,0.408248290463862,-0.816496580927726));
#583=DIRECTION('ref_axis',(-0.577350269189626,0.577350269189626,0.577350269189626));
#584=DIRECTION('center_axis',(0.,0.,1.));
#585=DIRECTION('ref_axis',(-1.,0.,0.));
#586=DIRECTION('center_axis',(0.,1.,0.));
#587=DIRECTION('ref_axis',(0.,0.,1.));
#588=DIRECTION('center_axis',(-1.,0.,0.));
#589=DIRECTION('ref_axis',(0.,1.,0.));
#590=DIRECTION('center_axis',(-0.816496580927727,-0.408248290463862,-0.408248290463862));
#591=DIRECTION('ref_axis',(0.577350269189626,-0.577350269189626,-0.577350269189626));
#592=DIRECTION('center_axis',(0.,-1.,0.));
#593=DIRECTION('ref_axis',(1.,0.,0.));
#594=DIRECTION('center_axis',(0.,0.,-1.));
#595=DIRECTION('ref_axis',(0.,-1.,0.));
#596=DIRECTION('center_axis',(1.,1.11022302462516E-15,0.));
#597=DIRECTION('ref_axis',(0.,0.,-1.));
#598=DIRECTION('center_axis',(-0.816496580927726,0.408248290463862,-0.408248290463863));
#599=DIRECTION('ref_axis',(-0.577350269189626,-0.577350269189626,0.577350269189626));
#600=DIRECTION('center_axis',(0.,0.,1.));
#601=DIRECTION('ref_axis',(0.,-1.,0.));
#602=DIRECTION('center_axis',(-1.,0.,0.));
#603=DIRECTION('ref_axis',(0.,0.,1.));
#604=DIRECTION('center_axis',(0.,-1.,0.));
#605=DIRECTION('ref_axis',(-1.,0.,0.));
#606=DIRECTION('center_axis',(0.408248290463862,-0.816496580927726,0.408248290463863));
#607=DIRECTION('ref_axis',(0.577350269189625,0.577350269189625,0.577350269189627));
#608=DIRECTION('center_axis',(1.,0.,0.));
#609=DIRECTION('ref_axis',(0.,0.,1.));
#610=DIRECTION('center_axis',(0.,1.,0.));
#611=DIRECTION('ref_axis',(1.,0.,0.));
#612=DIRECTION('center_axis',(1.11022302462516E-15,0.,1.));
#613=DIRECTION('ref_axis',(0.,1.,0.));
#614=DIRECTION('center_axis',(-0.816496580927727,-0.408248290463862,0.408248290463862));
#615=DIRECTION('ref_axis',(0.577350269189626,-0.577350269189626,0.577350269189626));
#616=DIRECTION('center_axis',(0.,-1.,0.));
#617=DIRECTION('ref_axis',(0.,0.,1.));
#618=DIRECTION('center_axis',(1.,0.,0.));
#619=DIRECTION('ref_axis',(0.,-1.,0.));
#620=DIRECTION('center_axis',(0.,1.11022302462516E-15,1.));
#621=DIRECTION('ref_axis',(1.,0.,0.));
#622=DIRECTION('center_axis',(-1.,0.,0.));
#623=DIRECTION('ref_axis',(0.,-0.707106781186548,0.707106781186547));
#624=DIRECTION('',(1.,0.,0.));
#625=DIRECTION('',(-1.,0.,0.));
#626=DIRECTION('center_axis',(0.,0.,1.));
#627=DIRECTION('ref_axis',(0.707106781186547,-0.707106781186548,0.));
#628=DIRECTION('',(0.,0.,-1.));
#629=DIRECTION('',(0.,0.,1.));
#630=DIRECTION('center_axis',(0.,1.,0.));
#631=DIRECTION('ref_axis',(0.707106781186547,0.,0.707106781186548));
#632=DIRECTION('',(0.,-1.,0.));
#633=DIRECTION('',(0.,1.,0.));
#634=DIRECTION('center_axis',(0.,0.,-1.));
#635=DIRECTION('ref_axis',(0.707106781186548,0.707106781186548,0.));
#636=DIRECTION('',(0.,0.,1.));
#637=DIRECTION('',(0.,0.,-1.));
#638=DIRECTION('center_axis',(1.,0.,0.));
#639=DIRECTION('ref_axis',(0.,0.707106781186548,0.707106781186548));
#640=DIRECTION('',(-1.,0.,0.));
#641=DIRECTION('',(1.,0.,0.));
#642=DIRECTION('center_axis',(0.,1.,0.));
#643=DIRECTION('ref_axis',(-0.707106781186548,0.,0.707106781186547));
#644=DIRECTION('',(0.,-1.,0.));
#645=DIRECTION('',(0.,1.,0.));
#646=DIRECTION('center_axis',(0.,0.,-1.));
#647=DIRECTION('ref_axis',(-0.707106781186547,-0.707106781186547,0.));
#648=DIRECTION('',(0.,0.,1.));
#649=DIRECTION('',(0.,0.,-1.));
#650=DIRECTION('center_axis',(1.,0.,0.));
#651=DIRECTION('ref_axis',(0.,-0.707106781186547,-0.707106781186547));
#652=DIRECTION('',(-1.,0.,0.));
#653=DIRECTION('',(1.,0.,0.));
#654=DIRECTION('center_axis',(0.,1.,0.));
#655=DIRECTION('ref_axis',(0.707106781186548,0.,-0.707106781186547));
#656=DIRECTION('',(0.,-1.,0.));
#657=DIRECTION('',(0.,1.,0.));
#658=DIRECTION('center_axis',(0.,0.,1.));
#659=DIRECTION('ref_axis',(-0.707106781186548,0.707106781186547,0.));
#660=DIRECTION('',(0.,0.,-1.));
#661=DIRECTION('',(0.,0.,1.));
#662=DIRECTION('center_axis',(-1.,0.,0.));
#663=DIRECTION('ref_axis',(0.,0.707106781186547,-0.707106781186548));
#664=DIRECTION('',(1.,0.,0.));
#665=DIRECTION('',(-1.,0.,0.));
#666=DIRECTION('center_axis',(0.,1.,0.));
#667=DIRECTION('ref_axis',(-0.707106781186547,0.,-0.707106781186548));
#668=DIRECTION('',(0.,-1.,0.));
#669=DIRECTION('',(0.,1.,0.));
#670=DIRECTION('center_axis',(0.,0.,1.));
#671=DIRECTION('ref_axis',(1.,0.,0.));
#672=DIRECTION('center_axis',(0.,1.,0.));
#673=DIRECTION('ref_axis',(1.,0.,0.));
#674=DIRECTION('center_axis',(1.,0.,0.));
#675=DIRECTION('ref_axis',(0.,0.,-1.));
#676=DIRECTION('center_axis',(-1.,0.,0.));
#677=DIRECTION('ref_axis',(0.,1.,0.));
#678=DIRECTION('center_axis',(0.,1.,0.));
#679=DIRECTION('ref_axis',(0.,0.,1.));
#680=DIRECTION('center_axis',(-1.,0.,0.));
#681=DIRECTION('ref_axis',(0.,0.,1.));
#682=DIRECTION('center_axis',(0.,0.,-1.));
#683=DIRECTION('ref_axis',(-1.,0.,0.));
#684=DIRECTION('center_axis',(-1.,0.,0.));
#685=DIRECTION('ref_axis',(0.,1.,0.));
#686=DIRECTION('',(-1.,0.,0.));
#687=CARTESIAN_POINT('',(0.,0.,0.));
#688=CARTESIAN_POINT('Origin',(6.6499999795109,11.8999999795109,4.75));
#689=CARTESIAN_POINT('',(6.6499999795109,13.1499999795109,1.625));
#690=CARTESIAN_POINT('',(7.8999999795109,11.8999999795109,0.374999934807421));
#691=CARTESIAN_POINT('Origin',(6.6499999795109,11.8999999795109,1.625));
#692=CARTESIAN_POINT('',(6.6499999795109,10.6499999795109,1.625));
#693=CARTESIAN_POINT('Origin',(6.6499999795109,11.8999999795109,1.625));
#694=CARTESIAN_POINT('Origin',(6.6499999795109,11.8999999795109,1.625));
#695=CARTESIAN_POINT('',(7.89999997951091,11.8999999795109,-1.5));
#696=CARTESIAN_POINT('',(7.8999999795109,11.8999999795109,4.75));
#697=CARTESIAN_POINT('Origin',(6.6499999795109,11.8999999795109,-1.5));
#698=CARTESIAN_POINT('Origin',(6.6499999795109,11.8999999795109,4.75));
#699=CARTESIAN_POINT('',(7.89999997951091,11.8999999795109,4.75));
#700=CARTESIAN_POINT('Origin',(6.6499999795109,11.8999999795109,4.75));
#701=CARTESIAN_POINT('',(7.8999999795109,11.8999999795109,2.87500006519258));
#702=CARTESIAN_POINT('',(7.8999999795109,11.8999999795109,4.75));
#703=CARTESIAN_POINT('Origin',(6.6499999795109,11.8999999795109,1.625));
#704=CARTESIAN_POINT('Origin',(6.6499999795109,11.8999999795109,1.625));
#705=CARTESIAN_POINT('Origin',(6.6499999795109,11.8999999795109,1.625));
#706=CARTESIAN_POINT('Origin',(9.77499993294477,11.8999999329448,1.625));
#707=CARTESIAN_POINT('',(3.52499993294478,10.6499998677522,1.625));
#708=CARTESIAN_POINT('',(9.77499993294477,10.6499998677522,1.625));
#709=CARTESIAN_POINT('Origin',(3.52499993294478,11.8999999329448,1.625));
#710=CARTESIAN_POINT('Origin',(4.14999993294477,14.3999999329448,-0.874999999999999));
#711=CARTESIAN_POINT('',(4.14999993294477,14.3999999329448,-1.5));
#712=CARTESIAN_POINT('',(4.14999993294477,15.0249999329448,-0.874999999999999));
#713=CARTESIAN_POINT('Origin',(4.14999993294477,14.3999999329448,-0.874999999999999));
#714=CARTESIAN_POINT('',(3.52499993294478,14.3999999329448,-0.874999999999999));
#715=CARTESIAN_POINT('Origin',(4.14999993294477,14.3999999329448,-0.874999999999999));
#716=CARTESIAN_POINT('Origin',(4.14999993294477,14.3999999329448,-0.874999999999999));
#717=CARTESIAN_POINT('Origin',(4.14999993294477,9.39999993294478,-0.874999999999999));
#718=CARTESIAN_POINT('',(4.14999993294477,9.39999993294478,-1.5));
#719=CARTESIAN_POINT('',(3.52499993294478,9.39999993294478,-0.874999999999999));
#720=CARTESIAN_POINT('Origin',(4.14999993294477,9.39999993294478,-0.874999999999999));
#721=CARTESIAN_POINT('',(4.14999993294477,8.77499993294478,-0.874999999999999));
#722=CARTESIAN_POINT('Origin',(4.14999993294477,9.39999993294478,-0.874999999999999));
#723=CARTESIAN_POINT('Origin',(4.14999993294477,9.39999993294478,-0.874999999999999));
#724=CARTESIAN_POINT('Origin',(9.14999993294477,14.3999999329448,-0.874999999999999));
#725=CARTESIAN_POINT('',(9.77499993294477,14.3999999329448,-0.874999999999999));
#726=CARTESIAN_POINT('',(9.14999993294477,15.0249999329448,-0.874999999999999));
#727=CARTESIAN_POINT('Origin',(9.14999993294477,14.3999999329448,-0.874999999999999));
#728=CARTESIAN_POINT('',(9.14999993294477,14.3999999329448,-1.5));
#729=CARTESIAN_POINT('Origin',(9.14999993294477,14.3999999329448,-0.874999999999999));
#730=CARTESIAN_POINT('Origin',(9.14999993294477,14.3999999329448,-0.874999999999999));
#731=CARTESIAN_POINT('Origin',(4.14999993294477,14.3999999329448,4.125));
#732=CARTESIAN_POINT('',(3.52499993294478,14.3999999329448,4.125));
#733=CARTESIAN_POINT('',(4.14999993294477,15.0249999329448,4.125));
#734=CARTESIAN_POINT('Origin',(4.14999993294477,14.3999999329448,4.125));
#735=CARTESIAN_POINT('',(4.14999993294477,14.3999999329448,4.75));
#736=CARTESIAN_POINT('Origin',(4.14999993294477,14.3999999329448,4.125));
#737=CARTESIAN_POINT('Origin',(4.14999993294477,14.3999999329448,4.125));
#738=CARTESIAN_POINT('Origin',(9.14999993294477,9.39999993294478,-0.874999999999999));
#739=CARTESIAN_POINT('',(9.77499993294477,9.39999993294478,-0.874999999999999));
#740=CARTESIAN_POINT('',(9.14999993294477,9.39999993294478,-1.5));
#741=CARTESIAN_POINT('Origin',(9.14999993294477,9.39999993294478,-0.874999999999999));
#742=CARTESIAN_POINT('',(9.14999993294477,8.77499993294478,-0.874999999999999));
#743=CARTESIAN_POINT('Origin',(9.14999993294477,9.39999993294478,-0.874999999999999));
#744=CARTESIAN_POINT('Origin',(9.14999993294477,9.39999993294478,-0.874999999999999));
#745=CARTESIAN_POINT('Origin',(4.14999993294477,9.39999993294478,4.125));
#746=CARTESIAN_POINT('',(4.14999993294477,8.77499993294478,4.125));
#747=CARTESIAN_POINT('',(3.52499993294478,9.39999993294478,4.125));
#748=CARTESIAN_POINT('Origin',(4.14999993294477,9.39999993294478,4.125));
#749=CARTESIAN_POINT('',(4.14999993294477,9.39999993294478,4.75));
#750=CARTESIAN_POINT('Origin',(4.14999993294477,9.39999993294478,4.125));
#751=CARTESIAN_POINT('Origin',(4.14999993294477,9.39999993294478,4.125));
#752=CARTESIAN_POINT('Origin',(9.14999993294477,14.3999999329448,4.125));
#753=CARTESIAN_POINT('',(9.14999993294477,14.3999999329448,4.75));
#754=CARTESIAN_POINT('',(9.14999993294477,15.0249999329448,4.125));
#755=CARTESIAN_POINT('Origin',(9.14999993294477,14.3999999329448,4.125));
#756=CARTESIAN_POINT('',(9.77499993294477,14.3999999329448,4.125));
#757=CARTESIAN_POINT('Origin',(9.14999993294477,14.3999999329448,4.125));
#758=CARTESIAN_POINT('Origin',(9.14999993294477,14.3999999329448,4.125));
#759=CARTESIAN_POINT('Origin',(9.14999993294477,9.39999993294478,4.125));
#760=CARTESIAN_POINT('',(9.14999993294477,9.39999993294478,4.75));
#761=CARTESIAN_POINT('',(9.77499993294477,9.39999993294478,4.125));
#762=CARTESIAN_POINT('Origin',(9.14999993294477,9.39999993294478,4.125));
#763=CARTESIAN_POINT('',(9.14999993294477,8.77499993294478,4.125));
#764=CARTESIAN_POINT('Origin',(9.14999993294477,9.39999993294478,4.125));
#765=CARTESIAN_POINT('Origin',(9.14999993294477,9.39999993294478,4.125));
#766=CARTESIAN_POINT('Origin',(5.08749993294477,9.39999993294478,4.125));
#767=CARTESIAN_POINT('',(5.08749993294477,8.77499993294478,4.125));
#768=CARTESIAN_POINT('',(5.08749993294477,9.39999993294478,4.75));
#769=CARTESIAN_POINT('Origin',(9.14999993294477,9.39999993294478,3.1875));
#770=CARTESIAN_POINT('',(9.14999993294477,8.77499993294478,3.1875));
#771=CARTESIAN_POINT('',(9.77499993294477,9.39999993294478,3.1875));
#772=CARTESIAN_POINT('Origin',(9.14999993294477,8.77499993294478,4.125));
#773=CARTESIAN_POINT('',(9.14999993294477,8.77499993294478,4.75));
#774=CARTESIAN_POINT('',(9.77499993294477,8.77499993294478,4.125));
#775=CARTESIAN_POINT('Origin',(9.14999993294477,14.3999999329448,3.1875));
#776=CARTESIAN_POINT('',(9.14999993294477,15.0249999329448,3.1875));
#777=CARTESIAN_POINT('',(9.77499993294477,14.3999999329448,3.1875));
#778=CARTESIAN_POINT('Origin',(5.08749993294477,14.3999999329448,4.125));
#779=CARTESIAN_POINT('',(5.08749993294477,15.0249999329448,4.125));
#780=CARTESIAN_POINT('',(5.08749993294477,14.3999999329448,4.75));
#781=CARTESIAN_POINT('Origin',(4.14999993294477,8.77499993294478,4.125));
#782=CARTESIAN_POINT('',(3.52499993294478,8.77499993294478,4.125));
#783=CARTESIAN_POINT('',(4.14999993294477,8.77499993294478,4.75));
#784=CARTESIAN_POINT('Origin',(4.14999993294477,9.39999993294478,0.0625000000000009));
#785=CARTESIAN_POINT('',(4.14999993294477,8.77499993294478,0.0625000000000009));
#786=CARTESIAN_POINT('',(3.52499993294478,9.39999993294478,0.0625000000000009));
#787=CARTESIAN_POINT('Origin',(8.21249993294477,9.39999993294478,-0.874999999999999));
#788=CARTESIAN_POINT('',(8.21249993294477,8.77499993294478,-0.874999999999999));
#789=CARTESIAN_POINT('',(8.21249993294477,9.39999993294478,-1.5));
#790=CARTESIAN_POINT('Origin',(9.14999993294477,8.77499993294478,-0.874999999999999));
#791=CARTESIAN_POINT('',(9.77499993294477,8.77499993294478,-0.874999999999999));
#792=CARTESIAN_POINT('',(9.14999993294477,8.77499993294478,-1.5));
#793=CARTESIAN_POINT('Origin',(4.14999993294477,14.3999999329448,0.0625000000000009));
#794=CARTESIAN_POINT('',(4.14999993294477,15.0249999329448,0.0625000000000009));
#795=CARTESIAN_POINT('',(3.52499993294478,14.3999999329448,0.0625000000000009));
#796=CARTESIAN_POINT('Origin',(8.21249993294477,14.3999999329448,-0.874999999999999));
#797=CARTESIAN_POINT('',(8.21249993294477,15.0249999329448,-0.874999999999999));
#798=CARTESIAN_POINT('',(8.21249993294477,14.3999999329448,-1.5));
#799=CARTESIAN_POINT('Origin',(4.14999993294477,8.77499993294478,-0.874999999999999));
#800=CARTESIAN_POINT('',(4.14999993294477,8.77499993294478,-1.5));
#801=CARTESIAN_POINT('',(3.52499993294478,8.77499993294478,-0.874999999999999));
#802=CARTESIAN_POINT('Origin',(3.52499993294478,8.77499993294478,4.75));
#803=CARTESIAN_POINT('Origin',(6.64999993294477,8.77499993294478,1.625));
#804=CARTESIAN_POINT('Origin',(9.77499993294477,8.77499993294478,4.75));
#805=CARTESIAN_POINT('',(9.77499993294477,10.6499998677522,1.625));
#806=CARTESIAN_POINT('Origin',(9.77499993294477,11.8999999329448,1.625));
#807=CARTESIAN_POINT('Origin',(6.64999993294477,15.0249999329448,1.625));
#808=CARTESIAN_POINT('Origin',(3.52499993294478,8.77499993294478,-1.5));
#809=CARTESIAN_POINT('Origin',(9.77499993294477,8.77499993294478,-1.5));
#810=CARTESIAN_POINT('Origin',(9.77499993294477,11.8999999329448,1.625));
#811=CARTESIAN_POINT('',(9.77499993294477,10.6499998677522,1.625));
#812=UNCERTAINTY_MEASURE_WITH_UNIT(LENGTH_MEASURE(0.01),#816,
'DISTANCE_ACCURACY_VALUE',
'Maximum model space distance between geometric entities at asserted c
onnectivities');
#813=UNCERTAINTY_MEASURE_WITH_UNIT(LENGTH_MEASURE(0.01),#816,
'DISTANCE_ACCURACY_VALUE',
'Maximum model space distance between geometric entities at asserted c
onnectivities');
#814=(
GEOMETRIC_REPRESENTATION_CONTEXT(3)
GLOBAL_UNCERTAINTY_ASSIGNED_CONTEXT((#812))
GLOBAL_UNIT_ASSIGNED_CONTEXT((#816,#818,#819))
REPRESENTATION_CONTEXT('','3D')
);
#815=(
GEOMETRIC_REPRESENTATION_CONTEXT(3)
GLOBAL_UNCERTAINTY_ASSIGNED_CONTEXT((#813))
GLOBAL_UNIT_ASSIGNED_CONTEXT((#816,#818,#819))
REPRESENTATION_CONTEXT('','3D')
);
#816=(
LENGTH_UNIT()
NAMED_UNIT(*)
SI_UNIT(.MILLI.,.METRE.)
);
#817=(
LENGTH_UNIT()
NAMED_UNIT(*)
SI_UNIT($,.METRE.)
);
#818=(
NAMED_UNIT(*)
PLANE_ANGLE_UNIT()
SI_UNIT($,.RADIAN.)
);
#819=(
NAMED_UNIT(*)
SI_UNIT($,.STERADIAN.)
SOLID_ANGLE_UNIT()
);
#820=SHAPE_DEFINITION_REPRESENTATION(#821,#822);
#821=PRODUCT_DEFINITION_SHAPE('',$,#824);
#822=SHAPE_REPRESENTATION('',(#464),#814);
#823=PRODUCT_DEFINITION_CONTEXT('part definition',#828,'design');
#824=PRODUCT_DEFINITION('u joint center Drive shaft',
'u joint center Drive shaft v3',#825,#823);
#825=PRODUCT_DEFINITION_FORMATION('',$,#830);
#826=PRODUCT_RELATED_PRODUCT_CATEGORY('u joint center Drive shaft v3',
'u joint center Drive shaft v3',(#830));
#827=APPLICATION_PROTOCOL_DEFINITION('international standard',
'automotive_design',2009,#828);
#828=APPLICATION_CONTEXT(
'Core Data for Automotive Mechanical Design Process');
#829=PRODUCT_CONTEXT('part definition',#828,'mechanical');
#830=PRODUCT('u joint center Drive shaft',
'u joint center Drive shaft v3',$,(#829));
#831=PRESENTATION_STYLE_ASSIGNMENT((#832));
#832=SURFACE_STYLE_USAGE(.BOTH.,#833);
#833=SURFACE_SIDE_STYLE('',(#834));
#834=SURFACE_STYLE_FILL_AREA(#835);
#835=FILL_AREA_STYLE('Steel - Satin',(#836));
#836=FILL_AREA_STYLE_COLOUR('Steel - Satin',#837);
#837=COLOUR_RGB('Steel - Satin',0.627450980392157,0.627450980392157,0.627450980392157);
ENDSEC;
END-ISO-10303-21;
