ISO-10303-21;
HEADER;
/* Generated by software containing ST-Developer
 * from STEP Tools, Inc. (www.steptools.com) 
 */

FILE_DESCRIPTION(
/* description */ (''),
/* implementation_level */ '2;1');

FILE_NAME(
/* name */ 'wheel v2 print version back wheel v1.step',
/* time_stamp */ '2025-05-27T13:22:01-07:00',
/* author */ (''),
/* organization */ (''),
/* preprocessor_version */ 'ST-DEVELOPER v20.1',
/* originating_system */ 'Autodesk Translation Framework v14.10.0.0',
/* authorisation */ '');

FILE_SCHEMA (('AUTOMOTIVE_DESIGN { 1 0 10303 214 3 1 1 }'));
ENDSEC;

DATA;
#10=MECHANICAL_DESIGN_GEOMETRIC_PRESENTATION_REPRESENTATION('',(#13),#696);
#11=SHAPE_REPRESENTATION_RELATIONSHIP('SRR','None',#703,#12);
#12=ADVANCED_BREP_SHAPE_REPRESENTATION('',(#14),#695);
#13=STYLED_ITEM('',(#712),#14);
#14=MANIFOLD_SOLID_BREP('Body1',#412);
#15=FACE_BOUND('',#71,.T.);
#16=FACE_BOUND('',#74,.T.);
#17=FACE_BOUND('',#76,.T.);
#18=FACE_BOUND('',#79,.T.);
#19=FACE_BOUND('',#80,.T.);
#20=FACE_BOUND('',#81,.T.);
#21=FACE_BOUND('',#82,.T.);
#22=FACE_BOUND('',#83,.T.);
#23=PLANE('',#429);
#24=PLANE('',#430);
#25=PLANE('',#431);
#26=PLANE('',#432);
#27=PLANE('',#433);
#28=PLANE('',#434);
#29=PLANE('',#435);
#30=PLANE('',#436);
#31=PLANE('',#437);
#32=PLANE('',#438);
#33=PLANE('',#439);
#34=PLANE('',#453);
#35=PLANE('',#457);
#36=PLANE('',#458);
#37=PLANE('',#462);
#38=FACE_OUTER_BOUND('',#57,.T.);
#39=FACE_OUTER_BOUND('',#58,.T.);
#40=FACE_OUTER_BOUND('',#59,.T.);
#41=FACE_OUTER_BOUND('',#60,.T.);
#42=FACE_OUTER_BOUND('',#61,.T.);
#43=FACE_OUTER_BOUND('',#62,.T.);
#44=FACE_OUTER_BOUND('',#63,.T.);
#45=FACE_OUTER_BOUND('',#64,.T.);
#46=FACE_OUTER_BOUND('',#65,.T.);
#47=FACE_OUTER_BOUND('',#66,.T.);
#48=FACE_OUTER_BOUND('',#67,.T.);
#49=FACE_OUTER_BOUND('',#68,.T.);
#50=FACE_OUTER_BOUND('',#69,.T.);
#51=FACE_OUTER_BOUND('',#70,.T.);
#52=FACE_OUTER_BOUND('',#72,.T.);
#53=FACE_OUTER_BOUND('',#73,.T.);
#54=FACE_OUTER_BOUND('',#75,.T.);
#55=FACE_OUTER_BOUND('',#77,.T.);
#56=FACE_OUTER_BOUND('',#78,.T.);
#57=EDGE_LOOP('',(#275,#276,#277,#278));
#58=EDGE_LOOP('',(#279));
#59=EDGE_LOOP('',(#280,#281,#282,#283));
#60=EDGE_LOOP('',(#284,#285,#286,#287));
#61=EDGE_LOOP('',(#288,#289,#290,#291));
#62=EDGE_LOOP('',(#292,#293,#294,#295));
#63=EDGE_LOOP('',(#296,#297,#298,#299));
#64=EDGE_LOOP('',(#300,#301,#302,#303));
#65=EDGE_LOOP('',(#304,#305,#306,#307));
#66=EDGE_LOOP('',(#308,#309,#310,#311));
#67=EDGE_LOOP('',(#312,#313,#314,#315));
#68=EDGE_LOOP('',(#316,#317,#318,#319));
#69=EDGE_LOOP('',(#320,#321,#322,#323,#324,#325,#326,#327,#328,#329,#330,
#331,#332,#333,#334,#335,#336,#337,#338,#339,#340,#341,#342,#343));
#70=EDGE_LOOP('',(#344));
#71=EDGE_LOOP('',(#345));
#72=EDGE_LOOP('',(#346,#347,#348,#349));
#73=EDGE_LOOP('',(#350,#351,#352,#353,#354,#355,#356,#357,#358,#359,#360,
#361,#362,#363,#364));
#74=EDGE_LOOP('',(#365));
#75=EDGE_LOOP('',(#366));
#76=EDGE_LOOP('',(#367));
#77=EDGE_LOOP('',(#368,#369,#370,#371));
#78=EDGE_LOOP('',(#372));
#79=EDGE_LOOP('',(#373,#374,#375));
#80=EDGE_LOOP('',(#376,#377,#378));
#81=EDGE_LOOP('',(#379,#380,#381));
#82=EDGE_LOOP('',(#382,#383,#384,#385));
#83=EDGE_LOOP('',(#386,#387,#388));
#84=LINE('',#583,#123);
#85=LINE('',#589,#124);
#86=LINE('',#591,#125);
#87=LINE('',#593,#126);
#88=LINE('',#594,#127);
#89=LINE('',#597,#128);
#90=LINE('',#599,#129);
#91=LINE('',#600,#130);
#92=LINE('',#604,#131);
#93=LINE('',#606,#132);
#94=LINE('',#608,#133);
#95=LINE('',#609,#134);
#96=LINE('',#612,#135);
#97=LINE('',#614,#136);
#98=LINE('',#615,#137);
#99=LINE('',#619,#138);
#100=LINE('',#621,#139);
#101=LINE('',#623,#140);
#102=LINE('',#624,#141);
#103=LINE('',#627,#142);
#104=LINE('',#629,#143);
#105=LINE('',#630,#144);
#106=LINE('',#634,#145);
#107=LINE('',#636,#146);
#108=LINE('',#638,#147);
#109=LINE('',#639,#148);
#110=LINE('',#642,#149);
#111=LINE('',#644,#150);
#112=LINE('',#645,#151);
#113=LINE('',#649,#152);
#114=LINE('',#651,#153);
#115=LINE('',#653,#154);
#116=LINE('',#654,#155);
#117=LINE('',#657,#156);
#118=LINE('',#659,#157);
#119=LINE('',#660,#158);
#120=LINE('',#665,#159);
#121=LINE('',#683,#160);
#122=LINE('',#691,#161);
#123=VECTOR('',#469,2.5);
#124=VECTOR('',#476,10.);
#125=VECTOR('',#477,10.);
#126=VECTOR('',#478,10.);
#127=VECTOR('',#479,10.);
#128=VECTOR('',#482,10.);
#129=VECTOR('',#483,10.);
#130=VECTOR('',#484,10.);
#131=VECTOR('',#487,10.);
#132=VECTOR('',#488,10.);
#133=VECTOR('',#489,10.);
#134=VECTOR('',#490,10.);
#135=VECTOR('',#493,10.);
#136=VECTOR('',#494,10.);
#137=VECTOR('',#495,10.);
#138=VECTOR('',#498,10.);
#139=VECTOR('',#499,10.);
#140=VECTOR('',#500,10.);
#141=VECTOR('',#501,10.);
#142=VECTOR('',#504,10.);
#143=VECTOR('',#505,10.);
#144=VECTOR('',#506,10.);
#145=VECTOR('',#509,10.);
#146=VECTOR('',#510,10.);
#147=VECTOR('',#511,10.);
#148=VECTOR('',#512,10.);
#149=VECTOR('',#515,10.);
#150=VECTOR('',#516,10.);
#151=VECTOR('',#517,10.);
#152=VECTOR('',#520,10.);
#153=VECTOR('',#521,10.);
#154=VECTOR('',#522,10.);
#155=VECTOR('',#523,10.);
#156=VECTOR('',#526,10.);
#157=VECTOR('',#527,10.);
#158=VECTOR('',#528,10.);
#159=VECTOR('',#533,32.5);
#160=VECTOR('',#564,5.00000007450581);
#161=VECTOR('',#575,35.0000002607703);
#162=CIRCLE('',#427,2.5);
#163=CIRCLE('',#428,2.5);
#164=CIRCLE('',#441,32.5);
#165=CIRCLE('',#442,32.5);
#166=CIRCLE('',#443,32.5);
#167=CIRCLE('',#444,32.5);
#168=CIRCLE('',#445,32.5);
#169=CIRCLE('',#446,32.5);
#170=CIRCLE('',#447,32.5);
#171=CIRCLE('',#448,32.5);
#172=CIRCLE('',#449,32.5);
#173=CIRCLE('',#450,32.5);
#174=CIRCLE('',#451,32.5);
#175=CIRCLE('',#452,32.5);
#176=CIRCLE('',#454,5.00000007450581);
#177=CIRCLE('',#456,5.00000007450581);
#178=CIRCLE('',#459,35.0000005215406);
#179=CIRCLE('',#461,35.);
#180=VERTEX_POINT('',#580);
#181=VERTEX_POINT('',#582);
#182=VERTEX_POINT('',#587);
#183=VERTEX_POINT('',#588);
#184=VERTEX_POINT('',#590);
#185=VERTEX_POINT('',#592);
#186=VERTEX_POINT('',#596);
#187=VERTEX_POINT('',#598);
#188=VERTEX_POINT('',#602);
#189=VERTEX_POINT('',#603);
#190=VERTEX_POINT('',#605);
#191=VERTEX_POINT('',#607);
#192=VERTEX_POINT('',#611);
#193=VERTEX_POINT('',#613);
#194=VERTEX_POINT('',#617);
#195=VERTEX_POINT('',#618);
#196=VERTEX_POINT('',#620);
#197=VERTEX_POINT('',#622);
#198=VERTEX_POINT('',#626);
#199=VERTEX_POINT('',#628);
#200=VERTEX_POINT('',#632);
#201=VERTEX_POINT('',#633);
#202=VERTEX_POINT('',#635);
#203=VERTEX_POINT('',#637);
#204=VERTEX_POINT('',#641);
#205=VERTEX_POINT('',#643);
#206=VERTEX_POINT('',#647);
#207=VERTEX_POINT('',#648);
#208=VERTEX_POINT('',#650);
#209=VERTEX_POINT('',#652);
#210=VERTEX_POINT('',#656);
#211=VERTEX_POINT('',#658);
#212=VERTEX_POINT('',#662);
#213=VERTEX_POINT('',#664);
#214=VERTEX_POINT('',#678);
#215=VERTEX_POINT('',#681);
#216=VERTEX_POINT('',#686);
#217=VERTEX_POINT('',#689);
#218=EDGE_CURVE('',#180,#180,#162,.T.);
#219=EDGE_CURVE('',#180,#181,#84,.T.);
#220=EDGE_CURVE('',#181,#181,#163,.T.);
#221=EDGE_CURVE('',#182,#183,#85,.T.);
#222=EDGE_CURVE('',#184,#182,#86,.T.);
#223=EDGE_CURVE('',#185,#184,#87,.T.);
#224=EDGE_CURVE('',#185,#183,#88,.T.);
#225=EDGE_CURVE('',#183,#186,#89,.T.);
#226=EDGE_CURVE('',#187,#185,#90,.T.);
#227=EDGE_CURVE('',#186,#187,#91,.T.);
#228=EDGE_CURVE('',#188,#189,#92,.T.);
#229=EDGE_CURVE('',#190,#188,#93,.T.);
#230=EDGE_CURVE('',#191,#190,#94,.T.);
#231=EDGE_CURVE('',#191,#189,#95,.T.);
#232=EDGE_CURVE('',#189,#192,#96,.T.);
#233=EDGE_CURVE('',#193,#191,#97,.T.);
#234=EDGE_CURVE('',#192,#193,#98,.T.);
#235=EDGE_CURVE('',#194,#195,#99,.T.);
#236=EDGE_CURVE('',#196,#194,#100,.T.);
#237=EDGE_CURVE('',#197,#196,#101,.T.);
#238=EDGE_CURVE('',#195,#197,#102,.T.);
#239=EDGE_CURVE('',#198,#194,#103,.T.);
#240=EDGE_CURVE('',#199,#198,#104,.T.);
#241=EDGE_CURVE('',#196,#199,#105,.T.);
#242=EDGE_CURVE('',#200,#201,#106,.T.);
#243=EDGE_CURVE('',#202,#200,#107,.T.);
#244=EDGE_CURVE('',#203,#202,#108,.T.);
#245=EDGE_CURVE('',#203,#201,#109,.T.);
#246=EDGE_CURVE('',#201,#204,#110,.T.);
#247=EDGE_CURVE('',#205,#203,#111,.T.);
#248=EDGE_CURVE('',#204,#205,#112,.T.);
#249=EDGE_CURVE('',#206,#207,#113,.T.);
#250=EDGE_CURVE('',#208,#206,#114,.T.);
#251=EDGE_CURVE('',#209,#208,#115,.T.);
#252=EDGE_CURVE('',#209,#207,#116,.T.);
#253=EDGE_CURVE('',#207,#210,#117,.T.);
#254=EDGE_CURVE('',#211,#209,#118,.T.);
#255=EDGE_CURVE('',#210,#211,#119,.T.);
#256=EDGE_CURVE('',#211,#212,#164,.T.);
#257=EDGE_CURVE('',#212,#213,#120,.T.);
#258=EDGE_CURVE('',#213,#213,#165,.T.);
#259=EDGE_CURVE('',#212,#208,#166,.T.);
#260=EDGE_CURVE('',#206,#195,#167,.T.);
#261=EDGE_CURVE('',#197,#199,#168,.T.);
#262=EDGE_CURVE('',#198,#186,#169,.T.);
#263=EDGE_CURVE('',#187,#184,#170,.T.);
#264=EDGE_CURVE('',#182,#192,#171,.T.);
#265=EDGE_CURVE('',#193,#190,#172,.T.);
#266=EDGE_CURVE('',#188,#204,#173,.T.);
#267=EDGE_CURVE('',#205,#202,#174,.T.);
#268=EDGE_CURVE('',#200,#210,#175,.T.);
#269=EDGE_CURVE('',#214,#214,#176,.T.);
#270=EDGE_CURVE('',#215,#215,#177,.T.);
#271=EDGE_CURVE('',#215,#214,#121,.T.);
#272=EDGE_CURVE('',#216,#216,#178,.T.);
#273=EDGE_CURVE('',#217,#217,#179,.T.);
#274=EDGE_CURVE('',#217,#216,#122,.T.);
#275=ORIENTED_EDGE('',*,*,#218,.F.);
#276=ORIENTED_EDGE('',*,*,#219,.T.);
#277=ORIENTED_EDGE('',*,*,#220,.T.);
#278=ORIENTED_EDGE('',*,*,#219,.F.);
#279=ORIENTED_EDGE('',*,*,#220,.F.);
#280=ORIENTED_EDGE('',*,*,#221,.F.);
#281=ORIENTED_EDGE('',*,*,#222,.F.);
#282=ORIENTED_EDGE('',*,*,#223,.F.);
#283=ORIENTED_EDGE('',*,*,#224,.T.);
#284=ORIENTED_EDGE('',*,*,#225,.F.);
#285=ORIENTED_EDGE('',*,*,#224,.F.);
#286=ORIENTED_EDGE('',*,*,#226,.F.);
#287=ORIENTED_EDGE('',*,*,#227,.F.);
#288=ORIENTED_EDGE('',*,*,#228,.F.);
#289=ORIENTED_EDGE('',*,*,#229,.F.);
#290=ORIENTED_EDGE('',*,*,#230,.F.);
#291=ORIENTED_EDGE('',*,*,#231,.T.);
#292=ORIENTED_EDGE('',*,*,#232,.F.);
#293=ORIENTED_EDGE('',*,*,#231,.F.);
#294=ORIENTED_EDGE('',*,*,#233,.F.);
#295=ORIENTED_EDGE('',*,*,#234,.F.);
#296=ORIENTED_EDGE('',*,*,#235,.F.);
#297=ORIENTED_EDGE('',*,*,#236,.F.);
#298=ORIENTED_EDGE('',*,*,#237,.F.);
#299=ORIENTED_EDGE('',*,*,#238,.F.);
#300=ORIENTED_EDGE('',*,*,#239,.F.);
#301=ORIENTED_EDGE('',*,*,#240,.F.);
#302=ORIENTED_EDGE('',*,*,#241,.F.);
#303=ORIENTED_EDGE('',*,*,#236,.T.);
#304=ORIENTED_EDGE('',*,*,#242,.F.);
#305=ORIENTED_EDGE('',*,*,#243,.F.);
#306=ORIENTED_EDGE('',*,*,#244,.F.);
#307=ORIENTED_EDGE('',*,*,#245,.T.);
#308=ORIENTED_EDGE('',*,*,#246,.F.);
#309=ORIENTED_EDGE('',*,*,#245,.F.);
#310=ORIENTED_EDGE('',*,*,#247,.F.);
#311=ORIENTED_EDGE('',*,*,#248,.F.);
#312=ORIENTED_EDGE('',*,*,#249,.F.);
#313=ORIENTED_EDGE('',*,*,#250,.F.);
#314=ORIENTED_EDGE('',*,*,#251,.F.);
#315=ORIENTED_EDGE('',*,*,#252,.T.);
#316=ORIENTED_EDGE('',*,*,#253,.F.);
#317=ORIENTED_EDGE('',*,*,#252,.F.);
#318=ORIENTED_EDGE('',*,*,#254,.F.);
#319=ORIENTED_EDGE('',*,*,#255,.F.);
#320=ORIENTED_EDGE('',*,*,#255,.T.);
#321=ORIENTED_EDGE('',*,*,#256,.T.);
#322=ORIENTED_EDGE('',*,*,#257,.T.);
#323=ORIENTED_EDGE('',*,*,#258,.F.);
#324=ORIENTED_EDGE('',*,*,#257,.F.);
#325=ORIENTED_EDGE('',*,*,#259,.T.);
#326=ORIENTED_EDGE('',*,*,#250,.T.);
#327=ORIENTED_EDGE('',*,*,#260,.T.);
#328=ORIENTED_EDGE('',*,*,#238,.T.);
#329=ORIENTED_EDGE('',*,*,#261,.T.);
#330=ORIENTED_EDGE('',*,*,#240,.T.);
#331=ORIENTED_EDGE('',*,*,#262,.T.);
#332=ORIENTED_EDGE('',*,*,#227,.T.);
#333=ORIENTED_EDGE('',*,*,#263,.T.);
#334=ORIENTED_EDGE('',*,*,#222,.T.);
#335=ORIENTED_EDGE('',*,*,#264,.T.);
#336=ORIENTED_EDGE('',*,*,#234,.T.);
#337=ORIENTED_EDGE('',*,*,#265,.T.);
#338=ORIENTED_EDGE('',*,*,#229,.T.);
#339=ORIENTED_EDGE('',*,*,#266,.T.);
#340=ORIENTED_EDGE('',*,*,#248,.T.);
#341=ORIENTED_EDGE('',*,*,#267,.T.);
#342=ORIENTED_EDGE('',*,*,#243,.T.);
#343=ORIENTED_EDGE('',*,*,#268,.T.);
#344=ORIENTED_EDGE('',*,*,#269,.F.);
#345=ORIENTED_EDGE('',*,*,#218,.T.);
#346=ORIENTED_EDGE('',*,*,#270,.F.);
#347=ORIENTED_EDGE('',*,*,#271,.T.);
#348=ORIENTED_EDGE('',*,*,#269,.T.);
#349=ORIENTED_EDGE('',*,*,#271,.F.);
#350=ORIENTED_EDGE('',*,*,#225,.T.);
#351=ORIENTED_EDGE('',*,*,#262,.F.);
#352=ORIENTED_EDGE('',*,*,#239,.T.);
#353=ORIENTED_EDGE('',*,*,#235,.T.);
#354=ORIENTED_EDGE('',*,*,#260,.F.);
#355=ORIENTED_EDGE('',*,*,#249,.T.);
#356=ORIENTED_EDGE('',*,*,#253,.T.);
#357=ORIENTED_EDGE('',*,*,#268,.F.);
#358=ORIENTED_EDGE('',*,*,#242,.T.);
#359=ORIENTED_EDGE('',*,*,#246,.T.);
#360=ORIENTED_EDGE('',*,*,#266,.F.);
#361=ORIENTED_EDGE('',*,*,#228,.T.);
#362=ORIENTED_EDGE('',*,*,#232,.T.);
#363=ORIENTED_EDGE('',*,*,#264,.F.);
#364=ORIENTED_EDGE('',*,*,#221,.T.);
#365=ORIENTED_EDGE('',*,*,#270,.T.);
#366=ORIENTED_EDGE('',*,*,#272,.F.);
#367=ORIENTED_EDGE('',*,*,#258,.T.);
#368=ORIENTED_EDGE('',*,*,#273,.F.);
#369=ORIENTED_EDGE('',*,*,#274,.T.);
#370=ORIENTED_EDGE('',*,*,#272,.T.);
#371=ORIENTED_EDGE('',*,*,#274,.F.);
#372=ORIENTED_EDGE('',*,*,#273,.T.);
#373=ORIENTED_EDGE('',*,*,#226,.T.);
#374=ORIENTED_EDGE('',*,*,#223,.T.);
#375=ORIENTED_EDGE('',*,*,#263,.F.);
#376=ORIENTED_EDGE('',*,*,#237,.T.);
#377=ORIENTED_EDGE('',*,*,#241,.T.);
#378=ORIENTED_EDGE('',*,*,#261,.F.);
#379=ORIENTED_EDGE('',*,*,#265,.F.);
#380=ORIENTED_EDGE('',*,*,#233,.T.);
#381=ORIENTED_EDGE('',*,*,#230,.T.);
#382=ORIENTED_EDGE('',*,*,#254,.T.);
#383=ORIENTED_EDGE('',*,*,#251,.T.);
#384=ORIENTED_EDGE('',*,*,#259,.F.);
#385=ORIENTED_EDGE('',*,*,#256,.F.);
#386=ORIENTED_EDGE('',*,*,#267,.F.);
#387=ORIENTED_EDGE('',*,*,#247,.T.);
#388=ORIENTED_EDGE('',*,*,#244,.T.);
#389=CYLINDRICAL_SURFACE('',#426,2.5);
#390=CYLINDRICAL_SURFACE('',#440,32.5);
#391=CYLINDRICAL_SURFACE('',#455,5.00000007450581);
#392=CYLINDRICAL_SURFACE('',#460,35.0000002607703);
#393=ADVANCED_FACE('',(#38),#389,.F.);
#394=ADVANCED_FACE('',(#39),#23,.T.);
#395=ADVANCED_FACE('',(#40),#24,.F.);
#396=ADVANCED_FACE('',(#41),#25,.F.);
#397=ADVANCED_FACE('',(#42),#26,.F.);
#398=ADVANCED_FACE('',(#43),#27,.F.);
#399=ADVANCED_FACE('',(#44),#28,.F.);
#400=ADVANCED_FACE('',(#45),#29,.F.);
#401=ADVANCED_FACE('',(#46),#30,.F.);
#402=ADVANCED_FACE('',(#47),#31,.F.);
#403=ADVANCED_FACE('',(#48),#32,.F.);
#404=ADVANCED_FACE('',(#49),#33,.F.);
#405=ADVANCED_FACE('',(#50),#390,.F.);
#406=ADVANCED_FACE('',(#51,#15),#34,.T.);
#407=ADVANCED_FACE('',(#52),#391,.T.);
#408=ADVANCED_FACE('',(#53,#16),#35,.T.);
#409=ADVANCED_FACE('',(#54,#17),#36,.T.);
#410=ADVANCED_FACE('',(#55),#392,.T.);
#411=ADVANCED_FACE('',(#56,#18,#19,#20,#21,#22),#37,.T.);
#412=CLOSED_SHELL('',(#393,#394,#395,#396,#397,#398,#399,#400,#401,#402,
#403,#404,#405,#406,#407,#408,#409,#410,#411));
#413=DERIVED_UNIT_ELEMENT(#415,1.);
#414=DERIVED_UNIT_ELEMENT(#698,-3.);
#415=(
MASS_UNIT()
NAMED_UNIT(*)
SI_UNIT(.KILO.,.GRAM.)
);
#416=DERIVED_UNIT((#413,#414));
#417=MEASURE_REPRESENTATION_ITEM('density measure',
POSITIVE_RATIO_MEASURE(7850.),#416);
#418=PROPERTY_DEFINITION_REPRESENTATION(#423,#420);
#419=PROPERTY_DEFINITION_REPRESENTATION(#424,#421);
#420=REPRESENTATION('material name',(#422),#695);
#421=REPRESENTATION('density',(#417),#695);
#422=DESCRIPTIVE_REPRESENTATION_ITEM('Steel','Steel');
#423=PROPERTY_DEFINITION('material property','material name',#705);
#424=PROPERTY_DEFINITION('material property','density of part',#705);
#425=AXIS2_PLACEMENT_3D('',#578,#463,#464);
#426=AXIS2_PLACEMENT_3D('',#579,#465,#466);
#427=AXIS2_PLACEMENT_3D('',#581,#467,#468);
#428=AXIS2_PLACEMENT_3D('',#584,#470,#471);
#429=AXIS2_PLACEMENT_3D('',#585,#472,#473);
#430=AXIS2_PLACEMENT_3D('',#586,#474,#475);
#431=AXIS2_PLACEMENT_3D('',#595,#480,#481);
#432=AXIS2_PLACEMENT_3D('',#601,#485,#486);
#433=AXIS2_PLACEMENT_3D('',#610,#491,#492);
#434=AXIS2_PLACEMENT_3D('',#616,#496,#497);
#435=AXIS2_PLACEMENT_3D('',#625,#502,#503);
#436=AXIS2_PLACEMENT_3D('',#631,#507,#508);
#437=AXIS2_PLACEMENT_3D('',#640,#513,#514);
#438=AXIS2_PLACEMENT_3D('',#646,#518,#519);
#439=AXIS2_PLACEMENT_3D('',#655,#524,#525);
#440=AXIS2_PLACEMENT_3D('',#661,#529,#530);
#441=AXIS2_PLACEMENT_3D('',#663,#531,#532);
#442=AXIS2_PLACEMENT_3D('',#666,#534,#535);
#443=AXIS2_PLACEMENT_3D('',#667,#536,#537);
#444=AXIS2_PLACEMENT_3D('',#668,#538,#539);
#445=AXIS2_PLACEMENT_3D('',#669,#540,#541);
#446=AXIS2_PLACEMENT_3D('',#670,#542,#543);
#447=AXIS2_PLACEMENT_3D('',#671,#544,#545);
#448=AXIS2_PLACEMENT_3D('',#672,#546,#547);
#449=AXIS2_PLACEMENT_3D('',#673,#548,#549);
#450=AXIS2_PLACEMENT_3D('',#674,#550,#551);
#451=AXIS2_PLACEMENT_3D('',#675,#552,#553);
#452=AXIS2_PLACEMENT_3D('',#676,#554,#555);
#453=AXIS2_PLACEMENT_3D('',#677,#556,#557);
#454=AXIS2_PLACEMENT_3D('',#679,#558,#559);
#455=AXIS2_PLACEMENT_3D('',#680,#560,#561);
#456=AXIS2_PLACEMENT_3D('',#682,#562,#563);
#457=AXIS2_PLACEMENT_3D('',#684,#565,#566);
#458=AXIS2_PLACEMENT_3D('',#685,#567,#568);
#459=AXIS2_PLACEMENT_3D('',#687,#569,#570);
#460=AXIS2_PLACEMENT_3D('',#688,#571,#572);
#461=AXIS2_PLACEMENT_3D('',#690,#573,#574);
#462=AXIS2_PLACEMENT_3D('',#692,#576,#577);
#463=DIRECTION('axis',(0.,0.,1.));
#464=DIRECTION('refdir',(1.,0.,0.));
#465=DIRECTION('center_axis',(0.,-1.,0.));
#466=DIRECTION('ref_axis',(-1.,0.,0.));
#467=DIRECTION('center_axis',(0.,-1.,0.));
#468=DIRECTION('ref_axis',(-1.,0.,0.));
#469=DIRECTION('',(0.,-1.,0.));
#470=DIRECTION('center_axis',(0.,-1.,0.));
#471=DIRECTION('ref_axis',(-1.,0.,0.));
#472=DIRECTION('center_axis',(0.,1.,0.));
#473=DIRECTION('ref_axis',(-1.,0.,0.));
#474=DIRECTION('center_axis',(-0.478925938750356,0.,0.877855309941274));
#475=DIRECTION('ref_axis',(0.877855309941274,0.,0.478925938750356));
#476=DIRECTION('',(-0.877855309941274,0.,-0.478925938750356));
#477=DIRECTION('',(0.,1.,0.));
#478=DIRECTION('',(0.877855309941274,0.,0.478925938750355));
#479=DIRECTION('',(0.,1.,0.));
#480=DIRECTION('center_axis',(-0.903449628326132,0.,-0.42869426060699));
#481=DIRECTION('ref_axis',(-0.42869426060699,0.,0.903449628326132));
#482=DIRECTION('',(0.42869426060699,0.,-0.903449628326132));
#483=DIRECTION('',(-0.42869426060699,0.,0.903449628326132));
#484=DIRECTION('',(0.,-1.,0.));
#485=DIRECTION('center_axis',(-0.982886267004786,0.,-0.184213425497159));
#486=DIRECTION('ref_axis',(-0.184213425497159,0.,0.982886267004785));
#487=DIRECTION('',(0.184213425497159,0.,-0.982886267004785));
#488=DIRECTION('',(0.,1.,0.));
#489=DIRECTION('',(-0.184213425497159,0.,0.982886267004786));
#490=DIRECTION('',(0.,1.,0.));
#491=DIRECTION('center_axis',(0.128531181334106,0.,-0.991705468082565));
#492=DIRECTION('ref_axis',(-0.991705468082565,0.,-0.128531181334106));
#493=DIRECTION('',(0.991705468082565,0.,0.128531181334106));
#494=DIRECTION('',(-0.991705468082565,0.,-0.128531181334106));
#495=DIRECTION('',(0.,-1.,0.));
#496=DIRECTION('center_axis',(-0.686893758763116,0.,0.72675784424544));
#497=DIRECTION('ref_axis',(0.72675784424544,0.,0.686893758763116));
#498=DIRECTION('',(-0.72675784424544,0.,-0.686893758763116));
#499=DIRECTION('',(0.,1.,0.));
#500=DIRECTION('',(0.72675784424544,0.,0.686893758763116));
#501=DIRECTION('',(0.,-1.,0.));
#502=DIRECTION('center_axis',(0.686893758763115,0.,0.72675784424544));
#503=DIRECTION('ref_axis',(0.72675784424544,0.,-0.686893758763115));
#504=DIRECTION('',(-0.72675784424544,0.,0.686893758763115));
#505=DIRECTION('',(0.,1.,0.));
#506=DIRECTION('',(0.72675784424544,0.,-0.686893758763115));
#507=DIRECTION('center_axis',(-0.128531181334106,0.,-0.991705468082565));
#508=DIRECTION('ref_axis',(-0.991705468082565,0.,0.128531181334106));
#509=DIRECTION('',(0.991705468082565,0.,-0.128531181334106));
#510=DIRECTION('',(0.,1.,0.));
#511=DIRECTION('',(-0.991705468082565,0.,0.128531181334105));
#512=DIRECTION('',(0.,1.,0.));
#513=DIRECTION('center_axis',(0.982886267004786,0.,-0.184213425497159));
#514=DIRECTION('ref_axis',(-0.184213425497159,0.,-0.982886267004786));
#515=DIRECTION('',(0.184213425497159,0.,0.982886267004786));
#516=DIRECTION('',(-0.184213425497159,0.,-0.982886267004786));
#517=DIRECTION('',(0.,-1.,0.));
#518=DIRECTION('center_axis',(0.903449628326132,0.,-0.42869426060699));
#519=DIRECTION('ref_axis',(-0.42869426060699,0.,-0.903449628326132));
#520=DIRECTION('',(0.42869426060699,0.,0.903449628326132));
#521=DIRECTION('',(0.,1.,0.));
#522=DIRECTION('',(-0.42869426060699,0.,-0.903449628326132));
#523=DIRECTION('',(0.,1.,0.));
#524=DIRECTION('center_axis',(0.478925938750356,0.,0.877855309941274));
#525=DIRECTION('ref_axis',(0.877855309941274,0.,-0.478925938750356));
#526=DIRECTION('',(-0.877855309941274,0.,0.478925938750356));
#527=DIRECTION('',(0.877855309941274,0.,-0.478925938750356));
#528=DIRECTION('',(0.,-1.,0.));
#529=DIRECTION('center_axis',(0.,-1.,0.));
#530=DIRECTION('ref_axis',(1.,0.,0.));
#531=DIRECTION('center_axis',(0.,-1.,0.));
#532=DIRECTION('ref_axis',(1.,0.,0.));
#533=DIRECTION('',(0.,1.,0.));
#534=DIRECTION('center_axis',(0.,-1.,0.));
#535=DIRECTION('ref_axis',(1.,0.,0.));
#536=DIRECTION('center_axis',(0.,-1.,0.));
#537=DIRECTION('ref_axis',(1.,0.,0.));
#538=DIRECTION('center_axis',(0.,-1.,0.));
#539=DIRECTION('ref_axis',(1.,0.,0.));
#540=DIRECTION('center_axis',(0.,-1.,0.));
#541=DIRECTION('ref_axis',(1.,0.,0.));
#542=DIRECTION('center_axis',(0.,-1.,0.));
#543=DIRECTION('ref_axis',(1.,0.,0.));
#544=DIRECTION('center_axis',(0.,-1.,0.));
#545=DIRECTION('ref_axis',(1.,0.,0.));
#546=DIRECTION('center_axis',(0.,-1.,0.));
#547=DIRECTION('ref_axis',(1.,0.,0.));
#548=DIRECTION('center_axis',(0.,-1.,0.));
#549=DIRECTION('ref_axis',(1.,0.,0.));
#550=DIRECTION('center_axis',(0.,-1.,0.));
#551=DIRECTION('ref_axis',(1.,0.,0.));
#552=DIRECTION('center_axis',(0.,-1.,0.));
#553=DIRECTION('ref_axis',(1.,0.,0.));
#554=DIRECTION('center_axis',(0.,-1.,0.));
#555=DIRECTION('ref_axis',(1.,0.,0.));
#556=DIRECTION('center_axis',(0.,1.,0.));
#557=DIRECTION('ref_axis',(0.,0.,1.));
#558=DIRECTION('center_axis',(0.,-1.,0.));
#559=DIRECTION('ref_axis',(1.,0.,0.));
#560=DIRECTION('center_axis',(0.,-1.,0.));
#561=DIRECTION('ref_axis',(1.,0.,0.));
#562=DIRECTION('center_axis',(0.,-1.,0.));
#563=DIRECTION('ref_axis',(1.,0.,0.));
#564=DIRECTION('',(0.,1.,0.));
#565=DIRECTION('center_axis',(0.,1.,0.));
#566=DIRECTION('ref_axis',(0.,0.,1.));
#567=DIRECTION('center_axis',(0.,1.,0.));
#568=DIRECTION('ref_axis',(0.,0.,1.));
#569=DIRECTION('center_axis',(0.,-1.,0.));
#570=DIRECTION('ref_axis',(1.,0.,0.));
#571=DIRECTION('center_axis',(0.,-1.,0.));
#572=DIRECTION('ref_axis',(1.,0.,0.));
#573=DIRECTION('center_axis',(0.,-1.,0.));
#574=DIRECTION('ref_axis',(1.,0.,0.));
#575=DIRECTION('',(0.,1.,0.));
#576=DIRECTION('center_axis',(0.,-1.,0.));
#577=DIRECTION('ref_axis',(0.,0.,-1.));
#578=CARTESIAN_POINT('',(0.,0.,0.));
#579=CARTESIAN_POINT('Origin',(0.,15.,0.));
#580=CARTESIAN_POINT('',(2.5,15.,-3.06161699786838E-16));
#581=CARTESIAN_POINT('Origin',(0.,15.,0.));
#582=CARTESIAN_POINT('',(2.5,5.,-3.06161699786838E-16));
#583=CARTESIAN_POINT('',(2.5,15.,3.06161699786838E-16));
#584=CARTESIAN_POINT('Origin',(0.,5.,0.));
#585=CARTESIAN_POINT('Origin',(0.,5.,0.));
#586=CARTESIAN_POINT('Origin',(14.2658477444273,0.,-4.63525491562421));
#587=CARTESIAN_POINT('',(32.0983798737073,5.,5.09352623269809));
#588=CARTESIAN_POINT('',(14.2658477444273,5.,-4.63525491562421));
#589=CARTESIAN_POINT('',(22.2661343525809,5.,-0.2705894283947));
#590=CARTESIAN_POINT('',(32.0983798737073,0.,5.09352623269808));
#591=CARTESIAN_POINT('',(32.0983798737073,17.5,5.09352623269808));
#592=CARTESIAN_POINT('',(14.2658477444273,0.,-4.63525491562421));
#593=CARTESIAN_POINT('',(32.0983798737073,0.,5.09352623269808));
#594=CARTESIAN_POINT('',(14.2658477444273,0.,-4.63525491562421));
#595=CARTESIAN_POINT('Origin',(22.9742352079872,0.,-22.987703595794));
#596=CARTESIAN_POINT('',(22.9742352079872,5.,-22.987703595794));
#597=CARTESIAN_POINT('',(19.3979408835008,5.,-15.4508595669812));
#598=CARTESIAN_POINT('',(22.9742352079872,0.,-22.987703595794));
#599=CARTESIAN_POINT('',(14.2658477444273,0.,-4.63525491562421));
#600=CARTESIAN_POINT('',(22.9742352079872,17.5,-22.987703595794));
#601=CARTESIAN_POINT('Origin',(8.8167787843871,0.,12.1352549156242));
#602=CARTESIAN_POINT('',(5.07471355835051,5.,32.1013595086048));
#603=CARTESIAN_POINT('',(8.8167787843871,5.,12.1352549156242));
#604=CARTESIAN_POINT('',(10.3172287009626,5.,4.12947784834264));
#605=CARTESIAN_POINT('',(5.07471355835051,0.,32.1013595086048));
#606=CARTESIAN_POINT('',(5.07471355835051,17.5,32.1013595086048));
#607=CARTESIAN_POINT('',(8.8167787843871,0.,12.1352549156242));
#608=CARTESIAN_POINT('',(5.07471355835051,0.,32.1013595086048));
#609=CARTESIAN_POINT('',(8.8167787843871,0.,12.1352549156242));
#610=CARTESIAN_POINT('Origin',(28.9620344114767,0.,14.7462050286993));
#611=CARTESIAN_POINT('',(28.9620344114767,5.,14.7462050286993));
#612=CARTESIAN_POINT('',(29.7619800744071,5.,14.8498829495828));
#613=CARTESIAN_POINT('',(28.9620344114767,0.,14.7462050286993));
#614=CARTESIAN_POINT('',(8.8167787843871,0.,12.1352549156242));
#615=CARTESIAN_POINT('',(28.9620344114767,17.5,14.7462050286993));
#616=CARTESIAN_POINT('Origin',(-14.7631761874061,0.,-28.9533871742082));
#617=CARTESIAN_POINT('',(0.,5.,-15.));
#618=CARTESIAN_POINT('',(-14.7631761874061,5.,-28.9533871742082));
#619=CARTESIAN_POINT('',(4.94532827917893,5.,-10.3259326240508));
#620=CARTESIAN_POINT('',(0.,0.,-15.));
#621=CARTESIAN_POINT('',(0.,0.,-15.));
#622=CARTESIAN_POINT('',(-14.7631761874061,0.,-28.9533871742082));
#623=CARTESIAN_POINT('',(0.,0.,-15.));
#624=CARTESIAN_POINT('',(-14.7631761874061,17.5,-28.9533871742082));
#625=CARTESIAN_POINT('Origin',(0.,0.,-15.));
#626=CARTESIAN_POINT('',(14.7631761874062,5.,-28.9533871742082));
#627=CARTESIAN_POINT('',(4.83883496271707,5.,-19.5734154256374));
#628=CARTESIAN_POINT('',(14.7631761874061,0.,-28.9533871742082));
#629=CARTESIAN_POINT('',(14.7631761874062,17.5,-28.9533871742082));
#630=CARTESIAN_POINT('',(14.7631761874061,0.,-28.9533871742082));
#631=CARTESIAN_POINT('Origin',(-8.8167787843871,0.,12.1352549156242));
#632=CARTESIAN_POINT('',(-28.9620344114767,5.,14.7462050286993));
#633=CARTESIAN_POINT('',(-8.8167787843871,5.,12.1352549156242));
#634=CARTESIAN_POINT('',(12.2737391404456,5.,9.40179294423051));
#635=CARTESIAN_POINT('',(-28.9620344114767,0.,14.7462050286993));
#636=CARTESIAN_POINT('',(-28.9620344114768,17.5,14.7462050286993));
#637=CARTESIAN_POINT('',(-8.8167787843871,0.,12.1352549156242));
#638=CARTESIAN_POINT('',(-28.9620344114767,0.,14.7462050286993));
#639=CARTESIAN_POINT('',(-8.8167787843871,0.,12.1352549156242));
#640=CARTESIAN_POINT('Origin',(-5.07471355835051,0.,32.1013595086048));
#641=CARTESIAN_POINT('',(-5.07471355835051,5.,32.1013595086048));
#642=CARTESIAN_POINT('',(-7.34332203860889,5.,19.9970076437026));
#643=CARTESIAN_POINT('',(-5.07471355835051,0.,32.1013595086048));
#644=CARTESIAN_POINT('',(-8.8167787843871,0.,12.1352549156242));
#645=CARTESIAN_POINT('',(-5.07471355835051,17.5,32.1013595086048));
#646=CARTESIAN_POINT('Origin',(-14.2658477444273,0.,-4.63525491562422));
#647=CARTESIAN_POINT('',(-22.9742352079872,5.,-22.987703595794));
#648=CARTESIAN_POINT('',(-14.2658477444273,5.,-4.63525491562422));
#649=CARTESIAN_POINT('',(-9.07093715670617,5.,6.31273406145899));
#650=CARTESIAN_POINT('',(-22.9742352079872,0.,-22.987703595794));
#651=CARTESIAN_POINT('',(-22.9742352079872,17.5,-22.987703595794));
#652=CARTESIAN_POINT('',(-14.2658477444273,0.,-4.63525491562422));
#653=CARTESIAN_POINT('',(-22.9742352079872,0.,-22.987703595794));
#654=CARTESIAN_POINT('',(-14.2658477444273,0.,-4.63525491562422));
#655=CARTESIAN_POINT('Origin',(-32.0983798737073,0.,5.09352623269808));
#656=CARTESIAN_POINT('',(-32.0983798737073,5.,5.09352623269808));
#657=CARTESIAN_POINT('',(-6.13692719847791,5.,-9.07009840225336));
#658=CARTESIAN_POINT('',(-32.0983798737073,0.,5.09352623269808));
#659=CARTESIAN_POINT('',(-14.2658477444273,0.,-4.63525491562422));
#660=CARTESIAN_POINT('',(-32.0983798737073,17.5,5.09352623269808));
#661=CARTESIAN_POINT('Origin',(0.,17.5,0.));
#662=CARTESIAN_POINT('',(-32.5,0.,-3.9801020972289E-15));
#663=CARTESIAN_POINT('Origin',(0.,0.,0.));
#664=CARTESIAN_POINT('',(-32.5,30.,-3.9801020972289E-15));
#665=CARTESIAN_POINT('',(-32.5,17.5,-3.9801020972289E-15));
#666=CARTESIAN_POINT('Origin',(0.,30.,0.));
#667=CARTESIAN_POINT('Origin',(0.,0.,0.));
#668=CARTESIAN_POINT('Origin',(0.,5.,0.));
#669=CARTESIAN_POINT('Origin',(0.,0.,0.));
#670=CARTESIAN_POINT('Origin',(0.,5.,0.));
#671=CARTESIAN_POINT('Origin',(0.,0.,0.));
#672=CARTESIAN_POINT('Origin',(0.,5.,0.));
#673=CARTESIAN_POINT('Origin',(0.,0.,0.));
#674=CARTESIAN_POINT('Origin',(0.,5.,0.));
#675=CARTESIAN_POINT('Origin',(0.,0.,0.));
#676=CARTESIAN_POINT('Origin',(0.,5.,0.));
#677=CARTESIAN_POINT('Origin',(5.00000007450581,15.,0.));
#678=CARTESIAN_POINT('',(-5.00000007450581,15.,-6.12323408698006E-16));
#679=CARTESIAN_POINT('Origin',(0.,15.,0.));
#680=CARTESIAN_POINT('Origin',(0.,10.,0.));
#681=CARTESIAN_POINT('',(-5.00000007450581,5.,-6.12323408698006E-16));
#682=CARTESIAN_POINT('Origin',(0.,5.,0.));
#683=CARTESIAN_POINT('',(-5.00000007450581,10.,-6.12323408698006E-16));
#684=CARTESIAN_POINT('Origin',(32.5,5.,0.));
#685=CARTESIAN_POINT('Origin',(35.0000005215406,30.,0.));
#686=CARTESIAN_POINT('',(-35.0000002607703,30.,-4.28626382895089E-15));
#687=CARTESIAN_POINT('Origin',(0.,30.,0.));
#688=CARTESIAN_POINT('Origin',(0.,15.,0.));
#689=CARTESIAN_POINT('',(-35.0000002607703,0.,-4.28626382895089E-15));
#690=CARTESIAN_POINT('Origin',(0.,0.,0.));
#691=CARTESIAN_POINT('',(-35.0000002607703,15.,-4.28626382895089E-15));
#692=CARTESIAN_POINT('Origin',(0.,0.,0.));
#693=UNCERTAINTY_MEASURE_WITH_UNIT(LENGTH_MEASURE(0.01),#697,
'DISTANCE_ACCURACY_VALUE',
'Maximum model space distance between geometric entities at asserted c
onnectivities');
#694=UNCERTAINTY_MEASURE_WITH_UNIT(LENGTH_MEASURE(0.01),#697,
'DISTANCE_ACCURACY_VALUE',
'Maximum model space distance between geometric entities at asserted c
onnectivities');
#695=(
GEOMETRIC_REPRESENTATION_CONTEXT(3)
GLOBAL_UNCERTAINTY_ASSIGNED_CONTEXT((#693))
GLOBAL_UNIT_ASSIGNED_CONTEXT((#697,#699,#700))
REPRESENTATION_CONTEXT('','3D')
);
#696=(
GEOMETRIC_REPRESENTATION_CONTEXT(3)
GLOBAL_UNCERTAINTY_ASSIGNED_CONTEXT((#694))
GLOBAL_UNIT_ASSIGNED_CONTEXT((#697,#699,#700))
REPRESENTATION_CONTEXT('','3D')
);
#697=(
LENGTH_UNIT()
NAMED_UNIT(*)
SI_UNIT(.MILLI.,.METRE.)
);
#698=(
LENGTH_UNIT()
NAMED_UNIT(*)
SI_UNIT($,.METRE.)
);
#699=(
NAMED_UNIT(*)
PLANE_ANGLE_UNIT()
SI_UNIT($,.RADIAN.)
);
#700=(
NAMED_UNIT(*)
SI_UNIT($,.STERADIAN.)
SOLID_ANGLE_UNIT()
);
#701=SHAPE_DEFINITION_REPRESENTATION(#702,#703);
#702=PRODUCT_DEFINITION_SHAPE('',$,#705);
#703=SHAPE_REPRESENTATION('',(#425),#695);
#704=PRODUCT_DEFINITION_CONTEXT('part definition',#709,'design');
#705=PRODUCT_DEFINITION('wheel v2 print version back wheel',
'wheel v2 print version back wheel v1',#706,#704);
#706=PRODUCT_DEFINITION_FORMATION('',$,#711);
#707=PRODUCT_RELATED_PRODUCT_CATEGORY(
'wheel v2 print version back wheel v1',
'wheel v2 print version back wheel v1',(#711));
#708=APPLICATION_PROTOCOL_DEFINITION('international standard',
'automotive_design',2009,#709);
#709=APPLICATION_CONTEXT(
'Core Data for Automotive Mechanical Design Process');
#710=PRODUCT_CONTEXT('part definition',#709,'mechanical');
#711=PRODUCT('wheel v2 print version back wheel',
'wheel v2 print version back wheel v1',$,(#710));
#712=PRESENTATION_STYLE_ASSIGNMENT((#713));
#713=SURFACE_STYLE_USAGE(.BOTH.,#714);
#714=SURFACE_SIDE_STYLE('',(#715));
#715=SURFACE_STYLE_FILL_AREA(#716);
#716=FILL_AREA_STYLE('Steel - Satin',(#717));
#717=FILL_AREA_STYLE_COLOUR('Steel - Satin',#718);
#718=COLOUR_RGB('Steel - Satin',0.627450980392157,0.627450980392157,0.627450980392157);
ENDSEC;
END-ISO-10303-21;
