ISO-10303-21;
HEADER;
/* Generated by software containing ST-Developer
 * from STEP Tools, Inc. (www.steptools.com) 
 */

FILE_DESCRIPTION(
/* description */ (''),
/* implementation_level */ '2;1');

FILE_NAME(
/* name */ 'wheel hub v2 v2.step',
/* time_stamp */ '2025-05-27T01:49:30-07:00',
/* author */ (''),
/* organization */ (''),
/* preprocessor_version */ 'ST-DEVELOPER v20.1',
/* originating_system */ 'Autodesk Translation Framework v14.10.0.0',
/* authorisation */ '');

FILE_SCHEMA (('AUTOMOTIVE_DESIGN { 1 0 10303 214 3 1 1 }'));
ENDSEC;

DATA;
#10=MECHANICAL_DESIGN_GEOMETRIC_PRESENTATION_REPRESENTATION('',(#14,#15,
#16,#17,#18),#1311);
#11=SHAPE_REPRESENTATION_RELATIONSHIP('SRR','None',#1318,#12);
#12=ADVANCED_BREP_SHAPE_REPRESENTATION('',(#19,#20,#21,#22,#23),#1310);
#13=(
BOUNDED_SURFACE()
B_SPLINE_SURFACE(2,2,((#1272,#1273,#1274,#1275,#1276,#1277,#1278,#1279,
#1280),(#1281,#1282,#1283,#1284,#1285,#1286,#1287,#1288,#1289),(#1290,#1291,
#1292,#1293,#1294,#1295,#1296,#1297,#1298)),.UNSPECIFIED.,.F.,.T.,.F.)
B_SPLINE_SURFACE_WITH_KNOTS((3,3),(3,2,2,2,3),(-0.927295218001612,0.),(-3.14159265358979,
-1.5707963267949,0.,1.5707963267949,3.14159265358979),.UNSPECIFIED.)
GEOMETRIC_REPRESENTATION_ITEM()
RATIONAL_B_SPLINE_SURFACE(((1.,0.707106781186548,1.,0.707106781186548,1.,
0.707106781186548,1.,0.707106781186548,1.),(0.894427190999916,0.632455532033676,
0.894427190999916,0.632455532033676,0.894427190999916,0.632455532033676,
0.894427190999916,0.632455532033676,0.894427190999916),(1.,0.707106781186548,
1.,0.707106781186548,1.,0.707106781186548,1.,0.707106781186548,1.)))
REPRESENTATION_ITEM('')
SURFACE()
);
#14=STYLED_ITEM('',(#1327),#19);
#15=STYLED_ITEM('',(#1327),#20);
#16=STYLED_ITEM('',(#1327),#21);
#17=STYLED_ITEM('',(#1327),#22);
#18=STYLED_ITEM('',(#1327),#23);
#19=MANIFOLD_SOLID_BREP('Body1',#664);
#20=MANIFOLD_SOLID_BREP('Body2',#665);
#21=MANIFOLD_SOLID_BREP('Body3',#666);
#22=MANIFOLD_SOLID_BREP('Body4',#667);
#23=MANIFOLD_SOLID_BREP('Body5',#668);
#24=PLANE('',#690);
#25=PLANE('',#691);
#26=PLANE('',#695);
#27=PLANE('',#696);
#28=PLANE('',#697);
#29=PLANE('',#698);
#30=PLANE('',#699);
#31=PLANE('',#700);
#32=PLANE('',#704);
#33=PLANE('',#705);
#34=PLANE('',#706);
#35=PLANE('',#707);
#36=PLANE('',#708);
#37=PLANE('',#709);
#38=PLANE('',#716);
#39=PLANE('',#720);
#40=PLANE('',#721);
#41=PLANE('',#722);
#42=PLANE('',#723);
#43=PLANE('',#724);
#44=PLANE('',#725);
#45=PLANE('',#726);
#46=PLANE('',#727);
#47=PLANE('',#728);
#48=FACE_BOUND('',#124,.T.);
#49=FACE_BOUND('',#125,.T.);
#50=FACE_BOUND('',#127,.T.);
#51=FACE_BOUND('',#128,.T.);
#52=FACE_BOUND('',#130,.T.);
#53=FACE_BOUND('',#132,.T.);
#54=FACE_BOUND('',#135,.T.);
#55=FACE_BOUND('',#141,.T.);
#56=FACE_BOUND('',#144,.T.);
#57=FACE_BOUND('',#150,.T.);
#58=FACE_BOUND('',#154,.T.);
#59=FACE_BOUND('',#162,.T.);
#60=FACE_BOUND('',#166,.T.);
#61=CIRCLE('',#685,5.);
#62=CIRCLE('',#686,5.);
#63=CIRCLE('',#688,7.5);
#64=CIRCLE('',#689,7.5);
#65=CIRCLE('',#693,1.);
#66=CIRCLE('',#694,1.);
#67=CIRCLE('',#702,1.);
#68=CIRCLE('',#703,1.);
#69=CIRCLE('',#711,1.125);
#70=CIRCLE('',#712,1.125);
#71=CIRCLE('',#714,2.5);
#72=CIRCLE('',#715,2.5);
#73=CIRCLE('',#717,2.5);
#74=CIRCLE('',#719,2.5);
#75=CIRCLE('',#729,9.5);
#76=CIRCLE('',#730,9.5);
#77=CIRCLE('',#731,7.5);
#78=CIRCLE('',#733,9.5);
#79=CIRCLE('',#734,9.5);
#80=CIRCLE('',#735,9.5);
#81=CIRCLE('',#736,5.);
#82=CIRCLE('',#737,7.5);
#83=CIRCLE('',#738,7.5);
#84=FACE_OUTER_BOUND('',#121,.T.);
#85=FACE_OUTER_BOUND('',#122,.T.);
#86=FACE_OUTER_BOUND('',#123,.T.);
#87=FACE_OUTER_BOUND('',#126,.T.);
#88=FACE_OUTER_BOUND('',#129,.T.);
#89=FACE_OUTER_BOUND('',#131,.T.);
#90=FACE_OUTER_BOUND('',#133,.T.);
#91=FACE_OUTER_BOUND('',#134,.T.);
#92=FACE_OUTER_BOUND('',#136,.T.);
#93=FACE_OUTER_BOUND('',#137,.T.);
#94=FACE_OUTER_BOUND('',#138,.T.);
#95=FACE_OUTER_BOUND('',#139,.T.);
#96=FACE_OUTER_BOUND('',#140,.T.);
#97=FACE_OUTER_BOUND('',#142,.T.);
#98=FACE_OUTER_BOUND('',#143,.T.);
#99=FACE_OUTER_BOUND('',#145,.T.);
#100=FACE_OUTER_BOUND('',#146,.T.);
#101=FACE_OUTER_BOUND('',#147,.T.);
#102=FACE_OUTER_BOUND('',#148,.T.);
#103=FACE_OUTER_BOUND('',#149,.T.);
#104=FACE_OUTER_BOUND('',#151,.T.);
#105=FACE_OUTER_BOUND('',#152,.T.);
#106=FACE_OUTER_BOUND('',#153,.T.);
#107=FACE_OUTER_BOUND('',#155,.T.);
#108=FACE_OUTER_BOUND('',#156,.T.);
#109=FACE_OUTER_BOUND('',#157,.T.);
#110=FACE_OUTER_BOUND('',#158,.T.);
#111=FACE_OUTER_BOUND('',#159,.T.);
#112=FACE_OUTER_BOUND('',#160,.T.);
#113=FACE_OUTER_BOUND('',#161,.T.);
#114=FACE_OUTER_BOUND('',#163,.T.);
#115=FACE_OUTER_BOUND('',#164,.T.);
#116=FACE_OUTER_BOUND('',#165,.T.);
#117=FACE_OUTER_BOUND('',#167,.T.);
#118=FACE_OUTER_BOUND('',#168,.T.);
#119=FACE_OUTER_BOUND('',#169,.T.);
#120=FACE_OUTER_BOUND('',#170,.T.);
#121=EDGE_LOOP('',(#439,#440,#441,#442,#443,#444));
#122=EDGE_LOOP('',(#445,#446,#447,#448,#449,#450));
#123=EDGE_LOOP('',(#451,#452,#453,#454));
#124=EDGE_LOOP('',(#455,#456));
#125=EDGE_LOOP('',(#457,#458));
#126=EDGE_LOOP('',(#459,#460,#461,#462));
#127=EDGE_LOOP('',(#463,#464));
#128=EDGE_LOOP('',(#465,#466));
#129=EDGE_LOOP('',(#467));
#130=EDGE_LOOP('',(#468));
#131=EDGE_LOOP('',(#469));
#132=EDGE_LOOP('',(#470));
#133=EDGE_LOOP('',(#471,#472,#473,#474));
#134=EDGE_LOOP('',(#475,#476,#477,#478));
#135=EDGE_LOOP('',(#479));
#136=EDGE_LOOP('',(#480,#481,#482,#483));
#137=EDGE_LOOP('',(#484,#485,#486,#487));
#138=EDGE_LOOP('',(#488,#489,#490,#491));
#139=EDGE_LOOP('',(#492,#493,#494,#495));
#140=EDGE_LOOP('',(#496,#497,#498,#499));
#141=EDGE_LOOP('',(#500));
#142=EDGE_LOOP('',(#501,#502,#503,#504));
#143=EDGE_LOOP('',(#505,#506,#507,#508));
#144=EDGE_LOOP('',(#509));
#145=EDGE_LOOP('',(#510,#511,#512,#513));
#146=EDGE_LOOP('',(#514,#515,#516,#517));
#147=EDGE_LOOP('',(#518,#519,#520,#521));
#148=EDGE_LOOP('',(#522,#523,#524,#525));
#149=EDGE_LOOP('',(#526,#527,#528,#529));
#150=EDGE_LOOP('',(#530));
#151=EDGE_LOOP('',(#531,#532,#533,#534));
#152=EDGE_LOOP('',(#535,#536,#537,#538));
#153=EDGE_LOOP('',(#539,#540,#541,#542,#543,#544,#545));
#154=EDGE_LOOP('',(#546));
#155=EDGE_LOOP('',(#547,#548,#549,#550));
#156=EDGE_LOOP('',(#551,#552,#553,#554));
#157=EDGE_LOOP('',(#555,#556,#557,#558));
#158=EDGE_LOOP('',(#559,#560,#561,#562));
#159=EDGE_LOOP('',(#563,#564,#565,#566));
#160=EDGE_LOOP('',(#567,#568,#569,#570));
#161=EDGE_LOOP('',(#571,#572,#573,#574,#575,#576,#577));
#162=EDGE_LOOP('',(#578));
#163=EDGE_LOOP('',(#579,#580,#581,#582));
#164=EDGE_LOOP('',(#583,#584,#585,#586));
#165=EDGE_LOOP('',(#587,#588,#589,#590));
#166=EDGE_LOOP('',(#591));
#167=EDGE_LOOP('',(#592,#593,#594,#595,#596));
#168=EDGE_LOOP('',(#597,#598,#599,#600,#601,#602,#603,#604,#605));
#169=EDGE_LOOP('',(#606,#607,#608,#609));
#170=EDGE_LOOP('',(#610,#611,#612,#613,#614));
#171=LINE('',#957,#226);
#172=LINE('',#1035,#227);
#173=LINE('',#1077,#228);
#174=LINE('',#1083,#229);
#175=LINE('',#1091,#230);
#176=LINE('',#1096,#231);
#177=LINE('',#1098,#232);
#178=LINE('',#1100,#233);
#179=LINE('',#1101,#234);
#180=LINE('',#1104,#235);
#181=LINE('',#1106,#236);
#182=LINE('',#1107,#237);
#183=LINE('',#1110,#238);
#184=LINE('',#1111,#239);
#185=LINE('',#1114,#240);
#186=LINE('',#1115,#241);
#187=LINE('',#1117,#242);
#188=LINE('',#1123,#243);
#189=LINE('',#1128,#244);
#190=LINE('',#1130,#245);
#191=LINE('',#1132,#246);
#192=LINE('',#1133,#247);
#193=LINE('',#1136,#248);
#194=LINE('',#1138,#249);
#195=LINE('',#1139,#250);
#196=LINE('',#1142,#251);
#197=LINE('',#1143,#252);
#198=LINE('',#1146,#253);
#199=LINE('',#1147,#254);
#200=LINE('',#1149,#255);
#201=LINE('',#1155,#256);
#202=LINE('',#1162,#257);
#203=LINE('',#1165,#258);
#204=LINE('',#1170,#259);
#205=LINE('',#1172,#260);
#206=LINE('',#1174,#261);
#207=LINE('',#1176,#262);
#208=LINE('',#1177,#263);
#209=LINE('',#1181,#264);
#210=LINE('',#1184,#265);
#211=LINE('',#1186,#266);
#212=LINE('',#1187,#267);
#213=LINE('',#1190,#268);
#214=LINE('',#1191,#269);
#215=LINE('',#1194,#270);
#216=LINE('',#1195,#271);
#217=LINE('',#1197,#272);
#218=LINE('',#1199,#273);
#219=LINE('',#1228,#274);
#220=LINE('',#1230,#275);
#221=LINE('',#1231,#276);
#222=LINE('',#1259,#277);
#223=LINE('',#1261,#278);
#224=LINE('',#1262,#279);
#225=LINE('',#1307,#280);
#226=VECTOR('',#745,1.);
#227=VECTOR('',#748,1.);
#228=VECTOR('',#753,5.);
#229=VECTOR('',#760,7.5);
#230=VECTOR('',#771,1.);
#231=VECTOR('',#776,10.);
#232=VECTOR('',#777,10.);
#233=VECTOR('',#778,10.);
#234=VECTOR('',#779,10.);
#235=VECTOR('',#782,10.);
#236=VECTOR('',#783,10.);
#237=VECTOR('',#784,10.);
#238=VECTOR('',#787,10.);
#239=VECTOR('',#788,10.);
#240=VECTOR('',#791,10.);
#241=VECTOR('',#792,10.);
#242=VECTOR('',#795,10.);
#243=VECTOR('',#802,1.);
#244=VECTOR('',#807,10.);
#245=VECTOR('',#808,10.);
#246=VECTOR('',#809,10.);
#247=VECTOR('',#810,10.);
#248=VECTOR('',#813,10.);
#249=VECTOR('',#814,10.);
#250=VECTOR('',#815,10.);
#251=VECTOR('',#818,10.);
#252=VECTOR('',#819,10.);
#253=VECTOR('',#822,10.);
#254=VECTOR('',#823,10.);
#255=VECTOR('',#826,10.);
#256=VECTOR('',#833,1.125);
#257=VECTOR('',#840,10.);
#258=VECTOR('',#843,10.);
#259=VECTOR('',#848,10.);
#260=VECTOR('',#849,10.);
#261=VECTOR('',#850,10.);
#262=VECTOR('',#851,10.);
#263=VECTOR('',#852,10.);
#264=VECTOR('',#857,10.);
#265=VECTOR('',#860,10.);
#266=VECTOR('',#861,10.);
#267=VECTOR('',#862,10.);
#268=VECTOR('',#865,10.);
#269=VECTOR('',#866,10.);
#270=VECTOR('',#869,10.);
#271=VECTOR('',#870,10.);
#272=VECTOR('',#873,10.);
#273=VECTOR('',#876,10.);
#274=VECTOR('',#881,10.);
#275=VECTOR('',#882,10.);
#276=VECTOR('',#883,10.);
#277=VECTOR('',#886,10.);
#278=VECTOR('',#887,10.);
#279=VECTOR('',#888,10.);
#280=VECTOR('',#915,7.5);
#281=B_SPLINE_CURVE_WITH_KNOTS('',3,(#920,#921,#922,#923,#924,#925,#926,
#927,#928,#929,#930,#931,#932,#933,#934,#935,#936,#937),.UNSPECIFIED.,.F.,
 .F.,(4,2,2,2,2,2,2,2,4),(0.,0.0377171420264063,0.0754342840528125,0.113151017350229,
0.150867750647646,0.188584483945063,0.22630121724248,0.264018359268886,
0.301735501295293),.UNSPECIFIED.);
#282=B_SPLINE_CURVE_WITH_KNOTS('',3,(#938,#939,#940,#941,#942,#943,#944,
#945,#946,#947,#948,#949,#950,#951,#952,#953,#954,#955),.UNSPECIFIED.,.F.,
 .F.,(4,2,2,2,2,2,2,2,4),(0.301735501295293,0.339452643321699,0.377169785348105,
0.414886518645522,0.452603251942939,0.490319985240356,0.528036718537773,
0.565753860564179,0.603471002590585),.UNSPECIFIED.);
#283=B_SPLINE_CURVE_WITH_KNOTS('',3,(#959,#960,#961,#962,#963,#964,#965,
#966,#967,#968,#969,#970,#971,#972,#973,#974,#975,#976),.UNSPECIFIED.,.F.,
 .F.,(4,2,2,2,2,2,2,2,4),(0.,0.0377795255890194,0.0755590511780389,0.113336459804459,
0.151113868430879,0.188891277057299,0.226668685683718,0.264448211272738,
0.302227736861757),.UNSPECIFIED.);
#284=B_SPLINE_CURVE_WITH_KNOTS('',3,(#977,#978,#979,#980,#981,#982,#983,
#984,#985,#986,#987,#988,#989,#990,#991,#992,#993,#994),.UNSPECIFIED.,.F.,
 .F.,(4,2,2,2,2,2,2,2,4),(0.302227736861757,0.340007262450777,0.377786788039796,
0.415564196666216,0.453341605292636,0.491119013919056,0.528896422545476,
0.566675948134495,0.604455473723515),.UNSPECIFIED.);
#285=B_SPLINE_CURVE_WITH_KNOTS('',3,(#998,#999,#1000,#1001,#1002,#1003,
#1004,#1005,#1006,#1007,#1008,#1009,#1010,#1011,#1012,#1013,#1014,#1015),
 .UNSPECIFIED.,.F.,.F.,(4,2,2,2,2,2,2,2,4),(0.,0.0377171420264062,0.0754342840528124,
0.113151017350229,0.150867750647646,0.188584483945063,0.22630121724248,
0.264018359268886,0.301735501295292),.UNSPECIFIED.);
#286=B_SPLINE_CURVE_WITH_KNOTS('',3,(#1016,#1017,#1018,#1019,#1020,#1021,
#1022,#1023,#1024,#1025,#1026,#1027,#1028,#1029,#1030,#1031,#1032,#1033),
 .UNSPECIFIED.,.F.,.F.,(4,2,2,2,2,2,2,2,4),(0.301735501295292,0.339452643321699,
0.377169785348105,0.414886518645522,0.452603251942938,0.490319985240355,
0.528036718537772,0.565753860564178,0.603471002590585),.UNSPECIFIED.);
#287=B_SPLINE_CURVE_WITH_KNOTS('',3,(#1037,#1038,#1039,#1040,#1041,#1042,
#1043,#1044,#1045,#1046,#1047,#1048,#1049,#1050,#1051,#1052,#1053,#1054),
 .UNSPECIFIED.,.F.,.F.,(4,2,2,2,2,2,2,2,4),(0.,0.0377795255890194,0.0755590511780388,
0.113336459804459,0.151113868430879,0.188891277057298,0.226668685683718,
0.264448211272738,0.302227736861757),.UNSPECIFIED.);
#288=B_SPLINE_CURVE_WITH_KNOTS('',3,(#1055,#1056,#1057,#1058,#1059,#1060,
#1061,#1062,#1063,#1064,#1065,#1066,#1067,#1068,#1069,#1070,#1071,#1072),
 .UNSPECIFIED.,.F.,.F.,(4,2,2,2,2,2,2,2,4),(0.302227736861757,0.340007262450777,
0.377786788039796,0.415564196666216,0.453341605292636,0.491119013919056,
0.528896422545476,0.566675948134495,0.604455473723514),.UNSPECIFIED.);
#289=B_SPLINE_CURVE_WITH_KNOTS('',3,(#1204,#1205,#1206,#1207,#1208,#1209,
#1210,#1211,#1212,#1213,#1214,#1215,#1216,#1217,#1218,#1219,#1220,#1221,
#1222,#1223,#1224,#1225,#1226),.UNSPECIFIED.,.F.,.F.,(4,2,2,2,2,3,2,2,2,
2,4),(-0.425059175562453,-0.371991148148643,-0.311229610705381,-0.22866124866108,
-0.165884501020412,0.,0.165884501020412,0.22866124866108,0.311229610705381,
0.371991148148643,0.425059175562453),.UNSPECIFIED.);
#290=B_SPLINE_CURVE_WITH_KNOTS('',3,(#1235,#1236,#1237,#1238,#1239,#1240,
#1241,#1242,#1243,#1244,#1245,#1246,#1247,#1248,#1249,#1250,#1251,#1252,
#1253,#1254,#1255,#1256,#1257),.UNSPECIFIED.,.F.,.F.,(4,2,2,2,2,3,2,2,2,
2,4),(-0.425059175562453,-0.371991148148643,-0.311229610705381,-0.22866124866108,
-0.165884501020412,0.,0.165884501020412,0.22866124866108,0.311229610705381,
0.371991148148643,0.425059175562453),.UNSPECIFIED.);
#291=VERTEX_POINT('',#918);
#292=VERTEX_POINT('',#919);
#293=VERTEX_POINT('',#956);
#294=VERTEX_POINT('',#958);
#295=VERTEX_POINT('',#996);
#296=VERTEX_POINT('',#997);
#297=VERTEX_POINT('',#1034);
#298=VERTEX_POINT('',#1036);
#299=VERTEX_POINT('',#1074);
#300=VERTEX_POINT('',#1076);
#301=VERTEX_POINT('',#1080);
#302=VERTEX_POINT('',#1082);
#303=VERTEX_POINT('',#1088);
#304=VERTEX_POINT('',#1090);
#305=VERTEX_POINT('',#1094);
#306=VERTEX_POINT('',#1095);
#307=VERTEX_POINT('',#1097);
#308=VERTEX_POINT('',#1099);
#309=VERTEX_POINT('',#1103);
#310=VERTEX_POINT('',#1105);
#311=VERTEX_POINT('',#1109);
#312=VERTEX_POINT('',#1113);
#313=VERTEX_POINT('',#1120);
#314=VERTEX_POINT('',#1122);
#315=VERTEX_POINT('',#1126);
#316=VERTEX_POINT('',#1127);
#317=VERTEX_POINT('',#1129);
#318=VERTEX_POINT('',#1131);
#319=VERTEX_POINT('',#1135);
#320=VERTEX_POINT('',#1137);
#321=VERTEX_POINT('',#1141);
#322=VERTEX_POINT('',#1145);
#323=VERTEX_POINT('',#1152);
#324=VERTEX_POINT('',#1154);
#325=VERTEX_POINT('',#1158);
#326=VERTEX_POINT('',#1159);
#327=VERTEX_POINT('',#1161);
#328=VERTEX_POINT('',#1163);
#329=VERTEX_POINT('',#1167);
#330=VERTEX_POINT('',#1169);
#331=VERTEX_POINT('',#1171);
#332=VERTEX_POINT('',#1173);
#333=VERTEX_POINT('',#1175);
#334=VERTEX_POINT('',#1179);
#335=VERTEX_POINT('',#1183);
#336=VERTEX_POINT('',#1185);
#337=VERTEX_POINT('',#1189);
#338=VERTEX_POINT('',#1193);
#339=VERTEX_POINT('',#1202);
#340=VERTEX_POINT('',#1203);
#341=VERTEX_POINT('',#1227);
#342=VERTEX_POINT('',#1229);
#343=VERTEX_POINT('',#1233);
#344=VERTEX_POINT('',#1234);
#345=VERTEX_POINT('',#1258);
#346=VERTEX_POINT('',#1260);
#347=VERTEX_POINT('',#1266);
#348=VERTEX_POINT('',#1269);
#349=VERTEX_POINT('',#1300);
#350=VERTEX_POINT('',#1302);
#351=EDGE_CURVE('',#291,#292,#281,.T.);
#352=EDGE_CURVE('',#292,#291,#282,.T.);
#353=EDGE_CURVE('',#292,#293,#171,.T.);
#354=EDGE_CURVE('',#294,#293,#283,.T.);
#355=EDGE_CURVE('',#293,#294,#284,.T.);
#356=EDGE_CURVE('',#295,#296,#285,.T.);
#357=EDGE_CURVE('',#296,#295,#286,.T.);
#358=EDGE_CURVE('',#296,#297,#172,.T.);
#359=EDGE_CURVE('',#298,#297,#287,.T.);
#360=EDGE_CURVE('',#297,#298,#288,.T.);
#361=EDGE_CURVE('',#299,#299,#61,.T.);
#362=EDGE_CURVE('',#299,#300,#173,.T.);
#363=EDGE_CURVE('',#300,#300,#62,.T.);
#364=EDGE_CURVE('',#301,#301,#63,.T.);
#365=EDGE_CURVE('',#301,#302,#174,.T.);
#366=EDGE_CURVE('',#302,#302,#64,.T.);
#367=EDGE_CURVE('',#303,#303,#65,.T.);
#368=EDGE_CURVE('',#303,#304,#175,.T.);
#369=EDGE_CURVE('',#304,#304,#66,.T.);
#370=EDGE_CURVE('',#305,#306,#176,.T.);
#371=EDGE_CURVE('',#306,#307,#177,.T.);
#372=EDGE_CURVE('',#307,#308,#178,.T.);
#373=EDGE_CURVE('',#308,#305,#179,.T.);
#374=EDGE_CURVE('',#309,#306,#180,.T.);
#375=EDGE_CURVE('',#310,#309,#181,.T.);
#376=EDGE_CURVE('',#307,#310,#182,.T.);
#377=EDGE_CURVE('',#311,#310,#183,.T.);
#378=EDGE_CURVE('',#308,#311,#184,.T.);
#379=EDGE_CURVE('',#312,#311,#185,.T.);
#380=EDGE_CURVE('',#305,#312,#186,.T.);
#381=EDGE_CURVE('',#309,#312,#187,.T.);
#382=EDGE_CURVE('',#313,#313,#67,.T.);
#383=EDGE_CURVE('',#313,#314,#188,.T.);
#384=EDGE_CURVE('',#314,#314,#68,.T.);
#385=EDGE_CURVE('',#315,#316,#189,.T.);
#386=EDGE_CURVE('',#316,#317,#190,.T.);
#387=EDGE_CURVE('',#317,#318,#191,.T.);
#388=EDGE_CURVE('',#318,#315,#192,.T.);
#389=EDGE_CURVE('',#319,#316,#193,.T.);
#390=EDGE_CURVE('',#320,#319,#194,.T.);
#391=EDGE_CURVE('',#317,#320,#195,.T.);
#392=EDGE_CURVE('',#321,#320,#196,.T.);
#393=EDGE_CURVE('',#318,#321,#197,.T.);
#394=EDGE_CURVE('',#322,#321,#198,.T.);
#395=EDGE_CURVE('',#315,#322,#199,.T.);
#396=EDGE_CURVE('',#319,#322,#200,.T.);
#397=EDGE_CURVE('',#323,#323,#69,.T.);
#398=EDGE_CURVE('',#323,#324,#201,.T.);
#399=EDGE_CURVE('',#324,#324,#70,.T.);
#400=EDGE_CURVE('',#325,#326,#71,.T.);
#401=EDGE_CURVE('',#327,#326,#202,.T.);
#402=EDGE_CURVE('',#327,#328,#72,.T.);
#403=EDGE_CURVE('',#328,#325,#203,.T.);
#404=EDGE_CURVE('',#329,#327,#73,.T.);
#405=EDGE_CURVE('',#329,#330,#204,.T.);
#406=EDGE_CURVE('',#330,#331,#205,.T.);
#407=EDGE_CURVE('',#331,#332,#206,.T.);
#408=EDGE_CURVE('',#332,#333,#207,.T.);
#409=EDGE_CURVE('',#333,#328,#208,.T.);
#410=EDGE_CURVE('',#326,#334,#74,.T.);
#411=EDGE_CURVE('',#334,#329,#209,.T.);
#412=EDGE_CURVE('',#330,#335,#210,.T.);
#413=EDGE_CURVE('',#336,#335,#211,.T.);
#414=EDGE_CURVE('',#331,#336,#212,.T.);
#415=EDGE_CURVE('',#337,#336,#213,.T.);
#416=EDGE_CURVE('',#332,#337,#214,.T.);
#417=EDGE_CURVE('',#338,#337,#215,.T.);
#418=EDGE_CURVE('',#333,#338,#216,.T.);
#419=EDGE_CURVE('',#325,#338,#217,.T.);
#420=EDGE_CURVE('',#335,#334,#218,.T.);
#421=EDGE_CURVE('',#339,#340,#289,.T.);
#422=EDGE_CURVE('',#341,#339,#219,.T.);
#423=EDGE_CURVE('',#342,#341,#220,.T.);
#424=EDGE_CURVE('',#340,#342,#221,.T.);
#425=EDGE_CURVE('',#343,#344,#290,.T.);
#426=EDGE_CURVE('',#345,#343,#222,.T.);
#427=EDGE_CURVE('',#346,#345,#223,.T.);
#428=EDGE_CURVE('',#344,#346,#224,.T.);
#429=EDGE_CURVE('',#341,#346,#75,.T.);
#430=EDGE_CURVE('',#345,#342,#76,.T.);
#431=EDGE_CURVE('',#347,#347,#77,.T.);
#432=EDGE_CURVE('',#348,#339,#78,.T.);
#433=EDGE_CURVE('',#344,#348,#79,.T.);
#434=EDGE_CURVE('',#340,#343,#80,.T.);
#435=EDGE_CURVE('',#348,#349,#81,.T.);
#436=EDGE_CURVE('',#349,#350,#82,.T.);
#437=EDGE_CURVE('',#350,#349,#83,.T.);
#438=EDGE_CURVE('',#347,#350,#225,.T.);
#439=ORIENTED_EDGE('',*,*,#351,.F.);
#440=ORIENTED_EDGE('',*,*,#352,.F.);
#441=ORIENTED_EDGE('',*,*,#353,.T.);
#442=ORIENTED_EDGE('',*,*,#354,.F.);
#443=ORIENTED_EDGE('',*,*,#355,.F.);
#444=ORIENTED_EDGE('',*,*,#353,.F.);
#445=ORIENTED_EDGE('',*,*,#356,.F.);
#446=ORIENTED_EDGE('',*,*,#357,.F.);
#447=ORIENTED_EDGE('',*,*,#358,.T.);
#448=ORIENTED_EDGE('',*,*,#359,.F.);
#449=ORIENTED_EDGE('',*,*,#360,.F.);
#450=ORIENTED_EDGE('',*,*,#358,.F.);
#451=ORIENTED_EDGE('',*,*,#361,.F.);
#452=ORIENTED_EDGE('',*,*,#362,.T.);
#453=ORIENTED_EDGE('',*,*,#363,.T.);
#454=ORIENTED_EDGE('',*,*,#362,.F.);
#455=ORIENTED_EDGE('',*,*,#354,.T.);
#456=ORIENTED_EDGE('',*,*,#355,.T.);
#457=ORIENTED_EDGE('',*,*,#359,.T.);
#458=ORIENTED_EDGE('',*,*,#360,.T.);
#459=ORIENTED_EDGE('',*,*,#364,.F.);
#460=ORIENTED_EDGE('',*,*,#365,.T.);
#461=ORIENTED_EDGE('',*,*,#366,.T.);
#462=ORIENTED_EDGE('',*,*,#365,.F.);
#463=ORIENTED_EDGE('',*,*,#351,.T.);
#464=ORIENTED_EDGE('',*,*,#352,.T.);
#465=ORIENTED_EDGE('',*,*,#356,.T.);
#466=ORIENTED_EDGE('',*,*,#357,.T.);
#467=ORIENTED_EDGE('',*,*,#364,.T.);
#468=ORIENTED_EDGE('',*,*,#361,.T.);
#469=ORIENTED_EDGE('',*,*,#366,.F.);
#470=ORIENTED_EDGE('',*,*,#363,.F.);
#471=ORIENTED_EDGE('',*,*,#367,.F.);
#472=ORIENTED_EDGE('',*,*,#368,.T.);
#473=ORIENTED_EDGE('',*,*,#369,.F.);
#474=ORIENTED_EDGE('',*,*,#368,.F.);
#475=ORIENTED_EDGE('',*,*,#370,.T.);
#476=ORIENTED_EDGE('',*,*,#371,.T.);
#477=ORIENTED_EDGE('',*,*,#372,.T.);
#478=ORIENTED_EDGE('',*,*,#373,.T.);
#479=ORIENTED_EDGE('',*,*,#369,.T.);
#480=ORIENTED_EDGE('',*,*,#374,.F.);
#481=ORIENTED_EDGE('',*,*,#375,.F.);
#482=ORIENTED_EDGE('',*,*,#376,.F.);
#483=ORIENTED_EDGE('',*,*,#371,.F.);
#484=ORIENTED_EDGE('',*,*,#376,.T.);
#485=ORIENTED_EDGE('',*,*,#377,.F.);
#486=ORIENTED_EDGE('',*,*,#378,.F.);
#487=ORIENTED_EDGE('',*,*,#372,.F.);
#488=ORIENTED_EDGE('',*,*,#378,.T.);
#489=ORIENTED_EDGE('',*,*,#379,.F.);
#490=ORIENTED_EDGE('',*,*,#380,.F.);
#491=ORIENTED_EDGE('',*,*,#373,.F.);
#492=ORIENTED_EDGE('',*,*,#380,.T.);
#493=ORIENTED_EDGE('',*,*,#381,.F.);
#494=ORIENTED_EDGE('',*,*,#374,.T.);
#495=ORIENTED_EDGE('',*,*,#370,.F.);
#496=ORIENTED_EDGE('',*,*,#381,.T.);
#497=ORIENTED_EDGE('',*,*,#379,.T.);
#498=ORIENTED_EDGE('',*,*,#377,.T.);
#499=ORIENTED_EDGE('',*,*,#375,.T.);
#500=ORIENTED_EDGE('',*,*,#367,.T.);
#501=ORIENTED_EDGE('',*,*,#382,.F.);
#502=ORIENTED_EDGE('',*,*,#383,.T.);
#503=ORIENTED_EDGE('',*,*,#384,.F.);
#504=ORIENTED_EDGE('',*,*,#383,.F.);
#505=ORIENTED_EDGE('',*,*,#385,.T.);
#506=ORIENTED_EDGE('',*,*,#386,.T.);
#507=ORIENTED_EDGE('',*,*,#387,.T.);
#508=ORIENTED_EDGE('',*,*,#388,.T.);
#509=ORIENTED_EDGE('',*,*,#384,.T.);
#510=ORIENTED_EDGE('',*,*,#389,.F.);
#511=ORIENTED_EDGE('',*,*,#390,.F.);
#512=ORIENTED_EDGE('',*,*,#391,.F.);
#513=ORIENTED_EDGE('',*,*,#386,.F.);
#514=ORIENTED_EDGE('',*,*,#391,.T.);
#515=ORIENTED_EDGE('',*,*,#392,.F.);
#516=ORIENTED_EDGE('',*,*,#393,.F.);
#517=ORIENTED_EDGE('',*,*,#387,.F.);
#518=ORIENTED_EDGE('',*,*,#393,.T.);
#519=ORIENTED_EDGE('',*,*,#394,.F.);
#520=ORIENTED_EDGE('',*,*,#395,.F.);
#521=ORIENTED_EDGE('',*,*,#388,.F.);
#522=ORIENTED_EDGE('',*,*,#395,.T.);
#523=ORIENTED_EDGE('',*,*,#396,.F.);
#524=ORIENTED_EDGE('',*,*,#389,.T.);
#525=ORIENTED_EDGE('',*,*,#385,.F.);
#526=ORIENTED_EDGE('',*,*,#396,.T.);
#527=ORIENTED_EDGE('',*,*,#394,.T.);
#528=ORIENTED_EDGE('',*,*,#392,.T.);
#529=ORIENTED_EDGE('',*,*,#390,.T.);
#530=ORIENTED_EDGE('',*,*,#382,.T.);
#531=ORIENTED_EDGE('',*,*,#397,.F.);
#532=ORIENTED_EDGE('',*,*,#398,.T.);
#533=ORIENTED_EDGE('',*,*,#399,.F.);
#534=ORIENTED_EDGE('',*,*,#398,.F.);
#535=ORIENTED_EDGE('',*,*,#400,.T.);
#536=ORIENTED_EDGE('',*,*,#401,.F.);
#537=ORIENTED_EDGE('',*,*,#402,.T.);
#538=ORIENTED_EDGE('',*,*,#403,.T.);
#539=ORIENTED_EDGE('',*,*,#402,.F.);
#540=ORIENTED_EDGE('',*,*,#404,.F.);
#541=ORIENTED_EDGE('',*,*,#405,.T.);
#542=ORIENTED_EDGE('',*,*,#406,.T.);
#543=ORIENTED_EDGE('',*,*,#407,.T.);
#544=ORIENTED_EDGE('',*,*,#408,.T.);
#545=ORIENTED_EDGE('',*,*,#409,.T.);
#546=ORIENTED_EDGE('',*,*,#399,.T.);
#547=ORIENTED_EDGE('',*,*,#410,.T.);
#548=ORIENTED_EDGE('',*,*,#411,.T.);
#549=ORIENTED_EDGE('',*,*,#404,.T.);
#550=ORIENTED_EDGE('',*,*,#401,.T.);
#551=ORIENTED_EDGE('',*,*,#412,.T.);
#552=ORIENTED_EDGE('',*,*,#413,.F.);
#553=ORIENTED_EDGE('',*,*,#414,.F.);
#554=ORIENTED_EDGE('',*,*,#406,.F.);
#555=ORIENTED_EDGE('',*,*,#414,.T.);
#556=ORIENTED_EDGE('',*,*,#415,.F.);
#557=ORIENTED_EDGE('',*,*,#416,.F.);
#558=ORIENTED_EDGE('',*,*,#407,.F.);
#559=ORIENTED_EDGE('',*,*,#416,.T.);
#560=ORIENTED_EDGE('',*,*,#417,.F.);
#561=ORIENTED_EDGE('',*,*,#418,.F.);
#562=ORIENTED_EDGE('',*,*,#408,.F.);
#563=ORIENTED_EDGE('',*,*,#403,.F.);
#564=ORIENTED_EDGE('',*,*,#409,.F.);
#565=ORIENTED_EDGE('',*,*,#418,.T.);
#566=ORIENTED_EDGE('',*,*,#419,.F.);
#567=ORIENTED_EDGE('',*,*,#411,.F.);
#568=ORIENTED_EDGE('',*,*,#420,.F.);
#569=ORIENTED_EDGE('',*,*,#412,.F.);
#570=ORIENTED_EDGE('',*,*,#405,.F.);
#571=ORIENTED_EDGE('',*,*,#400,.F.);
#572=ORIENTED_EDGE('',*,*,#419,.T.);
#573=ORIENTED_EDGE('',*,*,#417,.T.);
#574=ORIENTED_EDGE('',*,*,#415,.T.);
#575=ORIENTED_EDGE('',*,*,#413,.T.);
#576=ORIENTED_EDGE('',*,*,#420,.T.);
#577=ORIENTED_EDGE('',*,*,#410,.F.);
#578=ORIENTED_EDGE('',*,*,#397,.T.);
#579=ORIENTED_EDGE('',*,*,#421,.F.);
#580=ORIENTED_EDGE('',*,*,#422,.F.);
#581=ORIENTED_EDGE('',*,*,#423,.F.);
#582=ORIENTED_EDGE('',*,*,#424,.F.);
#583=ORIENTED_EDGE('',*,*,#425,.F.);
#584=ORIENTED_EDGE('',*,*,#426,.F.);
#585=ORIENTED_EDGE('',*,*,#427,.F.);
#586=ORIENTED_EDGE('',*,*,#428,.F.);
#587=ORIENTED_EDGE('',*,*,#423,.T.);
#588=ORIENTED_EDGE('',*,*,#429,.T.);
#589=ORIENTED_EDGE('',*,*,#427,.T.);
#590=ORIENTED_EDGE('',*,*,#430,.T.);
#591=ORIENTED_EDGE('',*,*,#431,.T.);
#592=ORIENTED_EDGE('',*,*,#422,.T.);
#593=ORIENTED_EDGE('',*,*,#432,.F.);
#594=ORIENTED_EDGE('',*,*,#433,.F.);
#595=ORIENTED_EDGE('',*,*,#428,.T.);
#596=ORIENTED_EDGE('',*,*,#429,.F.);
#597=ORIENTED_EDGE('',*,*,#421,.T.);
#598=ORIENTED_EDGE('',*,*,#434,.T.);
#599=ORIENTED_EDGE('',*,*,#425,.T.);
#600=ORIENTED_EDGE('',*,*,#433,.T.);
#601=ORIENTED_EDGE('',*,*,#435,.T.);
#602=ORIENTED_EDGE('',*,*,#436,.T.);
#603=ORIENTED_EDGE('',*,*,#437,.T.);
#604=ORIENTED_EDGE('',*,*,#435,.F.);
#605=ORIENTED_EDGE('',*,*,#432,.T.);
#606=ORIENTED_EDGE('',*,*,#424,.T.);
#607=ORIENTED_EDGE('',*,*,#430,.F.);
#608=ORIENTED_EDGE('',*,*,#426,.T.);
#609=ORIENTED_EDGE('',*,*,#434,.F.);
#610=ORIENTED_EDGE('',*,*,#431,.F.);
#611=ORIENTED_EDGE('',*,*,#438,.T.);
#612=ORIENTED_EDGE('',*,*,#436,.F.);
#613=ORIENTED_EDGE('',*,*,#437,.F.);
#614=ORIENTED_EDGE('',*,*,#438,.F.);
#615=CYLINDRICAL_SURFACE('',#682,1.);
#616=CYLINDRICAL_SURFACE('',#683,1.);
#617=CYLINDRICAL_SURFACE('',#684,5.);
#618=CYLINDRICAL_SURFACE('',#687,7.5);
#619=CYLINDRICAL_SURFACE('',#692,1.);
#620=CYLINDRICAL_SURFACE('',#701,1.);
#621=CYLINDRICAL_SURFACE('',#710,1.125);
#622=CYLINDRICAL_SURFACE('',#713,2.5);
#623=CYLINDRICAL_SURFACE('',#718,2.5);
#624=CYLINDRICAL_SURFACE('',#732,9.5);
#625=CYLINDRICAL_SURFACE('',#739,9.5);
#626=CYLINDRICAL_SURFACE('',#740,7.5);
#627=ADVANCED_FACE('',(#84),#615,.F.);
#628=ADVANCED_FACE('',(#85),#616,.F.);
#629=ADVANCED_FACE('',(#86,#48,#49),#617,.F.);
#630=ADVANCED_FACE('',(#87,#50,#51),#618,.T.);
#631=ADVANCED_FACE('',(#88,#52),#24,.T.);
#632=ADVANCED_FACE('',(#89,#53),#25,.F.);
#633=ADVANCED_FACE('',(#90),#619,.F.);
#634=ADVANCED_FACE('',(#91,#54),#26,.T.);
#635=ADVANCED_FACE('',(#92),#27,.T.);
#636=ADVANCED_FACE('',(#93),#28,.T.);
#637=ADVANCED_FACE('',(#94),#29,.T.);
#638=ADVANCED_FACE('',(#95),#30,.T.);
#639=ADVANCED_FACE('',(#96,#55),#31,.T.);
#640=ADVANCED_FACE('',(#97),#620,.F.);
#641=ADVANCED_FACE('',(#98,#56),#32,.T.);
#642=ADVANCED_FACE('',(#99),#33,.T.);
#643=ADVANCED_FACE('',(#100),#34,.T.);
#644=ADVANCED_FACE('',(#101),#35,.T.);
#645=ADVANCED_FACE('',(#102),#36,.T.);
#646=ADVANCED_FACE('',(#103,#57),#37,.T.);
#647=ADVANCED_FACE('',(#104),#621,.F.);
#648=ADVANCED_FACE('',(#105),#622,.T.);
#649=ADVANCED_FACE('',(#106,#58),#38,.T.);
#650=ADVANCED_FACE('',(#107),#623,.T.);
#651=ADVANCED_FACE('',(#108),#39,.T.);
#652=ADVANCED_FACE('',(#109),#40,.T.);
#653=ADVANCED_FACE('',(#110),#41,.T.);
#654=ADVANCED_FACE('',(#111),#42,.T.);
#655=ADVANCED_FACE('',(#112),#43,.T.);
#656=ADVANCED_FACE('',(#113,#59),#44,.T.);
#657=ADVANCED_FACE('',(#114),#45,.F.);
#658=ADVANCED_FACE('',(#115),#46,.F.);
#659=ADVANCED_FACE('',(#116,#60),#47,.T.);
#660=ADVANCED_FACE('',(#117),#624,.T.);
#661=ADVANCED_FACE('',(#118),#13,.T.);
#662=ADVANCED_FACE('',(#119),#625,.T.);
#663=ADVANCED_FACE('',(#120),#626,.F.);
#664=CLOSED_SHELL('',(#627,#628,#629,#630,#631,#632));
#665=CLOSED_SHELL('',(#633,#634,#635,#636,#637,#638,#639));
#666=CLOSED_SHELL('',(#640,#641,#642,#643,#644,#645,#646));
#667=CLOSED_SHELL('',(#647,#648,#649,#650,#651,#652,#653,#654,#655,#656));
#668=CLOSED_SHELL('',(#657,#658,#659,#660,#661,#662,#663));
#669=DERIVED_UNIT_ELEMENT(#671,1.);
#670=DERIVED_UNIT_ELEMENT(#1313,-3.);
#671=(
MASS_UNIT()
NAMED_UNIT(*)
SI_UNIT(.KILO.,.GRAM.)
);
#672=DERIVED_UNIT((#669,#670));
#673=MEASURE_REPRESENTATION_ITEM('density measure',
POSITIVE_RATIO_MEASURE(7850.),#672);
#674=PROPERTY_DEFINITION_REPRESENTATION(#679,#676);
#675=PROPERTY_DEFINITION_REPRESENTATION(#680,#677);
#676=REPRESENTATION('material name',(#678),#1310);
#677=REPRESENTATION('density',(#673),#1310);
#678=DESCRIPTIVE_REPRESENTATION_ITEM('Steel','Steel');
#679=PROPERTY_DEFINITION('material property','material name',#1320);
#680=PROPERTY_DEFINITION('material property','density of part',#1320);
#681=AXIS2_PLACEMENT_3D('',#916,#741,#742);
#682=AXIS2_PLACEMENT_3D('',#917,#743,#744);
#683=AXIS2_PLACEMENT_3D('',#995,#746,#747);
#684=AXIS2_PLACEMENT_3D('',#1073,#749,#750);
#685=AXIS2_PLACEMENT_3D('',#1075,#751,#752);
#686=AXIS2_PLACEMENT_3D('',#1078,#754,#755);
#687=AXIS2_PLACEMENT_3D('',#1079,#756,#757);
#688=AXIS2_PLACEMENT_3D('',#1081,#758,#759);
#689=AXIS2_PLACEMENT_3D('',#1084,#761,#762);
#690=AXIS2_PLACEMENT_3D('',#1085,#763,#764);
#691=AXIS2_PLACEMENT_3D('',#1086,#765,#766);
#692=AXIS2_PLACEMENT_3D('',#1087,#767,#768);
#693=AXIS2_PLACEMENT_3D('',#1089,#769,#770);
#694=AXIS2_PLACEMENT_3D('',#1092,#772,#773);
#695=AXIS2_PLACEMENT_3D('',#1093,#774,#775);
#696=AXIS2_PLACEMENT_3D('',#1102,#780,#781);
#697=AXIS2_PLACEMENT_3D('',#1108,#785,#786);
#698=AXIS2_PLACEMENT_3D('',#1112,#789,#790);
#699=AXIS2_PLACEMENT_3D('',#1116,#793,#794);
#700=AXIS2_PLACEMENT_3D('',#1118,#796,#797);
#701=AXIS2_PLACEMENT_3D('',#1119,#798,#799);
#702=AXIS2_PLACEMENT_3D('',#1121,#800,#801);
#703=AXIS2_PLACEMENT_3D('',#1124,#803,#804);
#704=AXIS2_PLACEMENT_3D('',#1125,#805,#806);
#705=AXIS2_PLACEMENT_3D('',#1134,#811,#812);
#706=AXIS2_PLACEMENT_3D('',#1140,#816,#817);
#707=AXIS2_PLACEMENT_3D('',#1144,#820,#821);
#708=AXIS2_PLACEMENT_3D('',#1148,#824,#825);
#709=AXIS2_PLACEMENT_3D('',#1150,#827,#828);
#710=AXIS2_PLACEMENT_3D('',#1151,#829,#830);
#711=AXIS2_PLACEMENT_3D('',#1153,#831,#832);
#712=AXIS2_PLACEMENT_3D('',#1156,#834,#835);
#713=AXIS2_PLACEMENT_3D('',#1157,#836,#837);
#714=AXIS2_PLACEMENT_3D('',#1160,#838,#839);
#715=AXIS2_PLACEMENT_3D('',#1164,#841,#842);
#716=AXIS2_PLACEMENT_3D('',#1166,#844,#845);
#717=AXIS2_PLACEMENT_3D('',#1168,#846,#847);
#718=AXIS2_PLACEMENT_3D('',#1178,#853,#854);
#719=AXIS2_PLACEMENT_3D('',#1180,#855,#856);
#720=AXIS2_PLACEMENT_3D('',#1182,#858,#859);
#721=AXIS2_PLACEMENT_3D('',#1188,#863,#864);
#722=AXIS2_PLACEMENT_3D('',#1192,#867,#868);
#723=AXIS2_PLACEMENT_3D('',#1196,#871,#872);
#724=AXIS2_PLACEMENT_3D('',#1198,#874,#875);
#725=AXIS2_PLACEMENT_3D('',#1200,#877,#878);
#726=AXIS2_PLACEMENT_3D('',#1201,#879,#880);
#727=AXIS2_PLACEMENT_3D('',#1232,#884,#885);
#728=AXIS2_PLACEMENT_3D('',#1263,#889,#890);
#729=AXIS2_PLACEMENT_3D('',#1264,#891,#892);
#730=AXIS2_PLACEMENT_3D('',#1265,#893,#894);
#731=AXIS2_PLACEMENT_3D('',#1267,#895,#896);
#732=AXIS2_PLACEMENT_3D('',#1268,#897,#898);
#733=AXIS2_PLACEMENT_3D('',#1270,#899,#900);
#734=AXIS2_PLACEMENT_3D('',#1271,#901,#902);
#735=AXIS2_PLACEMENT_3D('',#1299,#903,#904);
#736=AXIS2_PLACEMENT_3D('',#1301,#905,#906);
#737=AXIS2_PLACEMENT_3D('',#1303,#907,#908);
#738=AXIS2_PLACEMENT_3D('',#1304,#909,#910);
#739=AXIS2_PLACEMENT_3D('',#1305,#911,#912);
#740=AXIS2_PLACEMENT_3D('',#1306,#913,#914);
#741=DIRECTION('axis',(0.,0.,1.));
#742=DIRECTION('refdir',(1.,0.,0.));
#743=DIRECTION('center_axis',(0.,0.,1.));
#744=DIRECTION('ref_axis',(1.,0.,0.));
#745=DIRECTION('',(0.,0.,1.));
#746=DIRECTION('center_axis',(0.,0.,-1.));
#747=DIRECTION('ref_axis',(-1.,0.,0.));
#748=DIRECTION('',(0.,0.,-1.));
#749=DIRECTION('center_axis',(0.,1.,0.));
#750=DIRECTION('ref_axis',(1.,0.,0.));
#751=DIRECTION('center_axis',(0.,-1.,0.));
#752=DIRECTION('ref_axis',(1.,0.,0.));
#753=DIRECTION('',(0.,-1.,0.));
#754=DIRECTION('center_axis',(0.,-1.,0.));
#755=DIRECTION('ref_axis',(1.,0.,0.));
#756=DIRECTION('center_axis',(0.,1.,0.));
#757=DIRECTION('ref_axis',(1.,0.,0.));
#758=DIRECTION('center_axis',(0.,1.,0.));
#759=DIRECTION('ref_axis',(1.,0.,0.));
#760=DIRECTION('',(0.,-1.,0.));
#761=DIRECTION('center_axis',(0.,1.,0.));
#762=DIRECTION('ref_axis',(1.,0.,0.));
#763=DIRECTION('center_axis',(0.,1.,0.));
#764=DIRECTION('ref_axis',(1.,0.,0.));
#765=DIRECTION('center_axis',(0.,1.,0.));
#766=DIRECTION('ref_axis',(1.,0.,0.));
#767=DIRECTION('center_axis',(0.,0.,-1.));
#768=DIRECTION('ref_axis',(-1.,0.,0.));
#769=DIRECTION('center_axis',(0.,0.,-1.));
#770=DIRECTION('ref_axis',(-1.,0.,0.));
#771=DIRECTION('',(0.,0.,-1.));
#772=DIRECTION('center_axis',(0.,0.,1.));
#773=DIRECTION('ref_axis',(-1.,0.,0.));
#774=DIRECTION('center_axis',(0.,0.,-1.));
#775=DIRECTION('ref_axis',(-1.,0.,0.));
#776=DIRECTION('',(1.,0.,0.));
#777=DIRECTION('',(0.,-1.,0.));
#778=DIRECTION('',(-1.,0.,0.));
#779=DIRECTION('',(0.,1.,0.));
#780=DIRECTION('center_axis',(1.,0.,0.));
#781=DIRECTION('ref_axis',(0.,1.,0.));
#782=DIRECTION('',(0.,0.,-1.));
#783=DIRECTION('',(0.,1.,0.));
#784=DIRECTION('',(0.,0.,1.));
#785=DIRECTION('center_axis',(0.,-1.,0.));
#786=DIRECTION('ref_axis',(1.,0.,0.));
#787=DIRECTION('',(1.,0.,0.));
#788=DIRECTION('',(0.,0.,1.));
#789=DIRECTION('center_axis',(-1.,0.,0.));
#790=DIRECTION('ref_axis',(0.,-1.,0.));
#791=DIRECTION('',(0.,-1.,0.));
#792=DIRECTION('',(0.,0.,1.));
#793=DIRECTION('center_axis',(0.,1.,0.));
#794=DIRECTION('ref_axis',(-1.,0.,0.));
#795=DIRECTION('',(-1.,0.,0.));
#796=DIRECTION('center_axis',(0.,0.,1.));
#797=DIRECTION('ref_axis',(1.,0.,0.));
#798=DIRECTION('center_axis',(0.,0.,1.));
#799=DIRECTION('ref_axis',(1.,0.,0.));
#800=DIRECTION('center_axis',(0.,0.,1.));
#801=DIRECTION('ref_axis',(1.,0.,0.));
#802=DIRECTION('',(0.,0.,1.));
#803=DIRECTION('center_axis',(0.,0.,-1.));
#804=DIRECTION('ref_axis',(1.,0.,0.));
#805=DIRECTION('center_axis',(0.,0.,1.));
#806=DIRECTION('ref_axis',(1.,0.,0.));
#807=DIRECTION('',(1.,0.,1.22464679914735E-16));
#808=DIRECTION('',(0.,1.,0.));
#809=DIRECTION('',(-1.,0.,-1.22464679914735E-16));
#810=DIRECTION('',(0.,-1.,0.));
#811=DIRECTION('center_axis',(1.,0.,0.));
#812=DIRECTION('ref_axis',(0.,-1.,0.));
#813=DIRECTION('',(0.,0.,1.));
#814=DIRECTION('',(0.,-1.,0.));
#815=DIRECTION('',(0.,0.,-1.));
#816=DIRECTION('center_axis',(0.,1.,0.));
#817=DIRECTION('ref_axis',(1.,0.,1.22464679914735E-16));
#818=DIRECTION('',(1.,0.,1.22464679914735E-16));
#819=DIRECTION('',(0.,0.,-1.));
#820=DIRECTION('center_axis',(-1.,0.,0.));
#821=DIRECTION('ref_axis',(0.,1.,0.));
#822=DIRECTION('',(0.,1.,0.));
#823=DIRECTION('',(0.,0.,-1.));
#824=DIRECTION('center_axis',(0.,-1.,0.));
#825=DIRECTION('ref_axis',(-1.,0.,-1.22464679914735E-16));
#826=DIRECTION('',(-1.,0.,-1.22464679914735E-16));
#827=DIRECTION('center_axis',(0.,0.,-1.));
#828=DIRECTION('ref_axis',(-1.,0.,0.));
#829=DIRECTION('center_axis',(0.,0.,-1.));
#830=DIRECTION('ref_axis',(-1.,0.,0.));
#831=DIRECTION('center_axis',(0.,0.,-1.));
#832=DIRECTION('ref_axis',(-1.,0.,0.));
#833=DIRECTION('',(0.,0.,-1.));
#834=DIRECTION('center_axis',(0.,0.,1.));
#835=DIRECTION('ref_axis',(-1.,0.,0.));
#836=DIRECTION('center_axis',(0.,0.,1.));
#837=DIRECTION('ref_axis',(0.70710678329389,0.707106779079205,0.));
#838=DIRECTION('center_axis',(0.,0.,-1.));
#839=DIRECTION('ref_axis',(0.70710678329389,0.707106779079205,0.));
#840=DIRECTION('',(0.,0.,1.));
#841=DIRECTION('center_axis',(0.,0.,1.));
#842=DIRECTION('ref_axis',(0.70710678329389,0.707106779079205,0.));
#843=DIRECTION('',(0.,0.,1.));
#844=DIRECTION('center_axis',(0.,0.,-1.));
#845=DIRECTION('ref_axis',(-1.,0.,0.));
#846=DIRECTION('center_axis',(0.,0.,1.));
#847=DIRECTION('ref_axis',(0.707106781186547,-0.707106781186547,0.));
#848=DIRECTION('',(-1.,0.,0.));
#849=DIRECTION('',(0.,1.,0.));
#850=DIRECTION('',(1.,0.,0.));
#851=DIRECTION('',(0.668964751816163,-0.743294128072824,0.));
#852=DIRECTION('',(1.,-5.96046456280419E-9,0.));
#853=DIRECTION('center_axis',(0.,0.,1.));
#854=DIRECTION('ref_axis',(0.707106781186547,-0.707106781186547,0.));
#855=DIRECTION('center_axis',(0.,0.,-1.));
#856=DIRECTION('ref_axis',(0.707106781186547,-0.707106781186547,0.));
#857=DIRECTION('',(0.,0.,-1.));
#858=DIRECTION('center_axis',(-1.,0.,0.));
#859=DIRECTION('ref_axis',(0.,-1.,0.));
#860=DIRECTION('',(0.,0.,1.));
#861=DIRECTION('',(0.,-1.,0.));
#862=DIRECTION('',(0.,0.,1.));
#863=DIRECTION('center_axis',(0.,1.,0.));
#864=DIRECTION('ref_axis',(-1.,0.,0.));
#865=DIRECTION('',(-1.,0.,0.));
#866=DIRECTION('',(0.,0.,1.));
#867=DIRECTION('center_axis',(0.743294128072824,0.668964751816163,0.));
#868=DIRECTION('ref_axis',(-0.668964751816163,0.743294128072824,0.));
#869=DIRECTION('',(-0.668964751816163,0.743294128072824,0.));
#870=DIRECTION('',(0.,0.,1.));
#871=DIRECTION('center_axis',(5.96046456280419E-9,1.,0.));
#872=DIRECTION('ref_axis',(-1.,5.96046456280419E-9,0.));
#873=DIRECTION('',(-1.,5.96046456280419E-9,0.));
#874=DIRECTION('center_axis',(0.,-1.,0.));
#875=DIRECTION('ref_axis',(1.,0.,0.));
#876=DIRECTION('',(1.,0.,0.));
#877=DIRECTION('center_axis',(0.,0.,1.));
#878=DIRECTION('ref_axis',(1.,0.,0.));
#879=DIRECTION('center_axis',(0.,0.,1.));
#880=DIRECTION('ref_axis',(1.,0.,0.));
#881=DIRECTION('',(0.,1.,0.));
#882=DIRECTION('',(1.,0.,0.));
#883=DIRECTION('',(0.,-1.,0.));
#884=DIRECTION('center_axis',(0.,0.,-1.));
#885=DIRECTION('ref_axis',(-1.,0.,0.));
#886=DIRECTION('',(0.,1.,0.));
#887=DIRECTION('',(-1.,0.,0.));
#888=DIRECTION('',(0.,-1.,0.));
#889=DIRECTION('center_axis',(0.,-1.,0.));
#890=DIRECTION('ref_axis',(1.,0.,0.));
#891=DIRECTION('center_axis',(0.,-1.,0.));
#892=DIRECTION('ref_axis',(1.,0.,0.));
#893=DIRECTION('center_axis',(0.,-1.,0.));
#894=DIRECTION('ref_axis',(1.,0.,0.));
#895=DIRECTION('center_axis',(0.,1.,0.));
#896=DIRECTION('ref_axis',(1.,0.,0.));
#897=DIRECTION('center_axis',(0.,-1.,0.));
#898=DIRECTION('ref_axis',(1.,0.,0.));
#899=DIRECTION('center_axis',(0.,1.,0.));
#900=DIRECTION('ref_axis',(-1.,0.,0.));
#901=DIRECTION('center_axis',(0.,1.,0.));
#902=DIRECTION('ref_axis',(-1.,0.,0.));
#903=DIRECTION('center_axis',(0.,1.,0.));
#904=DIRECTION('ref_axis',(-1.,0.,0.));
#905=DIRECTION('center_axis',(1.22464679914735E-16,0.,1.));
#906=DIRECTION('ref_axis',(1.,0.,-1.22464679914735E-16));
#907=DIRECTION('center_axis',(0.,-1.,0.));
#908=DIRECTION('ref_axis',(1.,0.,0.));
#909=DIRECTION('center_axis',(0.,-1.,0.));
#910=DIRECTION('ref_axis',(1.,0.,0.));
#911=DIRECTION('center_axis',(0.,-1.,0.));
#912=DIRECTION('ref_axis',(-1.,0.,-1.22464679914735E-16));
#913=DIRECTION('center_axis',(0.,-1.,0.));
#914=DIRECTION('ref_axis',(1.,0.,0.));
#915=DIRECTION('',(0.,1.,0.));
#916=CARTESIAN_POINT('',(0.,0.,0.));
#917=CARTESIAN_POINT('Origin',(2.22044604925031E-15,5.00000007450581,-8.906));
#918=CARTESIAN_POINT('',(1.,5.00000007450581,-7.43303437365925));
#919=CARTESIAN_POINT('',(-0.999999999999998,5.00000007450581,-7.43303437365925));
#920=CARTESIAN_POINT('Ctrl Pts',(1.,5.00000007450581,-7.43303437365925));
#921=CARTESIAN_POINT('Ctrl Pts',(1.,5.12572388126049,-7.43303437365925));
#922=CARTESIAN_POINT('Ctrl Pts',(0.974843373583248,5.25972420758871,-7.43655341220262));
#923=CARTESIAN_POINT('Ctrl Pts',(0.872743462468009,5.50605847142089,-7.44922580432649));
#924=CARTESIAN_POINT('Ctrl Pts',(0.795808277683912,5.61840535919499,-7.45819198635124));
#925=CARTESIAN_POINT('Ctrl Pts',(0.61840624591984,5.79580739095906,-7.47499244568566));
#926=CARTESIAN_POINT('Ctrl Pts',(0.506058941317414,5.87274332928834,-7.48392372402087));
#927=CARTESIAN_POINT('Ctrl Pts',(0.259723261773257,5.97484379127011,-7.49651610989021));
#928=CARTESIAN_POINT('Ctrl Pts',(0.125722444324725,6.00000007450581,-7.5));
#929=CARTESIAN_POINT('Ctrl Pts',(-0.125722444324721,6.00000007450581,-7.5));
#930=CARTESIAN_POINT('Ctrl Pts',(-0.259723261773252,5.97484379127011,-7.49651610989021));
#931=CARTESIAN_POINT('Ctrl Pts',(-0.50605894131741,5.87274332928834,-7.48392372402087));
#932=CARTESIAN_POINT('Ctrl Pts',(-0.618406245919835,5.79580739095906,-7.47499244568566));
#933=CARTESIAN_POINT('Ctrl Pts',(-0.795808277683908,5.61840535919499,-7.45819198635124));
#934=CARTESIAN_POINT('Ctrl Pts',(-0.872743462468004,5.50605847142089,-7.4492258043265));
#935=CARTESIAN_POINT('Ctrl Pts',(-0.974843373583244,5.25972420758871,-7.43655341220262));
#936=CARTESIAN_POINT('Ctrl Pts',(-0.999999999999998,5.12572388126049,-7.43303437365925));
#937=CARTESIAN_POINT('Ctrl Pts',(-0.999999999999998,5.00000007450581,-7.43303437365925));
#938=CARTESIAN_POINT('Ctrl Pts',(-0.999999999999998,5.00000007450581,-7.43303437365925));
#939=CARTESIAN_POINT('Ctrl Pts',(-0.999999999999998,4.87427626775112,-7.43303437365925));
#940=CARTESIAN_POINT('Ctrl Pts',(-0.974843373583244,4.7402759414229,-7.43655341220262));
#941=CARTESIAN_POINT('Ctrl Pts',(-0.872743462468004,4.49394167759072,-7.4492258043265));
#942=CARTESIAN_POINT('Ctrl Pts',(-0.795808277683908,4.38159478981662,-7.45819198635124));
#943=CARTESIAN_POINT('Ctrl Pts',(-0.618406245919835,4.20419275805255,-7.47499244568566));
#944=CARTESIAN_POINT('Ctrl Pts',(-0.50605894131741,4.12725681972327,-7.48392372402087));
#945=CARTESIAN_POINT('Ctrl Pts',(-0.259723261773253,4.0251563577415,-7.49651610989021));
#946=CARTESIAN_POINT('Ctrl Pts',(-0.125722444324721,4.00000007450581,-7.5));
#947=CARTESIAN_POINT('Ctrl Pts',(0.125722444324725,4.00000007450581,-7.5));
#948=CARTESIAN_POINT('Ctrl Pts',(0.259723261773257,4.0251563577415,-7.49651610989021));
#949=CARTESIAN_POINT('Ctrl Pts',(0.506058941317414,4.12725681972327,-7.48392372402087));
#950=CARTESIAN_POINT('Ctrl Pts',(0.618406245919839,4.20419275805255,-7.47499244568566));
#951=CARTESIAN_POINT('Ctrl Pts',(0.795808277683912,4.38159478981662,-7.45819198635123));
#952=CARTESIAN_POINT('Ctrl Pts',(0.872743462468009,4.49394167759072,-7.4492258043265));
#953=CARTESIAN_POINT('Ctrl Pts',(0.974843373583248,4.7402759414229,-7.43655341220262));
#954=CARTESIAN_POINT('Ctrl Pts',(1.,4.87427626775112,-7.43303437365925));
#955=CARTESIAN_POINT('Ctrl Pts',(1.,5.00000007450581,-7.43303437365925));
#956=CARTESIAN_POINT('',(-0.999999999999998,5.00000007450581,-4.89897948556636));
#957=CARTESIAN_POINT('',(-0.999999999999998,5.00000007450581,-8.906));
#958=CARTESIAN_POINT('',(1.,5.00000007450581,-4.89897948556635));
#959=CARTESIAN_POINT('Ctrl Pts',(1.,5.00000007450581,-4.89897948556636));
#960=CARTESIAN_POINT('Ctrl Pts',(1.,4.87406832254241,-4.89897948556636));
#961=CARTESIAN_POINT('Ctrl Pts',(0.974762796248617,4.73998229734392,-4.90433876618447));
#962=CARTESIAN_POINT('Ctrl Pts',(0.872605417648385,4.49370806947575,-4.92354150792771));
#963=CARTESIAN_POINT('Ctrl Pts',(0.795703102192091,4.3814896143248,-4.93709085101933));
#964=CARTESIAN_POINT('Ctrl Pts',(0.618515424645096,4.2043019367778,-4.96240337638318));
#965=CARTESIAN_POINT('Ctrl Pts',(0.506294861197628,4.12739573296105,-4.97583347151863));
#966=CARTESIAN_POINT('Ctrl Pts',(0.260013306081867,4.02523553226997,-4.99476188647081));
#967=CARTESIAN_POINT('Ctrl Pts',(0.125924695421402,4.00000007450581,-5.));
#968=CARTESIAN_POINT('Ctrl Pts',(-0.125924695421397,4.00000007450581,-5.));
#969=CARTESIAN_POINT('Ctrl Pts',(-0.260013306081863,4.02523553226997,-4.99476188647081));
#970=CARTESIAN_POINT('Ctrl Pts',(-0.506294861197624,4.12739573296105,-4.97583347151864));
#971=CARTESIAN_POINT('Ctrl Pts',(-0.618515424645092,4.2043019367778,-4.96240337638318));
#972=CARTESIAN_POINT('Ctrl Pts',(-0.795703102192087,4.3814896143248,-4.93709085101933));
#973=CARTESIAN_POINT('Ctrl Pts',(-0.872605417648381,4.49370806947575,-4.92354150792771));
#974=CARTESIAN_POINT('Ctrl Pts',(-0.974762796248612,4.73998229734392,-4.90433876618447));
#975=CARTESIAN_POINT('Ctrl Pts',(-0.999999999999998,4.87406832254241,-4.89897948556636));
#976=CARTESIAN_POINT('Ctrl Pts',(-0.999999999999998,5.00000007450581,-4.89897948556636));
#977=CARTESIAN_POINT('Ctrl Pts',(-0.999999999999998,5.00000007450581,-4.89897948556636));
#978=CARTESIAN_POINT('Ctrl Pts',(-0.999999999999998,5.1259318264692,-4.89897948556636));
#979=CARTESIAN_POINT('Ctrl Pts',(-0.974762796248612,5.2600178516677,-4.90433876618447));
#980=CARTESIAN_POINT('Ctrl Pts',(-0.872605417648381,5.50629207953586,-4.92354150792771));
#981=CARTESIAN_POINT('Ctrl Pts',(-0.795703102192087,5.61851053468681,-4.93709085101933));
#982=CARTESIAN_POINT('Ctrl Pts',(-0.618515424645092,5.79569821223381,-4.96240337638318));
#983=CARTESIAN_POINT('Ctrl Pts',(-0.506294861197624,5.87260441605056,-4.97583347151864));
#984=CARTESIAN_POINT('Ctrl Pts',(-0.260013306081863,5.97476461674164,-4.99476188647081));
#985=CARTESIAN_POINT('Ctrl Pts',(-0.125924695421398,6.00000007450581,-5.));
#986=CARTESIAN_POINT('Ctrl Pts',(0.125924695421402,6.00000007450581,-5.));
#987=CARTESIAN_POINT('Ctrl Pts',(0.260013306081866,5.97476461674164,-4.99476188647081));
#988=CARTESIAN_POINT('Ctrl Pts',(0.506294861197627,5.87260441605056,-4.97583347151863));
#989=CARTESIAN_POINT('Ctrl Pts',(0.618515424645095,5.79569821223381,-4.96240337638318));
#990=CARTESIAN_POINT('Ctrl Pts',(0.795703102192091,5.61851053468681,-4.93709085101933));
#991=CARTESIAN_POINT('Ctrl Pts',(0.872605417648385,5.50629207953586,-4.92354150792771));
#992=CARTESIAN_POINT('Ctrl Pts',(0.974762796248617,5.2600178516677,-4.90433876618447));
#993=CARTESIAN_POINT('Ctrl Pts',(1.,5.1259318264692,-4.89897948556636));
#994=CARTESIAN_POINT('Ctrl Pts',(1.,5.00000007450581,-4.89897948556636));
#995=CARTESIAN_POINT('Origin',(0.,5.00000007450581,8.906));
#996=CARTESIAN_POINT('',(-1.,5.00000007450581,7.43303437365925));
#997=CARTESIAN_POINT('',(1.,5.00000007450581,7.43303437365925));
#998=CARTESIAN_POINT('Ctrl Pts',(-1.,5.00000007450581,7.43303437365925));
#999=CARTESIAN_POINT('Ctrl Pts',(-1.,5.12572388126049,7.43303437365925));
#1000=CARTESIAN_POINT('Ctrl Pts',(-0.974843373583246,5.25972420758871,7.43655341220262));
#1001=CARTESIAN_POINT('Ctrl Pts',(-0.872743462468007,5.50605847142089,7.4492258043265));
#1002=CARTESIAN_POINT('Ctrl Pts',(-0.79580827768391,5.61840535919499,7.45819198635124));
#1003=CARTESIAN_POINT('Ctrl Pts',(-0.618406245919837,5.79580739095906,7.47499244568566));
#1004=CARTESIAN_POINT('Ctrl Pts',(-0.506058941317412,5.87274332928834,7.48392372402087));
#1005=CARTESIAN_POINT('Ctrl Pts',(-0.259723261773256,5.97484379127011,7.49651610989021));
#1006=CARTESIAN_POINT('Ctrl Pts',(-0.125722444324723,6.00000007450581,7.5));
#1007=CARTESIAN_POINT('Ctrl Pts',(0.125722444324723,6.00000007450581,7.5));
#1008=CARTESIAN_POINT('Ctrl Pts',(0.259723261773256,5.97484379127011,7.49651610989021));
#1009=CARTESIAN_POINT('Ctrl Pts',(0.506058941317412,5.87274332928834,7.48392372402087));
#1010=CARTESIAN_POINT('Ctrl Pts',(0.618406245919837,5.79580739095906,7.47499244568566));
#1011=CARTESIAN_POINT('Ctrl Pts',(0.79580827768391,5.61840535919499,7.45819198635124));
#1012=CARTESIAN_POINT('Ctrl Pts',(0.872743462468006,5.50605847142089,7.4492258043265));
#1013=CARTESIAN_POINT('Ctrl Pts',(0.974843373583246,5.25972420758871,7.43655341220262));
#1014=CARTESIAN_POINT('Ctrl Pts',(1.,5.12572388126049,7.43303437365925));
#1015=CARTESIAN_POINT('Ctrl Pts',(1.,5.00000007450581,7.43303437365925));
#1016=CARTESIAN_POINT('Ctrl Pts',(1.,5.00000007450581,7.43303437365925));
#1017=CARTESIAN_POINT('Ctrl Pts',(1.,4.87427626775112,7.43303437365925));
#1018=CARTESIAN_POINT('Ctrl Pts',(0.974843373583246,4.7402759414229,7.43655341220262));
#1019=CARTESIAN_POINT('Ctrl Pts',(0.872743462468007,4.49394167759072,7.4492258043265));
#1020=CARTESIAN_POINT('Ctrl Pts',(0.79580827768391,4.38159478981662,7.45819198635124));
#1021=CARTESIAN_POINT('Ctrl Pts',(0.618406245919838,4.20419275805255,7.47499244568566));
#1022=CARTESIAN_POINT('Ctrl Pts',(0.506058941317412,4.12725681972327,7.48392372402087));
#1023=CARTESIAN_POINT('Ctrl Pts',(0.259723261773255,4.0251563577415,7.49651610989021));
#1024=CARTESIAN_POINT('Ctrl Pts',(0.125722444324723,4.00000007450581,7.5));
#1025=CARTESIAN_POINT('Ctrl Pts',(-0.125722444324723,4.00000007450581,7.5));
#1026=CARTESIAN_POINT('Ctrl Pts',(-0.259723261773255,4.0251563577415,7.49651610989021));
#1027=CARTESIAN_POINT('Ctrl Pts',(-0.506058941317411,4.12725681972327,7.48392372402087));
#1028=CARTESIAN_POINT('Ctrl Pts',(-0.618406245919837,4.20419275805255,7.47499244568566));
#1029=CARTESIAN_POINT('Ctrl Pts',(-0.79580827768391,4.38159478981662,7.45819198635123));
#1030=CARTESIAN_POINT('Ctrl Pts',(-0.872743462468006,4.49394167759072,7.4492258043265));
#1031=CARTESIAN_POINT('Ctrl Pts',(-0.974843373583246,4.7402759414229,7.43655341220262));
#1032=CARTESIAN_POINT('Ctrl Pts',(-1.,4.87427626775112,7.43303437365925));
#1033=CARTESIAN_POINT('Ctrl Pts',(-1.,5.00000007450581,7.43303437365925));
#1034=CARTESIAN_POINT('',(1.,5.00000007450581,4.89897948556635));
#1035=CARTESIAN_POINT('',(1.,5.00000007450581,8.906));
#1036=CARTESIAN_POINT('',(-1.,5.00000007450581,4.89897948556636));
#1037=CARTESIAN_POINT('Ctrl Pts',(-1.,5.00000007450581,4.89897948556636));
#1038=CARTESIAN_POINT('Ctrl Pts',(-1.,4.87406832254241,4.89897948556636));
#1039=CARTESIAN_POINT('Ctrl Pts',(-0.974762796248614,4.73998229734392,4.90433876618447));
#1040=CARTESIAN_POINT('Ctrl Pts',(-0.872605417648383,4.49370806947575,4.92354150792771));
#1041=CARTESIAN_POINT('Ctrl Pts',(-0.795703102192089,4.3814896143248,4.93709085101933));
#1042=CARTESIAN_POINT('Ctrl Pts',(-0.618515424645094,4.2043019367778,4.96240337638318));
#1043=CARTESIAN_POINT('Ctrl Pts',(-0.506294861197626,4.12739573296105,4.97583347151863));
#1044=CARTESIAN_POINT('Ctrl Pts',(-0.260013306081865,4.02523553226997,4.99476188647081));
#1045=CARTESIAN_POINT('Ctrl Pts',(-0.1259246954214,4.00000007450581,5.));
#1046=CARTESIAN_POINT('Ctrl Pts',(0.1259246954214,4.00000007450581,5.));
#1047=CARTESIAN_POINT('Ctrl Pts',(0.260013306081865,4.02523553226997,4.99476188647081));
#1048=CARTESIAN_POINT('Ctrl Pts',(0.506294861197626,4.12739573296105,4.97583347151863));
#1049=CARTESIAN_POINT('Ctrl Pts',(0.618515424645094,4.2043019367778,4.96240337638318));
#1050=CARTESIAN_POINT('Ctrl Pts',(0.795703102192089,4.3814896143248,4.93709085101933));
#1051=CARTESIAN_POINT('Ctrl Pts',(0.872605417648383,4.49370806947575,4.92354150792771));
#1052=CARTESIAN_POINT('Ctrl Pts',(0.974762796248614,4.73998229734392,4.90433876618447));
#1053=CARTESIAN_POINT('Ctrl Pts',(1.,4.87406832254241,4.89897948556636));
#1054=CARTESIAN_POINT('Ctrl Pts',(1.,5.00000007450581,4.89897948556636));
#1055=CARTESIAN_POINT('Ctrl Pts',(1.,5.00000007450581,4.89897948556636));
#1056=CARTESIAN_POINT('Ctrl Pts',(1.,5.1259318264692,4.89897948556636));
#1057=CARTESIAN_POINT('Ctrl Pts',(0.974762796248614,5.2600178516677,4.90433876618447));
#1058=CARTESIAN_POINT('Ctrl Pts',(0.872605417648383,5.50629207953586,4.92354150792771));
#1059=CARTESIAN_POINT('Ctrl Pts',(0.795703102192089,5.61851053468681,4.93709085101933));
#1060=CARTESIAN_POINT('Ctrl Pts',(0.618515424645094,5.79569821223381,4.96240337638318));
#1061=CARTESIAN_POINT('Ctrl Pts',(0.506294861197626,5.87260441605056,4.97583347151863));
#1062=CARTESIAN_POINT('Ctrl Pts',(0.260013306081865,5.97476461674164,4.99476188647081));
#1063=CARTESIAN_POINT('Ctrl Pts',(0.1259246954214,6.00000007450581,5.));
#1064=CARTESIAN_POINT('Ctrl Pts',(-0.125924695421399,6.00000007450581,5.));
#1065=CARTESIAN_POINT('Ctrl Pts',(-0.260013306081865,5.97476461674164,4.99476188647081));
#1066=CARTESIAN_POINT('Ctrl Pts',(-0.506294861197626,5.87260441605056,4.97583347151863));
#1067=CARTESIAN_POINT('Ctrl Pts',(-0.618515424645094,5.79569821223381,4.96240337638318));
#1068=CARTESIAN_POINT('Ctrl Pts',(-0.795703102192088,5.61851053468681,4.93709085101933));
#1069=CARTESIAN_POINT('Ctrl Pts',(-0.872605417648383,5.50629207953586,4.92354150792771));
#1070=CARTESIAN_POINT('Ctrl Pts',(-0.974762796248614,5.2600178516677,4.90433876618447));
#1071=CARTESIAN_POINT('Ctrl Pts',(-1.,5.1259318264692,4.89897948556636));
#1072=CARTESIAN_POINT('Ctrl Pts',(-1.,5.00000007450581,4.89897948556636));
#1073=CARTESIAN_POINT('Origin',(0.,0.,0.));
#1074=CARTESIAN_POINT('',(-5.,10.,6.12323399573677E-16));
#1075=CARTESIAN_POINT('Origin',(0.,10.,0.));
#1076=CARTESIAN_POINT('',(-5.,0.,6.12323399573677E-16));
#1077=CARTESIAN_POINT('',(-5.,0.,6.12323399573677E-16));
#1078=CARTESIAN_POINT('Origin',(0.,0.,0.));
#1079=CARTESIAN_POINT('Origin',(0.,0.,0.));
#1080=CARTESIAN_POINT('',(-7.5,10.,9.18485099360515E-16));
#1081=CARTESIAN_POINT('Origin',(0.,10.,0.));
#1082=CARTESIAN_POINT('',(-7.5,0.,9.18485099360515E-16));
#1083=CARTESIAN_POINT('',(-7.5,0.,9.18485099360515E-16));
#1084=CARTESIAN_POINT('Origin',(0.,0.,0.));
#1085=CARTESIAN_POINT('Origin',(0.,10.,0.));
#1086=CARTESIAN_POINT('Origin',(0.,0.,0.));
#1087=CARTESIAN_POINT('Origin',(0.,5.00000007450581,8.906));
#1088=CARTESIAN_POINT('',(1.,5.00000007450581,8.906));
#1089=CARTESIAN_POINT('Origin',(0.,5.00000007450581,8.906));
#1090=CARTESIAN_POINT('',(1.,5.00000007450581,6.5));
#1091=CARTESIAN_POINT('',(1.,5.00000007450581,8.906));
#1092=CARTESIAN_POINT('Origin',(0.,5.00000007450581,6.5));
#1093=CARTESIAN_POINT('Origin',(0.,5.00000007450581,6.5));
#1094=CARTESIAN_POINT('',(-3.5,7.50000007450581,6.5));
#1095=CARTESIAN_POINT('',(3.5,7.50000007450581,6.5));
#1096=CARTESIAN_POINT('',(-3.5,7.50000007450581,6.5));
#1097=CARTESIAN_POINT('',(3.5,2.50000007450581,6.5));
#1098=CARTESIAN_POINT('',(3.5,7.50000007450581,6.5));
#1099=CARTESIAN_POINT('',(-3.5,2.50000007450581,6.5));
#1100=CARTESIAN_POINT('',(3.5,2.50000007450581,6.5));
#1101=CARTESIAN_POINT('',(-3.5,2.50000007450581,6.5));
#1102=CARTESIAN_POINT('Origin',(3.5,2.50000007450581,7.5));
#1103=CARTESIAN_POINT('',(3.5,7.50000007450581,8.906));
#1104=CARTESIAN_POINT('',(3.5,7.50000007450581,7.5));
#1105=CARTESIAN_POINT('',(3.5,2.50000007450581,8.906));
#1106=CARTESIAN_POINT('',(3.5,7.50000007450581,8.906));
#1107=CARTESIAN_POINT('',(3.5,2.50000007450581,7.5));
#1108=CARTESIAN_POINT('Origin',(-3.5,2.50000007450581,7.5));
#1109=CARTESIAN_POINT('',(-3.5,2.50000007450581,8.906));
#1110=CARTESIAN_POINT('',(3.5,2.50000007450581,8.906));
#1111=CARTESIAN_POINT('',(-3.5,2.50000007450581,7.5));
#1112=CARTESIAN_POINT('Origin',(-3.5,7.50000007450581,7.5));
#1113=CARTESIAN_POINT('',(-3.5,7.50000007450581,8.906));
#1114=CARTESIAN_POINT('',(-3.5,2.50000007450581,8.906));
#1115=CARTESIAN_POINT('',(-3.5,7.50000007450581,7.5));
#1116=CARTESIAN_POINT('Origin',(3.5,7.50000007450581,7.5));
#1117=CARTESIAN_POINT('',(-3.5,7.50000007450581,8.906));
#1118=CARTESIAN_POINT('Origin',(0.,5.00000007450581,8.906));
#1119=CARTESIAN_POINT('Origin',(2.22044604925031E-15,5.00000007450581,-8.906));
#1120=CARTESIAN_POINT('',(-0.999999999999998,5.00000007450581,-8.906));
#1121=CARTESIAN_POINT('Origin',(2.22044604925031E-15,5.00000007450581,-8.906));
#1122=CARTESIAN_POINT('',(-0.999999999999998,5.00000007450581,-6.5));
#1123=CARTESIAN_POINT('',(-0.999999999999998,5.00000007450581,-8.906));
#1124=CARTESIAN_POINT('Origin',(2.22044604925031E-15,5.00000007450581,-6.5));
#1125=CARTESIAN_POINT('Origin',(2.22044604925031E-15,5.00000007450581,-6.5));
#1126=CARTESIAN_POINT('',(-3.5,2.50000007450581,-6.5));
#1127=CARTESIAN_POINT('',(3.5,2.50000007450581,-6.5));
#1128=CARTESIAN_POINT('',(-3.5,2.50000007450581,-6.5));
#1129=CARTESIAN_POINT('',(3.5,7.50000007450581,-6.5));
#1130=CARTESIAN_POINT('',(3.5,2.50000007450581,-6.5));
#1131=CARTESIAN_POINT('',(-3.5,7.50000007450581,-6.5));
#1132=CARTESIAN_POINT('',(3.5,7.50000007450581,-6.5));
#1133=CARTESIAN_POINT('',(-3.5,7.50000007450581,-6.5));
#1134=CARTESIAN_POINT('Origin',(3.5,7.50000007450581,-7.5));
#1135=CARTESIAN_POINT('',(3.5,2.50000007450581,-8.906));
#1136=CARTESIAN_POINT('',(3.5,2.50000007450581,-7.5));
#1137=CARTESIAN_POINT('',(3.5,7.50000007450581,-8.906));
#1138=CARTESIAN_POINT('',(3.5,2.50000007450581,-8.906));
#1139=CARTESIAN_POINT('',(3.5,7.50000007450581,-7.5));
#1140=CARTESIAN_POINT('Origin',(-3.5,7.50000007450581,-7.5));
#1141=CARTESIAN_POINT('',(-3.5,7.50000007450581,-8.906));
#1142=CARTESIAN_POINT('',(3.5,7.50000007450581,-8.906));
#1143=CARTESIAN_POINT('',(-3.5,7.50000007450581,-7.5));
#1144=CARTESIAN_POINT('Origin',(-3.5,2.50000007450581,-7.5));
#1145=CARTESIAN_POINT('',(-3.5,2.50000007450581,-8.906));
#1146=CARTESIAN_POINT('',(-3.5,7.50000007450581,-8.906));
#1147=CARTESIAN_POINT('',(-3.5,2.50000007450581,-7.5));
#1148=CARTESIAN_POINT('Origin',(3.5,2.50000007450581,-7.5));
#1149=CARTESIAN_POINT('',(-3.5,2.50000007450581,-8.906));
#1150=CARTESIAN_POINT('Origin',(2.22044604925031E-15,5.00000007450581,-8.906));
#1151=CARTESIAN_POINT('Origin',(22.,2.5,1.5));
#1152=CARTESIAN_POINT('',(23.125,2.5,1.5));
#1153=CARTESIAN_POINT('Origin',(22.,2.5,1.5));
#1154=CARTESIAN_POINT('',(23.125,2.5,-1.5));
#1155=CARTESIAN_POINT('',(23.125,2.5,1.5));
#1156=CARTESIAN_POINT('Origin',(22.,2.5,-1.5));
#1157=CARTESIAN_POINT('Origin',(22.,2.50000001490116,0.));
#1158=CARTESIAN_POINT('',(22.0000000149012,5.00000001490116,1.5));
#1159=CARTESIAN_POINT('',(24.5,2.5,1.5));
#1160=CARTESIAN_POINT('Origin',(22.,2.50000001490116,1.5));
#1161=CARTESIAN_POINT('',(24.5,2.5,-1.5));
#1162=CARTESIAN_POINT('',(24.5,2.5,0.));
#1163=CARTESIAN_POINT('',(22.0000000149012,5.00000001490116,-1.5));
#1164=CARTESIAN_POINT('Origin',(22.,2.50000001490116,-1.5));
#1165=CARTESIAN_POINT('',(22.0000000149012,5.00000001490116,0.));
#1166=CARTESIAN_POINT('Origin',(15.5,5.,-1.5));
#1167=CARTESIAN_POINT('',(22.,0.,-1.5));
#1168=CARTESIAN_POINT('Origin',(22.,2.5,-1.5));
#1169=CARTESIAN_POINT('',(6.5,0.,-1.5));
#1170=CARTESIAN_POINT('',(7.5,0.,-1.5));
#1171=CARTESIAN_POINT('',(6.5,10.,-1.5));
#1172=CARTESIAN_POINT('',(6.5,0.,-1.5));
#1173=CARTESIAN_POINT('',(7.5,10.,-1.5));
#1174=CARTESIAN_POINT('',(7.5,10.,-1.5));
#1175=CARTESIAN_POINT('',(12.0000001788139,5.00000007450581,-1.5));
#1176=CARTESIAN_POINT('',(7.5,10.,-1.5));
#1177=CARTESIAN_POINT('',(12.0000001788139,5.00000007450581,-1.5));
#1178=CARTESIAN_POINT('Origin',(22.,2.5,0.));
#1179=CARTESIAN_POINT('',(22.,0.,1.5));
#1180=CARTESIAN_POINT('Origin',(22.,2.5,1.5));
#1181=CARTESIAN_POINT('',(22.,0.,0.));
#1182=CARTESIAN_POINT('Origin',(6.5,10.,0.));
#1183=CARTESIAN_POINT('',(6.5,0.,1.5));
#1184=CARTESIAN_POINT('',(6.5,0.,0.));
#1185=CARTESIAN_POINT('',(6.5,10.,1.5));
#1186=CARTESIAN_POINT('',(6.5,0.,1.5));
#1187=CARTESIAN_POINT('',(6.5,10.,0.));
#1188=CARTESIAN_POINT('Origin',(7.5,10.,0.));
#1189=CARTESIAN_POINT('',(7.5,10.,1.5));
#1190=CARTESIAN_POINT('',(7.5,10.,1.5));
#1191=CARTESIAN_POINT('',(7.5,10.,0.));
#1192=CARTESIAN_POINT('Origin',(12.0000001788139,5.00000007450581,0.));
#1193=CARTESIAN_POINT('',(12.0000001788139,5.00000007450581,1.5));
#1194=CARTESIAN_POINT('',(7.5,10.,1.5));
#1195=CARTESIAN_POINT('',(12.0000001788139,5.00000007450581,0.));
#1196=CARTESIAN_POINT('Origin',(24.5,5.,0.));
#1197=CARTESIAN_POINT('',(12.0000001788139,5.00000007450581,1.5));
#1198=CARTESIAN_POINT('Origin',(6.5,0.,0.));
#1199=CARTESIAN_POINT('',(7.5,0.,1.5));
#1200=CARTESIAN_POINT('Origin',(15.5,5.,1.5));
#1201=CARTESIAN_POINT('Origin',(-3.32265007801949,-4.5,-8.8999998010695));
#1202=CARTESIAN_POINT('',(3.32265007801949,-1.5,-8.8999998010695));
#1203=CARTESIAN_POINT('',(-3.32265007801949,-1.5,-8.8999998010695));
#1204=CARTESIAN_POINT('Ctrl Pts',(3.32265007801949,-1.5,-8.8999998010695));
#1205=CARTESIAN_POINT('Ctrl Pts',(3.32265007801949,-1.3231065752873,-8.8999998010695));
#1206=CARTESIAN_POINT('Ctrl Pts',(3.28835514583414,-1.11362314834404,-8.8999998010695));
#1207=CARTESIAN_POINT('Ctrl Pts',(3.17049028618173,-0.752962048989739,-8.8999998010695));
#1208=CARTESIAN_POINT('Ctrl Pts',(3.05643010003587,-0.538342141115671,-8.8999998010695));
#1209=CARTESIAN_POINT('Ctrl Pts',(2.77301957512022,-0.15371356443208,-8.8999998010695));
#1210=CARTESIAN_POINT('Ctrl Pts',(2.53001530885403,0.0699591365112667,-8.8999998010695));
#1211=CARTESIAN_POINT('Ctrl Pts',(2.12965265484314,0.34278545456275,-8.8999998010695));
#1212=CARTESIAN_POINT('Ctrl Pts',(1.90810028943439,0.460977121321598,-8.8999998010695));
#1213=CARTESIAN_POINT('Ctrl Pts',(1.20608538865812,0.757844539487645,-8.8999998010695));
#1214=CARTESIAN_POINT('Ctrl Pts',(0.552948336734705,0.874868785972897,-8.8999998010695));
#1215=CARTESIAN_POINT('Ctrl Pts',(0.,0.874868785972897,-8.8999998010695));
#1216=CARTESIAN_POINT('Ctrl Pts',(-0.552948336734705,0.874868785972897,
-8.8999998010695));
#1217=CARTESIAN_POINT('Ctrl Pts',(-1.20608538865812,0.757844539487645,-8.8999998010695));
#1218=CARTESIAN_POINT('Ctrl Pts',(-1.90810028943439,0.460977121321598,-8.8999998010695));
#1219=CARTESIAN_POINT('Ctrl Pts',(-2.12965265484314,0.34278545456275,-8.8999998010695));
#1220=CARTESIAN_POINT('Ctrl Pts',(-2.53001530885403,0.0699591365112667,
-8.8999998010695));
#1221=CARTESIAN_POINT('Ctrl Pts',(-2.77301957512022,-0.15371356443208,-8.8999998010695));
#1222=CARTESIAN_POINT('Ctrl Pts',(-3.05643010003587,-0.538342141115671,
-8.8999998010695));
#1223=CARTESIAN_POINT('Ctrl Pts',(-3.17049028618173,-0.752962048989739,
-8.8999998010695));
#1224=CARTESIAN_POINT('Ctrl Pts',(-3.28835514583414,-1.11362314834404,-8.8999998010695));
#1225=CARTESIAN_POINT('Ctrl Pts',(-3.32265007801949,-1.3231065752873,-8.8999998010695));
#1226=CARTESIAN_POINT('Ctrl Pts',(-3.32265007801949,-1.5,-8.8999998010695));
#1227=CARTESIAN_POINT('',(3.32265007801949,-4.5,-8.8999998010695));
#1228=CARTESIAN_POINT('',(3.32265007801949,0.,-8.8999998010695));
#1229=CARTESIAN_POINT('',(-3.32265007801949,-4.5,-8.8999998010695));
#1230=CARTESIAN_POINT('',(-1.66132503900974,-4.5,-8.8999998010695));
#1231=CARTESIAN_POINT('',(-3.32265007801949,0.,-8.8999998010695));
#1232=CARTESIAN_POINT('Origin',(3.32265007801949,-4.5,8.8999998010695));
#1233=CARTESIAN_POINT('',(-3.32265007801949,-1.5,8.8999998010695));
#1234=CARTESIAN_POINT('',(3.32265007801949,-1.5,8.8999998010695));
#1235=CARTESIAN_POINT('Ctrl Pts',(-3.32265007801949,-1.5,8.8999998010695));
#1236=CARTESIAN_POINT('Ctrl Pts',(-3.32265007801949,-1.3231065752873,8.8999998010695));
#1237=CARTESIAN_POINT('Ctrl Pts',(-3.28835514583414,-1.11362314834404,8.8999998010695));
#1238=CARTESIAN_POINT('Ctrl Pts',(-3.17049028618173,-0.752962048989739,
8.8999998010695));
#1239=CARTESIAN_POINT('Ctrl Pts',(-3.05643010003587,-0.538342141115671,
8.8999998010695));
#1240=CARTESIAN_POINT('Ctrl Pts',(-2.77301957512022,-0.15371356443208,8.8999998010695));
#1241=CARTESIAN_POINT('Ctrl Pts',(-2.53001530885403,0.0699591365112667,
8.8999998010695));
#1242=CARTESIAN_POINT('Ctrl Pts',(-2.12965265484314,0.34278545456275,8.8999998010695));
#1243=CARTESIAN_POINT('Ctrl Pts',(-1.90810028943439,0.460977121321598,8.8999998010695));
#1244=CARTESIAN_POINT('Ctrl Pts',(-1.20608538865812,0.757844539487645,8.8999998010695));
#1245=CARTESIAN_POINT('Ctrl Pts',(-0.552948336734705,0.874868785972897,
8.8999998010695));
#1246=CARTESIAN_POINT('Ctrl Pts',(0.,0.874868785972897,8.8999998010695));
#1247=CARTESIAN_POINT('Ctrl Pts',(0.552948336734705,0.874868785972897,8.8999998010695));
#1248=CARTESIAN_POINT('Ctrl Pts',(1.20608538865812,0.757844539487645,8.8999998010695));
#1249=CARTESIAN_POINT('Ctrl Pts',(1.90810028943439,0.460977121321598,8.8999998010695));
#1250=CARTESIAN_POINT('Ctrl Pts',(2.12965265484314,0.34278545456275,8.8999998010695));
#1251=CARTESIAN_POINT('Ctrl Pts',(2.53001530885403,0.0699591365112667,8.8999998010695));
#1252=CARTESIAN_POINT('Ctrl Pts',(2.77301957512022,-0.15371356443208,8.8999998010695));
#1253=CARTESIAN_POINT('Ctrl Pts',(3.05643010003587,-0.538342141115671,8.8999998010695));
#1254=CARTESIAN_POINT('Ctrl Pts',(3.17049028618173,-0.752962048989739,8.8999998010695));
#1255=CARTESIAN_POINT('Ctrl Pts',(3.28835514583414,-1.11362314834404,8.8999998010695));
#1256=CARTESIAN_POINT('Ctrl Pts',(3.32265007801949,-1.3231065752873,8.8999998010695));
#1257=CARTESIAN_POINT('Ctrl Pts',(3.32265007801949,-1.5,8.8999998010695));
#1258=CARTESIAN_POINT('',(-3.32265007801949,-4.5,8.8999998010695));
#1259=CARTESIAN_POINT('',(-3.32265007801949,0.,8.8999998010695));
#1260=CARTESIAN_POINT('',(3.32265007801949,-4.5,8.8999998010695));
#1261=CARTESIAN_POINT('',(1.66132503900974,-4.5,8.8999998010695));
#1262=CARTESIAN_POINT('',(3.32265007801949,0.,8.8999998010695));
#1263=CARTESIAN_POINT('Origin',(0.,-4.5,0.));
#1264=CARTESIAN_POINT('Origin',(0.,-4.5,0.));
#1265=CARTESIAN_POINT('Origin',(0.,-4.5,0.));
#1266=CARTESIAN_POINT('',(-7.5,-4.5,-9.18485099360515E-16));
#1267=CARTESIAN_POINT('Origin',(0.,-4.5,0.));
#1268=CARTESIAN_POINT('Origin',(0.,0.,0.));
#1269=CARTESIAN_POINT('',(9.5,-1.5,-1.16341445918999E-15));
#1270=CARTESIAN_POINT('Origin',(0.,-1.5,0.));
#1271=CARTESIAN_POINT('Origin',(0.,-1.5,0.));
#1272=CARTESIAN_POINT('Ctrl Pts',(7.5,2.5,0.));
#1273=CARTESIAN_POINT('Ctrl Pts',(7.5,2.5,-7.5));
#1274=CARTESIAN_POINT('Ctrl Pts',(0.,2.5,-7.5));
#1275=CARTESIAN_POINT('Ctrl Pts',(-7.5,2.5,-7.5));
#1276=CARTESIAN_POINT('Ctrl Pts',(-7.5,2.5,0.));
#1277=CARTESIAN_POINT('Ctrl Pts',(-7.5,2.5,7.5));
#1278=CARTESIAN_POINT('Ctrl Pts',(0.,2.5,7.5));
#1279=CARTESIAN_POINT('Ctrl Pts',(7.5,2.5,7.5));
#1280=CARTESIAN_POINT('Ctrl Pts',(7.5,2.5,0.));
#1281=CARTESIAN_POINT('Ctrl Pts',(9.5,1.,0.));
#1282=CARTESIAN_POINT('Ctrl Pts',(9.5,1.,-9.5));
#1283=CARTESIAN_POINT('Ctrl Pts',(0.,1.,-9.5));
#1284=CARTESIAN_POINT('Ctrl Pts',(-9.5,1.,-9.5));
#1285=CARTESIAN_POINT('Ctrl Pts',(-9.5,1.,0.));
#1286=CARTESIAN_POINT('Ctrl Pts',(-9.5,1.,9.5));
#1287=CARTESIAN_POINT('Ctrl Pts',(0.,1.,9.5));
#1288=CARTESIAN_POINT('Ctrl Pts',(9.5,1.,9.5));
#1289=CARTESIAN_POINT('Ctrl Pts',(9.5,1.,0.));
#1290=CARTESIAN_POINT('Ctrl Pts',(9.5,-1.5,0.));
#1291=CARTESIAN_POINT('Ctrl Pts',(9.5,-1.5,-9.5));
#1292=CARTESIAN_POINT('Ctrl Pts',(0.,-1.5,-9.5));
#1293=CARTESIAN_POINT('Ctrl Pts',(-9.5,-1.5,-9.5));
#1294=CARTESIAN_POINT('Ctrl Pts',(-9.5,-1.5,0.));
#1295=CARTESIAN_POINT('Ctrl Pts',(-9.5,-1.5,9.5));
#1296=CARTESIAN_POINT('Ctrl Pts',(0.,-1.5,9.5));
#1297=CARTESIAN_POINT('Ctrl Pts',(9.5,-1.5,9.5));
#1298=CARTESIAN_POINT('Ctrl Pts',(9.5,-1.5,0.));
#1299=CARTESIAN_POINT('Origin',(0.,-1.5,0.));
#1300=CARTESIAN_POINT('',(7.5,2.5,-9.18485099360515E-16));
#1301=CARTESIAN_POINT('Origin',(4.5,-1.5,-5.51091059616309E-16));
#1302=CARTESIAN_POINT('',(-7.5,2.5,-9.18485099360515E-16));
#1303=CARTESIAN_POINT('Origin',(0.,2.5,0.));
#1304=CARTESIAN_POINT('Origin',(0.,2.5,0.));
#1305=CARTESIAN_POINT('Origin',(0.,0.,0.));
#1306=CARTESIAN_POINT('Origin',(0.,0.,0.));
#1307=CARTESIAN_POINT('',(-7.5,0.,-9.18485099360515E-16));
#1308=UNCERTAINTY_MEASURE_WITH_UNIT(LENGTH_MEASURE(0.01),#1312,
'DISTANCE_ACCURACY_VALUE',
'Maximum model space distance between geometric entities at asserted c
onnectivities');
#1309=UNCERTAINTY_MEASURE_WITH_UNIT(LENGTH_MEASURE(0.01),#1312,
'DISTANCE_ACCURACY_VALUE',
'Maximum model space distance between geometric entities at asserted c
onnectivities');
#1310=(
GEOMETRIC_REPRESENTATION_CONTEXT(3)
GLOBAL_UNCERTAINTY_ASSIGNED_CONTEXT((#1308))
GLOBAL_UNIT_ASSIGNED_CONTEXT((#1312,#1314,#1315))
REPRESENTATION_CONTEXT('','3D')
);
#1311=(
GEOMETRIC_REPRESENTATION_CONTEXT(3)
GLOBAL_UNCERTAINTY_ASSIGNED_CONTEXT((#1309))
GLOBAL_UNIT_ASSIGNED_CONTEXT((#1312,#1314,#1315))
REPRESENTATION_CONTEXT('','3D')
);
#1312=(
LENGTH_UNIT()
NAMED_UNIT(*)
SI_UNIT(.MILLI.,.METRE.)
);
#1313=(
LENGTH_UNIT()
NAMED_UNIT(*)
SI_UNIT($,.METRE.)
);
#1314=(
NAMED_UNIT(*)
PLANE_ANGLE_UNIT()
SI_UNIT($,.RADIAN.)
);
#1315=(
NAMED_UNIT(*)
SI_UNIT($,.STERADIAN.)
SOLID_ANGLE_UNIT()
);
#1316=SHAPE_DEFINITION_REPRESENTATION(#1317,#1318);
#1317=PRODUCT_DEFINITION_SHAPE('',$,#1320);
#1318=SHAPE_REPRESENTATION('',(#681),#1310);
#1319=PRODUCT_DEFINITION_CONTEXT('part definition',#1324,'design');
#1320=PRODUCT_DEFINITION('wheel hub v2','wheel hub v2 v2',#1321,#1319);
#1321=PRODUCT_DEFINITION_FORMATION('',$,#1326);
#1322=PRODUCT_RELATED_PRODUCT_CATEGORY('wheel hub v2 v2',
'wheel hub v2 v2',(#1326));
#1323=APPLICATION_PROTOCOL_DEFINITION('international standard',
'automotive_design',2009,#1324);
#1324=APPLICATION_CONTEXT(
'Core Data for Automotive Mechanical Design Process');
#1325=PRODUCT_CONTEXT('part definition',#1324,'mechanical');
#1326=PRODUCT('wheel hub v2','wheel hub v2 v2',$,(#1325));
#1327=PRESENTATION_STYLE_ASSIGNMENT((#1328));
#1328=SURFACE_STYLE_USAGE(.BOTH.,#1329);
#1329=SURFACE_SIDE_STYLE('',(#1330));
#1330=SURFACE_STYLE_FILL_AREA(#1331);
#1331=FILL_AREA_STYLE('Steel - Satin',(#1332));
#1332=FILL_AREA_STYLE_COLOUR('Steel - Satin',#1333);
#1333=COLOUR_RGB('Steel - Satin',0.627450980392157,0.627450980392157,0.627450980392157);
ENDSEC;
END-ISO-10303-21;
