ISO-10303-21;
HEADER;
/* Generated by software containing ST-Developer
 * from STEP Tools, Inc. (www.steptools.com) 
 */

FILE_DESCRIPTION(
/* description */ (''),
/* implementation_level */ '2;1');

FILE_NAME(
/* name */ 'wheel v2 print version v1.step',
/* time_stamp */ '2025-05-27T01:49:11-07:00',
/* author */ (''),
/* organization */ (''),
/* preprocessor_version */ 'ST-DEVELOPER v20.1',
/* originating_system */ 'Autodesk Translation Framework v14.10.0.0',
/* authorisation */ '');

FILE_SCHEMA (('AUTOMOTIVE_DESIGN { 1 0 10303 214 3 1 1 }'));
ENDSEC;

DATA;
#10=MECHANICAL_DESIGN_GEOMETRIC_PRESENTATION_REPRESENTATION('',(#13),#651);
#11=SHAPE_REPRESENTATION_RELATIONSHIP('SRR','None',#658,#12);
#12=ADVANCED_BREP_SHAPE_REPRESENTATION('',(#14),#650);
#13=STYLED_ITEM('',(#667),#14);
#14=MANIFOLD_SOLID_BREP('Body1',#387);
#15=FACE_BOUND('',#72,.T.);
#16=FACE_BOUND('',#74,.T.);
#17=FACE_BOUND('',#77,.T.);
#18=FACE_BOUND('',#78,.T.);
#19=FACE_BOUND('',#79,.T.);
#20=FACE_BOUND('',#80,.T.);
#21=FACE_BOUND('',#81,.T.);
#22=CIRCLE('',#412,32.5);
#23=CIRCLE('',#413,32.5);
#24=CIRCLE('',#414,32.5);
#25=CIRCLE('',#415,32.5);
#26=CIRCLE('',#416,32.5);
#27=CIRCLE('',#417,32.5);
#28=CIRCLE('',#418,32.5);
#29=CIRCLE('',#419,32.5);
#30=CIRCLE('',#420,32.5);
#31=CIRCLE('',#421,32.5);
#32=CIRCLE('',#422,32.5);
#33=CIRCLE('',#423,32.5);
#34=CIRCLE('',#425,5.00000007450581);
#35=CIRCLE('',#427,5.00000007450581);
#36=CIRCLE('',#430,35.0000005215406);
#37=CIRCLE('',#432,35.);
#38=CYLINDRICAL_SURFACE('',#411,32.5);
#39=CYLINDRICAL_SURFACE('',#426,5.00000007450581);
#40=CYLINDRICAL_SURFACE('',#431,35.0000002607703);
#41=FACE_OUTER_BOUND('',#58,.T.);
#42=FACE_OUTER_BOUND('',#59,.T.);
#43=FACE_OUTER_BOUND('',#60,.T.);
#44=FACE_OUTER_BOUND('',#61,.T.);
#45=FACE_OUTER_BOUND('',#62,.T.);
#46=FACE_OUTER_BOUND('',#63,.T.);
#47=FACE_OUTER_BOUND('',#64,.T.);
#48=FACE_OUTER_BOUND('',#65,.T.);
#49=FACE_OUTER_BOUND('',#66,.T.);
#50=FACE_OUTER_BOUND('',#67,.T.);
#51=FACE_OUTER_BOUND('',#68,.T.);
#52=FACE_OUTER_BOUND('',#69,.T.);
#53=FACE_OUTER_BOUND('',#70,.T.);
#54=FACE_OUTER_BOUND('',#71,.T.);
#55=FACE_OUTER_BOUND('',#73,.T.);
#56=FACE_OUTER_BOUND('',#75,.T.);
#57=FACE_OUTER_BOUND('',#76,.T.);
#58=EDGE_LOOP('',(#248,#249,#250,#251));
#59=EDGE_LOOP('',(#252,#253,#254,#255));
#60=EDGE_LOOP('',(#256,#257,#258,#259));
#61=EDGE_LOOP('',(#260,#261,#262,#263));
#62=EDGE_LOOP('',(#264,#265,#266,#267));
#63=EDGE_LOOP('',(#268,#269,#270,#271));
#64=EDGE_LOOP('',(#272,#273,#274,#275));
#65=EDGE_LOOP('',(#276,#277,#278,#279));
#66=EDGE_LOOP('',(#280,#281,#282,#283));
#67=EDGE_LOOP('',(#284,#285,#286,#287));
#68=EDGE_LOOP('',(#288,#289,#290,#291,#292,#293,#294,#295,#296,#297,#298,
#299,#300,#301,#302,#303,#304,#305,#306,#307,#308,#309,#310,#311));
#69=EDGE_LOOP('',(#312));
#70=EDGE_LOOP('',(#313,#314,#315,#316));
#71=EDGE_LOOP('',(#317,#318,#319,#320,#321,#322,#323,#324,#325,#326,#327,
#328,#329,#330,#331));
#72=EDGE_LOOP('',(#332));
#73=EDGE_LOOP('',(#333));
#74=EDGE_LOOP('',(#334));
#75=EDGE_LOOP('',(#335,#336,#337,#338));
#76=EDGE_LOOP('',(#339));
#77=EDGE_LOOP('',(#340,#341,#342));
#78=EDGE_LOOP('',(#343,#344,#345));
#79=EDGE_LOOP('',(#346,#347,#348));
#80=EDGE_LOOP('',(#349,#350,#351,#352));
#81=EDGE_LOOP('',(#353,#354,#355));
#82=LINE('',#544,#120);
#83=LINE('',#546,#121);
#84=LINE('',#548,#122);
#85=LINE('',#549,#123);
#86=LINE('',#552,#124);
#87=LINE('',#554,#125);
#88=LINE('',#555,#126);
#89=LINE('',#559,#127);
#90=LINE('',#561,#128);
#91=LINE('',#563,#129);
#92=LINE('',#564,#130);
#93=LINE('',#567,#131);
#94=LINE('',#569,#132);
#95=LINE('',#570,#133);
#96=LINE('',#574,#134);
#97=LINE('',#576,#135);
#98=LINE('',#578,#136);
#99=LINE('',#579,#137);
#100=LINE('',#582,#138);
#101=LINE('',#584,#139);
#102=LINE('',#585,#140);
#103=LINE('',#589,#141);
#104=LINE('',#591,#142);
#105=LINE('',#593,#143);
#106=LINE('',#594,#144);
#107=LINE('',#597,#145);
#108=LINE('',#599,#146);
#109=LINE('',#600,#147);
#110=LINE('',#604,#148);
#111=LINE('',#606,#149);
#112=LINE('',#608,#150);
#113=LINE('',#609,#151);
#114=LINE('',#612,#152);
#115=LINE('',#614,#153);
#116=LINE('',#615,#154);
#117=LINE('',#620,#155);
#118=LINE('',#638,#156);
#119=LINE('',#646,#157);
#120=VECTOR('',#438,10.);
#121=VECTOR('',#439,10.);
#122=VECTOR('',#440,10.);
#123=VECTOR('',#441,10.);
#124=VECTOR('',#444,10.);
#125=VECTOR('',#445,10.);
#126=VECTOR('',#446,10.);
#127=VECTOR('',#449,10.);
#128=VECTOR('',#450,10.);
#129=VECTOR('',#451,10.);
#130=VECTOR('',#452,10.);
#131=VECTOR('',#455,10.);
#132=VECTOR('',#456,10.);
#133=VECTOR('',#457,10.);
#134=VECTOR('',#460,10.);
#135=VECTOR('',#461,10.);
#136=VECTOR('',#462,10.);
#137=VECTOR('',#463,10.);
#138=VECTOR('',#466,10.);
#139=VECTOR('',#467,10.);
#140=VECTOR('',#468,10.);
#141=VECTOR('',#471,10.);
#142=VECTOR('',#472,10.);
#143=VECTOR('',#473,10.);
#144=VECTOR('',#474,10.);
#145=VECTOR('',#477,10.);
#146=VECTOR('',#478,10.);
#147=VECTOR('',#479,10.);
#148=VECTOR('',#482,10.);
#149=VECTOR('',#483,10.);
#150=VECTOR('',#484,10.);
#151=VECTOR('',#485,10.);
#152=VECTOR('',#488,10.);
#153=VECTOR('',#489,10.);
#154=VECTOR('',#490,10.);
#155=VECTOR('',#495,32.5);
#156=VECTOR('',#526,5.00000007450581);
#157=VECTOR('',#537,35.0000002607703);
#158=VERTEX_POINT('',#542);
#159=VERTEX_POINT('',#543);
#160=VERTEX_POINT('',#545);
#161=VERTEX_POINT('',#547);
#162=VERTEX_POINT('',#551);
#163=VERTEX_POINT('',#553);
#164=VERTEX_POINT('',#557);
#165=VERTEX_POINT('',#558);
#166=VERTEX_POINT('',#560);
#167=VERTEX_POINT('',#562);
#168=VERTEX_POINT('',#566);
#169=VERTEX_POINT('',#568);
#170=VERTEX_POINT('',#572);
#171=VERTEX_POINT('',#573);
#172=VERTEX_POINT('',#575);
#173=VERTEX_POINT('',#577);
#174=VERTEX_POINT('',#581);
#175=VERTEX_POINT('',#583);
#176=VERTEX_POINT('',#587);
#177=VERTEX_POINT('',#588);
#178=VERTEX_POINT('',#590);
#179=VERTEX_POINT('',#592);
#180=VERTEX_POINT('',#596);
#181=VERTEX_POINT('',#598);
#182=VERTEX_POINT('',#602);
#183=VERTEX_POINT('',#603);
#184=VERTEX_POINT('',#605);
#185=VERTEX_POINT('',#607);
#186=VERTEX_POINT('',#611);
#187=VERTEX_POINT('',#613);
#188=VERTEX_POINT('',#617);
#189=VERTEX_POINT('',#619);
#190=VERTEX_POINT('',#633);
#191=VERTEX_POINT('',#636);
#192=VERTEX_POINT('',#641);
#193=VERTEX_POINT('',#644);
#194=EDGE_CURVE('',#158,#159,#82,.T.);
#195=EDGE_CURVE('',#160,#158,#83,.T.);
#196=EDGE_CURVE('',#161,#160,#84,.T.);
#197=EDGE_CURVE('',#161,#159,#85,.T.);
#198=EDGE_CURVE('',#159,#162,#86,.T.);
#199=EDGE_CURVE('',#163,#161,#87,.T.);
#200=EDGE_CURVE('',#162,#163,#88,.T.);
#201=EDGE_CURVE('',#164,#165,#89,.T.);
#202=EDGE_CURVE('',#166,#164,#90,.T.);
#203=EDGE_CURVE('',#167,#166,#91,.T.);
#204=EDGE_CURVE('',#167,#165,#92,.T.);
#205=EDGE_CURVE('',#165,#168,#93,.T.);
#206=EDGE_CURVE('',#169,#167,#94,.T.);
#207=EDGE_CURVE('',#168,#169,#95,.T.);
#208=EDGE_CURVE('',#170,#171,#96,.T.);
#209=EDGE_CURVE('',#172,#170,#97,.T.);
#210=EDGE_CURVE('',#173,#172,#98,.T.);
#211=EDGE_CURVE('',#171,#173,#99,.T.);
#212=EDGE_CURVE('',#174,#170,#100,.T.);
#213=EDGE_CURVE('',#175,#174,#101,.T.);
#214=EDGE_CURVE('',#172,#175,#102,.T.);
#215=EDGE_CURVE('',#176,#177,#103,.T.);
#216=EDGE_CURVE('',#178,#176,#104,.T.);
#217=EDGE_CURVE('',#179,#178,#105,.T.);
#218=EDGE_CURVE('',#179,#177,#106,.T.);
#219=EDGE_CURVE('',#177,#180,#107,.T.);
#220=EDGE_CURVE('',#181,#179,#108,.T.);
#221=EDGE_CURVE('',#180,#181,#109,.T.);
#222=EDGE_CURVE('',#182,#183,#110,.T.);
#223=EDGE_CURVE('',#184,#182,#111,.T.);
#224=EDGE_CURVE('',#185,#184,#112,.T.);
#225=EDGE_CURVE('',#185,#183,#113,.T.);
#226=EDGE_CURVE('',#183,#186,#114,.T.);
#227=EDGE_CURVE('',#187,#185,#115,.T.);
#228=EDGE_CURVE('',#186,#187,#116,.T.);
#229=EDGE_CURVE('',#187,#188,#22,.T.);
#230=EDGE_CURVE('',#188,#189,#117,.T.);
#231=EDGE_CURVE('',#189,#189,#23,.T.);
#232=EDGE_CURVE('',#188,#184,#24,.T.);
#233=EDGE_CURVE('',#182,#171,#25,.T.);
#234=EDGE_CURVE('',#173,#175,#26,.T.);
#235=EDGE_CURVE('',#174,#162,#27,.T.);
#236=EDGE_CURVE('',#163,#160,#28,.T.);
#237=EDGE_CURVE('',#158,#168,#29,.T.);
#238=EDGE_CURVE('',#169,#166,#30,.T.);
#239=EDGE_CURVE('',#164,#180,#31,.T.);
#240=EDGE_CURVE('',#181,#178,#32,.T.);
#241=EDGE_CURVE('',#176,#186,#33,.T.);
#242=EDGE_CURVE('',#190,#190,#34,.T.);
#243=EDGE_CURVE('',#191,#191,#35,.T.);
#244=EDGE_CURVE('',#191,#190,#118,.T.);
#245=EDGE_CURVE('',#192,#192,#36,.T.);
#246=EDGE_CURVE('',#193,#193,#37,.T.);
#247=EDGE_CURVE('',#193,#192,#119,.T.);
#248=ORIENTED_EDGE('',*,*,#194,.F.);
#249=ORIENTED_EDGE('',*,*,#195,.F.);
#250=ORIENTED_EDGE('',*,*,#196,.F.);
#251=ORIENTED_EDGE('',*,*,#197,.T.);
#252=ORIENTED_EDGE('',*,*,#198,.F.);
#253=ORIENTED_EDGE('',*,*,#197,.F.);
#254=ORIENTED_EDGE('',*,*,#199,.F.);
#255=ORIENTED_EDGE('',*,*,#200,.F.);
#256=ORIENTED_EDGE('',*,*,#201,.F.);
#257=ORIENTED_EDGE('',*,*,#202,.F.);
#258=ORIENTED_EDGE('',*,*,#203,.F.);
#259=ORIENTED_EDGE('',*,*,#204,.T.);
#260=ORIENTED_EDGE('',*,*,#205,.F.);
#261=ORIENTED_EDGE('',*,*,#204,.F.);
#262=ORIENTED_EDGE('',*,*,#206,.F.);
#263=ORIENTED_EDGE('',*,*,#207,.F.);
#264=ORIENTED_EDGE('',*,*,#208,.F.);
#265=ORIENTED_EDGE('',*,*,#209,.F.);
#266=ORIENTED_EDGE('',*,*,#210,.F.);
#267=ORIENTED_EDGE('',*,*,#211,.F.);
#268=ORIENTED_EDGE('',*,*,#212,.F.);
#269=ORIENTED_EDGE('',*,*,#213,.F.);
#270=ORIENTED_EDGE('',*,*,#214,.F.);
#271=ORIENTED_EDGE('',*,*,#209,.T.);
#272=ORIENTED_EDGE('',*,*,#215,.F.);
#273=ORIENTED_EDGE('',*,*,#216,.F.);
#274=ORIENTED_EDGE('',*,*,#217,.F.);
#275=ORIENTED_EDGE('',*,*,#218,.T.);
#276=ORIENTED_EDGE('',*,*,#219,.F.);
#277=ORIENTED_EDGE('',*,*,#218,.F.);
#278=ORIENTED_EDGE('',*,*,#220,.F.);
#279=ORIENTED_EDGE('',*,*,#221,.F.);
#280=ORIENTED_EDGE('',*,*,#222,.F.);
#281=ORIENTED_EDGE('',*,*,#223,.F.);
#282=ORIENTED_EDGE('',*,*,#224,.F.);
#283=ORIENTED_EDGE('',*,*,#225,.T.);
#284=ORIENTED_EDGE('',*,*,#226,.F.);
#285=ORIENTED_EDGE('',*,*,#225,.F.);
#286=ORIENTED_EDGE('',*,*,#227,.F.);
#287=ORIENTED_EDGE('',*,*,#228,.F.);
#288=ORIENTED_EDGE('',*,*,#228,.T.);
#289=ORIENTED_EDGE('',*,*,#229,.T.);
#290=ORIENTED_EDGE('',*,*,#230,.T.);
#291=ORIENTED_EDGE('',*,*,#231,.F.);
#292=ORIENTED_EDGE('',*,*,#230,.F.);
#293=ORIENTED_EDGE('',*,*,#232,.T.);
#294=ORIENTED_EDGE('',*,*,#223,.T.);
#295=ORIENTED_EDGE('',*,*,#233,.T.);
#296=ORIENTED_EDGE('',*,*,#211,.T.);
#297=ORIENTED_EDGE('',*,*,#234,.T.);
#298=ORIENTED_EDGE('',*,*,#213,.T.);
#299=ORIENTED_EDGE('',*,*,#235,.T.);
#300=ORIENTED_EDGE('',*,*,#200,.T.);
#301=ORIENTED_EDGE('',*,*,#236,.T.);
#302=ORIENTED_EDGE('',*,*,#195,.T.);
#303=ORIENTED_EDGE('',*,*,#237,.T.);
#304=ORIENTED_EDGE('',*,*,#207,.T.);
#305=ORIENTED_EDGE('',*,*,#238,.T.);
#306=ORIENTED_EDGE('',*,*,#202,.T.);
#307=ORIENTED_EDGE('',*,*,#239,.T.);
#308=ORIENTED_EDGE('',*,*,#221,.T.);
#309=ORIENTED_EDGE('',*,*,#240,.T.);
#310=ORIENTED_EDGE('',*,*,#216,.T.);
#311=ORIENTED_EDGE('',*,*,#241,.T.);
#312=ORIENTED_EDGE('',*,*,#242,.F.);
#313=ORIENTED_EDGE('',*,*,#243,.F.);
#314=ORIENTED_EDGE('',*,*,#244,.T.);
#315=ORIENTED_EDGE('',*,*,#242,.T.);
#316=ORIENTED_EDGE('',*,*,#244,.F.);
#317=ORIENTED_EDGE('',*,*,#198,.T.);
#318=ORIENTED_EDGE('',*,*,#235,.F.);
#319=ORIENTED_EDGE('',*,*,#212,.T.);
#320=ORIENTED_EDGE('',*,*,#208,.T.);
#321=ORIENTED_EDGE('',*,*,#233,.F.);
#322=ORIENTED_EDGE('',*,*,#222,.T.);
#323=ORIENTED_EDGE('',*,*,#226,.T.);
#324=ORIENTED_EDGE('',*,*,#241,.F.);
#325=ORIENTED_EDGE('',*,*,#215,.T.);
#326=ORIENTED_EDGE('',*,*,#219,.T.);
#327=ORIENTED_EDGE('',*,*,#239,.F.);
#328=ORIENTED_EDGE('',*,*,#201,.T.);
#329=ORIENTED_EDGE('',*,*,#205,.T.);
#330=ORIENTED_EDGE('',*,*,#237,.F.);
#331=ORIENTED_EDGE('',*,*,#194,.T.);
#332=ORIENTED_EDGE('',*,*,#243,.T.);
#333=ORIENTED_EDGE('',*,*,#245,.F.);
#334=ORIENTED_EDGE('',*,*,#231,.T.);
#335=ORIENTED_EDGE('',*,*,#246,.F.);
#336=ORIENTED_EDGE('',*,*,#247,.T.);
#337=ORIENTED_EDGE('',*,*,#245,.T.);
#338=ORIENTED_EDGE('',*,*,#247,.F.);
#339=ORIENTED_EDGE('',*,*,#246,.T.);
#340=ORIENTED_EDGE('',*,*,#199,.T.);
#341=ORIENTED_EDGE('',*,*,#196,.T.);
#342=ORIENTED_EDGE('',*,*,#236,.F.);
#343=ORIENTED_EDGE('',*,*,#210,.T.);
#344=ORIENTED_EDGE('',*,*,#214,.T.);
#345=ORIENTED_EDGE('',*,*,#234,.F.);
#346=ORIENTED_EDGE('',*,*,#238,.F.);
#347=ORIENTED_EDGE('',*,*,#206,.T.);
#348=ORIENTED_EDGE('',*,*,#203,.T.);
#349=ORIENTED_EDGE('',*,*,#227,.T.);
#350=ORIENTED_EDGE('',*,*,#224,.T.);
#351=ORIENTED_EDGE('',*,*,#232,.F.);
#352=ORIENTED_EDGE('',*,*,#229,.F.);
#353=ORIENTED_EDGE('',*,*,#240,.F.);
#354=ORIENTED_EDGE('',*,*,#220,.T.);
#355=ORIENTED_EDGE('',*,*,#217,.T.);
#356=PLANE('',#401);
#357=PLANE('',#402);
#358=PLANE('',#403);
#359=PLANE('',#404);
#360=PLANE('',#405);
#361=PLANE('',#406);
#362=PLANE('',#407);
#363=PLANE('',#408);
#364=PLANE('',#409);
#365=PLANE('',#410);
#366=PLANE('',#424);
#367=PLANE('',#428);
#368=PLANE('',#429);
#369=PLANE('',#433);
#370=ADVANCED_FACE('',(#41),#356,.F.);
#371=ADVANCED_FACE('',(#42),#357,.F.);
#372=ADVANCED_FACE('',(#43),#358,.F.);
#373=ADVANCED_FACE('',(#44),#359,.F.);
#374=ADVANCED_FACE('',(#45),#360,.F.);
#375=ADVANCED_FACE('',(#46),#361,.F.);
#376=ADVANCED_FACE('',(#47),#362,.F.);
#377=ADVANCED_FACE('',(#48),#363,.F.);
#378=ADVANCED_FACE('',(#49),#364,.F.);
#379=ADVANCED_FACE('',(#50),#365,.F.);
#380=ADVANCED_FACE('',(#51),#38,.F.);
#381=ADVANCED_FACE('',(#52),#366,.T.);
#382=ADVANCED_FACE('',(#53),#39,.T.);
#383=ADVANCED_FACE('',(#54,#15),#367,.T.);
#384=ADVANCED_FACE('',(#55,#16),#368,.T.);
#385=ADVANCED_FACE('',(#56),#40,.T.);
#386=ADVANCED_FACE('',(#57,#17,#18,#19,#20,#21),#369,.T.);
#387=CLOSED_SHELL('',(#370,#371,#372,#373,#374,#375,#376,#377,#378,#379,
#380,#381,#382,#383,#384,#385,#386));
#388=DERIVED_UNIT_ELEMENT(#390,1.);
#389=DERIVED_UNIT_ELEMENT(#653,-3.);
#390=(
MASS_UNIT()
NAMED_UNIT(*)
SI_UNIT(.KILO.,.GRAM.)
);
#391=DERIVED_UNIT((#388,#389));
#392=MEASURE_REPRESENTATION_ITEM('density measure',
POSITIVE_RATIO_MEASURE(7850.),#391);
#393=PROPERTY_DEFINITION_REPRESENTATION(#398,#395);
#394=PROPERTY_DEFINITION_REPRESENTATION(#399,#396);
#395=REPRESENTATION('material name',(#397),#650);
#396=REPRESENTATION('density',(#392),#650);
#397=DESCRIPTIVE_REPRESENTATION_ITEM('Steel','Steel');
#398=PROPERTY_DEFINITION('material property','material name',#660);
#399=PROPERTY_DEFINITION('material property','density of part',#660);
#400=AXIS2_PLACEMENT_3D('',#540,#434,#435);
#401=AXIS2_PLACEMENT_3D('',#541,#436,#437);
#402=AXIS2_PLACEMENT_3D('',#550,#442,#443);
#403=AXIS2_PLACEMENT_3D('',#556,#447,#448);
#404=AXIS2_PLACEMENT_3D('',#565,#453,#454);
#405=AXIS2_PLACEMENT_3D('',#571,#458,#459);
#406=AXIS2_PLACEMENT_3D('',#580,#464,#465);
#407=AXIS2_PLACEMENT_3D('',#586,#469,#470);
#408=AXIS2_PLACEMENT_3D('',#595,#475,#476);
#409=AXIS2_PLACEMENT_3D('',#601,#480,#481);
#410=AXIS2_PLACEMENT_3D('',#610,#486,#487);
#411=AXIS2_PLACEMENT_3D('',#616,#491,#492);
#412=AXIS2_PLACEMENT_3D('',#618,#493,#494);
#413=AXIS2_PLACEMENT_3D('',#621,#496,#497);
#414=AXIS2_PLACEMENT_3D('',#622,#498,#499);
#415=AXIS2_PLACEMENT_3D('',#623,#500,#501);
#416=AXIS2_PLACEMENT_3D('',#624,#502,#503);
#417=AXIS2_PLACEMENT_3D('',#625,#504,#505);
#418=AXIS2_PLACEMENT_3D('',#626,#506,#507);
#419=AXIS2_PLACEMENT_3D('',#627,#508,#509);
#420=AXIS2_PLACEMENT_3D('',#628,#510,#511);
#421=AXIS2_PLACEMENT_3D('',#629,#512,#513);
#422=AXIS2_PLACEMENT_3D('',#630,#514,#515);
#423=AXIS2_PLACEMENT_3D('',#631,#516,#517);
#424=AXIS2_PLACEMENT_3D('',#632,#518,#519);
#425=AXIS2_PLACEMENT_3D('',#634,#520,#521);
#426=AXIS2_PLACEMENT_3D('',#635,#522,#523);
#427=AXIS2_PLACEMENT_3D('',#637,#524,#525);
#428=AXIS2_PLACEMENT_3D('',#639,#527,#528);
#429=AXIS2_PLACEMENT_3D('',#640,#529,#530);
#430=AXIS2_PLACEMENT_3D('',#642,#531,#532);
#431=AXIS2_PLACEMENT_3D('',#643,#533,#534);
#432=AXIS2_PLACEMENT_3D('',#645,#535,#536);
#433=AXIS2_PLACEMENT_3D('',#647,#538,#539);
#434=DIRECTION('axis',(0.,0.,1.));
#435=DIRECTION('refdir',(1.,0.,0.));
#436=DIRECTION('center_axis',(-0.478925938750356,0.,0.877855309941274));
#437=DIRECTION('ref_axis',(0.877855309941274,0.,0.478925938750356));
#438=DIRECTION('',(-0.877855309941274,0.,-0.478925938750356));
#439=DIRECTION('',(0.,1.,0.));
#440=DIRECTION('',(0.877855309941274,0.,0.478925938750355));
#441=DIRECTION('',(0.,1.,0.));
#442=DIRECTION('center_axis',(-0.903449628326132,0.,-0.42869426060699));
#443=DIRECTION('ref_axis',(-0.42869426060699,0.,0.903449628326132));
#444=DIRECTION('',(0.42869426060699,0.,-0.903449628326132));
#445=DIRECTION('',(-0.42869426060699,0.,0.903449628326132));
#446=DIRECTION('',(0.,-1.,0.));
#447=DIRECTION('center_axis',(-0.982886267004786,0.,-0.184213425497159));
#448=DIRECTION('ref_axis',(-0.184213425497159,0.,0.982886267004785));
#449=DIRECTION('',(0.184213425497159,0.,-0.982886267004785));
#450=DIRECTION('',(0.,1.,0.));
#451=DIRECTION('',(-0.184213425497159,0.,0.982886267004786));
#452=DIRECTION('',(0.,1.,0.));
#453=DIRECTION('center_axis',(0.128531181334106,0.,-0.991705468082565));
#454=DIRECTION('ref_axis',(-0.991705468082565,0.,-0.128531181334106));
#455=DIRECTION('',(0.991705468082565,0.,0.128531181334106));
#456=DIRECTION('',(-0.991705468082565,0.,-0.128531181334106));
#457=DIRECTION('',(0.,-1.,0.));
#458=DIRECTION('center_axis',(-0.686893758763116,0.,0.72675784424544));
#459=DIRECTION('ref_axis',(0.72675784424544,0.,0.686893758763116));
#460=DIRECTION('',(-0.72675784424544,0.,-0.686893758763116));
#461=DIRECTION('',(0.,1.,0.));
#462=DIRECTION('',(0.72675784424544,0.,0.686893758763116));
#463=DIRECTION('',(0.,-1.,0.));
#464=DIRECTION('center_axis',(0.686893758763115,0.,0.72675784424544));
#465=DIRECTION('ref_axis',(0.72675784424544,0.,-0.686893758763115));
#466=DIRECTION('',(-0.72675784424544,0.,0.686893758763115));
#467=DIRECTION('',(0.,1.,0.));
#468=DIRECTION('',(0.72675784424544,0.,-0.686893758763115));
#469=DIRECTION('center_axis',(-0.128531181334106,0.,-0.991705468082565));
#470=DIRECTION('ref_axis',(-0.991705468082565,0.,0.128531181334106));
#471=DIRECTION('',(0.991705468082565,0.,-0.128531181334106));
#472=DIRECTION('',(0.,1.,0.));
#473=DIRECTION('',(-0.991705468082565,0.,0.128531181334105));
#474=DIRECTION('',(0.,1.,0.));
#475=DIRECTION('center_axis',(0.982886267004786,0.,-0.184213425497159));
#476=DIRECTION('ref_axis',(-0.184213425497159,0.,-0.982886267004786));
#477=DIRECTION('',(0.184213425497159,0.,0.982886267004786));
#478=DIRECTION('',(-0.184213425497159,0.,-0.982886267004786));
#479=DIRECTION('',(0.,-1.,0.));
#480=DIRECTION('center_axis',(0.903449628326132,0.,-0.42869426060699));
#481=DIRECTION('ref_axis',(-0.42869426060699,0.,-0.903449628326132));
#482=DIRECTION('',(0.42869426060699,0.,0.903449628326132));
#483=DIRECTION('',(0.,1.,0.));
#484=DIRECTION('',(-0.42869426060699,0.,-0.903449628326132));
#485=DIRECTION('',(0.,1.,0.));
#486=DIRECTION('center_axis',(0.478925938750356,0.,0.877855309941274));
#487=DIRECTION('ref_axis',(0.877855309941274,0.,-0.478925938750356));
#488=DIRECTION('',(-0.877855309941274,0.,0.478925938750356));
#489=DIRECTION('',(0.877855309941274,0.,-0.478925938750356));
#490=DIRECTION('',(0.,-1.,0.));
#491=DIRECTION('center_axis',(0.,-1.,0.));
#492=DIRECTION('ref_axis',(1.,0.,0.));
#493=DIRECTION('center_axis',(0.,-1.,0.));
#494=DIRECTION('ref_axis',(1.,0.,0.));
#495=DIRECTION('',(0.,1.,0.));
#496=DIRECTION('center_axis',(0.,-1.,0.));
#497=DIRECTION('ref_axis',(1.,0.,0.));
#498=DIRECTION('center_axis',(0.,-1.,0.));
#499=DIRECTION('ref_axis',(1.,0.,0.));
#500=DIRECTION('center_axis',(0.,-1.,0.));
#501=DIRECTION('ref_axis',(1.,0.,0.));
#502=DIRECTION('center_axis',(0.,-1.,0.));
#503=DIRECTION('ref_axis',(1.,0.,0.));
#504=DIRECTION('center_axis',(0.,-1.,0.));
#505=DIRECTION('ref_axis',(1.,0.,0.));
#506=DIRECTION('center_axis',(0.,-1.,0.));
#507=DIRECTION('ref_axis',(1.,0.,0.));
#508=DIRECTION('center_axis',(0.,-1.,0.));
#509=DIRECTION('ref_axis',(1.,0.,0.));
#510=DIRECTION('center_axis',(0.,-1.,0.));
#511=DIRECTION('ref_axis',(1.,0.,0.));
#512=DIRECTION('center_axis',(0.,-1.,0.));
#513=DIRECTION('ref_axis',(1.,0.,0.));
#514=DIRECTION('center_axis',(0.,-1.,0.));
#515=DIRECTION('ref_axis',(1.,0.,0.));
#516=DIRECTION('center_axis',(0.,-1.,0.));
#517=DIRECTION('ref_axis',(1.,0.,0.));
#518=DIRECTION('center_axis',(0.,1.,0.));
#519=DIRECTION('ref_axis',(0.,0.,1.));
#520=DIRECTION('center_axis',(0.,-1.,0.));
#521=DIRECTION('ref_axis',(1.,0.,0.));
#522=DIRECTION('center_axis',(0.,-1.,0.));
#523=DIRECTION('ref_axis',(1.,0.,0.));
#524=DIRECTION('center_axis',(0.,-1.,0.));
#525=DIRECTION('ref_axis',(1.,0.,0.));
#526=DIRECTION('',(0.,1.,0.));
#527=DIRECTION('center_axis',(0.,1.,0.));
#528=DIRECTION('ref_axis',(0.,0.,1.));
#529=DIRECTION('center_axis',(0.,1.,0.));
#530=DIRECTION('ref_axis',(0.,0.,1.));
#531=DIRECTION('center_axis',(0.,-1.,0.));
#532=DIRECTION('ref_axis',(1.,0.,0.));
#533=DIRECTION('center_axis',(0.,-1.,0.));
#534=DIRECTION('ref_axis',(1.,0.,0.));
#535=DIRECTION('center_axis',(0.,-1.,0.));
#536=DIRECTION('ref_axis',(1.,0.,0.));
#537=DIRECTION('',(0.,1.,0.));
#538=DIRECTION('center_axis',(0.,-1.,0.));
#539=DIRECTION('ref_axis',(0.,0.,-1.));
#540=CARTESIAN_POINT('',(0.,0.,0.));
#541=CARTESIAN_POINT('Origin',(14.2658477444273,0.,-4.63525491562421));
#542=CARTESIAN_POINT('',(32.0983798737073,5.,5.09352623269809));
#543=CARTESIAN_POINT('',(14.2658477444273,5.,-4.63525491562421));
#544=CARTESIAN_POINT('',(22.2661343525809,5.,-0.2705894283947));
#545=CARTESIAN_POINT('',(32.0983798737073,0.,5.09352623269808));
#546=CARTESIAN_POINT('',(32.0983798737073,17.5,5.09352623269808));
#547=CARTESIAN_POINT('',(14.2658477444273,0.,-4.63525491562421));
#548=CARTESIAN_POINT('',(32.0983798737073,0.,5.09352623269808));
#549=CARTESIAN_POINT('',(14.2658477444273,0.,-4.63525491562421));
#550=CARTESIAN_POINT('Origin',(22.9742352079872,0.,-22.987703595794));
#551=CARTESIAN_POINT('',(22.9742352079872,5.,-22.987703595794));
#552=CARTESIAN_POINT('',(19.3979408835008,5.,-15.4508595669812));
#553=CARTESIAN_POINT('',(22.9742352079872,0.,-22.987703595794));
#554=CARTESIAN_POINT('',(14.2658477444273,0.,-4.63525491562421));
#555=CARTESIAN_POINT('',(22.9742352079872,17.5,-22.987703595794));
#556=CARTESIAN_POINT('Origin',(8.8167787843871,0.,12.1352549156242));
#557=CARTESIAN_POINT('',(5.07471355835051,5.,32.1013595086048));
#558=CARTESIAN_POINT('',(8.8167787843871,5.,12.1352549156242));
#559=CARTESIAN_POINT('',(10.3172287009626,5.,4.12947784834264));
#560=CARTESIAN_POINT('',(5.07471355835051,0.,32.1013595086048));
#561=CARTESIAN_POINT('',(5.07471355835051,17.5,32.1013595086048));
#562=CARTESIAN_POINT('',(8.8167787843871,0.,12.1352549156242));
#563=CARTESIAN_POINT('',(5.07471355835051,0.,32.1013595086048));
#564=CARTESIAN_POINT('',(8.8167787843871,0.,12.1352549156242));
#565=CARTESIAN_POINT('Origin',(28.9620344114767,0.,14.7462050286993));
#566=CARTESIAN_POINT('',(28.9620344114767,5.,14.7462050286993));
#567=CARTESIAN_POINT('',(29.7619800744071,5.,14.8498829495828));
#568=CARTESIAN_POINT('',(28.9620344114767,0.,14.7462050286993));
#569=CARTESIAN_POINT('',(8.8167787843871,0.,12.1352549156242));
#570=CARTESIAN_POINT('',(28.9620344114767,17.5,14.7462050286993));
#571=CARTESIAN_POINT('Origin',(-14.7631761874061,0.,-28.9533871742082));
#572=CARTESIAN_POINT('',(0.,5.,-15.));
#573=CARTESIAN_POINT('',(-14.7631761874061,5.,-28.9533871742082));
#574=CARTESIAN_POINT('',(4.94532827917893,5.,-10.3259326240508));
#575=CARTESIAN_POINT('',(0.,0.,-15.));
#576=CARTESIAN_POINT('',(0.,0.,-15.));
#577=CARTESIAN_POINT('',(-14.7631761874061,0.,-28.9533871742082));
#578=CARTESIAN_POINT('',(0.,0.,-15.));
#579=CARTESIAN_POINT('',(-14.7631761874061,17.5,-28.9533871742082));
#580=CARTESIAN_POINT('Origin',(0.,0.,-15.));
#581=CARTESIAN_POINT('',(14.7631761874062,5.,-28.9533871742082));
#582=CARTESIAN_POINT('',(4.83883496271707,5.,-19.5734154256374));
#583=CARTESIAN_POINT('',(14.7631761874061,0.,-28.9533871742082));
#584=CARTESIAN_POINT('',(14.7631761874062,17.5,-28.9533871742082));
#585=CARTESIAN_POINT('',(14.7631761874061,0.,-28.9533871742082));
#586=CARTESIAN_POINT('Origin',(-8.8167787843871,0.,12.1352549156242));
#587=CARTESIAN_POINT('',(-28.9620344114767,5.,14.7462050286993));
#588=CARTESIAN_POINT('',(-8.8167787843871,5.,12.1352549156242));
#589=CARTESIAN_POINT('',(12.2737391404456,5.,9.40179294423051));
#590=CARTESIAN_POINT('',(-28.9620344114767,0.,14.7462050286993));
#591=CARTESIAN_POINT('',(-28.9620344114768,17.5,14.7462050286993));
#592=CARTESIAN_POINT('',(-8.8167787843871,0.,12.1352549156242));
#593=CARTESIAN_POINT('',(-28.9620344114767,0.,14.7462050286993));
#594=CARTESIAN_POINT('',(-8.8167787843871,0.,12.1352549156242));
#595=CARTESIAN_POINT('Origin',(-5.07471355835051,0.,32.1013595086048));
#596=CARTESIAN_POINT('',(-5.07471355835051,5.,32.1013595086048));
#597=CARTESIAN_POINT('',(-7.34332203860889,5.,19.9970076437026));
#598=CARTESIAN_POINT('',(-5.07471355835051,0.,32.1013595086048));
#599=CARTESIAN_POINT('',(-8.8167787843871,0.,12.1352549156242));
#600=CARTESIAN_POINT('',(-5.07471355835051,17.5,32.1013595086048));
#601=CARTESIAN_POINT('Origin',(-14.2658477444273,0.,-4.63525491562422));
#602=CARTESIAN_POINT('',(-22.9742352079872,5.,-22.987703595794));
#603=CARTESIAN_POINT('',(-14.2658477444273,5.,-4.63525491562422));
#604=CARTESIAN_POINT('',(-9.07093715670617,5.,6.31273406145899));
#605=CARTESIAN_POINT('',(-22.9742352079872,0.,-22.987703595794));
#606=CARTESIAN_POINT('',(-22.9742352079872,17.5,-22.987703595794));
#607=CARTESIAN_POINT('',(-14.2658477444273,0.,-4.63525491562422));
#608=CARTESIAN_POINT('',(-22.9742352079872,0.,-22.987703595794));
#609=CARTESIAN_POINT('',(-14.2658477444273,0.,-4.63525491562422));
#610=CARTESIAN_POINT('Origin',(-32.0983798737073,0.,5.09352623269808));
#611=CARTESIAN_POINT('',(-32.0983798737073,5.,5.09352623269808));
#612=CARTESIAN_POINT('',(-6.13692719847791,5.,-9.07009840225336));
#613=CARTESIAN_POINT('',(-32.0983798737073,0.,5.09352623269808));
#614=CARTESIAN_POINT('',(-14.2658477444273,0.,-4.63525491562422));
#615=CARTESIAN_POINT('',(-32.0983798737073,17.5,5.09352623269808));
#616=CARTESIAN_POINT('Origin',(0.,17.5,0.));
#617=CARTESIAN_POINT('',(-32.5,0.,-3.9801020972289E-15));
#618=CARTESIAN_POINT('Origin',(0.,0.,0.));
#619=CARTESIAN_POINT('',(-32.5,30.,-3.9801020972289E-15));
#620=CARTESIAN_POINT('',(-32.5,17.5,-3.9801020972289E-15));
#621=CARTESIAN_POINT('Origin',(0.,30.,0.));
#622=CARTESIAN_POINT('Origin',(0.,0.,0.));
#623=CARTESIAN_POINT('Origin',(0.,5.,0.));
#624=CARTESIAN_POINT('Origin',(0.,0.,0.));
#625=CARTESIAN_POINT('Origin',(0.,5.,0.));
#626=CARTESIAN_POINT('Origin',(0.,0.,0.));
#627=CARTESIAN_POINT('Origin',(0.,5.,0.));
#628=CARTESIAN_POINT('Origin',(0.,0.,0.));
#629=CARTESIAN_POINT('Origin',(0.,5.,0.));
#630=CARTESIAN_POINT('Origin',(0.,0.,0.));
#631=CARTESIAN_POINT('Origin',(0.,5.,0.));
#632=CARTESIAN_POINT('Origin',(5.00000007450581,15.,0.));
#633=CARTESIAN_POINT('',(-5.00000007450581,15.,-6.12323408698006E-16));
#634=CARTESIAN_POINT('Origin',(0.,15.,0.));
#635=CARTESIAN_POINT('Origin',(0.,10.,0.));
#636=CARTESIAN_POINT('',(-5.00000007450581,5.,-6.12323408698006E-16));
#637=CARTESIAN_POINT('Origin',(0.,5.,0.));
#638=CARTESIAN_POINT('',(-5.00000007450581,10.,-6.12323408698006E-16));
#639=CARTESIAN_POINT('Origin',(32.5,5.,0.));
#640=CARTESIAN_POINT('Origin',(35.0000005215406,30.,0.));
#641=CARTESIAN_POINT('',(-35.0000002607703,30.,-4.28626382895089E-15));
#642=CARTESIAN_POINT('Origin',(0.,30.,0.));
#643=CARTESIAN_POINT('Origin',(0.,15.,0.));
#644=CARTESIAN_POINT('',(-35.0000002607703,0.,-4.28626382895089E-15));
#645=CARTESIAN_POINT('Origin',(0.,0.,0.));
#646=CARTESIAN_POINT('',(-35.0000002607703,15.,-4.28626382895089E-15));
#647=CARTESIAN_POINT('Origin',(0.,0.,0.));
#648=UNCERTAINTY_MEASURE_WITH_UNIT(LENGTH_MEASURE(0.01),#652,
'DISTANCE_ACCURACY_VALUE',
'Maximum model space distance between geometric entities at asserted c
onnectivities');
#649=UNCERTAINTY_MEASURE_WITH_UNIT(LENGTH_MEASURE(0.01),#652,
'DISTANCE_ACCURACY_VALUE',
'Maximum model space distance between geometric entities at asserted c
onnectivities');
#650=(
GEOMETRIC_REPRESENTATION_CONTEXT(3)
GLOBAL_UNCERTAINTY_ASSIGNED_CONTEXT((#648))
GLOBAL_UNIT_ASSIGNED_CONTEXT((#652,#654,#655))
REPRESENTATION_CONTEXT('','3D')
);
#651=(
GEOMETRIC_REPRESENTATION_CONTEXT(3)
GLOBAL_UNCERTAINTY_ASSIGNED_CONTEXT((#649))
GLOBAL_UNIT_ASSIGNED_CONTEXT((#652,#654,#655))
REPRESENTATION_CONTEXT('','3D')
);
#652=(
LENGTH_UNIT()
NAMED_UNIT(*)
SI_UNIT(.MILLI.,.METRE.)
);
#653=(
LENGTH_UNIT()
NAMED_UNIT(*)
SI_UNIT($,.METRE.)
);
#654=(
NAMED_UNIT(*)
PLANE_ANGLE_UNIT()
SI_UNIT($,.RADIAN.)
);
#655=(
NAMED_UNIT(*)
SI_UNIT($,.STERADIAN.)
SOLID_ANGLE_UNIT()
);
#656=SHAPE_DEFINITION_REPRESENTATION(#657,#658);
#657=PRODUCT_DEFINITION_SHAPE('',$,#660);
#658=SHAPE_REPRESENTATION('',(#400),#650);
#659=PRODUCT_DEFINITION_CONTEXT('part definition',#664,'design');
#660=PRODUCT_DEFINITION('wheel v2 print version',
'wheel v2 print version v1',#661,#659);
#661=PRODUCT_DEFINITION_FORMATION('',$,#666);
#662=PRODUCT_RELATED_PRODUCT_CATEGORY('wheel v2 print version v1',
'wheel v2 print version v1',(#666));
#663=APPLICATION_PROTOCOL_DEFINITION('international standard',
'automotive_design',2009,#664);
#664=APPLICATION_CONTEXT(
'Core Data for Automotive Mechanical Design Process');
#665=PRODUCT_CONTEXT('part definition',#664,'mechanical');
#666=PRODUCT('wheel v2 print version','wheel v2 print version v1',$,(#665));
#667=PRESENTATION_STYLE_ASSIGNMENT((#668));
#668=SURFACE_STYLE_USAGE(.BOTH.,#669);
#669=SURFACE_SIDE_STYLE('',(#670));
#670=SURFACE_STYLE_FILL_AREA(#671);
#671=FILL_AREA_STYLE('Steel - Satin',(#672));
#672=FILL_AREA_STYLE_COLOUR('Steel - Satin',#673);
#673=COLOUR_RGB('Steel - Satin',0.627450980392157,0.627450980392157,0.627450980392157);
ENDSEC;
END-ISO-10303-21;
